<svg width="696" height="219" viewBox="0 0 696 219" fill="none" xmlns="http://www.w3.org/2000/svg">
<path d="M42.8394 193.744L42.946 192.558L42.8264 191.372C41.0838 174.094 42.7995 158.363 49.6845 142.836L49.8829 142.388L50.0458 141.927C56.7592 122.891 73.1455 102.866 94.8498 87.2006C95.2401 86.938 95.6231 86.6801 95.9991 86.4268C104.011 81.0307 108.878 77.7519 115.015 76.7547C118.68 76.1644 122.624 75.9301 126.009 76.1939C126.418 76.2257 126.807 76.264 127.176 76.3078C125.24 81.6207 121.854 87.6473 117.466 94.8586C116.76 96.0188 116.026 97.2132 115.274 98.4365C110.721 105.84 105.516 114.307 101.995 122.697L101.867 123.004L101.754 123.317C101.373 124.382 101.049 125.17 100.642 126.159C100.304 126.981 99.9088 127.942 99.3765 129.315C98.4449 131.719 97.3152 134.899 96.7335 138.385C96.1385 141.95 96.0247 146.349 97.6056 150.958C99.2321 155.7 102.305 159.65 106.44 162.753L106.646 162.908L106.858 163.054C115.207 168.798 124.102 168.832 131.162 167.218C137.833 165.693 143.856 162.476 147.615 160.468L147.623 160.463L147.961 160.283L148.288 160.081C166.78 148.692 178.82 134.184 189.258 121.606C191.782 118.564 194.212 115.636 196.618 112.891L196.66 112.843L196.702 112.794C197.71 111.62 198.709 110.453 199.703 109.291C211.486 95.5275 222.479 82.6854 237.077 71.0363C253.005 58.6414 271.731 46.177 294.989 41.6268C308.634 39.3159 318.796 39.376 327.954 43.3394L328.262 43.4729L328.577 43.5896C332.749 45.1348 334.602 46.5428 335.46 47.4562C336.141 48.1812 336.714 49.1211 337.054 51.1299L337.175 51.8452L337.374 52.5281C337.393 52.6478 337.474 53.5696 336.487 56.0272C335.511 58.4592 334.152 60.8925 332.337 64.1443C331.849 65.0182 331.329 65.9512 330.773 66.9592L330.755 66.9916L330.738 67.0241C329.46 69.3757 328.048 71.7614 326.492 74.3849L326.386 74.5638C324.9 77.0676 323.282 79.7956 321.766 82.5709C318.709 88.169 315.561 94.8476 314.243 102.258C313.6 105.737 313.594 109.794 315.109 113.842C316.698 118.089 319.652 121.47 323.449 123.726C330.418 127.867 339.132 127.69 347.178 126.123L347.606 126.04L348.027 125.927C358.811 123.034 368.458 118.41 376.741 114.44C379.39 113.17 381.899 111.967 384.262 110.909L384.279 110.901L384.296 110.894C386.117 110.072 388.158 109.136 390.382 108.116C402.91 102.371 421.261 93.9563 439.092 88.1165C449.616 84.6694 459.167 82.397 466.692 81.9318C472.917 81.5469 475.783 82.5007 476.952 83.1551C476.951 83.414 476.93 83.7815 476.862 84.2845C476.551 86.5977 475.605 89.3225 474.209 93.1208L474.209 93.1213L474.168 93.2308L474.116 93.3725L474.068 93.5153C473.158 96.1868 472.084 98.9129 470.874 101.971L470.8 102.159C469.649 105.069 468.374 108.293 467.25 111.573C464.969 118.23 462.9 126.222 463.562 134.895L463.607 135.477L463.705 136.051C466.002 149.48 477.184 162.248 496.856 165.275L497.064 165.307L497.273 165.332C510.661 166.933 524.533 165.704 536.531 163.712L536.779 163.671L537.025 163.62C553.839 160.127 567.823 153.721 580.088 147.827L580.109 147.817L580.13 147.807C598.613 138.839 614.232 128.41 628.718 118.068C646.911 105.078 664.24 91.1039 678.5 75.9312C678.858 75.645 679.416 75.1707 680 74.5451C680.699 73.7963 682.241 71.9936 683.028 69.1773C683.973 65.7996 683.479 62.2324 681.737 59.2682C680.279 56.7873 678.36 55.4189 677.385 54.8039C675.485 53.6058 673.547 53.0539 672.661 52.8122C665.539 50.8699 660.118 54.4581 658.125 56.0287C656.912 56.9851 655.994 57.9415 655.394 58.6235C655.224 58.8166 655.071 58.9984 654.934 59.1655C642.875 71.7262 625.388 85.8151 610.645 96.2545L610.632 96.2642L610.618 96.274C596.983 105.984 583.191 115.166 567.198 123C554.248 129.277 542.644 134.559 528.735 137.044C523.476 137.717 517.609 138.334 512.077 138.465C506.245 138.604 501.868 138.163 499.217 137.321C494.228 135.645 493.101 132.231 493.026 131.294C493.455 125.021 495.469 119.816 498.353 112.361C499.354 109.771 500.461 106.91 501.643 103.638L501.703 103.471L501.759 103.303C502.067 102.367 502.424 101.374 502.857 100.176L502.911 100.027C503.311 98.9183 503.774 97.6384 504.212 96.33C505.115 93.6319 506.123 90.2216 506.544 86.513C506.975 82.7154 506.832 78.2739 505.147 73.6878C503.433 69.0226 500.417 65.008 496.314 61.6955L495.959 61.4094L495.585 61.1498C484.792 53.6668 470.675 53.4101 458.186 55.1222C445.17 56.9066 430.895 61.2749 417.362 66.319C403.732 71.3994 390.312 77.3741 378.929 82.6407C374.672 84.6104 370.783 86.4404 367.282 88.0878C361.199 90.9502 356.286 93.2619 352.644 94.7997C351.556 95.2401 350.58 95.6547 349.649 96.0505C348.799 96.412 347.985 96.7578 347.157 97.0932C347.641 96.1463 348.172 95.1513 348.749 94.1055C350.125 91.6116 351.624 89.0745 353.228 86.3599L353.299 86.2387C354.892 83.5421 356.594 80.6588 358.163 77.7909L358.177 77.7666L358.19 77.7422C358.456 77.251 358.747 76.721 359.057 76.1576C360.843 72.9094 363.239 68.5546 364.834 64.165C366.735 58.9351 368.104 52.1879 366.048 44.8471C363.066 28.4179 349.062 20.4025 333.533 15.5359L333.493 15.5231L333.452 15.5107C318.162 10.8331 300.669 12.3693 287.155 14.9883L286.981 15.022L286.808 15.0607C256.234 21.8908 234.682 36.9729 217.282 50.5284L217.202 50.5907L217.123 50.6542C199.614 64.7557 186.421 80.4012 174.138 94.967C172.258 97.1964 170.399 99.4004 168.55 101.57C166.072 104.37 163.749 107.092 161.503 109.725C151.365 121.61 142.782 131.67 128.44 138.825C127.915 139.073 127.425 139.295 126.965 139.493C127.01 139.367 127.056 139.238 127.105 139.106C127.44 138.188 127.808 137.257 128.238 136.171L128.263 136.11C128.618 135.212 129.031 134.17 129.415 133.125C132.364 126.341 136.45 119.619 141.089 111.987C141.389 111.494 141.69 110.998 141.994 110.497C146.852 102.497 152.272 93.4347 155.867 83.8014L156.119 83.1266L156.291 82.4274C156.33 82.269 156.386 82.0595 156.454 81.8054C156.933 80.0012 158.01 75.9501 157.982 72.0259C157.942 66.3263 155.8 60.1823 149.933 55.4561L149.446 55.0633L148.921 54.7212C142.159 50.3101 133.785 48.8433 126.738 48.525C119.405 48.1938 111.813 49.0349 105.4 50.593L105.328 50.6105L105.257 50.6288C95.7888 53.0487 88.6926 57.3754 83.1703 61.0582C76.5983 65.3831 70.1081 70.0203 64.2262 75.0826L64.0826 75.2062L63.9427 75.3342C49.4556 88.5881 35.764 103.499 27.5485 120.218L27.483 120.351L27.4207 120.486C20.123 136.274 13.1569 154.052 12.5563 172.791L12.5563 172.792C12.3606 178.909 12.7218 185.063 13.0437 190.546C13.0891 191.32 13.1338 192.081 13.176 192.827C13.1374 197.703 15.8511 201.191 17.7722 202.875C19.9742 204.806 22.4921 205.796 24.7419 206.206C28.0448 206.846 31.2744 206.393 33.9322 205.323C35.3304 204.76 37.0723 203.826 38.6898 202.279C40.2549 200.782 42.4627 197.939 42.8394 193.744ZM476.906 82.6334C476.908 82.631 476.918 82.6581 476.928 82.7222C476.908 82.668 476.903 82.6359 476.906 82.6334ZM123.723 140.553C123.724 140.553 123.739 140.551 123.768 140.55C123.737 140.553 123.723 140.554 123.723 140.553ZM337.371 52.5143C337.371 52.5143 337.372 52.5178 337.373 52.5254C337.372 52.5182 337.371 52.5144 337.371 52.5143Z" stroke="#D8EEFF" stroke-width="25"/>
</svg>
