<svg width="69" height="92" viewBox="0 0 69 92" fill="none" xmlns="http://www.w3.org/2000/svg">
<mask id="path-1-outside-1_3303_27753" maskUnits="userSpaceOnUse" x="0" y="0" width="69" height="92" fill="black">
<rect fill="white" width="69" height="92"/>
<path d="M33.48 89.32C29.48 89.32 25.56 88.96 21.72 88.24C17.96 87.52 14.44 86.48 11.16 85.12C7.88 83.76 5.16 82.16 3 80.32L9.72 63.88C13.24 66.36 16.92 68.2 20.76 69.4C24.6 70.6 28.56 71.2 32.64 71.2C35.52 71.2 37.92 70.88 39.84 70.24C41.76 69.6 43.2 68.64 44.16 67.36C45.12 66 45.6 64.32 45.6 62.32C45.6 59.52 44.6 57.48 42.6 56.2C40.68 54.84 37.84 54.16 34.08 54.16H19.32V36.64H31.92C34.24 36.64 36.2 36.32 37.8 35.68C39.48 35.04 40.76 34.12 41.64 32.92C42.52 31.64 42.96 30.08 42.96 28.24C42.96 25.6 42 23.6 40.08 22.24C38.24 20.88 35.48 20.2 31.8 20.2C27.96 20.2 24.32 20.8 20.88 22C17.52 23.2 14.28 25.04 11.16 27.52L4.32 11.44C7.92 8.48 12.32 6.2 17.52 4.59999C22.8 2.92 28.28 2.08 33.96 2.08C40.28 2.08 45.68 3 50.16 4.84C54.64 6.68 58.04 9.36 60.36 12.88C62.76 16.32 63.96 20.48 63.96 25.36C63.96 30.24 62.6 34.44 59.88 37.96C57.16 41.48 53.44 43.8 48.72 44.92V43.24C52.4 43.8 55.56 45.04 58.2 46.96C60.92 48.88 63 51.32 64.44 54.28C65.88 57.24 66.6 60.64 66.6 64.48C66.6 69.6 65.28 74.04 62.64 77.8C60 81.56 56.2 84.44 51.24 86.44C46.28 88.36 40.36 89.32 33.48 89.32Z"/>
</mask>
<path d="M33.48 89.32C29.48 89.32 25.56 88.96 21.72 88.24C17.96 87.52 14.44 86.48 11.16 85.12C7.88 83.76 5.16 82.16 3 80.32L9.72 63.88C13.24 66.36 16.92 68.2 20.76 69.4C24.6 70.6 28.56 71.2 32.64 71.2C35.52 71.2 37.92 70.88 39.84 70.24C41.76 69.6 43.2 68.64 44.16 67.36C45.12 66 45.6 64.32 45.6 62.32C45.6 59.52 44.6 57.48 42.6 56.2C40.68 54.84 37.84 54.16 34.08 54.16H19.32V36.64H31.92C34.24 36.64 36.2 36.32 37.8 35.68C39.48 35.04 40.76 34.12 41.64 32.92C42.52 31.64 42.96 30.08 42.96 28.24C42.96 25.6 42 23.6 40.08 22.24C38.24 20.88 35.48 20.2 31.8 20.2C27.96 20.2 24.32 20.8 20.88 22C17.52 23.2 14.28 25.04 11.16 27.52L4.32 11.44C7.92 8.48 12.32 6.2 17.52 4.59999C22.8 2.92 28.28 2.08 33.96 2.08C40.28 2.08 45.68 3 50.16 4.84C54.64 6.68 58.04 9.36 60.36 12.88C62.76 16.32 63.96 20.48 63.96 25.36C63.96 30.24 62.6 34.44 59.88 37.96C57.16 41.48 53.44 43.8 48.72 44.92V43.24C52.4 43.8 55.56 45.04 58.2 46.96C60.92 48.88 63 51.32 64.44 54.28C65.88 57.24 66.6 60.64 66.6 64.48C66.6 69.6 65.28 74.04 62.64 77.8C60 81.56 56.2 84.44 51.24 86.44C46.28 88.36 40.36 89.32 33.48 89.32Z" fill="url(#paint0_linear_3303_27753)"/>
<path d="M21.72 88.24L21.3439 90.2043L21.3514 90.2057L21.72 88.24ZM11.16 85.12L10.394 86.9675L11.16 85.12ZM3 80.32L1.14869 79.5633L0.600836 80.9035L1.70307 81.8425L3 80.32ZM9.72 63.88L10.8719 62.245L8.81891 60.7986L7.86869 63.1233L9.72 63.88ZM44.16 67.36L45.76 68.56L45.7773 68.5369L45.7939 68.5134L44.16 67.36ZM42.6 56.2L41.444 57.832L41.4823 57.8592L41.5219 57.8845L42.6 56.2ZM19.32 54.16H17.32V56.16H19.32V54.16ZM19.32 36.64V34.64H17.32V36.64H19.32ZM37.8 35.68L37.088 33.811L37.0726 33.8169L37.0572 33.823L37.8 35.68ZM41.64 32.92L43.2528 34.1027L43.2708 34.0782L43.2881 34.0531L41.64 32.92ZM40.08 22.24L38.8912 23.8484L38.9075 23.8604L38.924 23.872L40.08 22.24ZM20.88 22L20.2213 20.1116L20.2143 20.114L20.2073 20.1165L20.88 22ZM11.16 27.52L9.31959 28.3029L10.3479 30.7204L12.4045 29.0856L11.16 27.52ZM4.32 11.44L3.04979 9.89515L1.89376 10.8457L2.47959 12.2229L4.32 11.44ZM17.52 4.59999L18.1082 6.51155L18.1173 6.50874L18.1264 6.50585L17.52 4.59999ZM50.16 4.84L49.4002 6.69004L50.16 4.84ZM60.36 12.88L58.6901 13.9806L58.7046 14.0027L58.7197 14.0244L60.36 12.88ZM59.88 37.96L58.2974 36.7371L59.88 37.96ZM48.72 44.92H46.72V47.4501L49.1818 46.866L48.72 44.92ZM48.72 43.24L49.0209 41.2628L46.72 40.9126V43.24H48.72ZM58.2 46.96L57.0237 48.5775L57.0351 48.5858L57.0466 48.5939L58.2 46.96ZM64.44 54.28L62.6415 55.1549L64.44 54.28ZM62.64 77.8L61.0032 76.6507L62.64 77.8ZM51.24 86.44L51.962 88.3051L51.975 88.3001L51.9879 88.2949L51.24 86.44ZM33.48 87.32C29.6007 87.32 25.8042 86.9709 22.0886 86.2743L21.3514 90.2057C25.3158 90.9491 29.3593 91.32 33.48 91.32V87.32ZM22.0961 86.2757C18.4594 85.5793 15.071 84.5765 11.926 83.2725L10.394 86.9675C13.809 88.3835 17.4606 89.4607 21.3439 90.2043L22.0961 86.2757ZM11.926 83.2725C8.79257 81.9733 6.26389 80.4731 4.29693 78.7975L1.70307 81.8425C4.05611 83.8469 6.96743 85.5467 10.394 86.9675L11.926 83.2725ZM4.85131 81.0767L11.5713 64.6367L7.86869 63.1233L1.14869 79.5633L4.85131 81.0767ZM8.56809 65.515C12.2459 68.1062 16.1118 70.0428 20.1635 71.309L21.3566 67.491C17.7282 66.3572 14.2341 64.6138 10.8719 62.245L8.56809 65.515ZM20.1635 71.309C24.1993 72.5702 28.3606 73.2 32.64 73.2V69.2C28.7594 69.2 25.0007 68.6298 21.3566 67.491L20.1635 71.309ZM32.64 73.2C35.6518 73.2 38.2823 72.8674 40.4725 72.1374L39.2075 68.3426C37.5577 68.8926 35.3882 69.2 32.64 69.2V73.2ZM40.4725 72.1374C42.676 71.4029 44.4983 70.2423 45.76 68.56L42.56 66.16C41.9017 67.0377 40.844 67.7971 39.2075 68.3426L40.4725 72.1374ZM45.7939 68.5134C47.0368 66.7526 47.6 64.6481 47.6 62.32H43.6C43.6 63.9919 43.2032 65.2474 42.5261 66.2066L45.7939 68.5134ZM47.6 62.32C47.6 58.9803 46.3629 56.2337 43.6781 54.5155L41.5219 57.8845C42.8371 58.7263 43.6 60.0597 43.6 62.32H47.6ZM43.756 54.5679C41.3504 52.864 38.0262 52.16 34.08 52.16V56.16C37.6539 56.16 40.0096 56.816 41.444 57.832L43.756 54.5679ZM34.08 52.16H19.32V56.16H34.08V52.16ZM21.32 54.16V36.64H17.32V54.16H21.32ZM19.32 38.64H31.92V34.64H19.32V38.64ZM31.92 38.64C34.4116 38.64 36.6402 38.298 38.5428 37.537L37.0572 33.823C35.7598 34.342 34.0684 34.64 31.92 34.64V38.64ZM38.512 37.549C40.4764 36.8006 42.1014 35.6729 43.2528 34.1027L40.0272 31.7373C39.4187 32.5671 38.4836 33.2794 37.088 33.811L38.512 37.549ZM43.2881 34.0531C44.437 32.3819 44.96 30.4082 44.96 28.24H40.96C40.96 29.7517 40.603 30.8981 39.9919 31.7869L43.2881 34.0531ZM44.96 28.24C44.96 25.0431 43.7561 22.393 41.236 20.6079L38.924 23.872C40.2439 24.807 40.96 26.1569 40.96 28.24H44.96ZM41.2688 20.6316C38.9318 18.9043 35.6678 18.2 31.8 18.2V22.2C35.2922 22.2 37.5482 22.8557 38.8912 23.8484L41.2688 20.6316ZM31.8 18.2C27.7479 18.2 23.8843 18.8338 20.2213 20.1116L21.5387 23.8884C24.7558 22.7662 28.1721 22.2 31.8 22.2V18.2ZM20.2073 20.1165C16.6179 21.3985 13.1874 23.3536 9.91551 25.9544L12.4045 29.0856C15.3726 26.7264 18.4221 25.0015 21.5527 23.8835L20.2073 20.1165ZM13.0004 26.7371L6.16041 10.6571L2.47959 12.2229L9.31959 28.3029L13.0004 26.7371ZM5.59021 12.9848C8.95818 10.2156 13.1161 8.04757 18.1082 6.51155L16.9318 2.68844C11.5239 4.35243 6.88182 6.74436 3.04979 9.89515L5.59021 12.9848ZM18.1264 6.50585C23.2054 4.8898 28.4805 4.08 33.96 4.08V0.079998C28.0795 0.079998 22.3946 0.950188 16.9136 2.69414L18.1264 6.50585ZM33.96 4.08C40.095 4.08 45.2225 4.97423 49.4002 6.69004L50.9198 2.98996C46.1375 1.02577 40.465 0.079998 33.96 0.079998V4.08ZM49.4002 6.69004C53.5654 8.40077 56.6229 10.8442 58.6901 13.9806L62.0299 11.7794C59.4571 7.87576 55.7146 4.95922 50.9198 2.98996L49.4002 6.69004ZM58.7197 14.0244C60.849 17.0763 61.96 20.8204 61.96 25.36H65.96C65.96 20.1396 64.671 15.5637 62.0003 11.7356L58.7197 14.0244ZM61.96 25.36C61.96 29.8429 60.7202 33.6017 58.2974 36.7371L61.4626 39.1829C64.4798 35.2783 65.96 30.6371 65.96 25.36H61.96ZM58.2974 36.7371C55.8832 39.8614 52.576 41.9495 48.2582 42.974L49.1818 46.866C54.304 45.6505 58.4368 43.0986 61.4626 39.1829L58.2974 36.7371ZM50.72 44.92V43.24H46.72V44.92H50.72ZM48.4191 45.2172C51.8274 45.7359 54.6768 46.8706 57.0237 48.5775L59.3763 45.3425C56.4432 43.2094 52.9726 41.8641 49.0209 41.2628L48.4191 45.2172ZM57.0466 48.5939C59.4943 50.3217 61.3509 52.5019 62.6415 55.1549L66.2385 53.4051C64.6491 50.1381 62.3457 47.4383 59.3534 45.3261L57.0466 48.5939ZM62.6415 55.1549C63.9285 57.8004 64.6 60.8928 64.6 64.48H68.6C68.6 60.3872 67.8315 56.6796 66.2385 53.4051L62.6415 55.1549ZM64.6 64.48C64.6 69.2378 63.3801 73.2654 61.0032 76.6507L64.2768 78.9493C67.1799 74.8146 68.6 69.9622 68.6 64.48H64.6ZM61.0032 76.6507C58.6196 80.0455 55.1539 82.7054 50.4921 84.5851L51.9879 88.2949C57.2461 86.1747 61.3804 83.0745 64.2768 78.9493L61.0032 76.6507ZM50.518 84.5749C45.8449 86.3838 40.1821 87.32 33.48 87.32V91.32C40.5379 91.32 46.7151 90.3362 51.962 88.3051L50.518 84.5749Z" fill="url(#paint1_linear_3303_27753)" mask="url(#path-1-outside-1_3303_27753)"/>
<defs>
<linearGradient id="paint0_linear_3303_27753" x1="36" y1="-21" x2="36" y2="118" gradientUnits="userSpaceOnUse">
<stop stop-color="#FFF3D3"/>
<stop offset="0.952222" stop-color="white"/>
</linearGradient>
<linearGradient id="paint1_linear_3303_27753" x1="36" y1="0.999998" x2="36" y2="73" gradientUnits="userSpaceOnUse">
<stop offset="0.977222" stop-color="#FF4E04"/>
<stop offset="1" stop-color="white"/>
</linearGradient>
</defs>
</svg>
