<svg width="68" height="90" viewBox="0 0 68 90" fill="none" xmlns="http://www.w3.org/2000/svg">
<mask id="path-1-outside-1_3303_27745" maskUnits="userSpaceOnUse" x="-0.5" y="0" width="69" height="90" fill="black">
<rect fill="white" x="-0.5" width="69" height="90"/>
<path d="M6.78 88V71.8L32.22 45.16C34.3 42.92 35.94 40.92 37.14 39.16C38.42 37.32 39.34 35.64 39.9 34.12C40.54 32.52 40.86 30.92 40.86 29.32C40.86 26.28 39.86 24 37.86 22.48C35.86 20.96 32.98 20.2 29.22 20.2C26.02 20.2 22.74 20.8 19.38 22C16.1 23.12 12.82 24.96 9.54 27.52L2.7 11.44C6.38 8.56 10.86 6.28 16.14 4.59999C21.42 2.92 26.82 2.08 32.34 2.08C38.9 2.08 44.38 3.04 48.78 4.96C53.26 6.88 56.66 9.68 58.98 13.36C61.3 16.96 62.46 21.44 62.46 26.8C62.46 29.36 62.18 31.88 61.62 34.36C61.06 36.76 60.18 39.16 58.98 41.56C57.78 43.88 56.22 46.28 54.3 48.76C52.38 51.24 50.06 53.8 47.34 56.44L27.9 75.64V70.12H65.58V88H6.78Z"/>
</mask>
<path d="M6.78 88V71.8L32.22 45.16C34.3 42.92 35.94 40.92 37.14 39.16C38.42 37.32 39.34 35.64 39.9 34.12C40.54 32.52 40.86 30.92 40.86 29.32C40.86 26.28 39.86 24 37.86 22.48C35.86 20.96 32.98 20.2 29.22 20.2C26.02 20.2 22.74 20.8 19.38 22C16.1 23.12 12.82 24.96 9.54 27.52L2.7 11.44C6.38 8.56 10.86 6.28 16.14 4.59999C21.42 2.92 26.82 2.08 32.34 2.08C38.9 2.08 44.38 3.04 48.78 4.96C53.26 6.88 56.66 9.68 58.98 13.36C61.3 16.96 62.46 21.44 62.46 26.8C62.46 29.36 62.18 31.88 61.62 34.36C61.06 36.76 60.18 39.16 58.98 41.56C57.78 43.88 56.22 46.28 54.3 48.76C52.38 51.24 50.06 53.8 47.34 56.44L27.9 75.64V70.12H65.58V88H6.78Z" fill="url(#paint0_linear_3303_27745)"/>
<path d="M6.78 88H4.78V90H6.78V88ZM6.78 71.8L5.33359 70.4187L4.78 70.9984V71.8H6.78ZM32.22 45.16L33.6664 46.5413L33.6761 46.5311L33.6856 46.5209L32.22 45.16ZM37.14 39.16L35.4982 38.0179L35.4928 38.0256L35.4875 38.0333L37.14 39.16ZM39.9 34.12L38.043 33.3772L38.0328 33.4028L38.0233 33.4286L39.9 34.12ZM19.38 22L20.0263 23.8927L20.0395 23.8882L20.0527 23.8835L19.38 22ZM9.54 27.52L7.69959 28.3029L8.71851 30.6982L10.7705 29.0966L9.54 27.52ZM2.7 11.44L1.46738 9.86499L0.258911 10.8107L0.859586 12.2229L2.7 11.44ZM16.14 4.59999L15.5336 2.69414L15.5336 2.69414L16.14 4.59999ZM48.78 4.96L47.9801 6.79311L47.9922 6.79829L48.78 4.96ZM58.98 13.36L57.2882 14.4266L57.2935 14.435L57.2989 14.4434L58.98 13.36ZM61.62 34.36L63.5677 34.8145L63.5693 34.8075L63.5709 34.8005L61.62 34.36ZM58.98 41.56L60.7564 42.4788L60.7627 42.4667L60.7689 42.4544L58.98 41.56ZM54.3 48.76L55.8815 49.9843L54.3 48.76ZM47.34 56.44L45.9471 55.0048L45.9408 55.0109L45.9346 55.017L47.34 56.44ZM27.9 75.64H25.9V80.4263L29.3054 77.063L27.9 75.64ZM27.9 70.12V68.12H25.9V70.12H27.9ZM65.58 70.12H67.58V68.12H65.58V70.12ZM65.58 88V90H67.58V88H65.58ZM8.78 88V71.8H4.78V88H8.78ZM8.22642 73.1813L33.6664 46.5413L30.7736 43.7787L5.33359 70.4187L8.22642 73.1813ZM33.6856 46.5209C35.807 44.2363 37.5177 42.1563 38.7925 40.2867L35.4875 38.0333C34.3623 39.6837 32.793 41.6037 30.7544 43.7991L33.6856 46.5209ZM38.7818 40.3021C40.1248 38.3716 41.1403 36.5388 41.7767 34.8114L38.0233 33.4286C37.5397 34.7411 36.7153 36.2683 35.4982 38.0179L38.7818 40.3021ZM41.757 34.8628C42.4841 33.0449 42.86 31.1935 42.86 29.32H38.86C38.86 30.6465 38.5959 31.9951 38.043 33.3772L41.757 34.8628ZM42.86 29.32C42.86 25.8019 41.6741 22.8667 39.0702 20.8877L36.6498 24.0723C38.0459 25.1333 38.86 26.7581 38.86 29.32H42.86ZM39.0702 20.8877C36.5872 19.0006 33.2102 18.2 29.22 18.2V22.2C32.7498 22.2 35.1328 22.9194 36.6498 24.0723L39.0702 20.8877ZM29.22 18.2C25.766 18.2 22.2586 18.8482 18.7073 20.1165L20.0527 23.8835C23.2214 22.7518 26.274 22.2 29.22 22.2V18.2ZM18.7337 20.1073C15.2052 21.3121 11.731 23.2729 8.30946 25.9434L10.7705 29.0966C13.909 26.6471 16.9948 24.9279 20.0263 23.8927L18.7337 20.1073ZM11.3804 26.7371L4.54041 10.6571L0.859586 12.2229L7.69959 28.3029L11.3804 26.7371ZM3.93262 13.015C7.394 10.3061 11.652 8.12679 16.7464 6.50584L15.5336 2.69414C10.068 4.4332 5.366 6.81389 1.46738 9.86499L3.93262 13.015ZM16.7464 6.50585C21.8311 4.888 27.0266 4.08 32.34 4.08V0.079998C26.6134 0.079998 21.0089 0.951992 15.5336 2.69414L16.7464 6.50585ZM32.34 4.08C38.7195 4.08 43.9068 5.01564 47.9801 6.79308L49.5799 3.12692C44.8532 1.06436 39.0805 0.079998 32.34 0.079998V4.08ZM47.9922 6.79829C52.1462 8.5786 55.2099 11.1301 57.2882 14.4266L60.6719 12.2934C58.1101 8.22994 54.3738 5.18139 49.5678 3.12171L47.9922 6.79829ZM57.2989 14.4434C59.364 17.6479 60.46 21.7278 60.46 26.8H64.46C64.46 21.1522 63.236 16.2721 60.6611 12.2766L57.2989 14.4434ZM60.46 26.8C60.46 29.2128 60.1963 31.585 59.6691 33.9195L63.5709 34.8005C64.1638 32.1749 64.46 29.5072 64.46 26.8H60.46ZM59.6723 33.9055C59.1509 36.1404 58.3273 38.3932 57.1911 40.6656L60.7689 42.4544C62.0327 39.9268 62.9691 37.3796 63.5677 34.8145L59.6723 33.9055ZM57.2036 40.6412C56.0689 42.8348 54.5787 45.133 52.7186 47.5357L55.8815 49.9843C57.8613 47.427 59.4911 44.9252 60.7564 42.4788L57.2036 40.6412ZM52.7186 47.5357C50.8668 49.9275 48.6128 52.4175 45.9471 55.0048L48.733 57.8752C51.5072 55.1825 53.8932 52.5525 55.8815 49.9843L52.7186 47.5357ZM45.9346 55.017L26.4946 74.217L29.3054 77.063L48.7454 57.863L45.9346 55.017ZM29.9 75.64V70.12H25.9V75.64H29.9ZM27.9 72.12H65.58V68.12H27.9V72.12ZM63.58 70.12V88H67.58V70.12H63.58ZM65.58 86H6.78V90H65.58V86Z" fill="url(#paint1_linear_3303_27745)" mask="url(#path-1-outside-1_3303_27745)"/>
<defs>
<linearGradient id="paint0_linear_3303_27745" x1="34.5" y1="-21" x2="34.5" y2="118" gradientUnits="userSpaceOnUse">
<stop stop-color="#FFF3D3"/>
<stop offset="0.952222" stop-color="white"/>
</linearGradient>
<linearGradient id="paint1_linear_3303_27745" x1="34.5" y1="0.999998" x2="34.5" y2="73" gradientUnits="userSpaceOnUse">
<stop offset="0.977222" stop-color="#FF4E04"/>
<stop offset="1" stop-color="white"/>
</linearGradient>
</defs>
</svg>
