<svg width="71" height="89" viewBox="0 0 71 89" fill="none" xmlns="http://www.w3.org/2000/svg">
<mask id="path-1-outside-1_3303_27761" maskUnits="userSpaceOnUse" x="-0.5" y="0" width="72" height="89" fill="black">
<rect fill="white" x="-0.5" width="72" height="89"/>
<path d="M36.54 87V72.84H2.22V57.36L40.02 2.39999H57.78V56.16H68.82V72.84H57.78V87H36.54ZM36.54 56.16V28.56H39.9L17.82 61.32V56.16H36.54Z"/>
</mask>
<path d="M36.54 87V72.84H2.22V57.36L40.02 2.39999H57.78V56.16H68.82V72.84H57.78V87H36.54ZM36.54 56.16V28.56H39.9L17.82 61.32V56.16H36.54Z" fill="url(#paint0_linear_3303_27761)"/>
<path d="M36.54 87H34.54V89H36.54V87ZM36.54 72.84H38.54V70.84H36.54V72.84ZM2.22 72.84H0.22V74.84H2.22V72.84ZM2.22 57.36L0.572126 56.2266L0.22 56.7386V57.36H2.22ZM40.02 2.39999V0.399994H38.9682L38.3721 1.26663L40.02 2.39999ZM57.78 2.39999H59.78V0.399994H57.78V2.39999ZM57.78 56.16H55.78V58.16H57.78V56.16ZM68.82 56.16H70.82V54.16H68.82V56.16ZM68.82 72.84V74.84H70.82V72.84H68.82ZM57.78 72.84V70.84H55.78V72.84H57.78ZM57.78 87V89H59.78V87H57.78ZM36.54 56.16V58.16H38.54V56.16H36.54ZM36.54 28.56V26.56H34.54V28.56H36.54ZM39.9 28.56L41.5585 29.6778L43.6598 26.56H39.9V28.56ZM17.82 61.32H15.82V67.8659L19.4785 62.4378L17.82 61.32ZM17.82 56.16V54.16H15.82V56.16H17.82ZM38.54 87V72.84H34.54V87H38.54ZM36.54 70.84H2.22V74.84H36.54V70.84ZM4.22 72.84V57.36H0.22V72.84H4.22ZM3.86787 58.4934L41.6679 3.53336L38.3721 1.26663L0.572126 56.2266L3.86787 58.4934ZM40.02 4.39999H57.78V0.399994H40.02V4.39999ZM55.78 2.39999V56.16H59.78V2.39999H55.78ZM57.78 58.16H68.82V54.16H57.78V58.16ZM66.82 56.16V72.84H70.82V56.16H66.82ZM68.82 70.84H57.78V74.84H68.82V70.84ZM55.78 72.84V87H59.78V72.84H55.78ZM57.78 85H36.54V89H57.78V85ZM38.54 56.16V28.56H34.54V56.16H38.54ZM36.54 30.56H39.9V26.56H36.54V30.56ZM38.2415 27.4422L16.1615 60.2022L19.4785 62.4378L41.5585 29.6778L38.2415 27.4422ZM19.82 61.32V56.16H15.82V61.32H19.82ZM17.82 58.16H36.54V54.16H17.82V58.16Z" fill="url(#paint1_linear_3303_27761)" mask="url(#path-1-outside-1_3303_27761)"/>
<defs>
<linearGradient id="paint0_linear_3303_27761" x1="35" y1="-3" x2="35" y2="124.5" gradientUnits="userSpaceOnUse">
<stop stop-color="#FFF3D3"/>
<stop offset="0.952222" stop-color="white"/>
</linearGradient>
<linearGradient id="paint1_linear_3303_27761" x1="34.5" y1="-2.76074e-06" x2="35" y2="80" gradientUnits="userSpaceOnUse">
<stop offset="0.977222" stop-color="#FF4E04"/>
<stop offset="1" stop-color="white"/>
</linearGradient>
</defs>
</svg>
