<svg width="68" height="89" viewBox="0 0 68 89" fill="none" xmlns="http://www.w3.org/2000/svg">
<mask id="path-1-outside-1_3303_27733" maskUnits="userSpaceOnUse" x="0" y="0" width="68" height="89" fill="black">
<rect fill="white" width="68" height="89"/>
<path d="M6.8 87V69.12H25.64V20.76H35.72L11.36 34.68L3.32 18.72L32.12 2.39999H47.6V69.12H65.24V87H6.8Z"/>
</mask>
<path d="M6.8 87V69.12H25.64V20.76H35.72L11.36 34.68L3.32 18.72L32.12 2.39999H47.6V69.12H65.24V87H6.8Z" fill="url(#paint0_linear_3303_27733)"/>
<path d="M6.8 87H4.8V89H6.8V87ZM6.8 69.12V67.12H4.8V69.12H6.8ZM25.64 69.12V71.12H27.64V69.12H25.64ZM25.64 20.76V18.76H23.64V20.76H25.64ZM35.72 20.76L36.7123 22.4965L43.2511 18.76H35.72V20.76ZM11.36 34.68L9.57384 35.5798L10.5222 37.4623L12.3523 36.4165L11.36 34.68ZM3.32 18.72L2.33398 16.98L0.677002 17.9189L1.53384 19.6198L3.32 18.72ZM32.12 2.39999V0.399994H31.5927L31.134 0.65995L32.12 2.39999ZM47.6 2.39999H49.6V0.399994H47.6V2.39999ZM47.6 69.12H45.6V71.12H47.6V69.12ZM65.24 69.12H67.24V67.12H65.24V69.12ZM65.24 87V89H67.24V87H65.24ZM8.8 87V69.12H4.8V87H8.8ZM6.8 71.12H25.64V67.12H6.8V71.12ZM27.64 69.12V20.76H23.64V69.12H27.64ZM25.64 22.76H35.72V18.76H25.64V22.76ZM34.7277 19.0235L10.3677 32.9435L12.3523 36.4165L36.7123 22.4965L34.7277 19.0235ZM13.1462 33.7802L5.10616 17.8202L1.53384 19.6198L9.57384 35.5798L13.1462 33.7802ZM4.30603 20.46L33.106 4.14004L31.134 0.65995L2.33398 16.98L4.30603 20.46ZM32.12 4.39999H47.6V0.399994H32.12V4.39999ZM45.6 2.39999V69.12H49.6V2.39999H45.6ZM47.6 71.12H65.24V67.12H47.6V71.12ZM63.24 69.12V87H67.24V69.12H63.24ZM65.24 85H6.8V89H65.24V85Z" fill="url(#paint1_linear_3303_27733)" mask="url(#path-1-outside-1_3303_27733)"/>
<defs>
<linearGradient id="paint0_linear_3303_27733" x1="32" y1="-22" x2="32" y2="117" gradientUnits="userSpaceOnUse">
<stop stop-color="#FFF3D3"/>
<stop offset="0.952222" stop-color="white"/>
</linearGradient>
<linearGradient id="paint1_linear_3303_27733" x1="32" y1="-1.72363e-06" x2="32" y2="72" gradientUnits="userSpaceOnUse">
<stop offset="0.977222" stop-color="#FF4E04"/>
<stop offset="1" stop-color="white"/>
</linearGradient>
</defs>
</svg>
