<svg width="16" height="16" viewBox="0 0 16 16" fill="none" xmlns="http://www.w3.org/2000/svg">
<g clip-path="url(#clip0_3017_11507)">
<path d="M8 3.99996C8 4.35358 8.14048 4.69272 8.39052 4.94277C8.64057 5.19282 8.97971 5.33329 9.33333 5.33329C9.68696 5.33329 10.0261 5.19282 10.2761 4.94277C10.5262 4.69272 10.6667 4.35358 10.6667 3.99996C10.6667 3.64634 10.5262 3.3072 10.2761 3.05715C10.0261 2.8071 9.68696 2.66663 9.33333 2.66663C8.97971 2.66663 8.64057 2.8071 8.39052 3.05715C8.14048 3.3072 8 3.64634 8 3.99996Z" stroke="white" stroke-linecap="round" stroke-linejoin="round"/>
<path d="M2.66675 4H8.00008" stroke="white" stroke-linecap="round" stroke-linejoin="round"/>
<path d="M10.6667 4H13.3334" stroke="white" stroke-linecap="round" stroke-linejoin="round"/>
<path d="M4 7.99996C4 8.35358 4.14048 8.69272 4.39052 8.94277C4.64057 9.19282 4.97971 9.33329 5.33333 9.33329C5.68696 9.33329 6.02609 9.19282 6.27614 8.94277C6.52619 8.69272 6.66667 8.35358 6.66667 7.99996C6.66667 7.64634 6.52619 7.3072 6.27614 7.05715C6.02609 6.8071 5.68696 6.66663 5.33333 6.66663C4.97971 6.66663 4.64057 6.8071 4.39052 7.05715C4.14048 7.3072 4 7.64634 4 7.99996Z" stroke="white" stroke-linecap="round" stroke-linejoin="round"/>
<path d="M2.66675 8H4.00008" stroke="white" stroke-linecap="round" stroke-linejoin="round"/>
<path d="M6.66675 8H13.3334" stroke="white" stroke-linecap="round" stroke-linejoin="round"/>
<path d="M10 12C10 12.3536 10.1405 12.6927 10.3905 12.9428C10.6406 13.1928 10.9797 13.3333 11.3333 13.3333C11.687 13.3333 12.0261 13.1928 12.2761 12.9428C12.5262 12.6927 12.6667 12.3536 12.6667 12C12.6667 11.6463 12.5262 11.3072 12.2761 11.0572C12.0261 10.8071 11.687 10.6666 11.3333 10.6666C10.9797 10.6666 10.6406 10.8071 10.3905 11.0572C10.1405 11.3072 10 11.6463 10 12Z" stroke="white" stroke-linecap="round" stroke-linejoin="round"/>
<path d="M2.66675 12H10.0001" stroke="white" stroke-linecap="round" stroke-linejoin="round"/>
<path d="M12.6667 12H13.3334" stroke="white" stroke-linecap="round" stroke-linejoin="round"/>
</g>
<defs>
<clipPath id="clip0_3017_11507">
<rect width="16" height="16" fill="white"/>
</clipPath>
</defs>
</svg>
