<svg width="36" height="36" viewBox="0 0 36 36" fill="none" xmlns="http://www.w3.org/2000/svg">
<circle cx="18" cy="18" r="18" fill="url(#paint0_radial_2952_8028)"/>
<circle cx="18" cy="18" r="18" fill="url(#paint1_radial_2952_8028)"/>
<path d="M18.0002 9.25058C20.8711 9.25058 21.2812 9.25058 22.3749 9.25058C23.4686 9.25058 24.0154 9.524 24.4255 9.66071C24.9723 9.79742 25.2458 10.0708 25.6559 10.481C26.066 10.8911 26.3394 11.1645 26.4761 11.7113C26.6129 12.1215 26.7496 12.6683 26.8863 13.762C26.8863 14.8556 26.8863 15.2658 26.8863 18.1367C26.8863 21.0075 26.8863 21.4177 26.8863 22.5113C26.8863 23.605 26.6129 24.1519 26.4761 24.562C26.3394 25.1088 26.066 25.3822 25.6559 25.7924C25.2458 26.2025 24.9723 26.4759 24.4255 26.6126C24.1521 26.886 23.4685 27.0227 22.5116 27.0227C21.4179 27.0227 21.0078 27.0227 18.1369 27.0227C15.266 27.0227 14.8559 27.0227 13.7622 27.0227C12.6685 27.0227 12.1217 26.7493 11.7116 26.6126C11.1648 26.4759 10.8913 26.2025 10.4812 25.7924C10.0711 25.3822 9.79766 25.1088 9.66095 24.562C9.52425 24.1519 9.38754 23.605 9.25083 22.5113C9.25083 21.4177 9.25083 21.0075 9.25083 18.1367C9.25083 15.2658 9.25083 14.8556 9.25083 13.762C9.25083 12.6683 9.52425 12.1215 9.66095 11.7113C9.79766 11.1645 10.0711 10.8911 10.4812 10.481C10.8913 10.0708 11.1648 9.79742 11.7116 9.66071C12.1217 9.524 12.6685 9.38729 13.7622 9.25058C14.7192 9.25058 15.1293 9.25058 18.0002 9.25058ZM18.0002 7.19995C14.9926 7.19995 14.7192 7.19995 13.4888 7.19995C12.2584 7.19995 11.5749 7.47337 10.8913 7.74679C10.2078 8.0202 9.52425 8.43033 8.97741 8.97717C8.29387 9.66071 8.02045 10.3443 7.74703 11.0278C7.47361 11.7113 7.3369 12.5316 7.2002 13.6253C7.2002 14.8556 7.2002 15.1291 7.2002 18.1367C7.2002 21.1443 7.2002 21.4177 7.2002 22.6481C7.2002 23.8784 7.47361 24.562 7.74703 25.2455C8.02045 25.9291 8.43057 26.6126 8.97741 27.1594C9.52425 27.7063 10.2078 28.1164 10.8913 28.3898C11.5749 28.6632 12.3951 28.8 13.4888 28.9367C14.7192 28.9367 14.9926 28.9367 18.0002 28.9367C21.0078 28.9367 21.2812 28.9367 22.5116 28.9367C23.742 28.9367 24.4255 28.6632 25.1091 28.3898C25.7926 28.1164 26.4761 27.7063 27.023 27.1594C27.5698 26.6126 27.9799 25.9291 28.2534 25.2455C28.5268 24.562 28.6635 23.7417 28.8002 22.6481C28.8002 21.4177 28.8002 21.1443 28.8002 18.1367C28.8002 15.1291 28.8002 14.8556 28.8002 13.6253C28.8002 12.3949 28.5268 11.7113 28.2534 11.0278C27.9799 10.3443 27.5698 9.66071 27.023 9.11387C26.4761 8.56704 25.7926 8.15691 25.1091 7.8835C24.4255 7.61008 23.6053 7.47337 22.5116 7.33666C21.4179 7.19995 21.0078 7.19995 18.0002 7.19995ZM18.0002 12.5316C14.8559 12.5316 12.3951 14.9924 12.3951 18.1367C12.3951 21.281 14.8559 23.7417 18.0002 23.7417C21.1445 23.7417 23.6053 21.281 23.6053 18.1367C23.6053 15.1291 21.1445 12.5316 18.0002 12.5316ZM18.0002 21.8278C15.9496 21.8278 14.3091 20.1873 14.3091 18.1367C14.3091 16.086 15.9496 14.4455 18.0002 14.4455C20.0508 14.4455 21.6913 16.086 21.6913 18.1367C21.6913 20.1873 20.0508 21.8278 18.0002 21.8278ZM24.0154 11.1645C23.3318 11.1645 22.6483 11.7113 22.6483 12.5316C22.6483 13.2151 23.1951 13.8987 24.0154 13.8987C24.6989 13.8987 25.3825 13.3518 25.3825 12.5316C25.3825 11.7113 24.6989 11.1645 24.0154 11.1645Z" fill="white"/>
<defs>
<radialGradient id="paint0_radial_2952_8028" cx="0" cy="0" r="1" gradientUnits="userSpaceOnUse" gradientTransform="translate(9.56255 38.7728) rotate(-90) scale(35.6787 33.184)">
<stop stop-color="#FFDD55"/>
<stop offset="0.1" stop-color="#FFDD55"/>
<stop offset="0.5" stop-color="#FF543E"/>
<stop offset="1" stop-color="#C837AB"/>
</radialGradient>
<radialGradient id="paint1_radial_2952_8028" cx="0" cy="0" r="1" gradientUnits="userSpaceOnUse" gradientTransform="translate(-6.03019 2.59338) rotate(78.6806) scale(15.9485 65.7404)">
<stop stop-color="#3771C8"/>
<stop offset="0.128" stop-color="#3771C8"/>
<stop offset="1" stop-color="#6600FF" stop-opacity="0"/>
</radialGradient>
</defs>
</svg>
