<svg width="16" height="16" viewBox="0 0 16 16" fill="none" xmlns="http://www.w3.org/2000/svg">
<path fill-rule="evenodd" clip-rule="evenodd" d="M8 1.99999C5.42267 1.99999 3.33333 4.08933 3.33333 6.66666C3.33333 7.92806 3.90211 9.11869 4.86152 10.3645C5.67161 11.4163 6.70849 12.4448 7.82152 13.5489C7.8808 13.6077 7.9403 13.6667 8 13.7259C8.0597 13.6667 8.1192 13.6077 8.17848 13.5489C9.29151 12.4448 10.3284 11.4163 11.1385 10.3645C12.0979 9.11869 12.6667 7.92806 12.6667 6.66666C12.6667 4.08933 10.5773 1.99999 8 1.99999ZM2 6.66666C2 3.35295 4.68629 0.666656 8 0.666656C11.3137 0.666656 14 3.35295 14 6.66666C14 8.35077 13.2354 9.82681 12.1949 11.178C11.3253 12.3071 10.2124 13.4104 9.10055 14.5126C8.89024 14.721 8.67998 14.9295 8.4714 15.1381C8.21106 15.3984 7.78895 15.3984 7.5286 15.1381C7.32002 14.9295 7.10976 14.721 6.89945 14.5126C5.78765 13.4104 4.6747 12.3071 3.80515 11.178C2.76455 9.82681 2 8.35077 2 6.66666ZM8 5.33332C7.26362 5.33332 6.66667 5.93028 6.66667 6.66666C6.66667 7.40304 7.26362 7.99999 8 7.99999C8.73638 7.99999 9.33333 7.40304 9.33333 6.66666C9.33333 5.93028 8.73638 5.33332 8 5.33332ZM5.33333 6.66666C5.33333 5.1939 6.52724 3.99999 8 3.99999C9.47276 3.99999 10.6667 5.1939 10.6667 6.66666C10.6667 8.13942 9.47276 9.33332 8 9.33332C6.52724 9.33332 5.33333 8.13942 5.33333 6.66666Z" fill="#1150CB"/>
</svg>
