<svg width="20" height="21" viewBox="0 0 20 21" fill="none" xmlns="http://www.w3.org/2000/svg">
<path d="M12.5834 5.08333C12.5834 5.81971 11.9865 6.41667 11.2501 6.41667C10.5137 6.41667 9.91675 5.81971 9.91675 5.08333C9.91675 4.34695 10.5137 3.75 11.2501 3.75C11.9865 3.75 12.5834 4.34695 12.5834 5.08333Z" stroke="#7E868C" stroke-width="1.5"/>
<path d="M13.3333 8.83331L11.7083 10.9999C11.2868 11.5619 10.4326 11.5256 10.0603 10.9299L9.04814 9.31046C8.86262 9.01363 8.53728 8.83331 8.18724 8.83331V8.83331C7.77212 8.83331 7.39882 9.08605 7.24465 9.47148L6.10878 12.3112C5.94515 12.7202 6.06852 13.1882 6.41256 13.4634L9.99992 16.3333V16.3333C10.1726 16.4715 10.0749 16.75 9.85376 16.75H4.58325" stroke="#7E868C" stroke-width="1.5" stroke-linecap="round"/>
</svg>
