<svg width="20" height="21" viewBox="0 0 20 21" fill="none" xmlns="http://www.w3.org/2000/svg">
<path d="M4.16675 17.1667V7C4.16675 4.79086 5.95761 3 8.16675 3H9.34532C11.4164 3 13.0953 4.67893 13.0953 6.75V6.75" stroke="#7E868C" stroke-width="1.5" stroke-linecap="round"/>
<path d="M16.4023 9.25984C16.4399 9.34466 16.4736 9.43078 16.5034 9.51798C16.6815 10.0408 16.2189 10.5 15.6666 10.5L10.7222 10.5C10.1699 10.5 9.70732 10.0408 9.88543 9.51798C9.91513 9.43078 9.94883 9.34466 9.98648 9.25984C10.161 8.86666 10.4167 8.5094 10.7392 8.20847C11.0616 7.90754 11.4444 7.66883 11.8656 7.50596C12.2869 7.3431 12.7384 7.25928 13.1944 7.25928C13.6504 7.25928 14.1019 7.3431 14.5232 7.50596C14.9444 7.66883 15.3272 7.90754 15.6496 8.20847C15.972 8.5094 16.2278 8.86666 16.4023 9.25984Z" stroke="#7E868C" stroke-width="1.5" stroke-linejoin="round"/>
<path d="M10.4167 13L10.4167 14.6667" stroke="#7E868C" stroke-width="1.5" stroke-linecap="round"/>
<path d="M13.1943 13L13.1943 14.6667" stroke="#7E868C" stroke-width="1.5" stroke-linecap="round"/>
<path d="M15.9722 13L15.9722 14.6667" stroke="#7E868C" stroke-width="1.5" stroke-linecap="round"/>
</svg>
