<svg width="36" height="36" viewBox="0 0 36 36" fill="none" xmlns="http://www.w3.org/2000/svg">
<path d="M18 35.9999C27.9411 35.9999 35.9999 27.9411 35.9999 18C35.9999 8.05886 27.9411 0 18 0C8.05886 0 0 8.05886 0 18C0 27.9411 8.05886 35.9999 18 35.9999Z" fill="#37AEE2"/>
<path d="M7.49122 17.8447L19.6126 12.8505C20.8091 12.3303 24.8669 10.6655 24.8669 10.6655C24.8669 10.6655 26.7398 9.93719 26.5837 11.706C26.5317 12.4343 26.1155 14.9834 25.6993 17.7407L24.3987 25.9083C24.3987 25.9083 24.2947 27.1048 23.4103 27.3129C22.5259 27.521 21.0693 26.5846 20.8091 26.3765C20.601 26.2204 16.9074 23.8794 15.5548 22.7349C15.1906 22.4228 14.7745 21.7985 15.6068 21.0701C17.4797 19.3534 19.7167 17.2204 21.0693 15.8678C21.6935 15.2436 22.3178 13.7869 19.7167 15.5557L12.3814 20.4979C12.3814 20.4979 11.549 21.0181 9.98833 20.5499C8.42763 20.0817 6.60682 19.4574 6.60682 19.4574C6.60682 19.4574 5.35827 18.6771 7.49122 17.8447Z" fill="white"/>
</svg>
