<svg width="16" height="16" viewBox="0 0 16 16" fill="none" xmlns="http://www.w3.org/2000/svg">
<path d="M2.45332 13.546H13.602C13.546 12.818 13.434 12.09 13.098 11.4173C12.818 10.8573 11.5853 10.4087 10.0167 9.79201L9.40065 9.62401L9.28865 9.51201C9.17665 9.34401 9.06465 9.17668 9.06465 9.00868C9.00865 8.67201 9.00865 8.22334 9.12065 7.83134L9.17665 7.71934L9.28865 7.60734C9.96065 6.87934 10.2967 5.92668 10.1847 4.91801C10.1847 3.40534 9.28865 2.39734 8.05598 2.39734C6.82332 2.39734 5.87132 3.40534 5.87132 4.86201C5.81641 5.35703 5.86795 5.85808 6.02248 6.33156C6.17701 6.80504 6.43096 7.24002 6.76732 7.60734L6.87932 7.83134C6.99132 8.22334 7.04732 8.67134 6.93532 9.06401C6.93532 9.17668 6.82332 9.40001 6.71132 9.51201L6.65532 9.62401L6.03932 9.84868C4.47065 10.4087 3.23798 10.9127 2.90198 11.4727C2.60895 12.1247 2.45565 12.8311 2.45332 13.546ZM13.7707 14.666H2.22998C2.1119 14.6676 1.99469 14.6456 1.88526 14.6012C1.77583 14.5568 1.6764 14.4909 1.59283 14.4074C1.50926 14.324 1.44325 14.2247 1.39868 14.1153C1.35411 14.0059 1.33188 13.8888 1.33332 13.7707C1.33332 12.8173 1.55732 11.8653 1.89332 10.9693C2.39798 9.96001 3.74198 9.45601 5.64665 8.78401L5.87132 8.72801V8.27934C5.46123 7.81636 5.1503 7.2743 4.95768 6.68658C4.76506 6.09885 4.69483 5.47791 4.75132 4.86201C4.75065 2.84534 6.09465 1.33334 7.99998 1.33334C9.90532 1.33334 11.2493 2.84534 11.2493 4.91801C11.3613 6.09534 10.9693 7.38334 10.1293 8.27934C10.0733 8.42365 10.0733 8.5837 10.1293 8.72801L10.3527 8.78401C12.258 9.45668 13.602 9.96001 14.106 10.9693V11.0247C14.4987 11.9213 14.6667 12.818 14.6667 13.7707C14.6667 14.274 14.2753 14.666 13.7707 14.666Z" fill="#7E868C"/>
</svg>
