<svg width="36" height="36" viewBox="0 0 36 36" fill="none" xmlns="http://www.w3.org/2000/svg">
<path d="M18 35.9999C27.9411 35.9999 35.9999 27.9411 35.9999 18C35.9999 8.05886 27.9411 0 18 0C8.05886 0 0 8.05886 0 18C0 27.9411 8.05886 35.9999 18 35.9999Z" fill="#FF0000"/>
<path d="M35.4374 18C35.4374 27.6304 27.6304 35.4374 18 35.4374C8.36952 35.4374 0.5625 27.6304 0.5625 18C0.5625 8.36952 8.36952 0.5625 18 0.5625C27.6304 0.5625 35.4374 8.36952 35.4374 18Z" stroke="white" stroke-opacity="0.2" stroke-width="1.125"/>
<g clip-path="url(#clip0_2952_8009)">
<g clip-path="url(#clip1_2952_8009)">
<path d="M28.7796 12.5847C28.5203 11.616 27.759 10.8548 26.7904 10.5954C25.0364 10.125 18 10.125 18 10.125C18 10.125 10.9637 10.125 9.20967 10.5954C8.24099 10.8548 7.47975 11.616 7.22045 12.5847C6.75 14.3387 6.75 18.0004 6.75 18.0004C6.75 18.0004 6.75 21.6621 7.22045 23.4161C7.47975 24.3848 8.24099 25.1461 9.20967 25.4053C10.9637 25.8758 18 25.8758 18 25.8758C18 25.8758 25.0364 25.8758 26.7904 25.4053C27.759 25.1461 28.5203 24.3848 28.7796 23.4161C29.2501 21.6621 29.2501 18.0004 29.2501 18.0004C29.2501 18.0004 29.2482 14.3387 28.7796 12.5847Z" fill="white"/>
<path d="M15.748 21.3752L21.5935 18.0006L15.748 14.626V21.3752Z" fill="#FF0000"/>
</g>
</g>
<defs>
<clipPath id="clip0_2952_8009">
<rect width="22.5" height="15.7508" fill="white" transform="translate(6.75 10.125)"/>
</clipPath>
<clipPath id="clip1_2952_8009">
<rect width="22.5" height="15.7508" fill="white" transform="translate(6.75 10.125)"/>
</clipPath>
</defs>
</svg>
