<svg width="124" height="72" viewBox="0 0 124 72" fill="none" xmlns="http://www.w3.org/2000/svg">
<rect x="0.800049" width="122.4" height="72" rx="2.88" fill="#1150CB"/>
<rect x="0.800049" y="6.47998" width="122.4" height="14.4" fill="#11181C"/>
<rect x="5.12012" y="28.08" width="63.36" height="15.84" fill="white"/>
<rect x="65.2401" y="27" width="34.68" height="18" rx="9" fill="white"/>
<rect x="65.2401" y="27" width="34.68" height="18" rx="9" stroke="#FE3A11" stroke-width="2.16"/>
<path d="M73.3012 39.5V38.2674H75.1674V32.6226L75.8817 32.6341L73.7274 33.9474L73.1399 32.853L75.5937 31.3784H76.642V38.2674H78.393V39.5H73.3012ZM79.6097 39.5V38.4056L82.2477 35.6062C82.4858 35.3528 82.674 35.1186 82.8122 34.9035C82.9581 34.6885 83.0657 34.4811 83.1348 34.2814C83.2039 34.0818 83.2385 33.8821 83.2385 33.6824C83.2385 33.2984 83.1156 33.0104 82.8698 32.8184C82.6317 32.6187 82.2823 32.5189 81.8215 32.5189C81.4605 32.5189 81.1073 32.5842 80.7617 32.7147C80.4237 32.8453 80.0973 33.0565 79.7825 33.3483L79.2756 32.2309C79.6058 31.939 80.0129 31.7048 80.4967 31.5282C80.9805 31.3515 81.4836 31.2632 82.0058 31.2632C82.5895 31.2632 83.081 31.3515 83.4804 31.5282C83.8797 31.7048 84.1831 31.9659 84.3905 32.3115C84.5978 32.6494 84.7015 33.0603 84.7015 33.5442C84.7015 33.7899 84.6708 34.028 84.6093 34.2584C84.5556 34.4888 84.4673 34.7192 84.3444 34.9496C84.2292 35.18 84.0794 35.4181 83.8951 35.6638C83.7185 35.9019 83.5073 36.1515 83.2615 36.4126L81.1303 38.6245V38.2674H85.0125V39.5H79.6097ZM88.6138 39.6152C88.2452 39.6152 87.8842 39.5768 87.5309 39.5C87.1853 39.4309 86.8628 39.3272 86.5632 39.189C86.2637 39.0507 86.0026 38.8856 85.7799 38.6936L86.2637 37.5646C86.6247 37.8411 86.9933 38.0446 87.3696 38.1752C87.746 38.2981 88.1453 38.3595 88.5677 38.3595C88.9056 38.3595 89.1898 38.3173 89.4202 38.2328C89.6506 38.1406 89.8234 38.0024 89.9386 37.8181C90.0615 37.6338 90.1229 37.411 90.1229 37.1499C90.1229 36.7659 89.9924 36.4818 89.7312 36.2974C89.4778 36.1054 89.1053 36.0094 88.6138 36.0094H87.3005V34.7883H88.464C88.7559 34.7883 89.0055 34.7422 89.2128 34.6501C89.4279 34.5502 89.593 34.412 89.7082 34.2354C89.8234 34.0587 89.881 33.8437 89.881 33.5902C89.881 33.237 89.762 32.972 89.5239 32.7954C89.2935 32.611 88.9556 32.5189 88.5101 32.5189C88.1184 32.5189 87.746 32.5842 87.3927 32.7147C87.0471 32.8453 86.7168 33.0526 86.402 33.3368L85.9181 32.2309C86.2407 31.9237 86.6439 31.6856 87.1277 31.5166C87.6116 31.3477 88.1146 31.2632 88.6368 31.2632C89.1975 31.2632 89.6775 31.3515 90.0768 31.5282C90.4762 31.6971 90.7834 31.9429 90.9984 32.2654C91.2135 32.5803 91.321 32.9643 91.321 33.4174C91.321 33.8936 91.1866 34.3083 90.9178 34.6616C90.6567 35.0072 90.2919 35.2414 89.8234 35.3643V35.2376C90.1844 35.299 90.4916 35.4219 90.745 35.6062C91.0061 35.7906 91.2058 36.0248 91.344 36.309C91.4823 36.5854 91.5514 36.908 91.5514 37.2766C91.5514 37.7528 91.4324 38.1675 91.1943 38.5208C90.9562 38.8741 90.6183 39.1467 90.1805 39.3387C89.7428 39.523 89.2205 39.6152 88.6138 39.6152Z" fill="black"/>
<path d="M5.55212 58.28V57.825H6.76172V54.6282L7.04396 54.6858L5.75948 55.5152L5.52332 55.1005L6.8942 54.2192H7.28588V57.825H8.38604V58.28H5.55212ZM8.66315 58.28V57.8883L10.1089 56.3907C10.251 56.2448 10.3604 56.1143 10.4372 55.9991C10.514 55.88 10.5678 55.7667 10.5985 55.6592C10.6292 55.5517 10.6446 55.4423 10.6446 55.3309C10.6446 55.1082 10.5716 54.9373 10.4257 54.8183C10.2798 54.6954 10.0859 54.6339 9.84395 54.6339C9.65579 54.6339 9.46571 54.6704 9.27371 54.7434C9.08555 54.8163 8.90699 54.9354 8.73803 55.1005L8.53067 54.68C8.71115 54.5111 8.91659 54.3843 9.14699 54.2999C9.38123 54.2115 9.62507 54.1674 9.87851 54.1674C10.1396 54.1674 10.3662 54.2135 10.5582 54.3056C10.7502 54.3978 10.898 54.5303 11.0017 54.7031C11.1092 54.872 11.163 55.0717 11.163 55.3021C11.163 55.4211 11.1495 55.5363 11.1227 55.6477C11.0958 55.7591 11.0535 55.8704 10.9959 55.9818C10.9422 56.0893 10.8711 56.2007 10.7828 56.3159C10.6983 56.4311 10.5947 56.5539 10.4718 56.6845L9.40043 57.7904V57.8135H11.33V58.28H8.66315ZM12.978 58.3319C12.8091 58.3319 12.642 58.3146 12.4769 58.28C12.3118 58.2455 12.1543 58.1936 12.0046 58.1245C11.8587 58.0515 11.7243 57.9594 11.6014 57.848L11.8087 57.4333C11.9854 57.5907 12.1755 57.7021 12.379 57.7674C12.5825 57.8327 12.7803 57.8653 12.9723 57.8653C13.1335 57.8653 13.2814 57.8423 13.4158 57.7962C13.554 57.7501 13.6635 57.6752 13.7441 57.5715C13.8286 57.4679 13.8708 57.3315 13.8708 57.1626C13.8708 56.9283 13.7921 56.7517 13.6347 56.6327C13.4772 56.5098 13.2487 56.4483 12.9492 56.4483H12.3329V55.9933H12.8571C13.0337 55.9933 13.1911 55.9664 13.3294 55.9127C13.4676 55.8589 13.5771 55.7763 13.6577 55.665C13.7383 55.5536 13.7787 55.4154 13.7787 55.2503C13.7787 55.0391 13.7057 54.8835 13.5598 54.7837C13.4139 54.6839 13.2315 54.6339 13.0126 54.6339C12.8167 54.6339 12.6171 54.6685 12.4135 54.7376C12.2139 54.8029 12.0334 54.9219 11.8721 55.0947L11.6705 54.68C11.8356 54.5034 12.0391 54.3747 12.2811 54.2941C12.523 54.2096 12.7726 54.1674 13.0299 54.1674C13.2871 54.1674 13.5099 54.2096 13.698 54.2941C13.8862 54.3747 14.0321 54.4938 14.1358 54.6512C14.2433 54.8048 14.2971 54.9911 14.2971 55.2099C14.2971 55.4327 14.2337 55.6304 14.107 55.8032C13.9803 55.976 13.8055 56.1027 13.5828 56.1834V56.2064C13.7326 56.2371 13.867 56.2947 13.986 56.3792C14.1089 56.4599 14.2049 56.5674 14.274 56.7018C14.347 56.8362 14.3835 56.9936 14.3835 57.1741C14.3835 57.4237 14.3239 57.6349 14.2049 57.8077C14.0859 57.9805 13.9207 58.1111 13.7095 58.1994C13.4983 58.2877 13.2545 58.3319 12.978 58.3319ZM16.1582 58.3319C15.9738 58.3319 15.801 58.3127 15.6398 58.2743C15.4823 58.2359 15.3326 58.1783 15.1905 58.1015C15.0522 58.0247 14.9255 57.9325 14.8103 57.825L15.0234 57.4045C15.1962 57.5696 15.3748 57.6887 15.5591 57.7616C15.7434 57.8307 15.9431 57.8653 16.1582 57.8653C16.4423 57.8653 16.6631 57.7943 16.8206 57.6522C16.9818 57.5063 17.0625 57.2989 17.0625 57.0301C17.0625 56.7651 16.9876 56.5559 16.8378 56.4023C16.6919 56.2487 16.4884 56.1719 16.2273 56.1719C16.0545 56.1719 15.897 56.2064 15.755 56.2755C15.6167 56.3408 15.4842 56.456 15.3575 56.6211H14.9255V54.2192H17.3966V54.6858H15.3978V56.1603H15.4266C15.515 56.0375 15.6359 55.9338 15.7895 55.8493C15.9431 55.761 16.114 55.7168 16.3022 55.7168C16.5633 55.7168 16.7879 55.7725 16.9761 55.8839C17.1681 55.9914 17.314 56.1411 17.4138 56.3331C17.5175 56.5251 17.5694 56.7479 17.5694 57.0013C17.5694 57.2855 17.5098 57.5274 17.3908 57.7271C17.2756 57.9229 17.1124 58.0727 16.9012 58.1763C16.6938 58.28 16.4462 58.3319 16.1582 58.3319ZM19.3556 58.3319C19.0292 58.3319 18.7508 58.2531 18.5204 58.0957C18.2938 57.9383 18.121 57.7098 18.002 57.4103C17.883 57.1107 17.8234 56.7517 17.8234 56.3331C17.8234 55.8685 17.8887 55.4768 18.0193 55.1581C18.1498 54.8355 18.338 54.5898 18.5838 54.4208C18.8295 54.2519 19.1271 54.1674 19.4766 54.1674C19.634 54.1674 19.7818 54.1866 19.9201 54.225C20.0583 54.2595 20.187 54.3133 20.306 54.3863C20.4289 54.4554 20.546 54.5456 20.6574 54.657L20.4615 55.0659C20.3079 54.9047 20.1505 54.7933 19.9892 54.7319C19.8279 54.6666 19.657 54.6339 19.4766 54.6339C19.2846 54.6339 19.1156 54.6704 18.9697 54.7434C18.8238 54.8125 18.7009 54.9181 18.601 55.0602C18.505 55.1984 18.4302 55.3712 18.3764 55.5786C18.3265 55.7821 18.3015 56.0163 18.3015 56.2813V56.5175H18.3303C18.3687 56.3523 18.4398 56.2103 18.5434 56.0912C18.6471 55.9722 18.7738 55.88 18.9236 55.8147C19.0734 55.7495 19.2327 55.7168 19.4017 55.7168C19.6513 55.7168 19.8702 55.7725 20.0583 55.8839C20.2465 55.9914 20.3943 56.1431 20.5018 56.3389C20.6094 56.5347 20.6631 56.7575 20.6631 57.0071C20.6631 57.2643 20.6074 57.4928 20.4961 57.6925C20.3847 57.8922 20.2311 58.0496 20.0353 58.1648C19.8394 58.2762 19.6129 58.3319 19.3556 58.3319ZM19.3383 57.8768C19.5034 57.8768 19.6494 57.8423 19.7761 57.7731C19.9028 57.7002 20.0007 57.6003 20.0698 57.4736C20.139 57.3431 20.1735 57.1914 20.1735 57.0186C20.1735 56.8496 20.137 56.7018 20.0641 56.5751C19.995 56.4483 19.897 56.3504 19.7703 56.2813C19.6436 56.2083 19.4958 56.1719 19.3268 56.1719C19.154 56.1719 19.0023 56.2083 18.8718 56.2813C18.745 56.3543 18.6452 56.4541 18.5722 56.5808C18.4993 56.7075 18.4628 56.8535 18.4628 57.0186C18.4628 57.1914 18.4974 57.3431 18.5665 57.4736C18.6394 57.6003 18.7412 57.7002 18.8718 57.7731C19.0062 57.8423 19.1617 57.8768 19.3383 57.8768ZM21.234 58.28L23.2154 54.4266L23.25 54.6973H20.9517V54.2192H23.6762V54.6224L21.8042 58.28H21.234ZM27.2051 58.28V57.4506H25.2928V57.0531L27.1187 54.2192H27.7004V57.0128H28.2361V57.4506H27.7004V58.28H27.2051ZM27.2224 57.0128V54.8816H27.1936L25.7708 57.0877L25.7017 57.0128H27.2224ZM29.8438 58.3319C29.6595 58.3319 29.4867 58.3127 29.3254 58.2743C29.168 58.2359 29.0182 58.1783 28.8761 58.1015C28.7379 58.0247 28.6112 57.9325 28.496 57.825L28.7091 57.4045C28.8819 57.5696 29.0604 57.6887 29.2448 57.7616C29.4291 57.8307 29.6288 57.8653 29.8438 57.8653C30.128 57.8653 30.3488 57.7943 30.5062 57.6522C30.6675 57.5063 30.7481 57.2989 30.7481 57.0301C30.7481 56.7651 30.6732 56.5559 30.5235 56.4023C30.3776 56.2487 30.174 56.1719 29.9129 56.1719C29.7401 56.1719 29.5827 56.2064 29.4406 56.2755C29.3024 56.3408 29.1699 56.456 29.0432 56.6211H28.6112V54.2192H31.0822V54.6858H29.0835V56.1603H29.1123C29.2006 56.0375 29.3216 55.9338 29.4752 55.8493C29.6288 55.761 29.7996 55.7168 29.9878 55.7168C30.2489 55.7168 30.4736 55.7725 30.6617 55.8839C30.8537 55.9914 30.9996 56.1411 31.0995 56.3331C31.2032 56.5251 31.255 56.7479 31.255 57.0013C31.255 57.2855 31.1955 57.5274 31.0764 57.7271C30.9612 57.9229 30.798 58.0727 30.5868 58.1763C30.3795 58.28 30.1318 58.3319 29.8438 58.3319ZM33.0412 58.3319C32.7148 58.3319 32.4364 58.2531 32.206 58.0957C31.9795 57.9383 31.8067 57.7098 31.6876 57.4103C31.5686 57.1107 31.5091 56.7517 31.5091 56.3331C31.5091 55.8685 31.5743 55.4768 31.7049 55.1581C31.8355 54.8355 32.0236 54.5898 32.2694 54.4208C32.5151 54.2519 32.8127 54.1674 33.1622 54.1674C33.3196 54.1674 33.4675 54.1866 33.6057 54.225C33.7439 54.2595 33.8726 54.3133 33.9916 54.3863C34.1145 54.4554 34.2316 54.5456 34.343 54.657L34.1471 55.0659C33.9935 54.9047 33.8361 54.7933 33.6748 54.7319C33.5135 54.6666 33.3427 54.6339 33.1622 54.6339C32.9702 54.6339 32.8012 54.6704 32.6553 54.7434C32.5094 54.8125 32.3865 54.9181 32.2867 55.0602C32.1907 55.1984 32.1158 55.3712 32.062 55.5786C32.0121 55.7821 31.9871 56.0163 31.9871 56.2813V56.5175H32.0159C32.0543 56.3523 32.1254 56.2103 32.2291 56.0912C32.3327 55.9722 32.4595 55.88 32.6092 55.8147C32.759 55.7495 32.9183 55.7168 33.0873 55.7168C33.3369 55.7168 33.5558 55.7725 33.7439 55.8839C33.9321 55.9914 34.0799 56.1431 34.1875 56.3389C34.295 56.5347 34.3487 56.7575 34.3487 57.0071C34.3487 57.2643 34.2931 57.4928 34.1817 57.6925C34.0703 57.8922 33.9167 58.0496 33.7209 58.1648C33.5251 58.2762 33.2985 58.3319 33.0412 58.3319ZM33.0239 57.8768C33.1891 57.8768 33.335 57.8423 33.4617 57.7731C33.5884 57.7002 33.6863 57.6003 33.7555 57.4736C33.8246 57.3431 33.8591 57.1914 33.8591 57.0186C33.8591 56.8496 33.8227 56.7018 33.7497 56.5751C33.6806 56.4483 33.5827 56.3504 33.4559 56.2813C33.3292 56.2083 33.1814 56.1719 33.0124 56.1719C32.8396 56.1719 32.6879 56.2083 32.5574 56.2813C32.4307 56.3543 32.3308 56.4541 32.2579 56.5808C32.1849 56.7075 32.1484 56.8535 32.1484 57.0186C32.1484 57.1914 32.183 57.3431 32.2521 57.4736C32.3251 57.6003 32.4268 57.7002 32.5574 57.7731C32.6918 57.8423 32.8473 57.8768 33.0239 57.8768ZM34.9196 58.28L36.9011 54.4266L36.9356 54.6973H34.6374V54.2192H37.3619V54.6224L35.4899 58.28H34.9196ZM41.9594 58.3319C41.6292 58.3319 41.345 58.2743 41.1069 58.1591C40.8689 58.04 40.6865 57.8691 40.5597 57.6464C40.433 57.4237 40.3697 57.1549 40.3697 56.84C40.3697 56.5559 40.4253 56.3024 40.5367 56.0797C40.6519 55.857 40.817 55.6823 41.0321 55.5555C41.2509 55.425 41.5121 55.3597 41.8154 55.3597C42.1073 55.3597 42.353 55.4211 42.5527 55.544C42.7562 55.6669 42.9079 55.8397 43.0077 56.0624C43.1114 56.2813 43.1633 56.5424 43.1633 56.8458V57.0013H40.7671V56.6211H42.8177L42.7025 56.7536C42.7025 56.4349 42.6237 56.193 42.4663 56.0279C42.3127 55.8589 42.0957 55.7744 41.8154 55.7744C41.6388 55.7744 41.4794 55.8147 41.3373 55.8954C41.1991 55.9722 41.0877 56.0835 41.0033 56.2295C40.9226 56.3754 40.8823 56.5539 40.8823 56.7651V56.8343C40.8823 57.0685 40.9265 57.2643 41.0148 57.4218C41.1031 57.5754 41.2279 57.6925 41.3892 57.7731C41.5543 57.8499 41.7482 57.8883 41.9709 57.8883C42.1245 57.8883 42.2839 57.8691 42.449 57.8307C42.618 57.7923 42.7735 57.7155 42.9156 57.6003L43.0999 57.9863C42.9463 58.1091 42.7658 58.1975 42.5585 58.2512C42.3549 58.305 42.1553 58.3319 41.9594 58.3319ZM43.3521 58.28L44.4868 56.6672L44.4983 56.961L43.3982 55.4115H43.9857L44.746 56.4829H44.7748L45.5351 55.4115H46.1226L45.0282 56.9495L45.0455 56.6787L46.1745 58.28H45.5812L44.7748 57.1395H44.746L43.9396 58.28H43.3521ZM47.5123 58.3319C47.3049 58.3319 47.1187 58.2954 46.9536 58.2224C46.7884 58.1456 46.6579 58.0419 46.5619 57.9114C46.4697 57.7808 46.4236 57.633 46.4236 57.4679C46.4236 57.249 46.4889 57.0762 46.6195 56.9495C46.7539 56.8189 46.9516 56.7267 47.2128 56.673C47.4739 56.6154 47.7964 56.5866 48.1804 56.5866H48.6643V56.961H48.215C48 56.961 47.8118 56.9687 47.6505 56.984C47.4931 56.9955 47.3625 57.0186 47.2588 57.0531C47.159 57.0877 47.0822 57.1357 47.0284 57.1971C46.9785 57.2586 46.9536 57.3392 46.9536 57.4391C46.9536 57.5965 47.0169 57.7136 47.1436 57.7904C47.2704 57.8672 47.4278 57.9056 47.616 57.9056C47.7888 57.9056 47.9462 57.8672 48.0883 57.7904C48.2342 57.7136 48.3513 57.6119 48.4396 57.4851C48.5318 57.3584 48.5779 57.2221 48.5779 57.0762V56.4253C48.5779 56.2026 48.5068 56.0432 48.3648 55.9472C48.2227 55.8474 48.0211 55.7975 47.76 55.7975C47.5872 55.7975 47.4144 55.8205 47.2416 55.8666C47.0726 55.9088 46.896 55.9837 46.7116 56.0912L46.5446 55.6938C46.6713 55.6208 46.8038 55.5594 46.942 55.5095C47.0841 55.4595 47.23 55.4231 47.3798 55.4C47.5296 55.3731 47.6793 55.3597 47.8291 55.3597C48.0787 55.3597 48.2995 55.3981 48.4915 55.4749C48.6835 55.5517 48.8332 55.6727 48.9408 55.8378C49.0483 55.9991 49.102 56.2103 49.102 56.4714V58.28H48.647V57.6695H48.6124C48.551 57.7808 48.4704 57.8883 48.3705 57.992C48.2707 58.0919 48.1497 58.1744 48.0076 58.2397C47.8656 58.3011 47.7004 58.3319 47.5123 58.3319ZM49.8465 58.28V55.4115H50.3188V56.0279H50.3534C50.4033 55.9127 50.4743 55.8051 50.5665 55.7053C50.6586 55.6016 50.77 55.5191 50.9006 55.4576C51.0311 55.3923 51.1751 55.3597 51.3326 55.3597C51.586 55.3597 51.7953 55.425 51.9604 55.5555C52.1294 55.6823 52.233 55.8359 52.2714 56.0163H52.3002C52.377 55.8397 52.4961 55.6861 52.6574 55.5555C52.8225 55.425 53.0356 55.3597 53.2967 55.3597C53.5156 55.3597 53.7018 55.4019 53.8554 55.4864C54.0129 55.5709 54.1319 55.6995 54.2126 55.8723C54.297 56.0413 54.3393 56.2583 54.3393 56.5232V58.28H53.8094V56.5635C53.8094 56.3216 53.7652 56.1373 53.6769 56.0106C53.5886 55.8839 53.4254 55.8205 53.1873 55.8205C53.0106 55.8205 52.859 55.8608 52.7322 55.9415C52.6055 56.0183 52.5095 56.1219 52.4442 56.2525C52.3828 56.3831 52.3521 56.5271 52.3521 56.6845V58.28H51.8279V56.5635C51.8279 56.3293 51.7742 56.1469 51.6666 56.0163C51.5591 55.8858 51.4074 55.8205 51.2116 55.8205C51.0388 55.8205 50.889 55.8647 50.7623 55.953C50.6356 56.0413 50.5377 56.1507 50.4686 56.2813C50.4033 56.4119 50.3706 56.5405 50.3706 56.6672V58.28H49.8465ZM55.0831 59.3168V55.4058H55.5554V56.0163H55.59C55.686 55.8051 55.8242 55.6439 56.0047 55.5325C56.189 55.4173 56.404 55.3597 56.6498 55.3597C56.9186 55.3597 57.1528 55.4231 57.3525 55.5498C57.5522 55.6727 57.7077 55.8455 57.8191 56.0682C57.9304 56.2909 57.9861 56.5501 57.9861 56.8458C57.9861 57.1338 57.9304 57.3911 57.8191 57.6176C57.7116 57.8403 57.558 58.0151 57.3583 58.1418C57.1586 58.2685 56.9224 58.3319 56.6498 58.3319C56.4117 58.3319 56.2063 58.2781 56.0335 58.1706C55.8645 58.0592 55.7359 57.9075 55.6476 57.7155H55.6188V59.3168H55.0831ZM56.5288 57.8883C56.8168 57.8883 57.0415 57.7923 57.2028 57.6003C57.3679 57.4083 57.4504 57.1549 57.4504 56.84C57.4504 56.5251 57.3698 56.2736 57.2085 56.0855C57.0472 55.8973 56.8226 55.8032 56.5346 55.8032C56.2428 55.8032 56.0162 55.8973 55.8549 56.0855C55.6936 56.2736 55.613 56.5251 55.613 56.84C55.613 57.1549 55.6936 57.4083 55.8549 57.6003C56.02 57.7923 56.2447 57.8883 56.5288 57.8883ZM59.4176 58.3319C59.1488 58.3319 58.9376 58.2531 58.784 58.0957C58.6342 57.9383 58.5593 57.7194 58.5593 57.4391V54.2192H59.095V57.3815C59.095 57.489 59.1104 57.5811 59.1411 57.6579C59.1757 57.7347 59.2237 57.7943 59.2851 57.8365C59.3465 57.8749 59.4214 57.8941 59.5097 57.8941C59.5673 57.8941 59.623 57.8903 59.6768 57.8826C59.7344 57.8749 59.7939 57.8634 59.8553 57.848L59.8784 58.2627C59.8093 58.2858 59.7382 58.3031 59.6653 58.3146C59.5961 58.3261 59.5136 58.3319 59.4176 58.3319ZM61.5288 58.3319C61.1985 58.3319 60.9144 58.2743 60.6763 58.1591C60.4382 58.04 60.2558 57.8691 60.1291 57.6464C60.0024 57.4237 59.939 57.1549 59.939 56.84C59.939 56.5559 59.9947 56.3024 60.1061 56.0797C60.2213 55.857 60.3864 55.6823 60.6014 55.5555C60.8203 55.425 61.0814 55.3597 61.3848 55.3597C61.6766 55.3597 61.9224 55.4211 62.1221 55.544C62.3256 55.6669 62.4773 55.8397 62.5771 56.0624C62.6808 56.2813 62.7326 56.5424 62.7326 56.8458V57.0013H60.3365V56.6211H62.387L62.2718 56.7536C62.2718 56.4349 62.1931 56.193 62.0357 56.0279C61.8821 55.8589 61.6651 55.7744 61.3848 55.7744C61.2081 55.7744 61.0488 55.8147 60.9067 55.8954C60.7685 55.9722 60.6571 56.0835 60.5726 56.2295C60.492 56.3754 60.4517 56.5539 60.4517 56.7651V56.8343C60.4517 57.0685 60.4958 57.2643 60.5841 57.4218C60.6725 57.5754 60.7973 57.6925 60.9585 57.7731C61.1237 57.8499 61.3176 57.8883 61.5403 57.8883C61.6939 57.8883 61.8533 57.8691 62.0184 57.8307C62.1873 57.7923 62.3429 57.7155 62.4849 57.6003L62.6693 57.9863C62.5157 58.1091 62.3352 58.1975 62.1278 58.2512C61.9243 58.305 61.7246 58.3319 61.5288 58.3319ZM65.8559 58.3319C65.5064 58.3319 65.2395 58.2397 65.0552 58.0554C64.8747 57.8711 64.7845 57.6119 64.7845 57.2778V55.8608H64.2027V55.4115H64.8133V54.5706H65.3202V55.4115H66.4146V55.8608H65.3202V57.2317C65.3202 57.4506 65.372 57.6119 65.4757 57.7155C65.5794 57.8154 65.7291 57.8653 65.925 57.8653C66.0171 57.8653 66.1035 57.8576 66.1842 57.8423C66.2687 57.8231 66.3493 57.7962 66.4261 57.7616L66.5067 58.1879C66.4223 58.2378 66.3205 58.2743 66.2015 58.2973C66.0863 58.3203 65.9711 58.3319 65.8559 58.3319ZM68.245 58.3319C67.9148 58.3319 67.6306 58.2743 67.3926 58.1591C67.1545 58.04 66.9721 57.8691 66.8454 57.6464C66.7186 57.4237 66.6553 57.1549 66.6553 56.84C66.6553 56.5559 66.711 56.3024 66.8223 56.0797C66.9375 55.857 67.1026 55.6823 67.3177 55.5555C67.5366 55.425 67.7977 55.3597 68.101 55.3597C68.3929 55.3597 68.6386 55.4211 68.8383 55.544C69.0418 55.6669 69.1935 55.8397 69.2934 56.0624C69.397 56.2813 69.4489 56.5424 69.4489 56.8458V57.0013H67.0527V56.6211H69.1033L68.9881 56.7536C68.9881 56.4349 68.9094 56.193 68.7519 56.0279C68.5983 55.8589 68.3814 55.7744 68.101 55.7744C67.9244 55.7744 67.765 55.8147 67.623 55.8954C67.4847 55.9722 67.3734 56.0835 67.2889 56.2295C67.2082 56.3754 67.1679 56.5539 67.1679 56.7651V56.8343C67.1679 57.0685 67.2121 57.2643 67.3004 57.4218C67.3887 57.5754 67.5135 57.6925 67.6748 57.7731C67.8399 57.8499 68.0338 57.8883 68.2566 57.8883C68.4102 57.8883 68.5695 57.8691 68.7346 57.8307C68.9036 57.7923 69.0591 57.7155 69.2012 57.6003L69.3855 57.9863C69.2319 58.1091 69.0514 58.1975 68.8441 58.2512C68.6406 58.305 68.4409 58.3319 68.245 58.3319ZM69.6377 58.28L70.7724 56.6672L70.7839 56.961L69.6838 55.4115H70.2713L71.0316 56.4829H71.0604L71.8207 55.4115H72.4083L71.3139 56.9495L71.3311 56.6787L72.4601 58.28H71.8668L71.0604 57.1395H71.0316L70.2252 58.28H69.6377ZM74.0796 58.3319C73.7302 58.3319 73.4633 58.2397 73.279 58.0554C73.0985 57.8711 73.0082 57.6119 73.0082 57.2778V55.8608H72.4265V55.4115H73.037V54.5706H73.5439V55.4115H74.6383V55.8608H73.5439V57.2317C73.5439 57.4506 73.5958 57.6119 73.6994 57.7155C73.8031 57.8154 73.9529 57.8653 74.1487 57.8653C74.2409 57.8653 74.3273 57.8576 74.4079 57.8423C74.4924 57.8231 74.573 57.7962 74.6498 57.7616L74.7305 58.1879C74.646 58.2378 74.5442 58.2743 74.4252 58.2973C74.31 58.3203 74.1948 58.3319 74.0796 58.3319ZM77.8075 58.3319C77.4773 58.3319 77.1931 58.2743 76.9551 58.1591C76.717 58.04 76.5346 57.8691 76.4079 57.6464C76.2811 57.4237 76.2178 57.1549 76.2178 56.84C76.2178 56.5559 76.2735 56.3024 76.3848 56.0797C76.5 55.857 76.6651 55.6823 76.8802 55.5555C77.0991 55.425 77.3602 55.3597 77.6635 55.3597C77.9554 55.3597 78.2011 55.4211 78.4008 55.544C78.6043 55.6669 78.756 55.8397 78.8559 56.0624C78.9595 56.2813 79.0114 56.5424 79.0114 56.8458V57.0013H76.6152V56.6211H78.6658L78.5506 56.7536C78.5506 56.4349 78.4719 56.193 78.3144 56.0279C78.1608 55.8589 77.9439 55.7744 77.6635 55.7744C77.4869 55.7744 77.3275 55.8147 77.1855 55.8954C77.0472 55.9722 76.9359 56.0835 76.8514 56.2295C76.7707 56.3754 76.7304 56.5539 76.7304 56.7651V56.8343C76.7304 57.0685 76.7746 57.2643 76.8629 57.4218C76.9512 57.5754 77.076 57.6925 77.2373 57.7731C77.4024 57.8499 77.5963 57.8883 77.8191 57.8883C77.9727 57.8883 78.132 57.8691 78.2971 57.8307C78.4661 57.7923 78.6216 57.7155 78.7637 57.6003L78.948 57.9863C78.7944 58.1091 78.6139 58.1975 78.4066 58.2512C78.2031 58.305 78.0034 58.3319 77.8075 58.3319ZM79.2002 58.28L80.3349 56.6672L80.3464 56.961L79.2463 55.4115H79.8338L80.5941 56.4829H80.6229L81.3832 55.4115H81.9708L80.8764 56.9495L80.8936 56.6787L82.0226 58.28H81.4293L80.6229 57.1395H80.5941L79.7877 58.28H79.2002ZM83.3604 58.3319C83.153 58.3319 82.9668 58.2954 82.8017 58.2224C82.6366 58.1456 82.506 58.0419 82.41 57.9114C82.3178 57.7808 82.2718 57.633 82.2718 57.4679C82.2718 57.249 82.337 57.0762 82.4676 56.9495C82.602 56.8189 82.7998 56.7267 83.0609 56.673C83.322 56.6154 83.6446 56.5866 84.0286 56.5866H84.5124V56.961H84.0631C83.8481 56.961 83.6599 56.9687 83.4986 56.984C83.3412 56.9955 83.2106 57.0186 83.107 57.0531C83.0071 57.0877 82.9303 57.1357 82.8766 57.1971C82.8266 57.2586 82.8017 57.3392 82.8017 57.4391C82.8017 57.5965 82.865 57.7136 82.9918 57.7904C83.1185 57.8672 83.2759 57.9056 83.4641 57.9056C83.6369 57.9056 83.7943 57.8672 83.9364 57.7904C84.0823 57.7136 84.1994 57.6119 84.2878 57.4851C84.3799 57.3584 84.426 57.2221 84.426 57.0762V56.4253C84.426 56.2026 84.355 56.0432 84.2129 55.9472C84.0708 55.8474 83.8692 55.7975 83.6081 55.7975C83.4353 55.7975 83.2625 55.8205 83.0897 55.8666C82.9207 55.9088 82.7441 55.9837 82.5598 56.0912L82.3927 55.6938C82.5194 55.6208 82.6519 55.5594 82.7902 55.5095C82.9322 55.4595 83.0782 55.4231 83.2279 55.4C83.3777 55.3731 83.5274 55.3597 83.6772 55.3597C83.9268 55.3597 84.1476 55.3981 84.3396 55.4749C84.5316 55.5517 84.6814 55.6727 84.7889 55.8378C84.8964 55.9991 84.9502 56.2103 84.9502 56.4714V58.28H84.4951V57.6695H84.4606C84.3991 57.7808 84.3185 57.8883 84.2186 57.992C84.1188 58.0919 83.9978 58.1744 83.8558 58.2397C83.7137 58.3011 83.5486 58.3319 83.3604 58.3319ZM85.6946 58.28V55.4115H86.1669V56.0279H86.2015C86.2514 55.9127 86.3224 55.8051 86.4146 55.7053C86.5068 55.6016 86.6181 55.5191 86.7487 55.4576C86.8792 55.3923 87.0232 55.3597 87.1807 55.3597C87.4341 55.3597 87.6434 55.425 87.8085 55.5555C87.9775 55.6823 88.0812 55.8359 88.1196 56.0163H88.1484C88.2252 55.8397 88.3442 55.6861 88.5055 55.5555C88.6706 55.425 88.8837 55.3597 89.1448 55.3597C89.3637 55.3597 89.55 55.4019 89.7036 55.4864C89.861 55.5709 89.98 55.6995 90.0607 55.8723C90.1452 56.0413 90.1874 56.2583 90.1874 56.5232V58.28H89.6575V56.5635C89.6575 56.3216 89.6133 56.1373 89.525 56.0106C89.4367 55.8839 89.2735 55.8205 89.0354 55.8205C88.8588 55.8205 88.7071 55.8608 88.5804 55.9415C88.4536 56.0183 88.3576 56.1219 88.2924 56.2525C88.2309 56.3831 88.2002 56.5271 88.2002 56.6845V58.28H87.676V56.5635C87.676 56.3293 87.6223 56.1469 87.5148 56.0163C87.4072 55.8858 87.2556 55.8205 87.0597 55.8205C86.8869 55.8205 86.7372 55.8647 86.6104 55.953C86.4837 56.0413 86.3858 56.1507 86.3167 56.2813C86.2514 56.4119 86.2188 56.5405 86.2188 56.6672V58.28H85.6946ZM90.9312 59.3168V55.4058H91.4035V56.0163H91.4381C91.5341 55.8051 91.6723 55.6439 91.8528 55.5325C92.0371 55.4173 92.2522 55.3597 92.4979 55.3597C92.7667 55.3597 93.001 55.4231 93.2006 55.5498C93.4003 55.6727 93.5558 55.8455 93.6672 56.0682C93.7786 56.2909 93.8342 56.5501 93.8342 56.8458C93.8342 57.1338 93.7786 57.3911 93.6672 57.6176C93.5597 57.8403 93.4061 58.0151 93.2064 58.1418C93.0067 58.2685 92.7706 58.3319 92.4979 58.3319C92.2598 58.3319 92.0544 58.2781 91.8816 58.1706C91.7126 58.0592 91.584 57.9075 91.4957 57.7155H91.4669V59.3168H90.9312ZM92.377 57.8883C92.665 57.8883 92.8896 57.7923 93.0509 57.6003C93.216 57.4083 93.2986 57.1549 93.2986 56.84C93.2986 56.5251 93.2179 56.2736 93.0566 56.0855C92.8954 55.8973 92.6707 55.8032 92.3827 55.8032C92.0909 55.8032 91.8643 55.8973 91.703 56.0855C91.5418 56.2736 91.4611 56.5251 91.4611 56.84C91.4611 57.1549 91.5418 57.4083 91.703 57.6003C91.8682 57.7923 92.0928 57.8883 92.377 57.8883ZM95.2657 58.3319C94.9969 58.3319 94.7857 58.2531 94.6321 58.0957C94.4823 57.9383 94.4075 57.7194 94.4075 57.4391V54.2192H94.9431V57.3815C94.9431 57.489 94.9585 57.5811 94.9892 57.6579C95.0238 57.7347 95.0718 57.7943 95.1332 57.8365C95.1947 57.8749 95.2695 57.8941 95.3579 57.8941C95.4155 57.8941 95.4711 57.8903 95.5249 57.8826C95.5825 57.8749 95.642 57.8634 95.7035 57.848L95.7265 58.2627C95.6574 58.2858 95.5863 58.3031 95.5134 58.3146C95.4443 58.3261 95.3617 58.3319 95.2657 58.3319ZM97.3769 58.3319C97.0467 58.3319 96.7625 58.2743 96.5244 58.1591C96.2864 58.04 96.104 57.8691 95.9772 57.6464C95.8505 57.4237 95.7872 57.1549 95.7872 56.84C95.7872 56.5559 95.8428 56.3024 95.9542 56.0797C96.0694 55.857 96.2345 55.6823 96.4496 55.5555C96.6684 55.425 96.9296 55.3597 97.2329 55.3597C97.5248 55.3597 97.7705 55.4211 97.9702 55.544C98.1737 55.6669 98.3254 55.8397 98.4252 56.0624C98.5289 56.2813 98.5808 56.5424 98.5808 56.8458V57.0013H96.1846V56.6211H98.2352L98.12 56.7536C98.12 56.4349 98.0412 56.193 97.8838 56.0279C97.7302 55.8589 97.5132 55.7744 97.2329 55.7744C97.0563 55.7744 96.8969 55.8147 96.7548 55.8954C96.6166 55.9722 96.5052 56.0835 96.4208 56.2295C96.3401 56.3754 96.2998 56.5539 96.2998 56.7651V56.8343C96.2998 57.0685 96.344 57.2643 96.4323 57.4218C96.5206 57.5754 96.6454 57.6925 96.8067 57.7731C96.9718 57.8499 97.1657 57.8883 97.3884 57.8883C97.542 57.8883 97.7014 57.8691 97.8665 57.8307C98.0355 57.7923 98.191 57.7155 98.3331 57.6003L98.5174 57.9863C98.3638 58.1091 98.1833 58.1975 97.976 58.2512C97.7724 58.305 97.5728 58.3319 97.3769 58.3319ZM101.704 58.3319C101.355 58.3319 101.088 58.2397 100.903 58.0554C100.723 57.8711 100.633 57.6119 100.633 57.2778V55.8608H100.051V55.4115H100.661V54.5706H101.168V55.4115H102.263V55.8608H101.168V57.2317C101.168 57.4506 101.22 57.6119 101.324 57.7155C101.428 57.8154 101.577 57.8653 101.773 57.8653C101.865 57.8653 101.952 57.8576 102.032 57.8423C102.117 57.8231 102.197 57.7962 102.274 57.7616L102.355 58.1879C102.27 58.2378 102.169 58.2743 102.05 58.2973C101.934 58.3203 101.819 58.3319 101.704 58.3319ZM104.093 58.3319C103.763 58.3319 103.479 58.2743 103.241 58.1591C103.003 58.04 102.82 57.8691 102.693 57.6464C102.567 57.4237 102.503 57.1549 102.503 56.84C102.503 56.5559 102.559 56.3024 102.67 56.0797C102.786 55.857 102.951 55.6823 103.166 55.5555C103.385 55.425 103.646 55.3597 103.949 55.3597C104.241 55.3597 104.487 55.4211 104.686 55.544C104.89 55.6669 105.042 55.8397 105.141 56.0624C105.245 56.2813 105.297 56.5424 105.297 56.8458V57.0013H102.901V56.6211H104.951L104.836 56.7536C104.836 56.4349 104.757 56.193 104.6 56.0279C104.446 55.8589 104.229 55.7744 103.949 55.7744C103.773 55.7744 103.613 55.8147 103.471 55.8954C103.333 55.9722 103.221 56.0835 103.137 56.2295C103.056 56.3754 103.016 56.5539 103.016 56.7651V56.8343C103.016 57.0685 103.06 57.2643 103.149 57.4218C103.237 57.5754 103.362 57.6925 103.523 57.7731C103.688 57.8499 103.882 57.8883 104.105 57.8883C104.258 57.8883 104.418 57.8691 104.583 57.8307C104.752 57.7923 104.907 57.7155 105.049 57.6003L105.234 57.9863C105.08 58.1091 104.9 58.1975 104.692 58.2512C104.489 58.305 104.289 58.3319 104.093 58.3319ZM105.486 58.28L106.621 56.6672L106.632 56.961L105.532 55.4115H106.119L106.88 56.4829H106.909L107.669 55.4115H108.256L107.162 56.9495L107.179 56.6787L108.308 58.28H107.715L106.909 57.1395H106.88L106.073 58.28H105.486ZM109.928 58.3319C109.578 58.3319 109.311 58.2397 109.127 58.0554C108.947 57.8711 108.856 57.6119 108.856 57.2778V55.8608H108.275V55.4115H108.885V54.5706H109.392V55.4115H110.486V55.8608H109.392V57.2317C109.392 57.4506 109.444 57.6119 109.548 57.7155C109.651 57.8154 109.801 57.8653 109.997 57.8653C110.089 57.8653 110.175 57.8576 110.256 57.8423C110.341 57.8231 110.421 57.7962 110.498 57.7616L110.579 58.1879C110.494 58.2378 110.392 58.2743 110.273 58.2973C110.158 58.3203 110.043 58.3319 109.928 58.3319ZM7.09004 64.3319C6.7598 64.3319 6.47564 64.2743 6.23756 64.1591C5.99948 64.04 5.81708 63.8691 5.69036 63.6464C5.56364 63.4237 5.50028 63.1549 5.50028 62.84C5.50028 62.5559 5.55596 62.3024 5.66732 62.0797C5.78252 61.857 5.94764 61.6823 6.16268 61.5555C6.38156 61.425 6.64268 61.3597 6.94604 61.3597C7.23788 61.3597 7.48364 61.4211 7.68332 61.544C7.88684 61.6669 8.03852 61.8397 8.13836 62.0624C8.24204 62.2813 8.29388 62.5424 8.29388 62.8458V63.0013H5.89772V62.6211H7.94828L7.83308 62.7536C7.83308 62.4349 7.75436 62.193 7.59692 62.0279C7.44332 61.8589 7.22636 61.7744 6.94604 61.7744C6.7694 61.7744 6.61004 61.8147 6.46796 61.8954C6.32972 61.9722 6.21836 62.0835 6.13388 62.2295C6.05324 62.3754 6.01292 62.5539 6.01292 62.7651V62.8343C6.01292 63.0685 6.05708 63.2643 6.1454 63.4218C6.23372 63.5754 6.35852 63.6925 6.5198 63.7731C6.68492 63.8499 6.87884 63.8883 7.10156 63.8883C7.25516 63.8883 7.41452 63.8691 7.57964 63.8307C7.7486 63.7923 7.90412 63.7155 8.0462 63.6003L8.23052 63.9863C8.07692 64.1091 7.89644 64.1975 7.68908 64.2512C7.48556 64.305 7.28588 64.3319 7.09004 64.3319ZM8.4827 64.28L9.61742 62.6672L9.62894 62.961L8.52878 61.4115H9.1163L9.87662 62.4829H9.90542L10.6657 61.4115H11.2533L10.1589 62.9495L10.1761 62.6787L11.3051 64.28H10.7118L9.90542 63.1395H9.87662L9.07022 64.28H8.4827ZM12.6429 64.3319C12.4355 64.3319 12.2493 64.2954 12.0842 64.2224C11.9191 64.1456 11.7885 64.0419 11.6925 63.9114C11.6003 63.7808 11.5543 63.633 11.5543 63.4679C11.5543 63.249 11.6195 63.0762 11.7501 62.9495C11.8845 62.8189 12.0823 62.7267 12.3434 62.673C12.6045 62.6154 12.9271 62.5866 13.3111 62.5866H13.7949V62.961H13.3456C13.1306 62.961 12.9424 62.9687 12.7811 62.984C12.6237 62.9955 12.4931 63.0186 12.3895 63.0531C12.2896 63.0877 12.2128 63.1357 12.1591 63.1971C12.1091 63.2586 12.0842 63.3392 12.0842 63.4391C12.0842 63.5965 12.1475 63.7136 12.2743 63.7904C12.401 63.8672 12.5584 63.9056 12.7466 63.9056C12.9194 63.9056 13.0768 63.8672 13.2189 63.7904C13.3648 63.7136 13.4819 63.6119 13.5703 63.4851C13.6624 63.3584 13.7085 63.2221 13.7085 63.0762V62.4253C13.7085 62.2026 13.6375 62.0432 13.4954 61.9472C13.3533 61.8474 13.1517 61.7975 12.8906 61.7975C12.7178 61.7975 12.545 61.8205 12.3722 61.8666C12.2032 61.9088 12.0266 61.9837 11.8423 62.0912L11.6752 61.6938C11.8019 61.6208 11.9344 61.5594 12.0727 61.5095C12.2147 61.4595 12.3607 61.4231 12.5104 61.4C12.6602 61.3731 12.8099 61.3597 12.9597 61.3597C13.2093 61.3597 13.4301 61.3981 13.6221 61.4749C13.8141 61.5517 13.9639 61.6727 14.0714 61.8378C14.1789 61.9991 14.2327 62.2103 14.2327 62.4714V64.28H13.7776V63.6695H13.7431C13.6816 63.7808 13.601 63.8883 13.5011 63.992C13.4013 64.0919 13.2803 64.1744 13.1383 64.2397C12.9962 64.3011 12.8311 64.3319 12.6429 64.3319ZM14.9771 64.28V61.4115H15.4494V62.0279H15.484C15.5339 61.9127 15.6049 61.8051 15.6971 61.7053C15.7893 61.6016 15.9006 61.5191 16.0312 61.4576C16.1617 61.3923 16.3057 61.3597 16.4632 61.3597C16.7166 61.3597 16.9259 61.425 17.091 61.5555C17.26 61.6823 17.3637 61.8359 17.4021 62.0163H17.4309C17.5077 61.8397 17.6267 61.6861 17.788 61.5555C17.9531 61.425 18.1662 61.3597 18.4273 61.3597C18.6462 61.3597 18.8325 61.4019 18.9861 61.4864C19.1435 61.5709 19.2625 61.6995 19.3432 61.8723C19.4277 62.0413 19.4699 62.2583 19.4699 62.5232V64.28H18.94V62.5635C18.94 62.3216 18.8958 62.1373 18.8075 62.0106C18.7192 61.8839 18.556 61.8205 18.3179 61.8205C18.1413 61.8205 17.9896 61.8608 17.8629 61.9415C17.7361 62.0183 17.6401 62.1219 17.5749 62.2525C17.5134 62.3831 17.4827 62.5271 17.4827 62.6845V64.28H16.9585V62.5635C16.9585 62.3293 16.9048 62.1469 16.7973 62.0163C16.6897 61.8858 16.5381 61.8205 16.3422 61.8205C16.1694 61.8205 16.0197 61.8647 15.8929 61.953C15.7662 62.0413 15.6683 62.1507 15.5992 62.2813C15.5339 62.4119 15.5013 62.5405 15.5013 62.6672V64.28H14.9771ZM20.2137 65.3168V61.4058H20.686V62.0163H20.7206C20.8166 61.8051 20.9548 61.6439 21.1353 61.5325C21.3196 61.4173 21.5347 61.3597 21.7804 61.3597C22.0492 61.3597 22.2835 61.4231 22.4831 61.5498C22.6828 61.6727 22.8383 61.8455 22.9497 62.0682C23.0611 62.2909 23.1167 62.5501 23.1167 62.8458C23.1167 63.1338 23.0611 63.3911 22.9497 63.6176C22.8422 63.8403 22.6886 64.0151 22.4889 64.1418C22.2892 64.2685 22.0531 64.3319 21.7804 64.3319C21.5423 64.3319 21.3369 64.2781 21.1641 64.1706C20.9951 64.0592 20.8665 63.9075 20.7782 63.7155H20.7494V65.3168H20.2137ZM21.6595 63.8883C21.9475 63.8883 22.1721 63.7923 22.3334 63.6003C22.4985 63.4083 22.5811 63.1549 22.5811 62.84C22.5811 62.5251 22.5004 62.2736 22.3391 62.0855C22.1779 61.8973 21.9532 61.8032 21.6652 61.8032C21.3734 61.8032 21.1468 61.8973 20.9855 62.0855C20.8243 62.2736 20.7436 62.5251 20.7436 62.84C20.7436 63.1549 20.8243 63.4083 20.9855 63.6003C21.1507 63.7923 21.3753 63.8883 21.6595 63.8883ZM24.5482 64.3319C24.2794 64.3319 24.0682 64.2531 23.9146 64.0957C23.7648 63.9383 23.69 63.7194 23.69 63.4391V60.2192H24.2256V63.3815C24.2256 63.489 24.241 63.5811 24.2717 63.6579C24.3063 63.7347 24.3543 63.7943 24.4157 63.8365C24.4772 63.8749 24.552 63.8941 24.6404 63.8941C24.698 63.8941 24.7536 63.8903 24.8074 63.8826C24.865 63.8749 24.9245 63.8634 24.986 63.848L25.009 64.2627C24.9399 64.2858 24.8688 64.3031 24.7959 64.3146C24.7268 64.3261 24.6442 64.3319 24.5482 64.3319ZM26.6594 64.3319C26.3292 64.3319 26.045 64.2743 25.8069 64.1591C25.5689 64.04 25.3865 63.8691 25.2597 63.6464C25.133 63.4237 25.0697 63.1549 25.0697 62.84C25.0697 62.5559 25.1253 62.3024 25.2367 62.0797C25.3519 61.857 25.517 61.6823 25.7321 61.5555C25.9509 61.425 26.2121 61.3597 26.5154 61.3597C26.8073 61.3597 27.053 61.4211 27.2527 61.544C27.4562 61.6669 27.6079 61.8397 27.7077 62.0624C27.8114 62.2813 27.8633 62.5424 27.8633 62.8458V63.0013H25.4671V62.6211H27.5177L27.4025 62.7536C27.4025 62.4349 27.3237 62.193 27.1663 62.0279C27.0127 61.8589 26.7957 61.7744 26.5154 61.7744C26.3388 61.7744 26.1794 61.8147 26.0373 61.8954C25.8991 61.9722 25.7877 62.0835 25.7033 62.2295C25.6226 62.3754 25.5823 62.5539 25.5823 62.7651V62.8343C25.5823 63.0685 25.6265 63.2643 25.7148 63.4218C25.8031 63.5754 25.9279 63.6925 26.0892 63.7731C26.2543 63.8499 26.4482 63.8883 26.6709 63.8883C26.8245 63.8883 26.9839 63.8691 27.149 63.8307C27.318 63.7923 27.4735 63.7155 27.6156 63.6003L27.7999 63.9863C27.6463 64.1091 27.4658 64.1975 27.2585 64.2512C27.0549 64.305 26.8553 64.3319 26.6594 64.3319ZM30.9865 64.3319C30.637 64.3319 30.3702 64.2397 30.1858 64.0554C30.0054 63.8711 29.9151 63.6119 29.9151 63.2778V61.8608H29.3334V61.4115H29.9439V60.5706H30.4508V61.4115H31.5452V61.8608H30.4508V63.2317C30.4508 63.4506 30.5026 63.6119 30.6063 63.7155C30.71 63.8154 30.8598 63.8653 31.0556 63.8653C31.1478 63.8653 31.2342 63.8576 31.3148 63.8423C31.3993 63.8231 31.4799 63.7962 31.5567 63.7616L31.6374 64.1879C31.5529 64.2378 31.4511 64.2743 31.3321 64.2973C31.2169 64.3203 31.1017 64.3319 30.9865 64.3319ZM33.3757 64.3319C33.0454 64.3319 32.7613 64.2743 32.5232 64.1591C32.2851 64.04 32.1027 63.8691 31.976 63.6464C31.8493 63.4237 31.7859 63.1549 31.7859 62.84C31.7859 62.5559 31.8416 62.3024 31.9529 62.0797C32.0681 61.857 32.2333 61.6823 32.4483 61.5555C32.6672 61.425 32.9283 61.3597 33.2317 61.3597C33.5235 61.3597 33.7693 61.4211 33.9689 61.544C34.1725 61.6669 34.3241 61.8397 34.424 62.0624C34.5277 62.2813 34.5795 62.5424 34.5795 62.8458V63.0013H32.1833V62.6211H34.2339L34.1187 62.7536C34.1187 62.4349 34.04 62.193 33.8825 62.0279C33.7289 61.8589 33.512 61.7744 33.2317 61.7744C33.055 61.7744 32.8957 61.8147 32.7536 61.8954C32.6153 61.9722 32.504 62.0835 32.4195 62.2295C32.3389 62.3754 32.2985 62.5539 32.2985 62.7651V62.8343C32.2985 63.0685 32.3427 63.2643 32.431 63.4218C32.5193 63.5754 32.6441 63.6925 32.8054 63.7731C32.9705 63.8499 33.1645 63.8883 33.3872 63.8883C33.5408 63.8883 33.7001 63.8691 33.8653 63.8307C34.0342 63.7923 34.1897 63.7155 34.3318 63.6003L34.5161 63.9863C34.3625 64.1091 34.1821 64.1975 33.9747 64.2512C33.7712 64.305 33.5715 64.3319 33.3757 64.3319ZM34.7683 64.28L35.903 62.6672L35.9146 62.961L34.8144 61.4115H35.4019L36.1622 62.4829H36.191L36.9514 61.4115H37.5389L36.4445 62.9495L36.4618 62.6787L37.5907 64.28H36.9974L36.191 63.1395H36.1622L35.3558 64.28H34.7683ZM39.2102 64.3319C38.8608 64.3319 38.5939 64.2397 38.4096 64.0554C38.2291 63.8711 38.1389 63.6119 38.1389 63.2778V61.8608H37.5571V61.4115H38.1677V60.5706H38.6745V61.4115H39.7689V61.8608H38.6745V63.2317C38.6745 63.4506 38.7264 63.6119 38.8301 63.7155C38.9337 63.8154 39.0835 63.8653 39.2793 63.8653C39.3715 63.8653 39.4579 63.8576 39.5385 63.8423C39.623 63.8231 39.7037 63.7962 39.7805 63.7616L39.8611 64.1879C39.7766 64.2378 39.6749 64.2743 39.5558 64.2973C39.4406 64.3203 39.3254 64.3319 39.2102 64.3319Z" fill="#5B71F9"/>
</svg>
