<svg width="539" height="494" viewBox="0 0 539 494" fill="none" xmlns="http://www.w3.org/2000/svg">
<path d="M459.485 215.86L389.805 121.74L422.565 98.8598L491.205 192.2L459.485 215.86ZM405.405 189.6C391.712 189.6 379.059 187.26 367.445 182.58C356.005 177.9 346.039 171.4 337.545 163.08C329.225 154.587 322.725 144.62 318.045 133.18C313.365 121.567 311.025 109 311.025 95.4798C311.025 81.7865 313.365 69.2198 318.045 57.7798C322.725 46.1665 329.225 36.1132 337.545 27.6198C346.039 19.1265 356.005 12.5398 367.445 7.85985C379.059 3.17985 391.712 0.839844 405.405 0.839844C418.925 0.839844 431.405 3.17985 442.845 7.85985C454.285 12.5398 464.165 19.1265 472.485 27.6198C480.979 36.1132 487.565 46.1665 492.245 57.7798C496.925 69.2198 499.265 81.7865 499.265 95.4798C499.265 109 496.925 121.48 492.245 132.92C487.565 144.36 480.979 154.327 472.485 162.82C464.165 171.313 454.285 177.9 442.845 182.58C431.405 187.26 418.925 189.6 405.405 189.6ZM405.405 147.74C412.512 147.74 419.012 146.44 424.905 143.84C430.799 141.24 435.912 137.6 440.245 132.92C444.752 128.24 448.219 122.693 450.645 116.28C453.072 109.867 454.285 102.933 454.285 95.4798C454.285 87.8532 453.072 80.8332 450.645 74.4198C448.219 68.0065 444.752 62.4598 440.245 57.7798C435.912 52.9265 430.799 49.1998 424.905 46.5998C419.012 43.9998 412.512 42.6998 405.405 42.6998C398.299 42.6998 391.712 43.9998 385.645 46.5998C379.752 49.1998 374.552 52.9265 370.045 57.7798C365.712 62.4598 362.332 68.0065 359.905 74.4198C357.479 80.8332 356.265 87.8532 356.265 95.4798C356.265 105.533 358.345 114.547 362.505 122.52C366.839 130.32 372.645 136.473 379.925 140.98C387.379 145.487 395.872 147.74 405.405 147.74Z" fill="#D8EEFF"/>
<path d="M131.434 187L203.454 5H241.154L312.654 187H267.934L233.354 94.7C232.141 91.06 230.754 87.16 229.194 83C227.808 78.84 226.421 74.5067 225.034 70C223.648 65.4934 222.348 61.16 221.134 57C219.921 52.84 218.881 48.94 218.014 45.3L225.554 45.04C224.514 49.3733 223.388 53.62 222.174 57.78C220.961 61.94 219.661 66.1 218.274 70.26C216.888 74.42 215.414 78.58 213.854 82.74C212.468 86.7267 210.994 90.8867 209.434 95.22L175.114 187H131.434ZM165.754 152.16L179.794 118.36H262.994L277.034 152.16H165.754Z" fill="#D8EEFF"/>
<path d="M16.62 187V5H61.08V187H16.62ZM37.42 117.32V80.14H132.06V117.32H37.42ZM37.42 44.26V5H142.46V44.26H37.42Z" fill="#D8EEFF"/>
<path d="M62.9737 287.807H212.928V491.728H5.47658V345.174C5.48096 329.958 11.5406 315.366 22.3229 304.608C33.1053 293.85 47.7274 287.807 62.9737 287.807Z" fill="#1150CB"/>
<path d="M229.463 490.763C229.463 490.763 226.569 383.443 227.127 358.78C227.76 330.689 210.393 303.443 204.321 298.476C198.992 294.119 159.262 297.807 149.548 298.785C152.442 308.303 158.684 321.835 171.606 340.012C174.246 343.087 176.664 346.343 178.844 349.757C189.592 366.549 197.678 391.426 196.483 428.198C200.559 468.15 197.169 490.309 197.169 490.309L229.463 490.763Z" fill="white"/>
<path d="M350.914 323.428L324.987 237.804C321.163 229.479 317.744 233.043 316.306 230.44C312.978 224.359 311.655 221.69 311.655 221.69C299.518 231.95 275.278 227.466 275.278 227.466C275.278 227.466 275.071 229.681 274.902 236.455C274.732 243.23 267.171 242.231 268.06 251.233L279.428 312.012L247.842 305.291C243.377 280.913 222.472 240.057 146.014 260.499C101.802 276.123 99.934 300.683 112.261 321.744C106.416 322.664 92.2699 330.615 62.3329 372.803C19.2628 433.541 21.3297 490.21 105.163 491.654C119.251 491.898 269.974 491.436 269.974 491.436L265.303 399.31C364.076 408.68 361.265 366.586 350.914 323.428ZM197.174 490.21C197.174 490.21 200.559 468.052 196.487 428.099C196.799 419.352 196.523 410.595 195.661 401.885C195.661 401.794 195.661 401.703 195.632 401.612C195.557 400.866 195.47 400.127 195.384 399.397C195.384 399.257 195.355 399.112 195.338 398.984C195.251 398.287 195.165 397.598 195.069 396.922C195.049 396.752 195.028 396.579 195.003 396.41C194.912 395.746 194.817 395.094 194.718 394.442C194.689 394.252 194.664 394.067 194.635 393.877C194.536 393.242 194.433 392.614 194.329 391.987L194.23 391.406C194.127 390.791 194.015 390.168 193.904 389.574C193.867 389.376 193.833 389.161 193.796 388.984C193.68 388.386 193.565 387.792 193.445 387.206C193.408 387.008 193.366 386.793 193.325 386.616C193.205 386.03 193.081 385.452 192.953 384.879C192.912 384.685 192.87 384.495 192.825 384.301C192.697 383.732 192.564 383.167 192.432 382.602L192.296 382.04C192.159 381.479 192.019 380.922 191.882 380.39L191.742 379.854C191.597 379.301 191.448 378.752 191.299 378.204C191.25 378.03 191.204 377.861 191.155 377.692C191.002 377.148 190.845 376.603 190.683 376.067C190.638 375.906 190.593 375.749 190.543 375.592L190.047 373.975C189.997 373.83 189.952 373.69 189.906 373.562C189.733 373.018 189.555 372.481 189.377 371.949C189.336 371.821 189.29 371.698 189.249 371.574C189.063 371.029 188.877 370.489 188.683 369.952L188.571 369.643C188.373 369.09 188.158 368.541 187.968 367.993L187.881 367.766C187.662 367.201 187.447 366.64 187.223 366.087C187.223 366.05 187.195 366.012 187.178 365.971C184.918 360.301 182.131 354.855 178.853 349.704C178.58 349.291 178.303 348.854 178.026 348.437L177.964 348.346C177.707 347.955 177.443 347.571 177.182 347.191L177.058 347.01C176.802 346.643 176.546 346.275 176.285 345.916L176.149 345.727C175.889 345.364 175.624 345.001 175.359 344.646L175.248 344.497C174.975 344.126 174.698 343.763 174.421 343.404L174.367 343.334C173.461 342.165 172.544 341.041 171.618 339.963C158.696 321.79 152.462 308.254 149.56 298.736C159.287 297.758 199.005 294.07 204.333 298.422C206.814 300.485 211.257 306.306 215.544 314.421C215.734 314.776 215.92 315.135 216.106 315.498V315.535C216.863 317.012 217.615 318.555 218.347 320.16V320.193C218.516 320.565 218.686 320.944 218.855 321.328L218.921 321.476C219.079 321.827 219.232 322.182 219.38 322.537L219.455 322.71C219.616 323.085 219.773 323.465 219.93 323.844C219.943 323.871 219.954 323.899 219.963 323.927C220.31 324.752 220.654 325.627 220.984 326.497C221.141 326.91 221.29 327.322 221.443 327.735L221.534 327.987C221.658 328.329 221.782 328.667 221.902 329.01L222.014 329.327C222.129 329.657 222.245 329.992 222.357 330.33C222.394 330.433 222.431 330.536 222.464 330.643C222.588 331.006 222.708 331.374 222.824 331.741C222.849 331.811 222.873 331.881 222.894 331.951C223.179 332.838 223.452 333.738 223.721 334.641L223.808 334.946C223.907 335.289 224.002 335.635 224.097 335.978L224.209 336.39L224.457 337.331L224.572 337.781C224.651 338.098 224.73 338.412 224.804 338.73C224.841 338.874 224.874 339.014 224.907 339.142C224.994 339.505 225.077 339.872 225.159 340.236C225.18 340.33 225.205 340.425 225.226 340.52C225.325 340.982 225.424 341.453 225.519 341.919C225.519 341.989 225.548 342.063 225.56 342.133C225.639 342.525 225.717 342.913 225.788 343.305C225.817 343.458 225.841 343.61 225.87 343.759C225.928 344.076 225.982 344.39 226.036 344.708L226.123 345.219C226.172 345.525 226.218 345.826 226.263 346.131C226.292 346.304 226.317 346.478 226.342 346.651C226.387 346.969 226.428 347.282 226.47 347.6C226.47 347.757 226.515 347.917 226.536 348.074C226.581 348.466 226.631 348.854 226.672 349.246C226.672 349.328 226.672 349.415 226.701 349.498C226.751 349.972 226.796 350.446 226.842 350.921C226.842 351.053 226.842 351.185 226.871 351.333C226.9 351.68 226.929 352.022 226.953 352.369C226.953 352.542 226.974 352.72 226.987 352.893L227.036 353.813L227.061 354.37C227.061 354.671 227.086 354.976 227.094 355.278V380.795C227.094 381.855 227.119 382.932 227.131 384.033V388.13C227.131 388.708 227.131 389.293 227.156 389.883V392.012C227.156 392.586 227.156 393.163 227.181 393.749V394.075L227.206 395.622V395.981C227.206 396.583 227.206 397.19 227.235 397.796V398.069C227.235 398.621 227.235 399.178 227.264 399.719V400.053C227.264 400.655 227.264 401.266 227.292 401.872V402.244C227.292 402.817 227.292 403.391 227.321 403.968V404.17C227.321 404.806 227.346 405.445 227.354 406.085V406.46C227.354 407.013 227.354 407.57 227.388 408.11V408.416L227.425 410.375V410.606C228.136 448.236 229.277 490.644 229.277 490.644L197.174 490.21Z" fill="#FF7A00"/>
<path d="M262.603 308.431C257.618 306.368 252.161 305.646 247.809 304.945C248.629 309.089 248.989 313.31 248.883 317.532C247.945 339.27 238.23 347.703 236.201 355.707C262.388 346.053 264.431 320.565 262.603 308.431Z" fill="#11181C"/>
<path d="M111.988 321.245C105.217 324.232 95.8664 328.316 87.9667 340.322C99.037 335.784 137.13 369.779 164.132 362.068C151.59 360.723 124.307 342.736 111.988 321.245Z" fill="#11181C"/>
<path d="M172.863 363.904C172.863 363.904 186.579 392.396 188.459 411.761M233.266 358.594C233.266 358.594 231.612 386.525 236.891 405.243" stroke="#11181C" stroke-width="3.90797" stroke-linecap="round" stroke-linejoin="round"/>
<path d="M279.457 312.016C281.168 313.778 281.83 338.16 297.29 337.871" stroke="#11181C" stroke-width="2.93098" stroke-linecap="round" stroke-linejoin="round"/>
<path d="M254.803 416.68L224.543 422.86L222.692 392.326" fill="white"/>
<path d="M254.803 416.68L224.543 422.86L222.692 392.326" stroke="#11181C" stroke-width="2.93098" stroke-linecap="round" stroke-linejoin="round"/>
<path d="M244.791 414.101C244.377 418.321 241.897 427.196 245.134 433.025C246.721 435.868 247.474 441.664 247.474 441.664L266.547 446.466C268.159 452.655 271.723 464.561 274.401 464.396C278.204 464.161 276.171 440.394 275.641 433.099C275.381 429.358 272.748 417.319 270.598 411.234C267.791 403.271 254.997 379.025 228.979 387.87L210.183 392.462" fill="white"/>
<path d="M244.791 414.101C244.377 418.321 241.897 427.196 245.134 433.025C246.721 435.868 247.474 441.664 247.474 441.664L266.547 446.466C268.159 452.655 271.723 464.561 274.401 464.396C278.204 464.161 276.171 440.394 275.641 433.099C275.381 429.358 272.748 417.319 270.598 411.234C267.791 403.271 254.997 379.025 228.979 387.87L210.183 392.462" stroke="#11181C" stroke-width="2.93098" stroke-linecap="round" stroke-linejoin="round"/>
<path d="M269.974 432.637C269.974 432.637 267.944 449.874 262.174 451.203C256.403 452.531 256.035 447.671 256.035 447.671" fill="white"/>
<path d="M269.974 432.637C269.974 432.637 267.944 449.874 262.174 451.203C256.403 452.531 256.035 447.671 256.035 447.671" stroke="#11181C" stroke-width="2.93098" stroke-linecap="round" stroke-linejoin="round"/>
<path d="M263.05 432.048C263.05 432.048 259.933 447.242 254.075 448.138C248.218 449.033 248.218 444.189 248.218 444.189" fill="white"/>
<path d="M263.05 432.048C263.05 432.048 259.933 447.242 254.075 448.138C248.218 449.033 248.218 444.189 248.218 444.189" stroke="#11181C" stroke-width="2.93098" stroke-linecap="round" stroke-linejoin="round"/>
<path d="M254.505 431.111C254.505 431.111 250.458 449.326 243.96 442.419C237.462 435.513 238.148 431.994 238.148 431.994C238.148 431.994 241.273 426.989 246.283 434.981" fill="white"/>
<path d="M254.505 431.111C254.505 431.111 250.458 449.326 243.96 442.419C237.462 435.513 238.148 431.994 238.148 431.994C238.148 431.994 241.273 426.989 246.283 434.981" stroke="#11181C" stroke-width="2.93098" stroke-linecap="round" stroke-linejoin="round"/>
<path d="M132.066 395.985C152.21 391.971 192.42 383.534 195.727 383.67C204.896 384.046 215.156 385.832 218.086 386.146C224.99 386.913 227.966 387.123 227.966 387.123C223.047 402.219 236.395 422.917 236.395 422.917C236.395 422.917 234.419 423.945 228.202 426.668C221.985 429.391 225.379 441.384 216.71 443.971C213.221 445.01 146.667 479.451 129.487 482.949" fill="#FF7A00"/>
<path d="M223.613 432.571C209 420.739 204.044 390.94 210.22 384.417C210.468 382.354 215.213 385.84 218.074 386.158C224.978 386.925 227.954 387.136 227.954 387.136C225.155 395.725 228.272 406.114 231.476 413.503C232.85 416.768 234.441 419.938 236.238 422.992C235.688 423.268 233.468 424.361 228.189 426.672C225.147 428.021 224.502 430.298 223.613 432.571Z" fill="#11181C"/>
<path d="M108.003 387.825C114.456 385.692 131.83 382.738 137.13 394.95" stroke="#11181C" stroke-width="2.93098" stroke-linecap="round" stroke-linejoin="round"/>
<path d="M108.003 401.794C108.003 401.794 208.269 376.091 214.751 385.902L229.975 419.877C229.975 419.877 223.899 430.872 223.361 435.472C222.824 440.072 221.753 441.998 210.98 447.527C200.208 453.055 142.88 483.873 102.538 490.21" stroke="#11181C" stroke-width="2.93098" stroke-linecap="round" stroke-linejoin="round"/>
<path d="M214.445 300.691L169.266 302.704L165.682 284.882L151.66 269.287C151.66 269.287 151.04 287.105 150.581 301.817C152.979 308.662 158.531 318.097 165.108 328.679C175.517 334.166 188.526 341.056 205.9 353.074C210.505 345.442 214.734 318.184 214.445 300.691Z" fill="white" stroke="#11181C" stroke-width="2.93098" stroke-linecap="round" stroke-linejoin="round"/>
<path d="M146.791 248.572C146.791 248.572 130.904 248.882 133.749 263.074C136.593 277.266 154.149 269.06 154.149 269.06L151.801 248.882L146.791 248.572Z" fill="white" stroke="#11181C" stroke-width="2.93098" stroke-linecap="round" stroke-linejoin="round"/>
<path d="M192.056 203.838C196.243 203.492 224.94 201.689 228.078 225.58C231.215 249.472 227.83 275.843 225.184 287.877C222.539 299.912 167.604 294.346 164.496 293.269C161.387 292.193 157.683 288.562 157.683 288.562L150.127 251.885C150.127 251.885 147.072 207.568 192.056 203.838Z" fill="white" stroke="#11181C" stroke-width="2.93098" stroke-linecap="round" stroke-linejoin="round"/>
<path d="M155.368 251.576C158.022 254.208 165.141 269.382 166.877 276.457C166.877 276.457 184.491 270.512 209.728 270.149C209.728 270.149 223.485 270.426 228.971 272.059C228.971 272.059 227.784 297.114 216.627 310.089C205.47 323.065 181.903 319.434 170.821 311.632C159.738 303.831 157.931 300.11 155.368 291.763C152.805 283.417 146.043 252.302 146.043 252.302L155.368 251.576Z" fill="#C4D7FF"/>
<path d="M201.799 291.813C201.799 291.813 208.558 290.472 211.307 293.154L201.799 291.813Z" fill="white"/>
<path d="M201.799 291.813C201.799 291.813 208.558 290.472 211.307 293.154" stroke="#11181C" stroke-width="2.93098" stroke-linecap="round" stroke-linejoin="round"/>
<path d="M148.18 256.931C148.18 256.931 140.714 245.379 137.845 233.415C135.138 222.148 140.387 210.336 150.838 205.29C159.585 201.066 166.071 204.379 166.071 204.379C166.071 204.379 156.786 188.606 170.713 174.674C173.15 172.236 176.061 170.32 179.265 169.043C182.47 167.766 185.903 167.155 189.352 167.248C206.359 167.747 211.613 182.1 211.613 182.1C211.613 182.1 229.802 148.716 267.146 168.486C270.912 170.478 275.154 176.036 277.183 179.773C289.515 202.464 248.883 229.306 227.731 231.43C204.507 233.761 190.907 229.92 183.429 224.252C188.984 227.594 182.722 262.269 148.18 256.931Z" fill="#11181C"/>
<path d="M210.414 260.504L212.927 282.332L205.214 280.364" stroke="#11181C" stroke-width="2.93098" stroke-linecap="round" stroke-linejoin="round"/>
<path d="M218.487 266.407C219.725 266.407 220.728 264.858 220.728 262.946C220.728 261.034 219.725 259.485 218.487 259.485C217.25 259.485 216.247 261.034 216.247 262.946C216.247 264.858 217.25 266.407 218.487 266.407Z" fill="#11181C"/>
<path d="M196.913 266.028C198.151 266.028 199.154 264.478 199.154 262.566C199.154 260.655 198.151 259.105 196.913 259.105C195.676 259.105 194.673 260.655 194.673 262.566C194.673 264.478 195.676 266.028 196.913 266.028Z" fill="#11181C"/>
<path d="M187.195 244.509C188.326 243.062 189.825 241.946 191.536 241.274C193.246 240.603 195.106 240.402 196.921 240.692" stroke="#11181C" stroke-width="2.93098" stroke-linecap="round" stroke-linejoin="round"/>
<path d="M217.508 240.313C217.508 240.313 223.708 238.704 225.275 243.774" stroke="#11181C" stroke-width="2.93098" stroke-linecap="round" stroke-linejoin="round"/>
<path d="M272.591 212.502L279.573 240.552L310.266 231.492" fill="white"/>
<path d="M272.591 212.502L279.573 240.552L310.266 231.492" stroke="#11181C" stroke-width="2.93098" stroke-linecap="round" stroke-linejoin="round"/>
<path d="M282.429 214.672C278.969 216.949 265.985 223.08 259.466 222.923C256.287 222.841 250.93 224.817 250.93 224.817L238.144 210.538C232.046 211.949 220.133 214.251 219.058 211.858C217.541 208.471 239.037 199.482 245.585 196.594C248.941 195.129 260.557 191.948 266.816 191.041C274.98 189.865 304.661 189.114 308.774 215.555L313.168 231.905L283.975 240.544" fill="white"/>
<path d="M282.429 214.672C278.969 216.949 265.985 223.08 259.466 222.923C256.287 222.841 250.93 224.817 250.93 224.817L238.144 210.538C232.046 211.949 220.133 214.251 219.058 211.858C217.541 208.471 239.037 199.482 245.585 196.594C248.941 195.129 260.557 191.948 266.816 191.041C274.98 189.865 304.661 189.114 308.774 215.555L313.168 231.905L283.975 240.544" stroke="#11181C" stroke-width="2.93098" stroke-linecap="round" stroke-linejoin="round"/>
<path d="M248.565 201.313C248.565 201.313 234.56 210.864 236.011 216.454C237.462 222.045 241.843 220.167 241.843 220.167" fill="white"/>
<path d="M248.565 201.313C248.565 201.313 234.56 210.864 236.011 216.454C237.462 222.045 241.843 220.167 241.843 220.167" stroke="#11181C" stroke-width="2.93098" stroke-linecap="round" stroke-linejoin="round"/>
<path d="M252.207 207.019C252.207 207.019 240.463 216.582 242.327 222.04C244.191 227.498 248.42 225.295 248.42 225.295" fill="white"/>
<path d="M252.207 207.019C252.207 207.019 240.463 216.582 242.327 222.04C244.191 227.498 248.42 225.295 248.42 225.295" stroke="#11181C" stroke-width="2.93098" stroke-linecap="round" stroke-linejoin="round"/>
<path d="M256.886 213.979C256.886 213.979 242.947 225.708 251.864 228.188C260.78 230.667 263.521 228.489 263.521 228.489C263.521 228.489 266.44 223.538 257.254 222.82" fill="white"/>
<path d="M256.886 213.979C256.886 213.979 242.947 225.708 251.864 228.188C260.78 230.667 263.521 228.489 263.521 228.489C263.521 228.489 266.44 223.538 257.254 222.82" stroke="#11181C" stroke-width="2.93098" stroke-linecap="round" stroke-linejoin="round"/>
<path d="M271.206 242.928C277.072 250.689 316.814 244.843 323.354 234.817C320.22 230.527 317.724 232.973 316.326 230.44C312.999 224.359 311.676 221.69 311.676 221.69C304.772 227.527 293.946 228.592 285.893 228.427C282.342 228.396 278.797 228.13 275.282 227.631C275.232 228.245 275.063 230.708 274.918 236.459C274.848 239.789 272.979 241.245 271.206 242.928Z" fill="#11181C"/>
<path d="M488.094 376.083H327.368C326.343 376.083 325.349 376.427 324.545 377.062C323.742 377.696 323.176 378.582 322.94 379.577L300.597 473.98H242.335C242.335 473.98 239.107 490.623 257.936 490.623H463.13C464.155 490.623 465.149 490.278 465.953 489.644C466.757 489.01 467.322 488.123 467.558 487.128L492.518 381.665C492.675 380.999 492.68 380.306 492.531 379.637C492.383 378.969 492.084 378.343 491.659 377.806C491.233 377.269 490.692 376.835 490.074 376.537C489.457 376.239 488.78 376.083 488.094 376.083Z" fill="#1150CB"/>
<path d="M474.837 416.593C472.437 416.593 470.063 416.096 467.865 415.134C465.666 414.172 463.692 412.766 462.066 411.004C460.44 409.242 459.197 407.162 458.417 404.897C457.637 402.631 457.336 400.229 457.533 397.842C458.153 390.366 458.236 385.762 459.009 382.292C460.067 377.523 469.343 370.959 480.091 363.021C485.744 358.879 489.675 355.022 491.885 351.449C494.095 347.876 495.198 343.445 495.192 338.156C495.192 331.629 493.116 326.493 488.962 322.747C484.809 319.001 479.78 317.125 473.874 317.12C462.142 317.12 454.265 323.32 450.241 335.722C448.917 339.713 446.226 343.111 442.641 345.318C439.056 347.526 434.807 348.402 430.639 347.794C427.969 347.41 425.421 346.427 423.186 344.919C420.952 343.411 419.089 341.417 417.739 339.086C416.388 336.756 415.585 334.15 415.389 331.465C415.193 328.78 415.61 326.085 416.608 323.584C420.447 313.892 425.951 305.961 433.119 299.792C444.999 289.566 459.512 284.451 476.656 284.449C494.15 284.449 508.817 289.475 520.656 299.528C532.496 309.581 538.421 322.323 538.432 337.756C538.432 356.891 528.581 372.895 508.879 385.77C500.306 391.414 495.115 395.823 493.307 398.997C492.609 400.295 492.094 401.683 491.778 403.122C490.885 406.938 488.728 410.341 485.657 412.782C482.586 415.222 478.78 416.558 474.854 416.572L474.837 416.593ZM477.185 468.311H475.598C470.29 468.311 465.2 466.207 461.446 462.462C457.692 458.717 455.583 453.637 455.582 448.339C455.582 445.716 456.1 443.118 457.106 440.695C458.111 438.271 459.586 436.069 461.445 434.214C463.303 432.359 465.51 430.888 467.938 429.884C470.367 428.88 472.969 428.363 475.598 428.363H477.185C479.814 428.363 482.416 428.88 484.844 429.884C487.273 430.888 489.479 432.359 491.337 434.214C493.195 436.069 494.669 438.271 495.675 440.695C496.68 443.119 497.198 445.716 497.197 448.339C497.197 453.636 495.089 458.716 491.336 462.462C487.583 466.207 482.493 468.311 477.185 468.311ZM66.5742 247.66C66.0407 247.891 65.4652 248.008 64.884 248.005C64.3027 248.003 63.7284 247.88 63.1971 247.645C62.6658 247.409 62.1891 247.067 61.797 246.638C61.405 246.21 61.1061 245.706 60.9192 245.156C60.4685 243.979 60.078 242.78 59.7493 241.563C59.5261 240.404 60.9481 238.056 62.5768 235.259C63.3025 234.124 63.8126 232.865 64.0815 231.546C64.208 230.426 64.019 229.293 63.5359 228.274C63.2912 227.624 62.9074 227.034 62.4112 226.547C61.915 226.06 61.3184 225.686 60.6629 225.452C59.387 225.018 57.9926 225.09 56.7688 225.654C54.1618 226.782 53.0098 228.916 53.313 232.057C53.4028 233.07 53.1328 234.083 52.5501 234.917C51.9674 235.751 51.1092 236.354 50.1258 236.62C49.4956 236.792 48.8347 236.818 48.1928 236.697C47.551 236.577 46.9448 236.313 46.42 235.925C45.8951 235.537 45.4653 235.035 45.1628 234.457C44.8602 233.88 44.6929 233.241 44.6733 232.59C44.5603 230.222 45.0316 227.863 46.0457 225.72C47.6992 222.31 50.4289 219.781 54.2348 218.133C58.1206 216.45 61.863 216.157 65.4622 217.255C67.166 217.733 68.7382 218.593 70.0597 219.768C71.3812 220.943 72.4172 222.403 73.0891 224.037C74.9383 228.287 74.2948 232.788 71.1586 237.54C69.7972 239.617 69.0683 241.094 68.9718 241.971C68.9439 242.329 68.9648 242.688 69.0338 243.04C69.2039 243.973 69.0535 244.936 68.6072 245.773C68.1608 246.61 67.4445 247.272 66.5742 247.652V247.66ZM72.0804 258.919L71.7291 259.072C71.1455 259.325 70.5178 259.46 69.8818 259.471C69.2457 259.481 68.6138 259.367 68.0222 259.133C67.4305 258.9 66.8908 258.553 66.4338 258.111C65.9768 257.669 65.6116 257.142 65.3589 256.559C64.8465 255.385 64.8225 254.055 65.2923 252.863C65.7621 251.671 66.6871 250.714 67.864 250.202L68.2153 250.049C68.7989 249.796 69.4266 249.661 70.0627 249.65C70.6987 249.64 71.3306 249.754 71.9222 249.988C72.5139 250.221 73.0536 250.569 73.5106 251.01C73.9676 251.452 74.3328 251.979 74.5855 252.562C75.0979 253.736 75.1219 255.066 74.6521 256.258C74.1823 257.451 73.2573 258.408 72.0804 258.919ZM88.5661 194.836C87.7737 194.794 86.9987 194.588 86.2901 194.231C85.5816 193.875 84.9549 193.375 84.4498 192.764C83.9447 192.154 83.5721 191.445 83.3556 190.683C83.1391 189.921 83.0834 189.123 83.1921 188.338C83.5352 185.883 83.6468 184.369 83.9651 183.239C84.3785 181.688 87.5698 179.691 91.2696 177.273C93.1987 176.011 94.5656 174.81 95.3703 173.671C96.2096 172.384 96.672 170.888 96.7055 169.352C96.824 167.198 96.2329 165.467 94.9321 164.158C93.64 162.85 91.8936 162.088 90.0542 162.029C86.196 161.814 83.487 163.715 81.9272 167.731C81.4169 169.022 80.4673 170.093 79.245 170.755C78.0228 171.417 76.6058 171.629 75.2428 171.353C74.3677 171.179 73.5437 170.808 72.8332 170.269C72.1227 169.73 71.5443 169.037 71.1417 168.242C70.7391 167.447 70.5229 166.571 70.5093 165.681C70.4958 164.79 70.6853 163.908 71.0635 163.102C72.3815 160.149 74.4057 157.565 76.9583 155.576C81.0591 152.43 85.9342 151.008 91.5837 151.311C97.349 151.63 102.092 153.555 105.812 157.086C109.533 160.618 111.251 164.927 110.967 170.012C110.617 176.319 107.076 181.413 100.343 185.293C97.4165 187.001 95.6252 188.36 94.9693 189.369C94.7166 189.788 94.522 190.239 94.3906 190.71C94.026 191.951 93.2528 193.034 92.196 193.782C91.1392 194.531 89.8603 194.902 88.5661 194.836ZM88.3966 211.916H87.8716C86.1224 211.818 84.4837 211.032 83.315 209.729C82.1462 208.426 81.5431 206.714 81.6378 204.968C81.6822 204.101 81.8977 203.251 82.2718 202.467C82.6459 201.683 83.1714 200.981 83.818 200.4C84.4647 199.819 85.2199 199.371 86.0403 199.081C86.8607 198.792 87.7303 198.667 88.5991 198.714L89.1241 198.743C89.9936 198.791 90.8449 199.011 91.6292 199.388C92.4135 199.766 93.1153 200.294 93.6945 200.943C94.2737 201.592 94.7188 202.349 95.0042 203.17C95.2897 203.991 95.4099 204.86 95.3579 205.728C95.2513 207.467 94.4596 209.095 93.1554 210.254C91.8512 211.413 90.1405 212.011 88.3966 211.916Z" fill="#FF7A00"/>
<path d="M2.00313 491.803H492.183" stroke="#11181C" stroke-width="2.93098" stroke-linecap="round" stroke-linejoin="round"/>
</svg>
