<svg width="135" height="30" viewBox="0 0 135 30" fill="none" xmlns="http://www.w3.org/2000/svg">
<path d="M48.9262 9.41248C42.4657 9.41248 37.9275 13.3815 37.9275 19.5781C37.9275 25.7748 42.3866 29.8946 48.8508 29.8946C53.5171 29.8946 57.3241 27.9421 58.6019 24.6892C58.7413 24.3387 58.5265 23.9467 58.1533 23.8788L53.1666 22.9818C52.9216 22.9365 52.6804 23.0534 52.5485 23.2645C51.8964 24.3161 50.7618 25.0247 49.2315 25.0247C47.4034 25.0247 46.0804 24.0371 45.4623 22.4013C45.3153 22.0093 45.598 21.5871 46.0201 21.5871H58.9411C59.2539 21.5871 59.514 21.3459 59.5366 21.0331C59.5706 20.5883 59.5856 20.0342 59.5856 19.6573C59.5856 13.4192 55.3528 9.41624 48.9262 9.41624V9.41248ZM51.723 17.8028H45.907C45.5113 17.8028 45.2173 17.4221 45.3341 17.0414C45.858 15.334 47.0604 14.2899 48.783 14.2899C50.5055 14.2899 51.8436 15.4697 52.2997 17.0339C52.4128 17.4184 52.1263 17.8066 51.7268 17.8066L51.723 17.8028Z" fill="white"/>
<path d="M99.745 9.90222H96.2584C95.2696 9.90222 94.468 10.7038 94.468 11.6926V28.1039C94.468 29.0927 95.2696 29.8943 96.2584 29.8943H99.745C100.734 29.8943 101.535 29.0927 101.535 28.1039V11.6926C101.535 10.7038 100.734 9.90222 99.745 9.90222Z" fill="white"/>
<path d="M97.9847 0.0380859C95.6779 0.0380859 93.978 1.62494 93.978 3.89402C93.978 6.16311 95.6779 7.78765 97.9847 7.78765C100.291 7.78765 102.029 6.16311 102.029 3.89402C102.029 1.62494 100.367 0.0380859 97.9847 0.0380859Z" fill="#FF592C"/>
<path d="M118.316 19.6382C118.161 19.4233 118.165 19.1331 118.327 18.922L123.819 11.8283C124.426 11.0443 123.868 9.9022 122.873 9.9022H117.611C117.223 9.9022 116.861 10.0907 116.638 10.4073L112.006 16.9432C111.961 17.0072 111.885 17.0449 111.806 17.0449H111.799C111.663 17.0449 111.554 16.9356 111.554 16.7999V1.82848C111.554 0.840935 110.751 0.0380859 109.763 0.0380859H106.277C105.289 0.0380859 104.486 0.840935 104.486 1.82848V28.1039C104.486 29.0914 105.289 29.8943 106.277 29.8943H109.763C110.751 29.8943 111.554 29.0914 111.554 28.1039V21.8281C111.554 21.6924 111.663 21.5831 111.799 21.5831C111.882 21.5831 111.961 21.6246 112.006 21.6962L117.004 29.3553C117.223 29.6945 117.6 29.8981 118.003 29.8981H123.438C124.414 29.8981 124.98 28.7899 124.403 28.0021L118.319 19.6419L118.316 19.6382Z" fill="white"/>
<path d="M131.325 22.0053C129.018 21.847 127.096 23.6713 127.096 25.9442C127.096 28.217 128.864 29.8943 131.046 29.8943C133.319 29.8943 135.143 27.972 134.985 25.6652C134.849 23.7165 133.274 22.141 131.325 22.0053Z" fill="white"/>
<path d="M128.287 0.0380859H133.798C134.457 0.0380859 134.992 0.573319 134.992 1.23294V18.8353C134.992 19.4949 134.457 20.0302 133.798 20.0302H128.287C127.627 20.0302 127.092 19.4949 127.092 18.8353V1.23294C127.092 0.573319 127.627 0.0380859 128.287 0.0380859Z" fill="white"/>
<path d="M74.0444 9.90227H71.176C70.6823 9.90227 70.279 9.50273 70.279 9.00519V5.00979C70.279 4.35017 69.7437 3.81494 69.0841 3.81494H65.2282C64.2406 3.81494 63.4378 4.61779 63.4378 5.60533V9.00519C63.4378 9.49896 63.0382 9.90227 62.5407 9.90227H61.2742C60.9425 9.90227 60.6787 10.1699 60.6787 10.4978V14.3311C60.6787 14.6628 60.9463 14.9267 61.2742 14.9267H62.2768C62.7706 14.9267 63.1739 15.3262 63.1739 15.8238V22.3747C63.1739 26.8714 65.933 29.8944 70.2036 29.8944C70.23 29.8944 70.2526 29.8944 70.279 29.8944H74.64C75.2996 29.8944 75.8348 29.3591 75.8348 28.6995V26.061C75.8348 25.4014 75.2996 24.8662 74.64 24.8662H72.94C71.47 24.8662 70.279 23.6751 70.279 22.2051V15.82C70.279 15.3262 70.6785 14.9229 71.176 14.9229H74.0444C75.032 14.9229 75.8348 14.1201 75.8348 13.1325V11.6889C75.8348 10.7014 75.032 9.8985 74.0444 9.8985V9.90227Z" fill="white"/>
<path d="M91.0513 9.89495H87.8323C87.3386 9.89495 86.9352 9.49541 86.9352 8.99787V5.59801C86.9352 4.61047 86.1324 3.80762 85.1449 3.80762H81.8882C80.9007 3.80762 80.0978 4.61047 80.0978 5.59801V8.99787C80.0978 9.49164 79.6983 9.89495 79.2008 9.89495H78.9369C78.6052 9.89495 78.3414 10.1626 78.3414 10.4905V14.3238C78.3414 14.6555 78.609 14.9194 78.9369 14.9194C79.4307 14.9194 79.834 15.3189 79.834 15.8164V22.3674C79.834 26.8641 82.5931 29.887 86.8636 29.887C86.89 29.887 86.9126 29.887 86.939 29.887H91.055C91.7147 29.887 92.2499 29.3518 92.2499 28.6922V26.0537C92.2499 25.3941 91.7147 24.8589 91.055 24.8589H89.6001C88.1301 24.8589 86.939 23.6678 86.939 22.1978V15.8127C86.939 15.3189 87.3386 14.9156 87.8361 14.9156H91.055C91.7147 14.9156 92.2499 14.3804 92.2499 13.7207V11.0823C92.2499 10.4226 91.7147 9.88741 91.055 9.88741L91.0513 9.89495Z" fill="white"/>
<path fill-rule="evenodd" clip-rule="evenodd" d="M31.1542 29.6193H20.6945C19.511 29.6193 18.3802 29.1293 17.5736 28.2662L14.9577 25.4694C14.7429 25.2432 14.4451 25.1113 14.1323 25.1113C13.3106 25.1113 12.764 25.9556 13.0957 26.7057L13.7252 28.1154C14.0418 28.8203 13.5216 29.6193 12.7489 29.6193H9.38677C4.58475 29.6193 0.694893 25.7295 0.694893 20.9275V9.33702C0.694893 4.53877 4.58475 0.645142 9.38677 0.645142H13.0693C13.8194 0.645142 14.3358 1.39522 14.0682 2.09253L13.0995 4.64054C13.0467 4.78377 13.0203 4.927 13.0203 5.07024C13.0203 5.6997 13.5292 6.26132 14.2114 6.26132C14.5431 6.26132 14.8597 6.12186 15.0821 5.88439L18.7194 1.9983C19.526 1.13514 20.6568 0.645142 21.8404 0.645142H30.9506C31.4557 0.645142 31.7196 1.25199 31.3728 1.62138L21.7876 11.8624C21.5124 12.1564 21.1317 12.3223 20.7284 12.3223H17.1137C16.1036 12.3223 15.1311 12.669 14.3471 13.3098L13.8986 13.6717C13.6083 13.9129 13.2842 14.1127 12.9412 14.2672L11.4335 14.9645C11.2337 15.055 11.0716 15.202 10.9548 15.3791C10.8379 15.5638 10.7776 15.7862 10.7814 16.0161C10.7927 16.5551 11.2149 16.9999 11.7426 17.1054L13.989 17.5577C14.1624 17.5917 14.332 17.6105 14.5092 17.6105H20.6267C21.0262 17.6105 21.4107 17.7764 21.6821 18.0666L31.5801 28.6431C31.9269 29.0125 31.663 29.6193 31.1579 29.6193H31.1542ZM34.8857 3.33249V11.6173C34.8857 12.0055 34.5691 12.3221 34.1809 12.3221H30.6981C30.1855 12.3221 29.8425 11.7907 30.0535 11.3233L33.7775 3.09126C34.0339 2.5221 34.8857 2.7068 34.8857 3.32872V3.33249ZM34.8857 26.4643V18.3152V18.3114C34.8857 17.9232 34.5691 17.6066 34.1808 17.6066H31.3388C30.845 17.6066 30.502 18.1003 30.6792 18.5639L33.7662 26.6716C33.9924 27.2709 34.8857 27.1088 34.8857 26.4643Z" fill="white"/>
</svg>
