<svg width="32" height="32" viewBox="0 0 32 32" fill="none" xmlns="http://www.w3.org/2000/svg">
<circle cx="16" cy="16" r="16" fill="#EDF3FF"/>
<path fill-rule="evenodd" clip-rule="evenodd" d="M16 7C11.0294 7 7 11.0294 7 16C7 18.2211 7.80461 20.2544 9.13826 21.8241C10.0547 20.7109 11.4437 20 13 20H19C20.5563 20 21.9453 20.7109 22.8617 21.8241C24.1954 20.2544 25 18.2211 25 16C25 11.0294 20.9706 7 16 7ZM23.3702 24.1659C25.5992 22.1528 27 19.24 27 16C27 9.92487 22.0751 5 16 5C9.92487 5 5 9.92487 5 16C5 19.24 6.40079 22.1528 8.62979 24.1659C8.64139 24.1769 8.65328 24.1875 8.66545 24.198C10.6117 25.9404 13.1821 27 16 27C18.8179 27 21.3883 25.9404 23.3345 24.198C23.3467 24.1875 23.3586 24.1769 23.3702 24.1659ZM21.4006 23.2002C20.8527 22.4706 19.9806 22 19 22H13C12.0194 22 11.1473 22.4706 10.5994 23.2002C12.1037 24.3303 13.9736 25 16 25C18.0264 25 19.8963 24.3303 21.4006 23.2002ZM16 10.5C14.3431 10.5 13 11.8431 13 13.5C13 15.1569 14.3431 16.5 16 16.5C17.6569 16.5 19 15.1569 19 13.5C19 11.8431 17.6569 10.5 16 10.5ZM11 13.5C11 10.7386 13.2386 8.5 16 8.5C18.7614 8.5 21 10.7386 21 13.5C21 16.2614 18.7614 18.5 16 18.5C13.2386 18.5 11 16.2614 11 13.5Z" fill="#1150CB"/>
</svg>
