<svg width="196" height="118" viewBox="0 0 196 118" fill="none" xmlns="http://www.w3.org/2000/svg">
<g clip-path="url(#clip0_2363_1307)">
<path d="M128.358 51.8466C128.206 52.316 127.976 52.7259 127.666 53.0763C127.354 53.4266 126.955 53.6981 126.47 53.8892C125.984 54.0803 125.407 54.1758 124.737 54.1758C124.227 54.1758 123.813 54.1523 123.495 54.1038C123.176 54.0553 122.97 54.0083 122.874 53.9612V49.7071C122.874 48.8 123.104 48.0425 123.567 47.4374C124.029 46.8322 124.721 46.5303 125.645 46.5303C126.569 46.5303 127.29 46.8682 127.808 47.5454C128.325 48.2225 128.585 49.1185 128.585 50.2333C128.585 50.7914 128.509 51.3757 128.358 51.8466ZM130.341 45.3823C129.823 44.8741 129.225 44.4864 128.549 44.2246C127.872 43.9615 127.152 43.83 126.386 43.83C125.828 43.83 125.338 43.8978 124.917 44.0335C124.494 44.1678 124.136 44.3285 123.842 44.5113C123.547 44.6941 123.32 44.8658 123.161 45.025C123.002 45.1843 122.906 45.2882 122.874 45.3352V39.6866L119.528 40.6532V56.422C119.624 56.4372 119.811 56.4649 120.091 56.505C120.369 56.5452 120.715 56.5812 121.129 56.6131C121.543 56.6449 122.013 56.6768 122.539 56.7086C123.065 56.7405 123.615 56.7557 124.188 56.7557C126.783 56.7557 128.74 56.1547 130.054 54.9527C131.368 53.7493 132.025 52.01 132.025 49.8746C132.025 48.9039 131.874 48.0398 131.571 47.2823C131.269 46.5262 130.859 45.8933 130.341 45.3823ZM113.21 50.8786C113.21 51.787 112.978 52.5431 112.517 53.1483C112.055 53.7534 111.362 54.0567 110.437 54.0567C109.515 54.0567 108.793 53.7188 108.276 53.0417C107.759 52.3645 107.499 51.4685 107.499 50.3538C107.499 49.7957 107.575 49.2099 107.727 48.7405C107.878 48.271 108.108 47.8611 108.42 47.5108C108.73 47.159 109.129 46.889 109.615 46.6979C110.101 46.5068 110.677 46.4112 111.347 46.4112C111.857 46.4112 112.271 46.4348 112.589 46.4832C112.908 46.5303 113.114 46.5788 113.21 46.6259V50.8786ZM114.931 44.3673C114.468 44.2316 113.903 44.1083 113.235 43.9961C112.564 43.8853 111.8 43.83 110.94 43.83C109.872 43.83 108.917 43.9934 108.073 44.3188C107.229 44.6456 106.507 45.104 105.91 45.6939C105.313 46.2824 104.855 46.9956 104.537 47.832C104.218 48.6685 104.059 49.7071 104.059 50.711C104.059 51.6984 104.21 52.5708 104.513 53.3269C104.815 54.0844 105.221 54.7173 105.732 55.2269C106.241 55.7365 106.838 56.1187 107.524 56.3735C108.208 56.6283 108.933 56.7557 109.698 56.7557C110.239 56.7557 110.721 56.6878 111.143 56.5521C111.566 56.4178 111.923 56.2627 112.219 56.0868C112.513 55.9124 112.744 55.7406 112.912 55.5731C113.078 55.4069 113.178 55.2989 113.21 55.2504V56.422L116.555 56.4206V45.0486C116.475 45.0001 116.3 44.9087 116.029 44.773C115.759 44.6387 115.392 44.503 114.931 44.3673ZM104.019 44.3022C103.682 44.1263 103.196 43.9754 102.498 43.8632C102.099 43.7995 101.677 43.769 101.231 43.769C100.498 43.769 99.8213 43.8369 99.2009 43.9712C98.5792 44.1069 98.0335 44.2579 97.5641 44.4254C97.0933 44.593 96.7152 44.7564 96.4286 44.9156C96.1419 45.0749 95.966 45.1788 95.9037 45.2258V56.422H99.248V47.0662C99.392 46.9859 99.6468 46.8793 100.014 46.7436C100.379 46.6079 100.897 46.54 101.566 46.54C101.789 46.54 102.025 46.5566 102.271 46.5885C102.518 46.6203 102.716 46.6466 102.963 46.7187C102.984 46.7256 103.002 46.7297 103.022 46.7367C103.368 45.8975 103.689 45.1123 103.985 44.3839C103.996 44.3562 104.008 44.3299 104.019 44.3022ZM149.266 50.8786C149.266 51.787 149.034 52.5431 148.573 53.1483C148.111 53.7535 147.418 54.0567 146.493 54.0567C145.571 54.0567 144.85 53.7188 144.332 53.0417C143.815 52.3645 143.555 51.4685 143.555 50.3538C143.555 49.7957 143.631 49.2099 143.782 48.7405C143.934 48.271 144.164 47.8611 144.476 47.5108C144.786 47.159 145.185 46.889 145.669 46.6979C146.155 46.5068 146.733 46.4112 147.403 46.4112C147.911 46.4112 148.327 46.4348 148.645 46.4832C148.964 46.5303 149.17 46.5788 149.266 46.6259V50.8786ZM152.085 44.773C151.815 44.6387 151.448 44.503 150.987 44.3673C150.524 44.2316 149.959 44.1083 149.289 43.9961C148.62 43.8854 147.856 43.83 146.996 43.83C145.928 43.83 144.973 43.9934 144.128 44.3188C143.283 44.6456 142.563 45.104 141.966 45.6939C141.368 46.2824 140.911 46.9956 140.593 47.832C140.274 48.6685 140.115 49.7071 140.115 50.711C140.115 51.6984 140.266 52.5708 140.568 53.3269C140.871 54.0844 141.277 54.7173 141.788 55.2269C142.297 55.7365 142.894 56.1187 143.58 56.3735C144.264 56.6283 144.989 56.7557 145.754 56.7557C146.295 56.7557 146.777 56.6878 147.2 56.5521C147.62 56.4178 147.979 56.2627 148.274 56.0868C148.569 55.9124 148.8 55.7406 148.968 55.5731C149.134 55.4069 149.234 55.2989 149.266 55.2504V56.422L152.611 56.4206V45.0486C152.531 45.0001 152.355 44.9087 152.085 44.773ZM136.116 39.4C135.605 39.4 135.167 39.5759 134.801 39.9262C134.434 40.2766 134.25 40.7058 134.25 41.2155C134.25 41.7251 134.434 42.1599 134.801 42.5186C135.167 42.8758 135.605 43.0559 136.116 43.0559C136.64 43.0559 137.086 42.8758 137.452 42.5186C137.819 42.1599 138.002 41.7251 138.002 41.2155C138.002 40.7058 137.819 40.2766 137.452 39.9262C137.086 39.5759 136.64 39.4 136.116 39.4ZM134.454 56.4206H137.799V43.83L134.454 44.7952V56.4206ZM82.6802 49.5852C82.9683 48.8097 83.2619 48.0273 83.5582 47.2435C83.8532 46.4583 84.126 45.7368 84.3739 45.079C84.6231 44.4199 84.8433 43.8549 85.0358 43.3827C85.2269 42.9104 85.364 42.5892 85.4443 42.4202C85.5246 42.5892 85.6603 42.9104 85.8528 43.3827C86.0453 43.8549 86.2655 44.4199 86.5134 45.079C86.7613 45.7368 87.0341 46.4583 87.3304 47.2435C87.6268 48.0273 87.9189 48.8097 88.207 49.5852H82.6802ZM91.9556 50.1668C91.5554 49.1213 91.1552 48.1131 90.755 47.141C90.3534 46.1703 89.9851 45.2729 89.6486 44.4462C89.3121 43.6181 89.0088 42.8966 88.736 42.2804C88.4646 41.6641 88.2471 41.1878 88.0865 40.8499C87.7348 40.0564 87.5811 39.7005 87.5811 39.7005H83.3062C83.3062 39.7005 83.1525 40.0564 82.8007 40.8499C82.6401 41.1878 82.4241 41.6641 82.1526 42.2804C81.8798 42.8966 81.5752 43.6181 81.2387 44.4462C80.9035 45.2729 80.5338 46.1703 80.1336 47.141C79.7334 48.1131 79.3332 49.1213 78.9316 50.1668C78.5314 51.2137 78.1312 52.2689 77.731 53.3325C77.3308 54.396 76.9541 55.4249 76.6023 56.4206H80.1336L81.5032 52.7245H89.3841L90.755 56.4206H94.2863C93.9345 55.4249 93.5579 54.396 93.1563 53.3325C92.7561 52.2689 92.3559 51.2137 91.9556 50.1668ZM65.1957 39.4C64.6861 39.4 64.2471 39.5758 63.8816 39.9262C63.5146 40.2766 63.3318 40.7058 63.3318 41.2155C63.3318 41.7251 63.5146 42.1599 63.8816 42.5186C64.2471 42.8758 64.6861 43.0559 65.1957 43.0559C65.7206 43.0559 66.1665 42.8758 66.5335 42.5186C66.899 42.1599 67.0832 41.7251 67.0832 41.2155C67.0832 40.7058 66.899 40.2766 66.5335 39.9262C66.1665 39.5758 65.7206 39.4 65.1957 39.4ZM63.5354 56.4206H66.8797V43.83L63.5354 44.7952V56.4206ZM50.0779 49.5852C50.3673 48.8097 50.6595 48.0273 50.9558 47.2435C51.2522 46.4583 51.525 45.7368 51.7729 45.079C52.0207 44.4199 52.2423 43.8549 52.4348 43.3827C52.6259 42.9104 52.763 42.5892 52.8419 42.4202C52.9236 42.5892 53.0593 42.9104 53.2504 43.3827C53.4443 43.8549 53.6645 44.4199 53.9124 45.079C54.1602 45.7368 54.4331 46.4583 54.728 47.2435C55.0258 48.0273 55.3179 48.8097 55.606 49.5852H50.0779ZM59.3546 50.1668C58.9544 49.1213 58.5528 48.1131 58.1526 47.141C57.7524 46.1703 57.3841 45.2729 57.0476 44.4462C56.7111 43.6181 56.4064 42.8966 56.1336 42.2804C55.8622 41.6641 55.6461 41.1878 55.4855 40.8499C55.1324 40.0564 54.9801 39.7005 54.9801 39.7005H50.7052C50.7052 39.7005 50.5515 40.0564 50.1997 40.8499C50.0391 41.1878 49.823 41.6641 49.5502 42.2804C49.2788 42.8966 48.9742 43.6181 48.6377 44.4462C48.3012 45.2729 47.9328 46.1703 47.5326 47.141C47.1324 48.1131 46.7308 49.1213 46.3306 50.1668C45.9304 51.2137 45.5302 52.2689 45.1286 53.3325C44.7284 54.396 44.3517 55.4249 44.0013 56.4206H47.5326L48.9022 52.7245H56.7831L58.1526 56.4206H61.6839C61.3321 55.4249 60.9555 54.396 60.5553 53.3325C60.1551 52.2689 59.7548 51.2137 59.3546 50.1668ZM77.1466 46.7367C77.4914 45.8975 77.814 45.1123 78.1104 44.3839C78.1215 44.3562 78.1326 44.3299 78.1436 44.3022C77.8071 44.1263 77.321 43.9754 76.6231 43.8632C76.2243 43.7995 75.8019 43.769 75.356 43.769C74.6234 43.769 73.9463 43.8369 73.3259 43.9712C72.7041 44.1069 72.1585 44.2579 71.6891 44.4254C71.2182 44.593 70.8402 44.7564 70.5535 44.9156C70.2669 45.0749 70.091 45.1788 70.0287 45.2258V56.422H73.373V47.0662C73.517 46.9859 73.7704 46.8793 74.1388 46.7436C74.5044 46.6079 75.0223 46.54 75.6911 46.54C75.9141 46.54 76.1481 46.5566 76.396 46.5885C76.6425 46.6203 76.8405 46.6466 77.0884 46.7187C77.1092 46.7256 77.1272 46.7297 77.1466 46.7367Z" fill="#E81142"/>
<path d="M108.569 70.3891C108.569 71.1576 108.374 71.7974 107.983 72.3098C107.591 72.8222 107.006 73.0784 106.225 73.0784C105.442 73.0784 104.833 72.7917 104.394 72.2198C103.956 71.6465 103.738 70.8876 103.738 69.9446C103.738 69.4723 103.801 68.978 103.93 68.5805C104.057 68.1831 104.253 67.8355 104.516 67.5392C104.779 67.2428 105.115 67.0143 105.527 66.8523C105.938 66.6903 106.425 66.6086 106.993 66.6086C107.424 66.6086 107.774 66.6293 108.044 66.6695C108.313 66.7097 108.489 66.7512 108.569 66.7914V70.3891ZM127.051 64.5314L124.215 65.3498V72.8914H120.89C120.523 72.8914 120.226 72.8402 120.002 72.7377C119.776 72.6352 119.607 72.4871 119.492 72.289C119.376 72.0924 119.301 71.85 119.267 71.5648C119.234 71.2795 119.216 70.9472 119.216 70.5649V64.5314L116.4 65.3442V70.5649C116.4 70.9472 116.381 71.2795 116.339 71.5648C116.298 71.85 116.22 72.0924 116.104 72.289C115.989 72.4871 115.821 72.6352 115.605 72.7377C115.387 72.8402 115.094 72.8914 114.727 72.8914H111.401V65.4536C111.333 65.4135 111.185 65.3359 110.955 65.221C110.725 65.1074 110.416 64.9925 110.026 64.8776C109.634 64.7626 109.156 64.6588 108.59 64.5646C108.024 64.4704 107.377 64.422 106.648 64.422C105.744 64.422 104.937 64.5604 104.221 64.8374C103.506 65.1144 102.897 65.5021 102.392 66.0006C101.886 66.4992 101.498 67.1029 101.228 67.8106C100.958 68.5182 100.824 69.3976 100.824 70.2478C100.824 71.0842 100.953 71.8223 101.209 72.4621C101.464 73.1019 101.809 73.6378 102.239 74.0699C102.671 74.5006 103.177 74.8246 103.757 75.0406C104.336 75.2553 104.949 75.3633 105.596 75.3633C106.054 75.3633 106.463 75.3065 106.82 75.1916C107.177 75.078 107.481 74.9465 107.73 74.7969C107.979 74.6487 108.176 74.5047 108.316 74.3635C108.458 74.2208 108.543 74.1294 108.569 74.0893V75.2996H111.401V75.2982L115.339 75.2996C115.87 75.2996 116.367 75.204 116.83 75.0129C117.291 74.8232 117.659 74.4562 117.93 73.9106C118.203 74.4562 118.545 74.8232 118.961 75.0129C119.376 75.204 119.848 75.2996 120.379 75.2996H127.051V64.5314ZM117.957 76.2786C117.521 76.2786 117.147 76.4282 116.834 76.7273C116.521 77.0264 116.364 77.3934 116.364 77.8282C116.364 78.2644 116.521 78.6342 116.834 78.9402C117.147 79.2463 117.521 79.4 117.957 79.4C118.405 79.4 118.785 79.2463 119.098 78.9402C119.411 78.6342 119.567 78.2644 119.567 77.8282C119.567 77.3934 119.411 77.0264 119.098 76.7273C118.785 76.4282 118.405 76.2786 117.957 76.2786ZM80.8523 72.9994C79.786 73.3138 78.2323 73.0063 78.1146 72.951V67.096C78.1146 67.096 79.2363 66.3011 80.61 66.5629C81.9837 66.8246 82.9517 67.9186 82.9517 69.9016C82.9517 71.4734 82.2164 72.5978 80.8523 72.9994ZM95.131 72.8914H93.2325C92.8655 72.8914 92.5705 72.8402 92.3462 72.7377C92.1219 72.6352 91.9515 72.4871 91.8366 72.289C91.7203 72.0924 91.6455 71.85 91.6109 71.5648C91.5762 71.2795 91.561 70.9472 91.561 70.5649V60.6664L88.7236 61.4862V70.5649C88.7236 70.9472 88.7069 71.2795 88.6737 71.5648C88.6391 71.85 88.5643 72.0924 88.448 72.289C88.333 72.4871 88.1669 72.6352 87.9495 72.7377C87.7307 72.8402 87.4385 72.8914 87.0715 72.8914H85.1826C85.6271 72.0591 85.8667 71.0219 85.8667 69.8213C85.8667 66.6847 84.0734 64.7502 81.4935 64.458C80.0104 64.2904 78.5536 64.8069 78.1132 64.9814L78.1146 60.6664L75.2799 61.4668V72.8914H74.0959C73.729 72.8914 73.4326 72.8402 73.2097 72.7377C72.9839 72.6352 72.8136 72.4871 72.6987 72.289C72.5837 72.0924 72.5076 71.85 72.4743 71.5648C72.4397 71.2795 72.4231 70.9472 72.4231 70.5649V64.5314L69.6078 65.3442V70.5649C69.6078 70.9472 69.587 71.2795 69.5455 71.5648C69.5067 71.85 69.4278 72.0924 69.3114 72.289C69.1951 72.4871 69.0289 72.6352 68.8115 72.7377C68.5941 72.8402 68.3019 72.8914 67.9349 72.8914H64.6087V64.5341L61.774 65.3526C61.774 65.3554 61.7726 65.3567 61.7726 65.3595V75.2082C61.7726 75.8203 61.6258 76.2454 61.3336 76.4836C61.0414 76.7218 60.6439 76.8409 60.1413 76.8409C59.8131 76.8409 59.5153 76.7993 59.2425 76.719C58.9711 76.6359 58.7994 76.5819 58.7329 76.5556L58.0585 78.4528C58.0862 78.4653 58.1748 78.504 58.3244 78.5649C58.4739 78.6259 58.6651 78.6882 58.8963 78.7491C59.1262 78.8101 59.3921 78.8641 59.6912 78.9111C59.9903 78.9582 60.3033 78.9832 60.6301 78.9832C61.1605 78.9832 61.6673 78.9181 62.1506 78.7893C62.6325 78.6591 63.0535 78.4362 63.4163 78.1149C63.775 77.7964 64.0644 77.374 64.2818 76.8519C64.4978 76.334 64.6045 75.6804 64.6072 74.8925V75.2996H68.547C69.0774 75.2996 69.5731 75.204 70.0357 75.0129C70.4982 74.8232 70.8665 74.4562 71.138 73.9106C71.4094 74.4562 71.7528 74.8232 72.1683 75.0129C72.5837 75.204 73.0559 75.2996 73.5863 75.2996H87.6836C88.214 75.2996 88.7097 75.204 89.1736 75.0129C89.6362 74.8232 90.0031 74.4562 90.2745 73.9106C90.546 74.4562 90.8908 74.8232 91.3048 75.0129C91.7203 75.204 92.1925 75.2996 92.7229 75.2996H97.9671V60.6664L95.131 61.4848V72.8914ZM113.704 76.2786C113.268 76.2786 112.894 76.4282 112.581 76.7273C112.268 77.0264 112.111 77.3934 112.111 77.8282C112.111 78.2644 112.268 78.6342 112.581 78.9402C112.894 79.2463 113.268 79.4 113.704 79.4C114.153 79.4 114.534 79.2463 114.845 78.9402C115.159 78.6342 115.316 78.2644 115.316 77.8282C115.316 77.3934 115.159 77.0264 114.845 76.7273C114.534 76.4282 114.153 76.2786 113.704 76.2786ZM122.227 76.2786C121.779 76.2786 121.398 76.431 121.086 76.737C120.773 77.0444 120.616 77.4142 120.616 77.849C120.616 78.2852 120.773 78.6508 121.086 78.9513C121.398 79.2504 121.779 79.4 122.227 79.4C122.664 79.4 123.038 79.2504 123.351 78.9513C123.664 78.6508 123.82 78.2852 123.82 77.849C123.82 77.4142 123.664 77.0444 123.351 76.737C123.038 76.431 122.664 76.2786 122.227 76.2786ZM149.755 61.4917V75.319H152.611V60.6664L149.755 61.4917ZM144.744 71.544C144.744 72.1575 144.598 72.5812 144.305 72.8194C144.013 73.0576 143.614 73.1767 143.112 73.1767H138.164C138.042 73.0839 137.926 72.9828 137.816 72.8665C137.55 72.5826 137.34 72.2253 137.185 71.796C137.027 71.3667 136.949 70.8682 136.949 70.3004C136.949 69.2078 137.228 68.3659 137.786 67.776C138.344 67.186 139.058 66.8925 139.928 66.8925C140.323 66.8925 140.676 66.9423 140.989 67.0448C141.296 67.1445 141.559 67.2622 141.781 67.3979L142.886 65.2528C142.684 65.0936 142.326 64.915 141.815 64.7183C141.306 64.5217 140.573 64.422 139.623 64.422C138.846 64.422 138.122 64.5577 137.449 64.8277C136.775 65.0977 136.188 65.4869 135.684 65.9965C135.181 66.5061 134.783 67.1209 134.49 67.8424C134.198 68.5625 134.052 69.3823 134.052 70.3004C134.052 71.2463 134.198 72.0841 134.49 72.8125C134.541 72.9385 134.599 73.0576 134.656 73.1767H132.029V64.5341L129.193 65.3526V75.2082C129.193 75.8203 129.048 76.2454 128.754 76.4836C128.462 76.7218 128.064 76.8409 127.56 76.8409C127.235 76.8409 126.936 76.7993 126.663 76.719C126.392 76.6359 126.221 76.5819 126.153 76.5556L125.48 78.4528C125.507 78.4653 125.595 78.504 125.745 78.5649C125.894 78.6259 126.084 78.6882 126.317 78.7491C126.548 78.8101 126.813 78.8641 127.112 78.9111C127.411 78.9582 127.724 78.9832 128.051 78.9832C128.581 78.9832 129.088 78.9181 129.57 78.7893C130.054 78.6591 130.475 78.4362 130.835 78.1149C131.195 77.7964 131.485 77.374 131.702 76.8519C131.92 76.3285 132.029 75.6679 132.029 74.8689V75.319H143.602C144.132 75.319 144.638 75.2539 145.122 75.1251C145.604 74.9963 146.029 74.7706 146.396 74.4521C146.765 74.1322 147.057 73.7098 147.274 73.1864C147.492 72.6629 147.601 71.9996 147.601 71.1978V60.6664L144.744 61.4917V71.544ZM108.504 63.3806C108.953 63.3806 109.334 63.2269 109.645 62.9208C109.96 62.6148 110.116 62.2451 110.116 61.8088C110.116 61.374 109.96 61.007 109.645 60.7079C109.334 60.4074 108.953 60.2579 108.504 60.2579C108.069 60.2579 107.694 60.4074 107.381 60.7079C107.068 61.007 106.912 61.374 106.912 61.8088C106.912 62.2451 107.068 62.6148 107.381 62.9208C107.694 63.2269 108.069 63.3806 108.504 63.3806ZM49.3163 63.6479C49.7649 63.6479 50.1444 63.4955 50.4573 63.1895C50.7717 62.8821 50.9282 62.5123 50.9282 62.0775C50.9282 61.6413 50.7717 61.2743 50.4573 60.9752C50.1444 60.6761 49.7649 60.5265 49.3163 60.5265C48.88 60.5265 48.5061 60.6761 48.1932 60.9752C47.8816 61.2743 47.7237 61.6413 47.7237 62.0775C47.7237 62.5123 47.8816 62.8821 48.1932 63.1895C48.5061 63.4955 48.88 63.6479 49.3163 63.6479ZM104.251 63.3806C104.701 63.3806 105.081 63.2269 105.394 62.9208C105.707 62.6148 105.863 62.2451 105.863 61.8088C105.863 61.374 105.707 61.007 105.394 60.7079C105.081 60.4074 104.701 60.2579 104.251 60.2579C103.817 60.2579 103.441 60.4074 103.13 60.7079C102.817 61.007 102.659 61.374 102.659 61.8088C102.659 62.2451 102.817 62.6148 103.13 62.9208C103.441 63.2269 103.817 63.3806 104.251 63.3806ZM51.8255 69.1926C51.8255 71.0067 51.8255 73.0562 49.3315 73.0562C46.8361 73.0562 46.8361 71.0067 46.8361 69.1926V66.7803L44 67.5973V69.0777C44 69.1691 44.0014 69.2591 44.0028 69.3491C44.0249 70.3877 44.1689 71.2809 44.4376 72.0273C44.7284 72.836 45.1189 73.4952 45.6091 74.0062C46.0994 74.5158 46.6727 74.8869 47.3263 75.1182C47.9813 75.3494 48.6723 75.4644 49.3993 75.4644C50.0779 75.4644 50.7315 75.3633 51.363 75.1597C51.9903 74.9548 52.5525 74.6113 53.0428 74.128C53.533 73.6447 53.9249 73.0064 54.2143 72.2101C54.5051 71.4138 54.6519 70.4251 54.6519 69.2411V64.5341L51.8255 65.347L51.8255 69.1926ZM71.138 76.2786C70.7031 76.2786 70.3292 76.4282 70.0163 76.7273C69.7033 77.0264 69.5468 77.3934 69.5468 77.8282C69.5468 78.2644 69.7033 78.6342 70.0163 78.9402C70.3292 79.2463 70.7031 79.4 71.138 79.4C71.588 79.4 71.9675 79.2463 72.2804 78.9402C72.5934 78.6342 72.7499 78.2644 72.7499 77.8282C72.7499 77.3934 72.5934 77.0264 72.2804 76.7273C71.9675 76.4282 71.588 76.2786 71.138 76.2786ZM59.6289 60.6484L56.7928 61.4668V75.2982H59.6289V60.6484ZM66.8866 76.2786C66.4504 76.2786 66.0765 76.4282 65.7635 76.7273C65.4506 77.0264 65.2941 77.3934 65.2941 77.8282C65.2941 78.2644 65.4506 78.6342 65.7635 78.9402C66.0765 79.2463 66.4504 79.4 66.8866 79.4C67.3353 79.4 67.7161 79.2463 68.0277 78.9402C68.3407 78.6342 68.4985 78.2644 68.4985 77.8282C68.4985 77.3934 68.3407 77.0264 68.0277 76.7273C67.7161 76.4282 67.3353 76.2786 66.8866 76.2786Z" fill="#E81142"/>
</g>
<defs>
<clipPath id="clip0_2363_1307">
<rect width="108.611" height="40" fill="white" transform="translate(44 39.4)"/>
</clipPath>
</defs>
</svg>
