<svg width="196" height="119" viewBox="0 0 196 119" fill="none" xmlns="http://www.w3.org/2000/svg">
<g clip-path="url(#clip0_2363_1280)">
<path d="M97.3248 40H97.7341C98.3709 40.0203 99.0084 40.0648 99.6396 40.1578C101.886 40.4773 104.04 41.3992 105.826 42.7984C107.88 44.4102 109.583 46.5281 110.49 48.9922C111.419 51.5102 111.561 54.2922 111.028 56.9141C110.529 59.35 109.28 61.6031 107.565 63.3937C105.792 65.2812 103.508 66.718 100.982 67.3344C98.1662 68.0203 95.1302 67.8875 92.4224 66.8305C90.142 65.9398 88.0896 64.4508 86.5701 62.5273C85.2357 60.8289 84.2732 58.8289 83.8381 56.7102C83.1951 53.5773 83.6381 50.218 85.1607 47.3977C86.3334 45.1469 88.1357 43.2242 90.3279 41.9406C92.4326 40.6859 94.874 40.0117 97.3248 40ZM95.5256 46.4438C94.3404 46.4891 93.131 46.5313 91.992 46.893C91.1091 47.2125 90.2638 47.7258 89.7013 48.493C89.1045 49.2969 88.8935 50.3398 88.9935 51.3242C89.1045 52.3133 89.6849 53.1836 90.4029 53.8445C91.2537 54.65 92.324 55.1555 93.2685 55.8344C93.667 56.125 94.1052 56.4188 94.3177 56.8828C94.5709 57.4156 94.4177 58.0875 93.9943 58.4891C93.3662 59.1133 92.4474 59.3094 91.5912 59.3391C90.7607 59.3531 89.9248 59.3141 89.106 59.1641C88.8662 59.1266 88.6326 59.0375 88.3888 59.0406C88.1802 59.0844 88.1185 59.3148 88.0529 59.4875C87.9138 59.918 87.7474 60.3406 87.6177 60.7742C87.5341 60.9977 87.6271 61.2906 87.8724 61.357C88.6451 61.5969 89.4599 61.6578 90.2638 61.6977C91.2576 61.7375 92.267 61.7336 93.2381 61.4922C94.442 61.2094 95.5709 60.5672 96.3724 59.618C97.1388 58.7266 97.5013 57.4836 97.2654 56.325C97.0599 55.3695 96.4318 54.568 95.7138 53.932C94.7271 53.0375 93.4818 52.4969 92.4865 51.6125C91.8701 51.1227 91.8177 50.0836 92.3732 49.5289C92.7584 49.1273 93.3107 48.9359 93.8529 48.8711C94.917 48.7453 95.9912 48.7727 97.0607 48.7641C97.3279 48.7773 97.6052 48.6547 97.7263 48.407C97.9716 47.9391 98.117 47.4281 98.306 46.9367C98.3482 46.8 98.4302 46.6148 98.2959 46.5016C98.1631 46.4141 97.9966 46.4375 97.8466 46.4305C97.0732 46.4375 96.299 46.4227 95.5256 46.4438ZM99.9107 46.8297C99.7404 47.2398 99.6045 47.6633 99.4412 48.0758C99.3849 48.2445 99.2974 48.4195 99.331 48.6023C99.3615 48.743 99.5209 48.7664 99.6412 48.7633C100.903 48.7594 102.165 48.7453 103.427 48.7445C102.287 51.3047 101.182 53.8812 99.9724 56.4094C99.8912 56.5586 99.8841 56.8398 100.108 56.8523C100.708 56.8773 101.311 56.8656 101.911 56.8586C102.211 56.8562 102.47 56.6477 102.575 56.3734C103.971 53.2086 105.358 50.0391 106.756 46.8742C106.793 46.7781 106.839 46.6781 106.826 46.5727C106.756 46.4273 106.576 46.4375 106.441 46.432C104.487 46.4328 102.533 46.432 100.579 46.432C100.3 46.4133 100.014 46.5633 99.9107 46.8297Z" fill="#C0172B"/>
<path d="M80.2146 73.0008C80.6138 72.8516 81.0763 72.8539 81.4716 73.0156C81.8146 73.1547 82.0279 73.4898 82.1115 73.8383C82.6075 75.7234 83.095 77.6109 83.5935 79.4953C83.6146 79.6195 83.681 79.7602 83.5919 79.8742C83.199 79.9133 82.7997 79.9102 82.4068 79.8773C82.1786 79.2555 82.0833 78.5875 81.9044 77.9484C81.1888 77.9461 80.474 77.95 79.7591 77.9461C79.6052 78.5187 79.4755 79.0984 79.3216 79.6711C79.2888 79.7477 79.274 79.882 79.163 79.8812C78.7771 79.9156 78.3865 79.907 78.0021 79.8609V79.7047C78.5138 77.7547 79.0216 75.8039 79.5325 73.8539C79.6216 73.4883 79.8505 73.1367 80.2146 73.0008ZM80.6529 74.1555C80.4193 75.0695 80.2068 75.9898 79.981 76.9062C80.5286 76.9062 81.0763 76.9062 81.624 76.9062C81.3919 75.9656 81.1825 75.0187 80.9349 74.0828C80.895 73.8828 80.6529 73.9977 80.6529 74.1555Z" fill="#C0172B"/>
<path d="M87.8451 72.9891C88.7443 72.9711 89.6623 72.7734 90.5474 73.0156C91.117 73.1516 91.6826 73.4773 91.9396 74.025C92.1959 74.5719 92.1912 75.2125 92.0474 75.7891C91.9045 76.3516 91.4435 76.7727 90.917 76.982C91.3974 77.9227 91.931 78.8367 92.3935 79.7852C92.381 79.8094 92.3553 79.857 92.342 79.8813C91.9412 79.9086 91.5373 79.9008 91.1357 79.8883C91.0342 79.8945 90.9998 79.7797 90.9537 79.7141C90.5068 78.8828 90.0545 78.0547 89.6053 77.225C89.2889 77.207 88.9732 77.1883 88.6576 77.1688C88.6474 78.0086 88.6639 78.8492 88.6506 79.6891C88.6748 79.9664 88.3334 79.8813 88.1623 79.8984C87.9029 79.8719 87.6099 79.9578 87.3724 79.8344C87.3232 79.6055 87.349 79.3695 87.3443 79.1375C87.3514 77.1859 87.3342 75.2336 87.3529 73.2828C87.3443 73.0234 87.6537 72.9945 87.8451 72.9891ZM88.6545 74.0281C88.6545 74.7258 88.6545 75.4227 88.6553 76.1203C89.1974 76.1633 89.7607 76.2188 90.2857 76.0398C91.0771 75.7828 91.1271 74.4453 90.3451 74.1453C89.8131 73.9016 89.217 74.0391 88.6545 74.0281Z" fill="#C0172B"/>
<path d="M108.148 73.2625C108.719 72.8797 109.445 72.8602 110.108 72.9274C110.576 72.9781 111.051 72.9695 111.515 73.0539C111.642 73.3 111.565 73.6156 111.564 73.8867C111.551 73.9078 111.527 73.9508 111.515 73.9719C110.787 74.0383 110.051 73.9539 109.323 74.0141C109.054 74.0383 108.829 74.2578 108.79 74.5234C108.729 74.9461 108.773 75.3758 108.761 75.8024C109.577 75.8039 110.394 75.7992 111.21 75.8031C111.3 75.8078 111.459 75.8016 111.451 75.9367C111.473 76.1969 111.474 76.4609 111.451 76.7219C111.451 76.8508 111.302 76.8477 111.212 76.8524C110.395 76.8578 109.578 76.8516 108.761 76.8539C108.771 77.3297 108.736 77.807 108.779 78.2805C108.801 78.6024 109.088 78.8649 109.411 78.8586C110.061 78.8797 110.713 78.8516 111.364 78.8688C111.443 78.8734 111.561 78.8774 111.565 78.9852C111.589 79.2367 111.592 79.493 111.559 79.7438C111.43 79.8797 111.219 79.8391 111.051 79.8656C110.317 79.8891 109.575 80.0516 108.847 79.8867C108.426 79.7977 108.013 79.5836 107.77 79.218C107.522 78.8547 107.464 78.4016 107.469 77.9719C107.472 76.8758 107.464 75.7797 107.472 74.6836C107.48 74.1445 107.683 73.5711 108.148 73.2625Z" fill="#C0172B"/>
<path d="M114.143 72.9484C114.854 72.8484 115.58 72.893 116.29 72.9867C116.469 73.025 116.671 73.0227 116.823 73.1328C116.866 73.4414 116.869 73.7617 116.818 74.0695C116.05 74.1523 115.265 73.9391 114.491 74.0227C114.217 74.0578 113.918 74.225 113.875 74.5227C113.807 74.7781 113.972 75.0141 114.156 75.1719C114.895 75.7914 115.906 76.0242 116.559 76.7555C117.29 77.5578 117.201 79.075 116.204 79.6242C115.366 80.068 114.372 79.9859 113.461 79.8953C113.231 79.8422 112.944 79.868 112.769 79.6891C112.743 79.4062 112.736 79.1172 112.776 78.8367C112.797 78.8187 112.836 78.7828 112.856 78.7656C113.622 78.7227 114.402 78.9758 115.158 78.7914C115.648 78.6734 115.862 77.9992 115.529 77.6227C115.174 77.2055 114.651 76.9906 114.204 76.6891C113.689 76.3641 113.093 76.082 112.789 75.5227C112.495 74.9883 112.497 74.3008 112.779 73.7625C113.051 73.2695 113.61 73.0297 114.143 72.9484Z" fill="#C0172B"/>
<path d="M84.6076 73.0164C84.974 72.9539 85.3599 72.9781 85.7318 73.0023C85.8693 73.0234 85.8084 73.1891 85.8287 73.2852C85.8279 75.393 85.8287 77.5008 85.8287 79.6078C85.8185 79.7047 85.8443 79.8742 85.7029 79.882C85.3631 79.9086 85.0185 79.9047 84.6787 79.8844C84.5326 79.882 84.5482 79.7086 84.542 79.6086C84.5404 77.525 84.5443 75.4422 84.5404 73.3586C84.567 73.2531 84.4927 73.0711 84.6076 73.0164Z" fill="#C0172B"/>
<path d="M93.4185 72.9992C93.7716 72.9703 94.1302 72.9766 94.4841 72.9953C94.6388 72.9875 94.6232 73.1727 94.6294 73.2781C94.6287 74.8406 94.6294 76.4039 94.6279 77.9664C94.6302 78.2063 94.6396 78.475 94.8115 78.6633C94.9435 78.8148 95.1529 78.8594 95.3458 78.8633C95.8935 78.8719 96.4412 78.8586 96.9896 78.8648C97.0748 78.8727 97.2326 78.8547 97.2302 78.9859C97.2513 79.2391 97.2685 79.5016 97.2146 79.7523C97.0216 79.9047 96.7521 79.8828 96.5208 79.9227C95.8318 79.9656 95.1177 80.0305 94.449 79.818C94.0669 79.6961 93.7162 79.4438 93.5279 79.0836C93.3287 78.7211 93.2982 78.2969 93.3044 77.8914C93.3068 76.3563 93.3044 74.8219 93.3052 73.2867C93.3208 73.1859 93.2771 73.0203 93.4185 72.9992Z" fill="#C0172B"/>
<path d="M98.1052 73.0016C98.4575 72.968 98.8145 72.9773 99.1684 72.9953C99.3184 72.9922 99.2997 73.1766 99.3036 73.2773C99.3012 75.3875 99.3036 77.4977 99.302 79.6078C99.2958 79.7062 99.3098 79.875 99.1716 79.882C98.8364 79.9078 98.4973 79.9039 98.1622 79.8852C98.0161 79.8875 98.0122 79.7227 98.0161 79.6172C98.0153 77.5062 98.0177 75.3945 98.0145 73.2828C98.0286 73.1867 97.9817 73.0406 98.1052 73.0016Z" fill="#C0172B"/>
<path d="M100.834 73.3523C100.824 73.2062 100.888 73.0266 101.053 73.0062C101.463 72.9664 101.879 72.9773 102.292 72.9961C102.497 73.0102 102.601 73.2062 102.676 73.3727C103.343 74.857 104.018 76.3375 104.685 77.8219C104.74 77.943 104.806 78.0578 104.881 78.168C104.94 76.4898 104.88 74.8078 104.911 73.1281C104.903 72.9773 105.084 72.9875 105.186 72.9844C105.47 73.0055 105.787 72.9203 106.051 73.0445C106.091 75.1273 106.054 77.2125 106.069 79.2961C106.063 79.4969 106.095 79.7969 105.852 79.8711C105.476 79.9203 105.093 79.8953 104.715 79.8875C104.482 79.8875 104.259 79.7523 104.172 79.5336C103.505 78.0859 102.843 76.6367 102.181 75.1867C102.134 75.0891 102.072 74.9992 102.011 74.9109C101.972 76.5039 102.014 78.0992 101.99 79.6922C102.004 79.7984 101.937 79.8961 101.823 79.8883C101.527 79.9 101.226 79.9156 100.932 79.8734C100.798 79.8172 100.848 79.65 100.832 79.5375C100.836 77.4758 100.83 75.4141 100.834 73.3523Z" fill="#C0172B"/>
<path d="M95.5255 46.4438C96.2989 46.4227 97.0731 46.4376 97.8466 46.4305C97.9966 46.4376 98.163 46.4141 98.2958 46.5016C98.4302 46.6149 98.3481 46.8001 98.3059 46.9368C98.1169 47.4282 97.9716 47.9391 97.7263 48.4071C97.6052 48.6548 97.3278 48.7774 97.0606 48.7641C95.9911 48.7727 94.9169 48.7454 93.8528 48.8712C93.3106 48.936 92.7583 49.1274 92.3731 49.529C91.8177 50.0837 91.87 51.1227 92.4864 51.6126C93.4817 52.4969 94.727 53.0376 95.7138 53.9321C96.4317 54.568 97.0598 55.3696 97.2653 56.3251C97.5013 57.4837 97.1388 58.7266 96.3723 59.618C95.5708 60.5673 94.4419 61.2094 93.238 61.4923C92.2669 61.7337 91.2575 61.7376 90.2638 61.6977C89.4598 61.6579 88.645 61.5969 87.8723 61.3571C87.627 61.2907 87.5341 60.9977 87.6177 60.7743C87.7473 60.3407 87.9138 59.918 88.0528 59.4876C88.1184 59.3149 88.1802 59.0844 88.3888 59.0407C88.6325 59.0376 88.8661 59.1266 89.1059 59.1641C89.9247 59.3141 90.7606 59.3532 91.5911 59.3391C92.4473 59.3094 93.3661 59.1134 93.9942 58.4891C94.4177 58.0876 94.5708 57.4157 94.3177 56.8829C94.1052 56.4188 93.6669 56.1251 93.2684 55.8344C92.3239 55.1555 91.2536 54.6501 90.4028 53.8446C89.6848 53.1837 89.1044 52.3134 88.9934 51.3243C88.8934 50.3399 89.1044 49.2969 89.7013 48.493C90.2638 47.7259 91.1091 47.2126 91.9919 46.893C93.1309 46.5313 94.3403 46.4891 95.5255 46.4438Z" fill="white"/>
<path d="M99.9106 46.8297C100.014 46.5633 100.3 46.4133 100.579 46.432C102.533 46.432 104.487 46.4328 106.441 46.432C106.575 46.4375 106.756 46.4273 106.825 46.5727C106.839 46.6781 106.793 46.7781 106.756 46.8742C105.358 50.0391 103.971 53.2086 102.575 56.3734C102.47 56.6477 102.211 56.8563 101.911 56.8586C101.311 56.8656 100.708 56.8773 100.108 56.8524C99.8841 56.8398 99.8911 56.5586 99.9724 56.4094C101.182 53.8813 102.287 51.3047 103.427 48.7445C102.165 48.7453 100.903 48.7594 99.6411 48.7633C99.5208 48.7664 99.3614 48.743 99.3309 48.6023C99.2974 48.4195 99.3849 48.2445 99.4411 48.0758C99.6044 47.6633 99.7403 47.2398 99.9106 46.8297Z" fill="white"/>
</g>
<defs>
<clipPath id="clip0_2363_1280">
<rect width="39.0667" height="40" fill="white" transform="translate(78 40)"/>
</clipPath>
</defs>
</svg>
