<svg width="196" height="118" viewBox="0 0 196 118" fill="none" xmlns="http://www.w3.org/2000/svg">
<g clip-path="url(#clip0_2363_1318)">
<path d="M159.791 60.3996C158.782 60.3996 157.656 60.6611 156.47 61.2615C156.093 59.6739 154.663 58.4948 152.959 58.4948C150.965 58.4948 149.349 60.1118 149.349 62.1064C149.349 63.6569 150.326 64.9783 151.697 65.4905C151.488 65.7613 151.282 66.046 151.076 66.3431C148.057 70.7006 144.223 73.0665 133.236 74.812C122.248 76.5574 80.998 79.3984 80.998 79.3984L130.708 65.8294L61.3508 53.4039H151.969C151.969 53.4039 158.422 53.1176 159.791 60.3996Z" fill="#174ABC"/>
<path d="M156.573 62.1064C156.573 64.101 154.957 65.718 152.961 65.718C152.517 65.718 152.091 65.6375 151.698 65.4905C153.298 63.3923 154.934 62.0398 156.472 61.2615C156.538 61.5323 156.573 61.8155 156.573 62.1064Z" fill="#EF11B6"/>
<path d="M48.8774 47.2437C48.9764 47.2437 49.0368 47.3102 49.0166 47.3923C48.1779 49.7489 45.8615 51.4294 42.5083 51.4294C38.6151 51.4278 36 49.3033 36 46.3865C36 42.4654 39.1752 39.4 43.9072 39.4C47.101 39.4 49.7764 40.8669 49.877 43.8317C49.877 43.9137 49.7965 43.9803 49.6975 43.9803H47.0824C46.9818 43.9803 46.9029 43.9137 46.9029 43.8317C46.8426 42.3988 45.7253 41.3265 43.6487 41.3265C40.5137 41.3265 39.1366 43.8472 39.1366 46.3524C39.1366 48.2805 40.3946 49.4998 42.53 49.4998C44.147 49.4998 45.4855 48.8081 45.9838 47.3907C46.0039 47.3087 46.1029 47.2422 46.2035 47.2422H48.8789L48.8774 47.2437Z" fill="#141414"/>
<path d="M49.6974 51.1818C49.5984 51.1818 49.5381 51.1153 49.5582 51.0333L51.2154 45.4147L52.7118 39.7961C52.7319 39.7141 52.8309 39.6476 52.9315 39.6476H62.3551C62.4557 39.6476 62.5145 39.7141 62.4943 39.7961L62.0549 41.3621C62.0348 41.4441 61.9357 41.5106 61.8352 41.5106H55.3067L54.5083 44.1629H60.4982C60.5988 44.1629 60.6576 44.2294 60.6375 44.3114L60.198 45.8774C60.1779 45.9594 60.0789 46.0259 59.9783 46.0259H53.9884L53.1094 49.3219H59.7972C59.8978 49.3219 59.9566 49.3884 59.9365 49.4704L59.4971 51.0364C59.4769 51.1184 59.3779 51.1849 59.2773 51.1849H49.6943L49.6974 51.1818Z" fill="#141414"/>
<path d="M65.3308 47.3257L64.2925 51.0333C64.2723 51.1153 64.1733 51.1818 64.0727 51.1818H61.5768C61.4762 51.1818 61.4174 51.1153 61.4375 51.0333L63.0948 45.4147L64.5926 39.7961C64.6128 39.7141 64.7118 39.6476 64.8124 39.6476H67.9474C68.048 39.6476 68.147 39.7141 68.1872 39.7791L71.6611 47.9849L71.7416 47.6878L72.6607 44.0623L73.8584 39.7946C73.8785 39.7126 73.9776 39.646 74.0781 39.646H76.5741C76.6731 39.646 76.7335 39.7126 76.7133 39.7946L75.0561 45.4131L73.5582 51.0317C73.5381 51.1137 73.4391 51.1803 73.3385 51.1803H70.0843C69.9853 51.1803 69.8847 51.1137 69.8445 51.0317L66.4309 42.8924L66.2313 43.7327L65.3323 47.3242L65.3308 47.3257Z" fill="#141414"/>
<path d="M79.1474 51.1818C79.0669 51.1818 78.988 51.1153 79.0081 51.0333L80.7056 45.4147L81.7037 41.5091H77.8507C77.7702 41.5091 77.6913 41.4425 77.7114 41.3605L78.1509 39.7946C78.171 39.7126 78.27 39.646 78.3706 39.646H89.1915C89.2921 39.646 89.3509 39.7126 89.3308 39.7946L88.8913 41.3605C88.8712 41.4425 88.7722 41.5091 88.6716 41.5091H84.8186L83.6209 45.4147L82.1834 51.0333C82.1633 51.1153 82.0642 51.1818 81.9637 51.1818H79.149H79.1474Z" fill="#141414"/>
<path d="M94.7002 48.6116L93.8213 46.8986H91.805L90.7064 51.0348C90.6863 51.1168 90.5872 51.1833 90.4866 51.1833H87.7509C87.6503 51.1833 87.5915 51.1168 87.6116 51.0348L89.2688 45.4162L90.7667 39.7977C90.7868 39.7156 90.8859 39.6491 90.9864 39.6491H96.277C99.2526 39.6491 101.049 40.6704 101.049 42.6155C101.049 44.7416 99.5915 46.1915 97.1157 46.6851L99.3315 51.0518C99.3516 51.1184 99.2913 51.1833 99.2124 51.1833H96.0371C95.9381 51.1833 95.8375 51.1168 95.7973 51.0518L94.6986 48.6131L94.7002 48.6116ZM96.0774 41.4766H93.3617L92.3033 45.0681H95.4785C96.7567 45.0681 98.0534 44.4259 98.0534 42.8924C98.0534 41.9361 97.4143 41.475 96.0774 41.475V41.4766Z" fill="#141414"/>
<path d="M106.501 51.4279C102.986 51.4279 101.11 49.6809 101.888 46.8971L102.787 43.7667L103.825 39.7961C103.845 39.7141 103.944 39.6476 104.045 39.6476H106.88C106.98 39.6476 107.039 39.7141 107.019 39.7961L105.841 43.7017L104.942 46.8816C104.483 48.5296 105.023 49.4364 106.939 49.4364C108.854 49.4364 109.914 48.5296 110.372 46.8816L111.231 43.7513L112.31 39.7961C112.33 39.7141 112.429 39.6476 112.529 39.6476H115.065C115.166 39.6476 115.225 39.7141 115.205 39.7961L114.047 43.7667L113.128 46.8971C112.31 49.8294 110.412 51.4279 106.499 51.4279H106.501Z" fill="#141414"/>
<path d="M117.821 47.5393L116.843 51.0333C116.823 51.1153 116.724 51.1818 116.624 51.1818H114.228C114.129 51.1818 114.069 51.1153 114.089 51.0333L115.746 45.4147L117.244 39.7961C117.264 39.7141 117.363 39.6476 117.464 39.6476H120.859C120.958 39.6476 121.058 39.7141 121.058 39.7961L122.456 48.0839L128.306 39.7791C128.367 39.6971 128.486 39.6476 128.586 39.6476H132.34C132.441 39.6476 132.5 39.7141 132.48 39.7961L130.822 45.4147L129.325 51.0333C129.304 51.1153 129.205 51.1818 129.105 51.1818H126.409C126.329 51.1818 126.25 51.1153 126.27 51.0333L127.248 47.5393L128.446 43.5841L128.605 43.0905L122.974 51.0487C122.914 51.1308 122.795 51.1803 122.694 51.1803H120.658C120.559 51.1803 120.458 51.1137 120.458 51.0317L119.041 42.6774L118.821 43.6166L117.823 47.5377L117.821 47.5393Z" fill="#141414"/>
<path d="M141.342 51.1818C141.281 51.1818 141.222 51.1323 141.202 51.0828L140.624 47.3257H134.593L131.918 51.0998C131.878 51.1493 131.799 51.1818 131.739 51.1818H130.84C130.779 51.1818 130.759 51.1323 130.779 51.0998L139.027 39.7296C139.067 39.6801 139.146 39.6476 139.206 39.6476H140.245C140.305 39.6476 140.364 39.6971 140.384 39.7466L142.221 51.0828C142.241 51.1323 142.18 51.1818 142.122 51.1818H141.343H141.342ZM140.523 46.6015L139.565 40.3563L135.113 46.6015H140.525H140.523Z" fill="#141414"/>
<path d="M143.998 51.1818C143.938 51.1818 143.898 51.1323 143.898 51.0828L145.595 45.2166L147.073 39.7466C147.073 39.6971 147.154 39.6476 147.212 39.6476H148.031C148.091 39.6476 148.131 39.6971 148.131 39.7466L146.555 45.2166L144.958 51.0828C144.958 51.1323 144.877 51.1818 144.819 51.1818H144H143.998Z" fill="#141414"/>
<path d="M155.338 49.6654L153.62 46.1234H149.926L148.549 51.0828C148.549 51.1323 148.469 51.1818 148.41 51.1818H147.591C147.531 51.1818 147.492 51.1323 147.492 51.0828L149.23 45.1176L150.688 39.7466C150.688 39.6971 150.768 39.6476 150.827 39.6476H155C157.537 39.6476 159.232 40.6364 159.232 42.3663C159.232 44.4925 157.376 45.8603 154.72 46.0909L157.096 51.0843C157.116 51.1339 157.075 51.1834 157.015 51.1834H156.136C156.076 51.1834 155.997 51.1509 155.977 51.0843L155.338 49.6669V49.6654ZM150.186 45.1671L150.126 45.4147H153.979C156.554 45.4147 158.191 44.2774 158.191 42.4159C158.191 41.0805 156.953 40.3563 155.036 40.3563H151.562L150.185 45.1671H150.186Z" fill="#141414"/>
</g>
<defs>
<clipPath id="clip0_2363_1318">
<rect width="123.791" height="40" fill="white" transform="translate(36 39.4)"/>
</clipPath>
</defs>
</svg>
