<svg width="196" height="119" viewBox="0 0 196 119" fill="none" xmlns="http://www.w3.org/2000/svg">
<g clip-path="url(#clip0_2363_1363)">
<path d="M18 77.1928H53.4205L67.6218 41.8H53.4205L18 77.1928Z" fill="#0093D0"/>
<path d="M51.0168 55.4211C50.4642 55.1448 50.105 54.5923 50.105 53.9568C50.105 53.0727 50.8233 52.3267 51.7351 52.3267C52.6192 52.3267 53.3652 53.045 53.3652 53.9568C53.3652 54.5923 52.9784 55.1725 52.4258 55.4211V55.8908C52.9232 55.9461 53.531 56.1395 53.9178 56.3329C54.0836 56.3053 54.3046 56.3053 54.5256 56.3053C56.5702 56.3053 58.0069 57.6591 58.0069 59.5102C58.0069 60.6707 56.9846 61.7206 55.8242 61.7206C54.6638 61.7206 53.6139 60.5878 53.8349 59.4274C53.8349 59.4274 53.7244 59.8142 53.7244 60.3115C53.7244 60.6154 53.7244 66.1688 53.7244 66.1688C53.6691 66.8319 52.785 70.5066 48.6407 70.5066C44.4963 70.5066 43.6122 66.8319 43.5569 66.1688C43.5569 66.1688 43.5569 60.6154 43.5569 60.3115C43.5569 59.8418 43.4188 59.4274 43.4188 59.4274C43.6398 60.5325 42.5623 61.7206 41.4295 61.7206C40.269 61.7206 39.2468 60.6707 39.2468 59.5102C39.2468 57.6591 40.6835 56.3053 42.728 56.3053C42.9491 56.3053 43.1701 56.3053 43.3359 56.3329C43.695 56.1395 44.3305 55.9185 44.8278 55.8908V55.4211C44.2753 55.1448 43.9161 54.5923 43.9161 53.9568C43.9161 53.0727 44.6344 52.3267 45.5462 52.3267C46.458 52.3267 47.1763 53.045 47.1763 53.9568C47.1763 54.5923 46.7895 55.1725 46.2369 55.4211V56.029C46.3751 56.0842 46.5132 56.1119 46.6514 56.1948C46.9 55.6422 47.3973 55.2277 47.9776 55.0343V54.537C47.425 54.2883 47.0382 53.7081 47.0382 53.0727C47.0382 52.1885 47.7565 51.4426 48.6683 51.4426C49.5524 51.4426 50.2984 52.1609 50.2984 53.0727C50.2984 53.7081 49.9116 54.2883 49.3866 54.537V55.0343C49.9668 55.2277 50.4642 55.6422 50.7128 56.1948C50.851 56.1395 50.9891 56.0842 51.1273 56.029L51.0168 55.4211Z" fill="white"/>
<path d="M57.3162 59.5379C57.3162 58.0183 56.2939 56.8026 54.1665 56.8026C52.7574 56.8026 51.0997 57.9906 51.0997 61.0022C51.0997 63.3507 51.0997 65.4781 51.0997 65.4781C51.7075 65.0637 52.564 64.7045 53.0061 64.7045C53.0061 63.3783 53.0061 60.7536 53.0061 60.5325C53.0061 58.93 54.1665 58.4603 54.6915 58.4603C54.3875 58.7366 54.1941 59.0682 54.1941 59.5379C54.1941 60.3944 54.8849 61.0851 55.7414 61.0851C56.6255 61.0851 57.2886 60.4496 57.3162 59.5379Z" fill="#ED1B2F"/>
<path d="M39.827 59.5379C39.827 58.0183 40.8492 56.8026 42.9767 56.8026C44.3858 56.8026 46.0711 57.9906 46.0711 61.0022C46.0711 63.3507 46.0711 65.4781 46.0711 65.4781C45.4633 65.0637 44.6068 64.7045 44.1647 64.7045C44.1647 63.3783 44.1647 60.7536 44.1647 60.5325C44.1647 58.93 43.0043 58.4603 42.4794 58.4603C42.7833 58.7366 42.9767 59.0682 42.9767 59.5379C42.9767 60.3944 42.2583 61.0851 41.4295 61.0851C40.5177 61.0851 39.8546 60.4496 39.827 59.5379Z" fill="#ED1B2F"/>
<path d="M48.5854 69.8711C52.1219 69.8711 52.9231 66.9148 53.0337 66.1412C53.0337 66.1412 53.0337 65.3123 53.0337 65.1466C51.9285 65.4229 50.9615 66.0031 50.2984 66.8872C50.0773 65.8649 49.4142 65.0084 48.5854 64.4282C47.7565 64.9808 47.121 65.8649 46.8724 66.8872C46.2093 66.0031 45.2422 65.4229 44.1371 65.1466C44.1371 65.3123 44.1371 66.1412 44.1371 66.1412C44.22 66.9148 45.0212 69.8711 48.5854 69.8711Z" fill="#ED1B2F"/>
<path d="M48.8341 54.2055V55.4488C49.4419 55.5317 49.9669 55.9461 50.1603 56.4434C49.4419 56.9131 48.8617 57.6315 48.5854 58.5156C48.3091 57.6315 47.7289 56.9131 47.0106 56.4434C47.2316 55.9461 47.7289 55.5317 48.3368 55.4488V54.2055C47.8394 54.0949 47.4526 53.6252 47.4526 53.1003C47.4526 52.4648 47.9776 51.9675 48.5854 51.9675C49.2209 51.9675 49.7182 52.4648 49.7182 53.1003C49.7182 53.6252 49.3314 54.0949 48.8341 54.2055Z" fill="#ED1B2F"/>
<path d="M45.712 55.0896V56.3882C47.2592 56.6921 48.3644 58.3222 48.3644 59.8418C48.3644 61.4443 48.3644 64.0414 48.3644 64.0414C47.646 64.4558 46.9276 65.3124 46.7066 66.0031C46.6514 65.9478 46.5961 65.8649 46.5132 65.8097C46.5132 65.8097 46.5132 62.7428 46.5132 60.3944C46.5132 58.7643 45.6291 57.1065 44.0818 56.5816C44.0818 56.5816 44.5792 56.3605 45.2146 56.3605V55.062C44.7173 54.9514 44.3305 54.5094 44.3305 53.9568C44.3305 53.3213 44.8278 52.824 45.4633 52.824C46.0988 52.824 46.5961 53.3213 46.5961 53.9568C46.5961 54.5094 46.2093 54.9514 45.712 55.0896Z" fill="#ED1B2F"/>
<path d="M51.9561 55.0896V56.3605C52.5916 56.3605 53.0889 56.5816 53.0889 56.5816C51.514 57.1341 50.6575 58.7919 50.6575 60.3944C50.6575 62.7428 50.6575 65.8097 50.6575 65.8097C50.5747 65.8926 50.5194 65.9478 50.4641 66.0031C50.2431 65.2847 49.5248 64.4282 48.8064 64.0414C48.8064 64.0414 48.8064 61.4443 48.8064 59.8418C48.8064 58.3222 49.9116 56.6921 51.4588 56.3882V55.062C50.9615 54.9514 50.5747 54.5094 50.5747 53.9568C50.5747 53.3213 51.072 52.824 51.7074 52.824C52.3429 52.824 52.8402 53.3213 52.8402 53.9568C52.8679 54.5094 52.4811 54.9791 51.9561 55.0896Z" fill="#ED1B2F"/>
<path d="M84.1164 49.4809H88.537V53.6805H84.1164V49.4809ZM77.9275 56.2224V55.3382H82.0995V61.0022H84.144V55.3382H88.537V56.1395H90.5816V47.7402H84.1164C84.1164 47.7402 84.1164 44.4248 84.1164 44.3971C84.144 44.3971 82.1271 44.3971 82.0995 44.3971V47.7402H75.9382V56.2224H77.9275ZM82.0995 53.6805H77.9275V49.4809H82.0995V53.6805Z" fill="#002052"/>
<path d="M134.492 44.4441H136.591V47.3234H143.489V49.1229H133.892L133.832 51.1024H141.63C141.51 53.0219 141.39 55.2413 141.27 57.0408C141.15 58.6604 140.97 59.4402 140.43 59.92C139.95 60.3399 138.631 60.4599 137.011 60.6998C136.891 59.92 136.531 59.2602 136.171 58.5404C138.091 58.4204 139.11 58.6004 139.23 57.5207C139.35 56.5009 139.47 54.8814 139.47 52.9019H133.712C133.292 58.3005 131.073 59.5601 129.033 60.8798C128.553 60.3399 128.133 59.8001 127.474 59.3202C131.912 57.3407 131.852 54.2215 131.912 49.1229H127.713V47.3234H134.552C134.492 47.3833 134.492 44.4441 134.492 44.4441Z" fill="#002052"/>
<path d="M171.745 50.6099L172.764 49.1103C174.744 50.13 177.023 51.2097 178.283 52.0495C178.283 52.0495 177.503 53.0092 176.963 53.6691C175.524 52.5893 173.004 51.3297 171.745 50.6099ZM176.004 53.789V55.5286H171.505V58.4078H177.983V60.2073H162.987V58.4078H169.285V55.5286H164.967V53.789H176.004ZM163.887 53.849C163.587 53.3691 163.107 52.7093 162.747 52.1694C164.187 51.6296 166.766 50.3099 168.086 48.9903C168.086 48.9903 169.345 50.3099 169.405 50.3699C168.626 51.2097 165.566 53.0692 163.887 53.849ZM169.345 44.5515H171.445V46.411H177.623V50.19H175.644V48.0905H165.386V50.2499H163.407V46.411H169.285C169.345 46.411 169.345 44.5515 169.345 44.5515Z" fill="#002052"/>
<path d="M103.368 52.7126H104.448V51.2129H101.449V49.4134H104.988V47.9738H96.3499V49.4134H99.709V51.2129H96.7698V52.6526H99.709V55.1719H96.0499V56.7315H105.228V55.1719H101.509V52.6526H103.248L102.048 53.3724C102.528 53.8523 103.068 54.5721 103.428 55.0519L104.628 54.2721C104.208 53.7923 103.608 53.0725 103.368 52.7126ZM95.2702 60.7504V59.3708H105.887V60.6904H107.807V45.1545H93.4106V60.6904C93.4106 60.7504 95.2702 60.7504 95.2702 60.7504ZM105.947 57.8712H95.2702V46.8341H105.887L105.947 57.8712Z" fill="#002052"/>
<path d="M119.997 50.9957C119.398 51.8955 119.098 52.4953 118.558 53.2151H116.938L117.658 52.8552C117.358 52.3153 116.578 51.3556 116.278 50.9957H119.997ZM120.237 50.9957H122.997V58.0738C122.997 58.7336 122.697 58.9736 121.857 58.9736H121.077C121.437 59.7534 121.737 60.2333 121.977 60.9531C123.356 60.7731 123.896 60.5332 124.256 60.2932C124.676 59.9933 124.916 59.7534 124.916 58.6737V49.4961H119.098V48.1764H126.176V46.4969H119.098V44.5174H117.118V46.4969H109.92V48.1764H117.118V49.4961H111.36V60.8931H113.219V51.0557H116.158L114.779 51.6555C115.139 52.1354 115.559 52.7952 115.858 53.2751H114.119V54.7147H117.178V55.9744H113.639V57.534H117.178V60.4732H118.978V57.534H122.577V55.9744H118.978V54.7147H122.217V53.2751H120.357C120.657 52.9152 121.437 52.0154 121.617 51.7755L120.237 50.9957Z" fill="#002052"/>
<path d="M149.675 48.8719L148.235 49.1119C148.475 50.0716 148.595 50.8514 148.715 51.4512L150.095 51.1513C150.035 50.6115 149.795 49.4118 149.675 48.8719ZM150.574 51.9311H147.875V48.3921H150.574V51.9311ZM151.894 59.849C152.494 60.1489 153.034 60.5088 153.514 60.8088C154.713 59.4891 155.673 57.6296 155.613 52.471V51.9911H157.113L156.993 58.7093C156.993 59.909 157.173 60.3289 158.312 60.3889H159.812C160.352 60.3889 160.712 59.6091 161.192 57.9295C160.712 57.6896 160.052 57.3297 159.692 56.9698C159.572 57.6896 159.452 58.4094 159.272 58.5894C159.152 58.7093 159.032 58.6493 158.972 58.6493C158.852 58.6493 158.792 58.5294 158.852 58.2894C158.852 56.4899 159.032 50.4315 159.032 50.4315H153.934V54.0306C153.934 56.7298 153.214 58.8293 151.894 59.849ZM149.615 54.0306L148.115 54.2105C148.295 55.1103 148.475 56.4299 148.595 57.0898L150.095 56.7298C150.035 56.01 149.735 54.5704 149.615 54.0306ZM144.996 51.9311V53.6107H146.256V54.0906C146.196 56.4299 145.776 58.2894 144.936 59.5491C145.356 59.909 145.956 60.4489 146.436 60.9287C147.455 59.4291 147.875 57.7496 147.875 53.6107H150.574V58.1095C150.574 58.6493 150.275 58.6493 148.715 58.6493C149.075 59.2492 149.195 59.789 149.315 60.5088C151.534 60.2689 152.194 59.789 152.194 58.9493V46.9524H149.915C150.035 46.4126 150.275 45.3928 150.394 44.9729C150.035 44.853 148.775 44.673 148.595 44.613C148.535 45.1529 148.415 46.1126 148.235 46.9524H146.256V51.9311H144.996ZM157.533 47.2523V44.4931H155.553V47.2523H152.674V48.9319H160.712V47.2523C160.652 47.2523 157.533 47.2523 157.533 47.2523Z" fill="#002052"/>
<path d="M177.608 73.3838V63.9063H176.768V70.6246L170.709 63.9063H170.35V73.3838H171.249V66.7856L177.308 73.3838H177.608ZM169.57 73.3838L167.17 68.7051C168.19 68.4052 169.21 68.0453 169.21 66.3057C169.21 64.5062 167.65 63.9063 166.391 63.9063H163.091V73.3239H164.531V68.7651H165.791L168.13 73.3239C168.07 73.3838 169.57 73.3838 169.57 73.3838ZM166.031 68.1052H164.471V64.8661H166.031C166.93 64.8661 167.65 65.5859 167.65 66.4857C167.65 67.3854 166.93 68.1052 166.031 68.1052ZM157.273 68.825H161.952V67.9853H157.273V64.8661H161.952V64.0263H155.893V73.3838H161.952V72.4841H157.273V68.825ZM153.254 73.3838H154.634V63.9063H153.254V68.0453H148.755V63.9063H147.316V73.3838H148.755V68.885H153.254C153.254 68.945 153.254 73.3838 153.254 73.3838ZM143.956 64.8661H146.776V64.0263H139.638V64.8661H142.517V73.3838H143.956V64.8661ZM139.038 70.0847V63.9063H138.198V70.2047C138.198 71.5843 136.998 72.5441 135.919 72.5441C134.659 72.5441 133.399 71.6443 133.399 70.2047V63.9063H132.02V70.1447C132.02 71.8243 133.459 73.4438 135.559 73.4438C138.018 73.3838 139.038 71.4643 139.038 70.0847ZM131.06 68.5851C131.06 65.8858 128.9 63.7264 126.261 63.7264C123.622 63.7264 121.462 65.8858 121.462 68.5851C121.462 71.2844 123.622 73.4438 126.261 73.4438C128.9 73.4438 131.06 71.2844 131.06 68.5851ZM129.56 68.6451C129.56 70.8645 128.061 72.664 126.261 72.664C124.462 72.664 122.962 70.8645 122.962 68.6451C122.962 66.4257 124.462 64.6261 126.261 64.6261C128.061 64.6261 129.56 66.4257 129.56 68.6451ZM120.503 65.226V64.0863C114.984 62.5267 114.564 67.0255 116.364 68.2252C117.084 68.7051 118.283 69.4849 119.003 69.9647C120.683 71.0444 118.763 73.9237 115.524 71.7643V73.0239C120.683 74.8235 122.242 70.5646 119.903 68.7651C119.003 68.1052 118.343 67.6254 117.503 67.1455C115.824 66.1258 116.664 63.7264 120.503 65.226ZM109.106 73.3838H110.725L107.846 63.8464H106.346L103.467 73.3838H104.607L105.447 70.4446H108.266L109.106 73.3838ZM108.026 69.6048H105.627L106.826 65.5259L108.026 69.6048ZM102.567 73.3838H102.927V63.9663H102.088V70.6846L96.0291 63.9663H95.6692V73.3838H96.569V66.7856C96.509 66.7856 102.567 73.3838 102.567 73.3838ZM92.67 73.3838H94.1096V63.9063H92.67V73.3838ZM89.7908 73.3838H91.1704V63.9063H89.7908V67.9853H85.292V63.9063H83.9123V73.3838H85.292V68.945H89.7908C89.7908 68.885 89.7908 73.3838 89.7908 73.3838ZM79.8334 73.5038C81.0931 73.5038 82.1128 73.2639 82.8926 73.0839V72.0042C82.0528 72.4241 81.393 72.664 80.4932 72.664C75.2146 72.664 75.6345 64.6861 79.9534 64.6861C81.6329 64.6861 82.3527 64.986 82.8926 65.166V64.1463C82.1128 63.9663 81.213 63.8464 79.8334 63.8464C73.1152 63.7864 73.5351 73.5038 79.8334 73.5038Z" fill="#002052"/>
</g>
<defs>
<clipPath id="clip0_2363_1363">
<rect width="160" height="35.4205" fill="white" transform="translate(18 41.8)"/>
</clipPath>
</defs>
</svg>
