<svg width="196" height="119" viewBox="0 0 196 119" fill="none" xmlns="http://www.w3.org/2000/svg">
<path d="M89.2 56.3L87 58.5C88.5 60 89 60.7 89.1 61.4C89.2 61.3 91.2 59.6 91.2 59C91.2 58.1 90.6 57.8 89.2 56.3ZM67 69.8H59.5C59.5 69.8 60.8 70.9 60.8 73.2V82.2C60.8 84.5 61.7 84.5 61.7 84.5H69C70.7 84.5 71.2 83.3 71.2 82.7V81.8C71.2 81.8 70.7 82.9 68.5 82.9H65C63.9 82.9 64 82 63.9 81.2V76.2H66.4C67.2 76.2 68 76.3 68.8 76.7C68.8 76.7 68 74.7 65.5 74.7H63.9V73.1C63.9 73.1 63.9 71.7 63.6 71.3H65.9C67.9 71.3 69.4 71.3 71 72.3C71.1 72.5 70.8 69.8 67 69.8ZM78.6 72.7C76.2 72.7 75.6 75 75.6 75C75.6 75 75.5 72.8 73.6 72.8H71.7C71.7 72.8 72.8 73.2 72.8 75.1V82.1C72.8 84.4 73.7 84.5 73.7 84.5H76.8C76.7 84.5 75.6 83.6 75.6 82.1V75.9C75.6 75.6 76.1 74.7 77.4 74.7C78.2 74.7 79 75.5 79 76.4V82.2C79 84.6 79.9 84.6 79.9 84.6H83C83 84.6 81.8 83.8 81.8 82.2V76C81.9 75.7 82.3 74.8 83.5 74.8C84.4 74.8 85.2 75.6 85.2 76.5V82.3C85.2 84.6 86.1 84.6 86.1 84.6H89.2C89.2 84.6 88 83.8 88 82.2V75.9C88 73.4 86 72.8 84.5 72.8C82.5 72.8 81.9 74.5 81.7 75C81.4 73.4 79.9 72.7 78.6 72.7ZM91.6 72.8H89.7C89.7 72.8 90.8 73.3 90.8 75.1V82.1C90.8 84.4 91.7 84.4 91.7 84.4H94.8C94.8 84.4 93.6 83.6 93.6 82V75.3C93.6 72.8 92.2 72.8 91.6 72.8ZM97.1 72.8H95.2C95.2 72.8 96.3 73.2 96.3 75.1V82.1C96.3 84.4 97.2 84.5 97.2 84.5H100.3C100.2 84.5 99.1 83.6 99.1 82.1V76.3C99.2 75.8 99.5 75.4 99.9 75.1C100.3 74.8 100.8 74.7 101.3 74.7C102 74.7 102.7 75 103.2 75.6V73.6C103.2 73.6 102.9 72.8 101.6 72.8C99.7 72.8 99.2 75.1 99.2 75.1C99 73.3 98.5 72.8 97.1 72.8ZM116.8 70.1C116.8 70.1 116.1 71.3 114.7 72.4C113.8 73.1 112 74 112 74H114V82.2C114 84.5 114.9 84.5 114.9 84.5H118C118 84.5 116.8 83.7 116.8 82.2V74.1H117.6C118.6 74.1 119.4 74.6 119.4 74.6V72.8H116.8V70.1ZM124.5 72.8C121.3 72.8 119.6 75.8 119.6 79C119.6 82.2 121.7 84.6 124.7 84.6C127.2 84.6 128 83.7 128 83.7V81.8C127.3 83 126.4 83.3 125.6 83.3C125.15 83.2989 124.705 83.1963 124.3 83C122.9 82.4 122.7 80.6 122.7 80.6C123.8 79.3 125.2 79.6 126.9 77.7C129.3 75.3 127.6 72.8 124.5 72.8ZM122.6 79.3C122.6 79.3 122.2 73.9 124.2 73.7H124.3C125.9 73.7 125.5 76 125 76.9C124.3 78.4 123.3 78.5 122.6 79.3ZM92.2 69C91.4 69 90.8 69.6 90.8 70.4C90.8 71.2 91.4 71.8 92.2 71.8C93 71.8 93.6 71.2 93.6 70.4C93.6 69.6 93 69 92.2 69ZM107.4 72.8C105.6 72.8 104.5 73.7 104.5 73.7V75.7C104.5 75.7 105.1 74.1 106.8 74.1C108.4 74.1 108.5 74.9 108.5 75.3C108.5 75.3 108.7 75.8 108.3 76.5C107.6 77.8 102 78 102.8 82.4C103.1 84.1 104.3 84.6 105.7 84.6C107.1 84.6 107.9 83.9 108.3 83.2C108.5 84.5 109.2 84.6 109.2 84.6H112.3C112.3 84.6 111.1 83.8 111.1 82.3V75.7C111 74 109.3 72.8 107.4 72.8ZM106.4 83.2C105.7 83.2 105.2 82.5 105.2 81.7C105.2 78.8 107.6 78.4 108.2 77.6V82.5C107.9 82.8 107.6 83.2 106.4 83.2ZM132.8 72.7C130.9 72.7 129.3 73.9 129.3 75.5C129.3 76.9 129.9 77.8 131 78.6L132.6 79.6C133.5 80.1 133.8 80.7 133.8 81.3C133.8 82.1 133.1 83.2 131.5 83.2C129.9 83.2 129.2 81.5 129.2 81.5V83.6C129.2 83.6 130.4 84.4 132.1 84.4C134.2 84.4 136.4 82.8 136.3 80.6C136.3 79.8 136 79.1 135.6 78.6C134.9 77.6 133.6 77 132.6 76.3C132 75.9 131.7 75.3 131.7 75.1C131.7 74.7 131.9 73.9 133.5 73.9C135 73.9 135.7 75.5 135.7 75.5V73.5C135.7 73.7 134.6 72.7 132.8 72.7ZM84.2 52.4H83C83 52.4 84.2 53.1 84.2 54.7V60.1C84.2 63.6 87.1 66.9 90.6 66.9H93.5C95.3 66.9 95.9 66.5 96.9 65.5L98 64.4C98.6 63.7 99.3 63.2 99.3 61.3V59.5C99.3 58 98.4 57.3 98 56.9L97 55.9V59.5C97 59.5 97.7 60.3 98.1 60.5C99.6 61.7 98.4 63.8 97 63.8H90.6H90.5C87.5 63.7 85.1 61.2 85 58.2V55.3C85 52.4 84.2 52.4 84.2 52.4ZM93.6 56.3L91.4 58.5C92.9 60 93.4 60.7 93.5 61.4C93.6 61.3 95.6 59.6 95.6 59C95.6 58.1 95 57.7 93.6 56.3ZM98.1 31.6L96.6 33.1C96 33.7 96.2 34.9 97.4 36.1V39.1C97.4 39.4 97.1 39.7 97.1 39.7C97.1 39.7 95.3 38.1 93.7 38.1H91.3C89.8 38.1 88.6 39.5 88.4 39.6C87.6 40.4 87.6 41.9 88.2 42.6L89.9 44.3C89.9 44.3 89.5 41.6 89.9 39.8C90 39.4 90.5 38.9 91 38.9L94.9 41.9L90.4 46.6C90.2 46.8 89.6 47.2 89 47.2C88.3 47.2 88 46.8 87.7 46.4V48.6C87.7 49.3 88.7 50.1 89.6 50.1H95.6C96 50.1 96.5 50 96.9 49.6L98.9 47.6C99.2 47.3 99.3 46.9 99.3 46.4V44.1C99.3 41.9 97.6 40.2 97.6 40.2C97.6 40.2 98 39.9 98 39V36.7C98 36.7 98.7 37.4 98.8 37.7L100.1 36.4C100.7 35.8 99.7 34.7 99.3 34.2C98.1 32.9 98.1 31.6 98.1 31.6ZM90.6 47.4C91.2 47.1 91.3 46.9 91.8 46.3L95.6 42.3C95.6 42.3 97.7 44.5 98.4 45.7C98.7 46.3 99.1 47.4 97.3 47.4H90.6ZM85.5 42.8H84.4C85.1 43.2 85.6 44.4 85.6 45.1V49.5C85.6 50.7 86.5 55 90.4 55H101.7V62.2C101.7 63.4 101.3 64.1 101 64.4L99.3 66H100.1L103.2 63.2C103.8 62.5 104.5 61.8 104.5 59.6V55L105.8 53.7L108 51.6C108 53.4 108.9 54.2 109.7 54.2C110.145 54.1716 110.567 53.9957 110.9 53.7L112.9 51.8C113.8 50.9 114.3 48.1 112.1 48.1C110.7 48.1 109.1 50.1 109 50.3C108.5 50 108.1 49.3 108.1 49.3V51C107.9 51.3 107 52 106.3 52H104.5V50.3C104.5 49.5 104.8 48.6 105.2 48.2L106.9 46.6H106.1L102.7 49.7C102.1 50.4 101.7 51.7 101.7 52H88.9C87.3 52 86.3 50.4 86.3 49.1V45.8C86.3 43.1 85.6 42.8 85.5 42.8ZM111.4 52.4C111.1 52.4 110.8 52.3 110.4 52C110 51.7 109.3 50.7 109.3 50.7C109.5 50.5 110.1 50.3 110.6 50.3C111 50.3 111.4 50.4 111.5 50.6C112.2 51.5 112.1 52.4 111.4 52.4ZM106.1 31.6L102.7 34.7C102.5 34.9 101.7 36.1 101.7 37.5V46.4C101.7 47 101.3 47.9 101 48.2L99.3 49.8H100.1L103.3 46.9C103.7 46.5 104.5 45.5 104.5 43.8V35.3C104.5 34 105.1 33.3 105.4 33L106.9 31.6H106.1ZM106.6 54.4V57.9L107.8 59.2C108.8 60.2 108.7 62.1 105.7 65C104.633 66.1435 103.162 66.8252 101.6 66.9H96.2L99.4 69.7H101.6C103.8 69.7 105.8 68.8 107.1 67.4C108.3 66.1 109 64.4 108.9 62.6V58C108.9 56.4 107.9 55.5 107.7 55.3C107.5 55.3 106.6 54.4 106.6 54.4Z" fill="#ED1B2F"/>
</svg>
