<svg width="196" height="118" viewBox="0 0 196 118" fill="none" xmlns="http://www.w3.org/2000/svg">
<g clip-path="url(#clip0_2363_1355)">
<path d="M68.3977 50.523C68.3977 50.523 60.4701 51.1135 56.1948 50.7201C56.1948 50.7201 55.6882 50.5801 55.5482 51.1697C55.5482 51.1697 55.2672 51.6201 55.7158 51.9297C56.1672 52.2382 57.4605 52.9973 57.4605 55.8097V61.2363C57.4605 61.2363 57.7129 64.2173 55.6605 65.3411C55.6605 65.3411 55.2396 65.482 55.4634 66.0725C55.4634 66.0725 55.4929 66.6078 56.0824 66.523C56.6729 66.4373 59.992 66.1849 64.5463 66.4944C64.5463 66.4944 64.9405 66.523 65.051 66.2697C65.1634 66.0173 65.1929 65.9897 65.1929 65.9897C65.1929 65.9897 65.5863 65.5944 64.9958 65.2011C64.4053 64.8078 63.4215 64.2173 63.3367 61.7135C63.251 59.2116 63.3367 59.1563 63.3367 59.1563H63.7034C63.7034 59.1563 64.9682 59.0439 65.811 60.9554C65.811 60.9554 67.4434 64.8906 67.6948 65.3697C67.9482 65.8478 68.4253 66.8592 70.1977 66.6906C71.9691 66.523 80.2348 65.9325 89.0082 66.7201C89.0082 66.7201 89.9643 66.8592 90.3291 65.9325C90.3291 65.9325 91.8482 61.8535 92.2129 61.2078C92.2129 61.2078 95.4196 61.123 97.1624 61.1516C97.1624 61.1516 97.8091 62.2478 97.8091 63.5687C97.8091 64.8906 96.6567 65.2011 96.6567 65.2011C96.6567 65.2011 96.1777 65.3973 96.4044 65.9897C96.4044 65.9897 96.4872 66.5506 97.0501 66.4944C97.612 66.4373 102.646 65.9601 110.237 66.4373C110.237 66.4373 110.744 66.6354 110.912 65.9601C110.912 65.9601 111.221 65.4259 110.686 65.1735C110.686 65.1735 108.689 64.7239 108.689 61.5459C108.689 58.3687 108.72 56.1201 108.72 56.1201C108.72 56.1201 110.237 58.2839 112.037 61.5182C113.837 64.7506 114.792 66.1297 114.792 66.1297C114.792 66.1297 115.692 67.8725 117.462 66.9449C119.235 66.0173 121.147 64.9478 122.244 64.1887C122.244 64.1887 122.665 63.9925 122.44 63.4582L122.272 63.1201C122.272 63.1201 122.244 62.923 121.652 62.8678C121.652 62.8678 120.33 63.1763 120.303 61.2916C120.275 59.4087 120.19 56.7373 120.303 54.0106C120.303 54.0106 120.36 52.323 121.905 51.8449C121.905 51.8449 122.467 51.7887 122.214 51.1135L122.045 50.7763C122.045 50.7763 122.045 50.4954 121.652 50.5516C121.26 50.6078 119.065 50.8049 116.731 50.6078C116.731 50.6078 116.226 50.6078 116.169 51.1697C116.169 51.1697 116.028 51.6763 116.421 51.8449C116.816 52.0135 118.196 52.5201 118.279 54.6859C118.362 56.8497 118.391 59.8582 118.391 59.8582C118.391 59.8582 115.185 55.1344 113.134 51.5078C113.134 51.5078 112.795 50.523 111.586 50.6078C110.378 50.6925 107.482 50.8325 105.373 50.6363C105.373 50.6363 104.781 50.5516 104.698 51.2278C104.698 51.2278 104.529 51.8173 105.036 52.0706C105.036 52.0706 106.722 53.1382 106.722 53.503C106.722 53.8697 106.693 61.3487 106.693 61.3487C106.693 61.3487 106.836 64.4135 106.019 64.0201C106.019 64.0201 105.541 64.3278 104.389 62.2211C103.236 60.1116 101.746 57.1039 99.3272 51.2554C99.3272 51.2554 98.8215 49.6239 97.7815 49.6239C97.7815 49.6239 97.1624 49.6535 96.5158 50.0163C95.8701 50.3839 93.8158 51.5363 91.6805 52.1535C91.6805 52.1535 91.1158 52.323 91.2863 52.8859C91.2863 52.8859 91.2015 53.3078 91.8205 53.5325C92.4386 53.7573 92.9729 54.0106 93.1405 54.3192C93.1405 54.3192 92.4948 56.4001 91.3129 58.5373C90.1329 60.6735 88.6148 64.2173 84.2567 64.2173H82.5405C82.5405 64.2173 82.092 64.2735 82.092 63.6535V59.1268H83.2148C83.2148 59.1268 85.0444 58.7344 85.9148 61.0963C85.9148 61.0963 86.0843 61.8268 86.7024 61.5459C86.7024 61.5459 87.4044 61.4611 87.3491 60.7582C87.292 60.0563 87.2367 58.1439 87.3786 56.4563C87.3786 56.4563 87.4339 55.9497 86.871 55.8373C86.871 55.8373 86.4215 55.6125 86.0844 55.9792C85.7472 56.3439 85.0443 57.2163 83.4405 57.2163H82.1196V52.9973C82.1196 52.9973 82.092 52.7173 82.2872 52.6897C82.4843 52.6601 84.9301 52.0706 86.3663 53.223C87.7986 54.3754 87.8834 54.8544 88.192 55.2754C88.192 55.2754 88.4739 55.9792 89.2043 55.5001C89.2043 55.5001 89.7682 55.4154 89.4863 54.5449C89.2044 53.6725 89.1205 53.363 88.6434 51.1697C88.6434 51.1697 88.5567 50.243 87.6015 50.3278C86.6463 50.4106 80.6577 51.1135 75.0339 50.663C75.0339 50.663 74.4434 50.523 74.331 51.143C74.331 51.143 74.0767 51.5649 74.5558 51.9582C74.5558 51.9582 76.2139 52.7173 76.2139 55.6401V60.5316C76.2139 60.5316 76.4958 64.4135 75.1186 64.4135C75.1186 64.4135 74.5272 64.6659 73.5167 62.6716C72.5043 60.6735 72.4472 60.6182 72.4472 60.6182C72.4472 60.6182 71.6301 58.002 68.1177 57.8897C68.1177 57.8897 72.9796 57.0744 72.532 53.4201C72.532 53.4201 72.4472 50.6363 68.792 50.523H68.3977ZM63.3091 57.4116V54.6573C63.3091 54.6573 63.3367 52.603 64.9682 52.603C66.5977 52.603 66.3929 54.5992 66.4063 54.8544C66.4205 55.1078 66.3177 57.4116 63.3091 57.4116ZM93.0577 59.2668C93.0577 59.2668 94.0977 56.8211 94.5472 56.1201C94.5472 56.1201 95.8129 57.862 96.2634 59.2963C96.2634 59.2963 94.8282 59.5211 93.0577 59.2668Z" fill="#002F87"/>
<path d="M147.437 60.478C147.437 60.478 147.549 64.1619 146.171 63.9076C146.171 63.9076 145.694 64.2171 144.54 62.1085C143.388 59.998 141.897 56.9914 139.478 51.1419C139.478 51.1419 138.973 49.5104 137.934 49.5104C137.934 49.5104 137.316 49.5399 136.668 49.9047C136.02 50.2704 133.97 51.4228 131.83 52.0419C131.83 52.0419 131.27 52.2114 131.437 52.7723C131.437 52.7723 131.353 53.1942 131.972 53.419C132.59 53.6447 133.125 53.8971 133.294 54.2066C133.294 54.2066 132.647 56.2866 131.465 58.4238C130.284 60.5609 129.245 63.6819 126.46 65.0895C126.46 65.0895 125.922 65.2018 126.096 65.8476C126.293 66.579 126.657 66.3819 126.657 66.3819C129.892 66.0447 130.875 66.3247 131.605 66.3819C132.337 66.4371 132.224 65.8476 132.224 65.8476C132.421 65.4818 132.169 65.2571 132.169 65.2571L131.86 64.8638C131.86 64.8638 130.65 64.5552 132.365 61.0961C132.365 61.0961 135.571 61.0123 137.316 61.0399C137.316 61.0399 137.961 62.1352 137.961 63.458C137.961 64.7799 136.809 65.0895 136.809 65.0895C136.809 65.0895 136.331 65.2847 136.556 65.8771C136.556 65.8771 136.639 66.4371 137.201 66.3819C137.764 66.3247 147.099 65.9323 154.693 66.4095C154.693 66.4095 155.226 66.4371 155.368 65.9599C155.368 65.9599 155.675 65.3695 155.14 65.0314C155.14 65.0314 153.651 64.3571 153.538 61.9676C153.425 59.578 153.454 55.0495 153.454 55.0495C153.454 55.0495 153.341 52.5199 154.945 51.7323C154.945 51.7323 155.368 51.5371 155.14 50.9723C155.14 50.9723 155.028 50.4399 154.522 50.4952C154.017 50.5514 148.704 50.8323 146.199 50.5228C146.199 50.5228 145.637 50.4952 145.525 50.9723C145.525 50.9723 145.244 51.4228 145.722 51.7876C146.199 52.1542 147.437 52.9971 147.437 55.6133V60.478ZM134.699 55.9219C136.218 58.0876 136.415 59.098 136.415 59.098C135.206 59.2952 133.21 59.0714 133.21 59.0714C133.798 57.498 134.699 55.9219 134.699 55.9219Z" fill="#002F87"/>
<path d="M169.818 50.2991C169.818 50.2991 163.632 51.0296 157.896 50.4686C157.896 50.4686 157.165 50.2696 157.081 51.0296C157.081 51.0296 157.025 51.5362 157.335 51.7334C157.644 51.9296 158.909 52.6886 158.993 55.3324C159.078 57.9753 159.135 57.2153 159.078 60.8143C159.078 60.8143 159.302 64.2734 157.335 65.1172C157.335 65.1172 156.828 65.2296 157.11 65.961C157.11 65.961 157.278 66.5229 157.756 66.3258C157.756 66.3258 162.366 66.0162 166.359 66.3543C166.359 66.3543 166.809 66.5229 166.95 65.9315C166.95 65.9315 167.316 65.5381 166.754 65.1172C166.191 64.6943 165.179 63.9639 165.066 62.1915C164.954 60.42 164.982 59.0153 164.982 59.0153H165.376C165.376 59.0153 166.698 58.8448 167.598 60.9277C168.498 63.0086 169.116 64.5258 169.116 64.5258C169.116 64.5258 169.705 66.1858 170.661 66.7191C170.661 66.7191 171.055 67.0839 172.518 66.9162C172.518 66.9162 174.906 66.7753 177.269 65.6791C177.269 65.6791 177.805 65.5667 177.636 64.9467C177.636 64.9467 177.748 64.4696 177.072 64.3286C176.399 64.1886 175.891 63.542 175.415 62.5867C174.935 61.6296 174.205 60.2239 174.205 60.2239C174.205 60.2239 173.22 57.7772 170.015 57.7505C170.015 57.7505 174.43 56.9905 174.43 53.6724C174.43 50.3543 170.493 50.2991 170.493 50.2991H169.818ZM164.982 57.3V54.5439C164.982 54.5439 165.039 52.4934 166.585 52.4934C168.131 52.4934 168.158 54.2324 168.077 54.7981C167.997 55.3648 167.851 57.3 164.982 57.3Z" fill="#002F87"/>
<path d="M55.3462 58.7251C55.3462 63.8718 51.1719 68.0441 46.0262 68.0441C40.8776 68.0441 36.7062 63.8718 36.7062 58.7251C36.7062 53.5775 40.8776 49.4051 46.0262 49.4051C51.1719 49.4051 55.3462 53.5775 55.3462 58.7251Z" fill="white"/>
<path d="M50.0296 53.1071C52.8687 53.9823 54.9315 56.6252 54.9315 59.7509C54.9315 60.2071 54.8877 60.6528 54.8048 61.0833L54.7944 61.1433C54.5772 62.369 54.0801 63.4995 53.3706 64.4633L53.3572 64.4785C54.6039 62.8928 55.3467 60.8928 55.3467 58.7214C55.3467 53.5709 51.1715 49.3957 46.021 49.3957C43.6753 49.3957 41.5325 50.2633 39.8925 51.6928L39.8725 51.7119C38.581 52.8957 37.7725 54.5995 37.7725 56.488C37.7725 57.2719 37.9115 58.0223 38.1648 58.7176L38.1782 58.749C38.8258 60.1719 40.2582 61.1585 41.9229 61.1585C44.1944 61.1585 46.0372 59.3185 46.0372 57.0471L46.0248 55.2776C46.0248 54.4633 46.4791 53.7547 47.1467 53.3928L47.1534 53.3871C47.6772 53.0995 48.2772 52.9357 48.9153 52.9357C49.3029 52.9357 49.6753 52.9947 50.0258 53.1071H50.0296Z" fill="#E1251B"/>
<path d="M38.8855 64.7215C40.5959 66.7577 43.1607 68.052 46.0293 68.052C48.375 68.052 50.5188 67.1862 52.1578 65.7567L52.1788 65.7377C53.4702 64.5539 54.2807 62.851 54.2807 60.9596C54.2807 60.1777 54.1407 59.4253 53.8855 58.732L53.8731 58.6996C53.2255 57.2777 51.7912 56.2891 50.1274 56.2891C47.8569 56.2891 46.015 58.132 46.015 60.4024L46.0264 62.172C46.0264 62.9862 45.5731 63.6929 44.9045 64.0577L44.8969 64.0634C44.374 64.35 43.774 64.5158 43.1359 64.5158C42.7483 64.5158 42.3759 64.4548 42.0245 64.3424L42.0216 64.3405C39.1826 63.4672 37.1197 60.8224 37.1197 57.6996C37.1197 57.2434 37.1636 56.7977 37.2464 56.3672L37.2569 56.3053C37.474 55.0796 37.9721 53.95 38.6807 52.9853L38.694 52.972C37.4474 54.5567 36.7045 56.5548 36.7045 58.7281C36.7045 60.2253 37.0578 61.6405 37.6855 62.8948L37.6083 62.952C37.6083 62.952 37.2436 63.232 36.5121 62.39C35.7807 61.5453 31.4788 56.3434 31.4788 56.3434C31.4788 56.3434 34.2064 53.4196 36.8778 52.2386C36.8778 52.2386 37.5807 52.0148 37.4121 51.3948L37.2997 51.03C37.2997 51.03 37.2721 50.6367 36.6531 50.7205C36.0331 50.8043 33.1102 51.03 30.1864 50.7491C30.1864 50.7491 29.7359 50.7491 29.5664 51.1139C29.5664 51.1139 29.2864 51.592 29.5664 51.8739C29.8483 52.1539 30.8616 52.8577 30.8616 53.812C30.8616 53.812 31.0855 54.5158 29.5388 55.6405C27.9921 56.7662 27.0369 57.4977 26.3893 57.8339L26.4169 55.191C26.4169 55.191 26.334 52.97 27.9359 51.9291C27.9359 51.9291 28.3293 51.7596 28.1883 51.3948L28.0769 51.1139C28.0769 51.1139 27.9921 50.6643 27.514 50.7205C27.514 50.7205 24.7302 51.03 19.1912 50.7777C19.1912 50.7777 18.8264 50.7491 18.6855 51.03L18.5731 51.2548C18.5731 51.2548 18.3759 51.7596 18.6855 51.9862C18.994 52.212 20.2883 52.97 20.3455 55.3034C20.3455 55.3034 20.4855 59.7177 20.2883 61.4329C20.0912 63.1491 19.9512 64.1329 18.5731 65.3415C18.5731 65.3415 18.2064 65.6224 18.3759 66.0443L18.5731 66.4091C18.5731 66.4091 18.714 66.691 19.1912 66.6348C19.6693 66.5786 23.1283 66.2415 27.514 66.5786C27.514 66.5786 27.8226 66.691 27.9645 66.3824L28.1616 65.9891C28.1616 65.9891 28.3845 65.5939 27.9645 65.2862C27.5416 64.9748 26.4169 64.0767 26.3893 62.3329C26.3626 60.59 26.3626 59.4929 26.3626 59.4929C26.3626 59.4929 27.1216 59.8024 31.1712 65.791C31.1712 65.791 32.6036 68.3786 35.6407 66.7758C35.6407 66.7758 37.8607 65.5672 38.7902 64.7796L38.8855 64.7215Z" fill="#002F87"/>
</g>
<defs>
<clipPath id="clip0_2363_1355">
<rect width="160" height="19.0476" fill="white" transform="translate(18 49.2)"/>
</clipPath>
</defs>
</svg>
