<svg width="196" height="118" viewBox="0 0 196 118" fill="none" xmlns="http://www.w3.org/2000/svg">
<g clip-path="url(#clip0_2363_1214)">
<path d="M37.6484 74.8149C46.5768 74.8149 53.8148 67.5769 53.8148 58.6485C53.8148 49.7201 46.5768 42.4822 37.6484 42.4822C28.72 42.4822 21.4821 49.7201 21.4821 58.6485C21.4821 67.5769 28.72 74.8149 37.6484 74.8149Z" fill="#FCDD53" stroke="#E42A2B" stroke-width="6"/>
<path d="M48.541 62.4437C47.9989 63.0844 47.506 63.4294 46.6188 63.5773H36.8599C36.367 63.3308 36.3177 62.9858 36.8599 62.7394H42.3801C42.873 62.7394 43.3165 62.5915 43.6616 62.1479C45.2881 59.9793 47.161 57.9092 48.5903 55.5434C47.9496 56.1349 47.5553 56.4799 46.6188 56.6277H39.8664C39.1764 56.6277 38.6342 56.8742 38.1906 57.4656C36.8599 59.1907 35.4798 60.8665 34.149 62.5915C30.6496 66.781 28.2345 57.5642 32.9661 59.0428C32.3254 58.2049 31.6354 57.4163 30.9946 56.5784C30.5018 56.0856 29.7624 56.0363 29.2696 56.5784C26.3123 60.3243 26.263 66.091 32.424 66.6331H45.5345C46.5202 65.2038 47.5553 63.8237 48.541 62.4437ZM46.5202 50.7132C46.0767 51.0582 45.7809 51.2061 45.0909 51.2061H39.1271C38.5356 51.2061 37.7963 51.4525 37.402 51.9454L33.6069 56.7756L34.6912 58.1556C35.1348 57.6135 35.5784 57.0713 36.022 56.5292C36.4656 56.0363 36.9584 55.8391 37.6485 55.8391H41.345C43.218 55.8391 45.6331 51.7975 46.5202 50.7132Z" fill="#478C3E"/>
<path fill-rule="evenodd" clip-rule="evenodd" d="M168.162 53.9662L165.895 62.2465H162.642L166.388 48.6431H169.69L172.401 56.8742L174.668 48.6431H177.921L174.126 62.2465H170.873L168.162 53.9662ZM155.052 57.4163H158.255L158.058 52.5369L155.052 57.4163ZM160.72 48.6431L161.804 62.2465H158.403L158.255 59.7329H153.77L152.242 62.2465H148.841L157.417 48.6431H160.72ZM145.835 51.3047H141.941L142.68 48.6431H153.672L152.932 51.3047H149.088L146.032 62.2465H142.828L145.835 51.3047ZM132.133 57.8599C132.133 59.3878 132.921 60.4229 134.647 60.1272C137.062 59.6343 136.864 56.677 134.006 56.3813C131.591 56.0856 130.359 54.1141 130.95 51.7975C131.985 49.5796 133.71 48.6431 136.224 48.3474H136.273C138.146 47.9531 140.955 48.446 141.251 50.8118C141.3 51.2061 141.399 51.9947 141.153 52.389H138.097C138.097 51.699 137.949 51.0582 137.259 50.8611C134.992 50.2203 132.133 52.8819 136.914 54.1141C138.146 54.4098 139.822 54.8534 140.167 56.2334C140.66 58.6485 139.23 60.9158 137.308 62.0001C135.534 62.7394 132.971 62.7887 131.147 62.4437C128.88 61.6551 128.436 60.2257 128.831 57.8599H132.133ZM129.866 48.6431C128.584 53.1776 127.352 57.7121 126.12 62.2465H122.867L126.613 48.6431H129.866ZM114.784 53.9662L121.043 48.6431H124.986L118.283 54.2619L121.684 62.2465H117.692L115.474 56.4799L113.699 57.9585L112.467 62.2465H109.263L113.059 48.6431H116.262L114.784 53.9662ZM102.363 54.0648H108.771L108.08 56.5292H101.722L100.885 59.585H108.179L107.489 62.2465H96.8922L100.638 48.6431H111.087L110.348 51.3047H103.152L102.363 54.0648ZM90.1398 51.1568L89.3512 54.0648H91.8156C92.7028 54.0648 93.5406 53.6705 93.8857 52.6354C94.0828 51.9947 93.9349 51.5018 93.2942 51.2554C92.4563 51.0089 91.0763 51.1568 90.1398 51.1568ZM88.6612 56.4306L87.774 59.7821C89.5976 59.7821 92.2099 60.3243 92.8999 58.0571C93.097 56.8742 92.2592 56.4306 91.2241 56.4306H88.6612ZM94.28 48.6431C95.9557 48.6431 97.7794 49.2839 97.4344 51.3047C97.1879 52.8819 95.8079 54.3605 94.3785 54.9027V55.0012C96.4486 55.0012 96.4486 57.7121 95.9557 59.0921C95.2164 61.2608 92.8999 62.2465 90.7312 62.2465H83.831L87.5768 48.6431H94.28ZM80.6766 51.354H74.4663L75.2549 48.6431H85.4082L84.7674 51.1568L75.7971 59.5357H82.8452L82.1552 62.2465H71.1148L71.9034 59.3878L80.6766 51.354ZM65.3481 48.6431C64.6088 51.3047 63.8202 53.9662 63.0809 56.5784C62.7852 57.9585 62.8344 60.275 64.8552 59.9793C66.4817 59.7821 67.7632 58.1064 68.1082 56.5784C68.7982 53.9662 69.4883 51.3047 70.2276 48.6431H73.4313C72.4455 52.2411 71.9034 57.1206 69.5868 60.275C67.9604 61.8522 66.4817 62.5422 64.0666 62.5422C60.1729 62.5422 59.2364 60.7679 59.7293 57.0713C60.4686 54.2619 61.2572 51.4525 62.0458 48.6431H65.3481Z" fill="#0F477F"/>
<path fill-rule="evenodd" clip-rule="evenodd" d="M151.355 71.6112L149.137 75.8499H146.968L146.771 68.9496H148.989L148.891 73.1884L151.059 68.9496H153.08L152.883 73.1884L155.101 68.9496H157.417L153.376 75.8499H151.158L151.355 71.6112ZM146.574 68.8018L146.131 70.4283H146.032C145.342 70.4283 145.194 70.379 144.553 70.6254C143.617 71.1676 143.173 71.9069 142.878 73.0405L142.138 75.8499H139.674L141.941 68.9496H143.913L143.617 69.8861C144.455 69.0975 145.49 68.8018 146.574 68.8018ZM138.54 67.9639L138.935 66.3374H141.103L140.66 67.9639H138.54ZM140.364 68.9496L138.491 75.8499H136.372L138.294 68.9496H140.364ZM163.431 76.9342C164.811 76.9342 164.712 76.9342 165.451 75.7513L164.416 68.9496H166.93L167.226 73.2377L169.493 68.9496H171.711L167.472 76.2442C166.338 78.0679 165.303 78.3143 163.036 78.3143L163.431 76.9342ZM170.725 73.5827H172.746C172.647 74.0263 172.647 74.2234 172.943 74.5684C173.682 75.1599 174.52 74.667 174.915 73.977C175.112 72.7448 172.697 73.1391 171.859 72.3012C171.662 72.0548 171.563 71.9069 171.563 71.5619C171.563 70.8719 171.76 70.2311 172.204 69.689C172.499 69.3932 172.844 69.1961 173.239 69.0482C173.879 68.8018 174.52 68.7525 175.161 68.7525C175.605 68.7525 175.95 68.7525 176.393 68.8018C177.625 68.9989 177.625 69.8861 177.625 70.8226H175.703L175.752 70.6254C175.752 69.9847 175.26 69.9847 174.816 69.9847C174.224 69.9847 173.781 70.2311 173.682 70.8719C173.682 71.1676 173.83 71.3154 174.077 71.414C175.851 71.7097 177.724 72.0548 176.985 74.0263C176.64 74.8642 175.999 75.4556 175.161 75.8006C174.619 75.9978 173.929 76.0471 173.337 76.0471C172.844 76.0471 172.352 76.0471 171.859 75.8992C171.415 75.702 171.119 75.5049 170.824 75.1599C170.528 74.5684 170.479 74.2727 170.577 73.5827H170.725ZM133.759 72.6462C132.872 72.6462 131.344 72.9912 131.049 73.9277C130.851 74.322 131.196 74.6177 131.541 74.7656C133.02 74.7656 133.266 73.7305 133.759 72.6462ZM129.964 71.1183C129.964 69.5411 132.034 68.9496 133.365 68.7525C134.647 68.7525 135.583 68.7032 136.224 69.8368C136.273 70.1818 136.322 70.379 136.273 70.724C136.027 71.9562 134.745 74.667 135.238 75.8006V75.8499H133.069V75.2585C128.683 78.4129 127.106 72.5969 131.64 72.0055C132.034 71.9069 134.203 71.7097 134.203 70.8719C134.203 69.4918 132.576 70.034 132.084 70.7733C132.084 70.8719 131.985 71.069 131.985 71.1183H129.964ZM161.065 72.6462C160.178 72.6462 158.65 72.9912 158.354 73.9277C158.157 74.322 158.502 74.6177 158.847 74.7656C160.325 74.7656 160.572 73.7305 161.065 72.6462ZM157.27 71.1183C157.27 69.5411 159.34 68.9496 160.67 68.7525C161.952 68.7525 162.888 68.7032 163.529 69.8368C163.578 70.1818 163.628 70.379 163.578 70.724C163.332 71.9562 162.05 74.667 162.543 75.8006V75.8499H160.375V75.2585C155.988 78.4129 154.411 72.5969 158.945 72.0055C159.34 71.9069 161.508 71.7097 161.508 70.8719C161.508 69.4918 159.882 70.034 159.389 70.7733C159.389 70.8719 159.29 71.069 159.29 71.1183H157.27Z" fill="#0F477F"/>
</g>
<defs>
<clipPath id="clip0_2363_1214">
<rect width="160" height="39.3143" fill="white" transform="translate(18 39)"/>
</clipPath>
</defs>
</svg>
