<svg width="196" height="119" viewBox="0 0 196 119" fill="none" xmlns="http://www.w3.org/2000/svg">
<g clip-path="url(#clip0_2363_1312)">
<path fill-rule="evenodd" clip-rule="evenodd" d="M65.3674 69.7553H76.1796C75.1531 68.045 74.5632 66.0428 74.5632 63.9033C74.5632 55.122 81.6815 48.0043 90.4634 48.0043L144.895 48.2555L142.086 58.0507H131.347L125.179 79.5509H113.624L119.789 58.0507H108.94C109.966 59.7613 110.556 61.7631 110.556 63.9034C110.556 72.6828 103.438 79.8017 94.6567 79.8017L94.3709 79.8L50.9999 79.5511L59.9745 48.2556H71.5324L65.3674 69.7553ZM85.9559 63.9037C85.9559 60.2566 88.9128 57.3006 92.5596 57.3006C96.2072 57.3006 99.164 60.2568 99.164 63.9037C99.164 67.5508 96.2075 70.5074 92.5596 70.5074C88.9126 70.5074 85.9559 67.551 85.9559 63.9037ZM91.0303 65.0399L94.7106 57.6582C95.1644 57.8796 95.4697 58.3633 95.4697 58.902C95.4697 59.1574 95.4015 59.3969 95.2792 59.601L92.1113 64.8735L93.1812 64.7084C93.2364 64.6998 93.2934 64.6958 93.3511 64.6958C93.9491 64.6958 94.4338 65.1812 94.4338 65.7792H97.4152L97.1471 65.4418H96.6019L96.4819 65.2767H98.0667C98.2377 65.5618 98.5419 65.7585 98.8935 65.7792L98.8424 65.9443H92.1396L94.9118 68.0716C95.2195 68.3073 95.4125 68.6833 95.4125 69.1008C95.4125 69.4603 95.2694 69.7915 95.034 70.0274L90.8787 65.9443H86.2776L86.2265 65.7792L91.0303 65.0399Z" fill="#1A3171"/>
<path fill-rule="evenodd" clip-rule="evenodd" d="M65.7287 39.8003H66.6098L65.3973 44.0291H64.5161L65.7287 39.8003ZM110.763 40.5049L110.965 39.8003H108.94C108.384 39.8003 107.809 40.0668 107.648 40.6296L107.456 41.3001C107.324 41.7601 107.587 42.1792 108.245 42.1792H109.233C109.373 42.1792 109.569 42.2578 109.458 42.6432L109.41 42.8131C109.32 43.1239 109.042 43.3246 108.788 43.3246H106.877L106.675 44.0291H108.795C109.354 44.0291 110.003 43.811 110.216 43.0705L110.366 42.5494C110.578 41.8116 110.051 41.4742 109.544 41.4742H108.613C108.482 41.4742 108.297 41.4417 108.372 41.1797L108.443 40.9337C108.538 40.6004 108.718 40.5049 108.969 40.5049H110.763ZM95.7761 39.7997H96.6571L95.4442 44.0291H94.5632L95.7761 39.7997ZM85.0807 39.7997H85.9622L84.7492 44.0291H83.8685L85.0807 39.7997ZM92.2531 39.7997H93.1339L92.1236 43.3246H94.0605L93.8586 44.0291H91.04L92.2531 39.7997ZM72.6925 39.8003L71.481 44.0291H72.3269L72.8073 42.3558H74.9563L74.4764 44.0291H75.322L76.5347 39.8003H75.6893L75.1583 41.6513H73.0088L73.5395 39.8003H72.6925ZM102.444 44.0291L103.657 39.8003H106.654L106.452 40.5049H104.261L103.983 41.4742L105.803 41.4738L105.601 42.1787H103.781L103.453 43.3246H105.643L105.441 44.0291H102.444ZM97.0301 44.0291L98.2418 39.7997H99.3459L100.232 42.9719C100.305 43.2325 100.305 43.3246 100.305 43.3246L101.317 39.7997H102.069L100.858 44.0291H99.7254L98.8655 40.8584C98.8038 40.6291 98.7976 40.4839 98.7976 40.4839L97.7832 44.0291H97.0301ZM70.8944 40.5049L71.0973 39.8003H69.0715C68.5163 39.8003 67.9413 40.0668 67.7797 40.6296L67.5878 41.3001C67.4557 41.7601 67.7194 42.1792 68.3769 42.1792H69.364C69.5052 42.1792 69.7007 42.2578 69.5895 42.6432L69.541 42.8131C69.4517 43.1239 69.1745 43.3246 68.9195 43.3246H67.0087L66.8065 44.0291H68.9276C69.4859 44.0291 70.1348 43.811 70.3482 43.0705L70.4979 42.5494C70.71 41.8116 70.183 41.4742 69.6753 41.4742H68.7448C68.6135 41.4742 68.4289 41.4417 68.5037 41.1797L68.5745 40.9337C68.6698 40.6004 68.8501 40.5049 69.1008 40.5049H70.8944ZM62.2056 39.7997H63.0864L62.0757 43.3246H64.013L63.8111 44.0291H60.9927L62.2056 39.7997ZM54.0855 40.5049C54.3623 40.5049 54.4079 40.742 54.364 40.8945L54.2238 41.3835C54.1088 41.7808 53.7491 41.9145 53.554 41.9145H52.4817L52.8861 40.5049H54.0855ZM52.2133 39.7997L50.9996 44.0291H51.8809L52.3083 42.5311H53.6428C54.0753 42.5311 54.8351 42.3201 55.018 41.6821L55.239 40.9112C55.4742 40.0911 54.7631 39.7997 54.4506 39.7997H52.2133ZM87.4684 39.8003H89.7061C90.0186 39.8003 90.7283 40.0905 90.4942 40.9107L90.3581 41.3859C90.1671 42.0535 89.3521 42.1193 89.3521 42.1193C90.0007 42.3871 90.0233 42.5446 89.9418 43.1481C89.861 43.7516 89.9473 43.9963 89.9841 44.0291H89.1846C89.1846 44.0291 89.0207 43.8015 89.1335 43.2099C89.2682 42.4988 89.0568 42.4468 88.8603 42.4429H87.5872L87.1358 44.0291H86.255L87.4684 39.8003ZM89.3407 40.5049C89.6175 40.5049 89.6627 40.742 89.6194 40.8945L89.4792 41.3835C89.3823 41.6489 89.0575 41.7375 88.8619 41.7375H87.7899L88.1416 40.5049H89.3407ZM82.8106 44.0291L82.3706 39.8003H81.4012L78.4942 44.0291H79.4303L79.9875 43.1474L81.8935 43.1481L81.9303 44.0291H82.8106ZM81.8669 42.5137L81.783 40.5041C81.779 40.4094 81.7973 40.2863 81.7973 40.2863L81.663 40.5049L80.3883 42.5142L81.8669 42.5137ZM57.1879 43.324H58.3836C58.7017 43.324 59.0702 43.0666 59.1956 42.6297L59.6257 41.1293C59.7338 40.7539 59.4171 40.5103 59.2234 40.5108L58.0069 40.5132C57.6695 40.5139 57.3058 40.7943 57.2112 41.1238L56.8021 42.5489C56.6486 43.084 56.9565 43.324 57.1879 43.324ZM58.096 39.8058H59.2836C59.9037 39.8058 60.6296 40.3706 60.4247 41.0858L59.9132 42.8713C59.7148 43.5632 58.963 44.0291 58.2638 44.0291H57.331C56.4407 44.0291 55.7595 43.3881 56.0005 42.5489L56.468 40.9183C56.6664 40.2269 57.3996 39.8058 58.096 39.8058Z" fill="#1A3171"/>
</g>
<defs>
<clipPath id="clip0_2363_1312">
<rect width="93.8923" height="40" fill="white" transform="translate(51 39.8)"/>
</clipPath>
</defs>
</svg>
