<svg width="196" height="118" viewBox="0 0 196 118" fill="none" xmlns="http://www.w3.org/2000/svg">
<g clip-path="url(#clip0_2363_1335)">
<path fill-rule="evenodd" clip-rule="evenodd" d="M53.0085 74.5188C52.708 74.538 52.4127 74.555 52.1122 74.555C51.77 74.555 51.4385 74.5273 51.0911 74.5188L52.0897 72.1093L53.0085 74.5188ZM54.1137 77.2523C54.2917 77.2438 54.5645 77.1968 54.8372 77.1968C55.1102 77.1968 55.4555 77.2438 55.6025 77.2523C55.1602 76.306 54.5175 74.8268 54.1415 73.97C53.7907 73.1493 53.2035 71.7745 52.7335 70.4393C52.6327 70.4705 52.5277 70.4875 52.4222 70.4893C52.312 70.4885 52.2025 70.4715 52.0972 70.4393C51.577 71.9005 50.9804 73.3333 50.3099 74.732L49.1748 77.2555C49.3197 77.227 49.4664 77.2083 49.6139 77.2C49.7727 77.2085 49.9307 77.227 50.0871 77.2555C50.3089 76.5338 50.5689 75.8245 50.8662 75.1305C51.2552 75.1113 51.6506 75.091 52.046 75.091C52.4637 75.091 52.872 75.1103 53.2952 75.1305L53.7065 76.1705L54.1137 77.2523Z" fill="#747F8A"/>
<path d="M56.4637 72.7965C56.4637 74.474 56.4637 76.0907 56.3572 77.2532C56.5702 77.2447 56.8495 77.198 57.0605 77.198C57.2715 77.198 57.52 77.2447 57.7427 77.2532C57.6702 76.4657 57.6457 75.4065 57.6457 73.9422C57.621 72.808 57.6567 71.673 57.7522 70.5425C57.5212 70.572 57.289 70.5897 57.0562 70.596C56.9145 70.596 56.547 70.5627 56.3605 70.5425C56.4347 71.2915 56.467 72.044 56.4572 72.7965" fill="#747F8A"/>
<path fill-rule="evenodd" clip-rule="evenodd" d="M62.285 73.923C62.7442 73.8882 63.1735 73.683 63.489 73.3477C63.8047 73.0127 63.9835 72.5715 63.9902 72.1113C63.9922 71.9085 63.9535 71.7072 63.8767 71.5195C63.7997 71.3317 63.6862 71.1612 63.5427 71.018C63.3335 70.8357 63.0885 70.699 62.8235 70.6167C62.5587 70.5342 62.2795 70.508 62.0037 70.5395C61.7757 70.5395 60.6405 70.5842 60.39 70.5842C60.062 70.586 59.734 70.571 59.4075 70.5395C59.48 71.8022 59.48 71.9355 59.48 73.2217C59.48 75.1047 59.4692 75.319 59.3882 77.25C59.6132 77.2175 59.84 77.199 60.0672 77.1947C60.3122 77.1947 60.5265 77.2342 60.7237 77.25C60.7237 76.9942 60.6842 75.7335 60.6842 75.4502V74.0595H60.9155C61.4485 74.8055 62.0537 75.6707 62.5515 76.4412C62.6985 76.6692 62.9192 77.0305 63.063 77.2532C63.3252 77.211 63.5905 77.1925 63.856 77.198C64.1472 77.1997 64.4377 77.2182 64.7267 77.2532C64.1117 76.4827 63.8442 76.1375 63.0717 75.0557C62.9212 74.8428 62.7102 74.523 62.56 74.3215L62.285 73.924M60.6865 71.067C60.8312 71.053 61.1927 71.0222 61.376 71.0222C61.6977 70.9995 62.018 71.0847 62.2862 71.264C62.436 71.3842 62.5525 71.5405 62.6252 71.7182C62.6977 71.8957 62.7237 72.089 62.7007 72.2797C62.7137 72.4597 62.688 72.6405 62.6255 72.8097C62.5627 72.979 62.4647 73.133 62.3377 73.2612C62.2107 73.3895 62.0577 73.489 61.8892 73.5535C61.7205 73.6177 61.5402 73.6452 61.36 73.6342C61.1062 73.6342 60.873 73.615 60.6865 73.6032V71.067Z" fill="#747F8A"/>
<path d="M67.387 74.961C66.9277 73.6032 66.2882 71.6945 65.9845 70.5425C65.7585 70.5762 65.5307 70.594 65.3022 70.596C65.0657 70.596 64.7322 70.5627 64.537 70.5425C64.9347 71.5997 65.2832 72.5322 65.5442 73.2805C65.9982 74.5517 66.2902 75.4362 66.6462 76.5105L66.8882 77.2565C67.02 77.2265 67.154 77.208 67.289 77.201C67.4152 77.2032 67.5405 77.222 67.662 77.2565C67.8155 76.747 68.002 76.1267 68.1405 75.7155C68.522 74.603 68.5667 74.4527 69.073 73.062L69.3652 72.2435C69.4717 72.5577 69.6602 73.062 69.7657 73.3677C69.8715 73.6737 70.3755 75.171 70.4895 75.5077C70.6537 75.95 70.6815 76.0692 71.046 77.2575C71.1867 77.2312 71.3292 77.2127 71.4722 77.2022C71.6035 77.2075 71.7337 77.2262 71.8612 77.2575C72.2342 76.095 72.2705 75.9787 72.8205 74.4057C73.363 72.8807 73.6965 72.0132 74.2815 70.5467C74.1385 70.5815 73.992 70.5995 73.8447 70.6002C73.6917 70.5995 73.5395 70.5815 73.3905 70.5467C73.0367 71.813 72.8577 72.43 72.5837 73.273C72.1245 74.6392 72.0605 74.8032 71.7822 75.546C71.4625 74.7062 71.162 73.8495 70.8807 72.9885C70.7165 72.5185 70.124 70.565 70.1187 70.5457C69.9752 70.579 69.8287 70.5967 69.6817 70.599C69.5382 70.594 69.3955 70.576 69.2552 70.5457C68.9602 71.734 67.9252 74.6157 67.823 74.88L67.581 75.5195L67.3945 74.9662" fill="#747F8A"/>
<path fill-rule="evenodd" clip-rule="evenodd" d="M77.2648 74.5187C76.959 74.538 76.6723 74.555 76.3663 74.555C76.021 74.555 75.6875 74.5272 75.3453 74.5187L76.347 72.1092L77.2648 74.5187ZM78.372 77.248C78.547 77.2395 78.8263 77.1925 79.0925 77.1925C79.359 77.1925 79.716 77.2395 79.8578 77.248C79.4208 76.3017 78.7698 74.8225 78.3968 73.9657C78.0428 73.145 77.4588 71.7702 76.9855 70.435C76.8865 70.4665 76.7835 70.4832 76.6798 70.485C76.5695 70.4845 76.4598 70.4677 76.3545 70.435C76.1148 71.2385 75.5478 72.51 74.563 74.7245L73.431 77.248C73.5753 77.2195 73.7213 77.201 73.868 77.1925C74.0268 77.2012 74.185 77.2197 74.3413 77.248C74.5643 76.5262 74.8255 75.817 75.1235 75.123C75.5105 75.1037 75.9028 75.0835 76.296 75.0835C76.716 75.0835 77.122 75.1027 77.543 75.123L77.9608 76.163L78.372 77.248Z" fill="#747F8A"/>
<path d="M82.4818 74.6295C82.499 74.5188 82.5408 74.413 82.6043 74.3205C83.0223 73.614 83.4028 72.8765 83.8365 72.1668C83.9868 71.9388 84.7018 70.8005 84.852 70.5415C84.7195 70.5813 84.5813 70.5993 84.4428 70.5948C84.25 70.5925 84.0575 70.5748 83.8673 70.5415C83.3783 71.679 82.8138 72.7828 82.178 73.8453C81.3403 72.3905 80.9705 71.6168 80.4675 70.5415C80.2013 70.5795 79.9328 70.5973 79.6638 70.5948C79.4508 70.5948 79.2248 70.5758 78.8538 70.5415C79.3655 71.3878 80.2 72.7423 80.704 73.6023L81.2795 74.5988C81.2795 75.2083 81.2488 76.4903 81.221 77.2523C81.4043 77.2353 81.675 77.1968 81.869 77.1968C82.0938 77.1968 82.323 77.2363 82.548 77.2523C82.5118 76.3453 82.4808 75.8135 82.4808 74.9878V74.6285" fill="#747F8A"/>
<path d="M85.417 75.787C85.3972 76.1648 85.3192 76.537 85.1857 76.891C85.7497 77.2038 86.3805 77.3768 87.0252 77.395C87.3325 77.4358 87.645 77.4108 87.942 77.322C88.239 77.233 88.5137 77.082 88.748 76.879C88.9822 76.676 89.1707 76.4258 89.3012 76.1445C89.4315 75.8633 89.5007 75.5575 89.5042 75.2478C89.5082 74.7733 89.3402 74.3138 89.031 73.954C88.6492 73.611 88.19 73.3655 87.6925 73.2388C86.8397 72.9075 86.3377 72.706 86.3377 71.9983C86.3335 71.8505 86.361 71.7033 86.4185 71.5668C86.4762 71.4305 86.5622 71.308 86.6712 71.2078C86.78 71.1075 86.9092 71.0318 87.05 70.9858C87.1907 70.9398 87.3397 70.9248 87.4867 70.9413C87.7655 70.9145 88.045 70.9848 88.2777 71.14C88.5107 71.2953 88.6832 71.5263 88.7657 71.7938H88.9065C88.9785 71.476 89.0807 71.1658 89.2122 70.8678C88.7112 70.6028 88.1535 70.4635 87.587 70.4615C85.8112 70.4615 85.303 71.5635 85.303 72.4225C85.2792 72.8095 85.3887 73.193 85.6135 73.509C85.8385 73.8248 86.1647 74.0543 86.5382 74.1585C86.8077 74.265 87.2725 74.4538 87.5485 74.5645C87.8217 74.6638 88.0505 74.858 88.1925 75.1115C88.3347 75.3653 88.381 75.6615 88.323 75.9463C88.265 76.2313 88.1065 76.4858 87.8765 76.6638C87.6465 76.8415 87.3605 76.931 87.07 76.9155C86.4945 76.9155 86.0042 76.7653 85.545 75.7913H85.4137" fill="#747F8A"/>
<path fill-rule="evenodd" clip-rule="evenodd" d="M31.0255 57.6977C31.0255 50.2975 34.9902 48.3057 37.9893 48.3057C42.8024 48.3057 44.8892 52.2978 44.8892 56.5542C45.0362 58.8458 44.5157 61.1309 43.3907 63.1328C42.8141 64.0352 42.0207 64.779 41.0827 65.2962C40.1448 65.8132 39.0923 66.0872 38.0213 66.0932C32.5858 66.0932 31.0265 60.9246 31.0265 57.6913M45.6555 72.8242C46.6885 72.1217 47.7804 71.5102 48.919 70.9965L42.277 66.882C46.359 65.4465 48.9158 61.8049 48.9158 56.8473C48.9158 49.7977 43.54 46.8009 38.0447 46.8009C32.1104 46.8009 26.9968 50.0897 26.9968 57.5421C26.9659 60.1842 27.9812 62.7314 29.8211 64.628C30.8959 65.661 32.1748 66.458 33.5758 66.968C34.9767 67.4777 36.4688 67.6892 37.9563 67.5885C38.276 67.5885 38.6022 67.5885 38.924 67.5607L45.6555 72.8242Z" fill="#5C0632"/>
<path fill-rule="evenodd" clip-rule="evenodd" d="M62.6188 58.9861C61.701 59.0469 60.824 59.1034 59.9148 59.1034C58.8853 59.1034 57.8898 59.0202 56.8655 58.9861L59.8498 51.7639L62.6155 58.9861M65.9323 67.1825C66.4555 67.1515 67.2848 67.0045 68.1 67.0045C68.9153 67.0045 69.9588 67.1515 70.3925 67.1825C69.0763 64.3305 67.1378 59.8994 66.0228 57.3396C64.9623 54.8747 63.1985 50.7632 61.7938 46.7402C61.1733 46.9405 60.5055 46.9405 59.885 46.7402C59.1783 49.1518 57.4698 52.966 54.507 59.6042L51.0964 67.1825C51.534 67.0877 51.9784 67.0277 52.4255 67.0035C52.9003 67.0285 53.3725 67.088 53.8388 67.1812C54.505 65.016 55.2878 62.8884 56.1835 60.8074C57.3558 60.7467 58.5378 60.6902 59.7005 60.6902C60.9635 60.6902 62.1988 60.7456 63.4595 60.8074L64.6948 63.9203L65.9323 67.1825Z" fill="#5C0632"/>
<path d="M78.9667 52.2925C78.9667 51.1767 78.9997 50.0609 79.0307 49.0016C81.0557 49.0016 83.132 49.0293 84.868 49.2147C84.7842 48.868 84.735 48.5139 84.721 48.1575C84.7405 47.7816 84.7897 47.4078 84.868 47.0396C82.047 47.1867 79.4645 47.2176 77.0217 47.2176C74.7675 47.2176 71.5105 47.1867 69.1807 47.0396C69.2767 47.3928 69.3282 47.7565 69.3342 48.1224C69.3302 48.4898 69.281 48.8552 69.1872 49.2105C70.6867 49.0634 73.511 48.9973 73.7775 48.9973H75.2387C75.275 50.1461 75.3027 51.1724 75.3027 52.2584L75.3302 60.4515C75.3302 62.683 75.1525 64.9497 75.033 67.1782C75.6945 67.0845 76.3605 67.025 77.0282 67.0002C77.382 67.0002 78.3305 67.0865 79.1842 67.1782C79.0232 65.8435 78.952 64.4995 78.971 63.1552V52.285" fill="#5C0632"/>
<path fill-rule="evenodd" clip-rule="evenodd" d="M95.314 58.9861C94.4038 59.0469 93.5245 59.1034 92.6153 59.1034C91.5838 59.1034 90.5903 59.0202 89.5575 58.9861L92.5483 51.7639L95.314 58.9861ZM98.6308 67.1825C99.1635 67.1515 99.9853 67.0045 100.812 67.0045C101.64 67.0045 102.659 67.1515 103.096 67.1825C101.78 64.3305 99.835 59.8994 98.7265 57.3396C97.6693 54.8747 95.9023 50.7632 94.5008 46.7402C94.195 46.8348 93.8775 46.8854 93.5575 46.8904C93.2265 46.8869 92.898 46.8363 92.5813 46.7402C91.8853 49.1518 90.1768 52.966 87.214 59.6042L83.8035 67.1825C84.2368 67.089 84.677 67.0295 85.1198 67.0045C85.5938 67.0292 86.0655 67.0887 86.5308 67.1825C87.2045 65.0187 87.9893 62.8913 88.882 60.8085C90.0543 60.7477 91.233 60.6912 92.4098 60.6912C93.6725 60.6912 94.9078 60.7467 96.1708 60.8085L97.403 63.9214L98.6308 67.1825Z" fill="#5C0632"/>
<path fill-rule="evenodd" clip-rule="evenodd" d="M114.923 57.1947C117.6 56.6991 120.032 55.0217 120.032 51.7596C120.039 51.1492 119.924 50.5435 119.693 49.9785C119.462 49.4135 119.119 48.9008 118.686 48.4709C117.425 47.2634 115.984 47.03 114.082 47.03C113.397 47.03 109.997 47.1771 109.227 47.1771C108.247 47.18 107.267 47.1309 106.292 47.03C106.497 50.8197 106.497 51.231 106.497 55.0782C106.497 60.7424 106.466 61.3882 106.236 67.177C106.906 67.0707 107.583 67.0112 108.261 66.9992C108.92 67.0227 109.577 67.082 110.229 67.177C110.229 66.4152 110.109 62.6255 110.109 61.7719V57.6028H110.816C112.402 59.8408 114.226 62.4273 115.724 64.743C116.163 65.4187 116.812 66.51 117.249 67.1857C118.035 67.0582 118.831 66.9985 119.628 67.0077C120.503 67.0132 121.376 67.0727 122.243 67.1857C120.388 64.8625 119.597 63.8393 117.277 60.5783C116.84 59.9634 116.189 58.9925 115.755 58.3776L114.926 57.2053M110.109 48.6307C110.555 48.6062 111.642 48.4858 112.199 48.4858C113.164 48.4271 114.121 48.6849 114.926 49.22C115.374 49.5818 115.723 50.0519 115.94 50.5859C116.157 51.1198 116.234 51.7002 116.164 52.2722C116.201 52.8121 116.123 53.3537 115.934 53.8607C115.744 54.3677 115.449 54.8284 115.067 55.2119C114.685 55.5954 114.226 55.8929 113.72 56.0843C113.214 56.2757 112.672 56.3567 112.132 56.3219C111.372 56.3219 110.666 56.2633 110.107 56.2388L110.109 48.6307Z" fill="#5C0632"/>
<path d="M93.8113 76.1962H92.6143C92.6143 76.1962 92.4448 75.4502 92.8818 75.1667C93.1805 74.979 93.491 74.8107 93.8113 74.6625V76.195M99.5483 73.4105C99.1238 73.6567 98.72 73.9367 98.3408 74.248C97.8868 74.6595 98.4473 74.8127 98.4473 74.8127V76.193H94.943V71.3632C94.943 71.3632 93.664 72.5355 93.5405 72.6952C93.4168 72.8552 93.8463 73.0097 93.8463 73.0097L93.7738 73.4637C93.387 73.6752 93.0115 73.9062 92.6483 74.1565C92.0388 74.5625 91.5825 75.091 91.5825 75.4555C91.5825 75.82 91.4238 77.2555 91.4238 77.2555H99.5483V73.4105ZM92.301 71.6467C92.6985 71.6467 92.9798 71.4825 92.9798 71.1682C92.9798 70.8537 92.7933 70.6352 92.301 70.6352C91.8555 70.6352 91.7328 70.8185 91.7328 71.1682C91.7328 71.5177 91.8885 71.6497 92.2978 71.6497L92.301 71.6467ZM93.7868 71.6467C94.196 71.6467 94.4655 71.4825 94.4655 71.1682C94.4655 70.8537 94.277 70.6352 93.7868 70.6352C93.3498 70.6352 93.2303 70.8185 93.2303 71.1682C93.2303 71.5177 93.3828 71.6497 93.7835 71.6497L93.7868 71.6467ZM96.0515 77.6647C95.6178 77.6647 95.495 77.8512 95.495 78.204C95.495 78.5567 95.6453 78.6825 96.0515 78.6825C96.4575 78.6825 96.7388 78.5237 96.7388 78.204C96.7388 77.8842 96.5513 77.668 96.0483 77.668L96.0515 77.6647ZM97.6043 77.6647C97.1653 77.6647 97.0448 77.8512 97.0448 78.204C97.0448 78.5567 97.2035 78.6825 97.6043 78.6825C98.005 78.6825 98.2918 78.5237 98.2918 78.204C98.2918 77.8842 98.0988 77.668 97.6 77.668L97.6043 77.6647ZM115.105 71.5497C115.502 71.5497 115.792 71.391 115.792 71.0765C115.792 70.7622 115.606 70.5437 115.105 70.5437C114.671 70.5437 114.548 70.727 114.548 71.0765C114.548 71.426 114.701 71.553 115.101 71.553L115.105 71.5497ZM116.654 71.5497C117.055 71.5497 117.333 71.391 117.333 71.0765C117.333 70.7622 117.147 70.5437 116.654 70.5437C116.217 70.5437 116.098 70.727 116.098 71.0765C116.098 71.426 116.245 71.553 116.651 71.553L116.654 71.5497ZM120.933 71.6807C120.72 71.8705 120.778 72.0985 121.056 72.0622V77.2565H122.208V70.7982C122.208 70.7982 121.147 71.4922 120.93 71.683L120.933 71.6807ZM116.309 74.5987H115.563C115.563 74.184 116.309 73.9592 116.309 73.9592V74.5987ZM111.406 75.4512C111.406 75.6377 111.398 75.9435 111.387 76.1972H104.886V75.057C105.053 74.6177 105.342 74.5612 105.788 74.5612H110.54C111.562 74.5602 111.406 75.0995 111.406 75.4532V75.4512ZM119.011 72.0622V76.194H117.458V72.4427C117.458 72.4427 117.144 72.5652 116.718 72.7572C116.293 72.949 114.721 73.583 114.721 74.4397V75.4245H116.309V76.195H112.55C112.55 76.014 112.558 75.7495 112.558 75.3552C112.556 75.0992 112.502 74.8465 112.4 74.6117C112.298 74.377 112.15 74.1647 111.965 73.988C111.78 73.8112 111.561 73.6732 111.322 73.5825C111.083 73.4915 110.828 73.4492 110.572 73.4582H106.223C105.986 73.4317 105.746 73.4522 105.517 73.5185C105.288 73.585 105.074 73.696 104.888 73.8452V70.6737C104.888 70.6737 104.212 71.1467 103.716 71.5262C103.219 71.9057 103.716 72.1582 103.716 72.1582V76.1982H102.289L102.258 72.7347L100.979 73.6725C100.697 73.8952 100.856 74.0902 101.162 74.0902C101.162 74.0902 101.107 76.648 101.107 77.2565C101.109 77.442 101.065 77.625 100.976 77.788C100.888 77.951 100.759 78.0885 100.603 78.1875C100.446 78.2862 100.266 78.3432 100.081 78.3527C99.8955 78.362 99.7113 78.3237 99.545 78.2412C99.545 78.2412 99.2115 78.3082 99.4898 78.561C99.7545 78.821 100.104 78.977 100.475 79C100.705 79.0025 100.933 78.9592 101.146 78.8722C101.359 78.7855 101.553 78.6567 101.715 78.4942C101.878 78.3315 102.007 78.1377 102.094 77.9247C102.181 77.7117 102.224 77.4835 102.221 77.2532H120.146V70.7897C120.146 70.7897 119.097 71.4857 118.874 71.6775C118.652 71.8695 118.729 72.0952 119.011 72.0645V72.0622Z" fill="#5C0632"/>
<path d="M142.78 66.3257C141.951 66.6202 141.086 66.7995 140.209 66.8585C139.274 66.9037 138.369 67.203 137.59 67.7237C139.569 67.6845 141.659 67.646 143.728 67.5992C143.578 67.386 143.141 66.7465 143.141 66.7465C143.044 66.594 142.932 66.4512 142.807 66.3202L142.78 66.3287M130.877 51.6754C133.456 51.6754 138.195 51.6147 142.871 51.5081C143.414 51.0818 143.96 50.6556 144.535 50.2229C139.346 50.0865 133.757 50.0097 130.877 50.0097C129.669 50.0097 128.687 50.3881 128.687 50.8442C128.687 51.3003 129.669 51.6786 130.877 51.6786M131.623 47.6449C131.623 48.0062 132.394 48.3046 133.34 48.3046C136.284 48.3046 142.811 48.198 147.577 48.035C147.938 47.7878 148.289 47.5341 148.634 47.2954C143.832 47.1089 136.507 46.9863 133.34 46.9863C132.394 46.9863 131.623 47.2805 131.623 47.6449ZM152.785 56.7546C153.406 57.1161 154.058 57.4225 154.733 57.67C156.113 57.699 157.492 57.5587 158.839 57.2522C158.839 57.0743 156.358 56.8984 152.785 56.7546ZM129.402 54.9855C131.577 54.9855 135.142 54.9439 139.021 54.8789C139.58 54.3461 140.181 53.8047 140.816 53.2537C136.255 53.1589 131.912 53.1035 129.403 53.1035C128.028 53.1035 126.927 53.5297 126.927 54.0498C126.927 54.5699 128.029 54.9898 129.403 54.9898M154.197 50.5969C153.815 50.7888 153.462 50.9838 153.1 51.1724C154.112 51.2007 155.124 51.0932 156.107 50.8527C155.488 50.6679 154.843 50.5823 154.197 50.5991M137.248 45.5551C140.042 45.5551 148.536 45.342 148.536 45.0905C148.536 44.839 140.033 44.6226 137.248 44.6226C136.706 44.6226 136.26 44.8358 136.26 45.0905C136.26 45.3452 136.706 45.5551 137.248 45.5551ZM155.537 53.9592C155.497 54.0953 155.44 54.2259 155.368 54.3482C156.211 54.3722 157.054 54.268 157.866 54.0392C157.131 53.82 156.365 53.7196 155.598 53.7418L155.537 53.9592ZM144.981 69.4417C139.669 69.3022 133.838 69.2285 130.877 69.2285C129.669 69.2285 128.687 69.5985 128.687 70.063C128.687 70.5277 129.669 70.8952 130.877 70.8952C133.996 70.8952 140.289 70.8037 145.826 70.648C145.537 70.2592 145.261 69.85 144.98 69.446M147.487 72.8722C142.733 72.708 136.26 72.6047 133.337 72.6047C132.39 72.6047 131.62 72.8967 131.62 73.258C131.62 73.6192 132.39 73.9145 133.337 73.9145C136.403 73.9145 143.364 73.808 148.166 73.6257C147.941 73.3837 147.719 73.128 147.487 72.8722ZM136.26 75.8092C136.26 76.065 136.706 76.2792 137.248 76.2792C140.033 76.2792 148.536 76.0662 148.536 75.8092C148.536 75.5525 140.042 75.3415 137.248 75.3415C136.706 75.3415 136.26 75.5545 136.26 75.8092ZM131.237 64.6365C131.295 64.3535 131.418 64.0877 131.596 63.8606C131.572 63.9022 131.552 63.9331 131.586 63.8745C131.775 63.5548 132.033 63.1402 132.339 62.6703C130.873 62.6564 129.593 62.6426 128.578 62.6426C127.132 62.6426 125.952 63.0965 125.952 63.6464C125.952 64.1962 127.132 64.6535 128.578 64.6535C129.332 64.6535 130.223 64.6482 131.243 64.6365M133.393 67.775C133.032 67.433 131.844 66.0612 131.697 65.925C130.823 65.9195 130.044 65.9195 129.401 65.9195C128.026 65.9195 126.925 66.3372 126.925 66.8627C126.925 67.3882 128.027 67.8027 129.401 67.8027C130.45 67.8027 131.816 67.792 133.393 67.775ZM133.21 61.4319C133.636 60.8394 134.138 60.1904 134.715 59.4849C132.141 59.4454 129.893 59.4295 128.32 59.4295C126.845 59.4295 125.646 59.8888 125.646 60.4504C125.646 61.012 126.845 61.4713 128.32 61.4713C129.583 61.4713 131.272 61.4575 133.214 61.4319M128.588 58.2551C130.335 58.2551 132.906 58.2306 135.835 58.1826C136.353 57.5933 136.92 56.9837 137.532 56.3411C133.923 56.2824 130.673 56.2462 128.59 56.2462C127.144 56.2462 125.964 56.6938 125.964 57.248C125.964 57.8021 127.144 58.2551 128.59 58.2551" fill="#747F8A"/>
<path d="M159.112 59.6927C159.131 60.2043 159.131 60.7104 159.103 61.2007C154.154 61.3978 149.465 61.6984 149.465 62.0266C149.465 62.3548 154.048 62.6554 158.936 62.8525C158.85 63.4088 158.739 63.9651 158.611 64.5075C153.793 64.711 149.318 65 149.318 65.3228C149.318 65.6458 153.497 65.9185 158.11 66.1157C157.907 66.7007 157.668 67.273 157.395 67.8293C153.42 68.0243 150.141 68.2747 150.141 68.553C150.141 68.814 153.012 69.0537 156.624 69.2402C156.419 69.5653 156.207 69.8915 155.985 70.1995C155.751 70.5278 155.501 70.859 155.223 71.182C152.967 71.3568 151.414 71.5498 151.414 71.7523C151.414 71.9548 152.53 72.106 154.238 72.2562C153.239 73.2442 152.115 74.0988 150.897 74.799C149.893 73.9173 148.958 72.9605 148.1 71.9365C146.979 70.5618 144.583 66.9428 144.025 66.1305C143.466 65.3185 143.087 65.084 142.426 65.3207C141.71 65.5728 140.965 65.7308 140.208 65.7908C139.888 65.7908 139.712 65.666 140.244 65.457C141.787 64.821 143.07 63.6819 143.884 62.2248C145.036 59.9357 144.024 56.7801 144.024 56.7801C143.876 57.6727 143.428 58.4879 142.752 59.0895C142.908 58.4068 142.918 57.6988 142.78 57.0121C142.643 56.3254 142.361 55.6757 141.954 55.1059L141.527 57.0924C141.527 57.0924 141.246 57.0786 140.579 57.6434C140.164 58.0095 139.869 58.4923 139.733 59.0288C140.256 59.2419 140.885 58.7144 140.885 58.7144C140.282 61.1006 139.336 63.3863 138.074 65.4998C137.546 66.4632 136.702 67.216 135.685 67.631C134.97 67.9178 134.738 67.5842 134.738 67.5842C134.167 67.0912 133.639 66.5495 133.161 65.9655C133.161 65.9655 133.122 65.8962 133.253 65.9015C133.607 65.9068 134.218 65.3123 134.36 65.0618C134.505 64.7803 134.496 64.5578 134.413 64.5438C134.33 64.53 134.2 64.7633 133.543 65.1833C132.864 65.6095 132.558 65.3142 132.344 65.0765C132.169 64.89 132.335 64.6587 132.45 64.5117C132.55 64.3807 136.081 57.7979 145.421 50.8857C157.669 41.8166 165.484 39.3709 165.929 39.1929C166.229 39.0757 166.711 38.9233 166.822 39.0341C166.879 39.0782 166.924 39.1359 166.954 39.202C166.983 39.2681 166.995 39.3404 166.989 39.4124C166.97 39.5574 166.898 39.6373 166.329 39.8824C161.717 42.0728 157.268 44.5922 153.018 47.4212C150.371 48.7715 147.823 50.3082 145.394 52.0197C145.099 52.2008 145.311 52.4651 145.501 52.3586C151.964 48.0467 159.556 45.1118 167.943 42.7108C168.349 42.5967 168.567 42.5967 168.639 42.6862C168.702 42.7866 168.739 42.9014 168.746 43.0198C168.756 43.1754 168.639 43.2596 168.292 43.3928C159.277 46.7398 152.634 49.8492 148.361 52.7209C148.361 52.7209 147.916 52.9905 147.907 53.2964C147.907 53.4104 148.149 53.4296 148.149 53.4296C150.291 53.4626 153.152 53.5905 154.51 53.6747C154.51 53.6747 154.313 54.3621 153.018 54.9152C152.101 55.238 151.126 55.364 150.157 55.285C150.106 55.2796 150.054 55.2901 150.008 55.3151C149.963 55.34 149.926 55.3781 149.903 55.4244C149.88 55.4707 149.872 55.5229 149.879 55.5742C149.886 55.6255 149.909 55.6733 149.944 55.7113C150.027 55.8178 151.989 58.9744 159.11 59.6948" fill="#5C0632"/>
</g>
<defs>
<clipPath id="clip0_2363_1335">
<rect width="141.75" height="40" fill="white" transform="translate(27 39)"/>
</clipPath>
</defs>
</svg>
