<svg width="196" height="119" viewBox="0 0 196 119" fill="none" xmlns="http://www.w3.org/2000/svg">
<g clip-path="url(#clip0_2363_1223)">
<path d="M166.709 56.8554V50.332H160.186V56.8554H156.598V41.3949H160.186V47.5269H166.709V41.3949H170.297V56.8554H166.709Z" fill="black"/>
<path d="M89.7327 41.3949V51.0496C89.7327 52.0933 89.8631 53.0718 90.1893 53.7894C90.5155 54.507 90.9721 55.1593 91.494 55.616C92.0811 56.0726 92.7987 56.464 93.5815 56.6597C94.3643 56.8554 95.2776 56.9859 96.3213 56.9859C97.2998 56.9859 98.2131 56.8554 98.9959 56.6597C99.7787 56.464 100.431 56.0726 100.953 55.616C101.475 55.1593 101.931 54.507 102.192 53.7894C102.519 53.0066 102.649 52.0933 102.649 51.0496V41.3949H99.3221V50.9843C99.3221 51.9628 99.0611 52.7457 98.6045 53.3328C98.1479 53.9199 97.3651 54.246 96.3213 54.246C95.2776 54.246 94.4948 53.9199 94.0381 53.3328C93.5815 52.7457 93.3205 51.9628 93.3205 50.9843V41.3949H89.7327Z" fill="black"/>
<path d="M79.4257 56.8554V44.2652H75.2507V41.3949H87.2538V42.7648C87.2538 43.6129 86.6015 44.2652 85.7534 44.2652H83.0136V56.8554H79.4257Z" fill="black"/>
<path d="M136.832 41.3949H140.42V56.8554H136.832V41.3949Z" fill="black"/>
<path d="M124.959 49.6144L125.09 49.7449L129.656 55.616C130.243 56.3335 131.091 56.7902 132.07 56.7902H134.94L128.417 48.4402L128.351 48.3097L128.417 48.1793L133.766 41.3949H130.047L125.09 48.0488L124.959 48.1793V47.9183V41.3949H121.371V56.8554H124.959V49.8754V49.6144Z" fill="black"/>
<path d="M116.74 56.8554C115.696 56.8554 114.652 56.2683 114.13 55.4203L111.325 50.8539H109.564V56.9206H105.976V41.3949H112.369C114 41.3949 115.305 41.8516 116.153 42.6344C117.066 43.4824 117.523 44.6566 117.523 46.0265C117.523 46.7441 117.327 47.4617 116.935 48.1793C116.544 48.8968 115.892 49.4839 114.978 49.9406L114.783 50.0058L119.153 56.7902H116.74V56.8554ZM109.564 48.4402H111.651C112.369 48.4402 112.956 48.2445 113.348 47.8531C113.739 47.4617 113.935 46.9398 113.935 46.2875C113.935 45.6351 113.739 45.1133 113.413 44.7219C113.021 44.3305 112.499 44.1347 111.717 44.1347H109.629V48.4402H109.564Z" fill="black"/>
<path d="M143.355 56.2031V53.2675C144.464 53.7894 145.965 54.3113 147.465 54.3113C149.226 54.3113 150.074 53.7242 150.074 52.55C150.074 51.18 148.9 51.0496 146.486 50.0058C144.856 49.2882 143.355 48.1793 143.355 45.5699C143.355 42.5691 145.638 41.134 148.835 41.134C150.531 41.134 151.966 41.5254 152.749 41.8516V44.7219C151.966 44.3304 150.531 43.8738 149.031 43.8738C147.465 43.8738 146.747 44.4609 146.747 45.4394C146.747 46.4832 147.661 46.8093 149.226 47.3965C151.249 48.4402 153.662 48.8968 153.662 52.3542C153.662 55.355 151.249 56.9859 148.052 56.9859C146.16 57.0511 144.595 56.7249 143.355 56.2031Z" fill="black"/>
<path d="M148.965 77.0128V61.5523H158.62V62.9222C158.62 63.7702 157.968 64.4226 157.12 64.4226H152.488V67.7495H157.707V70.3589H152.488V74.1425H158.62V77.0128H148.965Z" fill="black"/>
<path d="M113.608 77.0128V61.5523H115.37C116.413 61.5523 117.196 62.4003 117.196 63.3788V74.2077H122.872V77.0128H113.608Z" fill="black"/>
<path d="M91.494 77.0128V61.5523H95.0819V77.0128H91.494Z" fill="black"/>
<path d="M109.042 77.0128C107.998 77.0128 106.955 76.4257 106.433 75.5776L103.628 71.0112H101.866V77.078H98.2784V61.5523H104.671C106.302 61.5523 107.607 62.0089 108.455 62.7917C109.368 63.6398 109.825 64.814 109.825 66.1839C109.825 66.9015 109.629 67.619 109.238 68.4019C108.846 69.1194 108.194 69.7065 107.281 70.1632L107.085 70.2284L111.456 77.0128H109.042ZM101.932 68.5976H104.019C104.802 68.5976 105.324 68.4019 105.715 68.0104C106.107 67.619 106.302 67.0972 106.302 66.4448C106.302 65.7925 106.107 65.2706 105.78 64.8792C105.389 64.4878 104.867 64.2921 104.084 64.2921H101.997L101.932 68.5976Z" fill="black"/>
<path d="M83.666 61.5523H79.5562L73.7504 77.0128H76.2945C76.9468 77.0128 77.5339 76.6214 77.7296 75.969L78.3168 74.1425H84.5792L85.4925 77.0128H89.3413L83.666 61.5523ZM79.23 71.4026L80.6 67.4886C80.9261 66.6405 81.2523 65.662 81.448 65.0097H81.5132C81.7089 65.7273 82.0351 66.5753 82.296 67.4886L83.666 71.4026H79.23Z" fill="black"/>
<path d="M161.49 76.3604V73.4249C162.599 73.9468 164.1 74.4686 165.6 74.4686C167.361 74.4686 168.209 73.8815 168.209 72.7073C168.209 71.3374 167.035 71.2069 164.622 70.1632C162.991 69.4456 161.49 68.3366 161.49 65.7273C161.49 62.7265 163.774 61.2913 166.97 61.2913C168.666 61.2913 170.101 61.6827 170.884 62.0089V64.8792C170.101 64.4878 168.666 64.0312 167.166 64.0312C165.6 64.0312 164.883 64.6183 164.883 65.5968C164.883 66.6405 165.796 66.9667 167.361 67.5538C169.384 68.5976 171.797 69.0542 171.797 72.5116C171.797 75.5124 169.384 77.1432 166.187 77.1432C164.295 77.2085 162.73 76.8823 161.49 76.3604Z" fill="black"/>
<path d="M132.07 61.5523H134.288C135.331 61.5523 136.31 62.0741 136.897 62.9874L141.202 69.9022C141.659 70.6851 142.246 71.6636 142.572 72.3811H142.638C142.572 71.6636 142.572 70.7503 142.572 70.0327V61.5523H145.704V77.0128H141.79L136.571 68.6628C136.114 67.88 135.592 66.9667 135.201 66.2491H135.136C135.136 66.9015 135.201 67.6843 135.201 68.4671V77.0128H132.07V61.5523Z" fill="black"/>
<path d="M125.22 61.5523H128.808V77.0128H125.22V61.5523Z" fill="black"/>
<path d="M46.8739 39.5683C56.7895 40.6121 64.5524 48.9621 64.5524 59.2038C64.5524 70.0979 55.7457 78.9045 44.8516 78.9045C33.9575 78.9045 25.0857 70.0979 25.0857 59.2038C25.0857 48.3097 33.8923 39.4379 44.8516 39.4379C45.504 39.4379 46.2216 39.5031 46.8739 39.5683ZM47.9176 77.5346C58.0289 75.8385 64.8785 66.2491 63.1824 56.0726C61.7473 47.6574 54.8977 41.5254 46.8087 40.6773C45.1778 40.4816 43.4817 40.5469 41.7856 40.8078C39.7634 41.134 37.8716 41.7863 36.1755 42.6996C45.0473 45.7656 49.8747 50.3972 50.2008 55.0941C50.3965 58.0296 49.0266 60.1171 47.2001 61.8132L59.8555 60.9652C60.1817 60.9652 60.3121 61.3566 59.9207 61.487L29.7173 70.0979C32.7833 74.3382 37.5454 77.1432 42.8294 77.6651C44.5255 77.8608 46.2216 77.8608 47.9176 77.5346ZM39.6329 59.5952C41.2638 53.398 39.372 46.8746 34.8708 43.4172C28.7388 47.3312 25.1509 54.6374 26.4556 62.2698C26.847 64.814 27.7603 67.0972 29.065 69.1194C33.8923 67.8147 38.1325 65.2706 39.6329 59.5952Z" fill="white"/>
<path d="M47.9177 77.5346C58.029 75.8386 64.8786 66.2491 63.1825 56.0726C61.7473 47.6574 54.8977 41.5254 46.8087 40.6773C45.1778 40.4816 43.4817 40.5469 41.7857 40.8078C39.7634 41.134 37.8716 41.7863 36.1755 42.6996C45.0474 45.7656 49.8747 50.3972 50.2009 55.0941C50.3966 58.0296 49.0267 60.1171 47.2001 61.8132L59.8555 60.9652C60.1817 60.9652 60.3122 61.3566 59.9208 61.487L29.7173 70.0979C32.7833 74.3382 37.5454 77.1432 42.8294 77.6651C44.5255 77.8608 46.2216 77.8608 47.9177 77.5346ZM39.6329 59.5952C41.2638 53.398 39.372 46.8746 34.8708 43.4172C28.7388 47.3312 25.1509 54.6374 26.4556 62.2698C26.847 64.814 27.7603 67.0972 29.065 69.1194C33.8923 67.8147 38.1325 65.2706 39.6329 59.5952Z" fill="#C70A0C"/>
</g>
<defs>
<clipPath id="clip0_2363_1223">
<rect width="148.694" height="40" fill="white" transform="translate(24 39.1405)"/>
</clipPath>
</defs>
</svg>
