<svg width="196" height="119" viewBox="0 0 196 119" fill="none" xmlns="http://www.w3.org/2000/svg">
<g clip-path="url(#clip0_2363_1302)">
<path fill-rule="evenodd" clip-rule="evenodd" d="M58.0593 49.993V64.2959C58.0593 65.6125 57.4879 67.5811 52.2252 67.5811C46.9626 67.5811 46.3897 65.6125 46.3897 64.2959V49.993H43.4003V64.4589C43.4003 68.0006 46.3082 69.544 51.7057 69.544C54.4662 69.544 56.5008 69.0777 58.0271 68.6441V75.1096H60.9701L60.9546 49.993H58.0593ZM30.9415 43.1675C27.7906 43.1675 23.1163 43.8294 23.1163 47.0749V49.993H19.7029V51.6668H23.1163V69.0891H25.9779V51.6668H30.4823L30.4837 49.993H25.9779V47.4349C25.9779 44.9433 28.8592 44.5465 30.9415 44.5465C34.3872 44.5465 36.1016 44.8087 36.1016 48.6154L36.1002 69.0891H38.9604V43.6281H36.1016C34.508 43.6281 33.7385 43.1675 30.9415 43.1675ZM173.398 51.8199C171.668 51.8199 170.264 53.2414 170.264 54.9917C170.264 56.7448 171.668 58.1677 173.398 58.1677C175.145 58.1677 176.542 56.7448 176.542 54.9917C176.542 53.2414 175.145 51.8199 173.398 51.8199Z" fill="#FF8200"/>
<path fill-rule="evenodd" clip-rule="evenodd" d="M150.562 54.3153C152.786 54.0602 154.778 53.9355 156.034 53.9313C155.343 51.2427 152.186 50.1926 146.978 50.1926C142.479 50.1926 138.465 51.76 138.465 51.76V55.4945C138.465 55.4945 141.247 53.234 147.056 53.234C148.958 53.234 150.008 53.577 150.562 54.3153ZM81.1502 63.699C80.9887 65.7682 78.78 66.8878 76.6345 66.8878C71.9868 66.8878 71.3353 64.8484 71.3353 60.1899C71.3353 55.537 72.2466 53.5018 76.4056 53.5018C79.1015 53.5018 80.9887 54.6144 81.1502 56.6822C81.2793 58.3545 81.3467 59.2091 81.3467 60.1899C81.3467 61.1734 81.2793 62.1272 81.1502 63.699ZM81.3467 51.3334C79.4273 50.5795 77.967 50.1855 75.5926 50.1855C68.346 50.1855 66.1359 52.9434 66.1359 60.1899C66.1359 67.4065 69.385 70.1971 76.6345 70.1971C81.0519 70.1971 84.2631 68.529 86.5462 68.529V44.2812H81.3467V51.3334ZM165.733 50.6291L160.534 50.6305V53.7782H165.733V50.6291ZM151.168 63.6522C151.168 66.379 148.641 67.0678 146.91 67.0678C143.957 67.0678 142.444 66.1707 142.444 64.2404C142.444 60.9807 146.587 59.3041 151.168 59.0249V63.6522ZM166.828 55.6405L165.319 55.6433C144.239 55.6433 137.408 59.5946 137.408 64.1128C137.408 68.3093 140.983 70.1503 146.769 70.1503C150.503 70.1503 154.281 68.5219 156.258 68.5219V58.3474C158.724 58.0328 160.567 57.9818 160.567 57.9818V69.745H165.763V60.89C165.763 57.7267 166.828 55.6405 166.828 55.6405ZM124.18 66.8878C122.033 66.8878 119.825 65.7682 119.664 63.699C119.535 62.1272 119.469 61.1734 119.469 60.1899C119.469 59.2091 119.535 58.3545 119.664 56.6807C119.825 54.6144 121.714 53.5018 124.41 53.5018C128.567 53.5018 129.479 55.537 129.479 60.1899C129.479 64.8484 128.829 66.8878 124.18 66.8878ZM125.22 50.1855C122.847 50.1855 121.385 50.5795 119.469 51.3334V44.2812H114.269V68.529C116.551 68.529 119.759 70.1971 124.18 70.1971C131.428 70.1971 134.678 67.4065 134.678 60.1899C134.678 52.9434 132.467 50.1855 125.22 50.1855ZM104.783 63.8308C104.783 65.1474 104.358 67.1117 100.458 67.1117C96.559 67.1117 96.1392 65.1474 96.1392 63.8308V50.6461H90.9355V65.112C90.9369 68.6537 94.5413 70.1971 99.9416 70.1971C104.717 70.1971 107.8 68.7203 109.33 68.5559L109.98 68.4879V50.6461H104.783V63.8308Z" fill="#006496"/>
</g>
<defs>
<clipPath id="clip0_2363_1302">
<rect width="158" height="32" fill="white" transform="translate(19 43.1405)"/>
</clipPath>
</defs>
</svg>
