<svg width="196" height="118" viewBox="0 0 196 118" fill="none" xmlns="http://www.w3.org/2000/svg">
<path fill-rule="evenodd" clip-rule="evenodd" d="M18 58.6568L49.434 78.1933C50.1301 73.4686 45.7483 70.6802 45.7073 70.2712C45.6596 69.7485 49.1958 68.4449 49.4565 64.8677C49.8972 58.8964 41.7171 58.5166 41.4366 62.9818C41.287 65.3163 43.8862 65.3693 43.9669 63.6356C44.0794 61.3143 46.4854 61.7523 46.8586 64.3648C47.2358 66.9812 44.1866 68.0889 42.9678 68.0545C41.07 67.9963 38.5449 66.4505 38.3159 64.1663C37.9996 61.0205 41.5543 60.6142 36.9687 61.002C35.1675 61.1528 33.8533 60.1907 33.0169 58.6423C34.0558 57.2024 35.1675 56.2019 36.9687 56.3554C41.5543 56.7458 37.9996 56.3356 38.3159 53.1593C38.5449 50.8553 41.07 49.2923 42.9678 49.2354C44.1866 49.1983 47.2358 50.3166 46.8586 52.9595C46.4854 55.5944 44.0794 56.0365 43.9669 53.6953C43.8862 51.9431 41.287 51.9987 41.4366 54.3557C41.7171 58.8607 49.8972 58.4795 49.4565 52.4513C49.1998 48.9125 45.7933 47.5758 45.7086 47.0266C45.6649 46.7367 50.1156 43.6757 49.434 39" fill="#9C8761"/>
<path d="M174.709 64.2825C174.189 64.5419 173.409 64.7153 172.6 64.7153C170.55 64.7153 169.337 63.8497 169.337 61.8275C169.337 58.9981 171.387 58.2755 174.709 57.8705V64.2825ZM178 65.553V55.9065C178 51.8926 175.459 50.5361 172.254 50.5361C169.799 50.5361 167.922 51.2296 166.911 51.7192L167.72 53.7414C168.673 53.2795 170.116 52.7885 171.618 52.7885C173.438 52.7885 174.709 53.3364 174.709 55.3586V56.1964C169.972 56.6582 166.016 57.8427 166.016 61.9427C166.016 64.9469 168.123 66.6792 172.369 66.6792C174.796 66.6792 176.759 66.2174 178 65.553ZM163.012 66.3907V55.3004C163.012 52.7885 161.481 50.5361 156.832 50.5361C154.204 50.5361 152.212 50.9688 150.739 51.6623V66.3907H154.262V53.1922C154.926 52.9328 155.532 52.7594 156.688 52.7594C158.912 52.7594 159.489 54.0882 159.489 55.3586V66.3907H163.012ZM143.692 64.2825C143.173 64.5419 142.393 64.7153 141.585 64.7153C139.533 64.7153 138.321 63.8497 138.321 61.8275C138.321 58.9981 140.371 58.2755 143.692 57.8705V64.2825ZM146.986 65.553V55.9065C146.986 51.8926 144.443 50.5361 141.238 50.5361C138.783 50.5361 136.906 51.2296 135.895 51.7192L136.704 53.7414C137.657 53.2795 139.101 52.7885 140.603 52.7885C142.422 52.7885 143.692 53.3364 143.692 55.3586V56.1964C138.956 56.6582 134.999 57.8427 134.999 61.9427C134.999 64.9469 137.107 66.6792 141.354 66.6792C143.779 66.6792 145.743 66.2174 146.986 65.553ZM132.805 66.2465V64.0509C132.517 64.1383 132.285 64.1952 131.967 64.1952C130.755 64.1952 130.264 63.3865 130.264 62.173V53.0771H132.805V50.8246H130.264V46.4057L126.74 47.3876V50.8246H125.007V53.0771H126.74V62.3477C126.74 64.5128 127.953 66.5641 131.014 66.5641C131.852 66.5641 132.487 66.3907 132.805 66.2465ZM122.899 61.9136C122.899 60.0952 122.207 58.5349 119.174 57.3226C117.817 56.7734 116.864 56.1381 116.864 54.8676C116.864 53.7705 117.644 52.8177 119.086 52.8177C120.185 52.8177 121.109 53.3087 121.57 53.6832L122.437 51.6332C121.426 50.9688 120.128 50.5361 118.394 50.5361C115.419 50.5361 113.457 52.5569 113.457 55.041C113.457 56.6582 114.063 58.2755 117.009 59.4017C118.597 60.0078 119.29 60.6431 119.29 61.9718C119.29 63.2423 118.336 64.1674 116.893 64.1674C115.622 64.1674 114.554 63.7346 113.977 63.2714L113.052 65.5239C113.977 66.1591 115.536 66.6501 117.355 66.6501C120.762 66.6501 122.899 64.4559 122.899 61.9136ZM106.959 64.2825C106.438 64.5419 105.659 64.7153 104.85 64.7153C102.8 64.7153 101.587 63.8497 101.587 61.8275C101.587 58.9981 103.637 58.2755 106.959 57.8705V64.2825ZM110.25 65.553V55.9065C110.25 51.8926 107.709 50.5361 104.504 50.5361C102.049 50.5361 100.172 51.2296 99.1609 51.7192L99.9695 53.7414C100.922 53.2795 102.366 52.7885 103.868 52.7885C105.687 52.7885 106.959 53.3364 106.959 55.3586V56.1964C102.222 56.6582 98.2649 57.8427 98.2649 61.9427C98.2649 64.9469 100.373 66.6792 104.619 66.6792C107.046 66.6792 109.009 66.2174 110.25 65.553ZM88.8514 50.5652C84.9235 50.4487 82.9595 50.8815 81.3423 51.6623V66.3907H84.8652V53.2504C85.6752 52.7885 86.9735 52.7303 88.1579 53.1353L88.8514 50.5652ZM77.4726 66.3907V50.8246H73.9496V66.3907H77.4726ZM77.6459 46.4057C77.6459 45.425 76.8082 44.6442 75.7111 44.6442C74.6431 44.6442 73.7762 45.425 73.7762 46.4057C73.7762 47.3585 74.6431 48.1394 75.7111 48.1394C76.8082 48.1394 77.6459 47.3585 77.6459 46.4057ZM66.7872 64.2825C66.2671 64.5419 65.4876 64.7153 64.679 64.7153C62.629 64.7153 61.4154 63.8497 61.4154 61.8275C61.4154 58.9981 63.4654 58.2755 66.7872 57.8705V64.2825ZM70.0786 65.553V55.9065C70.0786 51.8926 67.5389 50.5361 64.3323 50.5361C61.8773 50.5361 60.0007 51.2296 58.9896 51.7192L59.7982 53.7414C60.7511 53.2795 62.1963 52.7885 63.697 52.7885C65.5167 52.7885 66.7872 53.3364 66.7872 55.3586V56.1964C62.0507 56.6582 58.095 57.8427 58.095 61.9427C58.095 64.9469 60.2032 66.6792 64.4487 66.6792C66.8746 66.6792 68.8372 66.2174 70.0786 65.553Z" fill="#2E498E"/>
</svg>
