<svg width="196" height="118" viewBox="0 0 196 118" fill="none" xmlns="http://www.w3.org/2000/svg">
<g clip-path="url(#clip0_2363_1248)">
<path fill-rule="evenodd" clip-rule="evenodd" d="M124.685 56.4213L129.842 46.3109H129.933L135.636 56.4213H141.498L133.933 43.3573H128.979L122.14 56.4213H124.685Z" fill="#00529C"/>
<path fill-rule="evenodd" clip-rule="evenodd" d="M43.5968 50.7189L51.6856 50.6285C51.5944 52.4461 50.5496 53.4685 50.004 53.8997C48.664 54.9221 46.7552 55.0133 45.8464 55.0133C44.5056 55.0133 43.3472 54.8301 42.1656 54.1493C41.4152 53.7173 40.552 52.9901 40.1208 52.3773L39.7568 51.8549L37.1216 53.3085C37.8944 54.1725 39.0984 55.0349 40.3704 55.6477C42.324 56.5805 44.1192 56.8077 46.3008 56.8077C48.6176 56.8077 52.2312 56.4885 54.8432 54.6029C56.6608 53.2853 57.5016 51.4909 57.5016 49.9005C57.5016 48.3101 56.6608 46.4925 54.8432 45.1973C52.5936 43.5621 49.3 42.9941 46.3688 42.9941C44.46 42.9941 42.7104 43.1757 40.9384 43.8117C39.4616 44.3117 38.3032 44.9933 37.1216 45.9925L39.7568 47.4245L40.3928 46.7653C40.9152 46.1973 41.8016 45.6749 42.5968 45.3565C43.6648 44.9021 44.7784 44.7661 45.9368 44.7661C48.2776 44.7661 49.6176 45.4933 50.3672 46.1973C50.8672 46.6525 51.5264 47.5157 51.6848 48.8333L43.5968 48.7197V50.7189Z" fill="#00529C"/>
<path fill-rule="evenodd" clip-rule="evenodd" d="M151.245 44.5845C152.562 44.5845 154.062 44.8573 155.222 46.2885C156.153 47.4245 156.311 48.7429 156.311 49.9013C156.311 51.0605 156.153 52.3549 155.222 53.5133C154.062 54.9453 152.563 55.2173 151.245 55.2173C149.926 55.2173 148.428 54.9453 147.269 53.5133C146.337 52.3549 146.178 51.0605 146.178 49.9013C146.178 48.7429 146.337 47.4245 147.269 46.2885C148.427 44.8573 149.926 44.5845 151.245 44.5845ZM151.245 56.8085C153.699 56.8085 157.129 56.2629 159.425 54.6037C161.242 53.3093 162.106 51.4693 162.106 49.9013C162.106 48.3341 161.242 46.4933 159.425 45.1981C157.13 43.5397 153.7 42.9949 151.245 42.9949C148.814 42.9949 145.361 43.5397 143.043 45.1981C141.226 46.4933 140.385 48.3341 140.385 49.9013C140.385 51.4693 141.226 53.3093 143.043 54.6037C145.36 56.2629 148.814 56.8085 151.245 56.8085Z" fill="#00529C"/>
<path fill-rule="evenodd" clip-rule="evenodd" d="M106.19 46.6525C106.69 46.4933 107.281 46.4021 107.873 46.4021H108.486V53.1949H107.873C107.282 53.1949 106.69 53.1045 106.19 52.9453C105.737 52.8085 105.326 52.6269 105.009 52.3549C104.396 51.8773 103.895 51.0821 103.895 49.7869C103.895 48.5149 104.396 47.7205 105.009 47.2429C105.326 46.9701 105.737 46.7885 106.19 46.6525ZM115.687 54.8541C118.618 54.6725 120.163 53.9909 120.981 53.4909C122.527 52.5597 123.231 51.2421 123.231 49.7877C123.231 47.8797 121.981 46.7437 120.981 46.1077C119.595 45.2221 117.641 44.8573 115.687 44.7437C115.166 44.6989 114.642 44.6989 114.119 44.6989H113.552V42.9037H108.303V44.6989H107.757C107.235 44.6989 106.712 44.6989 106.19 44.7437C104.213 44.8573 102.26 45.2213 100.896 46.1077C99.8969 46.7437 98.6465 47.8797 98.6465 49.7877C98.6465 51.2421 99.3505 52.5597 100.896 53.4909C101.69 53.9909 103.236 54.6733 106.19 54.8541C106.667 54.8773 107.19 54.8989 107.757 54.8989H108.303V56.8085H113.552V54.8989H114.119C114.688 54.8989 115.211 54.8773 115.687 54.8541ZM115.687 46.6525C116.142 46.7885 116.551 46.9701 116.87 47.2429C117.483 47.7205 117.982 48.5149 117.982 49.7869C117.982 51.0821 117.483 51.8773 116.87 52.3549C116.552 52.6269 116.142 52.8085 115.687 52.9453C115.166 53.1045 114.597 53.1949 113.982 53.1949H113.392V46.4021H113.982C114.597 46.4021 115.166 46.4925 115.687 46.6525Z" fill="#00529C"/>
<path fill-rule="evenodd" clip-rule="evenodd" d="M87.0833 44.5845C88.3793 44.5845 89.9001 44.8573 91.0593 46.2885C91.9913 47.4245 92.1497 48.7429 92.1497 49.9013C92.1497 51.0605 91.9905 52.3549 91.0593 53.5133C89.9001 54.9453 88.3785 55.2173 87.0833 55.2173C85.7657 55.2173 84.2433 54.9453 83.0849 53.5133C82.1529 52.3549 82.0177 51.0605 82.0177 49.9013C82.0177 48.7429 82.1537 47.4245 83.0849 46.2885C84.2433 44.8573 85.7657 44.5845 87.0833 44.5845ZM87.0833 56.8085C89.5145 56.8085 92.9681 56.2629 95.2625 54.6037C97.0577 53.3093 97.8977 51.4693 97.8977 49.9013C97.8977 48.3341 97.0569 46.4933 95.2625 45.1981C92.9681 43.5397 89.5137 42.9949 87.0833 42.9949C84.6297 42.9949 81.1761 43.5397 78.8817 45.1981C77.0641 46.4933 76.2233 48.3341 76.2233 49.9013C76.2233 51.4693 77.0641 53.3093 78.8817 54.6037C81.1761 56.2629 84.6297 56.8085 87.0833 56.8085Z" fill="#00529C"/>
<path fill-rule="evenodd" clip-rule="evenodd" d="M67.2712 51.6277H68.2488C70.7704 51.6277 72.52 51.3549 73.7696 50.6277C75.3368 49.6957 75.7008 48.4237 75.7008 47.4245C75.7008 46.4469 75.3368 45.1749 73.7696 44.2893C72.52 43.5845 70.8384 43.3573 68.0216 43.3573H67.2712H59.0464V56.4213H64.2952V51.6277H67.2712ZM67.2712 45.3565C67.9072 45.3797 68.7256 45.4933 69.316 45.8565C70.1112 46.3557 70.248 47.0381 70.248 47.4469C70.248 47.8557 70.1336 48.5829 69.2712 49.1053C68.68 49.4917 67.9536 49.6053 67.2712 49.6509C67.0896 49.6509 66.908 49.6509 66.7256 49.6509H64.2944V45.3349H66.7256C66.8848 45.3349 67.0664 45.3349 67.2712 45.3565Z" fill="#00529C"/>
<path fill-rule="evenodd" clip-rule="evenodd" d="M26.648 46.4253L29.2608 50.8773H24.0344L26.5112 46.3341H26.5792L26.648 46.4253ZM30.3288 52.6501L32.5784 56.4213H38.44L30.488 43.3573H25.6248L18.4 56.4213H21.0128L23.08 52.6501H30.3288Z" fill="#00529C"/>
<path fill-rule="evenodd" clip-rule="evenodd" d="M161.06 45.3349H166.694V56.4213H171.943V45.3349H177.6V43.3573H161.06V45.3349Z" fill="#00529C"/>
<path fill-rule="evenodd" clip-rule="evenodd" d="M172.216 65.3045H171.352L167.898 68.6453L169.057 65.3045H168.172L166.626 69.8485H167.513L170.944 66.4861L169.807 69.8485H170.693L172.216 65.3045Z" fill="#00529C"/>
<path fill-rule="evenodd" clip-rule="evenodd" d="M166.853 65.3045H165.99L165.377 67.0781H163.218L163.832 65.3045H162.946L161.4 69.8485H162.286L162.991 67.7357H165.15L164.422 69.8485H165.332L166.853 65.3045Z" fill="#00529C"/>
<path fill-rule="evenodd" clip-rule="evenodd" d="M161.628 65.3045H160.765L157.311 68.6453L158.447 65.3045H157.583L156.039 69.8485H156.902L160.356 66.4861L159.219 69.8485H160.083L161.628 65.3045Z" fill="#00529C"/>
<path fill-rule="evenodd" clip-rule="evenodd" d="M153.562 65.3045L153.04 66.6013C152.813 67.2141 152.722 67.4181 152.494 67.8949C152.198 68.5325 151.903 69.1453 151.132 69.3261L150.994 69.9165C151.449 69.8949 151.79 69.7117 152.018 69.5773C152.902 69.0085 153.198 68.0301 153.858 66.4397L154.084 65.8957H155.174L153.858 69.8469H154.72L156.266 65.3029H153.562V65.3045Z" fill="#00529C"/>
<path fill-rule="evenodd" clip-rule="evenodd" d="M134.205 67.7589C134.318 67.7357 134.478 67.7357 134.658 67.7357H135.295L134.978 68.6901C134.841 68.8717 134.705 68.9853 134.522 69.0981C134.41 69.1669 134.297 69.2125 134.206 69.2341C134.046 69.3029 133.888 69.3261 133.728 69.3261C133.546 69.3261 133.319 69.3029 133.182 69.1213C133.068 68.9621 133.068 68.7805 133.137 68.5525C133.206 68.3725 133.319 68.1917 133.569 68.0069C133.704 67.9173 133.886 67.8045 134.205 67.7589ZM134.682 69.8485H135.454L136.454 66.8957C136.614 66.4413 136.795 65.9877 136.545 65.6005C136.341 65.3053 135.841 65.1909 135.431 65.1909C134.91 65.1909 134.522 65.2597 134.205 65.3741C133.546 65.6245 133.25 66.0573 133.227 66.4413L133.999 66.4869C134.046 66.3293 134.114 66.2149 134.205 66.1229C134.41 65.8741 134.751 65.8061 135.182 65.8061C135.364 65.8061 135.59 65.8293 135.682 65.9893C135.819 66.1469 135.75 66.3749 135.682 66.5797L135.5 67.1685H134.841C134.614 67.1685 134.41 67.1685 134.205 67.1917C133.319 67.3045 132.57 67.6685 132.251 68.6013C132.001 69.3045 132.251 69.9181 133.25 69.9181C133.546 69.9181 133.864 69.8965 134.182 69.7365H134.205C134.522 69.5789 134.772 69.3509 134.841 69.2821H134.863L134.682 69.8485Z" fill="#00529C"/>
<path fill-rule="evenodd" clip-rule="evenodd" d="M149.178 67.7589C149.314 67.7357 149.45 67.7357 149.632 67.7357H150.291L149.95 68.6901C149.812 68.8717 149.677 68.9853 149.495 69.0981C149.382 69.1669 149.268 69.2125 149.178 69.2341C149.018 69.3029 148.883 69.3261 148.723 69.3261C148.518 69.3261 148.293 69.3029 148.178 69.1213C148.042 68.9621 148.042 68.7805 148.11 68.5525C148.178 68.3725 148.293 68.1917 148.542 68.0069C148.678 67.9173 148.859 67.8045 149.178 67.7589ZM149.654 69.8485H150.45L151.449 66.8957C151.585 66.4413 151.766 65.9877 151.518 65.6005C151.312 65.3053 150.813 65.1909 150.403 65.1909C149.903 65.1909 149.494 65.2597 149.177 65.3741C148.518 65.6245 148.245 66.0573 148.199 66.4413L148.972 66.4869C149.018 66.3293 149.086 66.2149 149.177 66.1229C149.403 65.8741 149.722 65.8061 150.154 65.8061C150.335 65.8061 150.563 65.8293 150.676 65.9893C150.79 66.1469 150.745 66.3749 150.676 66.5797L150.47 67.1685H149.812C149.586 67.1685 149.382 67.1685 149.177 67.1917C148.292 67.3045 147.54 67.6685 147.223 68.6013C146.973 69.3045 147.223 69.9181 148.223 69.9181C148.518 69.9181 148.836 69.8965 149.177 69.7365C149.494 69.5789 149.745 69.3509 149.812 69.2821H149.858L149.654 69.8485Z" fill="#00529C"/>
<path fill-rule="evenodd" clip-rule="evenodd" d="M147.223 65.3045H146.337L142.906 68.6453L144.043 65.3045H143.157L141.611 69.8485H142.498L145.928 66.4861L144.792 69.8485H145.678L147.223 65.3045Z" fill="#00529C"/>
<path fill-rule="evenodd" clip-rule="evenodd" d="M139.612 67.8277C139.77 67.8277 139.907 67.8949 139.998 67.9637C140.112 68.0997 140.112 68.3277 140.021 68.5325C139.93 68.7813 139.77 68.9621 139.635 69.0541C139.635 69.0541 139.612 69.0541 139.612 69.0773C139.43 69.1901 139.18 69.2333 138.93 69.2333H137.862L138.341 67.8037H139.453C139.521 67.8045 139.567 67.8045 139.612 67.8277ZM139.612 65.8965H140.066C140.226 65.8965 140.43 65.8965 140.566 66.0325C140.702 66.1917 140.68 66.3493 140.635 66.5325C140.566 66.7141 140.476 66.8949 140.27 67.0309C140.045 67.1901 139.839 67.1901 139.612 67.1901H138.544L138.998 65.8965H139.612ZM139.612 69.7829C139.907 69.6909 140.18 69.5317 140.385 69.3957C140.635 69.1909 140.885 68.8941 141.021 68.5333C141.112 68.2581 141.135 68.0085 140.998 67.7829C140.908 67.6221 140.726 67.4877 140.477 67.4405L140.499 67.4189C140.794 67.3501 141.045 67.1909 141.203 67.0317C141.362 66.8741 141.498 66.6237 141.589 66.3957C141.726 65.9877 141.657 65.7597 141.498 65.5773C141.272 65.3285 140.908 65.3053 140.613 65.3053H139.613H138.318L136.751 69.8493H138.999C139.203 69.8485 139.409 69.8261 139.612 69.7829Z" fill="#00529C"/>
<path fill-rule="evenodd" clip-rule="evenodd" d="M124.504 65.8733C124.64 65.8277 124.776 65.8045 124.889 65.8045C125.774 65.8045 125.571 66.5549 125.412 66.9637L125.344 67.1669H124.503H123.48L123.549 66.9637C123.776 66.2813 124.162 65.9877 124.504 65.8733ZM124.504 67.7589H126.026C126.706 66.1213 126.616 65.1901 125.094 65.1901C124.912 65.1901 124.707 65.2133 124.504 65.2589C123.618 65.4637 122.822 66.1917 122.345 67.6445C121.687 69.5773 122.458 69.9165 123.504 69.9165C123.889 69.9165 124.23 69.8709 124.504 69.7821C125.23 69.5309 125.639 69.0309 125.707 68.5317L124.958 68.4157C124.912 68.5517 124.799 68.8485 124.504 69.0533C124.322 69.1893 124.071 69.3021 123.708 69.3021C123.435 69.3021 122.754 69.2333 123.14 68.1909L123.277 67.7581H124.504V67.7589Z" fill="#00529C"/>
<path fill-rule="evenodd" clip-rule="evenodd" d="M122.004 65.3045H121.141L117.687 68.6453L118.822 65.3045H117.96L116.415 69.8485H117.301L120.731 66.4861L119.595 69.8485H120.482L122.004 65.3045Z" fill="#00529C"/>
<path fill-rule="evenodd" clip-rule="evenodd" d="M113.144 65.3045L111.598 69.8485H112.484L113.188 67.8045H114.03C114.188 67.8045 114.392 67.8045 114.483 67.9637C114.529 68.0309 114.573 68.1685 114.506 68.3949L114.391 69.0093C114.324 69.3029 114.278 69.6221 114.642 69.8029C114.824 69.8717 115.096 69.9173 115.256 69.9173L115.62 69.2581C115.551 69.2581 115.483 69.2581 115.414 69.2349C115.232 69.1677 115.256 68.9861 115.278 68.8509L115.324 68.5341C115.346 68.3293 115.438 68.0325 115.346 67.8061C115.301 67.6469 115.119 67.5325 114.937 67.4893V67.4661C115.165 67.4205 115.323 67.3053 115.459 67.1693C115.619 66.9893 115.686 66.8757 115.778 66.6925L115.937 66.3757C116.004 66.2165 116.118 65.9661 116.346 65.8757C116.39 65.8525 116.46 65.8301 116.663 65.8069L116.754 65.2165C116.413 65.2621 116.072 65.2621 115.754 65.4901C115.482 65.6949 115.368 65.9669 115.254 66.1949L115.118 66.4437C115.004 66.6733 114.935 66.8533 114.709 66.9909C114.55 67.1269 114.368 67.1269 114.21 67.1269H113.414L114.028 65.3085H113.144V65.3045Z" fill="#00529C"/>
<path fill-rule="evenodd" clip-rule="evenodd" d="M110.485 68.9405C110.326 69.0309 110.121 69.0981 109.916 69.1669C109.666 69.2341 109.485 69.2573 109.258 69.2573C108.962 69.2573 108.644 69.2341 108.44 68.9621C108.19 68.6453 108.349 68.1453 108.554 67.5765C108.713 67.0309 108.895 66.5325 109.214 66.2141C109.394 66.0325 109.666 65.8045 110.145 65.8045C110.462 65.8045 110.644 65.8965 110.735 66.0557C110.848 66.2373 110.781 66.4397 110.644 66.7373L111.485 66.6701C111.802 66.1685 111.758 65.6685 111.394 65.4197C111.166 65.2589 110.826 65.1901 110.463 65.1901C110.009 65.1901 109.462 65.3045 109.009 65.5757C108.168 66.0757 107.758 66.9869 107.577 67.5541C107.418 68.0309 107.192 68.9165 107.646 69.4637C107.941 69.8477 108.418 69.9165 108.941 69.9165C109.282 69.9165 109.577 69.8949 109.963 69.7821C110.167 69.6901 110.394 69.5981 110.622 69.4853L110.485 68.9405Z" fill="#00529C"/>
<path fill-rule="evenodd" clip-rule="evenodd" d="M106.531 63.3277C106.486 63.4421 106.418 63.5557 106.305 63.6461C106.146 63.7821 105.895 63.8525 105.737 63.8525C105.577 63.8525 105.35 63.7821 105.305 63.6461C105.236 63.5557 105.258 63.4413 105.305 63.3277H104.669C104.509 63.6685 104.532 64.0093 104.736 64.1933C104.941 64.3965 105.305 64.4181 105.532 64.4181C105.806 64.4181 106.146 64.3965 106.509 64.1933C106.85 64.0093 107.078 63.6685 107.167 63.3277H106.531Z" fill="#00529C"/>
<path fill-rule="evenodd" clip-rule="evenodd" d="M107.214 65.3045H106.35L102.897 68.6453L104.032 65.3045H103.169L101.624 69.8485H102.51L105.941 66.4861L104.806 69.8485H105.691L107.214 65.3045Z" fill="#00529C"/>
<path fill-rule="evenodd" clip-rule="evenodd" d="M101.85 65.3045H100.987L97.5344 68.6453L98.6712 65.3045H97.8064L96.2616 69.8485H97.1256L100.557 66.4861L99.42 69.8485H100.306L101.85 65.3045Z" fill="#00529C"/>
<path fill-rule="evenodd" clip-rule="evenodd" d="M95.308 68.9405C95.104 69.0309 94.944 69.0981 94.7176 69.1669C94.4672 69.2341 94.2856 69.2573 94.0352 69.2573C93.7632 69.2573 93.4224 69.2341 93.24 68.9621C93.0136 68.6453 93.1496 68.1453 93.3544 67.5765C93.536 67.0309 93.7184 66.5325 94.036 66.2141C94.1952 66.0325 94.4904 65.8045 94.9448 65.8045C95.2624 65.8045 95.4448 65.8965 95.5584 66.0557C95.6488 66.2373 95.5816 66.4397 95.468 66.7373L96.2856 66.6701C96.6032 66.1685 96.5808 65.6685 96.2176 65.4197C95.9904 65.2589 95.6272 65.1901 95.2632 65.1901C94.8088 65.1901 94.2632 65.3045 93.8096 65.5757C92.9688 66.0757 92.5824 66.9869 92.3776 67.5541C92.2184 68.0309 91.9912 68.9165 92.4456 69.4637C92.7416 69.8477 93.2408 69.9165 93.7408 69.9165C94.0816 69.9165 94.4 69.8949 94.7632 69.7821C94.9448 69.6901 95.1952 69.5981 95.3992 69.4853L95.308 68.9405Z" fill="#00529C"/>
<path fill-rule="evenodd" clip-rule="evenodd" d="M90.832 68.9405C90.628 69.0309 90.4464 69.0981 90.2416 69.1669C89.9912 69.2341 89.8096 69.2573 89.56 69.2573C89.2872 69.2573 88.9464 69.2341 88.7648 68.9621C88.5144 68.6453 88.6736 68.1453 88.8784 67.5765C89.0368 67.0309 89.2192 66.5325 89.56 66.2141C89.7192 66.0325 89.992 65.8045 90.4688 65.8045C90.764 65.8045 90.968 65.8965 91.0592 66.0557C91.1504 66.2373 91.1048 66.4397 90.968 66.7373L91.8096 66.6701C92.1272 66.1685 92.0816 65.6685 91.7416 65.4197C91.5136 65.2589 91.1504 65.1901 90.7872 65.1901C90.3328 65.1901 89.7872 65.3045 89.3328 65.5757C88.492 66.0757 88.1056 66.9869 87.9008 67.5541C87.7424 68.0309 87.5152 68.9165 87.9696 69.4637C88.2648 69.8477 88.7648 69.9165 89.2648 69.9165C89.6056 69.9165 89.9232 69.8949 90.2872 69.7821C90.4696 69.6901 90.7192 69.5981 90.9232 69.4853L90.832 68.9405Z" fill="#00529C"/>
<path fill-rule="evenodd" clip-rule="evenodd" d="M84.948 65.9405C85.1064 65.8733 85.3112 65.8045 85.5616 65.8045C85.9248 65.8045 86.1064 65.9637 86.1752 66.0997C86.3568 66.4405 86.1976 66.9421 86.1296 67.1669L85.8344 67.9637C85.7664 68.1917 85.584 68.6901 85.1984 69.0093C85.1304 69.0781 85.0624 69.1221 84.9488 69.1909C84.7896 69.2581 84.6072 69.3269 84.3584 69.3269C83.9712 69.3269 83.7904 69.1677 83.7224 69.0101C83.5632 68.6917 83.7224 68.1933 83.7904 67.9645L84.0624 67.1677C84.1536 66.9429 84.3352 66.4413 84.7216 66.1005C84.788 66.0565 84.8568 65.9877 84.948 65.9405ZM85.7656 65.1909C85.4704 65.1909 85.1976 65.2365 84.948 65.3053C84.6296 65.4213 84.3576 65.5773 84.1072 65.7837C83.4712 66.2821 83.1536 66.9885 82.9712 67.5773C82.7664 68.1245 82.5848 68.8277 82.8808 69.3509C83.0848 69.6917 83.4712 69.9181 84.1528 69.9181C84.448 69.9181 84.7208 69.8965 84.948 69.8037C85.2888 69.7133 85.5616 69.5549 85.8112 69.3509C86.4472 68.8277 86.7656 68.1245 86.9696 67.5773C87.152 66.9885 87.3104 66.2821 87.0152 65.7837C86.8336 65.4405 86.4472 65.1909 85.7656 65.1909Z" fill="#00529C"/>
<path fill-rule="evenodd" clip-rule="evenodd" d="M81.312 64.0325H81.88C82.176 64.0325 82.516 64.1245 82.652 64.3061C82.7432 64.3965 82.9024 64.6229 82.7432 65.0781C82.584 65.5565 82.2888 65.8285 82.1528 65.9189C81.8576 66.1453 81.5616 66.2373 81.312 66.2373C81.2448 66.2605 81.176 66.2605 81.108 66.2605H79.8128L80.5624 64.0325H81.312ZM81.312 66.9877C81.7208 66.9645 82.3344 66.8269 82.88 66.3957C83.3112 66.1005 83.6752 65.6005 83.8568 65.0789C83.9696 64.7149 84.0608 64.1261 83.6528 63.7149C83.244 63.3293 82.6528 63.2837 82.1072 63.2837H81.312H79.8576L77.6312 69.8493H78.6088L79.5624 67.0101H80.9712C81.0624 67.0093 81.176 67.0093 81.312 66.9877Z" fill="#00529C"/>
<path fill-rule="evenodd" clip-rule="evenodd" d="M177.6 65.3045H176.714L173.283 68.6453L174.419 65.3045H173.533L171.988 69.8485H172.874L176.305 66.4861L175.17 69.8485H176.055L177.6 65.3045Z" fill="#00529C"/>
<path fill-rule="evenodd" clip-rule="evenodd" d="M27.1016 72.0517L25.216 71.2341L33.032 70.2813C33.168 70.5077 33.3048 70.7125 33.464 70.9173L27.1016 72.0517ZM48.072 72.0517L49.9576 71.1893L42.1872 70.2581C42.1192 70.5085 41.9144 70.7125 41.7784 70.9173L48.072 72.0517ZM46.9368 72.1893L44.5736 72.9845L41.2112 71.9629L40.9152 71.8725C41.0288 71.7805 41.12 71.6893 41.2112 71.5773C41.3472 71.4629 41.4608 71.3037 41.5976 71.1901L46.9368 72.1893ZM53.1848 69.9861L51.0264 70.9861L42.3928 69.9861C42.4608 69.7829 42.5296 69.5781 42.5976 69.3717L53.1848 69.9861ZM53.9568 69.6909L56.7736 67.8957H41.5064C41.5064 68.5333 41.4152 69.0789 41.2112 69.5549C40.62 71.0765 39.144 71.8037 37.6664 71.7797C36.2128 71.7341 34.736 70.9861 34.0768 69.5981C33.8496 69.0981 33.7136 68.5525 33.7136 67.8949H18.4L21.1952 69.6901L32.896 69.0773C33.1224 69.9165 33.5312 70.6445 34.0768 71.1885C35.0088 72.1669 36.3488 72.7117 37.6664 72.7117C38.9616 72.7349 40.28 72.2589 41.2112 71.2117C41.7112 70.6661 42.0968 69.9613 42.324 69.1213L53.9568 69.6909ZM41.2112 74.3237L41.5064 74.8709L41.2112 75.0085L40.416 75.3709L39.5072 73.5757C38.94 73.7805 38.3032 73.8941 37.6664 73.9165C36.9848 73.9397 36.2808 73.8477 35.6672 73.6429L34.8944 75.3709C34.644 75.3925 34.3032 75.3709 34.0768 75.2133C33.9632 75.1445 33.8496 75.0301 33.8048 74.8709L34.0768 74.4165L34.736 73.2333C34.5312 73.0989 34.3496 73.0085 34.168 72.8253L34.7136 72.1677C35.6448 72.7365 36.6672 73.0533 37.6664 73.0533C38.6664 73.0765 39.6656 72.7565 40.5976 72.0989L41.212 72.2805L41.4616 72.3725C41.3712 72.4397 41.3024 72.5085 41.212 72.5773C41.0296 72.7573 40.8712 72.9397 40.576 73.0989L41.2112 74.3237ZM41.2112 65.0325C41.8016 65.7373 42.2328 66.6013 42.4608 67.5997H41.484C41.416 67.3029 41.3256 67.0093 41.212 66.7373C40.5528 65.0109 39.212 63.7829 37.6672 62.7589C37.4632 62.6461 37.2816 62.5101 37.0768 62.3965C37.2816 62.4653 37.4632 62.5341 37.6672 62.6029C39.0752 63.1685 40.3248 63.9421 41.2112 65.0325ZM38.5752 71.4389C38.8256 71.3933 39.2112 71.2573 39.5072 71.0309L37.9616 67.9637L39.5752 67.1901L38.212 66.0085L37.6664 66.2605L35.3264 67.3261L36.008 68.8717L37.1216 68.3733L38.5752 71.4389ZM34.3496 71.8717C34.2584 71.8029 34.1672 71.7125 34.0768 71.6437C33.8952 71.4861 33.736 71.3269 33.6224 71.1669L28.2872 72.1749L30.5584 72.9373L34.3496 71.8717ZM32.896 69.9861C32.8048 69.7829 32.7368 69.5781 32.668 69.3717L21.9896 69.9861L24.148 71.0317L32.896 69.9861Z" fill="#00529C"/>
</g>
<defs>
<clipPath id="clip0_2363_1248">
<rect width="160" height="32.8" fill="white" transform="translate(18 42.7405)"/>
</clipPath>
</defs>
</svg>
