<svg width="52" height="52" viewBox="0 0 52 52" fill="none" xmlns="http://www.w3.org/2000/svg">
<path d="M39.6608 45.1114H26.002C25.5914 45.1114 25.2583 44.7783 25.2583 44.3678C25.2583 43.9572 25.5914 43.6241 26.002 43.6241H39.6608C40.6174 43.6241 41.3959 42.8466 41.3959 41.8899V37.5122C41.3959 37.1016 41.729 36.7686 42.1396 36.7686C42.5501 36.7686 42.8832 37.1016 42.8832 37.5122V41.8899C42.8832 43.6667 41.4376 45.1114 39.6608 45.1114Z" fill="#11181C"/>
<path d="M42.1397 32.4108H40.0065V23.2814C40.0065 15.4518 33.6366 9.08184 25.8072 9.08184C17.9775 9.08184 11.6076 15.4518 11.6076 23.2814V32.4108H9.47437V23.2814C9.47437 14.2755 16.8014 6.94861 25.8072 6.94861C34.813 6.94861 42.1397 14.2755 42.1397 23.2814V32.4108Z" fill="#11181C"/>
<path d="M49.0519 33.1151V33.4172C49.0519 35.679 47.2183 37.5125 44.9566 37.5125L44.9565 29.0197C47.2183 29.0197 49.0519 30.8533 49.0519 33.1151Z" fill="#11181C"/>
<path d="M46.1564 28.5488V38.1008C46.1564 39.1077 45.3402 39.924 44.3333 39.924H40.8253C39.8184 39.924 39.0022 39.1077 39.0022 38.1008V28.5488C39.0022 27.542 39.8184 26.7257 40.8253 26.7257H44.3333C45.3402 26.7257 46.1564 27.542 46.1564 28.5488Z" fill="#1150CB"/>
<path d="M2.948 33.1151V33.4172C2.948 35.679 4.78154 37.5125 7.04334 37.5125L7.04334 29.0197C4.78155 29.0197 2.948 30.8533 2.948 33.1151Z" fill="#11181C"/>
<path d="M5.84326 28.5488V38.1008C5.84326 39.1077 6.65951 39.924 7.6664 39.924H11.1743C12.1812 39.924 12.9975 39.1077 12.9975 38.1008V28.5488C12.9975 27.542 12.1812 26.7257 11.1743 26.7257H7.6664C6.65951 26.7257 5.84326 27.542 5.84326 28.5488Z" fill="#1150CB"/>
<path d="M37.0252 14.9018C36.4085 14.9018 35.7898 14.6831 35.2952 14.2385C34.172 13.2299 32.9045 12.4106 31.5275 11.8036C26.515 9.59493 20.4025 10.5736 16.3181 14.2392C15.2536 15.1953 13.6162 15.1063 12.66 14.0417C11.7047 12.9771 11.7931 11.3393 12.8576 10.3837C18.5174 5.30362 26.6656 3.99952 33.6167 7.06291C35.4964 7.89129 37.2258 9.0088 38.7569 10.3845C39.8215 11.3404 39.9093 12.9782 38.9531 14.0425C38.4418 14.6119 37.7347 14.9018 37.0252 14.9018Z" fill="#1150CB"/>
<path d="M29.936 44.2705C29.936 45.541 28.9061 46.5709 27.6357 46.5709H24.314C23.0436 46.5709 22.0137 45.541 22.0137 44.2705C22.0137 43.0001 23.0436 41.9702 24.314 41.9702H27.6357C28.9061 41.9702 29.936 43.0001 29.936 44.2705Z" fill="#11181C"/>
<path d="M37.3334 20.0096V33.697C37.3334 35.0208 36.2603 36.094 34.9364 36.094H24.471C24.3288 36.094 24.1935 36.155 24.0993 36.2615L21.6567 39.0254C21.3536 39.3685 20.7872 39.1527 20.7891 38.6949L20.798 36.5921C20.7991 36.3173 20.5767 36.094 20.302 36.094H17.9626C16.6434 36.094 15.574 35.0246 15.574 33.7054V20.0011C15.574 18.682 16.6434 17.6125 17.9626 17.6125H34.9364C36.2603 17.6125 37.3334 18.6857 37.3334 20.0096Z" fill="#FF7A00"/>
<path d="M18.9606 29.794C18.8756 29.7094 18.8335 29.6004 18.8335 29.4664C18.8335 29.1637 18.9198 28.8845 19.0925 28.6284C19.2646 28.3722 19.4739 28.1466 19.7205 27.9516C19.9664 27.7565 20.2904 27.5253 20.6924 27.2574C21.0371 27.0304 21.3121 26.8385 21.5159 26.6811C21.7197 26.5241 21.8889 26.3525 22.025 26.166C22.1611 25.9799 22.2288 25.782 22.2288 25.5724C22.2288 25.2405 22.1224 24.9773 21.9103 24.7823C21.6982 24.5872 21.357 24.4899 20.8872 24.4899C20.3781 24.4899 19.8946 24.5947 19.4359 24.8039C19.3792 24.8334 19.3253 24.8476 19.2749 24.8476C19.1844 24.8476 19.1077 24.8157 19.0456 24.7517C18.9834 24.6878 18.9523 24.6064 18.9523 24.5073C18.9523 24.362 19.0145 24.254 19.1388 24.1843C19.7163 23.8873 20.3443 23.7388 21.0233 23.7388C21.3853 23.7388 21.7148 23.8131 22.0126 23.9616C22.3096 24.1101 22.5438 24.3183 22.7165 24.5858C22.8892 24.8537 22.9755 25.162 22.9755 25.5113C22.9755 25.8548 22.8781 26.1735 22.6826 26.4673C22.4878 26.7614 22.2543 27.019 21.9828 27.24C21.7107 27.4613 21.357 27.7175 20.9218 28.0084C20.5253 28.282 20.2268 28.5015 20.0258 28.6674C19.8248 28.8333 19.6853 29.0039 19.6058 29.1783H22.5597C22.6619 29.1783 22.7476 29.2149 22.8187 29.2874C22.8892 29.3602 22.9251 29.449 22.9251 29.5538C22.9251 29.6586 22.8892 29.7457 22.8187 29.8157C22.7476 29.8856 22.6619 29.9205 22.5597 29.9205H19.2832C19.1526 29.9205 19.0456 29.8782 18.9606 29.794ZM26.558 29.8505C26.4848 29.7752 26.4482 29.6817 26.4482 29.5712V28.3839H23.8591C23.723 28.3839 23.6069 28.3356 23.5109 28.2397C23.4149 28.1438 23.3665 28.0258 23.3665 27.8862V27.8077C23.3665 27.6855 23.4004 27.5807 23.4688 27.4933L26.1339 23.9921C26.1794 23.9282 26.2402 23.8774 26.3162 23.8394C26.3929 23.8014 26.4737 23.7825 26.558 23.7825H26.7279C26.8751 23.7825 26.9939 23.8305 27.0844 23.9268C27.1749 24.0227 27.2205 24.1435 27.2205 24.2888V27.6766H27.8657C27.9617 27.6766 28.0439 27.7114 28.1116 27.7814C28.1793 27.851 28.2138 27.9356 28.2138 28.0347C28.2138 28.1335 28.1793 28.2166 28.1116 28.2834C28.0439 28.3505 27.9617 28.3839 27.8657 28.3839H27.2205V29.5712C27.2205 29.6817 27.1825 29.7752 27.1058 29.8505C27.0291 29.9261 26.9373 29.9642 26.8302 29.9642C26.7224 29.9642 26.6319 29.9261 26.558 29.8505ZM24.1899 27.6766H26.4482V24.6817L24.1899 27.6766ZM28.5323 30.6452C28.4674 30.5752 28.4349 30.491 28.4349 30.3919C28.4349 30.3571 28.4432 30.3134 28.4605 30.2608L30.7097 23.4944C30.7325 23.4244 30.7719 23.3665 30.8285 23.32C30.8852 23.2734 30.9556 23.25 31.0406 23.25C31.1428 23.25 31.2257 23.2848 31.2914 23.3548C31.3563 23.4244 31.3888 23.509 31.3888 23.6081C31.3888 23.6429 31.3805 23.6866 31.3632 23.7388L29.114 30.5056C29.0912 30.5752 29.0518 30.6335 28.9951 30.68C28.9385 30.7266 28.868 30.75 28.7831 30.75C28.6808 30.75 28.5972 30.7148 28.5323 30.6452ZM33.7527 26.5547C33.8066 26.6041 33.8335 26.6669 33.8335 26.7423C33.8335 26.8179 33.8079 26.9082 33.7568 27.013L32.4498 29.772C32.416 29.8419 32.3759 29.8913 32.331 29.9205C32.2854 29.9496 32.2288 29.9642 32.1611 29.9642C32.0816 29.9642 32.0195 29.9407 31.9746 29.8942C31.929 29.8476 31.9062 29.7894 31.9062 29.7197C31.9062 29.6672 31.9207 29.6121 31.949 29.5538L33.1966 27.013H31.643C31.5697 27.013 31.509 26.9885 31.4606 26.9387C31.4129 26.8893 31.3888 26.8268 31.3888 26.7511C31.3888 26.6755 31.4129 26.6115 31.4606 26.5589C31.509 26.5067 31.5697 26.4804 31.643 26.4804H33.5447C33.6297 26.4804 33.6988 26.5053 33.7527 26.5547Z" fill="#11181C"/>
</svg>
