<svg width="106" height="57" viewBox="0 0 106 57" fill="none" xmlns="http://www.w3.org/2000/svg">
<g clip-path="url(#clip0_2224_4898)">
<path d="M67.3106 6.10352e-05H38.2545C35.6903 6.10352e-05 33.6116 2.07879 33.6116 4.64304V33.6991C33.6116 36.2634 35.6903 38.3421 38.2545 38.3421H67.3106C69.8749 38.3421 71.9536 36.2634 71.9536 33.6991V4.64304C71.9536 2.07879 69.8749 6.10352e-05 67.3106 6.10352e-05Z" fill="url(#paint0_linear_2224_4898)"/>
<path fill-rule="evenodd" clip-rule="evenodd" d="M44.307 8.1928H53.5247C54.3972 8.1928 55.1048 8.90025 55.1048 9.77296V19.0234H56.29V9.77296C56.29 8.24577 55.0519 7.00769 53.5247 7.00769H44.307C42.7798 7.00769 41.5417 8.24573 41.5417 9.77296V28.5701C41.5417 30.0973 42.7798 31.3354 44.307 31.3354H50.0681C49.1284 31.3354 48.2982 30.8667 47.7987 30.1503H44.307C43.4345 30.1503 42.7269 29.4429 42.7269 28.5701V9.77296C42.7269 8.90025 43.4345 8.1928 44.307 8.1928Z" fill="url(#paint1_radial_2224_4898)"/>
<path fill-rule="evenodd" clip-rule="evenodd" d="M61.2291 20.2109H50.0693C49.1968 20.2109 48.4892 20.9183 48.4892 21.791V28.5725C48.4892 29.4452 49.1968 30.1526 50.0693 30.1526H61.2291C62.102 30.1526 62.8092 29.4452 62.8092 28.5725V21.791C62.8092 20.9183 62.102 20.2109 61.2291 20.2109ZM50.0693 19.0258C48.5421 19.0258 47.304 20.2638 47.304 21.791V28.5725C47.304 30.0997 48.5421 31.3378 50.0693 31.3378H61.2291C62.7563 31.3378 63.9944 30.0997 63.9944 28.5725V21.791C63.9944 20.2638 62.7563 19.0258 61.2291 19.0258H50.0693Z" fill="url(#paint2_radial_2224_4898)"/>
<path d="M54.9342 19.0239V19.1951H55.1052H56.2904H56.4618V19.0239V9.77347C56.4618 8.1517 55.1472 6.83704 53.5251 6.83704H44.3078C42.6862 6.83704 41.3715 8.1517 41.3715 9.77347V28.5706C41.3715 30.1924 42.6862 31.507 44.3078 31.507H50.0689V31.3359V31.1647C49.1874 31.1647 48.4085 30.7253 47.9395 30.0528L47.8882 29.9796H47.7991H44.3078C43.5298 29.9796 42.8987 29.3488 42.8987 28.5706V9.77347C42.8987 8.9953 43.5298 8.36447 44.3078 8.36447H53.5251C54.3036 8.36447 54.9342 8.9953 54.9342 9.77347V19.0239Z" fill="url(#paint3_radial_2224_4898)"/>
<path d="M54.9342 19.0239V19.1951H55.1052H56.2904H56.4618V19.0239V9.77347C56.4618 8.1517 55.1472 6.83704 53.5251 6.83704H44.3078C42.6862 6.83704 41.3715 8.1517 41.3715 9.77347V28.5706C41.3715 30.1924 42.6862 31.507 44.3078 31.507H50.0689V31.3359V31.1647C49.1874 31.1647 48.4085 30.7253 47.9395 30.0528L47.8882 29.9796H47.7991H44.3078C43.5298 29.9796 42.8987 29.3488 42.8987 28.5706V9.77347C42.8987 8.9953 43.5298 8.36447 44.3078 8.36447H53.5251C54.3036 8.36447 54.9342 8.9953 54.9342 9.77347V19.0239Z" stroke="black" stroke-width="0.336334"/>
<path d="M54.9342 19.0239V19.1951H55.1052H56.2904H56.4618V19.0239V9.77347C56.4618 8.1517 55.1472 6.83704 53.5251 6.83704H44.3078C42.6862 6.83704 41.3715 8.1517 41.3715 9.77347V28.5706C41.3715 30.1924 42.6862 31.507 44.3078 31.507H50.0689V31.3359V31.1647C49.1874 31.1647 48.4085 30.7253 47.9395 30.0528L47.8882 29.9796H47.7991H44.3078C43.5298 29.9796 42.8987 29.3488 42.8987 28.5706V9.77347C42.8987 8.9953 43.5298 8.36447 44.3078 8.36447H53.5251C54.3036 8.36447 54.9342 8.9953 54.9342 9.77347V19.0239Z" stroke="url(#paint4_radial_2224_4898)" stroke-width="0.336334"/>
<path d="M50.0693 20.3817H61.2291C62.0071 20.3817 62.6382 21.0126 62.6382 21.7907V28.5722C62.6382 29.3504 62.0071 29.9812 61.2291 29.9812H50.0693C49.2912 29.9812 48.6606 29.3504 48.6606 28.5722V21.7907C48.6606 21.0126 49.2912 20.3817 50.0693 20.3817ZM50.0693 18.8543C48.4476 18.8543 47.133 20.169 47.133 21.7907V28.5722C47.133 30.1939 48.4476 31.5086 50.0693 31.5086H61.2291C62.8507 31.5086 64.1654 30.1939 64.1654 28.5722V21.7907C64.1654 20.169 62.8507 18.8543 61.2291 18.8543H50.0693Z" fill="url(#paint5_radial_2224_4898)"/>
<path d="M50.0693 20.3817H61.2291C62.0071 20.3817 62.6382 21.0126 62.6382 21.7907V28.5722C62.6382 29.3504 62.0071 29.9812 61.2291 29.9812H50.0693C49.2912 29.9812 48.6606 29.3504 48.6606 28.5722V21.7907C48.6606 21.0126 49.2912 20.3817 50.0693 20.3817ZM50.0693 18.8543C48.4476 18.8543 47.133 20.169 47.133 21.7907V28.5722C47.133 30.1939 48.4476 31.5086 50.0693 31.5086H61.2291C62.8507 31.5086 64.1654 30.1939 64.1654 28.5722V21.7907C64.1654 20.169 62.8507 18.8543 61.2291 18.8543H50.0693Z" stroke="black" stroke-width="0.336334"/>
<path d="M50.0693 20.3817H61.2291C62.0071 20.3817 62.6382 21.0126 62.6382 21.7907V28.5722C62.6382 29.3504 62.0071 29.9812 61.2291 29.9812H50.0693C49.2912 29.9812 48.6606 29.3504 48.6606 28.5722V21.7907C48.6606 21.0126 49.2912 20.3817 50.0693 20.3817ZM50.0693 18.8543C48.4476 18.8543 47.133 20.169 47.133 21.7907V28.5722C47.133 30.1939 48.4476 31.5086 50.0693 31.5086H61.2291C62.8507 31.5086 64.1654 30.1939 64.1654 28.5722V21.7907C64.1654 20.169 62.8507 18.8543 61.2291 18.8543H50.0693Z" stroke="url(#paint6_radial_2224_4898)" stroke-width="0.336334"/>
<path d="M0.216675 56.5616H11.9307C16.5144 56.5616 17.9292 54.751 17.9292 52.4307V52.2422C17.9292 49.8274 15.892 48.9977 14.4395 48.79C15.4959 48.6394 17.1558 47.828 17.1558 45.9417V45.8097C17.1558 44.0554 15.9297 42.5278 11.9119 42.5278H0.216675V56.5616ZM10.4971 45.8097C11.5534 45.8097 11.9119 46.2059 11.9119 46.8097V46.8471C11.9119 47.4318 11.5723 47.8471 10.4971 47.8471H5.30975V45.8097H10.4971ZM10.8744 50.884C12.2325 50.884 12.4589 51.3746 12.4589 51.9214V51.9967C12.4589 52.5252 12.2325 53.1285 10.8744 53.1285H5.30975V50.884H10.8744Z" fill="#0F0F0F"/>
<path d="M0.216675 56.5616H11.9307C16.5144 56.5616 17.9292 54.751 17.9292 52.4307V52.2422C17.9292 49.8274 15.892 48.9977 14.4395 48.79C15.4959 48.6394 17.1558 47.828 17.1558 45.9417V45.8097C17.1558 44.0554 15.9297 42.5278 11.9119 42.5278H0.216675V56.5616ZM10.4971 45.8097C11.5534 45.8097 11.9119 46.2059 11.9119 46.8097V46.8471C11.9119 47.4318 11.5723 47.8471 10.4971 47.8471H5.30975V45.8097H10.4971ZM10.8744 50.884C12.2325 50.884 12.4589 51.3746 12.4589 51.9214V51.9967C12.4589 52.5252 12.2325 53.1285 10.8744 53.1285H5.30975V50.884H10.8744Z" fill="url(#paint7_linear_2224_4898)"/>
<path d="M19.8609 42.5278V56.5616H34.0083V53.1285H24.9351V51.2048H33.5933V47.7148H24.9351V45.9229H33.8762V42.5278H19.8609Z" fill="#0F0F0F"/>
<path d="M19.8609 42.5278V56.5616H34.0083V53.1285H24.9351V51.2048H33.5933V47.7148H24.9351V45.9229H33.8762V42.5278H19.8609Z" fill="url(#paint8_linear_2224_4898)"/>
<path d="M36.3735 42.5278V56.5616H50.5208V53.1285H41.4476V51.2048H50.1059V47.7148H41.4476V45.9229H50.3889V42.5278H36.3735Z" fill="#0F0F0F"/>
<path d="M36.3735 42.5278V56.5616H50.5208V53.1285H41.4476V51.2048H50.1059V47.7148H41.4476V45.9229H50.3889V42.5278H36.3735Z" fill="url(#paint9_linear_2224_4898)"/>
<path d="M63.1288 52.3741C68.2975 52.3741 69.7123 50.2993 69.7123 47.5075V47.262C69.7123 44.4894 68.3541 42.5278 63.1288 42.5278H52.8863V56.5616H57.9793V52.3741H63.1288ZM57.9793 46.1114H62.6573C64.0343 46.1114 64.4305 46.734 64.4305 47.4131V47.4509C64.4305 48.1866 64.0343 48.79 62.6573 48.79H57.9793V46.1114Z" fill="#0F0F0F"/>
<path d="M63.1288 52.3741C68.2975 52.3741 69.7123 50.2993 69.7123 47.5075V47.262C69.7123 44.4894 68.3541 42.5278 63.1288 42.5278H52.8863V56.5616H57.9793V52.3741H63.1288ZM57.9793 46.1114H62.6573C64.0343 46.1114 64.4305 46.734 64.4305 47.4131V47.4509C64.4305 48.1866 64.0343 48.79 62.6573 48.79H57.9793V46.1114Z" fill="url(#paint10_linear_2224_4898)"/>
<path d="M80.7748 56.7692C88.4706 56.7692 89.2254 51.9967 89.2254 49.224V42.5278H84.17V49.1862C84.17 50.7895 83.6606 52.6383 80.5105 52.6383H80.4352C77.2473 52.6383 76.7001 50.7895 76.7001 49.1862V42.5278H71.645V49.224C71.645 51.9967 72.1918 56.7692 80.1897 56.7692H80.7748Z" fill="#0F0F0F"/>
<path d="M80.7748 56.7692C88.4706 56.7692 89.2254 51.9967 89.2254 49.224V42.5278H84.17V49.1862C84.17 50.7895 83.6606 52.6383 80.5105 52.6383H80.4352C77.2473 52.6383 76.7001 50.7895 76.7001 49.1862V42.5278H71.645V49.224C71.645 51.9967 72.1918 56.7692 80.1897 56.7692H80.7748Z" fill="url(#paint11_linear_2224_4898)"/>
<path d="M91.8613 42.5278V56.5616H105.349V52.5818H96.9547V42.5278H91.8613Z" fill="#0F0F0F"/>
<path d="M91.8613 42.5278V56.5616H105.349V52.5818H96.9547V42.5278H91.8613Z" fill="url(#paint12_linear_2224_4898)"/>
</g>
<defs>
<linearGradient id="paint0_linear_2224_4898" x1="52.7825" y1="6.10352e-05" x2="52.7825" y2="38.3421" gradientUnits="userSpaceOnUse">
<stop stop-color="#353534"/>
<stop offset="1" stop-color="#0E0F10"/>
</linearGradient>
<radialGradient id="paint1_radial_2224_4898" cx="0" cy="0" r="1" gradientUnits="userSpaceOnUse" gradientTransform="translate(42.9394 8.22309) rotate(60.2551) scale(9.218 119.325)">
<stop stop-color="#FEDB01"/>
<stop offset="1" stop-color="#D98818"/>
</radialGradient>
<radialGradient id="paint2_radial_2224_4898" cx="0" cy="0" r="1" gradientUnits="userSpaceOnUse" gradientTransform="translate(48.8857 19.6409) rotate(38.0464) scale(6.57222 95.8549)">
<stop stop-color="#FEDB01"/>
<stop offset="1" stop-color="#D98818"/>
</radialGradient>
<radialGradient id="paint3_radial_2224_4898" cx="0" cy="0" r="1" gradientUnits="userSpaceOnUse" gradientTransform="translate(42.9398 8.2236) rotate(60.2551) scale(9.218 119.325)">
<stop stop-color="#FEDB01"/>
<stop offset="1" stop-color="#D98818"/>
</radialGradient>
<radialGradient id="paint4_radial_2224_4898" cx="0" cy="0" r="1" gradientUnits="userSpaceOnUse" gradientTransform="translate(42.9398 8.2236) rotate(60.2551) scale(9.218 119.325)">
<stop stop-color="#FEDB01"/>
<stop offset="1" stop-color="#D98818"/>
</radialGradient>
<radialGradient id="paint5_radial_2224_4898" cx="0" cy="0" r="1" gradientUnits="userSpaceOnUse" gradientTransform="translate(48.8857 19.6406) rotate(38.0464) scale(6.57222 95.8548)">
<stop stop-color="#FEDB01"/>
<stop offset="1" stop-color="#D98818"/>
</radialGradient>
<radialGradient id="paint6_radial_2224_4898" cx="0" cy="0" r="1" gradientUnits="userSpaceOnUse" gradientTransform="translate(48.8857 19.6406) rotate(38.0464) scale(6.57222 95.8548)">
<stop stop-color="#FEDB01"/>
<stop offset="1" stop-color="#D98818"/>
</radialGradient>
<linearGradient id="paint7_linear_2224_4898" x1="52.4792" y1="36.4383" x2="52.4792" y2="60.5422" gradientUnits="userSpaceOnUse">
<stop stop-color="#353534"/>
<stop offset="1" stop-color="#0E0F10"/>
</linearGradient>
<linearGradient id="paint8_linear_2224_4898" x1="52.4792" y1="36.4383" x2="52.4792" y2="60.5422" gradientUnits="userSpaceOnUse">
<stop stop-color="#353534"/>
<stop offset="1" stop-color="#0E0F10"/>
</linearGradient>
<linearGradient id="paint9_linear_2224_4898" x1="52.4792" y1="36.4383" x2="52.4792" y2="60.5422" gradientUnits="userSpaceOnUse">
<stop stop-color="#353534"/>
<stop offset="1" stop-color="#0E0F10"/>
</linearGradient>
<linearGradient id="paint10_linear_2224_4898" x1="52.4792" y1="36.4383" x2="52.4792" y2="60.5422" gradientUnits="userSpaceOnUse">
<stop stop-color="#353534"/>
<stop offset="1" stop-color="#0E0F10"/>
</linearGradient>
<linearGradient id="paint11_linear_2224_4898" x1="52.4792" y1="36.4383" x2="52.4792" y2="60.5422" gradientUnits="userSpaceOnUse">
<stop stop-color="#353534"/>
<stop offset="1" stop-color="#0E0F10"/>
</linearGradient>
<linearGradient id="paint12_linear_2224_4898" x1="52.4792" y1="36.4383" x2="52.4792" y2="60.5422" gradientUnits="userSpaceOnUse">
<stop stop-color="#353534"/>
<stop offset="1" stop-color="#0E0F10"/>
</linearGradient>
<clipPath id="clip0_2224_4898">
<rect width="105.45" height="57" fill="white" transform="translate(0.216675)"/>
</clipPath>
</defs>
</svg>
