<svg width="175" height="41" viewBox="0 0 175 41" fill="none" xmlns="http://www.w3.org/2000/svg">
<g clip-path="url(#clip0_2320_1159)">
<path d="M35.9287 7.61438C32.2478 3.31032 26.7177 0.570679 20.5335 0.570679C14.3492 0.570679 8.81686 3.31032 5.13538 7.61438H35.9287Z" fill="black"/>
<path d="M5.16254 32.824C8.84399 37.111 14.3619 39.8377 20.534 39.8377C26.7061 39.8377 32.2211 37.1105 35.9026 32.824H5.16254Z" fill="black"/>
<path d="M0.463776 20.2021C0.463776 21.6504 0.628774 23.0601 0.932717 24.4189H40.1329C40.4368 23.0601 40.6018 21.6504 40.6018 20.2021C40.6018 18.7539 40.4397 17.3651 40.1398 16.0159H0.925774C0.625879 17.3656 0.463776 18.7652 0.463776 20.2021Z" fill="black"/>
<path d="M35.9287 7.61438C32.2478 3.31032 26.7177 0.570679 20.5335 0.570679C14.3492 0.570679 8.81686 3.31032 5.13538 7.61438H35.9287Z" fill="black"/>
<path d="M5.16254 32.824C8.84399 37.111 14.3619 39.8377 20.534 39.8377C26.7061 39.8377 32.2211 37.1105 35.9026 32.824H5.16254Z" fill="black"/>
<path d="M0.463776 20.2021C0.463776 21.6504 0.628774 23.0601 0.932717 24.4189H40.1329C40.4368 23.0601 40.6018 21.6504 40.6018 20.2021C40.6018 18.7539 40.4397 17.3651 40.1398 16.0159H0.925774C0.625879 17.3656 0.463776 18.7652 0.463776 20.2021Z" fill="black"/>
<path d="M0.931213 24.4247C1.63636 27.5755 3.11266 30.4432 5.16038 32.8277H35.901C37.9487 30.4432 39.4256 27.5755 40.1308 24.4247H0.931213Z" fill="#F7BE00"/>
<path d="M5.1334 7.61407C3.09264 10.0002 1.62328 12.8674 0.92392 16.0159H40.138C39.4386 12.8668 37.9687 9.9997 35.9285 7.61407H5.1334Z" fill="#F7BE00"/>
<path d="M51.0851 10.9485H64.8986C70.3166 10.9485 71.6651 13.2629 71.6651 15.329V15.6026C71.6651 17.9169 69.6047 19.0871 68.1803 19.261C70.3166 19.5595 72.6061 20.8786 72.6061 23.8402V24.1138C72.6061 26.6275 71.0542 29.4645 64.9744 29.4645H51.0845L51.0851 10.9485ZM56.3251 14.8062V18.1163H64.135C65.712 18.1163 66.1955 17.3698 66.1955 16.4986V16.4488C66.1955 15.5528 65.6866 14.8062 64.135 14.8062H56.3251ZM56.3251 21.7502V25.4085H64.542C66.3992 25.4085 66.9075 24.4876 66.9075 23.5418V23.442C66.9075 22.5211 66.3986 21.7497 64.542 21.7497L56.3251 21.7502Z" fill="black"/>
<path d="M84.5756 29.7914H83.6339C76.6638 29.7914 74.9336 26.0584 74.9336 22.7483V22.4C74.9336 19.2639 76.5105 15.3569 83.2014 15.3569H84.3207C91.5458 15.3569 92.8434 19.2893 92.8434 23.147V23.5951H79.996C80.2251 25.1878 81.217 26.482 84.2699 26.482C87.1451 26.482 87.5261 25.4115 87.6285 25.1628H92.7926C92.7926 26.2826 91.8766 29.7914 84.5756 29.7914ZM80.0468 20.9812H87.5261C87.501 19.9605 87.0177 18.5173 83.8373 18.5173C81.2427 18.5173 80.3519 19.538 80.0468 20.9812Z" fill="black"/>
<path d="M104.656 29.7914H103.715C96.7444 29.7914 95.0142 26.0584 95.0142 22.7483V22.4C95.0142 19.2639 96.5912 15.3569 103.282 15.3569H104.401C111.626 15.3569 112.924 19.2893 112.924 23.147V23.5951H100.077C100.306 25.1878 101.298 26.482 104.351 26.482C107.225 26.482 107.606 25.4115 107.708 25.1628H112.873C112.873 26.2826 111.957 29.7914 104.656 29.7914ZM100.127 20.9812H107.607C107.581 19.9605 107.098 18.5173 103.918 18.5173C101.323 18.5173 100.433 19.538 100.127 20.9812Z" fill="black"/>
<path d="M120.433 29.463H115.472V10.623H120.433V29.463Z" fill="black"/>
<path d="M128.448 14.1075H123.386V10.623H128.448V14.1075ZM128.397 29.4636H123.436V15.6509H128.397V29.4636Z" fill="black"/>
<path d="M131.217 15.6538H136.127V17.8441C136.711 17.0976 138.645 15.3304 141.85 15.3304H142.104C146.226 15.3304 148.108 18.0683 148.108 20.5073V29.4671H143.147V22.2744C143.147 20.6817 142.205 19.1383 139.763 19.1383C137.321 19.1383 136.176 20.7559 136.176 22.4483V29.4664H131.216V15.6538H131.217Z" fill="black"/>
<path d="M160.406 29.7914H159.464C152.494 29.7914 150.764 26.0584 150.764 22.7483V22.4C150.764 19.2639 152.342 15.3569 159.033 15.3569H160.151C167.376 15.3569 168.674 19.2893 168.674 23.147V23.5951H155.826C156.056 25.1878 157.047 26.482 160.1 26.482C162.976 26.482 163.357 25.4115 163.459 25.1628H168.623C168.623 26.2826 167.707 29.7914 160.406 29.7914ZM155.877 20.9812H163.357C163.331 19.9605 162.848 18.5173 159.668 18.5173C157.073 18.5173 156.182 19.538 155.877 20.9812Z" fill="black"/>
<path d="M170.625 16.2533C167.851 16.2533 167.148 14.7728 167.148 13.5177V13.3137C167.148 12.1442 167.784 10.6098 170.625 10.6098H171.042C173.871 10.6098 174.475 12.1442 174.475 13.3347V13.5171C174.475 14.7722 173.607 16.2528 171.02 16.2528L170.625 16.2533ZM170.856 15.5238C173.29 15.5238 173.608 14.301 173.608 13.3568C173.608 12.4664 173.313 11.3399 170.856 11.3399H170.833C168.311 11.3399 168.047 12.4234 168.047 13.4214C168.047 14.4194 168.311 15.5244 170.833 15.5244L170.856 15.5238ZM170.198 14.8697H169.068V11.9725H171.525C172.413 11.9725 172.665 12.2943 172.665 12.6697V12.7128C172.665 13.1099 172.347 13.303 172.084 13.346C172.512 13.4321 172.709 13.7 172.709 14.0008V14.5264C172.709 14.6872 172.72 14.7518 172.775 14.8158V14.8697H171.657C171.613 14.8266 171.558 14.7728 171.558 14.6227V14.3219C171.558 14.0325 171.471 13.9141 171.185 13.9141H170.198V14.8697ZM171.25 13.1852C171.492 13.1852 171.557 13.0674 171.557 12.9167C171.557 12.7558 171.491 12.6381 171.25 12.6381H170.198V13.1852H171.25Z" fill="black"/>
</g>
<defs>
<clipPath id="clip0_2320_1159">
<rect width="174.915" height="40" fill="white" transform="translate(0.0847473 0.5)"/>
</clipPath>
</defs>
</svg>
