<svg width="52" height="52" viewBox="0 0 52 52" fill="none" xmlns="http://www.w3.org/2000/svg">
<path fill-rule="evenodd" clip-rule="evenodd" d="M26 8.73438C16.471 8.73438 8.73438 16.471 8.73438 26C8.73438 35.529 16.471 43.2656 26 43.2656C35.5298 43.2656 43.2656 35.529 43.2656 26C43.2656 16.471 35.5298 8.73438 26 8.73438ZM26 10.7656C34.4086 10.7656 41.2344 17.5923 41.2344 26C41.2344 34.4077 34.4086 41.2344 26 41.2344C17.5923 41.2344 10.7656 34.4077 10.7656 26C10.7656 17.5923 17.5923 10.7656 26 10.7656Z" fill="#1150CB"/>
<path fill-rule="evenodd" clip-rule="evenodd" d="M26 13.2933C18.9873 13.2933 13.2941 18.9873 13.2941 26C13.2941 33.0127 18.9873 38.7067 26 38.7067C33.0135 38.7067 38.7067 33.0127 38.7067 26C38.7067 18.9873 33.0135 13.2933 26 13.2933ZM22.6533 21.5914L18.6786 22.0765C18.3331 22.1189 18.0069 22.2591 17.7383 22.4805C17.4698 22.7019 17.27 22.9954 17.1624 23.3264C17.0548 23.6575 17.0439 24.0123 17.131 24.3493C17.2181 24.6863 17.3995 24.9915 17.654 25.229L20.5847 27.9581L19.8177 31.8882C19.7503 32.2302 19.7821 32.5843 19.9094 32.9088C20.0367 33.2332 20.2542 33.5145 20.5362 33.7194C20.8182 33.9242 21.1529 34.0441 21.5009 34.0649C21.8488 34.0857 22.1954 34.0064 22.4998 33.8366L26 31.8931L29.5011 33.8366C29.8055 34.0061 30.152 34.085 30.4998 34.0641C30.8476 34.0432 31.1821 33.9232 31.464 33.7185C31.7459 33.5137 31.9634 33.2326 32.0908 32.9083C32.2182 32.584 32.2502 32.2301 32.1831 31.8882L31.4161 27.9581L34.3468 25.229C34.6013 24.9915 34.7828 24.6863 34.8699 24.3493C34.957 24.0123 34.9461 23.6575 34.8385 23.3264C34.7309 22.9954 34.5311 22.7019 34.2625 22.4805C33.9939 22.2591 33.6678 22.1189 33.3223 22.0765L29.3475 21.5914L27.6575 17.9611C27.5106 17.6454 27.2766 17.3782 26.9829 17.1909C26.6893 17.0037 26.3483 16.9042 26 16.9042C25.6518 16.9042 25.3108 17.0037 25.0171 17.1909C24.7235 17.3782 24.4894 17.6454 24.3425 17.9611L22.6533 21.5914ZM26 19.214L27.5535 22.551C27.6845 22.8325 27.8851 23.076 28.1363 23.2585C28.3875 23.441 28.681 23.5566 28.9892 23.5942L32.643 24.0403L29.9496 26.5485C29.7223 26.76 29.5525 27.0259 29.4564 27.3211C29.3603 27.6164 29.341 27.9312 29.4003 28.236L30.1056 31.8492L26.8881 30.0617C26.6165 29.911 26.311 29.832 26.0004 29.832C25.6898 29.832 25.3844 29.911 25.1128 30.0617L21.8953 31.8492L22.5997 28.236C22.6593 27.9313 22.6402 27.6164 22.5442 27.3212C22.4482 27.0259 22.2786 26.7599 22.0513 26.5485L19.3578 24.0403L23.0116 23.5942C23.3199 23.5566 23.6134 23.441 23.8646 23.2585C24.1158 23.076 24.3163 22.8325 24.4473 22.551L26 19.214ZM41.9437 35.3535C40.0308 38.603 37.1746 41.1936 33.7545 42.7814C34.9668 43.5118 36.4138 44.0781 37.9592 44.0781C39.6833 44.0781 41.2848 43.3826 42.5775 42.5246C44.4283 41.2953 45.6292 39.7565 45.6292 39.7565C45.7691 39.5778 45.8451 39.3574 45.8451 39.1304C45.8451 38.9035 45.7691 38.6831 45.6292 38.5044C45.6292 38.5044 44.148 36.6308 41.9437 35.3535ZM44.313 28.5269C44.0386 30.5344 43.4335 32.4827 42.5222 34.2924C44.3593 35.3584 45.7413 36.7884 46.306 37.4221C47.1193 36.9095 47.827 36.2627 48.421 35.5891C49.8908 33.9227 50.6521 32.1255 50.6521 32.1255C50.7408 31.9167 50.7571 31.6842 50.6984 31.4651C50.6396 31.246 50.5092 31.0528 50.3279 30.9165C50.3279 30.9165 48.7695 29.74 46.6635 29.0323C45.9028 28.7714 45.1137 28.6018 44.313 28.5269ZM44.0294 21.9091C44.4306 23.6816 44.5683 25.5036 44.4381 27.3163C45.3513 27.3967 46.2361 27.6023 47.0519 27.8769C47.5394 28.041 48.0001 28.2279 48.4242 28.4213C49.6909 26.2145 50.037 23.8591 50.037 23.8591C50.0687 23.6344 50.0242 23.4056 49.9107 23.2092C49.7971 23.0127 49.6211 22.8599 49.4106 22.7752C49.4106 22.7752 46.826 21.7506 44.0294 21.9091ZM41.1791 15.4538C42.3002 17.0625 43.1573 18.8399 43.7182 20.7188C45.4041 20.5945 47.0348 20.8642 48.191 21.1429C48.4429 20.5254 48.6225 19.8908 48.7468 19.2725C49.1871 17.0942 48.9475 15.1572 48.9475 15.1572C48.9201 14.9318 48.8179 14.7222 48.6574 14.5616C48.4969 14.4011 48.2872 14.299 48.0618 14.2716C48.0618 14.2716 46.1248 14.0327 43.9465 14.4723C43.0243 14.6583 42.064 14.9671 41.1791 15.4538ZM10.0571 35.3535C7.85202 36.6308 6.37165 38.5044 6.37165 38.5044C6.23176 38.6831 6.15576 38.9035 6.15576 39.1304C6.15576 39.3574 6.23176 39.5778 6.37165 39.7565C6.37165 39.7565 7.57252 41.2953 9.4234 42.5246C10.7161 43.3826 12.3175 44.0781 14.0416 44.0781C15.587 44.0781 17.0341 43.5118 18.2463 42.7814C14.8261 41.1939 11.9698 38.6032 10.0571 35.3535ZM7.6879 28.5269C6.88714 28.6018 6.0981 28.7714 5.33733 29.0323C3.23052 29.74 1.67296 30.9165 1.67296 30.9165C1.49166 31.0528 1.36123 31.246 1.30248 31.4651C1.24372 31.6842 1.26002 31.9167 1.34877 32.1255C1.34877 32.1255 2.11008 33.9227 3.5799 35.5891C4.17383 36.2627 4.88152 36.9095 5.69483 37.4221C6.25952 36.7884 7.64158 35.3584 9.47865 34.2924C8.56738 32.4827 7.96227 30.5344 7.6879 28.5269ZM7.56196 27.3163C7.43202 25.5035 7.57 23.6816 7.97146 21.9091C5.17483 21.7506 2.59027 22.7752 2.59027 22.7752C2.37979 22.8599 2.20374 23.0127 2.0902 23.2092C1.97666 23.4056 1.93217 23.6344 1.96383 23.8591C1.96383 23.8591 2.30996 26.2145 3.57665 28.4213C4.02418 28.2164 4.48195 28.0347 4.94815 27.8769C5.79437 27.588 6.67169 27.3998 7.56196 27.3163ZM8.28265 20.7188C8.84336 18.8398 9.70051 17.0624 10.8217 15.4538C9.9369 14.9671 8.97652 14.6583 8.05352 14.4723C5.87602 14.0327 3.93821 14.2716 3.93821 14.2716C3.47508 14.3285 3.10946 14.6941 3.0534 15.1572C3.0534 15.1572 2.81371 17.0942 3.25327 19.2725C3.3784 19.8908 3.55796 20.5254 3.80902 21.1429C4.96602 20.8642 6.59671 20.5945 8.28265 20.7188Z" fill="#FF7A00"/>
</svg>
