<svg width="356" height="204" viewBox="0 0 356 204" fill="none" xmlns="http://www.w3.org/2000/svg">
<path d="M41.6809 260.696L41.7139 260.035L41.6769 259.375C40.2376 233.671 41.6485 209.739 47.4603 186.132L47.5321 185.84L47.5898 185.546C53.2816 156.479 66.7639 127.521 83.5992 105.636C84.1305 104.992 84.6392 104.372 85.1294 103.774C87.7154 100.623 89.7886 98.0968 91.967 95.9375C94.5299 93.3972 96.1267 92.542 97.034 92.2748C99.1618 91.6587 101.17 91.5008 102.588 91.6839C102.588 92.5645 102.539 93.6128 102.435 94.7904C100.988 104.996 97.5664 115.954 93.47 128.079C92.8979 129.772 92.3115 131.491 91.7176 133.232C88.1569 143.67 84.331 154.885 81.7525 165.953L81.7064 166.151L81.6667 166.351C81.4506 167.437 81.1451 168.789 80.7997 170.318C79.8087 174.704 78.4892 180.545 78.0079 185.739C77.3052 193.323 77.852 203.006 84.2053 211.595L84.3618 211.806L84.5271 212.011C87.6589 215.892 91.8002 218.986 97.0052 220.185C102.122 221.363 106.741 220.357 110.252 218.912C116.393 216.383 121.559 211.407 124.302 208.764C124.39 208.679 124.476 208.596 124.559 208.515L124.88 208.207L125.177 207.877C139.486 192.006 148.642 172.133 156.744 154.547C158.722 150.255 160.637 146.099 162.548 142.171L162.57 142.126L162.592 142.08C163.376 140.435 164.155 138.796 164.93 137.165C174.114 117.843 182.819 99.5267 194.325 82.9912C207.145 65.0231 221.166 48.7207 237.381 42.9483C246.846 40.0798 252.042 40.5689 257.072 44.4898L257.437 44.7737L257.821 45.0299C260.328 46.7024 261.76 48.3782 262.747 50.27C263.811 52.3107 264.693 55.2543 265.128 59.8884L265.167 60.3039L265.234 60.7158C265.721 63.7231 265.457 67.4359 264.367 72.3237C263.475 76.3259 262.222 80.3641 260.779 85.0142C260.417 86.1826 260.042 87.3895 259.658 88.6443L259.651 88.6677L259.644 88.6911C258.727 91.7308 257.654 94.9826 256.527 98.3973C252.86 109.509 248.623 122.345 247.355 135.216C246.701 141.555 247.164 150.432 253.222 156.915C260.368 164.561 270.349 164.132 278.137 161.401L278.802 161.167L279.437 160.861C285.763 157.804 291.166 153.816 295.825 150.011C298.026 148.213 300.169 146.364 302.163 144.645L302.509 144.346C304.649 142.501 306.625 140.804 308.604 139.207L308.623 139.192L308.642 139.177C310.102 137.99 311.723 136.651 313.479 135.202C323.264 127.124 337.228 115.596 350.749 107.62C358.859 102.836 365.336 100.252 369.701 99.7663C371.698 99.5439 372.481 99.8549 372.602 99.9104C372.654 99.9345 372.701 99.9602 372.785 100.044C372.868 100.127 373.066 100.347 373.324 100.811C373.93 102.295 374.354 105.045 374.018 109.545C373.677 114.109 372.698 118.987 371.659 124.079C371.659 124.079 371.659 124.08 371.659 124.08L371.627 124.233L371.609 124.322L371.592 124.412C370.835 128.417 369.95 132.456 369.016 136.708L368.977 136.888C368.068 141.026 367.114 145.369 366.28 149.753C364.587 158.649 363.271 168.27 363.697 178.308L363.711 178.635L363.742 178.961C364.388 185.762 366.348 193.476 370.336 200.293C374.391 207.225 380.915 213.768 390.547 216.437L390.898 216.534L391.253 216.611C403.317 219.209 415.438 217.153 425.285 214.208L425.688 214.088L426.082 213.94C440.271 208.632 451.765 199.046 461.177 190.901L461.199 190.881L461.222 190.861C475.816 178.107 488.055 163.37 499.289 148.923C513.534 130.605 526.97 111.052 537.937 89.996C538.41 89.3409 539.871 87.1978 540.344 84.1505C541.029 79.7404 539.408 75.9153 537.162 73.3633C535.372 71.3302 533.327 70.2272 532.243 69.6952L526.859 80.6575L532.243 69.6952C526.979 67.1095 521.904 68.4328 518.764 70.3338C516.134 71.9257 514.526 74.0255 513.781 75.0822C512.909 76.32 512.292 77.4926 511.925 78.244C511.785 78.5304 511.665 78.7901 511.565 79.0133C502.028 96.9403 488.278 116.872 476.793 131.518L476.783 131.532L476.772 131.545C466.116 145.214 455.451 157.98 443.195 168.795C432.991 177.702 424.747 184.31 415.37 187.399C411.497 188.282 407.527 189.003 403.953 189.156C400.116 189.32 398.22 188.753 397.557 188.401C396.751 187.886 395.332 186.443 394.067 183.411C392.824 180.434 392.168 176.917 392.187 173.804C392.549 163.092 394.535 153.872 396.929 142.755C397.67 139.313 398.451 135.689 399.234 131.782L399.255 131.678L399.274 131.573C399.497 130.354 399.776 128.966 400.08 127.457C401.093 122.423 402.377 116.04 402.752 110.074C403.271 101.834 402.348 92.0012 396.168 83.0168L395.91 82.6423L395.626 82.2875C386.043 70.3206 372.154 69.6262 360.621 72.4739C349.352 75.2563 337.54 81.8761 326.94 88.9917C316.13 96.2491 305.548 104.739 296.667 112.14C293.256 114.982 290.184 117.586 287.445 119.907C283.395 123.34 280.074 126.155 277.465 128.209C278.273 124.727 279.311 121.025 280.513 117.103C281.619 113.496 282.816 109.847 284.051 106.08L284.124 105.859C285.37 102.058 286.657 98.1319 287.835 94.2521L287.84 94.2346L287.846 94.2171C288.111 93.3341 288.395 92.411 288.691 91.4512C291.63 81.9073 295.688 68.7272 293.459 55.1906C292.695 47.0422 290.376 39.6458 285.988 33.1143C281.536 26.4859 275.474 21.5234 268.469 17.5695L268.414 17.538L268.357 17.5071C254.052 9.6247 238.01 12.4746 226.856 16.3675L226.58 16.4638L226.31 16.5728C200.909 26.7929 183.681 48.9071 170.52 67.3739L170.463 67.4535L170.408 67.534C156.924 87.0941 146.812 108.689 137.256 129.095C135.782 132.244 134.321 135.364 132.862 138.444C130.976 142.283 129.238 145.971 127.545 149.563C124.503 156.018 121.607 162.165 118.255 168.319C114.688 174.869 110.997 180.635 106.879 185.482C107.234 183.139 107.765 180.721 108.359 178.022C108.713 176.408 109.09 174.693 109.464 172.834C111.907 162.644 115.277 152.665 118.859 142.055C119.112 141.304 119.367 140.551 119.622 139.794C123.439 128.473 127.414 116.439 130.019 103.868L130.105 103.452L130.163 103.03C130.216 102.643 130.278 102.213 130.346 101.747C130.745 98.9821 131.328 94.9414 131.312 91.023C131.293 86.1796 130.42 80.007 126.464 74.268L126.103 73.7443L125.691 73.26C119.847 66.3942 111.895 63.6214 104.791 63.0435C97.7627 62.4718 90.7095 63.9262 84.8894 66.4733L84.7814 66.5206L84.6742 66.5699C76.1444 70.4964 70.1804 77.2363 66.0886 82.1513C60.9445 88.2484 55.9128 94.7308 51.3882 101.744L51.2951 101.888L51.2061 102.035C39.8992 120.666 29.6757 140.924 23.6605 162.971L23.6356 163.062L23.6121 163.154C17.9598 185.178 12.9688 208.547 12.5408 232.597L12.5408 232.597C12.3978 240.651 12.66 248.727 12.9102 256.431C12.9533 257.758 12.9961 259.075 13.0363 260.378C13.0544 265.75 16.256 271.673 22.6391 273.748C27.7616 275.499 32.5765 273.971 35.6572 271.738C38.7651 269.485 41.4355 265.619 41.6809 260.696ZM103.825 92.0176C103.824 92.0188 103.805 92.0088 103.775 91.9838C103.812 92.0038 103.827 92.0163 103.825 92.0176Z" stroke="#D8EEFF" stroke-width="25"/>
</svg>
