<svg width="52" height="52" viewBox="0 0 52 52" fill="none" xmlns="http://www.w3.org/2000/svg">
<path d="M36.4244 0.40625H14.9988C13.7992 0.408398 12.6493 0.885893 11.801 1.73415C10.9528 2.5824 10.4753 3.73226 10.4731 4.93188V47.0681C10.4753 48.2677 10.9528 49.4176 11.801 50.2659C12.6493 51.1141 13.7992 51.5916 14.9988 51.5938H36.4244C37.7798 51.5938 39.0797 51.0553 40.0382 50.0969C40.9966 49.1385 41.535 47.8385 41.535 46.4831V5.51687C41.535 4.16145 40.9966 2.86155 40.0382 1.90312C39.0797 0.944689 37.7798 0.40625 36.4244 0.40625ZM28.4375 47.0519C28.4386 47.2528 28.3998 47.4519 28.3234 47.6377C28.2471 47.8235 28.1346 47.9923 27.9925 48.1344C27.8505 48.2764 27.6817 48.3889 27.4958 48.4653C27.31 48.5417 27.1109 48.5805 26.91 48.5794H25.09C24.8891 48.5805 24.69 48.5417 24.5042 48.4653C24.3184 48.3889 24.1496 48.2764 24.0075 48.1344C23.8655 47.9923 23.753 47.8235 23.6766 47.6377C23.6002 47.4519 23.5614 47.2528 23.5625 47.0519V45.2238C23.5625 45.0235 23.6021 44.8253 23.6789 44.6404C23.7558 44.4556 23.8685 44.2877 24.0104 44.1465C24.1524 44.0053 24.3208 43.8936 24.5061 43.8177C24.6914 43.7418 24.8898 43.7033 25.09 43.7044H26.9181C27.3211 43.7044 27.7076 43.8645 27.9925 44.1494C28.2774 44.4343 28.4375 44.8208 28.4375 45.2238V47.0519ZM38.5856 40.1781C38.5856 40.3311 38.5249 40.4779 38.4167 40.586C38.3085 40.6942 38.1618 40.755 38.0088 40.755H13.9913C13.8383 40.755 13.6915 40.6942 13.5834 40.586C13.4752 40.4779 13.4144 40.3311 13.4144 40.1781V4.93188C13.4143 4.50785 13.5799 4.10056 13.8759 3.79695C14.1719 3.49335 14.5749 3.31748 14.9988 3.30688H37.0013C37.4252 3.31748 37.8281 3.49335 38.1241 3.79695C38.4202 4.10056 38.5858 4.50785 38.5856 4.93188V40.1781Z" fill="#1150CB"/>
<path d="M33.7024 23.3106L33.3124 20.995L34.3605 20.1175C34.4482 20.05 34.5192 19.9632 34.568 19.8639C34.6169 19.7646 34.6423 19.6554 34.6423 19.5447C34.6423 19.434 34.6169 19.3248 34.568 19.2255C34.5192 19.1262 34.4482 19.0394 34.3605 18.9719C34.2042 18.8654 34.0133 18.8221 33.8264 18.8507C33.6394 18.8794 33.4703 18.9778 33.353 19.1263L33.1012 19.4269L32.8412 17.7531L34.0274 16.77C34.1268 16.6942 34.2073 16.5965 34.2628 16.4844C34.3182 16.3724 34.347 16.2491 34.347 16.1241C34.347 15.9991 34.3182 15.8758 34.2628 15.7637C34.2073 15.6517 34.1268 15.554 34.0274 15.4781C33.8455 15.3383 33.616 15.2754 33.3882 15.3027C33.1604 15.33 32.9523 15.4455 32.8087 15.6244L32.5568 15.925L32.3455 14.5763L34.523 12.3988C35.566 11.1795 36.2321 9.6834 36.4405 8.09251C36.4572 7.95549 36.4427 7.81648 36.3982 7.68582C36.3537 7.55517 36.2803 7.43623 36.1835 7.33785C36.0867 7.23947 35.9689 7.16419 35.839 7.1176C35.7091 7.07101 35.5703 7.05432 35.433 7.06876C33.8383 7.26355 32.3385 7.9314 31.1268 8.98626L28.9493 11.1638L27.6249 10.9525L27.9255 10.7006C28.1044 10.5569 28.2199 10.3489 28.2472 10.1211C28.2746 9.89328 28.2116 9.66382 28.0718 9.48189C27.9959 9.38251 27.8982 9.30197 27.7862 9.24653C27.6742 9.1911 27.5508 9.16226 27.4258 9.16226C27.3008 9.16226 27.1775 9.1911 27.0655 9.24653C26.9535 9.30197 26.8557 9.38251 26.7799 9.48189L25.7968 10.6681L24.123 10.4081L24.4237 10.1563C24.5721 10.039 24.6705 9.86987 24.6992 9.6829C24.7278 9.49594 24.6845 9.30507 24.578 9.14876C24.5105 9.06109 24.4237 8.9901 24.3244 8.94125C24.2251 8.8924 24.1159 8.86699 24.0052 8.86699C23.8945 8.86699 23.7853 8.8924 23.686 8.94125C23.5867 8.9901 23.5 9.06109 23.4324 9.14876L22.5549 10.1969L20.2312 9.83939C20.0902 9.81908 19.9465 9.84684 19.8232 9.9182C19.7 9.98957 19.6043 10.1004 19.5518 10.2327C19.4992 10.3651 19.4928 10.5113 19.5335 10.6478C19.5742 10.7843 19.6597 10.9031 19.7762 10.985L25.3418 14.8281L24.1149 16.055C23.4162 16.9894 21.8724 18.85 20.4912 20.5075L16.063 19.6138C15.9974 19.6012 15.9297 19.605 15.866 19.6249C15.8022 19.6447 15.7443 19.68 15.6974 19.7275C15.6546 19.7697 15.6217 19.8208 15.601 19.8772C15.5803 19.9336 15.5724 19.9939 15.5778 20.0538C15.5833 20.1136 15.6019 20.1715 15.6324 20.2233C15.6629 20.275 15.7046 20.3194 15.7543 20.3531L18.793 22.4494C18.8564 22.4936 18.9284 22.5241 19.0043 22.5388C18.9148 22.8336 18.9069 23.1471 18.9813 23.4461C19.0556 23.7451 19.2096 24.0184 19.4268 24.2369C19.6422 24.4344 19.9055 24.572 20.1906 24.6362C20.4757 24.7003 20.7726 24.6887 21.0518 24.6025C21.067 24.6693 21.0946 24.7327 21.133 24.7894L23.2293 27.8281C23.2827 27.9038 23.3604 27.959 23.4496 27.9845C23.5387 28.0099 23.6338 28.0042 23.7192 27.9681C23.8046 27.9321 23.875 27.8679 23.9189 27.7863C23.9628 27.7047 23.9775 27.6105 23.9605 27.5194L23.0668 23.0913C24.6918 21.71 26.5849 20.1663 27.5193 19.4675L28.7462 18.2406L32.5893 23.8063C32.6712 23.9228 32.79 24.0082 32.9265 24.049C33.063 24.0897 33.2092 24.0832 33.3416 24.0306C33.4739 23.9781 33.5847 23.8824 33.6561 23.7592C33.7274 23.6359 33.7552 23.4922 33.7349 23.3513L33.7024 23.3106ZM21.5718 22.8313C21.4533 22.9498 21.2925 23.0164 21.1249 23.0164C20.9573 23.0164 20.7965 22.9498 20.678 22.8313C20.5595 22.7127 20.4929 22.552 20.4929 22.3844C20.4929 22.2168 20.5595 22.056 20.678 21.9375L22.4574 20.1581C22.5759 20.0396 22.7367 19.973 22.9043 19.973C23.0719 19.973 23.2326 20.0396 23.3512 20.1581C23.4697 20.2767 23.5363 20.4374 23.5363 20.605C23.5363 20.7726 23.4697 20.9334 23.3512 21.0519L21.5718 22.8313ZM32.4268 8.83189C32.5616 8.63484 32.7382 8.46992 32.944 8.34887C33.1498 8.22782 33.3798 8.15361 33.6175 8.13151C33.8553 8.10942 34.0949 8.13999 34.3195 8.22105C34.5441 8.30211 34.7481 8.43166 34.9169 8.60049C35.0858 8.76933 35.2153 8.97329 35.2964 9.19788C35.3774 9.42246 35.408 9.66215 35.3859 9.8999C35.3638 10.1376 35.2896 10.3676 35.1685 10.5734C35.0475 10.7792 34.8826 10.9558 34.6855 11.0906L32.4268 8.83189ZM33.3124 32.7844H18.6874C18.5248 32.731 18.3833 32.6276 18.283 32.489C18.1826 32.3504 18.1286 32.1836 18.1286 32.0125C18.1286 31.8414 18.1826 31.6747 18.283 31.5361C18.3833 31.3975 18.5248 31.2941 18.6874 31.2406H33.3124C33.4344 31.2005 33.5642 31.1899 33.6912 31.2097C33.8181 31.2295 33.9385 31.2791 34.0426 31.3544C34.1466 31.4297 34.2313 31.5286 34.2897 31.643C34.3481 31.7574 34.3786 31.8841 34.3786 32.0125C34.3786 32.141 34.3481 32.2676 34.2897 32.382C34.2313 32.4964 34.1466 32.5953 34.0426 32.6707C33.9385 32.746 33.8181 32.7956 33.6912 32.8153C33.5642 32.8351 33.4344 32.8245 33.3124 32.7844ZM31.8012 37.0419H20.1987C20.0361 36.9885 19.8946 36.8851 19.7942 36.7465C19.6939 36.6079 19.6399 36.4411 19.6399 36.27C19.6399 36.0989 19.6939 35.9322 19.7942 35.7936C19.8946 35.655 20.0361 35.5516 20.1987 35.4981H31.8012C31.9232 35.458 32.053 35.4474 32.1799 35.4672C32.3068 35.487 32.4273 35.5365 32.5313 35.6119C32.6354 35.6872 32.7201 35.7861 32.7785 35.9005C32.8369 36.0149 32.8674 36.1416 32.8674 36.27C32.8674 36.3985 32.8369 36.5251 32.7785 36.6395C32.7201 36.7539 32.6354 36.8528 32.5313 36.9282C32.4273 37.0035 32.3068 37.0531 32.1799 37.0728C32.053 37.0926 31.9232 37.082 31.8012 37.0419Z" fill="#FF7A00"/>
</svg>
