<svg width="232" height="146" viewBox="0 0 232 146" fill="none" xmlns="http://www.w3.org/2000/svg">
<path d="M89.029 74.5032L98.6093 75.4305C101.186 75.6798 103.635 76.6769 105.653 78.298L120.048 89.4959L102.202 117.062L81.1953 95.0914L89.029 74.5032Z" fill="#6A8AFF"/>
<path d="M102.203 117.667C102.222 117.667 102.241 117.668 102.26 117.664C102.445 117.647 102.611 117.545 102.712 117.39L120.558 89.8244C120.729 89.5612 120.67 89.2108 120.422 89.0173L106.027 77.8194C105.764 77.6137 105.384 77.6608 105.178 77.9257C104.973 78.189 105.022 78.569 105.285 78.7746L119.24 89.6326L102.112 116.09L81.6357 94.6721C81.4038 94.4298 81.0221 94.4228 80.7798 94.6529C80.5375 94.883 80.5288 95.2665 80.7606 95.5088L101.767 117.479C101.88 117.601 102.039 117.667 102.203 117.667Z" fill="#11181C"/>
<path d="M104.918 136.856C104.875 136.882 104.824 136.906 104.774 136.925C96.1816 141.24 86.61 143.879 76.4754 144.415C75.1855 144.485 73.8747 144.524 72.5656 144.524C68.3838 144.524 64.2787 144.17 60.2922 143.474C52.5927 142.158 45.3117 139.615 38.6633 136.047L38.9161 82.2465C38.9283 79.6527 40.7063 77.4076 43.2182 76.7992C51.519 74.7876 65.0631 72.4344 69.6877 72.5669C88.0778 73.0916 94.5431 75.5912 98.8957 77.3431C100.939 78.1589 102.305 80.1007 102.406 82.3023L104.918 136.856Z" fill="#6A8AFF"/>
<path opacity="0.6" d="M69.0439 110.245L69.4661 110.933L65.9419 113.096L65.5198 112.408L69.0439 110.245Z" fill="white"/>
<path opacity="0.6" d="M59.7638 117.414L64.9036 122.554L64.3329 123.125L59.1931 117.985L59.7638 117.414Z" fill="white"/>
<path opacity="0.6" d="M71.1444 131.722L71.7151 132.293L68.8875 135.12L68.3168 134.55L71.1444 131.722Z" fill="white"/>
<path opacity="0.6" d="M55.1596 137.765L60.7727 143.378L60.202 143.949L54.5889 138.336L55.1596 137.765Z" fill="white"/>
<path opacity="0.6" d="M85.4362 122.597L89.1956 127.313L88.5644 127.817L84.8051 123.1L85.4362 122.597Z" fill="white"/>
<path opacity="0.6" d="M91.4198 110.218L91.9905 110.789L88.236 114.543L87.6653 113.973L91.4198 110.218Z" fill="white"/>
<path opacity="0.6" d="M85.48 97.0244H89.0569V97.8315H85.48V97.0244Z" fill="white"/>
<path opacity="0.6" d="M94.41 81.6372L98.4553 85.6826L97.8846 86.2533L93.8393 82.2079L94.41 81.6372Z" fill="white"/>
<path opacity="0.6" d="M74.3423 88.7611L78.554 92.9729L77.9833 93.5436L73.7716 89.3318L74.3423 88.7611Z" fill="white"/>
<path opacity="0.6" d="M84.8756 133.003L85.4463 133.573L82.5213 136.498L81.9506 135.927L84.8756 133.003Z" fill="white"/>
<path opacity="0.6" d="M48.2965 126.057L50.7407 128.501L50.17 129.072L47.7258 126.628L48.2965 126.057Z" fill="white"/>
<path opacity="0.6" d="M79.9471 115.283L80.5178 115.854L77.5288 118.842L76.9581 118.272L79.9471 115.283Z" fill="white"/>
<path d="M103.527 100.632L105.372 136.901L104.164 136.963L102.319 100.693L103.527 100.632Z" fill="#11181C"/>
<path d="M80.2261 73.612L79.7955 51.0227H59.8035C59.8035 51.0227 59.5769 73.4516 59.5839 73.5963C69.0561 80.7868 76.1977 81.5154 80.2261 73.612Z" fill="white"/>
<path d="M72.173 79.8775C72.8808 79.8775 73.5623 79.8025 74.2177 79.6526C76.9283 79.0321 79.1316 77.092 80.765 73.8863C80.8103 73.7974 80.8329 73.6998 80.8312 73.6005L80.4024 51.0112C80.3954 50.6817 80.127 50.4167 79.7975 50.4167H59.8055C59.4743 50.4167 59.2041 50.6834 59.2006 51.0164C59.1326 57.7658 58.974 73.4767 58.981 73.6231C58.9897 73.8027 59.0768 73.97 59.2198 74.0781C64.3359 77.9653 68.6013 79.8775 72.173 79.8775ZM79.618 73.4715C78.1642 76.2622 76.2555 77.9444 73.9475 78.4743C70.4595 79.2726 65.8315 77.5312 60.1907 73.2972C60.2064 71.2838 60.3302 58.857 60.4034 51.63H79.2031L79.618 73.4715Z" fill="#11181C"/>
<path d="M60.0139 55.7987C55.7258 46.7082 56.2679 33.0856 56.2679 33.0856L77.6388 25.1665C78.0693 25.5761 91.3573 31.7294 90.4264 47.2137C89.4956 62.698 78.9862 68.7257 66.4601 63.0518" fill="white"/>
<path d="M75.3085 65.7486C78.0748 65.7486 80.6338 65.0792 82.8563 63.7387C87.6621 60.8399 90.5661 54.9847 91.0316 47.2504C91.5929 37.9281 87.0903 29.9899 78.3572 24.8999C78.1916 24.8023 78.0748 24.7378 78.0225 24.6995C77.8552 24.5408 77.6478 24.5217 77.4316 24.6018L56.0608 32.5209C55.8324 32.6063 55.6755 32.8207 55.6668 33.0648C55.6441 33.6278 55.1683 46.9419 59.4703 56.0602C59.6133 56.3635 59.9724 56.4925 60.2757 56.3496C60.5772 56.2067 60.708 55.8458 60.565 55.5443C56.7981 47.5572 56.8225 35.8207 56.8661 33.5128L77.5711 25.8412C77.6234 25.8708 77.6826 25.9057 77.7506 25.9458C86.0689 30.7952 90.3587 38.336 89.8271 47.179C89.3861 54.5036 86.6912 60.0172 82.2357 62.7033C78.0661 65.2169 72.5543 65.1472 66.7148 62.5011C66.4098 62.3634 66.0507 62.4976 65.9147 62.8027C65.777 63.1077 65.9112 63.4651 66.2163 63.6045C69.3679 65.0322 72.4497 65.7468 75.3085 65.7486Z" fill="#11181C"/>
<path d="M85.5862 42.792C85.3798 41.8822 85.7072 41.0325 86.3174 40.894C86.9276 40.7556 87.5897 41.3808 87.7961 42.2905C88.0026 43.2002 87.6752 44.05 87.065 44.1885C86.4547 44.327 85.7927 43.7017 85.5862 42.792Z" fill="#11181C"/>
<path d="M87.6553 39.1667C86.5344 38.7275 85.2079 39.0674 84.291 40.0279L87.6553 39.1667Z" fill="white"/>
<path d="M84.2915 40.6331C84.4519 40.6331 84.6105 40.5703 84.7291 40.4466C85.4786 39.6622 86.5402 39.3798 87.4344 39.7302C87.7464 39.8522 88.0968 39.6988 88.2188 39.3867C88.3409 39.0747 88.1874 38.7244 87.8754 38.6023C86.5227 38.0724 84.9435 38.4681 83.8523 39.6081C83.6222 39.8504 83.6309 40.2322 83.8714 40.464C83.9917 40.5791 84.1416 40.6331 84.2915 40.6331Z" fill="#11181C"/>
<path d="M61.4645 43.5121C61.4645 43.5121 61.5151 44.6208 63.3157 43.4006C65.1181 42.1786 67.4888 31.9464 69.5283 30.9616C71.5677 29.9767 81.5263 26.6787 85.8928 33.1736C85.8928 33.1736 93.4354 29.581 94.171 21.0083C94.9066 12.4338 88.4134 4.53038 79.5879 7.18169C70.7607 9.833 70.093 20.426 70.093 20.426C70.093 20.426 64.1402 16.7986 60.6417 18.6463C57.1415 20.4923 59.629 26.7257 59.629 26.7257C59.629 26.7257 54.4728 24.9373 50.7669 30.5415C47.061 36.1457 55.245 46.1879 55.245 46.1879L61.4645 43.5121Z" fill="#11181C"/>
<path d="M75.6075 48.9545C75.7364 48.9545 75.8672 48.9475 75.9979 48.9353C78.6754 48.6704 80.5806 45.6739 80.2407 42.2556C80.0804 40.6293 79.4424 39.1424 78.4435 38.0686C77.4029 36.9495 76.099 36.4109 74.769 36.5364C73.4407 36.6671 72.2676 37.4568 71.4675 38.7589C70.6988 40.007 70.3658 41.5897 70.5262 43.2161C70.6866 44.8424 71.3246 46.3293 72.3234 47.4031C73.2629 48.4124 74.4151 48.9545 75.6075 48.9545ZM75.156 37.7287C76.0101 37.7287 76.8556 38.1348 77.558 38.8931C78.3773 39.7734 78.902 41.011 79.038 42.3742C79.3099 45.1283 77.8945 47.5303 75.8794 47.7308C74.9364 47.8284 73.9881 47.4153 73.2106 46.5803C72.3914 45.7001 71.8667 44.4624 71.7307 43.0993C71.5948 41.7362 71.8684 40.4201 72.4977 39.3951C73.0956 38.4225 73.9445 37.8368 74.8875 37.7444C74.9782 37.7339 75.0671 37.7287 75.156 37.7287ZM86.9204 48.2084C87.0494 48.2084 87.1801 48.2015 87.3109 48.1893C88.6391 48.0585 89.8123 47.2689 90.6124 45.9668C91.3811 44.7187 91.714 43.1359 91.5537 41.5096C91.3933 39.8832 90.7553 38.3963 89.7565 37.3225C88.7158 36.2035 87.4137 35.6648 86.082 35.7903C84.7537 35.9211 83.5806 36.7107 82.7805 38.0128C82.0117 39.2609 81.6788 40.8437 81.8392 42.47C81.9995 44.0964 82.6375 45.5833 83.6364 46.657C84.5759 47.6663 85.7281 48.2084 86.9204 48.2084ZM86.4689 36.9826C87.3231 36.9826 88.1685 37.3888 88.871 38.147C89.6903 39.0273 90.215 40.265 90.3509 41.6281C90.4869 42.9912 90.2132 44.3073 89.5839 45.3322C88.986 46.3049 88.1371 46.8906 87.1941 46.983C86.2476 47.0771 85.3028 46.6675 84.5253 45.8325C83.7061 44.9522 83.1814 43.7146 83.0454 42.3515C82.9095 40.9884 83.1831 39.6723 83.8124 38.6473C84.4103 37.6747 85.2592 37.089 86.2022 36.9966C86.2911 36.9879 86.38 36.9826 86.4689 36.9826Z" fill="#FF7A00"/>
<path d="M74.2959 43.6779C74.2792 42.7452 74.7727 41.9799 75.3984 41.9687C76.0241 41.9574 76.5449 42.7044 76.5616 43.6371C76.5784 44.5698 76.0848 45.3351 75.4592 45.3463C74.8335 45.3576 74.3127 44.6106 74.2959 43.6779Z" fill="#11181C"/>
<path d="M76.6621 40.3561C75.5796 39.8314 74.2304 40.065 73.2403 40.9523L76.6621 40.3561Z" fill="white"/>
<path d="M73.241 41.557C73.384 41.557 73.5286 41.5065 73.6437 41.4036C74.4525 40.6802 75.5333 40.4832 76.3979 40.9016C76.6977 41.048 77.0602 40.9225 77.2067 40.6209C77.3531 40.3211 77.2276 39.9586 76.926 39.8121C75.6187 39.1794 74.0132 39.4496 72.8366 40.5007C72.5873 40.7238 72.5664 41.1055 72.7896 41.3548C72.9098 41.489 73.0754 41.557 73.241 41.557Z" fill="#11181C"/>
<path d="M58.1198 42.9354C58.179 42.9354 58.24 42.9267 58.301 42.9076C62.5142 41.5932 70.951 42.5833 71.0346 42.5938C71.3676 42.6374 71.6674 42.3968 71.7075 42.0656C71.7476 41.7344 71.5105 41.4329 71.1793 41.3928C70.8237 41.3492 62.4009 40.3608 57.9402 41.7519C57.6212 41.8512 57.4434 42.1911 57.5428 42.5101C57.6229 42.7698 57.8618 42.9354 58.1198 42.9354Z" fill="#FF7A00"/>
<path d="M61.7336 43.6634C61.7336 43.6634 56.4084 38.5926 53.5217 39.6925C50.6351 40.7925 51.9825 51.0299 55.4636 51.9067C58.9446 52.7852 61.6953 51.3472 61.6953 51.3472" fill="white"/>
<path d="M57.7691 52.7978C60.1903 52.7978 61.8829 51.9314 61.9753 51.8843C62.2716 51.7292 62.3849 51.3649 62.2315 51.0703C62.0781 50.774 61.7121 50.6589 61.4157 50.8123C61.3896 50.8263 58.8097 52.1266 55.6111 51.3213C54.1346 50.9483 52.7732 47.9205 52.5763 44.5684C52.4438 42.3058 52.9092 40.5731 53.7372 40.2576C55.8081 39.4697 59.9114 42.7643 61.3164 44.1012C61.5587 44.3313 61.9422 44.3226 62.1722 44.0803C62.4023 43.838 62.3936 43.4563 62.1513 43.2244C61.5778 42.6788 56.4565 37.9236 53.3067 39.1263C51.9226 39.6545 51.1975 41.7149 51.37 44.6381C51.574 48.0983 52.9946 51.907 55.3165 52.4927C56.1863 52.7141 57.0126 52.7978 57.7691 52.7978Z" fill="#11181C"/>
<path d="M55.7687 47.6629C55.8576 47.6629 55.9482 47.6438 56.0336 47.6019C56.3335 47.4555 56.459 47.0929 56.3125 46.7931C56.0458 46.2458 55.889 45.6339 55.8611 45.0256C55.8419 44.609 55.9308 44.4817 55.9709 44.4469C56.0197 44.4033 56.1243 44.3841 56.2271 44.4015C56.3631 44.4242 56.5165 44.4974 56.6925 44.6281C56.9714 44.8321 57.2085 45.097 57.3811 45.3934C57.5484 45.6827 57.918 45.7803 58.2073 45.6148C58.4967 45.4474 58.5961 45.0761 58.4287 44.7885C58.1725 44.3475 57.8203 43.9536 57.409 43.652C57.076 43.4079 56.7536 43.2615 56.4241 43.2075C55.9587 43.1325 55.488 43.2563 55.1673 43.5439C54.789 43.8803 54.6217 44.3841 54.6531 45.0831C54.6897 45.8553 54.8884 46.631 55.2266 47.3248C55.3294 47.5374 55.5456 47.6629 55.7687 47.6629Z" fill="#11181C"/>
<path d="M79.1568 40.9416C79.2614 40.9416 79.3677 40.9137 79.4636 40.8579C80.3543 40.3315 81.9197 40.5441 82.4461 40.6714C82.7703 40.7498 83.0981 40.5494 83.1765 40.2251C83.2549 39.9009 83.0562 39.5732 82.732 39.4948C82.6361 39.4704 80.3474 38.9283 78.8483 39.8155C78.5607 39.9846 78.4648 40.3559 78.6356 40.6435C78.7489 40.8352 78.9494 40.9416 79.1568 40.9416Z" fill="#FF7A00"/>
<path d="M80.9538 46.0647C81.3094 47.3651 81.6633 48.6655 82.0189 49.9676C82.2333 50.752 82.4477 51.5678 82.2472 52.3313C82.0468 53.0965 81.3042 53.7938 80.3524 53.7763" fill="white"/>
<path d="M80.3914 54.3809C81.6674 54.3809 82.5843 53.4326 82.8335 52.4843C83.0793 51.5483 82.8161 50.5826 82.6034 49.8069L81.5384 45.904C81.4495 45.5815 81.1165 45.3915 80.7958 45.4787C80.4733 45.5658 80.2833 45.8988 80.3705 46.2213L81.4356 50.1241C81.6186 50.7935 81.826 51.5535 81.6621 52.1758C81.5332 52.6674 81.0311 53.199 80.3635 53.1694C80.0166 53.1502 79.7534 53.4291 79.7464 53.7621C79.7395 54.0967 80.0062 54.3722 80.3391 54.3791C80.3565 54.3809 80.374 54.3809 80.3914 54.3809Z" fill="#11181C"/>
<path d="M77.0559 58.4102C77.2494 58.4102 77.4446 58.3998 77.6381 58.3771C77.9693 58.3388 78.2081 58.0372 78.1698 57.706C78.1314 57.3748 77.8299 57.1343 77.4987 57.1744C76.4807 57.2929 75.4383 56.9983 74.633 56.3673C73.8276 55.7345 73.2942 54.7897 73.1687 53.7752C73.1269 53.4423 72.8253 53.2052 72.4941 53.2488C72.1629 53.2907 71.9276 53.5922 71.9677 53.9234C72.1333 55.2534 72.8323 56.491 73.8869 57.3173C74.7863 58.025 75.9159 58.4102 77.0559 58.4102Z" fill="#11181C"/>
<path d="M75.5901 144.454C74.5913 144.498 73.5785 144.524 72.5657 144.524C68.384 144.524 64.2789 144.17 60.2923 143.475C52.8212 142.197 45.7476 139.767 39.2631 136.365C39.0104 135.725 38.8012 135.075 38.6304 134.403L30.0332 100.571L55.87 95.0679L63.2591 128.787L75.5901 144.454Z" fill="white"/>
<path d="M72.5652 145.129C73.5379 145.129 74.5646 145.105 75.6157 145.059C75.8423 145.049 76.0445 144.913 76.1386 144.707C76.2328 144.501 76.2049 144.259 76.0637 144.081L63.8199 128.52L56.4604 94.9371C56.3889 94.6129 56.0699 94.4054 55.7439 94.4752L29.9071 99.98C29.7468 100.015 29.6056 100.112 29.5184 100.252C29.4313 100.391 29.4051 100.56 29.4452 100.721L38.0424 134.553C38.2219 135.256 38.4416 135.941 38.6995 136.588C38.7536 136.722 38.8529 136.833 38.9802 136.9C45.6268 140.388 52.7614 142.8 60.1889 144.071C64.2138 144.773 68.3782 145.129 72.5652 145.129ZM74.3763 143.893C73.7575 143.911 73.1509 143.919 72.5652 143.919C68.4462 143.919 64.3533 143.569 60.3964 142.879C53.1676 141.643 46.2212 139.305 39.7454 135.932C39.5397 135.392 39.3672 134.839 39.2172 134.254L30.7752 101.031L55.4075 95.7825L62.6677 128.914C62.6868 129.003 62.7269 129.087 62.7827 129.158L74.3763 143.893Z" fill="#11181C"/>
<path d="M27.7397 93.6155L30.2271 112.15L33.8738 110.982L46.2378 107.013L61.5618 102.101L54.5282 74.4497C52.5724 74.0401 44.2228 76.402 37.0045 78.6437C30.6385 80.6204 26.7043 86.9742 27.731 93.5597C27.7327 93.5789 27.7362 93.5981 27.7397 93.6155Z" fill="#6A8AFF"/>
<path opacity="0.6" d="M50.598 90.7711L52.8254 95.8547L52.0862 96.1786L49.8588 91.095L50.598 90.7711Z" fill="white"/>
<path opacity="0.6" d="M51.9717 100.779L52.2954 101.519L48.4137 103.218L48.09 102.479L51.9717 100.779Z" fill="white"/>
<path opacity="0.6" d="M46.8595 94.8275L47.4954 95.3245L44.8751 98.677L44.2392 98.18L46.8595 94.8275Z" fill="white"/>
<path opacity="0.6" d="M38.359 96.6189L39.593 99.4353L38.8538 99.7592L37.6198 96.9428L38.359 96.6189Z" fill="white"/>
<path opacity="0.6" d="M47.0251 86.7155L47.3489 87.4548L42.4851 89.5846L42.1614 88.8453L47.0251 86.7155Z" fill="white"/>
<path opacity="0.6" d="M38.5884 81.0574L39.9309 84.1213L39.1917 84.4452L37.8492 81.3813L38.5884 81.0574Z" fill="white"/>
<path opacity="0.6" d="M33.0823 86.7101L34.0393 88.8943L33.3001 89.2182L32.3431 87.034L33.0823 86.7101Z" fill="white"/>
<path d="M30.2296 112.756C30.2924 112.756 30.3534 112.747 30.4144 112.728L61.7438 102.679C62.0611 102.576 62.2371 102.236 62.136 101.919L56.1379 83.1051C56.0368 82.7861 55.6951 82.6083 55.3779 82.7129C55.0589 82.814 54.8828 83.1539 54.9857 83.4729L60.8008 101.71L30.7316 111.354L28.3836 94.1653C28.3383 93.8341 28.0333 93.6005 27.7021 93.6476C27.3709 93.6929 27.139 93.9979 27.1844 94.3291L29.63 112.233C29.6544 112.411 29.7555 112.568 29.9071 112.663C30.0047 112.724 30.1163 112.756 30.2296 112.756Z" fill="#11181C"/>
<path d="M72.5674 145.128C73.5401 145.128 74.5668 145.104 75.6179 145.059C75.8096 145.055 76.0153 145.045 76.2175 145.034L76.5034 145.02C86.5229 144.489 96.1241 141.947 105.045 137.467C105.07 137.462 105.148 137.422 105.218 137.382C129.824 124.974 145.127 100.131 145.127 72.5616C145.127 32.5513 112.576 0 72.5674 0C32.5537 0 0.000610352 32.5513 0.000610352 72.5616C0.000610352 99.3867 14.7057 123.916 38.3792 136.58C38.5762 136.688 38.7854 136.8 38.9963 136.904C45.6307 140.387 52.7671 142.8 60.1929 144.07C64.216 144.773 68.3804 145.128 72.5674 145.128ZM72.5674 1.20973C111.91 1.20973 143.917 33.2172 143.917 72.5598C143.917 99.6691 128.871 124.099 104.648 136.315C104.629 136.322 104.521 136.374 104.503 136.385C95.7319 140.79 86.2911 143.289 76.4459 143.811L76.1582 143.824C75.9665 143.835 75.773 143.844 75.5795 143.849C74.5319 143.894 73.5244 143.919 72.5691 143.919C68.4501 143.919 64.3572 143.568 60.4003 142.878C53.0965 141.628 46.0822 139.256 39.5489 135.827C39.3414 135.724 39.1462 135.62 38.958 135.517C15.6731 123.062 1.21382 98.9404 1.21382 72.5616C1.21034 33.219 33.2213 1.20973 72.5674 1.20973Z" fill="#11181C"/>
<path d="M120.049 104.091C120.293 104.091 120.521 103.943 120.613 103.703L122.569 98.6091C122.689 98.297 122.533 97.9467 122.22 97.8264C121.908 97.7079 121.558 97.863 121.438 98.175L119.482 103.268C119.362 103.58 119.519 103.931 119.831 104.051C119.904 104.077 119.977 104.091 120.049 104.091Z" fill="#11181C"/>
<path d="M103.648 114.828L108.945 122.433C112.601 126.282 117.619 128.379 122.775 128.379C124.494 128.379 126.229 128.146 127.932 127.67C133.306 126.16 137.744 122.369 140.092 117.293L157.964 74.3994C157.964 74.3994 162.805 64.5071 165.364 61.3207C166.155 60.3201 166.251 58.6502 166.582 57.7298C168.034 53.7119 165.637 50.7346 164.879 50.6213C163.983 47.095 161.611 47.135 161.168 47.1838C161.112 47.1926 161.095 47.1838 161.095 47.1838C160.328 44.1334 157.004 44.0288 157.004 44.0288L161.344 32.3445C161.925 30.7548 161.393 28.9873 160.021 27.9954C159.496 27.6154 158.907 27.3905 158.311 27.3104C156.883 27.1256 155.398 27.7705 154.607 29.1023L137.13 63.1126L122.008 98.3902L117.248 93.8232L103.648 114.828Z" fill="white"/>
<path d="M122.777 128.986C124.567 128.986 126.357 128.74 128.095 128.253C133.642 126.697 138.214 122.794 140.641 117.549L158.523 74.6328C158.557 74.5683 163.35 64.798 165.836 61.6987C166.462 60.9074 166.702 59.8127 166.896 58.9324C166.979 58.5524 167.058 58.1933 167.152 57.9336C168.28 54.8134 167.194 52.4531 166.674 51.5833C166.352 51.0429 165.876 50.4538 165.386 50.1749C164.488 47.0895 162.463 46.6206 161.543 46.5735C160.847 44.6352 159.123 43.7967 157.837 43.5265L161.912 32.5552C162.594 30.6901 161.977 28.6628 160.376 27.5054C159.789 27.08 159.102 26.8064 158.391 26.7105C156.662 26.4856 154.971 27.3014 154.087 28.7918L136.593 62.8335L121.799 97.3459L117.67 93.3837C117.539 93.2582 117.359 93.199 117.182 93.2199C117.002 93.2408 116.842 93.3402 116.744 93.4918L103.144 114.498C103.01 114.704 103.015 114.971 103.156 115.173L108.454 122.778C108.471 122.803 108.49 122.827 108.511 122.85C112.21 126.749 117.412 128.986 122.777 128.986ZM161.429 47.7746C162.027 47.7746 163.601 48.0465 164.293 50.7693C164.353 51.0063 164.55 51.1824 164.79 51.219C165.187 51.3689 167.318 53.9121 166.012 57.5239C165.892 57.8569 165.805 58.2543 165.712 58.6727C165.536 59.471 165.337 60.3757 164.888 60.944C162.32 64.1426 157.619 73.7264 157.42 74.1325L139.532 117.059C137.262 121.962 132.973 125.625 127.768 127.086C126.136 127.542 124.456 127.772 122.775 127.772C117.755 127.772 112.888 125.686 109.416 122.046L104.376 114.812L117.358 94.7626L121.59 98.8223C121.733 98.96 121.935 99.0193 122.13 98.9792C122.326 98.9391 122.488 98.8066 122.566 98.6254L137.688 63.3477L155.147 29.3758C155.768 28.3351 156.988 27.7442 158.234 27.908C158.745 27.9778 159.242 28.1765 159.669 28.4833C160.824 29.32 161.271 30.7877 160.777 32.1351L156.437 43.8159C156.369 43.9989 156.393 44.2029 156.501 44.365C156.61 44.5271 156.791 44.6265 156.984 44.6317C157.099 44.6352 159.864 44.7711 160.507 47.3301C160.551 47.5026 160.668 47.649 160.828 47.7275C160.936 47.7798 161.129 47.8007 161.25 47.7833C161.292 47.7798 161.353 47.7746 161.429 47.7746Z" fill="#11181C"/>
<path d="M161.963 62.0034C161.963 62.0034 163.805 60.9837 166.582 57.7275C168.034 53.7148 165.639 50.7236 164.882 50.626L156.955 58.742C156.956 58.742 156.024 65.8453 161.963 62.0034Z" fill="white"/>
<path d="M159.018 63.7448C159.921 63.7448 161.013 63.3351 162.278 62.5194C162.505 62.3904 164.352 61.2748 167.044 58.1179C167.091 58.0622 167.128 57.9994 167.152 57.9314C168.294 54.7763 167.178 52.4022 166.645 51.5271C166.446 51.1994 165.735 50.1239 164.961 50.0228C164.773 49.9984 164.583 50.0646 164.45 50.2006L156.522 58.3166C156.432 58.4108 156.372 58.5311 156.355 58.66C156.308 59.0261 155.938 62.2596 157.72 63.3857C158.098 63.6262 158.53 63.7448 159.018 63.7448ZM166.05 57.4189C163.439 60.4624 161.687 61.4648 161.67 61.4735C161.659 61.4804 161.647 61.4874 161.637 61.4944C160.136 62.4653 159.006 62.7686 158.37 62.366C157.486 61.8082 157.462 59.882 157.537 59.0139L165.003 51.3685C165.634 51.9664 167.136 54.2761 166.05 57.4189Z" fill="#11181C"/>
<path d="M152.453 55.4581C152.482 55.4512 152.512 55.4477 152.536 55.439C155.43 54.7783 161.088 47.1887 161.088 47.1887C160.326 44.1312 157.007 44.0249 157.007 44.0249L150.166 51.245C148.489 53.009 150.061 55.9462 152.453 55.4581Z" fill="white"/>
<path d="M151.937 56.1167C152.146 56.1167 152.359 56.0958 152.573 56.0522C152.58 56.0505 152.587 56.0487 152.596 56.047C152.631 56.04 152.713 56.0208 152.739 56.0104C155.695 55.3393 160.98 48.3458 161.573 47.551C161.681 47.4063 161.72 47.218 161.676 47.0419C160.986 44.2721 158.333 43.4615 157.027 43.4197C156.86 43.4145 156.687 43.4825 156.569 43.608L149.727 50.828C148.766 51.8391 148.587 53.2859 149.268 54.5148C149.83 55.5275 150.835 56.1167 151.937 56.1167ZM152.333 54.8651C151.348 55.0656 150.651 54.513 150.328 53.9291C150.009 53.3538 149.891 52.4143 150.607 51.6613L157.248 44.6539C157.939 44.7445 159.8 45.1611 160.426 47.0664C158.746 49.2801 154.519 54.3666 152.404 54.8495L152.333 54.8651Z" fill="#11181C"/>
<path d="M154.519 58.7157C158.075 60.6262 164.882 50.6258 164.882 50.6258C163.985 47.089 161.614 47.1361 161.164 47.1832C161.166 47.1814 150.995 56.821 154.519 58.7157Z" fill="white"/>
<path d="M155.493 59.5577C159.411 59.5577 164.729 51.9263 165.383 50.9658C165.481 50.8229 165.512 50.6451 165.469 50.476C164.423 46.357 161.438 46.547 161.102 46.5783C160.97 46.5923 160.844 46.6498 160.748 46.7405C159.929 47.5179 152.749 54.4312 153.192 57.7553C153.279 58.4125 153.64 58.9285 154.232 59.2475C154.63 59.4619 155.052 59.5577 155.493 59.5577ZM164.226 50.5144C161.672 54.1959 157 59.3643 154.806 58.1824C154.557 58.0482 154.429 57.8669 154.393 57.5967C154.124 55.5886 158.493 50.5788 161.419 47.7741C162.019 47.7776 163.506 48.0478 164.226 50.5144Z" fill="#11181C"/>
<path d="M137.128 63.5221L137.585 47.921C137.791 45.2784 140.046 43.272 142.694 43.3749L149.857 43.3871C150.751 43.4219 151.408 44.243 151.246 45.1232C150.852 47.2673 149.043 48.864 146.866 48.9878L144.117 49.5665L145.398 52.0417C147.193 54.5745 147.749 57.1857 147 59.2653" fill="white"/>
<path d="M137.128 64.1267C137.454 64.1267 137.722 63.867 137.733 63.5393L138.189 47.9382C138.369 45.639 140.337 43.8854 142.671 43.9795L149.856 43.9917C150.088 44.0005 150.316 44.1155 150.475 44.316C150.634 44.5147 150.696 44.7622 150.651 45.0132C150.306 46.8888 148.735 48.2746 146.832 48.3827C146.802 48.3844 146.771 48.3879 146.741 48.3949L143.992 48.9736C143.808 49.012 143.651 49.1357 143.571 49.3066C143.49 49.4774 143.494 49.6761 143.579 49.8435L144.86 52.3187C144.873 52.3431 144.888 52.3675 144.904 52.3902C146.56 54.726 147.116 57.1559 146.431 59.0577C146.318 59.3714 146.48 59.7183 146.795 59.8316C147.109 59.9449 147.456 59.7828 147.569 59.4673C148.387 57.1978 147.785 54.3774 145.917 51.7243L145.021 49.9916L146.949 49.5855C149.391 49.4251 151.399 47.6401 151.843 45.2294C151.953 44.6367 151.8 44.0266 151.422 43.556C151.045 43.0853 150.484 42.8029 149.882 42.7785L142.697 42.7663C139.743 42.653 137.215 44.8912 136.983 47.8702L136.525 63.5009C136.514 63.8356 136.778 64.1145 137.112 64.1232C137.116 64.1267 137.121 64.1267 137.128 64.1267Z" fill="#11181C"/>
<path d="M205.261 54.2613C219.25 54.2613 230.589 42.9216 230.589 28.9335C230.589 14.9453 219.25 3.60571 205.261 3.60571C191.273 3.60571 179.934 14.9453 179.934 28.9335C179.934 42.9216 191.273 54.2613 205.261 54.2613Z" fill="white"/>
<path d="M205.261 54.8655C190.962 54.8655 179.328 43.2318 179.328 28.9329C179.328 14.6339 190.962 3.00024 205.261 3.00024C219.56 3.00024 231.193 14.6339 231.193 28.9329C231.193 43.2318 219.56 54.8655 205.261 54.8655ZM205.261 4.20999C191.628 4.20999 180.538 15.2998 180.538 28.9329C180.538 42.566 191.628 53.6558 205.261 53.6558C218.894 53.6558 229.984 42.566 229.984 28.9329C229.984 15.2998 218.892 4.20999 205.261 4.20999Z" fill="#11181C"/>
<path d="M185.44 40.0808C187.872 43.2254 190.696 46.0511 193.842 48.4827C195.759 49.9679 198.266 49.6576 199.277 47.9981C200.349 46.3718 202.577 45.9447 204.376 46.8581C206.213 47.7959 208.132 48.596 210.123 49.2462C212.068 49.886 213.403 51.7773 213.011 53.686C212.502 55.966 211.992 58.2443 211.483 60.5243C211.096 62.4261 208.476 63.4911 205.763 62.6056C189.449 57.2873 176.636 44.4718 171.317 28.1595C170.43 25.4472 171.495 22.829 173.399 22.4403C175.679 21.9313 177.957 21.4205 180.237 20.9115C182.146 20.5193 184.037 21.8546 184.677 23.7999C185.325 25.7906 186.125 27.7115 187.065 29.547C187.978 31.346 187.553 33.5737 185.925 34.6457C184.265 35.6567 183.955 38.1616 185.44 40.0808Z" fill="#FF7A00"/>
<path d="M197.369 35.8017C197.251 35.8017 197.068 35.7808 196.82 35.7407C196.573 35.7006 196.393 35.6814 196.285 35.6814L194.2 35.6744C194.021 35.6744 193.749 35.6971 193.385 35.7407C193.02 35.786 192.747 35.8087 192.562 35.8087C192.509 35.8087 192.435 35.7999 192.335 35.7808C192.236 35.7616 192.161 35.7529 192.109 35.7529C191.683 35.7529 191.396 35.5803 191.244 35.2352C191.15 35.0173 191.103 34.6826 191.103 34.2276C191.103 33.3438 191.3 32.6048 191.692 32.0086C191.994 31.5502 192.483 31.0917 193.16 30.6333C193.798 30.2132 194.434 29.7948 195.067 29.3782C195.813 28.8344 196.188 28.2173 196.188 27.527C196.188 27.3475 196.039 27.1697 195.741 26.9919C195.443 26.8141 195.154 26.7269 194.87 26.7269C194.369 26.7269 193.838 26.95 193.278 27.3963C192.719 27.8425 192.333 28.0656 192.126 28.0656C191.875 28.0656 191.655 28.0046 191.467 27.8809C191.23 27.7292 191.113 27.52 191.113 27.2499C191.113 26.9622 191.232 26.713 191.467 26.5055C192.039 26 192.537 25.6305 192.963 25.3986C193.576 25.064 194.213 24.8966 194.87 24.8966C195.687 24.8966 196.425 25.111 197.082 25.5416C197.833 26.0331 198.21 26.6764 198.21 27.4695C198.21 28.2731 198.025 28.9564 197.657 29.5194C197.369 29.9674 196.913 30.4049 196.289 30.8302C195.698 31.2033 195.107 31.5746 194.516 31.9424C193.618 32.5281 193.135 33.1974 193.069 33.9487C193.329 33.9156 193.712 33.8772 194.218 33.8354C195.225 33.7831 195.945 33.757 196.381 33.757C196.787 33.757 197.19 33.8441 197.586 34.0202C198.077 34.2363 198.323 34.5152 198.323 34.8569C198.323 35.1027 198.236 35.3171 198.06 35.5019C197.873 35.7023 197.645 35.8017 197.369 35.8017ZM204.246 32.8593H201.417C199.9 32.8593 199.142 32.549 199.142 31.9302C199.142 31.6704 199.275 31.3793 199.54 31.0586C199.757 30.8128 199.977 30.5653 200.198 30.3143C200.958 29.2283 202.119 27.6107 203.68 25.4649C204.049 24.9733 204.528 24.7275 205.119 24.7275C205.398 24.7275 205.639 24.799 205.843 24.9402C206.083 25.1093 206.204 25.3481 206.204 25.6549L206.211 30.9871C206.829 31.0063 207.242 31.0691 207.452 31.1789C207.684 31.3061 207.799 31.5571 207.799 31.9302C207.804 32.3224 207.624 32.5926 207.26 32.739C207.005 32.8384 206.655 32.8784 206.211 32.8593C206.224 33.5408 206.223 34.2764 206.204 35.0713C206.198 35.331 206.113 35.5472 205.949 35.7163C205.783 35.8871 205.559 35.9708 205.276 35.9708C204.558 35.9708 204.215 35.4984 204.248 34.5518V32.8593H204.246ZM204.246 27.8042C203.788 28.5276 203.082 29.5891 202.126 30.9871H204.246V27.8042ZM215.022 25.5939C214.837 25.9913 214.571 26.6049 214.22 27.4364C213.9 28.2731 213.445 29.2423 212.859 30.3439C212.343 31.28 211.829 32.2178 211.313 33.1591C211.213 33.3473 210.786 34.2503 210.03 35.8679C209.855 36.2409 209.578 36.4275 209.2 36.4275C208.954 36.4275 208.74 36.3508 208.555 36.1939C208.356 36.0231 208.257 35.8156 208.257 35.5698C208.257 35.4618 208.278 35.352 208.321 35.2439C208.695 34.2747 209.392 32.8784 210.413 31.0499C211.435 29.2231 212.13 27.8216 212.505 26.8437C212.789 26.1011 212.998 25.5974 213.136 25.3324C213.506 24.609 213.852 24.2534 214.178 24.2621C214.419 24.2708 214.632 24.3545 214.816 24.5096C215.015 24.6805 215.114 24.8862 215.114 25.125C215.114 25.2714 215.083 25.4283 215.022 25.5939ZM221.099 27.0389C220.569 27.0337 219.584 27.0128 218.142 26.9744C217.783 26.9744 217.246 26.9587 216.533 26.9256C215.904 26.8733 215.59 26.5683 215.59 26.0105C215.59 25.7507 215.684 25.5329 215.875 25.3585C216.063 25.1842 216.295 25.0953 216.568 25.0953C217.164 25.0953 218.059 25.1128 219.251 25.1494C220.443 25.1842 221.339 25.2017 221.934 25.2017H223.231C223.485 25.2017 223.71 25.2505 223.903 25.3498C224.144 25.4736 224.264 25.6549 224.264 25.8954C224.264 26.1552 224.123 26.4654 223.839 26.8245C223.602 27.0895 223.363 27.3544 223.122 27.6177C222.523 28.2835 221.967 29.1028 221.456 30.0702C221.296 30.3735 220.872 31.2591 220.187 32.7285C220.096 32.922 219.896 33.4519 219.584 34.3165C219.347 34.9685 219.106 35.4792 218.86 35.8487C218.672 36.1189 218.409 36.2531 218.074 36.2531C217.815 36.2531 217.583 36.1642 217.379 35.9899C217.175 35.8156 217.074 35.5977 217.074 35.338C217.074 35.134 217.232 34.6617 217.55 33.9208C218.06 32.7303 218.568 31.538 219.073 30.3474C219.73 28.9616 220.403 27.8565 221.099 27.0389Z" fill="#11181C"/>
</svg>
