<svg width="481" height="283" viewBox="0 0 481 283" fill="none" xmlns="http://www.w3.org/2000/svg">
<path d="M41.0802 255.973L41.1132 255.312L41.0762 254.651C39.8502 232.765 41.0554 212.451 45.9825 192.446L46.0543 192.154L46.112 191.859C50.9325 167.252 62.3589 142.714 76.6095 124.187C77.0678 123.631 77.5041 123.1 77.9224 122.591C80.136 119.895 81.8436 117.815 83.6392 116.036C85.7393 113.955 86.8549 113.455 87.2238 113.345C88.0922 113.094 88.9113 112.95 89.6262 112.887C89.6109 113.111 89.593 113.339 89.5726 113.573C88.3554 122.117 85.4797 131.344 81.9745 141.716C81.4875 143.157 80.987 144.623 80.4793 146.11C77.4298 155.045 74.1181 164.749 71.8865 174.324L71.8404 174.522L71.8007 174.722C71.6307 175.576 71.3823 176.675 71.0965 177.939C70.2454 181.704 69.0633 186.933 68.6387 191.514C68.0178 198.212 68.4732 207.029 74.2934 214.894L74.45 215.106L74.6153 215.311C77.4909 218.872 81.3645 221.796 86.2978 222.931C91.1424 224.047 95.4867 223.086 98.7282 221.752C104.315 219.453 108.956 214.979 111.289 212.731C111.378 212.645 111.464 212.562 111.547 212.482L111.867 212.174L112.165 211.844C124.629 198.024 132.622 180.675 139.567 165.599C141.245 161.955 142.863 158.444 144.467 155.148L144.49 155.103L144.512 155.057C145.18 153.654 145.844 152.259 146.504 150.871C154.386 134.295 161.782 118.74 171.549 104.706C182.539 89.3097 194.254 75.8237 207.539 71.0775C215.37 68.7107 219.114 69.2722 222.755 72.1095L223.119 72.3933L223.503 72.6494C225.427 73.9318 226.437 75.1485 227.13 76.4759C227.9 77.9522 228.615 80.2267 228.975 84.0515L229.014 84.4671L229.08 84.8791C229.446 87.136 229.268 90.0632 228.358 94.1434C227.611 97.4933 226.564 100.865 225.331 104.838C225.018 105.846 224.694 106.893 224.358 107.988L224.351 108.012L224.344 108.035C223.585 110.552 222.685 113.277 221.732 116.161C218.581 125.701 214.855 136.98 213.747 148.226C213.169 153.823 213.521 162.09 219.248 168.216C226.064 175.506 235.496 174.979 242.493 172.525L243.159 172.292L243.793 171.986C249.397 169.279 254.152 165.763 258.189 162.467C260.094 160.912 261.947 159.314 263.651 157.845L263.953 157.584C265.788 156.002 267.46 154.567 269.13 153.22L269.149 153.205L269.168 153.19C270.435 152.16 271.837 151.003 273.35 149.755C281.743 142.829 293.578 133.065 305.028 126.313C311.922 122.248 317.204 120.196 320.557 119.823C321.193 119.752 321.616 119.759 321.872 119.781C322.212 120.736 322.54 122.737 322.275 126.282C321.993 130.059 321.179 134.125 320.284 138.506L320.258 138.637L320.24 138.726L320.223 138.816C319.579 142.217 318.827 145.651 318.026 149.297L317.989 149.465C317.212 153.001 316.39 156.741 315.671 160.52C314.21 168.198 313.055 176.593 313.428 185.391L313.442 185.718L313.473 186.044C314.045 192.064 315.782 198.938 319.361 205.053C323.007 211.283 328.935 217.262 337.746 219.702L338.096 219.799L338.452 219.876C349.204 222.19 359.923 220.347 368.499 217.783L368.902 217.662L369.296 217.515C381.788 212.844 391.854 204.428 399.911 197.458L399.934 197.438L399.956 197.419C412.595 186.378 423.166 173.644 432.81 161.247C445.032 145.537 456.589 128.734 466.041 110.616C466.56 109.884 467.898 107.823 468.345 104.941C469.026 100.556 467.412 96.7591 465.192 94.2384C463.429 92.2368 461.431 91.1676 460.423 90.6728L454.914 101.893L460.423 90.6728C455.235 88.1258 450.234 89.4352 447.161 91.2951C444.598 92.8464 443.049 94.8782 442.355 95.8629C441.534 97.0286 440.957 98.1245 440.619 98.8172C440.501 99.0583 440.398 99.2794 440.311 99.4736C432.203 114.696 420.502 131.654 410.717 144.129L410.706 144.142L410.695 144.156C401.581 155.842 392.527 166.667 382.156 175.816C373.42 183.439 366.623 188.844 359.013 191.371C355.761 192.11 352.512 192.691 349.633 192.815C348.15 192.878 346.998 192.808 346.155 192.666C345.557 192.565 345.24 192.45 345.122 192.4C344.774 192.143 343.821 191.227 342.889 188.994C341.923 186.681 341.405 183.919 341.417 181.491C341.723 172.502 343.38 164.808 345.419 155.339C346.059 152.371 346.736 149.228 347.42 145.817L347.441 145.712L347.46 145.608C347.641 144.618 347.872 143.47 348.127 142.207C348.996 137.889 350.136 132.23 350.466 126.982C350.924 119.713 350.123 110.831 344.512 102.676L344.254 102.301L343.97 101.946C335.144 90.9293 322.381 90.3974 312.152 92.9221C302.186 95.3818 291.855 101.194 282.725 107.321C273.384 113.59 264.26 120.909 256.637 127.26C253.668 129.733 251.015 131.981 248.662 133.974C247.125 135.277 245.716 136.471 244.431 137.548C244.808 136.209 245.215 134.832 245.649 133.417C246.591 130.344 247.612 127.233 248.673 124L248.732 123.819C249.8 120.566 250.908 117.185 251.924 113.84L251.93 113.822L251.935 113.805C252.16 113.055 252.404 112.264 252.66 111.437C255.164 103.323 258.767 91.651 256.807 79.6298C256.123 72.4318 254.058 65.8178 250.114 59.9485C246.104 53.9805 240.672 49.557 234.497 46.0729L234.441 46.0414L234.385 46.0104C221.458 38.8905 207.098 41.5198 197.374 44.9124L197.098 45.0086L196.827 45.1175C174.529 54.0861 159.506 73.4433 148.234 89.2524L148.178 89.332L148.122 89.4125C136.476 106.299 127.743 124.946 119.56 142.416C118.301 145.105 117.054 147.766 115.812 150.389C114.169 153.732 112.669 156.912 111.217 159.995C108.628 165.487 106.186 170.668 103.336 175.899C101.749 178.813 100.142 181.525 98.48 184.025C98.6947 183.047 98.917 182.022 99.1207 181.016C101.194 172.38 104.053 163.914 107.125 154.817C107.34 154.181 107.556 153.542 107.773 152.899C111.041 143.208 114.482 132.805 116.738 121.919L116.825 121.502L116.883 121.08C116.926 120.766 116.977 120.41 117.034 120.021C117.374 117.666 117.898 114.048 117.884 110.544C117.866 106.195 117.083 100.503 113.412 95.1805L113.051 94.6569L112.639 94.1726C107.246 87.8393 99.9384 85.3208 93.5143 84.7984C87.1658 84.2822 80.8276 85.5935 75.601 87.8801L75.4929 87.9273L75.3858 87.9766C67.685 91.5201 62.3566 97.5732 58.8374 101.799C54.4 107.056 50.0389 112.671 46.1086 118.761L46.0155 118.905L45.9264 119.052C36.1921 135.085 27.3415 152.597 22.1264 171.705L22.1015 171.796L22.0779 171.888C17.2256 190.788 12.9058 210.968 12.5353 231.783L12.5353 231.783C12.4118 238.732 12.6383 245.701 12.8527 252.298C12.8896 253.432 12.9261 254.555 12.9604 255.665C13.0006 260.933 16.1462 266.727 22.4163 268.765C27.4492 270.48 32.1701 268.975 35.1801 266.794C38.2173 264.593 40.839 260.809 41.0802 255.973ZM91.7354 112.993C91.7353 112.993 91.7304 112.991 91.7214 112.988C91.7311 112.991 91.7356 112.993 91.7354 112.993Z" stroke="#D8EEFF" stroke-width="25"/>
<path d="M305.26 14.9297V211.212C305.264 215.17 306.839 218.964 309.638 221.761C312.437 224.559 316.232 226.131 320.189 226.134H359.449H408.958C409.694 226.091 410.426 225.993 411.147 225.839C412.694 225.517 414.18 224.949 415.548 224.156C416.321 223.702 417.053 223.181 417.736 222.599C419.384 221.202 420.709 219.463 421.617 217.502C422.526 215.542 422.996 213.407 422.996 211.246V14.9297C422.989 10.9809 421.421 7.19492 418.634 4.39794C415.846 1.60097 412.066 0.0199942 408.117 0H320.189C316.231 0.00445497 312.436 1.57883 309.637 4.37773C306.839 7.17663 305.264 10.9715 305.26 14.9297Z" fill="#11181C"/>
<path d="M300 14.9297V211.212C300.004 215.17 301.579 218.964 304.378 221.761C307.177 224.559 310.972 226.131 314.929 226.134H354.197H403.732C404.604 226.087 405.469 225.957 406.316 225.747C409.574 224.96 412.474 223.103 414.551 220.472C416.628 217.841 417.761 214.589 417.77 211.238V14.9297C417.765 10.9715 416.191 7.17663 413.392 4.37773C410.593 1.57883 406.798 0.00445497 402.84 0H314.929C310.971 0.00445497 307.176 1.57883 304.378 4.37773C301.579 7.17663 300.004 10.9715 300 14.9297Z" fill="#6A8AFF"/>
<path d="M314.929 3.31586H402.832C409.246 3.31586 414.445 8.51556 414.445 14.9297V211.204C414.445 217.618 409.246 222.818 402.832 222.818H314.929C308.515 222.818 303.316 217.618 303.316 211.204V14.9297C303.316 8.51556 308.515 3.31586 314.929 3.31586Z" fill="#FCE3CC"/>
<path d="M344.999 5.25152H372.409C372.686 5.27569 372.943 5.40274 373.131 5.60761C373.319 5.81249 373.423 6.0803 373.423 6.3582C373.423 6.63611 373.319 6.90392 373.131 7.10879C372.943 7.31366 372.686 7.44072 372.409 7.46489H344.999C344.845 7.47828 344.691 7.45962 344.545 7.41009C344.399 7.36055 344.265 7.28124 344.152 7.17717C344.038 7.0731 343.947 6.94655 343.885 6.80556C343.823 6.66458 343.791 6.51223 343.791 6.3582C343.791 6.20417 343.823 6.05183 343.885 5.91085C343.947 5.76986 344.038 5.64332 344.152 5.53924C344.265 5.43517 344.399 5.35585 344.545 5.30632C344.691 5.25679 344.845 5.23813 344.999 5.25152Z" fill="#11181C"/>
<path d="M400.657 13.6219L400.193 14.0863L403.86 17.7501L404.324 17.2857L400.657 13.6219Z" fill="#11181C"/>
<path d="M403.866 13.6463L400.2 17.3121L400.664 17.7762L404.33 14.1105L403.866 13.6463Z" fill="#11181C"/>
<path d="M319.62 16.5792H313.737V17.2357H319.62V16.5792Z" fill="#11181C"/>
<path d="M312.708 43.1059V164.361C313 164.516 313.328 164.594 313.659 164.589C316.629 164.589 316.629 158.824 319.6 158.824C322.571 158.824 322.579 164.589 325.55 164.589C328.521 164.589 328.521 158.824 331.492 158.824C334.462 158.824 334.462 164.597 337.425 164.597C340.387 164.597 340.395 158.832 343.366 158.832C346.337 158.832 346.345 164.597 349.325 164.597C352.304 164.597 352.295 158.832 355.266 158.832C358.237 158.832 358.237 164.597 361.208 164.597C364.178 164.597 364.178 158.832 367.149 158.832C370.12 158.832 370.12 164.597 373.091 164.597C376.061 164.597 376.061 158.832 379.032 158.832C382.003 158.832 382.028 164.597 384.974 164.597C387.919 164.597 387.944 158.832 390.865 158.832C393.785 158.832 393.835 164.597 396.806 164.597C399.777 164.597 399.777 158.832 402.748 158.832C403.073 158.841 403.392 158.921 403.683 159.066C403.974 159.211 404.229 159.419 404.431 159.674C404.506 159.757 404.604 159.816 404.713 159.842C404.822 159.868 404.937 159.861 405.042 159.82C405.146 159.78 405.236 159.71 405.3 159.617C405.364 159.525 405.398 159.416 405.399 159.303V43.1059C405.39 41.6338 404.804 40.2238 403.767 39.1789C402.73 38.134 401.325 37.5376 399.853 37.5178H318.329C316.844 37.5178 315.419 38.1055 314.366 39.1525C313.313 40.1995 312.717 41.6208 312.708 43.1059Z" fill="white"/>
<path d="M313.659 164.782C315.266 164.782 316.049 163.267 316.806 161.795C317.564 160.322 318.237 159.017 319.6 159.017C320.964 159.017 321.67 160.364 322.403 161.795C323.135 163.225 323.943 164.782 325.55 164.782C327.158 164.782 327.932 163.267 328.689 161.795C329.447 160.322 330.12 159.017 331.492 159.017C332.863 159.017 333.553 160.364 334.286 161.795C335.018 163.225 335.826 164.782 337.433 164.782C339.041 164.782 339.815 163.267 340.572 161.795C341.33 160.322 342.003 159.017 343.375 159.017C344.746 159.017 345.436 160.364 346.169 161.795C346.901 163.225 347.717 164.782 349.325 164.782C350.932 164.782 351.706 163.267 352.464 161.795C353.221 160.322 353.894 159.017 355.266 159.017C356.638 159.017 357.328 160.364 358.06 161.795C358.792 163.225 359.6 164.782 361.208 164.782C362.815 164.782 363.589 163.267 364.347 161.795C365.104 160.322 365.777 159.017 367.149 159.017C368.521 159.017 369.211 160.364 369.943 161.795C370.675 163.225 371.483 164.782 373.091 164.782C374.698 164.782 375.472 163.267 376.23 161.795C376.987 160.322 377.66 159.017 379.032 159.017C380.404 159.017 381.094 160.364 381.826 161.795C382.558 163.225 383.366 164.782 384.974 164.782C386.581 164.782 387.355 163.267 388.113 161.795C388.87 160.322 389.543 159.017 390.907 159.017C392.27 159.017 392.969 160.364 393.709 161.795C394.45 163.225 395.249 164.782 396.848 164.782C398.447 164.782 399.238 163.267 399.996 161.795C400.753 160.322 401.426 159.017 402.79 159.017C403.093 159.021 403.392 159.092 403.664 159.226C403.936 159.36 404.175 159.553 404.363 159.792C404.465 159.903 404.597 159.982 404.744 160.017C404.89 160.053 405.044 160.043 405.185 159.989C405.326 159.935 405.448 159.841 405.534 159.717C405.62 159.593 405.667 159.446 405.668 159.295V43.1059C405.666 41.5651 405.052 40.0881 403.962 38.9993C402.871 37.9105 401.393 37.299 399.853 37.299H318.329C316.789 37.299 315.311 37.9105 314.22 38.9993C313.13 40.0881 312.516 41.5651 312.514 43.1059V164.479L312.615 164.53C312.936 164.7 313.295 164.787 313.659 164.782ZM319.6 158.63C318.001 158.63 317.219 160.153 316.461 161.618C315.704 163.082 315.03 164.395 313.659 164.395C313.398 164.398 313.14 164.346 312.901 164.244V43.1059C312.903 41.667 313.476 40.2876 314.494 39.2701C315.511 38.2526 316.89 37.6799 318.329 37.6777H399.853C401.292 37.6799 402.671 38.2526 403.688 39.2701C404.706 40.2876 405.278 41.667 405.281 43.1059V159.295C405.28 159.368 405.256 159.438 405.214 159.498C405.172 159.557 405.114 159.603 405.045 159.628C404.977 159.653 404.903 159.658 404.832 159.64C404.762 159.623 404.698 159.585 404.65 159.531C404.425 159.253 404.142 159.028 403.82 158.872C403.499 158.717 403.147 158.634 402.79 158.63C401.191 158.63 400.408 160.153 399.651 161.618C398.893 163.082 398.22 164.395 396.848 164.395C395.476 164.395 394.786 163.049 394.054 161.618C393.322 160.187 392.514 158.63 390.907 158.63C389.299 158.63 388.525 160.145 387.776 161.618C387.027 163.091 386.337 164.395 384.974 164.395C383.61 164.395 382.912 163.049 382.171 161.618C381.431 160.187 380.631 158.63 379.032 158.63C377.433 158.63 376.642 160.153 375.885 161.618C375.127 163.082 374.454 164.395 373.091 164.395C371.727 164.395 371.029 163.049 370.288 161.618C369.548 160.187 368.748 158.63 367.149 158.63C365.55 158.63 364.759 160.153 364.002 161.618C363.244 163.082 362.571 164.395 361.208 164.395C359.844 164.395 359.137 163.049 358.405 161.618C357.673 160.187 356.865 158.63 355.266 158.63C353.667 158.63 352.876 160.153 352.119 161.618C351.361 163.082 350.688 164.395 349.325 164.395C347.961 164.395 347.254 163.049 346.514 161.618C345.773 160.187 344.974 158.63 343.375 158.63C341.776 158.63 340.985 160.153 340.227 161.618C339.47 163.082 338.796 164.395 337.433 164.395C336.07 164.395 335.363 163.049 334.631 161.618C333.898 160.187 333.091 158.63 331.492 158.63C329.893 158.63 329.102 160.153 328.344 161.618C327.587 163.082 326.913 164.395 325.55 164.395C324.187 164.395 323.48 163.049 322.748 161.618C322.015 160.187 321.208 158.63 319.6 158.63Z" fill="#6A8AFF"/>
<path d="M332.369 74.9649L358.694 75.1079L358.677 73.5258L332.344 73.3827L332.369 74.9649Z" fill="#6A8AFF"/>
<path d="M360.007 75.0911L370.897 74.8554L370.88 73.2648L359.981 73.5089L360.007 75.0911Z" fill="#6A8AFF"/>
<path d="M367.421 71.9772L376.628 71.75L376.611 70.1678L367.404 70.3867L367.421 71.9772Z" fill="#6A8AFF"/>
<path d="M365.869 70.4157L354.004 70.5544L354.023 72.1365L365.888 71.9978L365.869 70.4157Z" fill="#6A8AFF"/>
<path d="M332.327 71.9351L352.618 72.1455L352.592 70.5634L332.31 70.3445L332.327 71.9351Z" fill="#6A8AFF"/>
<path d="M332.285 68.897L377.596 68.7035L377.57 67.1213L332.268 67.3149L332.285 68.897Z" fill="#6A8AFF"/>
<path d="M359.805 116.606L369.011 116.388L368.995 114.805L359.779 115.024L359.805 116.606Z" fill="#6A8AFF"/>
<path d="M332.496 113.652L369.971 113.341L369.954 111.759L332.479 112.07L332.496 113.652Z" fill="#6A8AFF"/>
<path d="M359.729 110.547L368.355 110.328L368.338 108.746L359.704 108.965L359.729 110.547Z" fill="#6A8AFF"/>
<path d="M354.158 110.816L358.34 110.732L358.324 109.15L354.141 109.234L354.158 110.816Z" fill="#6A8AFF"/>
<path d="M332.454 110.614L352.744 110.833L352.727 109.251L332.437 109.032L332.454 110.614Z" fill="#6A8AFF"/>
<path d="M360.057 107.711L363.423 107.728L363.407 106.137L360.032 106.129L360.057 107.711Z" fill="#6A8AFF"/>
<path d="M332.42 107.585L358.744 107.728L358.727 106.146L332.395 106.003L332.42 107.585Z" fill="#6A8AFF"/>
<path d="M332.841 94.5654L378.151 94.3802L378.126 92.798L332.824 92.9832L332.841 94.5654Z" fill="#6A8AFF"/>
<path d="M367.901 91.5777L376.527 91.3673L376.51 89.7767L367.884 89.9956L367.901 91.5777Z" fill="#6A8AFF"/>
<path d="M366.351 90.0177L354.486 90.1565L354.504 91.7386L366.37 91.5998L366.351 90.0177Z" fill="#6A8AFF"/>
<path d="M332.807 91.5357L353.089 91.7545L353.072 90.1723L332.782 89.9535L332.807 91.5357Z" fill="#6A8AFF"/>
<path d="M360.402 88.6321L371.301 88.3881L371.284 86.8059L360.385 87.05L360.402 88.6321Z" fill="#6A8AFF"/>
<path d="M332.765 88.5059L359.098 88.649L359.073 87.0668L332.748 86.9238L332.765 88.5059Z" fill="#6A8AFF"/>
<path d="M326.765 71.0178C326.765 71.5454 326.608 72.0612 326.315 72.5C326.022 72.9387 325.605 73.2806 325.118 73.4825C324.63 73.6845 324.094 73.7373 323.576 73.6344C323.059 73.5314 322.583 73.2773 322.21 72.9042C321.837 72.5311 321.583 72.0558 321.48 71.5383C321.377 71.0208 321.43 70.4843 321.632 69.9969C321.834 69.5094 322.176 69.0927 322.615 68.7996C323.053 68.5064 323.569 68.35 324.097 68.35C324.804 68.35 325.483 68.631 325.983 69.1314C326.483 69.6317 326.765 70.3102 326.765 71.0178ZM326.765 90.6267C326.765 91.1544 326.608 91.6701 326.315 92.1089C326.022 92.5476 325.605 92.8895 325.118 93.0915C324.63 93.2934 324.094 93.3462 323.576 93.2433C323.059 93.1403 322.583 92.8862 322.21 92.5131C321.837 92.14 321.583 91.6647 321.48 91.1472C321.377 90.6297 321.43 90.0933 321.632 89.6058C321.834 89.1183 322.176 88.7016 322.615 88.4085C323.053 88.1154 323.569 87.9589 324.097 87.9589C324.804 87.9589 325.483 88.24 325.983 88.7403C326.483 89.2406 326.765 89.9192 326.765 90.6267ZM326.765 110.236C326.765 110.763 326.608 111.279 326.315 111.718C326.022 112.157 325.605 112.498 325.118 112.7C324.63 112.902 324.094 112.955 323.576 112.852C323.059 112.749 322.583 112.495 322.21 112.122C321.837 111.749 321.583 111.274 321.48 110.756C321.377 110.239 321.43 109.702 321.632 109.215C321.834 108.727 322.176 108.311 322.615 108.017C323.053 107.724 323.569 107.568 324.097 107.568C324.804 107.568 325.483 107.849 325.983 108.349C326.483 108.849 326.765 109.528 326.765 110.236Z" fill="#6A8AFF"/>
<path d="M386.44 68.9138C386.302 69.281 386.059 69.5997 385.742 69.8312C385.461 70.059 385.146 70.2408 384.808 70.3698V71.3713C385.337 71.1971 385.823 70.9099 386.23 70.5297V74.6955H387.333V68.9138H386.44ZM392.146 69.4945C391.99 69.2985 391.79 69.1422 391.562 69.0384C391.333 68.9345 391.084 68.8861 390.833 68.897C390.586 68.8858 390.34 68.9333 390.115 69.0357C389.889 69.1381 389.692 69.2925 389.537 69.4861C389.096 70.1824 388.895 71.0043 388.965 71.8257C388.892 72.6264 389.071 73.4299 389.479 74.1232C389.639 74.3288 389.845 74.4943 390.08 74.6068C390.315 74.7192 390.573 74.7755 390.833 74.7713C391.082 74.7846 391.33 74.738 391.557 74.6355C391.784 74.533 391.983 74.3775 392.138 74.1821C392.511 73.4573 392.706 72.6537 392.706 71.8383C392.706 71.0229 392.511 70.2194 392.138 69.4945H392.146ZM391.439 73.2732C391.408 73.4465 391.322 73.6055 391.195 73.7277C391.094 73.8114 390.965 73.8561 390.833 73.8539C390.707 73.8559 390.584 73.8109 390.488 73.7277C390.346 73.5947 390.253 73.4162 390.228 73.2227C390.138 72.7656 390.101 72.2997 390.118 71.8341C390.101 71.3515 390.141 70.8685 390.236 70.395C390.268 70.2217 390.353 70.0628 390.48 69.9406C390.577 69.8546 390.704 69.8094 390.833 69.8143C390.966 69.8081 391.096 69.8533 391.195 69.9406C391.327 70.0809 391.414 70.2563 391.448 70.4455C391.599 71.382 391.599 72.3367 391.448 73.2732H391.439ZM396.623 69.4945C396.469 69.2987 396.27 69.1423 396.043 69.0385C395.817 68.9346 395.568 68.8861 395.319 68.897C395.07 68.8837 394.822 68.9303 394.595 69.0328C394.368 69.1353 394.169 69.2907 394.015 69.4861C393.652 70.2038 393.459 70.9949 393.451 71.7988C393.442 72.6027 393.618 73.3978 393.964 74.1232C394.124 74.3288 394.33 74.4943 394.565 74.6068C394.8 74.7192 395.058 74.7755 395.319 74.7713C395.568 74.7839 395.816 74.737 396.043 74.6345C396.269 74.5321 396.469 74.377 396.623 74.1821C397.056 73.4794 397.254 72.6569 397.187 71.8341C397.257 71.0138 397.059 70.1931 396.623 69.4945ZM395.917 73.2732C395.885 73.4465 395.799 73.6055 395.673 73.7277C395.574 73.8108 395.448 73.8556 395.319 73.8539C395.187 73.8547 395.06 73.8101 394.957 73.7277C394.822 73.5898 394.734 73.4132 394.705 73.2227C394.619 72.7651 394.586 72.2993 394.604 71.8341C394.59 71.3519 394.626 70.8696 394.713 70.395C394.745 70.2217 394.83 70.0628 394.957 69.9406C395.058 69.8548 395.187 69.8098 395.319 69.8143C395.449 69.8085 395.576 69.8539 395.673 69.9406C395.804 70.0809 395.891 70.2563 395.925 70.4455C396.018 70.9022 396.055 71.3685 396.034 71.8341C396.051 72.3168 396.012 72.7997 395.917 73.2732ZM388.006 90.6772C387.794 90.4209 387.494 90.2529 387.164 90.2059C387.37 90.1255 387.551 89.9947 387.693 89.8255C387.834 89.6564 387.931 89.4542 387.974 89.2379C388.017 89.0215 388.004 88.7979 387.938 88.5876C387.871 88.3773 387.753 88.1871 387.593 88.0346C387.426 87.8588 387.223 87.7212 386.998 87.6311C386.773 87.5411 386.531 87.5007 386.289 87.5128C385.998 87.513 385.711 87.5762 385.447 87.698C385.204 87.8012 384.996 87.9739 384.85 88.1945C384.685 88.4492 384.576 88.7361 384.53 89.0361L385.548 89.2128C385.554 88.9979 385.641 88.7931 385.792 88.6406C385.855 88.5771 385.93 88.5271 386.012 88.4938C386.095 88.4605 386.183 88.4446 386.272 88.447C386.356 88.4421 386.441 88.4551 386.519 88.4851C386.598 88.5151 386.67 88.5614 386.729 88.621C386.789 88.6806 386.835 88.7522 386.865 88.831C386.895 88.9098 386.908 88.994 386.903 89.0782C386.908 89.1813 386.889 89.284 386.848 89.3788C386.808 89.4736 386.746 89.5578 386.668 89.6252C386.475 89.7768 386.23 89.8463 385.986 89.8188L385.868 90.7193C386.032 90.6707 386.202 90.6424 386.373 90.6351C386.475 90.6345 386.576 90.656 386.669 90.6981C386.762 90.7403 386.845 90.802 386.912 90.8792C387.071 91.0597 387.152 91.2955 387.139 91.5356C387.155 91.7903 387.07 92.041 386.903 92.2341C386.834 92.3179 386.746 92.3848 386.647 92.43C386.548 92.4752 386.44 92.4974 386.331 92.495C386.232 92.4974 386.133 92.48 386.041 92.4439C385.948 92.4078 385.864 92.3536 385.792 92.2846C385.631 92.1151 385.533 91.8952 385.515 91.6618L384.446 91.7881C384.489 92.2423 384.702 92.6634 385.043 92.9663C385.406 93.2688 385.867 93.4275 386.339 93.4123C386.594 93.4204 386.847 93.3769 387.085 93.2843C387.322 93.1917 387.538 93.0521 387.72 92.8737C387.899 92.7117 388.042 92.5127 388.138 92.2905C388.234 92.0683 388.28 91.828 388.275 91.5861C388.292 91.2613 388.197 90.9405 388.006 90.6772ZM392.146 88.1188C391.988 87.9252 391.79 87.7692 391.564 87.662C391.338 87.5549 391.092 87.4993 390.842 87.4993C390.592 87.4993 390.345 87.5549 390.12 87.662C389.894 87.7692 389.695 87.9252 389.537 88.1188C389.096 88.8151 388.895 89.6369 388.965 90.4584C388.892 91.2591 389.071 92.0626 389.479 92.7559C389.639 92.9615 389.845 93.127 390.08 93.2394C390.315 93.3519 390.573 93.4082 390.833 93.4039C391.082 93.4172 391.33 93.3707 391.557 93.2682C391.784 93.1657 391.983 93.0102 392.138 92.8148C392.511 92.09 392.706 91.2864 392.706 90.471C392.706 89.6556 392.511 88.852 392.138 88.1272L392.146 88.1188ZM391.439 91.8975C391.408 92.0708 391.322 92.2297 391.195 92.352C391.094 92.4356 390.965 92.4804 390.833 92.4782C390.708 92.4789 390.587 92.4373 390.488 92.3604C390.353 92.2185 390.262 92.04 390.228 91.847C390.139 91.3898 390.102 90.9239 390.118 90.4584C390.102 89.9757 390.141 89.4928 390.236 89.0193C390.268 88.846 390.353 88.687 390.48 88.5648C390.576 88.4766 390.703 88.4284 390.833 88.4302C390.967 88.4271 391.096 88.4753 391.195 88.5648C391.327 88.7052 391.414 88.8806 391.448 89.0698C391.537 89.527 391.573 89.9929 391.557 90.4584C391.576 90.9407 391.54 91.4236 391.448 91.8975H391.439ZM396.623 88.1188C396.466 87.9252 396.267 87.7692 396.041 87.662C395.815 87.5549 395.569 87.4993 395.319 87.4993C395.069 87.4993 394.823 87.5549 394.597 87.662C394.371 87.7692 394.172 87.9252 394.015 88.1188C393.652 88.8365 393.459 89.6276 393.451 90.4315C393.442 91.2353 393.618 92.0305 393.964 92.7559C394.122 92.9645 394.327 93.1322 394.563 93.245C394.798 93.3577 395.058 93.4123 395.319 93.4039C395.568 93.4165 395.816 93.3697 396.043 93.2672C396.269 93.1647 396.469 93.0097 396.623 92.8148C397.058 92.1125 397.255 91.2896 397.187 90.4668C397.259 89.6437 397.061 88.8197 396.623 88.1188ZM395.917 91.8975C395.885 92.0708 395.799 92.2297 395.673 92.352C395.574 92.4351 395.448 92.4798 395.319 92.4782C395.189 92.4776 395.063 92.4364 394.957 92.3604C394.828 92.2154 394.741 92.0379 394.705 91.847C394.62 91.3893 394.586 90.9236 394.604 90.4584C394.59 89.9762 394.627 89.4939 394.713 89.0193C394.745 88.846 394.83 88.687 394.957 88.5648C395.057 88.4768 395.186 88.4288 395.319 88.4302C395.45 88.4276 395.577 88.4758 395.673 88.5648C395.804 88.7052 395.891 88.8806 395.925 89.0698C396.018 89.5264 396.055 89.9928 396.034 90.4584C396.051 90.941 396.011 91.4239 395.917 91.8975ZM387.888 110.337C387.729 110.165 387.536 110.029 387.322 109.936C387.107 109.843 386.876 109.796 386.642 109.798C386.381 109.798 386.124 109.862 385.893 109.983L386.062 109.007H388.14V107.972H385.229L384.665 110.968L385.557 111.102C385.658 110.975 385.785 110.871 385.931 110.799C386.076 110.726 386.236 110.686 386.398 110.682C386.515 110.68 386.63 110.702 386.737 110.747C386.844 110.792 386.941 110.858 387.021 110.943C387.192 111.17 387.275 111.45 387.257 111.734C387.275 112.033 387.192 112.329 387.021 112.575C386.95 112.664 386.861 112.735 386.759 112.784C386.657 112.834 386.545 112.86 386.432 112.861C386.334 112.862 386.236 112.842 386.145 112.805C386.054 112.767 385.972 112.712 385.902 112.643C385.74 112.486 385.639 112.277 385.616 112.053L384.522 112.163C384.566 112.609 384.78 113.022 385.119 113.316C385.487 113.606 385.947 113.755 386.415 113.737C386.717 113.749 387.017 113.686 387.289 113.554C387.561 113.422 387.796 113.224 387.972 112.979C388.248 112.613 388.395 112.167 388.393 111.708C388.411 111.203 388.23 110.71 387.888 110.337ZM392.146 108.468C392.06 108.353 391.954 108.254 391.835 108.174C391.611 108.004 391.341 107.904 391.061 107.888H390.833C390.515 107.882 390.201 107.964 389.925 108.123C389.78 108.21 389.654 108.324 389.554 108.46C389.491 108.536 389.435 108.618 389.386 108.704C389.082 109.359 388.943 110.078 388.982 110.799C388.937 111.525 389.07 112.25 389.369 112.912L389.495 113.105C389.652 113.289 389.84 113.443 390.051 113.56C390.298 113.687 390.573 113.75 390.85 113.745C391.111 113.75 391.369 113.698 391.608 113.594C391.825 113.498 392.014 113.347 392.155 113.156C392.213 113.078 392.266 112.996 392.315 112.912C392.484 112.565 392.595 112.192 392.643 111.809C392.689 111.489 392.711 111.165 392.71 110.842C392.786 110.01 392.588 109.177 392.146 108.468ZM391.54 111.397C391.535 111.68 391.501 111.962 391.439 112.239C391.406 112.372 391.352 112.5 391.279 112.617L391.195 112.693C391.096 112.78 390.966 112.825 390.833 112.819C390.765 112.822 390.697 112.81 390.634 112.786C390.57 112.761 390.512 112.724 390.463 112.676C390.382 112.607 390.321 112.517 390.286 112.415C390.251 112.337 390.223 112.255 390.202 112.171C390.113 111.711 390.076 111.243 390.093 110.774C390.093 110.547 390.093 110.337 390.093 110.151V110.059C390.103 109.818 390.134 109.579 390.185 109.344C390.221 109.213 390.274 109.088 390.345 108.973L390.43 108.889C390.469 108.857 390.515 108.834 390.564 108.822C390.624 108.792 390.691 108.777 390.758 108.78C390.89 108.777 391.018 108.822 391.12 108.906C391.202 108.985 391.263 109.083 391.296 109.192C391.327 109.263 391.352 109.336 391.372 109.411C391.436 109.701 391.469 109.997 391.473 110.295C391.473 110.446 391.473 110.623 391.473 110.799C391.473 110.976 391.557 111.22 391.549 111.397H391.54ZM396.623 108.468C396.469 108.272 396.27 108.116 396.043 108.012C395.817 107.908 395.568 107.86 395.319 107.871C395.21 107.862 395.1 107.862 394.991 107.871C394.87 107.888 394.751 107.919 394.637 107.963C394.39 108.06 394.174 108.223 394.015 108.435C393.867 108.629 393.756 108.849 393.686 109.083C393.527 109.629 393.453 110.197 393.468 110.766C393.455 110.99 393.455 111.215 393.468 111.439C393.468 112.019 393.637 112.587 393.956 113.072C394.117 113.276 394.323 113.44 394.558 113.551C394.793 113.662 395.051 113.717 395.311 113.711C395.559 113.724 395.807 113.677 396.034 113.575C396.261 113.472 396.46 113.317 396.615 113.122C397.036 112.421 397.228 111.606 397.162 110.791C397.234 109.979 397.046 109.165 396.623 108.468ZM395.959 112.045C395.959 112.121 395.959 112.188 395.917 112.247C395.885 112.42 395.799 112.579 395.673 112.701C395.576 112.788 395.449 112.833 395.319 112.828C395.188 112.832 395.06 112.79 394.957 112.71C394.826 112.57 394.738 112.394 394.705 112.205C394.62 111.744 394.586 111.276 394.604 110.808V110.387C394.604 110.244 394.604 110.118 394.604 110C394.622 109.788 394.653 109.577 394.696 109.369C394.728 109.195 394.813 109.037 394.94 108.914C395.037 108.847 395.151 108.812 395.269 108.813C395.398 108.812 395.523 108.856 395.622 108.94C395.753 109.08 395.841 109.255 395.874 109.445C395.968 109.901 396.005 110.368 395.984 110.833C396.008 111.237 395.999 111.642 395.959 112.045Z" fill="#6A8AFF"/>
<path d="M359.805 134.633L369.011 134.406L368.995 132.824L359.779 133.051L359.805 134.633Z" fill="#6A8AFF"/>
<path d="M332.496 131.671L369.971 131.359L369.954 129.777L332.479 130.089L332.496 131.671Z" fill="#6A8AFF"/>
<path d="M359.729 128.565L368.355 128.347L368.338 126.764L359.704 126.983L359.729 128.565Z" fill="#6A8AFF"/>
<path d="M354.158 128.835L358.34 128.751L358.324 127.168L354.141 127.252L354.158 128.835Z" fill="#6A8AFF"/>
<path d="M332.454 128.641L352.744 128.851L352.727 127.269L332.437 127.05L332.454 128.641Z" fill="#6A8AFF"/>
<path d="M360.057 125.738L363.423 125.746L363.407 124.164L360.032 124.155L360.057 125.738Z" fill="#6A8AFF"/>
<path d="M332.42 125.603L358.744 125.754L358.727 124.172L332.395 124.021L332.42 125.603Z" fill="#6A8AFF"/>
<path d="M326.765 128.254C326.765 128.782 326.608 129.297 326.315 129.736C326.022 130.175 325.605 130.517 325.118 130.719C324.63 130.921 324.094 130.973 323.576 130.87C323.059 130.768 322.583 130.513 322.21 130.14C321.837 129.767 321.583 129.292 321.48 128.774C321.377 128.257 321.43 127.721 321.632 127.233C321.834 126.746 322.176 126.329 322.615 126.036C323.053 125.743 323.569 125.586 324.097 125.586C324.804 125.586 325.483 125.867 325.983 126.368C326.483 126.868 326.765 127.546 326.765 128.254Z" fill="#6A8AFF"/>
<path d="M388.006 129.037C387.791 128.782 387.493 128.611 387.164 128.557C387.37 128.478 387.552 128.348 387.693 128.18C387.835 128.011 387.932 127.81 387.974 127.594C388.017 127.378 388.005 127.155 387.938 126.945C387.872 126.735 387.753 126.546 387.593 126.394C387.426 126.218 387.223 126.081 386.998 125.991C386.773 125.901 386.531 125.86 386.289 125.872C385.998 125.872 385.711 125.936 385.447 126.057C385.206 126.16 384.999 126.329 384.85 126.546C384.686 126.801 384.577 127.087 384.53 127.387L385.548 127.564C385.559 127.348 385.646 127.142 385.792 126.983C385.921 126.858 386.093 126.789 386.272 126.79C386.356 126.785 386.44 126.798 386.518 126.829C386.597 126.859 386.668 126.906 386.727 126.966C386.787 127.027 386.834 127.099 386.864 127.179C386.895 127.259 386.908 127.344 386.903 127.429C386.909 127.531 386.891 127.633 386.85 127.727C386.809 127.82 386.747 127.903 386.668 127.968C386.474 128.119 386.231 128.191 385.986 128.17L385.868 129.07C386.031 129.018 386.202 128.989 386.373 128.986C386.475 128.986 386.576 129.007 386.669 129.049C386.762 129.091 386.845 129.153 386.912 129.23C387.071 129.411 387.152 129.647 387.139 129.887C387.153 130.141 387.069 130.391 386.903 130.585C386.834 130.669 386.746 130.736 386.647 130.781C386.548 130.826 386.44 130.848 386.331 130.846C386.231 130.847 386.132 130.828 386.04 130.79C385.947 130.753 385.863 130.697 385.792 130.627C385.628 130.46 385.529 130.239 385.515 130.004L384.446 130.139C384.487 130.592 384.701 131.011 385.043 131.309C385.428 131.613 385.907 131.771 386.397 131.755C386.887 131.74 387.355 131.552 387.72 131.225C387.899 131.063 388.042 130.864 388.138 130.642C388.234 130.419 388.28 130.179 388.275 129.937C388.293 129.615 388.197 129.296 388.006 129.037ZM392.146 126.478C391.988 126.285 391.79 126.129 391.564 126.022C391.338 125.914 391.092 125.859 390.842 125.859C390.592 125.859 390.345 125.914 390.12 126.022C389.894 126.129 389.695 126.285 389.537 126.478C389.097 127.178 388.896 128.002 388.965 128.826C388.893 129.627 389.073 130.43 389.479 131.124C389.64 131.328 389.846 131.492 390.081 131.603C390.316 131.714 390.574 131.769 390.833 131.763C391.082 131.781 391.331 131.738 391.56 131.638C391.789 131.539 391.99 131.385 392.146 131.191C392.52 130.466 392.715 129.663 392.715 128.847C392.715 128.032 392.52 127.228 392.146 126.503V126.478ZM391.439 130.257C391.403 130.429 391.318 130.586 391.195 130.711C391.094 130.795 390.965 130.84 390.833 130.838C390.707 130.84 390.584 130.795 390.488 130.711C390.351 130.574 390.26 130.398 390.228 130.206C390.076 129.27 390.076 128.315 390.228 127.379C390.264 127.205 390.349 127.044 390.472 126.916C390.571 126.834 390.696 126.789 390.825 126.79C390.957 126.787 391.085 126.832 391.187 126.916C391.316 127.061 391.403 127.238 391.439 127.429C391.529 127.886 391.565 128.352 391.549 128.818C391.571 129.3 391.537 129.783 391.448 130.257H391.439ZM396.623 126.478C396.471 126.28 396.273 126.121 396.045 126.016C395.818 125.91 395.569 125.861 395.319 125.872C395.071 125.861 394.823 125.909 394.596 126.011C394.37 126.113 394.17 126.268 394.015 126.461C393.652 127.181 393.459 127.973 393.451 128.778C393.442 129.584 393.618 130.38 393.964 131.107C394.125 131.311 394.331 131.475 394.566 131.586C394.802 131.697 395.059 131.752 395.319 131.747C395.567 131.761 395.815 131.716 396.042 131.615C396.269 131.514 396.468 131.36 396.623 131.166C397.056 130.463 397.254 129.641 397.187 128.818C397.258 127.997 397.06 127.176 396.623 126.478ZM395.917 130.257C395.885 130.43 395.799 130.589 395.673 130.711C395.574 130.795 395.448 130.839 395.319 130.838C395.187 130.838 395.06 130.794 394.957 130.711C394.826 130.571 394.738 130.396 394.705 130.206C394.62 129.749 394.586 129.283 394.604 128.818C394.59 128.336 394.626 127.853 394.713 127.379C394.75 127.205 394.834 127.044 394.957 126.916C395.06 126.833 395.187 126.789 395.319 126.79C395.448 126.788 395.574 126.833 395.673 126.916C395.802 127.061 395.889 127.238 395.925 127.429C396.019 127.886 396.055 128.352 396.034 128.818C396.051 129.3 396.011 129.783 395.917 130.257Z" fill="#6A8AFF"/>
<path d="M345.277 39.5965C345.275 42.4881 346.131 45.3152 347.736 47.7203C349.341 50.1254 351.624 52.0004 354.295 53.1081C356.966 54.2158 359.905 54.5065 362.741 53.9434C365.578 53.3803 368.183 51.9887 370.228 49.9446C372.274 47.9006 373.667 45.2959 374.231 42.4599C374.796 39.624 374.507 36.6843 373.401 34.0127C372.295 31.3411 370.421 29.0575 368.017 27.4509C365.613 25.8442 362.786 24.9866 359.895 24.9866C356.019 24.9866 352.302 26.5256 349.561 29.2653C346.82 32.0049 345.279 35.721 345.277 39.5965Z" fill="#FF7A00"/>
<path d="M367.36 31.071L365.447 31.9441C365.323 31.9995 365.212 32.0827 365.115 32.1797L362.01 35.284L351.312 33.9952C351.118 33.9675 350.924 34.0367 350.785 34.1753L350.189 34.7712C349.87 35.09 349.967 35.6166 350.383 35.7968L358.047 39.2337L355.843 41.4372H352.005C351.838 41.4372 351.672 41.5065 351.547 41.6173L351.229 41.9361C350.91 42.2548 351.021 42.7953 351.423 42.9755L354.665 44.3613L356.051 47.6042C356.231 48.02 356.772 48.117 357.091 47.7982L357.409 47.4795C357.534 47.3547 357.59 47.2023 357.59 47.0221V43.1833L359.793 40.9798L363.23 48.6436C363.41 49.0455 363.951 49.1425 364.256 48.8376L364.851 48.2417C364.99 48.1031 365.059 47.9091 365.032 47.7151L363.743 37.0163L366.847 33.912C366.944 33.815 367.013 33.7041 367.083 33.5794L367.956 31.6669C368.136 31.2789 367.734 30.8631 367.332 31.0433L367.36 31.071Z" fill="white"/>
<path d="M332.948 197.604H387.078C390.138 197.604 393.074 196.389 395.239 194.225C397.404 192.061 398.622 189.127 398.624 186.066C398.624 184.55 398.325 183.048 397.745 181.647C397.165 180.246 396.314 178.973 395.242 177.901C394.17 176.829 392.897 175.978 391.496 175.398C390.095 174.818 388.594 174.519 387.078 174.519H332.956C329.897 174.524 326.966 175.742 324.805 177.908C322.645 180.073 321.433 183.007 321.435 186.066C321.435 189.122 322.647 192.052 324.805 194.216C326.964 196.379 329.892 197.597 332.948 197.604Z" fill="#FF7A00"/>
<path d="M358.433 188.523L357.836 189.146C357.642 189.356 357.659 189.289 357.558 189.331C357.489 189.341 357.42 189.332 357.356 189.305C357.292 189.279 357.237 189.235 357.196 189.179L353.299 183.364C353.299 183.305 353.207 183.229 353.156 183.17C352.854 182.794 352.416 182.55 351.936 182.492C351.457 182.434 350.974 182.566 350.59 182.859C350.415 183.016 350.273 183.206 350.173 183.418C350.072 183.631 350.014 183.861 350.002 184.095C349.99 184.33 350.025 184.564 350.104 184.785C350.183 185.006 350.305 185.21 350.463 185.384L352.862 188.203L354.141 189.634L354.739 190.341L355.058 190.711C355.24 190.925 355.446 191.117 355.673 191.283C356.104 191.603 356.612 191.804 357.145 191.864C357.679 191.925 358.219 191.844 358.711 191.628C359.129 191.422 359.491 191.115 359.763 190.736L360.268 190.029L362.271 187.218L370.282 176L360.798 186.015L358.433 188.523Z" fill="white"/>
<path d="M294.672 21.0142C294.058 16.0152 283.033 12.1944 274.575 22.5964C262.524 37.3998 268.979 108.303 267.8 112.267C267.8 112.267 292.837 115.852 298.139 105.467C298.139 105.467 298.829 54.4672 294.672 21.0142Z" fill="#11181C"/>
<path d="M231.47 79.9335L218.484 79.0919C217.815 79.0867 217.167 78.8601 216.64 78.4475C216.113 78.0349 215.738 77.4596 215.573 76.8112L207.544 46.8845C207.258 45.6305 208.293 43.4003 210.279 43.3414L224.409 42.8785C225.079 42.8857 225.728 43.1141 226.254 43.528C226.781 43.942 227.156 44.5185 227.321 45.1677L234.314 76.2137C234.609 77.4677 233.801 79.8577 231.47 79.9335Z" fill="#101730"/>
<path d="M231.47 79.9335L217.483 80.3795C216.813 80.3738 216.163 80.146 215.636 79.7318C215.11 79.3175 214.735 78.7403 214.571 78.0904L207.578 47.0528C207.499 46.7808 207.483 46.4947 207.528 46.2154C207.574 45.9361 207.682 45.6705 207.843 45.4377C208.004 45.205 208.215 45.0109 208.46 44.8696C208.705 44.7283 208.979 44.6432 209.261 44.6206L223.391 44.1661C224.059 44.1718 224.706 44.3987 225.231 44.8114C225.757 45.224 226.13 45.7992 226.294 46.4468L233.288 77.4929C233.369 77.776 233.385 78.0742 233.332 78.3641C233.279 78.6541 233.16 78.928 232.984 79.1643C232.808 79.4006 232.58 79.5931 232.317 79.7265C232.055 79.8599 231.764 79.9308 231.47 79.9335Z" fill="#6A8AFF"/>
<path d="M217.441 80.8593C216.665 80.8493 215.914 80.5831 215.305 80.1021C214.696 79.6211 214.264 78.9524 214.074 78.1999L207.073 47.1538C206.987 46.8038 206.977 46.4394 207.044 46.0852C207.11 45.731 207.252 45.3952 207.46 45.1004C207.664 44.8248 207.926 44.5964 208.226 44.4309C208.527 44.2653 208.86 44.1664 209.202 44.141L223.365 43.6865C224.141 43.6965 224.892 43.9627 225.501 44.4437C226.11 44.9247 226.542 45.5935 226.732 46.3459L233.725 77.392C233.814 77.752 233.822 78.1272 233.749 78.4909C233.677 78.8545 233.525 79.1977 233.304 79.4959C233.08 79.7791 232.795 80.0084 232.47 80.1671C232.145 80.3259 231.789 80.41 231.428 80.4133L217.441 80.8593ZM223.424 44.6712L209.294 45.1256C209.092 45.1429 208.896 45.2028 208.719 45.3015C208.542 45.4001 208.388 45.5352 208.268 45.6979C208.14 45.8808 208.055 46.0894 208.017 46.309C207.979 46.5286 207.99 46.7538 208.049 46.9687L215.042 78.0316C215.185 78.5664 215.496 79.041 215.93 79.3851C216.363 79.7292 216.896 79.9245 217.449 79.942L231.436 79.4959C231.663 79.4869 231.885 79.4261 232.085 79.3181C232.285 79.2102 232.457 79.058 232.589 78.8732C232.724 78.6877 232.817 78.4743 232.859 78.2486C232.901 78.0229 232.892 77.7906 232.833 77.5687L225.856 46.5563C225.721 46.0174 225.412 45.5382 224.977 45.1928C224.542 44.8474 224.005 44.6552 223.45 44.6459L223.424 44.6712Z" fill="#11181C"/>
<path d="M222.557 61.688C222.615 61.6913 222.673 61.6808 222.725 61.6574C222.778 61.634 222.824 61.5983 222.86 61.5533C222.897 61.5031 222.922 61.4453 222.934 61.3842C222.945 61.323 222.943 61.2601 222.928 61.1999L220.167 48.9632C220.119 48.7964 220.02 48.6486 219.885 48.5402C219.749 48.4317 219.583 48.3678 219.41 48.3573L213.856 48.5424C213.803 48.5441 213.751 48.5578 213.704 48.5826C213.658 48.6074 213.617 48.6426 213.586 48.6855C213.553 48.7357 213.53 48.7923 213.52 48.8518C213.51 48.9112 213.512 48.9721 213.527 49.0306L216.288 61.2672C216.337 61.4324 216.437 61.5784 216.572 61.6853C216.708 61.7921 216.873 61.8548 217.045 61.8647L222.557 61.688Z" fill="#101730"/>
<path d="M208.65 69.3849C208.019 70.5253 206.661 74.089 210.024 79.7201C213.226 85.0572 214.06 88.5427 214.278 90.0324L214.281 90.0565L214.281 90.0809C214.315 95.6543 214.431 103.686 214.795 111.419C215.161 119.161 215.774 126.572 216.797 130.92C217.169 132.497 217.858 133.982 218.822 135.283C219.776 136.572 220.981 137.654 222.363 138.467C224.14 138.913 225.949 139.22 227.773 139.386C232.099 139.349 237.76 137.709 243.525 134.822C249.293 131.935 255.135 127.815 259.812 122.858C262.083 120.451 262.778 117.472 262.333 114.483C261.885 111.487 260.289 108.484 257.977 106.081C253.365 101.287 246.016 98.9679 239.453 103.72C237.679 106.791 235.688 109.73 233.495 112.517L233.188 112.908L232.924 112.487C228.87 106.04 225.687 99.0842 223.46 91.8012L223.458 91.7945L223.458 91.7945C223.328 91.3388 223.142 90.4722 222.91 89.3912C222.759 88.6878 222.588 87.8937 222.401 87.0629L222.385 86.9914L208.65 69.3849ZM208.65 69.3849L208.671 69.3758L208.722 69.3189L208.865 69.1589L208.88 69.142L208.893 69.1232L208.99 68.982C211.805 65.8329 214.802 62.8507 217.964 60.0507C218.024 60.0006 218.086 59.9881 218.167 60.0078C218.262 60.0308 218.382 60.1007 218.496 60.2217C218.739 60.4797 218.825 60.8114 218.741 61.0175L218.74 61.019C218.463 61.7092 217.871 62.5534 217.111 63.447C216.356 64.3343 215.456 65.2459 214.589 66.0692C213.722 66.8918 212.892 67.6225 212.279 68.1476C211.972 68.4101 211.72 68.621 211.544 68.7661C211.456 68.8386 211.388 68.8947 211.342 68.9326L211.289 68.9754L211.276 68.9861L211.272 68.9888L211.272 68.9894L211.271 68.9895L211.491 69.2622M208.65 69.3849L218.88 66.3213M222.399 86.9195L222.399 86.9196L222.399 86.9195ZM222.399 86.9195L222.399 86.9192M222.399 86.9195L222.399 86.9192M211.491 69.2622L211.271 68.9895L211.663 69.5671L211.491 69.2622ZM211.491 69.2622L211.663 69.567L211.663 69.5669L211.664 69.5664L211.667 69.5644L211.682 69.5564L211.739 69.5246C211.788 69.4968 211.862 69.4559 211.955 69.4041C212.143 69.3005 212.412 69.153 212.737 68.978C213.387 68.6277 214.262 68.1679 215.159 67.7282C216.059 67.2874 216.973 66.8714 217.706 66.6053C218.074 66.4716 218.383 66.381 218.614 66.3412C218.731 66.3212 218.814 66.3165 218.868 66.3203C218.873 66.3206 218.877 66.3209 218.88 66.3213M218.88 66.3213C219.938 67.7652 220.875 69.2942 221.681 70.8926L221.681 70.8927L221.687 70.9039C222.071 71.6008 222.054 71.8406 221.967 72.0118C221.91 72.1232 221.801 72.2483 221.603 72.4257C221.489 72.5277 221.364 72.6311 221.22 72.7507C221.107 72.8445 220.982 72.9482 220.841 73.069M218.88 66.3213L220.841 73.069M220.841 73.069C220.841 73.0688 220.841 73.0687 220.842 73.0685L221.068 73.3355L220.84 73.0695C220.841 73.0693 220.841 73.0692 220.841 73.069ZM220.841 73.069C220.053 73.7373 219.408 74.399 218.957 74.9355C218.732 75.2033 218.551 75.4446 218.425 75.6436C218.362 75.7426 218.308 75.8371 218.269 75.9232C218.235 75.9984 218.193 76.1073 218.193 76.2221V76.3077M220.841 73.069L218.193 76.3077M218.193 76.3077L218.233 76.3837M218.193 76.3077L218.233 76.3837M218.233 76.3837C218.799 77.4714 219.478 78.4963 220.26 79.4412L220.303 79.494M218.233 76.3837L220.303 79.494M220.303 79.494L220.364 79.5265M220.303 79.494L220.364 79.5265M220.364 79.5265C221.88 80.3413 222.419 82.1171 222.549 83.8076M220.364 79.5265L222.549 83.8076M222.549 83.8076C222.614 84.6397 222.576 85.4201 222.522 85.9938M222.549 83.8076L222.522 85.9938M222.522 85.9938C222.495 86.2801 222.464 86.5135 222.44 86.6745M222.522 85.9938L222.44 86.6745M222.44 86.6745C222.427 86.755 222.417 86.8173 222.41 86.859M222.44 86.6745L222.41 86.859M222.41 86.859L222.402 86.9057M222.41 86.859L222.402 86.9057M222.402 86.9057L222.4 86.9168M222.402 86.9057L222.4 86.9168M222.4 86.9168L222.399 86.9192M222.4 86.9168L222.399 86.9192" fill="white" stroke="#11181C" stroke-width="0.7"/>
<path d="M292.761 69.9355C299.62 83.9731 285.145 109.313 251.095 135.63C251.095 135.63 242.595 123.671 235.947 101.192C244.655 91.4768 253.943 82.298 263.761 73.7058C279.927 59.6093 289.9 64.0781 292.761 69.9355Z" fill="#FF7A00"/>
<path d="M301.901 62.883C328.427 68.5385 330.615 142.329 312.067 182.22C312.067 182.22 278.093 186.587 240.416 163.629C240.416 163.629 246.988 129.654 257.71 121.954C257.71 121.954 265.444 85.8583 276.679 72.5444C287.914 59.2306 295.707 61.5786 301.901 62.883Z" fill="#FFE3A5"/>
<path d="M295.337 18.5147C301.404 18.1528 305.225 23.2864 307.649 28.3949C317.647 49.4345 311.217 81.9785 313.54 83.5859C311.815 84.9749 309.899 86.1086 307.851 86.9523C307.405 87.1374 306.521 79.3023 306.521 79.3023C306.521 79.3023 304.358 88.1305 303.281 88.2567C300.227 88.7196 297.107 88.1258 294.436 86.5736C294.436 86.5736 296.237 77.0553 297.567 66.1988C299.082 53.8359 299.982 39.731 296.919 36.0028C294.201 32.7543 285.844 19.1206 295.337 18.5147Z" fill="#11181C"/>
<path d="M298.916 44.3243L301.532 62.7846C298.391 66.4339 294.448 67.0843 291.248 66.8106C289.629 66.6721 288.206 66.2966 287.187 65.955C286.678 65.7844 286.272 65.6227 285.993 65.5043C285.886 65.4584 285.797 65.419 285.73 65.3882L282.884 48.4231L298.916 44.3243Z" fill="white" stroke="#11181C" stroke-width="0.7"/>
<path d="M284.209 56.2884L284.211 56.2884C285.27 56.2884 286.582 55.9248 288 55.2917C289.412 54.6612 290.904 53.7749 292.318 52.7576C295.161 50.7121 297.622 48.1839 298.501 46.2042C298.64 45.8873 298.736 45.4174 298.795 44.8328C298.853 44.2542 298.872 43.5908 298.871 42.9033C298.869 42.2164 298.849 41.5125 298.828 40.8522L298.826 40.7731C298.807 40.1459 298.789 39.5576 298.791 39.074M284.209 56.2884L299.141 39.0746M284.209 56.2884C280.454 56.3083 278.224 53.6006 276.925 49.9146C275.628 46.2336 275.312 41.6967 275.337 38.345L274.987 38.3424M284.209 56.2884L290.683 26.1394M298.791 39.074C298.791 39.0737 298.791 39.0734 298.791 39.0731L299.141 39.0746M298.791 39.074C298.791 39.0742 298.791 39.0744 298.791 39.0746H299.141M298.791 39.074C298.79 32.0995 295.034 28.0543 290.566 26.4694M299.141 39.0746C299.141 31.9463 295.286 27.7721 290.683 26.1394M290.566 26.4694C290.566 26.4695 290.566 26.4695 290.567 26.4695L290.683 26.1394M290.566 26.4694C290.566 26.4694 290.566 26.4693 290.566 26.4693L290.683 26.1394M290.566 26.4694C290.126 26.3145 289.413 26.1973 288.536 26.1193C287.667 26.0421 286.665 26.0055 285.663 26.0013C283.651 25.9929 281.686 26.1155 280.831 26.2887C279.408 26.5835 278.376 27.1114 277.618 27.811C276.859 28.5111 276.354 29.4026 276.017 30.4579C275.381 32.4528 275.362 34.968 275.342 37.7596C275.341 37.9536 275.339 38.1488 275.337 38.3453L274.987 38.3424M290.683 26.1394C288.747 25.4577 282.545 25.584 280.761 25.9458C275.069 27.1249 275.033 31.9967 274.992 37.7371C274.991 37.9379 274.989 38.1397 274.987 38.3424M290.683 26.1394L284.211 56.6384C276.25 56.6805 274.937 45.0751 274.987 38.3424" fill="white" stroke="#11181C" stroke-width="0.7"/>
<path d="M281.207 46.0513C280.769 45.9251 278.581 45.2855 278.236 44.2419C278.183 44.0797 278.173 43.9062 278.209 43.7392C278.244 43.5722 278.323 43.4175 278.438 43.2909C279.507 41.7353 279.935 39.8271 279.633 37.9637C279.219 37.5346 278.689 37.2352 278.108 37.1022C277.526 36.9692 276.919 37.0083 276.359 37.2147L276.09 36.4152C276.828 36.1435 277.632 36.1026 278.394 36.298C279.156 36.4934 279.84 36.9158 280.357 37.5093L280.416 37.585V37.686C280.416 37.8291 281.114 41.2459 279.069 43.8127C278.993 43.9053 279.01 43.9474 279.019 43.981C279.162 44.4102 280.491 44.9825 281.4 45.235L281.207 46.0513Z" fill="#11181C"/>
<path d="M275.013 35.8261C273.978 33.68 274.836 25.7271 280.474 22.6805C287.392 18.9187 307.136 32.6196 297.92 35.8177C293.182 33.8736 279.869 36.4994 275.013 35.8261Z" fill="#11181C"/>
<path d="M295.396 39.6806C295.396 40.5128 295.642 41.3264 296.105 42.0184C296.567 42.7104 297.224 43.2497 297.993 43.5682C298.762 43.8867 299.608 43.97 300.424 43.8076C301.241 43.6453 301.99 43.2445 302.579 42.656C303.167 42.0675 303.568 41.3178 303.731 40.5015C303.893 39.6853 303.81 38.8392 303.491 38.0703C303.173 37.3014 302.633 36.6442 301.941 36.1818C301.249 35.7195 300.436 35.4727 299.603 35.4727C298.487 35.4727 297.417 35.916 296.628 36.7051C295.839 37.4943 295.396 38.5646 295.396 39.6806Z" fill="white"/>
<path d="M299.309 54.7028C299.309 52.3548 298.198 50.781 297.121 49.2493C296.088 48.0358 295.396 46.5688 295.118 44.9993C295.02 43.4093 295.252 41.8162 295.8 40.3201C296.313 38.637 296.835 36.8275 296.254 34.8162L295.413 35.0518C295.926 36.8275 295.455 38.4181 294.958 40.1013C294.366 41.715 294.125 43.4365 294.251 45.1508C294.538 46.8636 295.279 48.468 296.397 49.7964C297.449 51.2776 298.442 52.683 298.434 54.7449L299.309 54.7028ZM299.073 42.685C298.921 42.6961 298.767 42.6819 298.619 42.6429C298.466 42.6029 298.324 42.5312 298.201 42.4327C298.077 42.3341 297.976 42.2108 297.904 42.0706C297.777 41.849 297.734 41.5891 297.784 41.3387C297.833 41.0882 297.971 40.864 298.173 40.7073C298.314 40.5936 298.42 40.4426 298.48 40.2716C298.539 40.1005 298.55 39.9161 298.509 39.7394C298.418 39.3552 298.243 38.9959 297.996 38.6875C297.651 38.1993 297.155 37.4587 298.207 36.6929C299.654 35.6409 301.64 37.686 301.867 37.9216L301.245 38.5023C300.815 38.0394 299.418 36.8191 298.72 37.3746C298.324 37.6607 298.333 37.6691 298.72 38.2162C299.044 38.6247 299.269 39.103 299.376 39.6132C299.44 39.9171 299.423 40.2324 299.327 40.5278C299.231 40.8231 299.06 41.0881 298.829 41.2964C298.602 41.5404 298.602 41.5488 298.678 41.6919C298.698 41.729 298.726 41.7615 298.759 41.7876C298.792 41.8136 298.831 41.8326 298.871 41.8434C299.225 41.8613 299.576 41.767 299.873 41.5741L300.31 42.2978C299.933 42.5204 299.51 42.6529 299.073 42.685ZM287.485 39.2513C287.489 39.3102 287.489 39.3692 287.485 39.4281C287.461 39.7092 287.332 39.9711 287.124 40.1618C286.916 40.3526 286.644 40.4584 286.361 40.4584C286.079 40.4584 285.807 40.3526 285.599 40.1618C285.391 39.9711 285.262 39.7092 285.238 39.4281C285.239 39.1771 285.325 38.9338 285.482 38.7379C286.122 39.0015 286.797 39.1743 287.485 39.2513ZM278.674 39.2345C278.678 39.2933 278.678 39.3524 278.674 39.4112C278.674 39.5899 278.631 39.766 278.548 39.9248C278.466 40.0835 278.347 40.2202 278.202 40.3236C278.056 40.4269 277.887 40.4939 277.71 40.5188C277.533 40.5437 277.353 40.5259 277.184 40.4668C277.016 40.4077 276.864 40.3091 276.741 40.1792C276.618 40.0494 276.528 39.892 276.479 39.7202C276.429 39.5485 276.422 39.3674 276.457 39.1921C276.491 39.0168 276.568 38.8524 276.679 38.7127C277.316 38.9791 277.988 39.1547 278.674 39.2345ZM288.773 37.686C285.406 35.9271 284.413 37.3241 284.396 37.3409L283.681 36.8949C283.731 36.8107 285.011 34.7825 289.168 36.8949L288.773 37.686ZM279.271 49.2998C279.404 50.3319 279.926 51.2745 280.73 51.9355C281.533 52.5965 282.559 52.9262 283.597 52.8576C284.636 52.7889 285.609 52.327 286.319 51.5659C287.028 50.8049 287.421 49.8019 287.418 48.7612C287.409 48.2898 287.32 47.8232 287.157 47.381C284.594 48.2644 281.954 48.9068 279.271 49.2998Z" fill="#11181C"/>
<path d="M246.972 153.581C232.766 184.955 238.362 226.016 241.232 237.579C245.608 255.252 269.846 250.203 278.438 242.267C294.428 227.463 312.976 179.973 312.118 169.343C310.148 144.752 254.47 142.413 246.972 153.581Z" fill="#1150CB"/>
<path opacity="0.4" d="M258.468 158.845C269.902 193.131 262.509 221.706 265.059 232.995C268.965 250.249 286.556 252.328 294.204 244.563C308.45 230.111 305.893 183.395 305.136 173.026C303.419 148.986 251.57 138.124 258.468 158.845Z" fill="#11181C"/>
<path d="M215.758 51.6142C215.869 51.85 216.047 52.0481 216.269 52.1842C216.491 52.3204 216.749 52.3886 217.009 52.3805C217.27 52.3724 217.522 52.2883 217.736 52.1387C217.949 51.989 218.114 51.7802 218.211 51.538C218.307 51.2958 218.331 51.0306 218.279 50.7752C218.227 50.5198 218.101 50.2851 217.917 50.1001C217.733 49.9151 217.5 49.7878 217.245 49.7339C216.99 49.6799 216.724 49.7016 216.481 49.7964C216.145 49.9425 215.881 50.2157 215.745 50.5562C215.609 50.8967 215.614 51.277 215.758 51.6142Z" fill="white"/>
<path d="M216.919 50.1919C217.104 50.1991 217.284 50.2614 217.433 50.3709C217.583 50.4803 217.697 50.6319 217.761 50.8063C217.853 51.0386 217.853 51.2977 217.761 51.53C217.72 51.635 217.659 51.7307 217.581 51.8117C217.503 51.8926 217.41 51.9571 217.306 52.0013C217.217 52.0337 217.123 52.0507 217.028 52.0518C216.843 52.0457 216.663 51.9839 216.513 51.8743C216.363 51.7647 216.249 51.6125 216.187 51.4375C216.089 51.2196 216.082 50.9721 216.165 50.7485C216.248 50.5249 216.417 50.3432 216.633 50.2424C216.722 50.2101 216.816 50.193 216.911 50.1919H216.919ZM216.919 49.7122C216.772 49.7158 216.627 49.7442 216.49 49.7964C216.154 49.9425 215.889 50.2156 215.753 50.5562C215.618 50.8967 215.622 51.277 215.766 51.6142C215.869 51.8833 216.052 52.1148 216.289 52.2785C216.526 52.4422 216.807 52.5304 217.096 52.5315C217.243 52.5291 217.389 52.4976 217.525 52.4389C217.692 52.3683 217.843 52.2653 217.97 52.136C218.097 52.0066 218.197 51.8533 218.264 51.6851C218.331 51.5169 218.365 51.337 218.362 51.1558C218.359 50.9746 218.321 50.7958 218.249 50.6295C218.145 50.3605 217.963 50.1289 217.726 49.9652C217.488 49.8016 217.207 49.7134 216.919 49.7122Z" fill="#11181C"/>
<path d="M216.751 55.7212C216.862 55.9569 217.04 56.155 217.262 56.2912C217.484 56.4273 217.742 56.4955 218.002 56.4874C218.263 56.4793 218.515 56.3953 218.729 56.2456C218.942 56.0959 219.107 55.8872 219.204 55.6449C219.3 55.4027 219.324 55.1376 219.272 54.8821C219.22 54.6267 219.094 54.3921 218.91 54.2071C218.726 54.0221 218.493 53.8948 218.238 53.8408C217.983 53.7868 217.717 53.8086 217.474 53.9033C217.138 54.0495 216.874 54.3226 216.738 54.6631C216.602 55.0036 216.607 55.384 216.751 55.7212Z" fill="white"/>
<path d="M217.92 54.2989C218.106 54.305 218.286 54.3668 218.436 54.4764C218.586 54.586 218.7 54.7382 218.762 54.9132C218.81 55.0279 218.834 55.1509 218.834 55.2751C218.834 55.3993 218.81 55.5223 218.762 55.637C218.722 55.7419 218.661 55.8377 218.583 55.9186C218.504 55.9996 218.411 56.0641 218.308 56.1083C218.222 56.1419 218.13 56.159 218.038 56.1588C217.853 56.1515 217.674 56.0892 217.524 55.9798C217.374 55.8704 217.26 55.7188 217.197 55.5444C217.148 55.4362 217.12 55.3193 217.117 55.2005C217.113 55.0817 217.133 54.9633 217.175 54.8522C217.217 54.7411 217.281 54.6395 217.363 54.5532C217.445 54.4669 217.543 54.3976 217.651 54.3494C217.737 54.3157 217.828 54.2986 217.92 54.2989ZM217.92 53.8192C217.771 53.8219 217.623 53.8504 217.483 53.9033C217.148 54.0512 216.885 54.3244 216.75 54.6644C216.614 55.0043 216.618 55.3837 216.759 55.7211C216.863 55.9902 217.045 56.2217 217.282 56.3854C217.519 56.5491 217.801 56.6373 218.089 56.6385C218.238 56.6349 218.386 56.6065 218.526 56.5543C218.861 56.4066 219.124 56.1328 219.258 55.7925C219.392 55.4521 219.386 55.0726 219.242 54.7365C219.14 54.4681 218.959 54.2368 218.723 54.0731C218.487 53.9094 218.208 53.8208 217.92 53.8192Z" fill="#11181C"/>
<path d="M217.761 59.8281C217.872 60.0637 218.051 60.2616 218.274 60.3972C218.497 60.5328 218.754 60.6003 219.015 60.5914C219.276 60.5825 219.528 60.4975 219.741 60.347C219.954 60.1964 220.119 59.9869 220.214 59.7441C220.31 59.5013 220.332 59.2359 220.279 58.9805C220.226 58.7251 220.099 58.4908 219.914 58.3066C219.729 58.1223 219.495 57.9961 219.239 57.9435C218.984 57.8908 218.718 57.914 218.476 58.0102C218.309 58.0825 218.159 58.1869 218.033 58.3174C217.907 58.4479 217.808 58.602 217.741 58.7708C217.675 58.9397 217.642 59.1199 217.646 59.3014C217.649 59.4828 217.688 59.6617 217.761 59.8281Z" fill="white"/>
<path d="M218.922 58.4058C219.107 58.4141 219.286 58.4768 219.435 58.5861C219.585 58.6954 219.699 58.8464 219.763 59.0201C219.858 59.2393 219.864 59.4867 219.779 59.7099C219.694 59.933 219.525 60.1143 219.309 60.2152C219.223 60.2488 219.132 60.266 219.04 60.2657C218.855 60.2574 218.676 60.1946 218.526 60.0854C218.377 59.9761 218.263 59.8251 218.198 59.6513C218.104 59.4322 218.098 59.1847 218.183 58.9616C218.268 58.7384 218.436 58.5572 218.653 58.4563C218.738 58.4227 218.83 58.4055 218.922 58.4058ZM218.922 57.9261C218.772 57.9296 218.624 57.9581 218.484 58.0102C218.15 58.158 217.887 58.4317 217.753 58.7721C217.619 59.1125 217.625 59.4919 217.769 59.8281C217.871 60.0965 218.052 60.3277 218.287 60.4915C218.523 60.6552 218.803 60.7437 219.09 60.7454C219.24 60.7427 219.388 60.7142 219.528 60.6612C219.862 60.5135 220.125 60.2397 220.259 59.8994C220.393 59.559 220.387 59.1796 220.243 58.8434C220.141 58.575 219.961 58.3438 219.725 58.18C219.489 58.0163 219.209 57.9278 218.922 57.9261Z" fill="#11181C"/>
<path d="M221.649 70.028L215.169 74.1097C217.235 72.6067 219.4 71.2431 221.649 70.028ZM220.504 67.9998L212.484 72.2077C215.065 70.6357 217.744 69.2302 220.504 67.9998Z" fill="#11181C"/>
<path d="M269.675 158.443C269.575 210.393 269.299 221.235 272.181 233.069C276.535 251.155 296.136 253.333 304.659 245.203C320.534 230.054 317.685 181.085 316.841 170.208C314.222 152.932 269.675 135.354 269.675 158.443Z" fill="#1150CB"/>
<path d="M253.822 179.602C257.693 180.595 265.537 163.831 266.925 153.959C267.422 150.399 270.098 127.374 271.562 120.868C273.027 114.363 281.4 72.8137 286.071 64.0192C282.284 65.231 280.963 66.3924 275.972 72.2835C264.746 85.5974 262.616 107.428 254.933 119.665C247.99 130.858 234.028 179.863 234.028 179.863C242.116 178.971 248.84 178.247 253.822 179.602Z" fill="#FF7A00"/>
<path d="M300.756 63.7246C300.756 63.7246 291.499 69.6157 287.291 84.3434C283.548 97.4468 280.037 112.545 280.971 143.986C281.863 173.871 267.211 181.016 266.925 181.328C286.096 192.681 320.121 183.936 320.121 183.936C331.617 141.521 334.84 70.0365 300.756 63.7246Z" fill="#FF7A00"/>
<path d="M241.873 61.501C243.104 65.7813 244.807 69.9114 246.951 73.8153L246.973 73.8553L247.004 73.8883C248.19 75.1331 253.597 80.8173 259.358 87.217C265.128 93.6258 271.227 100.723 273.817 104.805C275.904 108.095 276.329 111.061 275.742 113.524C275.154 115.994 273.539 118.005 271.464 119.36C267.284 122.091 261.417 122.08 258.508 118.03C254.02 111.768 250.348 103.266 247.097 95.4338C246.81 94.7424 246.526 94.0561 246.246 93.377C244.939 90.2177 243.699 87.2164 242.499 84.5868C241.043 81.3973 239.635 78.7224 238.223 76.9625L238.19 76.9221L238.148 76.8929C237.355 76.3489 235.767 75.1555 234.632 73.5955C233.508 72.0511 232.87 70.2161 233.771 68.2977C233.819 68.2386 233.843 68.1775 233.854 68.1396C233.863 68.1065 233.868 68.0775 233.87 68.0565C233.872 68.0457 233.872 68.0361 233.873 68.0281L233.873 68.0171L233.873 68.0124L233.873 68.0103L233.873 68.0092L233.873 68.0087V68.0085C233.873 68.0084 233.873 68.0082 233.523 68.0082L241.873 61.501Z" fill="white" stroke="#11181C" stroke-width="0.7"/>
<path d="M223.004 63.0598L232.673 61.7974C232.673 61.7974 226.302 61.7385 223.004 63.0598ZM221.834 59.9964L232.909 57.4717C232.909 57.4717 225.015 58.3638 221.834 59.9964ZM296.456 160.33C294.146 160.086 291.892 159.467 289.782 158.495L290.161 157.763C296.717 161.197 314.255 159.775 314.432 159.758L314.508 160.599C313.961 160.625 304.182 161.424 296.456 160.33Z" fill="#11181C"/>
<path d="M321.223 83.6281C324.985 98.7766 306.201 112.351 267.809 131.708C267.809 131.708 263.719 115.844 270.157 87.0365C270.157 87.0365 270.79 86.9583 272.564 86.2531C275.211 85.2005 280.4 82.7511 289.816 77.0803C290.771 76.5054 291.769 75.8974 292.812 75.2543C296.767 72.8165 300.242 71.4232 303.281 70.8242C314.248 68.6629 319.536 76.8472 321.223 83.6281Z" fill="#FF7A00"/>
<path d="M268.284 131.893L267.935 131.186C300.368 116.165 316.248 104.293 321.032 91.4968L321.796 91.7619C316.929 104.735 300.933 116.735 268.284 131.893Z" fill="#11181C"/>
<path d="M253.628 118.428C252.366 123.056 250.346 128.947 249 132.314" stroke="#11181C" stroke-width="0.7"/>
<path d="M297.811 75.0859C295.847 75.647 291.415 76.9374 289.395 77.6107" stroke="#11181C" stroke-width="0.7"/>
</svg>
