<svg width="422" height="288" viewBox="0 0 422 288" fill="none" xmlns="http://www.w3.org/2000/svg">
<path d="M-11.3191 260.696L-11.2861 260.035L-11.3231 259.375C-12.7624 233.671 -11.3515 209.739 -5.53968 186.132L-5.46792 185.84L-5.41024 185.546C0.281599 156.479 13.7639 127.521 30.5992 105.636C31.1305 104.992 31.6392 104.372 32.1294 103.774C34.7154 100.623 36.7886 98.0968 38.967 95.9375C41.5299 93.3972 43.1267 92.542 44.034 92.2748C46.1618 91.6587 48.1698 91.5008 49.5879 91.6839C49.5875 92.5645 49.5394 93.6128 49.4348 94.7904C47.9882 104.996 44.5664 115.954 40.47 128.079C39.8979 129.772 39.3115 131.491 38.7176 133.232C35.1569 143.67 31.331 154.885 28.7525 165.953L28.7064 166.151L28.6667 166.351C28.4506 167.437 28.1451 168.789 27.7997 170.318C26.8087 174.704 25.4892 180.545 25.0079 185.739C24.3052 193.323 24.852 203.006 31.2053 211.595L31.3618 211.806L31.5271 212.011C34.6589 215.892 38.8002 218.986 44.0052 220.185C49.1218 221.363 53.7409 220.357 57.2515 218.912C63.3932 216.383 68.5585 211.407 71.3016 208.764C71.3901 208.679 71.476 208.596 71.5595 208.515L71.8796 208.207L72.177 207.877C86.4855 192.006 95.6418 172.133 103.744 154.547C105.722 150.255 107.637 146.099 109.548 142.171L109.57 142.126L109.592 142.08C110.376 140.435 111.155 138.796 111.93 137.165C121.114 117.843 129.819 99.5267 141.325 82.9912C154.145 65.0231 168.166 48.7207 184.381 42.9483C193.846 40.0798 199.042 40.5689 204.072 44.4898L204.437 44.7737L204.821 45.0299C207.328 46.7024 208.76 48.3782 209.747 50.27C210.811 52.3107 211.693 55.2543 212.128 59.8884L212.167 60.3039L212.234 60.7158C212.721 63.7231 212.457 67.4359 211.367 72.3237C210.475 76.3259 209.222 80.3641 207.779 85.0142C207.417 86.1826 207.042 87.3895 206.658 88.6443L206.651 88.6677L206.644 88.6911C205.727 91.7308 204.654 94.9826 203.527 98.3973C199.86 109.509 195.623 122.345 194.355 135.216C193.701 141.555 194.164 150.432 200.222 156.915C207.368 164.561 217.349 164.132 225.137 161.401L225.802 161.167L226.437 160.861C232.763 157.804 238.166 153.816 242.825 150.011C245.026 148.213 247.169 146.364 249.163 144.645L249.509 144.346C251.649 142.501 253.625 140.804 255.604 139.207L255.623 139.192L255.642 139.177C257.102 137.99 258.723 136.651 260.479 135.202C270.264 127.124 284.228 115.596 297.749 107.62C305.859 102.836 312.336 100.252 316.701 99.7663C318.698 99.5439 319.481 99.8549 319.602 99.9104C319.654 99.9345 319.701 99.9602 319.785 100.044C319.868 100.127 320.066 100.347 320.324 100.811C320.93 102.295 321.354 105.045 321.018 109.545C320.677 114.109 319.698 118.987 318.659 124.079C318.659 124.079 318.659 124.08 318.659 124.08L318.627 124.233L318.609 124.322L318.592 124.412C317.835 128.417 316.95 132.456 316.016 136.708L315.977 136.888C315.068 141.026 314.114 145.369 313.28 149.753C311.587 158.649 310.271 168.27 310.697 178.308L310.711 178.635L310.742 178.961C311.388 185.762 313.348 193.476 317.336 200.293C321.391 207.225 327.915 213.768 337.547 216.437L337.898 216.534L338.253 216.611C350.317 219.209 362.438 217.153 372.285 214.208L372.688 214.088L373.082 213.94C387.271 208.632 398.765 199.046 408.177 190.901L408.199 190.881L408.222 190.861C422.816 178.107 435.055 163.37 446.289 148.923C460.534 130.605 473.97 111.052 484.937 89.996C485.41 89.3409 486.871 87.1978 487.344 84.1505C488.029 79.7404 486.408 75.9153 484.162 73.3633C482.372 71.3302 480.327 70.2272 479.243 69.6952L473.859 80.6575L479.243 69.6952C473.979 67.1095 468.904 68.4328 465.764 70.3338C463.134 71.9257 461.526 74.0255 460.781 75.0822C459.909 76.32 459.292 77.4926 458.925 78.244C458.785 78.5304 458.665 78.7901 458.565 79.0133C449.028 96.9403 435.278 116.872 423.793 131.518L423.783 131.532L423.772 131.545C413.116 145.214 402.451 157.98 390.195 168.795C379.991 177.702 371.747 184.31 362.37 187.399C358.497 188.282 354.527 189.003 350.953 189.156C347.116 189.32 345.22 188.753 344.557 188.401C343.751 187.886 342.332 186.443 341.067 183.411C339.824 180.434 339.168 176.917 339.187 173.804C339.549 163.092 341.535 153.872 343.929 142.755C344.67 139.313 345.451 135.689 346.234 131.782L346.255 131.678L346.274 131.573C346.497 130.354 346.776 128.966 347.08 127.457C348.093 122.423 349.377 116.04 349.752 110.074C350.271 101.834 349.348 92.0012 343.168 83.0168L342.91 82.6423L342.626 82.2875C333.043 70.3206 319.154 69.6262 307.621 72.4739C296.352 75.2563 284.54 81.8761 273.94 88.9917C263.13 96.2491 252.548 104.739 243.667 112.14C240.256 114.982 237.184 117.586 234.445 119.907C230.395 123.34 227.074 126.155 224.465 128.209C225.273 124.727 226.311 121.025 227.513 117.103C228.619 113.496 229.816 109.847 231.051 106.08L231.124 105.859C232.37 102.058 233.657 98.1319 234.835 94.2521L234.84 94.2346L234.846 94.2171C235.111 93.3341 235.395 92.411 235.691 91.4512C238.63 81.9073 242.688 68.7272 240.459 55.1906C239.695 47.0422 237.376 39.6458 232.988 33.1143C228.536 26.4859 222.474 21.5234 215.469 17.5695L215.414 17.538L215.357 17.5071C201.052 9.6247 185.01 12.4746 173.856 16.3675L173.58 16.4638L173.31 16.5728C147.909 26.7929 130.681 48.9071 117.52 67.3739L117.463 67.4535L117.408 67.534C103.924 87.0941 93.8115 108.689 84.2563 129.095C82.7819 132.244 81.3207 135.364 79.8624 138.444C77.9758 142.283 76.2378 145.971 74.545 149.563C71.5031 156.018 68.6068 162.165 65.2552 168.319C61.6883 174.869 57.9966 180.635 53.8792 185.482C54.234 183.139 54.7654 180.721 55.3586 178.022C55.7133 176.408 56.09 174.693 56.4642 172.834C58.9072 162.644 62.2766 152.665 65.8587 142.055C66.1121 141.304 66.3665 140.551 66.6217 139.794C70.4386 128.473 74.4144 116.439 77.0191 103.868L77.1055 103.452L77.1633 103.03C77.2163 102.643 77.2783 102.213 77.3456 101.747C77.7445 98.9821 78.3276 94.9414 78.3121 91.023C78.2929 86.1796 77.4198 80.007 73.464 74.268L73.1031 73.7443L72.6909 73.26C66.847 66.3942 58.8953 63.6214 51.791 63.0435C44.7627 62.4718 37.7095 63.9262 31.8894 66.4733L31.7814 66.5206L31.6742 66.5699C23.1444 70.4964 17.1804 77.2363 13.0886 82.1513C7.94454 88.2484 2.91275 94.7308 -1.6118 101.744L-1.70487 101.888L-1.79394 102.035C-13.1008 120.666 -23.3243 140.924 -29.3395 162.971L-29.3644 163.062L-29.3879 163.154C-35.0402 185.178 -40.0312 208.547 -40.4592 232.597L-40.4592 232.597C-40.6022 240.651 -40.34 248.727 -40.0898 256.431C-40.0467 257.758 -40.0039 259.075 -39.9637 260.378C-39.9456 265.75 -36.744 271.673 -30.3609 273.748C-25.2384 275.499 -20.4235 273.971 -17.3428 271.738C-14.2349 269.485 -11.5645 265.619 -11.3191 260.696ZM50.8252 92.0176C50.8235 92.0188 50.8052 92.0088 50.7753 91.9838C50.812 92.0038 50.827 92.0163 50.8252 92.0176Z" stroke="#D8EEFF" stroke-width="25"/>
</svg>
