<svg width="481" height="386" viewBox="0 0 481 386" fill="none" xmlns="http://www.w3.org/2000/svg">
<path d="M41.0802 358.973L41.1132 358.312L41.0762 357.651C39.8502 335.765 41.0554 315.451 45.9825 295.446L46.0543 295.154L46.112 294.859C50.9325 270.252 62.3589 245.714 76.6095 227.187C77.0678 226.631 77.5041 226.1 77.9224 225.591C80.136 222.895 81.8436 220.815 83.6392 219.036C85.7393 216.955 86.8549 216.455 87.2238 216.345C88.0922 216.094 88.9113 215.95 89.6262 215.887C89.6109 216.111 89.593 216.339 89.5726 216.573C88.3554 225.117 85.4797 234.344 81.9745 244.716C81.4875 246.157 80.987 247.623 80.4793 249.11C77.4298 258.045 74.1181 267.749 71.8865 277.324L71.8404 277.522L71.8007 277.722C71.6307 278.576 71.3823 279.675 71.0965 280.939C70.2454 284.704 69.0633 289.933 68.6387 294.514C68.0178 301.212 68.4732 310.029 74.2934 317.894L74.45 318.106L74.6153 318.311C77.4909 321.872 81.3645 324.796 86.2978 325.931C91.1424 327.047 95.4867 326.086 98.7282 324.752C104.315 322.453 108.956 317.979 111.289 315.731C111.378 315.645 111.464 315.562 111.547 315.482L111.867 315.174L112.165 314.844C124.629 301.024 132.622 283.675 139.567 268.599C141.245 264.955 142.863 261.444 144.467 258.148L144.49 258.103L144.512 258.057C145.18 256.654 145.844 255.259 146.504 253.871C154.386 237.295 161.782 221.74 171.549 207.706C182.539 192.31 194.254 178.824 207.539 174.078C215.37 171.711 219.114 172.272 222.755 175.109L223.119 175.393L223.503 175.649C225.427 176.932 226.437 178.148 227.13 179.476C227.9 180.952 228.615 183.227 228.975 187.052L229.014 187.467L229.08 187.879C229.446 190.136 229.268 193.063 228.358 197.143C227.611 200.493 226.564 203.865 225.331 207.838C225.018 208.846 224.694 209.893 224.358 210.988L224.351 211.012L224.344 211.035C223.585 213.552 222.685 216.277 221.732 219.161C218.581 228.701 214.855 239.98 213.747 251.226C213.169 256.823 213.521 265.09 219.248 271.216C226.064 278.506 235.496 277.979 242.493 275.525L243.159 275.292L243.793 274.986C249.397 272.279 254.152 268.763 258.189 265.467C260.094 263.912 261.947 262.314 263.651 260.845L263.953 260.584C265.788 259.002 267.46 257.567 269.13 256.22L269.149 256.205L269.168 256.19C270.435 255.16 271.837 254.003 273.35 252.755C281.743 245.829 293.578 236.065 305.028 229.313C311.922 225.248 317.204 223.196 320.557 222.823C321.193 222.752 321.616 222.759 321.872 222.781C322.212 223.736 322.54 225.737 322.275 229.282C321.993 233.059 321.179 237.125 320.284 241.506L320.258 241.637L320.24 241.726L320.223 241.816C319.579 245.217 318.827 248.651 318.026 252.297L317.989 252.465C317.212 256.001 316.39 259.741 315.671 263.52C314.21 271.198 313.055 279.593 313.428 288.391L313.442 288.718L313.473 289.044C314.045 295.064 315.782 301.938 319.361 308.053C323.007 314.283 328.935 320.262 337.746 322.702L338.096 322.799L338.452 322.876C349.204 325.19 359.923 323.347 368.499 320.783L368.902 320.662L369.296 320.515C381.788 315.844 391.854 307.428 399.911 300.458L399.934 300.438L399.956 300.419C412.595 289.378 423.166 276.644 432.81 264.247C445.032 248.537 456.589 231.734 466.041 213.616C466.56 212.884 467.898 210.823 468.345 207.941C469.026 203.556 467.412 199.759 465.192 197.238C463.429 195.237 461.431 194.168 460.423 193.673L454.914 204.893L460.423 193.673C455.235 191.126 450.234 192.435 447.161 194.295C444.598 195.846 443.049 197.878 442.355 198.863C441.534 200.029 440.957 201.124 440.619 201.817C440.501 202.058 440.398 202.279 440.311 202.474C432.203 217.696 420.502 234.654 410.717 247.129L410.706 247.142L410.695 247.156C401.581 258.842 392.527 269.667 382.156 278.816C373.42 286.439 366.623 291.844 359.013 294.371C355.761 295.11 352.512 295.691 349.633 295.815C348.15 295.878 346.998 295.808 346.155 295.666C345.557 295.565 345.24 295.45 345.122 295.4C344.774 295.143 343.821 294.227 342.889 291.994C341.923 289.681 341.405 286.919 341.417 284.491C341.723 275.502 343.38 267.808 345.419 258.339C346.059 255.371 346.736 252.228 347.42 248.817L347.441 248.712L347.46 248.608C347.641 247.618 347.872 246.47 348.127 245.207C348.996 240.889 350.136 235.23 350.466 229.982C350.924 222.713 350.123 213.831 344.512 205.676L344.254 205.301L343.97 204.946C335.144 193.929 322.381 193.397 312.152 195.922C302.186 198.382 291.855 204.194 282.725 210.321C273.384 216.59 264.26 223.909 256.637 230.26C253.668 232.733 251.015 234.981 248.662 236.974C247.125 238.277 245.716 239.471 244.431 240.548C244.808 239.209 245.215 237.832 245.649 236.417C246.591 233.344 247.612 230.233 248.673 227L248.732 226.819C249.8 223.566 250.908 220.185 251.924 216.84L251.93 216.822L251.935 216.805C252.16 216.055 252.404 215.264 252.66 214.437C255.164 206.323 258.767 194.651 256.807 182.63C256.123 175.432 254.058 168.818 250.114 162.949C246.104 156.98 240.672 152.557 234.497 149.073L234.441 149.041L234.385 149.01C221.458 141.891 207.098 144.52 197.374 147.912L197.098 148.009L196.827 148.118C174.529 157.086 159.506 176.443 148.234 192.252L148.178 192.332L148.122 192.412C136.476 209.299 127.743 227.946 119.56 245.416C118.301 248.105 117.054 250.766 115.812 253.389C114.169 256.732 112.669 259.912 111.217 262.995C108.628 268.487 106.186 273.668 103.336 278.899C101.749 281.813 100.142 284.525 98.48 287.025C98.6947 286.047 98.917 285.022 99.1207 284.016C101.194 275.38 104.053 266.914 107.125 257.817C107.34 257.181 107.556 256.542 107.773 255.899C111.041 246.208 114.482 235.805 116.738 224.919L116.825 224.502L116.883 224.08C116.926 223.766 116.977 223.41 117.034 223.021C117.374 220.666 117.898 217.048 117.884 213.544C117.866 209.195 117.083 203.503 113.412 198.181L113.051 197.657L112.639 197.173C107.246 190.839 99.9384 188.321 93.5143 187.798C87.1658 187.282 80.8276 188.594 75.601 190.88L75.4929 190.927L75.3858 190.977C67.685 194.52 62.3566 200.573 58.8374 204.799C54.4 210.056 50.0389 215.671 46.1086 221.761L46.0155 221.905L45.9264 222.052C36.1921 238.085 27.3415 255.597 22.1264 274.705L22.1015 274.796L22.0779 274.888C17.2256 293.788 12.9058 313.968 12.5353 334.783L12.5353 334.783C12.4118 341.732 12.6383 348.701 12.8527 355.298C12.8896 356.432 12.9261 357.555 12.9604 358.665C13.0006 363.933 16.1462 369.727 22.4163 371.765C27.4492 373.48 32.1701 371.975 35.1801 369.794C38.2173 367.593 40.839 363.809 41.0802 358.973ZM91.7354 215.993C91.7353 215.993 91.7304 215.991 91.7214 215.988C91.7311 215.991 91.7356 215.993 91.7354 215.993Z" stroke="#D8EEFF" stroke-width="25"/>
<g clip-path="url(#clip0_5001_2072)">
<path d="M178.639 275.421H248.753C248.753 275.421 256.172 288.752 258.936 302.848C261.699 316.944 263.009 340.046 263.009 340.046H218.205L214.714 312.851L209.117 340.046H163.248L178.639 275.421Z" fill="#1150CB"/>
<path d="M274.725 230.586C273 224.087 270.051 214.498 265.036 203.456C260.523 193.521 258.267 188.554 254.976 185.814C245.567 177.98 236.368 185.073 207.87 186.008C186.611 186.705 180.189 182.908 172.827 189.322C168.272 193.29 166.275 199.118 162.257 210.767C158.462 221.769 156.487 231.273 155.396 237.922C162.505 239.853 169.612 241.783 176.721 243.713C176.576 250.316 176.43 256.918 176.284 263.521C174.761 275.325 173.238 287.129 171.715 298.933C201.169 299.908 230.643 298.948 259.983 296.057C257.141 276.66 254.296 257.262 251.454 237.865C259.211 235.439 266.969 233.013 274.726 230.587L274.725 230.586Z" fill="#FF7A00"/>
<path d="M148.362 202.258L131.672 209.189C132.021 218.495 134.701 281.304 151.144 289.313C154.534 290.964 157.656 290.577 157.656 290.577C169.787 289.071 175.319 265.494 175.947 262.703C176.164 256.627 176.379 250.552 176.596 244.475C170.383 242.815 164.171 241.155 157.959 239.495C154.76 227.083 151.561 214.671 148.363 202.26L148.362 202.258Z" fill="white"/>
<path d="M156.777 291.102C155.568 291.102 153.333 290.912 150.95 289.751C135.393 282.175 131.889 227.293 131.212 209.207C131.204 209.001 131.322 208.813 131.504 208.736L148.193 201.806C148.451 201.701 148.735 201.851 148.808 202.13L158.333 239.093L176.709 244.002C176.92 244.058 177.064 244.261 177.056 244.49L176.395 262.811C173.979 273.58 167.341 291.101 156.777 291.101V291.102ZM132.147 209.512C132.64 222.238 135.758 281.284 151.338 288.871C154.562 290.441 157.573 290.098 157.603 290.093C169.257 288.647 174.838 265.507 175.488 262.635L176.121 244.847L157.845 239.964C157.684 239.921 157.557 239.79 157.513 239.621L148.053 202.908L132.147 209.512Z" fill="#11181C"/>
<path d="M285.076 199.05C280.742 210.111 276.408 221.173 272.074 232.234C265.159 234.364 258.242 236.494 251.327 238.625C252.407 245.627 253.487 252.628 254.567 259.63C254.876 261.403 256.915 272.233 264.859 275.567C268.657 276.652 271.772 276.528 274.316 275.859C289.705 271.813 299.426 243.827 299.315 206.515C294.569 204.026 289.823 201.538 285.076 199.049V199.05Z" fill="white"/>
<path d="M264.738 276.036C264.721 276.031 264.704 276.025 264.687 276.019C256.948 272.77 254.637 262.721 254.112 259.719L250.87 238.703C250.833 238.462 250.973 238.229 251.196 238.16L271.73 231.835L284.649 198.866C284.754 198.601 285.046 198.492 285.281 198.616L299.518 206.082C299.674 206.165 299.773 206.331 299.773 206.515C299.828 225 297.506 241.362 293.057 253.834C287.886 268.331 278.913 280.086 264.735 276.036H264.738ZM265.005 275.107C278.65 278.986 287.21 267.469 292.196 253.493C296.582 241.197 298.883 225.063 298.854 206.817L285.314 199.717L272.5 232.419C272.447 232.555 272.337 232.658 272.203 232.699L251.847 238.969L255.022 259.552C255.523 262.417 257.725 272.03 265.005 275.106V275.107Z" fill="#11181C"/>
<path d="M204.128 186.915C204.314 191.027 206.782 194.638 210.387 196.077C214.324 197.648 218.761 196.288 220.771 193.64C222.883 190.857 223.129 185.583 223.129 185.583C223.176 185.583 214.731 187.328 204.128 186.915Z" fill="white"/>
<path d="M213.884 197.2C208.097 197.2 203.917 192.474 203.668 186.938C203.655 186.651 203.88 186.417 204.145 186.43C210.473 186.677 216.809 186.234 223.05 185.106C223.338 185.052 223.604 185.295 223.59 185.607C223.579 185.829 223.312 191.072 221.132 193.943C219.423 196.195 216.586 197.2 213.885 197.2H213.884ZM204.626 187.418C204.979 191.125 207.261 194.31 210.55 195.624C214.453 197.18 218.628 195.685 220.41 193.338C221.994 191.251 222.484 187.602 222.62 186.165C216.872 187.164 210.856 187.624 204.625 187.418H204.626Z" fill="#11181C"/>
<path d="M214.16 171.445L213.675 171.438C210.827 171.398 208.487 173.792 208.448 176.786L208.314 187.163C208.275 190.157 210.552 192.617 213.401 192.658L213.885 192.665C216.733 192.706 219.074 190.311 219.112 187.317L219.247 176.941C219.285 173.946 217.008 171.486 214.16 171.445Z" fill="white"/>
<path d="M213.962 193.145L213.399 193.138C210.302 193.093 207.815 190.408 207.858 187.151L207.991 176.775C208.032 173.607 210.487 170.919 213.687 170.949L214.172 170.956C217.277 171 219.755 173.678 219.714 176.943L219.58 187.321C219.538 190.56 217.031 193.148 213.964 193.148L213.962 193.145ZM213.607 171.918C211.047 171.918 208.948 174.077 208.913 176.788L208.779 187.164C208.745 189.886 210.822 192.131 213.411 192.168L213.895 192.175C216.414 192.229 218.618 190.095 218.655 187.306L218.789 176.929C218.825 174.201 216.752 171.963 214.157 171.925L213.607 171.918Z" fill="#11181C"/>
<path d="M227.167 169.075C226.475 167.774 224.689 167.431 223.109 168.26C222.816 160.862 214.975 157.252 209.267 160.441C206.293 162.102 204.889 164.597 204.806 167.89C203.3 167.158 201.633 167.479 200.941 168.701C200.188 170.031 200.872 171.92 202.47 172.922C203.566 173.608 204.805 173.698 205.719 173.259C207.254 177.621 210.5 181.401 213.882 181.448C217.265 181.495 220.673 177.809 222.237 173.475C223.142 173.961 224.402 173.914 225.53 173.25C227.154 172.296 227.886 170.427 227.167 169.075Z" fill="white"/>
<path d="M213.948 181.933C210.088 181.933 206.896 177.639 205.453 173.875C203.492 174.449 201.134 173.151 200.393 171.107C199.444 168.488 201.659 166.356 204.382 167.202C204.648 163.922 206.286 161.556 209.051 160.011C214.805 156.797 222.802 160.208 223.524 167.556C225.162 166.99 226.856 167.492 227.572 168.837C229.026 171.569 225.588 175.151 222.495 174.106C220.921 178.081 217.572 181.931 213.949 181.931L213.948 181.933ZM206.153 173.089C207.769 177.683 210.951 180.92 213.889 180.961C216.862 180.998 220.19 177.782 221.807 173.301C221.906 173.027 222.207 172.912 222.447 173.042C223.918 173.829 226.128 172.842 226.801 171.126C227.646 168.971 225.481 167.558 223.314 168.694C223.016 168.851 222.662 168.631 222.648 168.28C222.557 165.938 221.62 163.9 220.227 162.446C217.529 159.632 212.91 158.954 209.483 160.869C206.647 162.452 205.346 164.798 205.266 167.902C205.258 168.248 204.914 168.476 204.611 168.329C203.304 167.692 201.896 167.96 201.337 168.948C200.662 170.139 201.461 171.725 202.706 172.503C203.635 173.085 204.717 173.205 205.527 172.815C205.771 172.699 206.059 172.823 206.151 173.088L206.153 173.089Z" fill="#11181C"/>
<path d="M212.115 181.089C212.115 181.089 214.71 184.111 219.173 183.008L219.226 178.899C219.226 178.899 215.819 182.222 212.116 181.089H212.115ZM202.367 167.665C203.19 167.57 203.638 167.781 203.897 168.005C204.296 168.353 205.075 169.494 205.138 169.526C206.165 170.047 210.944 161.475 210.944 161.475C210.944 161.475 212.474 164.253 215.395 161.816C218.315 159.379 218.06 162.108 218.13 164.642C218.199 167.176 220.448 166.932 220.448 166.932C220.448 166.932 221.236 169.929 222.071 169.954C222.906 169.978 223.965 167.928 223.965 167.928L225.227 167.829V164.25C225.227 164.25 227.124 160.741 226.614 158.695C226.104 156.648 223.392 155.575 221.885 156.161C220.379 156.745 221.087 154.528 219.227 152.31C217.366 150.092 212.73 148.996 209.786 152.31C209.786 152.31 203.945 151.847 202.322 154.674C200.999 156.979 202.619 157.972 202.421 159.092C202.351 159.489 202.111 159.676 201.952 159.889C201.475 160.527 201.143 161.77 201.905 164.445C202.06 165.517 202.215 166.59 202.369 167.662L202.367 167.665Z" fill="#11181C"/>
<path d="M176.595 244.473L177.238 236.675C170.203 234.872 163.168 233.068 156.133 231.265C156.741 234.008 157.348 236.75 157.956 239.493L176.594 244.472L176.595 244.473Z" fill="white"/>
<path d="M176.596 244.958L157.846 239.964C157.678 239.919 157.549 239.781 157.51 239.604L155.687 231.377C155.609 231.027 155.908 230.71 156.245 230.796L177.35 236.206C177.572 236.263 177.721 236.481 177.701 236.719L177.057 244.516C177.037 244.767 176.837 244.958 176.598 244.958H176.596ZM158.344 239.096L176.183 243.862L176.746 237.047L156.755 231.923L158.345 239.096H158.344Z" fill="#11181C"/>
<path d="M251.327 238.625L250.395 231.267C257.804 228.899 265.213 226.533 272.622 224.165C272.982 225.472 273.342 226.779 273.7 228.086L272.074 232.235L251.327 238.626V238.625Z" fill="white"/>
<path d="M251.327 239.109C251.097 239.109 250.9 238.931 250.87 238.689L249.937 231.332C249.907 231.096 250.045 230.872 250.26 230.803L272.487 223.7C272.73 223.62 272.993 223.769 273.065 224.029L274.143 227.95C274.205 228.179 274.264 227.918 272.501 232.418C272.448 232.554 272.338 232.657 272.204 232.698L251.327 239.108V239.109ZM250.904 231.612L251.713 238L271.731 231.833L273.211 228.057L272.307 224.771L250.903 231.61L250.904 231.612ZM164.539 267.093C164.403 255.703 157.607 239.853 157.539 239.694C157.434 239.45 157.535 239.163 157.768 239.052C157.999 238.941 158.273 239.049 158.379 239.294C158.449 239.454 165.325 255.49 165.463 267.082C165.467 267.35 165.262 267.569 165.007 267.573C164.876 267.574 164.545 267.471 164.54 267.094L164.539 267.093Z" fill="#11181C"/>
<path d="M261.151 252.805C260.848 252.805 260.626 252.502 260.705 252.194C264.04 239.142 271.692 231.941 271.769 231.871C271.961 231.694 272.253 231.714 272.42 231.915C272.588 232.116 272.57 232.422 272.378 232.599C272.303 232.668 264.854 239.691 261.595 252.446C261.54 252.664 261.353 252.805 261.15 252.805H261.151Z" fill="#11181C"/>
<path d="M171.978 296.673L259.379 293.552L260.104 299.317L170.676 301.656L171.978 296.673Z" fill="white"/>
<path d="M170.676 302.141C170.372 302.141 170.151 301.837 170.231 301.528L171.533 296.543C171.586 296.338 171.76 296.194 171.962 296.187L259.362 293.066C259.598 293.056 259.805 293.239 259.835 293.487L260.561 299.252C260.596 299.537 260.39 299.794 260.114 299.8L170.675 302.139L170.676 302.141ZM172.333 297.146L171.286 301.156L259.58 298.846L258.977 294.052L172.333 297.145V297.146Z" fill="#11181C"/>
<path d="M150.116 209.065L148.362 202.258C148.362 202.258 146.845 192.256 142.881 191.524C138.917 190.793 119.203 193.352 116.804 193.352C114.405 193.352 107.556 189.915 106.86 191.962C106.165 194.009 116.283 202.782 119.308 204.244C122.333 205.706 130.991 204.172 130.991 204.172L131.935 214.989L150.116 209.066V209.065Z" fill="white"/>
<path d="M131.935 215.473C131.7 215.473 131.498 215.284 131.476 215.033L130.577 204.732C128.668 205.037 121.843 206.004 119.115 204.686C116.532 203.437 105.538 194.413 106.425 191.8C107.34 189.108 114.261 192.867 116.804 192.867C119.347 192.867 138.878 190.294 142.961 191.047C147.135 191.817 148.704 201.458 148.813 202.156L150.561 208.939C150.628 209.197 150.483 209.464 150.237 209.534C149.99 209.605 149.738 209.452 149.671 209.194L147.906 202.336C147.498 199.648 145.785 192.553 142.802 192.002C138.929 191.288 119.217 193.837 116.804 193.837C115.862 193.837 114.366 193.371 112.783 192.878C110.84 192.273 107.589 191.259 107.295 192.126C106.838 193.47 115.736 201.984 119.5 203.803C122.362 205.186 130.828 203.707 130.914 203.693C131.173 203.644 131.424 203.843 131.45 204.127L132.396 214.944C132.421 215.229 132.208 215.474 131.935 215.474V215.473Z" fill="#11181C"/>
<path d="M281.347 208.542C282.144 205.5 282.942 202.457 283.74 199.415C285.027 194.89 287.045 192.987 288.525 192.075C294.485 188.403 300.571 195.363 313.192 194.34C319.085 193.862 322.208 191.881 322.636 193.228C323.257 195.181 313.511 203.284 310.619 204.607C307.726 205.929 299.554 204.299 299.554 204.299C299.444 207.301 299.335 210.302 299.225 213.304L281.347 208.544V208.542Z" fill="white"/>
<path d="M299.225 213.788C298.963 213.788 298.754 213.56 298.764 213.284L299.093 204.279C299.103 203.984 299.362 203.767 299.639 203.821C299.72 203.837 307.706 205.411 310.433 204.161C311.837 203.519 314.937 201.207 317.645 198.783C321.649 195.199 322.289 193.668 322.198 193.381C321.998 192.755 318.202 194.42 313.226 194.822C300.6 195.847 294.457 188.983 288.758 192.492C286.692 193.764 285.153 196.139 284.181 199.552L281.792 208.67C281.724 208.928 281.469 209.081 281.224 209.008C280.979 208.936 280.835 208.67 280.903 208.412L283.296 199.283C284.338 195.618 286.019 193.053 288.292 191.654C294.505 187.826 300.587 194.874 313.156 193.854C319.45 193.343 322.449 191.106 323.075 193.072C323.205 193.481 323.6 194.727 318.244 199.521C315.477 201.998 312.278 204.374 310.803 205.049C308.219 206.232 301.881 205.213 299.996 204.872L299.688 213.321C299.678 213.583 299.473 213.788 299.228 213.788H299.225Z" fill="#11181C"/>
<path d="M209.731 173.305C207.816 173.305 206.259 171.668 206.259 169.655C206.259 167.643 207.816 166.006 209.731 166.006C211.645 166.006 213.202 167.643 213.202 169.655C213.202 171.668 211.645 173.305 209.731 173.305ZM209.731 166.976C208.325 166.976 207.182 168.177 207.182 169.655C207.182 171.133 208.325 172.335 209.731 172.335C211.137 172.335 212.28 171.133 212.28 169.655C212.28 168.177 211.137 166.976 209.731 166.976ZM218.148 173.305C216.233 173.305 214.676 171.668 214.676 169.655C214.676 167.643 216.233 166.006 218.148 166.006C220.062 166.006 221.619 167.643 221.619 169.655C221.619 171.668 220.062 173.305 218.148 173.305ZM218.148 166.976C216.742 166.976 215.599 168.177 215.599 169.655C215.599 171.133 216.742 172.335 218.148 172.335C219.553 172.335 220.696 171.133 220.696 169.655C220.696 168.177 219.553 166.976 218.148 166.976Z" fill="#11181C"/>
<path d="M212.741 170.14C212.222 170.14 212.101 169.373 212.592 169.196C213.496 168.872 214.436 168.889 215.288 169.196C215.529 169.283 215.657 169.558 215.574 169.812C215.493 170.065 215.228 170.201 214.989 170.112C213.789 169.68 212.933 170.139 212.741 170.139V170.14ZM177.24 237.161C177.097 237.161 176.77 237.042 176.778 236.665C176.782 236.48 177.203 218.002 179.109 204.875C179.148 204.61 179.384 204.429 179.635 204.469C179.886 204.509 180.059 204.757 180.021 205.021C178.124 218.087 177.704 236.503 177.7 236.687C177.694 236.951 177.489 237.161 177.238 237.161H177.24ZM250.394 231.752C250.158 231.752 249.956 231.562 249.935 231.31C249.919 231.123 248.335 212.581 244.931 202.308C244.847 202.055 244.975 201.778 245.214 201.691C245.457 201.602 245.718 201.736 245.802 201.989C249.243 212.376 250.838 231.037 250.853 231.224C250.877 231.506 250.666 231.751 250.393 231.751L250.394 231.752Z" fill="#11181C"/>
<path d="M93.9999 172.2C93.9999 172.2 92.0109 171.301 91.0022 169.88C90.2473 168.817 90.7065 167.272 91.8921 166.817C93.3994 166.238 96.122 165.574 99.6138 166.358C105.069 167.583 135.38 180.879 135.38 180.879L148.978 187.061L147.828 188.983C147.828 188.983 125.26 184.204 118.734 182.405C112.208 180.607 93.9999 172.2 93.9999 172.2Z" fill="#1150CB"/>
<path opacity="0.8" d="M93.9999 172.2C93.9999 172.2 92.0109 171.301 91.0022 169.88C90.2473 168.817 90.7065 167.272 91.8921 166.817C93.3994 166.238 96.122 165.574 99.6138 166.358C105.069 167.583 135.38 180.879 135.38 180.879L148.978 187.061L147.828 188.983C147.828 188.983 125.26 184.204 118.734 182.405C112.208 180.607 93.9999 172.2 93.9999 172.2Z" fill="white"/>
<path d="M139.149 182.592L149.612 177.906C150.923 177.319 152.4 177.294 153.728 177.837L156.114 178.813L148.978 187.061L139.149 182.592ZM143.186 186.798L147.916 188.955L153.955 189.525C153.955 189.525 152.922 188.345 150.887 188.036C150.555 187.985 143.592 186.882 143.186 186.798Z" fill="#1150CB"/>
<path d="M148.374 183.952C147.4 183.667 146.829 182.606 147.1 181.582C147.37 180.557 148.38 179.957 149.354 180.242C150.329 180.527 150.899 181.588 150.629 182.612C150.358 183.637 149.349 184.236 148.374 183.952Z" fill="white"/>
<path d="M104.127 171.607L104.493 171.758C104.538 171.777 104.588 171.776 104.633 171.755C104.677 171.735 104.712 171.697 104.729 171.65L105.031 170.839C105.049 170.792 105.048 170.739 105.029 170.693C105.009 170.646 104.973 170.61 104.928 170.591L104.562 170.44C104.517 170.422 104.467 170.423 104.423 170.443C104.378 170.464 104.344 170.502 104.326 170.549L104.024 171.359C104.006 171.407 104.007 171.459 104.027 171.506C104.046 171.552 104.082 171.589 104.127 171.607Z" fill="#6A8AFF"/>
<path d="M105.393 172.129L105.759 172.279C105.804 172.298 105.855 172.297 105.899 172.277C105.943 172.256 105.978 172.218 105.995 172.171L106.297 171.361C106.315 171.313 106.314 171.261 106.295 171.214C106.275 171.168 106.239 171.131 106.194 171.113L105.828 170.962C105.783 170.943 105.733 170.944 105.689 170.965C105.645 170.985 105.61 171.023 105.592 171.07L105.29 171.881C105.272 171.928 105.273 171.98 105.293 172.027C105.312 172.073 105.348 172.11 105.393 172.129Z" fill="#6A8AFF"/>
<path d="M106.659 172.65L107.026 172.801C107.048 172.81 107.072 172.815 107.096 172.814C107.119 172.814 107.143 172.808 107.165 172.798C107.187 172.788 107.207 172.774 107.223 172.756C107.24 172.738 107.253 172.716 107.262 172.693L107.564 171.882C107.581 171.835 107.58 171.782 107.561 171.736C107.542 171.689 107.505 171.653 107.461 171.634L107.094 171.483C107.049 171.465 106.999 171.466 106.955 171.486C106.911 171.507 106.876 171.545 106.858 171.592L106.556 172.402C106.539 172.45 106.54 172.502 106.559 172.549C106.578 172.595 106.614 172.632 106.659 172.65Z" fill="#6A8AFF"/>
<path d="M107.925 173.172L108.292 173.323C108.337 173.341 108.387 173.34 108.431 173.32C108.475 173.3 108.51 173.262 108.528 173.214L108.83 172.404C108.847 172.357 108.846 172.304 108.827 172.257C108.808 172.211 108.772 172.174 108.727 172.156L108.36 172.005C108.315 171.986 108.265 171.988 108.221 172.008C108.177 172.028 108.142 172.066 108.124 172.113L107.822 172.924C107.805 172.971 107.806 173.024 107.825 173.07C107.844 173.117 107.88 173.153 107.925 173.172Z" fill="#6A8AFF"/>
<path d="M109.192 173.694L109.558 173.845C109.581 173.854 109.604 173.858 109.628 173.858C109.652 173.857 109.676 173.852 109.698 173.842C109.72 173.832 109.739 173.817 109.756 173.799C109.772 173.781 109.786 173.76 109.794 173.736L110.096 172.926C110.114 172.879 110.113 172.826 110.094 172.779C110.074 172.733 110.038 172.696 109.993 172.678L109.627 172.527C109.582 172.508 109.532 172.509 109.488 172.53C109.443 172.55 109.409 172.588 109.391 172.635L109.089 173.446C109.08 173.469 109.076 173.494 109.076 173.519C109.077 173.544 109.082 173.569 109.092 173.592C109.101 173.615 109.115 173.636 109.132 173.653C109.149 173.671 109.17 173.685 109.192 173.694Z" fill="#6A8AFF"/>
<path d="M110.458 174.215L110.824 174.366C110.869 174.385 110.919 174.384 110.964 174.363C111.008 174.343 111.043 174.305 111.06 174.258L111.362 173.447C111.38 173.4 111.379 173.347 111.36 173.301C111.34 173.254 111.304 173.218 111.259 173.199L110.893 173.048C110.848 173.03 110.798 173.031 110.754 173.051C110.709 173.071 110.675 173.109 110.657 173.157L110.355 173.967C110.337 174.014 110.338 174.067 110.358 174.114C110.377 174.16 110.413 174.197 110.458 174.215Z" fill="#6A8AFF"/>
<path d="M111.724 174.737L112.091 174.888C112.135 174.906 112.186 174.905 112.23 174.885C112.274 174.865 112.309 174.827 112.326 174.779L112.629 173.969C112.646 173.922 112.645 173.869 112.626 173.822C112.607 173.776 112.57 173.739 112.525 173.721L112.159 173.57C112.114 173.551 112.064 173.552 112.02 173.573C111.976 173.593 111.941 173.631 111.923 173.678L111.621 174.489C111.603 174.536 111.604 174.589 111.624 174.635C111.643 174.682 111.679 174.718 111.724 174.737Z" fill="#6A8AFF"/>
<path d="M114.424 175.849L114.79 176C114.835 176.018 114.886 176.017 114.93 175.997C114.974 175.977 115.009 175.939 115.026 175.892L115.328 175.081C115.337 175.058 115.341 175.033 115.341 175.008C115.341 174.982 115.335 174.958 115.326 174.935C115.316 174.912 115.302 174.891 115.285 174.873C115.268 174.856 115.248 174.842 115.225 174.833L114.859 174.682C114.837 174.673 114.813 174.669 114.789 174.669C114.765 174.669 114.742 174.675 114.72 174.685C114.698 174.695 114.678 174.71 114.661 174.728C114.645 174.746 114.632 174.767 114.623 174.791L114.321 175.601C114.303 175.648 114.304 175.701 114.324 175.747C114.343 175.794 114.379 175.83 114.424 175.849Z" fill="#6A8AFF"/>
<path d="M115.619 176.341L115.985 176.492C116.03 176.511 116.08 176.51 116.125 176.489C116.169 176.469 116.204 176.431 116.221 176.384L116.523 175.573C116.541 175.526 116.54 175.473 116.521 175.427C116.501 175.38 116.465 175.344 116.42 175.325L116.054 175.174C116.009 175.156 115.959 175.157 115.915 175.177C115.87 175.198 115.836 175.236 115.818 175.283L115.516 176.093C115.498 176.141 115.499 176.193 115.519 176.24C115.538 176.286 115.574 176.323 115.619 176.341Z" fill="#6A8AFF"/>
<path d="M116.814 176.833L117.18 176.984C117.225 177.003 117.275 177.002 117.319 176.982C117.364 176.961 117.398 176.923 117.416 176.876L117.718 176.066C117.727 176.042 117.731 176.017 117.731 175.992C117.73 175.967 117.725 175.942 117.715 175.919C117.706 175.896 117.692 175.875 117.675 175.858C117.658 175.84 117.637 175.827 117.615 175.818L117.249 175.667C117.204 175.648 117.154 175.649 117.109 175.669C117.065 175.69 117.03 175.728 117.013 175.775L116.711 176.585C116.693 176.633 116.694 176.685 116.713 176.732C116.733 176.778 116.769 176.815 116.814 176.833Z" fill="#6A8AFF"/>
<path d="M118.008 177.326L118.375 177.477C118.397 177.486 118.421 177.49 118.445 177.49C118.469 177.49 118.492 177.484 118.514 177.474C118.536 177.464 118.556 177.449 118.572 177.431C118.589 177.413 118.602 177.392 118.611 177.368L118.913 176.558C118.93 176.511 118.929 176.458 118.91 176.412C118.891 176.365 118.855 176.328 118.81 176.31L118.443 176.159C118.398 176.141 118.348 176.142 118.304 176.162C118.26 176.182 118.225 176.22 118.207 176.267L117.905 177.078C117.888 177.125 117.889 177.178 117.908 177.224C117.927 177.271 117.963 177.307 118.008 177.326Z" fill="#6A8AFF"/>
<path d="M119.204 177.818L119.57 177.969C119.615 177.987 119.665 177.986 119.709 177.966C119.754 177.946 119.788 177.908 119.806 177.861L120.108 177.05C120.126 177.003 120.125 176.95 120.105 176.904C120.086 176.857 120.05 176.821 120.005 176.802L119.639 176.651C119.594 176.633 119.544 176.634 119.499 176.654C119.455 176.674 119.42 176.712 119.403 176.76L119.101 177.57C119.083 177.617 119.084 177.67 119.103 177.716C119.123 177.763 119.159 177.799 119.204 177.818Z" fill="#6A8AFF"/>
<path d="M120.398 178.31L120.765 178.461C120.787 178.47 120.811 178.475 120.835 178.474C120.858 178.474 120.882 178.468 120.904 178.458C120.926 178.448 120.946 178.434 120.962 178.416C120.979 178.398 120.992 178.376 121.001 178.353L121.303 177.542C121.32 177.495 121.319 177.442 121.3 177.396C121.281 177.349 121.244 177.313 121.2 177.294L120.833 177.143C120.811 177.134 120.787 177.13 120.763 177.13C120.739 177.131 120.716 177.136 120.694 177.146C120.672 177.156 120.652 177.171 120.636 177.189C120.619 177.207 120.606 177.228 120.597 177.252L120.295 178.062C120.286 178.086 120.282 178.111 120.283 178.136C120.283 178.161 120.288 178.186 120.298 178.209C120.307 178.232 120.321 178.252 120.338 178.27C120.356 178.287 120.376 178.301 120.398 178.31Z" fill="#6A8AFF"/>
<path d="M121.593 178.802L121.959 178.953C121.982 178.963 122.005 178.967 122.029 178.967C122.053 178.966 122.077 178.961 122.099 178.951C122.121 178.941 122.14 178.926 122.157 178.908C122.174 178.89 122.187 178.868 122.195 178.845L122.497 178.035C122.515 177.987 122.514 177.935 122.495 177.888C122.475 177.842 122.439 177.805 122.394 177.787L122.028 177.636C121.983 177.617 121.933 177.618 121.889 177.638C121.844 177.659 121.81 177.697 121.792 177.744L121.49 178.554C121.472 178.602 121.473 178.654 121.493 178.701C121.512 178.747 121.548 178.784 121.593 178.802Z" fill="#6A8AFF"/>
<path d="M122.788 179.295L123.154 179.445C123.199 179.464 123.249 179.463 123.294 179.443C123.338 179.422 123.373 179.384 123.39 179.337L123.692 178.527C123.71 178.479 123.709 178.427 123.69 178.38C123.67 178.334 123.634 178.297 123.589 178.279L123.223 178.128C123.178 178.109 123.128 178.11 123.084 178.131C123.039 178.151 123.005 178.189 122.987 178.236L122.685 179.047C122.667 179.094 122.668 179.146 122.688 179.193C122.707 179.24 122.743 179.276 122.788 179.295Z" fill="#6A8AFF"/>
<path d="M123.983 179.787L124.349 179.938C124.394 179.956 124.444 179.955 124.488 179.935C124.533 179.915 124.567 179.877 124.585 179.829L124.887 179.019C124.905 178.972 124.904 178.919 124.884 178.873C124.865 178.826 124.829 178.789 124.784 178.771L124.418 178.62C124.373 178.602 124.323 178.603 124.278 178.623C124.234 178.643 124.199 178.681 124.182 178.728L123.88 179.539C123.862 179.586 123.863 179.639 123.882 179.685C123.902 179.732 123.938 179.768 123.983 179.787Z" fill="#6A8AFF"/>
<path d="M125.178 180.279L125.544 180.43C125.589 180.448 125.639 180.447 125.683 180.427C125.727 180.407 125.762 180.369 125.78 180.321L126.082 179.511C126.1 179.464 126.099 179.411 126.079 179.365C126.06 179.318 126.024 179.281 125.979 179.263L125.613 179.112C125.568 179.094 125.517 179.095 125.473 179.115C125.429 179.135 125.394 179.173 125.377 179.22L125.074 180.031C125.057 180.078 125.058 180.131 125.077 180.177C125.096 180.224 125.133 180.26 125.178 180.279Z" fill="#6A8AFF"/>
<path d="M126.372 180.771L126.739 180.922C126.784 180.941 126.834 180.94 126.878 180.919C126.922 180.899 126.957 180.861 126.975 180.814L127.277 180.003C127.285 179.98 127.29 179.955 127.289 179.93C127.289 179.905 127.284 179.88 127.274 179.857C127.264 179.834 127.251 179.813 127.233 179.796C127.216 179.778 127.196 179.765 127.174 179.755L126.807 179.605C126.762 179.586 126.712 179.587 126.668 179.607C126.624 179.628 126.589 179.666 126.571 179.713L126.269 180.523C126.252 180.571 126.253 180.623 126.272 180.67C126.291 180.716 126.327 180.753 126.372 180.771Z" fill="#6A8AFF"/>
<path d="M127.567 181.263L127.934 181.414C127.978 181.433 128.029 181.432 128.073 181.412C128.117 181.391 128.152 181.353 128.169 181.306L128.472 180.496C128.489 180.448 128.488 180.396 128.469 180.349C128.45 180.303 128.413 180.266 128.368 180.247L128.002 180.097C127.957 180.078 127.907 180.079 127.863 180.099C127.819 180.12 127.784 180.158 127.766 180.205L127.464 181.015C127.447 181.063 127.447 181.115 127.467 181.162C127.486 181.208 127.522 181.245 127.567 181.263Z" fill="#6A8AFF"/>
<path d="M128.762 181.756L129.128 181.907C129.151 181.916 129.174 181.92 129.198 181.92C129.222 181.919 129.246 181.914 129.268 181.904C129.29 181.894 129.309 181.879 129.326 181.861C129.343 181.843 129.356 181.822 129.364 181.798L129.666 180.988C129.675 180.965 129.679 180.94 129.679 180.914C129.678 180.889 129.673 180.865 129.664 180.841C129.654 180.818 129.64 180.798 129.623 180.78C129.606 180.763 129.586 180.749 129.563 180.74L129.197 180.589C129.152 180.57 129.102 180.571 129.058 180.592C129.013 180.612 128.979 180.65 128.961 180.697L128.659 181.508C128.641 181.555 128.642 181.608 128.662 181.654C128.681 181.701 128.717 181.737 128.762 181.756Z" fill="#6A8AFF"/>
<path d="M129.957 182.248L130.323 182.399C130.368 182.417 130.418 182.416 130.463 182.396C130.507 182.376 130.542 182.338 130.559 182.29L130.861 181.48C130.879 181.433 130.878 181.38 130.859 181.334C130.839 181.287 130.803 181.25 130.758 181.232L130.392 181.081C130.347 181.063 130.297 181.064 130.253 181.084C130.208 181.104 130.174 181.142 130.156 181.189L129.854 182C129.836 182.047 129.837 182.1 129.857 182.146C129.876 182.193 129.912 182.229 129.957 182.248Z" fill="#6A8AFF"/>
<path d="M131.152 182.74L131.518 182.891C131.54 182.9 131.564 182.905 131.588 182.904C131.612 182.904 131.635 182.899 131.657 182.888C131.679 182.878 131.699 182.864 131.716 182.846C131.732 182.828 131.745 182.806 131.754 182.783L132.056 181.972C132.065 181.949 132.069 181.924 132.069 181.899C132.068 181.874 132.063 181.849 132.053 181.826C132.044 181.803 132.03 181.782 132.013 181.765C131.996 181.747 131.975 181.734 131.953 181.724L131.587 181.573C131.564 181.564 131.541 181.56 131.517 181.56C131.493 181.561 131.469 181.566 131.447 181.576C131.425 181.586 131.406 181.601 131.389 181.619C131.372 181.637 131.359 181.658 131.351 181.682L131.049 182.492C131.031 182.54 131.032 182.592 131.051 182.639C131.071 182.685 131.107 182.722 131.152 182.74Z" fill="#6A8AFF"/>
<path d="M132.346 183.232L132.713 183.383C132.758 183.402 132.808 183.401 132.852 183.38C132.896 183.36 132.931 183.322 132.949 183.275L133.251 182.464C133.26 182.441 133.264 182.416 133.263 182.391C133.263 182.366 133.258 182.341 133.248 182.318C133.239 182.295 133.225 182.274 133.208 182.257C133.19 182.239 133.17 182.226 133.148 182.216L132.781 182.065C132.759 182.056 132.735 182.052 132.712 182.052C132.688 182.053 132.664 182.058 132.642 182.068C132.62 182.078 132.6 182.093 132.584 182.111C132.567 182.129 132.554 182.15 132.546 182.174L132.243 182.984C132.226 183.032 132.227 183.084 132.246 183.131C132.265 183.177 132.302 183.214 132.346 183.232Z" fill="#6A8AFF"/>
<path d="M133.541 183.724L133.908 183.875C133.953 183.894 134.003 183.893 134.047 183.872C134.091 183.852 134.126 183.814 134.144 183.767L134.446 182.956C134.463 182.909 134.462 182.857 134.443 182.81C134.424 182.763 134.388 182.727 134.343 182.708L133.976 182.558C133.931 182.539 133.881 182.54 133.837 182.56C133.793 182.581 133.758 182.619 133.74 182.666L133.438 183.476C133.421 183.524 133.422 183.576 133.441 183.623C133.46 183.669 133.496 183.706 133.541 183.724Z" fill="#6A8AFF"/>
<path d="M134.736 184.217L135.103 184.368C135.125 184.377 135.149 184.381 135.173 184.381C135.197 184.38 135.22 184.375 135.242 184.365C135.264 184.355 135.284 184.34 135.3 184.322C135.317 184.304 135.33 184.283 135.339 184.259L135.641 183.449C135.649 183.425 135.654 183.4 135.653 183.375C135.653 183.35 135.648 183.325 135.638 183.302C135.628 183.279 135.615 183.259 135.597 183.241C135.58 183.224 135.56 183.21 135.538 183.201L135.171 183.05C135.126 183.031 135.076 183.032 135.032 183.053C134.988 183.073 134.953 183.111 134.935 183.158L134.633 183.969C134.616 184.016 134.617 184.069 134.636 184.115C134.655 184.162 134.691 184.198 134.736 184.217Z" fill="#6A8AFF"/>
<path d="M135.931 184.709L136.298 184.86C136.342 184.878 136.393 184.877 136.437 184.857C136.481 184.837 136.516 184.799 136.533 184.751L136.836 183.941C136.853 183.894 136.852 183.841 136.833 183.794C136.814 183.748 136.777 183.711 136.732 183.693L136.366 183.542C136.321 183.523 136.271 183.524 136.227 183.545C136.183 183.565 136.148 183.603 136.13 183.65L135.828 184.461C135.811 184.508 135.811 184.561 135.831 184.607C135.85 184.654 135.886 184.69 135.931 184.709Z" fill="#6A8AFF"/>
<path d="M137.125 185.199L137.492 185.35C137.537 185.368 137.587 185.367 137.631 185.347C137.675 185.327 137.71 185.289 137.728 185.242L138.03 184.431C138.047 184.384 138.046 184.331 138.027 184.285C138.008 184.238 137.971 184.202 137.926 184.183L137.56 184.032C137.515 184.014 137.465 184.015 137.421 184.035C137.377 184.055 137.342 184.093 137.324 184.141L137.022 184.951C137.005 184.998 137.006 185.051 137.025 185.098C137.044 185.144 137.08 185.181 137.125 185.199Z" fill="#6A8AFF"/>
<path d="M108.651 177.12C108.651 177.12 109.031 177.848 113.447 179.861C117.864 181.874 122.816 182.917 125.801 183.529C128.786 184.142 135.791 185.27 136.405 184.905C137.019 184.539 126.5 179.905 116.88 177.222C109.019 175.029 108.568 176.181 108.651 177.12Z" fill="#1150CB"/>
<path d="M119.545 180L118.213 183.569C118.213 183.569 121.561 185.199 123.156 184.641C124.246 184.259 124.44 182.757 123.007 181.732C121.176 180.424 119.545 180 119.545 180ZM112.566 177.217L111.233 180.786C111.233 180.786 114.582 182.416 116.176 181.858C117.267 181.476 117.461 179.974 116.027 178.949C114.197 177.641 112.566 177.217 112.566 177.217Z" fill="#6A8AFF"/>
<path d="M113.04 177.37L111.687 180.993L112.122 181.173L113.463 177.532C113.314 177.47 113.171 177.415 113.04 177.37ZM120.07 180.166L118.717 183.789L119.151 183.969L120.492 180.328C120.343 180.266 120.201 180.211 120.07 180.166Z" fill="white"/>
<path d="M252.008 159.361C256.236 159.36 260.37 158.043 263.892 155.576C267.414 153.108 270.169 149.599 271.811 145.489C273.453 141.378 273.909 136.848 273.123 132.465C272.337 128.082 270.344 124.04 267.392 120.847C264.441 117.653 260.662 115.448 256.529 114.509C252.395 113.569 248.091 113.937 244.155 115.565C240.219 117.193 236.825 120.009 234.398 123.662C231.971 127.315 230.619 131.642 230.511 136.101C230.48 136.183 230.464 136.271 230.463 136.36V158.674C230.463 158.856 230.532 159.031 230.654 159.16C230.776 159.289 230.942 159.361 231.115 159.361H252.008Z" fill="white"/>
<path d="M251.279 143.27C251.113 143.269 250.95 143.234 250.797 143.167C250.645 143.1 250.507 143.001 250.39 142.877C250.274 142.752 250.183 142.605 250.121 142.443C250.059 142.282 250.028 142.108 250.03 141.934C250.043 140.788 250.065 140.028 250.098 139.675C250.142 139.181 250.269 138.699 250.473 138.252C250.644 137.839 250.884 137.463 251.183 137.141C251.447 136.879 252.068 136.457 253.049 135.877C253.817 135.448 254.553 134.956 255.248 134.406C255.719 133.967 256.095 133.428 256.354 132.824C256.612 132.22 256.746 131.565 256.746 130.903C256.746 129.499 256.264 128.397 255.3 127.595C254.33 126.791 253.127 126.366 251.893 126.392C249.288 126.392 247.576 127.787 246.758 130.578C246.661 130.918 246.446 131.208 246.156 131.389C245.866 131.571 245.522 131.631 245.192 131.558C245.011 131.517 244.839 131.436 244.688 131.321C244.538 131.206 244.411 131.059 244.317 130.89C244.223 130.72 244.163 130.532 244.142 130.337C244.12 130.143 244.137 129.945 244.191 129.757C245.328 125.786 247.941 123.801 252.032 123.801C254.369 123.801 256.255 124.475 257.691 125.824C259.127 127.172 259.846 128.901 259.847 131.011C259.847 133.76 258.352 135.953 255.361 137.59C254.058 138.319 253.262 138.889 252.972 139.299C252.683 139.71 252.538 140.355 252.538 141.233V141.934C252.54 142.109 252.509 142.283 252.447 142.446C252.384 142.609 252.292 142.756 252.174 142.881C252.057 143.005 251.917 143.104 251.764 143.17C251.61 143.237 251.445 143.271 251.279 143.27ZM253.138 147.735C253.135 148.219 252.95 148.682 252.625 149.023C252.299 149.365 251.859 149.556 251.4 149.556H251.311C251.085 149.556 250.86 149.509 250.651 149.417C250.442 149.326 250.252 149.192 250.091 149.022C249.931 148.853 249.804 148.653 249.718 148.432C249.631 148.211 249.587 147.974 249.587 147.735C249.587 147.496 249.631 147.259 249.718 147.038C249.804 146.817 249.931 146.616 250.091 146.447C250.252 146.278 250.442 146.144 250.651 146.052C250.86 145.961 251.085 145.913 251.311 145.913H251.4C251.859 145.913 252.299 146.105 252.625 146.446C252.95 146.787 253.135 147.251 253.138 147.735Z" fill="#2994FF"/>
<path d="M263.916 180.653C263.995 180.571 264.1 180.521 264.212 180.512C266.051 180.359 282.055 179.033 288.888 178.634C291.644 178.474 296.383 178.198 301.354 177.908C309.47 177.434 318.207 176.925 319.942 176.824C321.197 176.751 323.571 176.787 325.263 177.288C327.344 177.903 328.646 179.016 328.646 179.016C328.646 179.016 332.06 179.946 332.111 181.138C332.154 182.132 329.79 184.217 325.551 184.464C321.311 184.712 287.992 186.655 285.632 186.792C278.157 187.228 264.559 181.896 264.559 181.896L264.545 181.582L264.086 181.42C263.768 181.308 263.677 180.899 263.916 180.653Z" fill="#FAFAFA"/>
<path d="M287.466 184.035C283.881 183.005 280.923 181.229 278.589 179.23C272.059 179.754 265.365 180.333 264.213 180.433C264.101 180.443 263.995 180.494 263.916 180.577C263.677 180.825 263.767 181.238 264.085 181.351L264.545 181.513L264.557 181.83C264.557 181.83 278.162 187.174 285.647 186.711C286.384 186.666 290.128 186.434 295.064 186.129" fill="#E0E0E0"/>
<path d="M307.018 179.771L306.99 179.18L306.403 179.215L306.43 179.806L306.108 179.825L306.043 178.418L306.365 178.399L306.391 178.959L306.979 178.925L306.953 178.364L307.277 178.345L307.343 179.752L307.018 179.771ZM300.003 178.775L300.044 179.656C300.049 179.753 300.067 179.836 300.098 179.903C300.129 179.969 300.172 180.024 300.226 180.064C300.28 180.105 300.345 180.133 300.418 180.149C300.492 180.165 300.576 180.17 300.665 180.165C300.755 180.16 300.836 180.145 300.907 180.12C300.977 180.096 301.035 180.06 301.082 180.014C301.128 179.968 301.163 179.909 301.186 179.839C301.21 179.769 301.219 179.684 301.215 179.586L301.174 178.706L300.872 178.724L300.912 179.595C300.917 179.684 300.898 179.757 300.858 179.812C300.816 179.868 300.747 179.899 300.653 179.905C300.561 179.91 300.49 179.887 300.443 179.837C300.396 179.787 300.371 179.716 300.366 179.627L300.326 178.756L300.003 178.775ZM299.139 180.237L299.086 179.092L298.707 179.115L298.694 178.852L299.777 178.788L299.783 178.914C299.787 178.99 299.729 179.054 299.654 179.059L299.408 179.073L299.461 180.218L299.139 180.237ZM304.256 178.523L304.578 178.504L304.644 179.911L304.321 179.93L304.256 178.523ZM303.217 179.338L303.229 179.351L303.665 179.862C303.721 179.927 303.802 179.961 303.887 179.956L304.144 179.941L303.519 179.219L303.51 179.209L303.518 179.197L303.974 178.54L303.638 178.559L303.221 179.192L303.211 179.207L303.21 179.182L303.182 178.586L302.859 178.605L302.925 180.013L303.247 179.993L303.218 179.363L303.217 179.338ZM301.824 179.313L302.012 179.302C302.08 179.298 302.13 179.276 302.163 179.237C302.194 179.199 302.209 179.15 302.207 179.093C302.204 179.035 302.185 178.988 302.151 178.953C302.116 178.918 302.063 178.902 301.994 178.907L301.806 178.918L301.824 179.313ZM302.504 180.038C302.409 180.043 302.316 179.997 302.263 179.918L301.993 179.515L301.834 179.525L301.859 180.076L301.537 180.095L301.472 178.688L302.047 178.654C302.194 178.645 302.311 178.677 302.395 178.749C302.479 178.821 302.525 178.923 302.531 179.053C302.534 179.119 302.519 179.187 302.488 179.255C302.457 179.322 302.399 179.379 302.316 179.423L302.298 179.433L302.718 180.025L302.504 180.038ZM304.906 179.836L304.893 179.566C304.998 179.608 305.133 179.648 305.269 179.639C305.427 179.63 305.504 179.571 305.499 179.467C305.493 179.344 305.386 179.337 305.167 179.257C305.018 179.2 304.874 179.106 304.863 178.87C304.85 178.596 305.052 178.455 305.339 178.438C305.492 178.429 305.624 178.457 305.698 178.48L305.71 178.743C305.636 178.713 305.504 178.68 305.374 178.688C305.232 178.696 305.169 178.752 305.173 178.843C305.177 178.938 305.259 178.963 305.405 179.009C305.594 179.091 305.81 179.119 305.825 179.436C305.838 179.71 305.628 179.873 305.338 179.89C305.16 179.9 305.018 179.877 304.906 179.836ZM314.87 179.307L314.805 177.9L315.678 177.849L315.684 177.976C315.688 178.051 315.63 178.115 315.557 178.119L315.139 178.144L315.153 178.446L315.622 178.419L315.633 178.654L315.164 178.681L315.18 179.025L315.732 178.993L315.744 179.255L314.87 179.307ZM311.682 179.495L311.616 178.089L311.773 178.079C311.864 178.074 311.942 178.144 311.946 178.236L311.992 179.223L312.507 179.193L312.519 179.446L311.682 179.495ZM309.685 179.613L309.62 178.207L309.942 178.188L310.008 179.594L309.685 179.613ZM310.59 178.795L310.779 178.784C310.846 178.78 310.897 178.758 310.929 178.719C310.961 178.681 310.976 178.632 310.973 178.575C310.971 178.517 310.952 178.469 310.917 178.435C310.882 178.4 310.829 178.384 310.76 178.388L310.572 178.399L310.59 178.795ZM311.271 179.519C311.175 179.525 311.083 179.479 311.03 179.4L310.759 178.997L310.6 179.006L310.626 179.558L310.304 179.577L310.238 178.17L310.813 178.136C310.96 178.127 311.078 178.159 311.162 178.231C311.245 178.303 311.291 178.405 311.297 178.535C311.3 178.601 311.286 178.669 311.254 178.737C311.224 178.804 311.166 178.86 311.083 178.905L311.065 178.915L311.485 179.507L311.271 179.519ZM308.553 179.166L308.663 178.803C308.688 178.721 308.712 178.635 308.728 178.572L308.732 178.572C308.752 178.635 308.784 178.713 308.816 178.794L308.954 179.142L308.553 179.166ZM308.91 178.248L308.54 178.27L308.079 179.708L308.311 179.695C308.37 179.691 308.42 179.65 308.436 179.592L308.483 179.424L309.048 179.391L309.143 179.645L309.493 179.625L308.91 178.248ZM316 179.18L315.988 178.911C316.092 178.952 316.227 178.992 316.364 178.984C316.521 178.975 316.598 178.916 316.593 178.811C316.588 178.689 316.48 178.682 316.261 178.602C316.112 178.544 315.968 178.451 315.957 178.215C315.945 177.941 316.146 177.799 316.434 177.782C316.587 177.773 316.718 177.802 316.792 177.825L316.805 178.087C316.73 178.058 316.598 178.025 316.468 178.033C316.327 178.041 316.263 178.097 316.267 178.188C316.272 178.283 316.353 178.307 316.499 178.353C316.688 178.435 316.904 178.463 316.919 178.781C316.932 179.055 316.722 179.217 316.432 179.234C316.255 179.245 316.112 179.222 316 179.18ZM313.279 177.991L313.479 177.979C313.573 177.973 313.664 178.017 313.718 178.096L314.136 178.703C314.184 178.77 314.239 178.86 314.272 178.923L314.279 178.923C314.271 178.86 314.265 178.772 314.262 178.709L314.226 177.935L314.509 177.918L314.574 179.325L314.22 179.345L313.712 178.612C313.665 178.545 313.614 178.464 313.579 178.403L313.574 178.403C313.579 178.464 313.587 178.536 313.59 178.604L313.627 179.381L313.344 179.397L313.279 177.991ZM312.726 179.433L312.661 178.028L312.983 178.008L313.049 179.414L312.726 179.433Z" fill="#0A1D3D"/>
<path d="M278.556 178.927C278.556 178.927 274.736 178.291 273.949 177.466L265.505 168.683C264.984 168.136 264.258 167.851 263.51 167.898L261.854 168.001L266.551 179.943L278.556 178.927Z" fill="#C70A0C"/>
<path d="M270.36 175.664C270.405 176.718 269.617 177.627 268.6 177.693C267.584 177.759 266.724 176.958 266.68 175.904C266.635 174.85 267.423 173.942 268.44 173.876C269.456 173.809 270.316 174.61 270.36 175.664Z" fill="white"/>
<path d="M268.605 177.855C267.5 177.93 266.563 177.061 266.516 175.919C266.47 174.777 267.331 173.788 268.436 173.713C269.541 173.639 270.478 174.508 270.525 175.65C270.571 176.792 269.71 177.781 268.605 177.855ZM268.444 173.92C267.449 173.987 266.674 174.878 266.716 175.906C266.758 176.934 267.601 177.716 268.596 177.649C269.591 177.582 270.366 176.691 270.324 175.663C270.283 174.635 269.439 173.853 268.444 173.92Z" fill="white"/>
<path d="M266.718 176.219C266.771 176.474 266.871 176.706 267.007 176.905C267.476 176.737 267.883 176.45 268.007 175.862C268.143 175.215 267.929 174.56 267.468 174.235C266.878 174.673 266.559 175.446 266.718 176.219ZM270.321 175.35C270.533 176.378 269.899 177.407 268.904 177.646C268.736 177.687 268.57 177.702 268.407 177.695C267.882 177.673 267.398 177.415 267.077 177.002L270.019 175.922C270.061 175.906 270.048 175.864 270.013 175.869L268.768 176.041C268.936 175.853 269.061 175.628 269.032 175.331C268.979 174.849 268.484 174.407 267.588 174.154C267.754 174.05 267.937 173.97 268.136 173.922C268.303 173.882 268.47 173.866 268.633 173.873C269.438 173.908 270.145 174.494 270.321 175.35" fill="#C70A0C"/>
<g opacity="0.1">
<path d="M328.143 181.482C326.09 181.598 287.081 183.692 287.081 183.692C285.925 183.758 285.298 183.745 284.602 183.784C277.463 184.186 265.057 180.695 263.856 180.369C263.858 180.43 263.876 180.488 263.9 180.543C263.876 180.536 263.853 180.531 263.834 180.525C263.842 180.707 263.95 180.881 264.137 180.949L264.596 181.114L264.61 181.433C264.61 181.433 278.154 186.876 285.591 186.456C287.94 186.324 321.091 184.453 325.31 184.215C329.528 183.977 331.875 181.871 331.83 180.864C331.83 180.864 330.452 181.352 328.143 181.482Z" fill="black"/>
</g>
<path d="M327.437 180.094L326.852 180.129C326.55 180.147 326.312 179.878 326.355 179.568L326.385 179.349C326.425 179.061 326.635 178.826 326.91 178.762L327.41 178.652C328.806 179.346 330.017 179.886 330.017 179.886L328.243 180.046L327.437 180.094Z" fill="#32688C"/>
<path d="M318.054 180.598L318.122 180.593C318.293 180.583 318.427 180.43 318.419 180.251L318.406 179.934C318.399 179.755 318.254 179.619 318.082 179.629L318.014 179.633C317.843 179.644 317.709 179.797 317.716 179.976L317.73 180.293C317.737 180.472 317.882 180.608 318.054 180.598Z" fill="#32688C"/>
<path d="M316.88 180.66L316.947 180.656C317.119 180.645 317.252 180.492 317.245 180.313L317.232 179.996C317.224 179.817 317.079 179.681 316.908 179.691L316.84 179.695C316.668 179.706 316.535 179.859 316.542 180.038L316.555 180.355C316.562 180.534 316.708 180.67 316.88 180.66Z" fill="#32688C"/>
<path d="M315.705 180.722L315.772 180.718C315.944 180.708 316.078 180.554 316.07 180.375L316.057 180.059C316.05 179.88 315.905 179.743 315.733 179.754L315.665 179.758C315.493 179.768 315.36 179.921 315.368 180.1L315.38 180.417C315.388 180.596 315.533 180.733 315.705 180.722Z" fill="#32688C"/>
<path d="M314.53 180.785L314.598 180.78C314.77 180.77 314.903 180.617 314.895 180.438L314.882 180.121C314.875 179.942 314.73 179.805 314.558 179.816L314.491 179.82C314.319 179.831 314.185 179.984 314.193 180.163L314.206 180.48C314.213 180.658 314.358 180.795 314.53 180.785Z" fill="#32688C"/>
<path d="M313.355 180.847L313.423 180.843C313.595 180.832 313.728 180.679 313.721 180.5L313.707 180.183C313.7 180.004 313.555 179.868 313.383 179.878L313.316 179.882C313.144 179.893 313.01 180.046 313.018 180.225L313.031 180.542C313.038 180.721 313.183 180.857 313.355 180.847Z" fill="#32688C"/>
<path d="M312.18 180.909L312.247 180.905C312.419 180.894 312.552 180.741 312.545 180.562L312.532 180.245C312.524 180.067 312.379 179.93 312.208 179.94L312.14 179.945C311.968 179.955 311.835 180.108 311.842 180.287L311.855 180.604C311.863 180.783 312.008 180.92 312.18 180.909Z" fill="#32688C"/>
<path d="M311.006 180.971L311.073 180.967C311.245 180.956 311.378 180.803 311.371 180.624L311.358 180.307C311.35 180.129 311.205 179.992 311.033 180.003L310.966 180.007C310.794 180.017 310.661 180.171 310.668 180.35L310.681 180.666C310.688 180.845 310.834 180.982 311.006 180.971Z" fill="#32688C"/>
<path d="M309.831 181.034L309.898 181.029C310.07 181.019 310.203 180.866 310.196 180.687L310.183 180.37C310.176 180.191 310.03 180.054 309.858 180.065L309.791 180.069C309.619 180.08 309.486 180.233 309.493 180.412L309.506 180.729C309.514 180.907 309.659 181.044 309.831 181.034Z" fill="#32688C"/>
<path d="M308.656 181.096L308.723 181.092C308.895 181.081 309.028 180.928 309.021 180.749L309.008 180.432C309 180.253 308.856 180.117 308.684 180.127L308.616 180.131C308.444 180.142 308.311 180.295 308.318 180.474L308.331 180.791C308.339 180.97 308.484 181.106 308.656 181.096Z" fill="#32688C"/>
<path d="M307.481 181.158L307.548 181.154C307.72 181.143 307.854 180.99 307.846 180.811L307.833 180.494C307.826 180.315 307.681 180.179 307.509 180.189L307.441 180.193C307.269 180.204 307.136 180.357 307.143 180.536L307.156 180.853C307.164 181.032 307.309 181.169 307.481 181.158Z" fill="#32688C"/>
<path d="M306.306 181.22L306.373 181.216C306.545 181.206 306.679 181.052 306.671 180.874L306.658 180.557C306.651 180.378 306.506 180.241 306.334 180.252L306.266 180.256C306.094 180.266 305.961 180.42 305.969 180.599L305.982 180.915C305.989 181.094 306.134 181.231 306.306 181.22Z" fill="#32688C"/>
<path d="M305.131 181.283L305.199 181.279C305.371 181.268 305.504 181.115 305.496 180.936L305.484 180.619C305.476 180.44 305.331 180.303 305.159 180.314L305.092 180.318C304.92 180.329 304.786 180.482 304.794 180.661L304.807 180.978C304.814 181.157 304.959 181.293 305.131 181.283Z" fill="#32688C"/>
<path d="M303.956 181.345L304.023 181.341C304.195 181.33 304.328 181.177 304.321 180.998L304.308 180.681C304.3 180.502 304.155 180.366 303.983 180.376L303.916 180.38C303.744 180.391 303.611 180.544 303.618 180.723L303.631 181.04C303.639 181.219 303.784 181.356 303.956 181.345Z" fill="#32688C"/>
<path d="M302.781 181.407L302.849 181.403C303.021 181.392 303.154 181.239 303.147 181.06L303.134 180.743C303.126 180.564 302.981 180.428 302.809 180.439L302.742 180.443C302.57 180.453 302.437 180.607 302.444 180.785L302.457 181.102C302.464 181.281 302.61 181.418 302.781 181.407Z" fill="#32688C"/>
<path d="M301.607 181.469L301.674 181.465C301.846 181.455 301.979 181.301 301.972 181.122L301.959 180.806C301.952 180.627 301.806 180.49 301.635 180.501L301.567 180.505C301.395 180.516 301.262 180.669 301.269 180.848L301.282 181.165C301.29 181.344 301.435 181.48 301.607 181.469Z" fill="#32688C"/>
<path d="M300.431 181.532L300.499 181.528C300.671 181.517 300.804 181.364 300.796 181.185L300.784 180.868C300.776 180.689 300.631 180.553 300.459 180.563L300.392 180.567C300.22 180.578 300.086 180.731 300.094 180.91L300.107 181.227C300.114 181.406 300.259 181.542 300.431 181.532Z" fill="#32688C"/>
<path d="M299.257 181.594L299.325 181.59C299.497 181.579 299.63 181.426 299.622 181.247L299.609 180.93C299.602 180.751 299.457 180.615 299.285 180.625L299.218 180.629C299.046 180.64 298.912 180.793 298.92 180.972L298.933 181.289C298.94 181.468 299.085 181.605 299.257 181.594Z" fill="#32688C"/>
<path d="M298.082 181.656L298.15 181.652C298.322 181.641 298.455 181.488 298.448 181.309L298.434 180.992C298.427 180.814 298.282 180.677 298.11 180.687L298.043 180.692C297.871 180.702 297.737 180.855 297.745 181.034L297.758 181.351C297.765 181.53 297.91 181.667 298.082 181.656Z" fill="#32688C"/>
<path d="M296.907 181.718L296.975 181.715C297.147 181.704 297.28 181.551 297.273 181.372L297.26 181.055C297.252 180.876 297.107 180.739 296.935 180.75L296.868 180.754C296.696 180.764 296.563 180.918 296.57 181.097L296.583 181.414C296.59 181.593 296.736 181.729 296.907 181.718Z" fill="#32688C"/>
<path d="M295.732 181.781L295.8 181.777C295.972 181.766 296.105 181.613 296.098 181.434L296.085 181.117C296.077 180.938 295.932 180.802 295.76 180.812L295.693 180.816C295.521 180.827 295.387 180.98 295.395 181.159L295.408 181.476C295.416 181.655 295.56 181.791 295.732 181.781Z" fill="#32688C"/>
<path d="M294.558 181.843L294.625 181.839C294.797 181.828 294.93 181.675 294.923 181.496L294.91 181.179C294.902 181 294.757 180.864 294.585 180.874L294.518 180.879C294.346 180.889 294.213 181.042 294.22 181.221L294.233 181.538C294.241 181.717 294.386 181.854 294.558 181.843Z" fill="#32688C"/>
<path d="M293.383 181.905L293.45 181.901C293.622 181.891 293.756 181.737 293.748 181.558L293.735 181.241C293.728 181.062 293.583 180.926 293.411 180.937L293.343 180.941C293.171 180.952 293.038 181.105 293.045 181.283L293.058 181.601C293.066 181.779 293.211 181.916 293.383 181.905Z" fill="#32688C"/>
<path d="M292.208 181.968L292.275 181.963C292.447 181.953 292.581 181.8 292.573 181.621L292.56 181.304C292.553 181.125 292.408 180.988 292.236 180.999L292.168 181.003C291.996 181.014 291.863 181.167 291.871 181.346L291.883 181.663C291.891 181.842 292.036 181.978 292.208 181.968Z" fill="#32688C"/>
<path d="M291.033 182.03L291.101 182.026C291.273 182.015 291.406 181.862 291.398 181.683L291.386 181.366C291.378 181.187 291.233 181.051 291.061 181.061L290.994 181.065C290.822 181.076 290.688 181.229 290.696 181.408L290.709 181.725C290.716 181.904 290.861 182.04 291.033 182.03Z" fill="#32688C"/>
<path d="M289.858 182.092L289.926 182.088C290.098 182.078 290.231 181.924 290.224 181.745L290.211 181.429C290.203 181.25 290.058 181.113 289.886 181.124L289.819 181.128C289.647 181.138 289.513 181.292 289.521 181.47L289.534 181.787C289.541 181.966 289.686 182.103 289.858 182.092Z" fill="#32688C"/>
<path d="M288.683 182.154L288.751 182.15C288.923 182.14 289.056 181.986 289.049 181.808L289.036 181.491C289.028 181.312 288.883 181.175 288.711 181.186L288.644 181.19C288.472 181.2 288.338 181.354 288.346 181.533L288.359 181.849C288.366 182.028 288.511 182.165 288.683 182.154Z" fill="#32688C"/>
<path d="M287.509 182.216L287.576 182.212C287.748 182.202 287.881 182.049 287.874 181.87L287.861 181.553C287.854 181.374 287.708 181.237 287.536 181.248L287.469 181.252C287.297 181.263 287.164 181.416 287.171 181.595L287.184 181.912C287.192 182.091 287.337 182.227 287.509 182.216Z" fill="#32688C"/>
<path d="M286.334 182.279L286.401 182.275C286.573 182.264 286.706 182.111 286.699 181.932L286.686 181.615C286.679 181.436 286.533 181.3 286.362 181.31L286.294 181.315C286.122 181.325 285.989 181.478 285.996 181.657L286.009 181.974C286.017 182.153 286.162 182.289 286.334 182.279Z" fill="#32688C"/>
<path d="M285.159 182.341L285.226 182.337C285.398 182.326 285.532 182.173 285.524 181.994L285.511 181.677C285.504 181.498 285.359 181.362 285.187 181.373L285.119 181.377C284.947 181.387 284.814 181.541 284.821 181.719L284.835 182.036C284.842 182.215 284.987 182.352 285.159 182.341Z" fill="#32688C"/>
<path d="M283.984 182.403L284.051 182.399C284.223 182.389 284.357 182.235 284.349 182.057L284.336 181.74C284.329 181.561 284.184 181.424 284.012 181.435L283.944 181.439C283.772 181.45 283.639 181.603 283.647 181.782L283.66 182.099C283.667 182.278 283.812 182.414 283.984 182.403Z" fill="#32688C"/>
<path d="M276.311 181.095C276.307 181.004 276.231 180.928 276.125 180.911L263.939 178.901C263.729 178.866 262.004 178.891 262.287 178.996L267.905 181.374C268.087 181.442 268.273 181.47 268.458 181.457L276.069 181.313C276.206 181.31 276.316 181.211 276.311 181.095Z" fill="#C6C6C6"/>
<path d="M276.069 181.313L263.947 179.076C263.737 179.041 262.004 178.89 262.287 178.996L267.922 181.743C268.104 181.81 268.29 181.839 268.475 181.826L276.069 181.313Z" fill="#AAAAAA"/>
<path d="M307.541 181.947L286.423 180.379C286.078 180.353 285.761 180.178 285.551 179.897L284.334 178.264C284.12 177.977 283.781 177.819 283.428 177.841L283.106 177.861L283.569 180.049C283.685 180.594 284.136 180.991 284.679 181.025L307.502 182.444C307.647 182.453 307.768 182.329 307.761 182.18C307.756 182.056 307.662 181.956 307.541 181.947Z" fill="white"/>
<path d="M307.503 182.444L286.381 180.588C286.037 180.557 285.723 180.379 285.517 180.098L284.188 178.281C283.975 177.989 283.633 177.828 283.276 177.85L283.106 177.861L283.599 180.19C283.699 180.666 284.058 181.035 284.521 181.139L293.716 183.209C294.013 183.276 294.318 183.3 294.622 183.281L307.503 182.444Z" fill="#E0E0E0"/>
<path d="M288.781 182.11C288.781 182.11 287.502 182.522 287.511 182.704C287.519 182.885 291.997 182.834 293.52 181.824L288.781 182.11Z" fill="#D9D9D9"/>
<path d="M291.795 182.828C291.795 182.828 290.492 183.239 290.5 183.421C290.509 183.602 294.987 183.551 296.509 182.541L291.795 182.828Z" fill="#D9D9D9"/>
<path d="M306.824 184.982C306.841 185.368 307.187 185.661 307.598 185.635C308.008 185.608 308.542 185.26 308.525 184.873C308.508 184.487 307.946 184.208 307.536 184.234C307.126 184.261 306.807 184.595 306.824 184.982Z" fill="#CCCCCC"/>
<path d="M307.3 182.622C307.3 182.622 306.467 182.305 303.742 182.613C301.017 182.92 299.157 183.508 298.709 183.873L298.868 187.457C299.402 187.826 301.764 187.836 303.968 187.696C306.172 187.556 307.503 187.199 307.503 187.199L307.3 182.622Z" fill="#FAFAFA"/>
<path d="M303.856 183.576C305.709 183.371 306.773 183.423 307.318 183.493L307.278 182.618C307.278 182.618 306.447 182.305 303.729 182.606C301.012 182.907 299.156 183.485 298.71 183.843L298.749 184.692C299.623 184.312 301.43 183.844 303.856 183.576Z" fill="white"/>
<path d="M304.04 185.951C302.062 186.074 299.978 186.105 298.82 185.943L298.889 187.464C299.422 187.829 301.778 187.841 303.977 187.704C306.175 187.567 307.504 187.216 307.504 187.216L307.429 185.561C306.721 185.686 305.556 185.856 304.04 185.951Z" fill="#E0E0E0"/>
<path d="M307.659 187.252L307.482 187.262L307.269 182.629L307.445 182.618C307.678 182.604 307.875 182.785 307.886 183.023L308.06 186.796C308.071 187.033 307.892 187.237 307.659 187.252Z" fill="#B7B7B7"/>
<path d="M296.905 185.315L296.258 185.563L294.933 185.644L294.953 186.069L296.278 185.988L296.944 186.156L296.905 185.315Z" fill="#969696"/>
<path d="M298.743 184.089L297.217 184.948L296.88 184.968L296.952 186.523L297.288 186.503L298.885 187.17L298.743 184.089Z" fill="#B7B7B7"/>
</g>
<defs>
<clipPath id="clip0_5001_2072">
<rect width="250.171" height="340.211" fill="white" transform="translate(104.902)"/>
</clipPath>
</defs>
</svg>
