<svg width="422" height="500" viewBox="0 0 422 500" fill="none" xmlns="http://www.w3.org/2000/svg">
<path d="M-5.31906 488.696L-5.28611 488.035L-5.3231 487.375C-6.76242 461.671 -5.35152 437.739 0.460323 414.132L0.532076 413.84L0.589756 413.546C6.2816 384.479 19.7639 355.521 36.5992 333.636C37.1305 332.992 37.6392 332.372 38.1294 331.774C40.7154 328.623 42.7886 326.097 44.967 323.937C47.5299 321.397 49.1267 320.542 50.034 320.275C52.1618 319.659 54.1698 319.501 55.5879 319.684C55.5875 320.564 55.5394 321.613 55.4348 322.79C53.9882 332.996 50.5664 343.954 46.47 356.079C45.8979 357.772 45.3115 359.491 44.7176 361.232C41.1569 371.67 37.331 382.885 34.7525 393.953L34.7064 394.151L34.6667 394.351C34.4506 395.437 34.1451 396.789 33.7997 398.318C32.8087 402.704 31.4892 408.545 31.0079 413.739C30.3052 421.323 30.852 431.006 37.2053 439.595L37.3618 439.806L37.5271 440.011C40.6589 443.892 44.8002 446.986 50.0052 448.185C55.1218 449.363 59.7409 448.357 63.2515 446.912C69.3932 444.383 74.5585 439.407 77.3016 436.764C77.3901 436.679 77.476 436.596 77.5595 436.515L77.8796 436.207L78.177 435.877C92.4855 420.006 101.642 400.133 109.744 382.547C111.722 378.255 113.637 374.099 115.548 370.171L115.57 370.126L115.592 370.08C116.376 368.435 117.155 366.796 117.93 365.165C127.114 345.843 135.819 327.527 147.325 310.991C160.145 293.023 174.166 276.721 190.381 270.948C199.846 268.08 205.042 268.569 210.072 272.49L210.437 272.774L210.821 273.03C213.328 274.702 214.76 276.378 215.747 278.27C216.811 280.311 217.693 283.254 218.128 287.888L218.167 288.304L218.234 288.716C218.721 291.723 218.457 295.436 217.367 300.324C216.475 304.326 215.222 308.364 213.779 313.014C213.417 314.183 213.042 315.39 212.658 316.644L212.651 316.668L212.644 316.691C211.727 319.731 210.654 322.983 209.527 326.397C205.86 337.509 201.623 350.345 200.355 363.216C199.701 369.555 200.164 378.432 206.222 384.915C213.368 392.561 223.349 392.132 231.137 389.401L231.802 389.167L232.437 388.861C238.763 385.804 244.166 381.816 248.825 378.011C251.026 376.213 253.169 374.364 255.163 372.645L255.509 372.346C257.649 370.501 259.625 368.804 261.604 367.207L261.623 367.192L261.642 367.177C263.102 365.99 264.723 364.651 266.479 363.202C276.264 355.124 290.228 343.596 303.749 335.62C311.859 330.836 318.336 328.252 322.701 327.766C324.698 327.544 325.481 327.855 325.602 327.91C325.654 327.934 325.701 327.96 325.785 328.044C325.868 328.127 326.066 328.347 326.324 328.811C326.93 330.295 327.354 333.045 327.018 337.545C326.677 342.109 325.698 346.987 324.659 352.079C324.659 352.079 324.659 352.08 324.659 352.08L324.627 352.233L324.609 352.322L324.592 352.412C323.835 356.417 322.95 360.456 322.016 364.708L321.977 364.888C321.068 369.026 320.114 373.369 319.28 377.753C317.587 386.649 316.271 396.27 316.697 406.308L316.711 406.635L316.742 406.961C317.388 413.762 319.348 421.476 323.336 428.293C327.391 435.225 333.915 441.768 343.547 444.437L343.898 444.534L344.253 444.611C356.317 447.209 368.438 445.153 378.285 442.208L378.688 442.088L379.082 441.94C393.271 436.632 404.765 427.046 414.177 418.901L414.199 418.881L414.222 418.861C428.816 406.107 441.055 391.37 452.289 376.923C466.534 358.605 479.97 339.052 490.937 317.996C491.41 317.341 492.871 315.198 493.344 312.15C494.029 307.74 492.408 303.915 490.162 301.363C488.372 299.33 486.327 298.227 485.243 297.695L479.859 308.657L485.243 297.695C479.979 295.11 474.904 296.433 471.764 298.334C469.134 299.926 467.526 302.025 466.781 303.082C465.909 304.32 465.292 305.493 464.925 306.244C464.785 306.53 464.665 306.79 464.565 307.013C455.028 324.94 441.278 344.872 429.793 359.518L429.783 359.532L429.772 359.545C419.116 373.214 408.451 385.98 396.195 396.795C385.991 405.702 377.747 412.31 368.37 415.399C364.497 416.282 360.527 417.003 356.953 417.156C353.116 417.32 351.22 416.753 350.557 416.401C349.751 415.886 348.332 414.443 347.067 411.411C345.824 408.434 345.168 404.917 345.187 401.804C345.549 391.092 347.535 381.872 349.929 370.755C350.67 367.313 351.451 363.689 352.234 359.782L352.255 359.678L352.274 359.573C352.497 358.354 352.776 356.966 353.08 355.457C354.093 350.423 355.377 344.04 355.752 338.074C356.271 329.834 355.348 320.001 349.168 311.017L348.91 310.642L348.626 310.287C339.043 298.321 325.154 297.626 313.621 300.474C302.352 303.256 290.54 309.876 279.94 316.992C269.13 324.249 258.548 332.739 249.667 340.14C246.256 342.982 243.184 345.586 240.445 347.907C236.395 351.34 233.074 354.155 230.465 356.209C231.273 352.727 232.311 349.025 233.513 345.103C234.619 341.496 235.816 337.847 237.051 334.08L237.124 333.859C238.37 330.058 239.657 326.132 240.835 322.252L240.84 322.235L240.846 322.217C241.111 321.334 241.395 320.411 241.691 319.451C244.63 309.907 248.688 296.727 246.459 283.191C245.695 275.042 243.376 267.646 238.988 261.114C234.536 254.486 228.474 249.523 221.469 245.57L221.414 245.538L221.357 245.507C207.052 237.625 191.01 240.475 179.856 244.368L179.58 244.464L179.31 244.573C153.909 254.793 136.681 276.907 123.52 295.374L123.463 295.454L123.408 295.534C109.924 315.094 99.8115 336.689 90.2563 357.095C88.7819 360.244 87.3207 363.364 85.8624 366.444C83.9758 370.283 82.2378 373.971 80.545 377.563C77.5031 384.018 74.6068 390.165 71.2552 396.319C67.6883 402.869 63.9966 408.635 59.8792 413.482C60.234 411.139 60.7654 408.721 61.3586 406.022C61.7133 404.408 62.09 402.693 62.4642 400.834C64.9072 390.644 68.2766 380.665 71.8587 370.055C72.1121 369.304 72.3665 368.551 72.6217 367.794C76.4386 356.473 80.4144 344.439 83.0191 331.868L83.1055 331.452L83.1633 331.03C83.2163 330.643 83.2783 330.213 83.3456 329.747C83.7445 326.982 84.3276 322.941 84.3121 319.023C84.2929 314.18 83.4198 308.007 79.464 302.268L79.1031 301.744L78.6909 301.26C72.847 294.394 64.8953 291.621 57.791 291.044C50.7627 290.472 43.7095 291.926 37.8894 294.473L37.7814 294.521L37.6742 294.57C29.1444 298.496 23.1804 305.236 19.0886 310.151C13.9445 316.248 8.91275 322.731 4.3882 329.744L4.29513 329.888L4.20606 330.035C-7.10085 348.666 -17.3243 368.924 -23.3395 390.971L-23.3644 391.062L-23.3879 391.154C-29.0402 413.178 -34.0312 436.547 -34.4592 460.597L-34.4592 460.597C-34.6022 468.651 -34.34 476.727 -34.0898 484.431C-34.0467 485.758 -34.0039 487.075 -33.9637 488.378C-33.9456 493.75 -30.744 499.673 -24.3609 501.748C-19.2384 503.499 -14.4235 501.971 -11.3428 499.738C-8.23487 497.485 -5.5645 493.619 -5.31906 488.696ZM56.8252 320.018C56.8235 320.019 56.8052 320.009 56.7753 319.984C56.812 320.004 56.827 320.016 56.8252 320.018Z" stroke="#D8EEFF" stroke-width="25"/>
<path d="M143.508 394.592H265.704C265.704 394.592 278.634 416.692 283.45 440.06C288.266 463.429 290.55 501.727 290.55 501.727H212.465L206.381 456.643L196.626 501.727H116.685L143.508 394.592Z" fill="#1150CB"/>
<path d="M310.969 320.264C307.962 309.491 302.822 293.594 294.083 275.288C286.218 258.819 282.286 250.584 276.549 246.041C260.152 233.054 244.12 244.813 194.453 246.363C157.403 247.518 146.211 241.225 133.379 251.858C125.442 258.435 121.96 268.097 114.957 287.409C108.345 305.647 104.901 321.404 103 332.427C115.39 335.627 127.777 338.827 140.167 342.026C139.914 352.973 139.658 363.917 139.405 374.864C136.75 394.433 134.097 414.001 131.441 433.57C182.775 435.186 234.142 433.594 285.277 428.802C280.322 396.646 275.366 364.488 270.411 332.332C283.93 328.31 297.451 324.288 310.971 320.266L310.969 320.264Z" fill="#FF7A00"/>
<path d="M90.7417 273.303L61.655 284.792C62.262 300.221 66.9332 404.345 95.5898 417.621C101.499 420.358 106.94 419.717 106.94 419.717C128.081 417.221 137.723 378.134 138.817 373.507C139.195 363.435 139.571 353.363 139.949 343.289C129.121 340.537 118.295 337.786 107.467 335.034C101.893 314.457 96.3174 293.881 90.7437 273.305L90.7417 273.303Z" fill="white"/>
<path d="M105.409 420.588C103.3 420.588 99.4048 420.272 95.2521 418.348C68.1393 405.788 62.0329 314.805 60.853 284.822C60.8389 284.48 61.044 284.169 61.3615 284.042L90.4482 272.553C90.8965 272.378 91.3929 272.627 91.5196 273.09L108.12 334.367L140.145 342.505C140.513 342.598 140.765 342.935 140.751 343.315L139.599 373.686C135.388 391.539 123.818 420.586 105.409 420.586V420.588ZM62.4831 285.329C63.3414 306.426 68.7764 404.311 95.9295 416.889C101.547 419.492 106.796 418.923 106.848 418.915C127.159 416.517 136.885 378.156 138.017 373.395L139.12 343.906L107.27 335.812C106.989 335.739 106.767 335.522 106.691 335.243L90.203 274.38L62.4831 285.329Z" fill="#11181C"/>
<path d="M329.009 267.984C321.456 286.322 313.902 304.659 306.348 322.996C294.296 326.528 282.242 330.059 270.19 333.591C272.072 345.198 273.955 356.806 275.837 368.414C276.375 371.353 279.929 389.306 293.774 394.833C300.393 396.632 305.822 396.427 310.256 395.318C337.075 388.61 354.018 342.216 353.825 280.36C345.553 276.233 337.282 272.109 329.009 267.982V267.984Z" fill="white"/>
<path d="M293.563 395.611C293.533 395.603 293.504 395.593 293.474 395.583C279.987 390.196 275.959 373.537 275.045 368.561L269.395 333.721C269.33 333.321 269.573 332.935 269.961 332.821L305.749 322.335L328.263 267.679C328.446 267.241 328.957 267.06 329.365 267.265L354.178 279.642C354.45 279.779 354.623 280.054 354.623 280.36C354.719 311.004 350.671 338.129 342.918 358.804C333.905 382.838 318.268 402.325 293.559 395.611H293.563ZM294.029 394.072C317.809 400.502 332.728 381.409 341.417 358.239C349.061 337.856 353.071 311.109 353.021 280.86L329.423 269.09L307.09 323.303C306.998 323.529 306.807 323.699 306.573 323.768L271.097 334.162L276.631 368.283C277.503 373.033 281.34 388.97 294.029 394.07V394.072Z" fill="#11181C"/>
<path d="M187.931 247.866C188.255 254.684 192.556 260.67 198.84 263.056C205.702 265.661 213.434 263.405 216.938 259.016C220.618 254.403 221.046 245.659 221.046 245.659C221.128 245.659 206.411 248.552 187.931 247.866Z" fill="white"/>
<path d="M204.934 264.917C194.85 264.917 187.563 257.082 187.129 247.904C187.107 247.43 187.499 247.042 187.961 247.062C198.99 247.472 210.033 246.739 220.909 244.867C221.412 244.779 221.874 245.181 221.85 245.699C221.832 246.067 221.366 254.758 217.567 259.518C214.588 263.251 209.643 264.917 204.936 264.917H204.934ZM188.8 248.7C189.415 254.847 193.392 260.127 199.125 262.304C205.927 264.885 213.203 262.407 216.308 258.515C219.068 255.056 219.922 249.006 220.16 246.624C210.142 248.28 199.658 249.042 188.798 248.7H188.8Z" fill="#11181C"/>
<path d="M205.415 222.221L204.571 222.21C199.607 222.142 195.528 226.111 195.461 231.075L195.226 248.277C195.159 253.241 199.128 257.32 204.092 257.387L204.936 257.399C209.9 257.467 213.979 253.497 214.046 248.533L214.28 231.331C214.348 226.368 210.379 222.289 205.415 222.221Z" fill="white"/>
<path d="M205.071 258.196L204.09 258.184C198.691 258.109 194.357 253.657 194.432 248.258L194.665 231.057C194.735 225.804 199.014 221.348 204.59 221.398L205.436 221.411C210.847 221.483 215.167 225.923 215.094 231.336L214.861 248.54C214.789 253.91 210.419 258.2 205.075 258.2L205.071 258.196ZM204.451 223.004C199.989 223.004 196.331 226.584 196.271 231.079L196.038 248.28C195.977 252.793 199.597 256.513 204.11 256.576L204.954 256.588C209.344 256.676 213.185 253.138 213.249 248.515L213.482 231.312C213.545 226.789 209.933 223.079 205.41 223.017L204.451 223.004Z" fill="#11181C"/>
<path d="M228.085 218.291C226.879 216.134 223.766 215.566 221.012 216.94C220.501 204.675 206.835 198.692 196.888 203.978C191.704 206.732 189.258 210.868 189.113 216.327C186.488 215.113 183.584 215.646 182.378 217.672C181.065 219.877 182.257 223.009 185.043 224.669C186.952 225.806 189.111 225.955 190.705 225.228C193.38 232.46 199.036 238.725 204.932 238.803C210.827 238.882 216.767 232.771 219.492 225.585C221.07 226.391 223.265 226.313 225.231 225.214C228.061 223.632 229.337 220.532 228.085 218.291Z" fill="white"/>
<path d="M205.046 239.607C198.319 239.607 192.755 232.49 190.241 226.249C186.824 227.201 182.713 225.049 181.423 221.66C179.769 217.318 183.628 213.785 188.373 215.188C188.838 209.749 191.692 205.827 196.512 203.266C206.54 197.938 220.477 203.592 221.735 215.775C224.59 214.836 227.542 215.668 228.791 217.897C231.323 222.426 225.331 228.365 219.942 226.633C217.199 233.221 211.362 239.605 205.048 239.605L205.046 239.607ZM191.461 224.946C194.277 232.562 199.822 237.929 204.944 237.997C210.124 238.057 215.925 232.727 218.743 225.298C218.915 224.844 219.44 224.653 219.858 224.868C222.421 226.172 226.274 224.536 227.446 221.692C228.919 218.12 225.146 215.777 221.37 217.66C220.849 217.921 220.232 217.555 220.208 216.974C220.049 213.091 218.417 209.712 215.989 207.302C211.287 202.637 203.237 201.514 197.264 204.687C192.321 207.312 190.054 211.202 189.915 216.347C189.901 216.92 189.302 217.298 188.773 217.055C186.496 216 184.042 216.444 183.067 218.082C181.891 220.056 183.284 222.685 185.453 223.975C187.073 224.94 188.958 225.139 190.369 224.492C190.795 224.299 191.296 224.506 191.457 224.944L191.461 224.946Z" fill="#11181C"/>
<path d="M201.85 238.208C201.85 238.208 206.373 243.219 214.152 241.39L214.244 234.578C214.244 234.578 208.307 240.088 201.852 238.208H201.85ZM184.862 215.953C186.297 215.797 187.077 216.146 187.529 216.518C188.225 217.095 189.581 218.987 189.692 219.039C191.481 219.903 199.81 205.692 199.81 205.692C199.81 205.692 202.478 210.297 207.567 206.257C212.656 202.217 212.212 206.742 212.335 210.943C212.455 215.143 216.375 214.739 216.375 214.739C216.375 214.739 217.748 219.708 219.203 219.748C220.658 219.789 222.503 216.39 222.503 216.39L224.702 216.227V210.293C224.702 210.293 228.009 204.476 227.12 201.083C226.232 197.691 221.504 195.912 218.879 196.883C216.254 197.851 217.488 194.175 214.246 190.499C211.002 186.823 202.924 185.005 197.792 190.499C197.792 190.499 187.612 189.731 184.784 194.418C182.478 198.239 185.302 199.886 184.956 201.743C184.834 202.4 184.416 202.71 184.138 203.063C183.308 204.121 182.729 206.181 184.058 210.617C184.327 212.394 184.597 214.173 184.866 215.949L184.862 215.953Z" fill="#11181C"/>
<path d="M139.947 343.287L141.068 330.359C128.807 327.37 116.546 324.379 104.285 321.39C105.344 325.937 106.404 330.483 107.463 335.03L139.944 343.285L139.947 343.287Z" fill="white"/>
<path d="M139.949 344.091L107.27 335.812C106.978 335.737 106.753 335.508 106.685 335.215L103.507 321.575C103.373 320.996 103.893 320.469 104.48 320.612L141.263 329.581C141.649 329.675 141.908 330.037 141.874 330.431L140.753 343.357C140.716 343.773 140.369 344.091 139.953 344.091H139.949ZM108.138 334.373L139.229 342.274L140.21 330.976L105.368 322.481L108.14 334.373H108.138Z" fill="#11181C"/>
<path d="M270.19 333.591L268.566 321.394C281.479 317.468 294.391 313.545 307.303 309.619C307.93 311.786 308.557 313.953 309.182 316.12L306.348 322.998L270.19 333.593V333.591Z" fill="white"/>
<path d="M270.19 334.395C269.79 334.395 269.447 334.099 269.395 333.697L267.768 321.501C267.716 321.111 267.955 320.739 268.331 320.624L307.068 308.85C307.492 308.717 307.95 308.964 308.075 309.394L309.954 315.895C310.063 316.275 310.165 315.842 307.092 323.301C307 323.527 306.809 323.697 306.576 323.766L270.19 334.393V334.395ZM269.453 321.965L270.864 332.556L305.751 322.333L308.33 316.072L306.754 310.624L269.451 321.963L269.453 321.965ZM118.936 380.785C118.699 361.904 106.854 335.627 106.735 335.364C106.552 334.959 106.729 334.483 107.135 334.3C107.537 334.115 108.016 334.294 108.201 334.7C108.321 334.966 120.305 361.55 120.546 380.767C120.552 381.212 120.196 381.575 119.752 381.581C119.523 381.583 118.946 381.413 118.938 380.787L118.936 380.785Z" fill="#11181C"/>
<path d="M287.312 357.1C286.783 357.1 286.397 356.597 286.534 356.087C292.347 334.449 305.683 322.512 305.818 322.395C306.151 322.101 306.66 322.134 306.951 322.467C307.245 322.801 307.213 323.307 306.879 323.601C306.748 323.716 293.766 335.359 288.086 356.505C287.989 356.864 287.663 357.1 287.31 357.1H287.312Z" fill="#11181C"/>
<path d="M131.9 429.823L284.222 424.65L285.487 434.207L129.631 438.085L131.9 429.823Z" fill="white"/>
<path d="M129.631 438.889C129.101 438.889 128.717 438.384 128.855 437.871L131.125 429.608C131.217 429.269 131.521 429.029 131.872 429.017L284.194 423.844C284.604 423.828 284.966 424.131 285.018 424.541L286.283 434.099C286.345 434.571 285.985 434.997 285.505 435.007L129.629 438.885L129.631 438.889ZM132.52 430.607L130.694 437.254L284.574 433.425L283.523 425.478L132.52 430.605V430.607Z" fill="#11181C"/>
<path d="M93.7989 284.587L90.7417 273.303C90.7417 273.303 88.0985 256.72 81.1902 255.508C74.2818 254.296 39.9229 258.537 35.7421 258.537C31.5613 258.537 19.6239 252.841 18.4119 256.234C17.1998 259.627 34.8336 274.171 40.1058 276.595C45.378 279.019 60.4671 276.475 60.4671 276.475L62.1133 294.408L93.7989 284.589V284.587Z" fill="white"/>
<path d="M62.1133 295.21C61.7032 295.21 61.3515 294.896 61.3133 294.48L59.7455 277.403C56.4189 277.91 44.5238 279.512 39.7701 277.327C35.2677 275.256 16.1084 260.296 17.6541 255.965C19.248 251.502 31.31 257.733 35.7421 257.733C40.1741 257.733 74.2135 253.468 81.3289 254.716C88.6031 255.993 91.3387 271.976 91.5276 273.134L94.5748 284.378C94.6913 284.806 94.4381 285.248 94.0099 285.365C93.5798 285.481 93.1396 285.228 93.023 284.8L89.9477 273.431C89.2362 268.975 86.2513 257.213 81.0515 256.3C74.3019 255.116 39.947 259.341 35.7421 259.341C34.0999 259.341 31.4929 258.569 28.7352 257.751C25.3484 256.748 19.6822 255.068 19.1696 256.505C18.3737 258.734 33.8808 272.849 40.4414 275.864C45.4283 278.157 60.1837 275.705 60.3324 275.681C60.7846 275.6 61.2228 275.93 61.267 276.4L62.9153 294.333C62.9595 294.806 62.5876 295.212 62.1133 295.212V295.21Z" fill="#11181C"/>
<path d="M322.509 283.721C323.898 278.677 325.289 273.632 326.68 268.589C328.923 261.088 332.44 257.932 335.019 256.421C345.407 250.334 356.013 261.872 378.009 260.175C388.28 259.383 393.723 256.099 394.469 258.332C395.55 261.57 378.566 275.003 373.525 277.196C368.484 279.389 354.241 276.686 354.241 276.686C354.05 281.662 353.859 286.637 353.668 291.614L322.509 283.723V283.721Z" fill="white"/>
<path d="M353.668 292.416C353.212 292.416 352.846 292.038 352.864 291.582L353.437 276.653C353.455 276.163 353.907 275.803 354.389 275.894C354.53 275.92 368.447 278.529 373.201 276.456C375.647 275.393 381.05 271.56 385.769 267.542C392.748 261.601 393.864 259.062 393.705 258.586C393.357 257.548 386.74 260.308 378.069 260.975C356.064 262.674 345.358 251.295 335.425 257.112C331.825 259.221 329.142 263.158 327.449 268.816L323.285 283.932C323.166 284.36 322.722 284.613 322.296 284.492C321.868 284.374 321.616 283.932 321.735 283.504L325.906 268.37C327.723 262.294 330.651 258.043 334.613 255.723C345.441 249.378 356.042 261.062 377.947 259.369C388.915 258.523 394.143 254.815 395.233 258.073C395.46 258.752 396.149 260.817 386.815 268.764C381.991 272.871 376.417 276.81 373.846 277.93C369.342 279.89 358.297 278.201 355.01 277.636L354.474 291.642C354.458 292.076 354.1 292.416 353.672 292.416H353.668Z" fill="#11181C"/>
<path d="M197.696 225.304C194.359 225.304 191.646 222.59 191.646 219.254C191.646 215.917 194.359 213.204 197.696 213.204C201.032 213.204 203.746 215.917 203.746 219.254C203.746 222.59 201.032 225.304 197.696 225.304ZM197.696 214.812C195.246 214.812 193.254 216.804 193.254 219.254C193.254 221.704 195.246 223.696 197.696 223.696C200.146 223.696 202.138 221.704 202.138 219.254C202.138 216.804 200.146 214.812 197.696 214.812ZM212.365 225.304C209.028 225.304 206.315 222.59 206.315 219.254C206.315 215.917 209.028 213.204 212.365 213.204C215.701 213.204 218.415 215.917 218.415 219.254C218.415 222.59 215.701 225.304 212.365 225.304ZM212.365 214.812C209.915 214.812 207.923 216.804 207.923 219.254C207.923 221.704 209.915 223.696 212.365 223.696C214.815 223.696 216.807 221.704 216.807 219.254C216.807 216.804 214.815 214.812 212.365 214.812Z" fill="#11181C"/>
<path d="M202.942 220.058C202.037 220.058 201.826 218.786 202.683 218.492C204.258 217.955 205.897 217.984 207.382 218.492C207.802 218.637 208.025 219.093 207.88 219.513C207.738 219.933 207.277 220.158 206.859 220.012C204.769 219.294 203.278 220.056 202.942 220.056V220.058ZM141.07 331.165C140.821 331.165 140.252 330.968 140.266 330.343C140.272 330.035 141.006 299.403 144.328 277.64C144.397 277.202 144.807 276.901 145.245 276.967C145.683 277.033 145.985 277.445 145.918 277.884C142.612 299.543 141.88 330.073 141.872 330.379C141.862 330.817 141.504 331.165 141.068 331.165H141.07ZM268.564 322.198C268.152 322.198 267.801 321.882 267.764 321.464C267.736 321.155 264.977 290.416 259.043 273.385C258.896 272.965 259.119 272.507 259.537 272.362C259.96 272.215 260.416 272.436 260.561 272.857C266.558 290.076 269.338 321.012 269.364 321.322C269.407 321.79 269.039 322.196 268.562 322.196L268.564 322.198Z" fill="#11181C"/>
<path d="M21.8663 197.278C21.8663 197.278 18.3998 195.788 16.6418 193.432C15.3262 191.669 16.1264 189.109 18.1928 188.354C20.8198 187.394 25.5646 186.294 31.6501 187.594C41.1569 189.624 93.9842 211.666 93.9842 211.666L117.683 221.915L115.678 225.101C115.678 225.101 76.3467 217.178 64.9728 214.197C53.5989 211.216 21.8663 197.278 21.8663 197.278Z" fill="#1150CB"/>
<path opacity="0.8" d="M21.8663 197.278C21.8663 197.278 18.3998 195.788 16.6418 193.432C15.3262 191.669 16.1264 189.109 18.1928 188.354C20.8198 187.394 25.5646 186.294 31.6501 187.594C41.1569 189.624 93.9842 211.666 93.9842 211.666L117.683 221.915L115.678 225.101C115.678 225.101 76.3467 217.178 64.9728 214.197C53.5989 211.216 21.8663 197.278 21.8663 197.278Z" fill="white"/>
<path d="M100.552 214.506L118.788 206.737C121.072 205.764 123.647 205.723 125.96 206.623L130.119 208.241L117.683 221.915L100.552 214.506ZM107.588 221.479L115.831 225.055L126.357 226C126.357 226 124.557 224.044 121.01 223.531C120.431 223.447 108.297 221.618 107.588 221.479Z" fill="#1150CB"/>
<path d="M19.1479 188.032L26.9052 191.077C26.9878 191.109 27.0773 191.12 27.1653 191.109C27.2534 191.097 27.337 191.064 27.4086 191.011L28.1408 190.473C28.2167 190.417 28.2762 190.342 28.3131 190.255C28.35 190.168 28.3629 190.073 28.3505 189.98C28.3382 189.887 28.301 189.798 28.2428 189.724C28.1846 189.65 28.1076 189.593 28.0199 189.559L22.2398 187.313C21.1926 187.474 20.159 187.713 19.1479 188.03L19.1479 188.032Z" fill="#6A8AFF"/>
<path d="M116.63 216.761C114.932 216.289 113.937 214.53 114.409 212.831C114.881 211.133 116.64 210.138 118.338 210.61C120.037 211.082 121.031 212.841 120.559 214.54C120.088 216.238 118.328 217.232 116.63 216.761Z" fill="white"/>
<path d="M32.8954 193.701L33.5338 193.951C33.5726 193.967 33.614 193.974 33.6557 193.973C33.6974 193.973 33.7385 193.964 33.7766 193.947C33.8148 193.93 33.8493 193.906 33.8782 193.876C33.9071 193.846 33.9298 193.811 33.945 193.772L34.4715 192.428C34.5022 192.35 34.5005 192.263 34.4668 192.185C34.4331 192.108 34.3702 192.048 34.2918 192.017L33.6535 191.767C33.5751 191.736 33.4878 191.738 33.4106 191.772C33.3335 191.805 33.273 191.868 33.2423 191.947L32.7158 193.29C32.6851 193.369 32.6867 193.456 32.7204 193.533C32.7541 193.61 32.817 193.671 32.8954 193.701Z" fill="#6A8AFF"/>
<path d="M35.1022 194.566L35.7407 194.816C35.819 194.847 35.9064 194.845 35.9835 194.811C36.0606 194.778 36.1212 194.715 36.1519 194.636L36.6783 193.293C36.709 193.214 36.7074 193.127 36.6737 193.05C36.64 192.973 36.577 192.912 36.4987 192.882L35.8603 192.631C35.7819 192.601 35.6946 192.602 35.6175 192.636C35.5404 192.67 35.4798 192.733 35.4491 192.811L34.9226 194.155C34.8919 194.233 34.8936 194.32 34.9273 194.397C34.961 194.475 35.0239 194.535 35.1022 194.566Z" fill="#6A8AFF"/>
<path d="M37.3087 195.431L37.9471 195.681C38.0255 195.712 38.1128 195.71 38.1899 195.676C38.267 195.642 38.3276 195.58 38.3583 195.501L38.8848 194.158C38.9155 194.079 38.9138 193.992 38.8801 193.915C38.8464 193.838 38.7835 193.777 38.7051 193.746L38.0667 193.496C37.9884 193.466 37.901 193.467 37.8239 193.501C37.7468 193.535 37.6862 193.598 37.6555 193.676L37.129 195.019C37.0983 195.098 37.1 195.185 37.1337 195.262C37.1674 195.339 37.2303 195.4 37.3087 195.431Z" fill="#6A8AFF"/>
<path d="M39.5158 196.296L40.1543 196.546C40.2326 196.577 40.32 196.575 40.3971 196.541C40.4742 196.507 40.5348 196.444 40.5655 196.366L41.092 195.023C41.1227 194.944 41.121 194.857 41.0873 194.78C41.0536 194.703 40.9906 194.642 40.9123 194.611L40.2739 194.361C40.1955 194.331 40.1082 194.332 40.0311 194.366C39.954 194.4 39.8934 194.463 39.8627 194.541L39.3362 195.884C39.3055 195.963 39.3072 196.05 39.3409 196.127C39.3745 196.204 39.4375 196.265 39.5158 196.296Z" fill="#6A8AFF"/>
<path d="M41.7224 197.16L42.3608 197.41C42.4392 197.441 42.5265 197.439 42.6037 197.406C42.6808 197.372 42.7413 197.309 42.772 197.231L43.2985 195.887C43.3292 195.809 43.3275 195.721 43.2939 195.644C43.2602 195.567 43.1972 195.506 43.1189 195.476L42.4805 195.226C42.4021 195.195 42.3148 195.197 42.2376 195.23C42.1605 195.264 42.1 195.327 42.0692 195.405L41.5428 196.749C41.5121 196.827 41.5137 196.915 41.5474 196.992C41.5811 197.069 41.6441 197.129 41.7224 197.16Z" fill="#6A8AFF"/>
<path d="M43.9292 198.025L44.5676 198.275C44.6064 198.29 44.6478 198.298 44.6895 198.297C44.7311 198.296 44.7722 198.287 44.8104 198.27C44.8486 198.254 44.8831 198.23 44.912 198.2C44.9409 198.17 44.9636 198.134 44.9788 198.095L45.5053 196.752C45.536 196.674 45.5343 196.586 45.5006 196.509C45.4669 196.432 45.404 196.371 45.3256 196.341L44.6872 196.091C44.6089 196.06 44.5215 196.062 44.4444 196.095C44.3673 196.129 44.3067 196.192 44.276 196.27L43.7495 197.614C43.7188 197.692 43.7205 197.779 43.7542 197.857C43.7879 197.934 43.8508 197.994 43.9292 198.025Z" fill="#6A8AFF"/>
<path d="M46.1356 198.89L46.774 199.14C46.8524 199.171 46.9397 199.169 47.0169 199.135C47.094 199.102 47.1545 199.039 47.1852 198.96L47.7117 197.617C47.7424 197.538 47.7407 197.451 47.7071 197.374C47.6734 197.297 47.6104 197.236 47.5321 197.205L46.8936 196.955C46.8153 196.925 46.728 196.926 46.6508 196.96C46.5737 196.994 46.5132 197.057 46.4825 197.135L45.956 198.479C45.9253 198.557 45.9269 198.644 45.9606 198.721C45.9943 198.798 46.0573 198.859 46.1356 198.89Z" fill="#6A8AFF"/>
<path d="M48.3428 199.755L48.9813 200.005C49.0201 200.02 49.0615 200.028 49.1031 200.027C49.1448 200.026 49.1859 200.017 49.2241 200C49.2623 199.984 49.2968 199.96 49.3257 199.929C49.3546 199.899 49.3773 199.864 49.3925 199.825L49.9189 198.482C49.9496 198.403 49.948 198.316 49.9143 198.239C49.8806 198.162 49.8176 198.101 49.7393 198.07L49.1008 197.82C49.0225 197.79 48.9351 197.791 48.858 197.825C48.7809 197.859 48.7203 197.922 48.6896 198L48.1631 199.344C48.1479 199.382 48.1405 199.424 48.1413 199.465C48.1421 199.507 48.1511 199.548 48.1678 199.586C48.1845 199.625 48.2086 199.659 48.2386 199.688C48.2686 199.717 48.304 199.74 48.3428 199.755Z" fill="#6A8AFF"/>
<path d="M50.5496 200.619L51.1881 200.869C51.2664 200.9 51.3538 200.898 51.4309 200.865C51.508 200.831 51.5686 200.768 51.5993 200.69L52.1257 199.346C52.1564 199.268 52.1548 199.18 52.1211 199.103C52.0874 199.026 52.0244 198.966 51.9461 198.935L51.3077 198.685C51.2293 198.654 51.142 198.656 51.0649 198.689C50.9878 198.723 50.9272 198.786 50.8965 198.864L50.37 200.208C50.3393 200.286 50.341 200.374 50.3747 200.451C50.4084 200.528 50.4713 200.588 50.5496 200.619Z" fill="#6A8AFF"/>
<path d="M52.7561 201.484L53.3945 201.734C53.4729 201.765 53.5602 201.763 53.6373 201.729C53.7144 201.696 53.775 201.633 53.8057 201.554L54.3322 200.211C54.3629 200.133 54.3612 200.045 54.3275 199.968C54.2938 199.891 54.2309 199.83 54.1525 199.8L53.5141 199.55C53.4358 199.519 53.3484 199.521 53.2713 199.554C53.1942 199.588 53.1337 199.651 53.103 199.729L52.5764 201.073C52.5457 201.151 52.5474 201.238 52.5811 201.316C52.6148 201.393 52.6777 201.453 52.7561 201.484Z" fill="#6A8AFF"/>
<path d="M57.4617 203.328L58.1002 203.578C58.1785 203.609 58.2658 203.607 58.3429 203.573C58.42 203.54 58.4806 203.477 58.5113 203.398L59.0378 202.055C59.053 202.016 59.0604 201.974 59.0596 201.933C59.0588 201.891 59.0498 201.85 59.0331 201.812C59.0164 201.774 58.9924 201.739 58.9624 201.71C58.9323 201.681 58.8969 201.659 58.8581 201.643L58.2197 201.393C58.1809 201.378 58.1395 201.371 58.0979 201.372C58.0562 201.372 58.0151 201.381 57.9769 201.398C57.9387 201.415 57.9042 201.439 57.8753 201.469C57.8464 201.499 57.8237 201.534 57.8085 201.573L57.282 202.917C57.2513 202.995 57.253 203.082 57.2867 203.159C57.3204 203.236 57.3834 203.297 57.4617 203.328Z" fill="#6A8AFF"/>
<path d="M59.544 204.144L60.1825 204.394C60.2608 204.425 60.3481 204.423 60.4253 204.389C60.5024 204.356 60.563 204.293 60.5937 204.214L61.1201 202.871C61.1508 202.792 61.1491 202.705 61.1155 202.628C61.0818 202.551 61.0188 202.49 60.9405 202.46L60.302 202.209C60.2237 202.179 60.1363 202.18 60.0592 202.214C59.9821 202.248 59.9215 202.311 59.8908 202.389L59.3643 203.733C59.3336 203.811 59.3353 203.898 59.369 203.975C59.4027 204.053 59.4657 204.113 59.544 204.144Z" fill="#6A8AFF"/>
<path d="M61.6263 204.96L62.2647 205.21C62.3431 205.241 62.4304 205.239 62.5075 205.205C62.5847 205.172 62.6452 205.109 62.6759 205.03L63.2024 203.687C63.2176 203.648 63.225 203.607 63.2242 203.565C63.2234 203.523 63.2144 203.482 63.1977 203.444C63.1811 203.406 63.157 203.371 63.127 203.342C63.097 203.313 63.0615 203.291 63.0227 203.276L62.3843 203.025C62.306 202.995 62.2186 202.996 62.1415 203.03C62.0644 203.064 62.0039 203.127 61.9732 203.205L61.4467 204.549C61.416 204.627 61.4176 204.714 61.4513 204.791C61.485 204.869 61.548 204.929 61.6263 204.96Z" fill="#6A8AFF"/>
<path d="M63.7085 205.776L64.347 206.026C64.3858 206.041 64.4272 206.049 64.4688 206.048C64.5105 206.047 64.5516 206.038 64.5898 206.021C64.628 206.005 64.6625 205.981 64.6914 205.951C64.7203 205.921 64.743 205.885 64.7582 205.846L65.2847 204.503C65.3154 204.424 65.3137 204.337 65.28 204.26C65.2463 204.183 65.1833 204.122 65.105 204.092L64.4666 203.841C64.3882 203.811 64.3009 203.812 64.2238 203.846C64.1467 203.88 64.0861 203.943 64.0554 204.021L63.5289 205.365C63.4982 205.443 63.4999 205.53 63.5336 205.607C63.5673 205.685 63.6302 205.745 63.7085 205.776Z" fill="#6A8AFF"/>
<path d="M65.7913 206.592L66.4297 206.842C66.508 206.873 66.5954 206.871 66.6725 206.837C66.7496 206.804 66.8102 206.741 66.8409 206.662L67.3674 205.319C67.3981 205.241 67.3964 205.153 67.3627 205.076C67.329 204.999 67.266 204.938 67.1877 204.908L66.5493 204.658C66.4709 204.627 66.3836 204.629 66.3065 204.662C66.2294 204.696 66.1688 204.759 66.1381 204.837L65.6116 206.181C65.5809 206.259 65.5826 206.346 65.6163 206.424C65.65 206.501 65.7129 206.561 65.7913 206.592Z" fill="#6A8AFF"/>
<path d="M67.8732 207.408L68.5117 207.658C68.5505 207.673 68.5919 207.681 68.6335 207.68C68.6752 207.679 68.7163 207.67 68.7545 207.653C68.7926 207.637 68.8272 207.613 68.8561 207.583C68.8849 207.553 68.9076 207.517 68.9228 207.478L69.4493 206.135C69.48 206.056 69.4783 205.969 69.4447 205.892C69.411 205.815 69.348 205.754 69.2697 205.724L68.6312 205.473C68.5924 205.458 68.551 205.451 68.5094 205.452C68.4677 205.452 68.4266 205.461 68.3884 205.478C68.3502 205.495 68.3157 205.519 68.2868 205.549C68.2579 205.579 68.2352 205.614 68.22 205.653L67.6935 206.997C67.6783 207.036 67.6709 207.077 67.6717 207.119C67.6725 207.16 67.6815 207.201 67.6982 207.239C67.7149 207.278 67.7389 207.312 67.769 207.341C67.799 207.37 67.8344 207.393 67.8732 207.408Z" fill="#6A8AFF"/>
<path d="M69.9558 208.224L70.5943 208.474C70.6331 208.489 70.6745 208.497 70.7162 208.496C70.7578 208.495 70.7989 208.486 70.8371 208.469C70.8753 208.453 70.9098 208.429 70.9387 208.399C70.9676 208.369 70.9903 208.333 71.0055 208.294L71.532 206.951C71.5627 206.873 71.561 206.785 71.5273 206.708C71.4936 206.631 71.4307 206.57 71.3523 206.54L70.7139 206.29C70.6355 206.259 70.5482 206.261 70.4711 206.294C70.3939 206.328 70.3334 206.391 70.3027 206.469L69.7762 207.813C69.7455 207.891 69.7472 207.978 69.7809 208.056C69.8145 208.133 69.8775 208.193 69.9558 208.224Z" fill="#6A8AFF"/>
<path d="M72.0383 209.04L72.6767 209.29C72.7551 209.321 72.8424 209.319 72.9195 209.285C72.9966 209.252 73.0572 209.189 73.0879 209.11L73.6144 207.767C73.6451 207.688 73.6434 207.601 73.6097 207.524C73.576 207.447 73.5131 207.386 73.4347 207.355L72.7963 207.105C72.718 207.075 72.6306 207.076 72.5535 207.11C72.4764 207.144 72.4158 207.207 72.3851 207.285L71.8586 208.629C71.8279 208.707 71.8296 208.794 71.8633 208.871C71.897 208.948 71.9599 209.009 72.0383 209.04Z" fill="#6A8AFF"/>
<path d="M74.1205 209.856L74.759 210.106C74.8373 210.137 74.9247 210.135 75.0018 210.101C75.0789 210.067 75.1395 210.005 75.1702 209.926L75.6966 208.583C75.7273 208.504 75.7256 208.417 75.6919 208.34C75.6582 208.263 75.5953 208.202 75.5169 208.171L74.8786 207.921C74.8002 207.891 74.7129 207.892 74.6357 207.926C74.5586 207.96 74.4981 208.023 74.4674 208.101L73.9409 209.445C73.9102 209.523 73.9119 209.61 73.9456 209.687C73.9793 209.764 74.0422 209.825 74.1205 209.856Z" fill="#6A8AFF"/>
<path d="M76.2028 210.672L76.8413 210.922C76.9196 210.953 77.007 210.951 77.0841 210.917C77.1612 210.884 77.2218 210.821 77.2525 210.742L77.7789 209.399C77.8096 209.32 77.808 209.233 77.7743 209.156C77.7406 209.079 77.6776 209.018 77.5993 208.987L76.9609 208.737C76.8825 208.707 76.7952 208.708 76.7181 208.742C76.641 208.776 76.5804 208.839 76.5497 208.917L76.0232 210.261C75.9925 210.339 75.9942 210.426 76.0279 210.503C76.0615 210.58 76.1245 210.641 76.2028 210.672Z" fill="#6A8AFF"/>
<path d="M78.2852 211.488L78.9236 211.738C79.002 211.769 79.0893 211.767 79.1664 211.733C79.2435 211.7 79.3041 211.637 79.3348 211.558L79.8613 210.215C79.8765 210.176 79.8839 210.134 79.8831 210.093C79.8823 210.051 79.8733 210.01 79.8566 209.972C79.8399 209.934 79.8159 209.899 79.7858 209.87C79.7558 209.841 79.7204 209.819 79.6816 209.803L79.0432 209.553C78.9649 209.523 78.8775 209.524 78.8004 209.558C78.7233 209.592 78.6627 209.655 78.632 209.733L78.1055 211.077C78.0748 211.155 78.0765 211.242 78.1102 211.319C78.1439 211.396 78.2068 211.457 78.2852 211.488Z" fill="#6A8AFF"/>
<path d="M80.3674 212.304L81.0059 212.554C81.0843 212.585 81.1716 212.583 81.2487 212.549C81.3258 212.516 81.3864 212.453 81.4171 212.374L81.9436 211.031C81.9743 210.952 81.9726 210.865 81.9389 210.788C81.9052 210.711 81.8423 210.65 81.7639 210.62L81.1255 210.369C81.0471 210.339 80.9598 210.34 80.8827 210.374C80.8056 210.408 80.745 210.471 80.7143 210.549L80.1878 211.893C80.1571 211.971 80.1588 212.058 80.1925 212.135C80.2262 212.212 80.2891 212.273 80.3674 212.304Z" fill="#6A8AFF"/>
<path d="M82.4497 213.12L83.0881 213.37C83.1269 213.385 83.1684 213.393 83.21 213.392C83.2517 213.391 83.2928 213.382 83.331 213.365C83.3691 213.349 83.4037 213.325 83.4326 213.295C83.4615 213.265 83.4842 213.229 83.4994 213.19L84.0258 211.847C84.041 211.808 84.0484 211.767 84.0476 211.725C84.0468 211.683 84.0378 211.642 84.0212 211.604C84.0045 211.566 83.9804 211.531 83.9504 211.502C83.9204 211.473 83.885 211.451 83.8462 211.436L83.2077 211.185C83.1294 211.155 83.0421 211.156 82.965 211.19C82.8878 211.224 82.8273 211.287 82.7966 211.365L82.2701 212.709C82.2394 212.787 82.2411 212.874 82.2747 212.951C82.3084 213.029 82.3714 213.089 82.4497 213.12Z" fill="#6A8AFF"/>
<path d="M84.5324 213.936L85.1708 214.186C85.2492 214.217 85.3365 214.215 85.4136 214.181C85.4907 214.148 85.5513 214.085 85.582 214.006L86.1085 212.663C86.1392 212.584 86.1375 212.497 86.1038 212.42C86.0701 212.343 86.0072 212.282 85.9288 212.252L85.2904 212.001C85.2121 211.971 85.1247 211.972 85.0476 212.006C84.9705 212.04 84.9099 212.103 84.8792 212.181L84.3527 213.525C84.322 213.603 84.3237 213.69 84.3574 213.768C84.3911 213.845 84.454 213.905 84.5324 213.936Z" fill="#6A8AFF"/>
<path d="M86.6147 214.752L87.2531 215.002C87.2919 215.017 87.3333 215.025 87.375 215.024C87.4167 215.023 87.4578 215.014 87.4959 214.997C87.5341 214.981 87.5686 214.957 87.5975 214.927C87.6264 214.897 87.6491 214.861 87.6643 214.822L88.1908 213.479C88.206 213.44 88.2134 213.399 88.2126 213.357C88.2118 213.315 88.2028 213.274 88.1861 213.236C88.1695 213.198 88.1454 213.163 88.1154 213.134C88.0854 213.106 88.0499 213.083 88.0111 213.068L87.3728 212.818C87.334 212.802 87.2925 212.795 87.2509 212.796C87.2092 212.797 87.1681 212.806 87.1299 212.822C87.0918 212.839 87.0572 212.863 87.0283 212.893C86.9994 212.923 86.9767 212.958 86.9615 212.997L86.4351 214.341C86.4044 214.419 86.406 214.506 86.4397 214.584C86.4734 214.661 86.5364 214.721 86.6147 214.752Z" fill="#6A8AFF"/>
<path d="M88.6971 215.568L89.3355 215.818C89.4139 215.848 89.5012 215.847 89.5783 215.813C89.6554 215.779 89.716 215.716 89.7467 215.638L90.2732 214.295C90.2884 214.256 90.2958 214.214 90.295 214.173C90.2942 214.131 90.2852 214.09 90.2685 214.052C90.2518 214.014 90.2278 213.979 90.1977 213.95C90.1677 213.921 90.1323 213.899 90.0935 213.883L89.4551 213.633C89.4163 213.618 89.3749 213.611 89.3332 213.611C89.2916 213.612 89.2505 213.621 89.2123 213.638C89.1741 213.655 89.1396 213.679 89.1107 213.709C89.0818 213.739 89.0591 213.774 89.0439 213.813L88.5174 215.156C88.4867 215.235 88.4884 215.322 88.5221 215.399C88.5558 215.476 88.6187 215.537 88.6971 215.568Z" fill="#6A8AFF"/>
<path d="M90.7793 216.384L91.4178 216.634C91.4961 216.665 91.5835 216.663 91.6606 216.629C91.7377 216.595 91.7983 216.533 91.829 216.454L92.3555 215.111C92.3862 215.032 92.3845 214.945 92.3508 214.868C92.3171 214.791 92.2542 214.73 92.1758 214.699L91.5374 214.449C91.459 214.419 91.3717 214.42 91.2946 214.454C91.2175 214.488 91.1569 214.551 91.1262 214.629L90.5997 215.972C90.569 216.051 90.5707 216.138 90.6044 216.215C90.6381 216.292 90.701 216.353 90.7793 216.384Z" fill="#6A8AFF"/>
<path d="M92.862 217.2L93.5004 217.45C93.5392 217.465 93.5806 217.472 93.6223 217.472C93.664 217.471 93.7051 217.462 93.7432 217.445C93.7814 217.428 93.816 217.404 93.8449 217.374C93.8737 217.344 93.8964 217.309 93.9116 217.27L94.4381 215.927C94.4533 215.888 94.4607 215.846 94.4599 215.805C94.4591 215.763 94.4501 215.722 94.4334 215.684C94.4168 215.646 94.3927 215.611 94.3627 215.582C94.3327 215.553 94.2972 215.531 94.2585 215.515L93.62 215.265C93.5417 215.235 93.4544 215.236 93.3772 215.27C93.3001 215.304 93.2396 215.367 93.2089 215.445L92.6824 216.789C92.6517 216.867 92.6533 216.954 92.687 217.031C92.7207 217.108 92.7837 217.169 92.862 217.2Z" fill="#6A8AFF"/>
<path d="M94.9443 218.016L95.5828 218.266C95.6611 218.297 95.7484 218.295 95.8256 218.261C95.9027 218.228 95.9633 218.165 95.994 218.086L96.5204 216.743C96.5511 216.664 96.5495 216.577 96.5158 216.5C96.4821 216.423 96.4191 216.362 96.3408 216.332L95.7024 216.081C95.624 216.051 95.5367 216.052 95.4596 216.086C95.3824 216.12 95.3219 216.183 95.2912 216.261L94.7647 217.605C94.734 217.683 94.7357 217.77 94.7694 217.847C94.803 217.925 94.866 217.985 94.9443 218.016Z" fill="#6A8AFF"/>
<path d="M97.0256 218.828L97.6641 219.078C97.7424 219.109 97.8298 219.107 97.9069 219.073C97.984 219.04 98.0446 218.977 98.0753 218.898L98.6016 217.555C98.6323 217.477 98.6306 217.389 98.5969 217.312C98.5632 217.235 98.5003 217.174 98.4219 217.144L97.7835 216.894C97.7052 216.863 97.6178 216.865 97.5407 216.898C97.4636 216.932 97.403 216.995 97.3723 217.073L96.846 218.417C96.8153 218.495 96.8169 218.583 96.8506 218.66C96.8843 218.737 96.9473 218.797 97.0256 218.828Z" fill="#6A8AFF"/>
<path d="M47.4006 205.434C47.4006 205.434 48.0621 206.642 55.759 209.978C63.4558 213.315 72.0865 215.045 77.2886 216.06C82.4908 217.076 94.699 218.946 95.7695 218.34C96.84 217.734 78.507 210.052 61.7421 205.604C48.0406 201.968 47.255 203.877 47.4006 205.434Z" fill="#1150CB"/>
<path d="M66.3866 210.209L64.0645 216.125C64.0645 216.125 69.8999 218.828 72.6789 217.903C74.5794 217.27 74.9181 214.78 72.4191 213.081C69.2292 210.913 66.3866 210.209 66.3866 210.209ZM54.2229 205.596L51.9008 211.512C51.9008 211.512 57.7361 214.215 60.5151 213.289C62.4156 212.656 62.7543 210.166 60.2553 208.468C57.0654 206.299 54.2229 205.596 54.2229 205.596Z" fill="#6A8AFF"/>
<path d="M55.0493 205.849L52.6916 211.855L53.4485 212.154L55.7855 206.117C55.5258 206.015 55.2781 205.923 55.0493 205.849ZM67.3002 210.484L64.9425 216.491L65.6994 216.789L68.0364 210.752C67.7767 210.65 67.5291 210.558 67.3002 210.484Z" fill="white"/>
<path d="M274.548 204.2C281.917 204.197 289.121 202.014 295.26 197.924C301.399 193.833 306.199 188.017 309.061 181.202C311.922 174.387 312.718 166.877 311.348 159.611C309.979 152.345 306.504 145.645 301.36 140.35C296.216 135.056 289.63 131.401 282.427 129.843C275.223 128.286 267.722 128.895 260.862 131.594C254.002 134.293 248.087 138.962 243.857 145.018C239.628 151.073 237.272 158.246 237.083 165.639C237.029 165.776 237.001 165.921 237 166.068V203.06C237 203.363 237.12 203.652 237.333 203.866C237.545 204.08 237.834 204.2 238.135 204.2H274.548Z" fill="white"/>
<path d="M273.277 177.523C272.989 177.522 272.704 177.465 272.438 177.353C272.172 177.241 271.931 177.077 271.729 176.871C271.526 176.665 271.367 176.421 271.259 176.153C271.151 175.885 271.098 175.598 271.101 175.309C271.124 173.41 271.162 172.149 271.218 171.564C271.296 170.745 271.518 169.947 271.873 169.205C272.17 168.521 272.59 167.897 273.111 167.363C273.57 166.928 274.653 166.229 276.361 165.267C277.701 164.557 278.983 163.741 280.195 162.829C281.015 162.101 281.671 161.207 282.121 160.206C282.572 159.205 282.805 158.12 282.806 157.021C282.806 154.695 281.966 152.866 280.286 151.537C278.595 150.204 276.497 149.5 274.348 149.543C269.807 149.543 266.823 151.856 265.398 156.482C265.229 157.047 264.854 157.527 264.349 157.828C263.844 158.129 263.245 158.229 262.67 158.108C262.353 158.039 262.054 157.905 261.791 157.714C261.529 157.523 261.308 157.28 261.144 156.999C260.98 156.719 260.876 156.407 260.839 156.084C260.801 155.761 260.83 155.434 260.925 155.122C262.905 148.539 267.461 145.248 274.59 145.248C278.662 145.248 281.95 146.366 284.452 148.601C286.955 150.837 288.208 153.703 288.21 157.2C288.21 161.758 285.604 165.393 280.392 168.108C278.121 169.315 276.733 170.26 276.229 170.941C275.724 171.622 275.472 172.691 275.472 174.146V175.309C275.476 175.599 275.421 175.888 275.312 176.158C275.203 176.427 275.042 176.672 274.838 176.878C274.633 177.084 274.39 177.248 274.122 177.358C273.854 177.469 273.567 177.525 273.277 177.523ZM276.516 184.925C276.511 185.728 276.19 186.496 275.623 187.061C275.056 187.627 274.289 187.945 273.489 187.944H273.334C272.939 187.944 272.548 187.866 272.183 187.715C271.818 187.563 271.487 187.34 271.208 187.06C270.929 186.779 270.707 186.447 270.557 186.08C270.406 185.714 270.329 185.321 270.329 184.925C270.329 184.529 270.406 184.136 270.557 183.77C270.707 183.404 270.929 183.071 271.208 182.79C271.487 182.51 271.818 182.287 272.183 182.136C272.548 181.984 272.939 181.906 273.334 181.906H273.489C274.289 181.906 275.056 182.223 275.623 182.789C276.19 183.355 276.511 184.123 276.516 184.925Z" fill="#51B5FF"/>
<path d="M306.139 238.744C306.259 238.622 306.418 238.548 306.588 238.536C309.382 238.325 333.689 236.498 344.069 235.97C348.255 235.757 355.453 235.392 363.004 235.007C375.334 234.38 388.605 233.706 391.24 233.572C393.147 233.475 396.755 233.556 399.332 234.327C402.498 235.274 404.487 236.963 404.487 236.963C404.487 236.963 409.683 238.397 409.772 240.192C409.846 241.687 406.273 244.8 399.833 245.127C393.393 245.455 342.78 248.028 339.195 248.21C327.84 248.787 307.128 240.621 307.128 240.621L307.104 240.149L306.405 239.9C305.921 239.728 305.779 239.111 306.139 238.744Z" fill="#FAFAFA"/>
<path d="M341.925 244.238C336.471 242.648 331.96 239.956 328.394 236.941C318.49 237.627 308.335 238.393 306.588 238.526C306.418 238.539 306.259 238.613 306.139 238.735C305.779 239.102 305.921 239.719 306.405 239.891L307.105 240.14L307.128 240.613C307.128 240.613 327.841 248.782 339.197 248.201C340.314 248.144 345.995 247.854 353.483 247.471" fill="#E0E0E0"/>
<path d="M371.66 237.953L371.614 237.062L370.721 237.11L370.767 238.001L370.278 238.027L370.167 235.904L370.657 235.879L370.701 236.724L371.594 236.676L371.55 235.831L372.043 235.805L372.154 237.927L371.66 237.953ZM360.991 236.39L361.06 237.719C361.067 237.866 361.096 237.992 361.144 238.093C361.191 238.193 361.257 238.275 361.339 238.336C361.422 238.398 361.52 238.442 361.631 238.466C361.744 238.491 361.871 238.5 362.007 238.492C362.144 238.485 362.267 238.463 362.375 238.427C362.48 238.391 362.569 238.337 362.639 238.268C362.709 238.199 362.762 238.11 362.797 238.005C362.832 237.901 362.846 237.772 362.838 237.625L362.769 236.296L362.311 236.321L362.379 237.635C362.386 237.769 362.358 237.879 362.297 237.961C362.234 238.046 362.13 238.092 361.987 238.1C361.846 238.107 361.739 238.072 361.666 237.995C361.596 237.92 361.556 237.813 361.549 237.679L361.481 236.364L360.991 236.39ZM359.688 238.588L359.598 236.861L359.022 236.892L359.002 236.496L360.647 236.409L360.657 236.599C360.663 236.712 360.576 236.809 360.462 236.815L360.088 236.835L360.178 238.562L359.688 238.588ZM367.452 236.048L367.943 236.022L368.053 238.144L367.562 238.17L367.452 236.048ZM365.879 237.267L365.897 237.287L366.565 238.061C366.65 238.16 366.773 238.212 366.903 238.206L367.293 238.185L366.337 237.091L366.323 237.075L366.336 237.057L367.024 236.07L366.514 236.097L365.885 237.047L365.869 237.07L365.867 237.032L365.82 236.134L365.33 236.16L365.44 238.282L365.93 238.256L365.881 237.305L365.879 237.267ZM363.762 237.217L364.048 237.202C364.151 237.197 364.227 237.164 364.276 237.106C364.324 237.048 364.347 236.975 364.342 236.889C364.338 236.802 364.308 236.73 364.256 236.678C364.202 236.625 364.122 236.601 364.017 236.606L363.731 236.621L363.762 237.217ZM364.802 238.316C364.657 238.324 364.516 238.254 364.434 238.134L364.02 237.524L363.779 237.537L363.822 238.368L363.332 238.394L363.222 236.272L364.095 236.226C364.32 236.214 364.498 236.263 364.626 236.373C364.754 236.481 364.824 236.636 364.834 236.832C364.839 236.932 364.818 237.034 364.771 237.136C364.724 237.237 364.637 237.321 364.511 237.388L364.484 237.403L365.127 238.299L364.802 238.316ZM368.45 238.033L368.429 237.626C368.589 237.689 368.794 237.751 369.001 237.74C369.241 237.727 369.357 237.638 369.349 237.481C369.34 237.297 369.176 237.285 368.843 237.162C368.616 237.074 368.397 236.932 368.378 236.577C368.357 236.163 368.662 235.951 369.099 235.928C369.331 235.916 369.531 235.96 369.644 235.995L369.665 236.391C369.551 236.346 369.35 236.295 369.153 236.305C368.938 236.317 368.841 236.401 368.849 236.537C368.856 236.681 368.98 236.719 369.202 236.79C369.49 236.915 369.819 236.959 369.844 237.438C369.865 237.852 369.548 238.095 369.108 238.118C368.838 238.132 368.62 238.096 368.45 238.033ZM383.591 237.321L383.481 235.199L384.809 235.129L384.819 235.321C384.825 235.434 384.738 235.53 384.626 235.536L383.991 235.569L384.015 236.026L384.728 235.988L384.746 236.342L384.034 236.38L384.06 236.899L384.898 236.855L384.919 237.251L383.591 237.321ZM378.746 237.578L378.636 235.456L378.875 235.443C379.013 235.436 379.132 235.543 379.139 235.682L379.216 237.17L379.999 237.128L380.019 237.51L378.746 237.578ZM375.713 237.738L375.603 235.617L376.093 235.591L376.203 237.712L375.713 237.738ZM377.083 236.512L377.368 236.497C377.471 236.491 377.548 236.459 377.597 236.401C377.645 236.343 377.667 236.27 377.663 236.184C377.658 236.096 377.629 236.024 377.577 235.972C377.523 235.919 377.443 235.895 377.337 235.9L377.052 235.916L377.083 236.512ZM378.122 237.61C377.977 237.618 377.836 237.548 377.755 237.428L377.341 236.818L377.099 236.831L377.142 237.662L376.653 237.688L376.542 235.567L377.416 235.52C377.64 235.508 377.818 235.558 377.947 235.667C378.074 235.776 378.145 235.931 378.155 236.127C378.16 236.226 378.139 236.328 378.091 236.431C378.045 236.531 377.958 236.616 377.832 236.683L377.804 236.697L378.447 237.593L378.122 237.61ZM373.989 237.054L374.154 236.508C374.19 236.385 374.226 236.255 374.25 236.16L374.257 236.159C374.287 236.255 374.336 236.373 374.385 236.495L374.598 237.022L373.989 237.054ZM374.524 235.673L373.962 235.703L373.272 237.868L373.625 237.849C373.715 237.844 373.791 237.783 373.814 237.696L373.883 237.443L374.743 237.397L374.89 237.782L375.421 237.754L374.524 235.673ZM385.308 237.14L385.287 236.733C385.446 236.797 385.651 236.858 385.859 236.847C386.098 236.834 386.215 236.746 386.207 236.589C386.197 236.404 386.034 236.392 385.701 236.269C385.474 236.182 385.254 236.04 385.236 235.684C385.214 235.27 385.52 235.058 385.956 235.035C386.189 235.023 386.389 235.067 386.502 235.103L386.522 235.499C386.409 235.454 386.208 235.403 386.01 235.413C385.796 235.425 385.699 235.509 385.706 235.645C385.714 235.789 385.837 235.827 386.06 235.897C386.348 236.022 386.677 236.067 386.702 236.545C386.723 236.959 386.406 237.202 385.965 237.225C385.695 237.24 385.478 237.203 385.308 237.14ZM381.163 235.322L381.466 235.306C381.61 235.299 381.748 235.366 381.831 235.484L382.471 236.404C382.544 236.506 382.629 236.641 382.68 236.738L382.69 236.737C382.678 236.642 382.668 236.509 382.663 236.414L382.602 235.246L383.031 235.223L383.141 237.345L382.604 237.374L381.826 236.264C381.753 236.162 381.676 236.039 381.622 235.947L381.615 235.947C381.623 236.039 381.636 236.147 381.641 236.25L381.702 237.421L381.273 237.444L381.163 235.322ZM380.334 237.493L380.224 235.373L380.714 235.347L380.824 237.467L380.334 237.493Z" fill="#0A1D3D"/>
<path d="M328.386 236.904C328.386 236.904 322.602 235.918 321.402 234.7L308.531 221.729C307.736 220.923 306.635 220.494 305.504 220.552L303 220.68L310.242 238.217L328.386 236.904Z" fill="#C70A0C"/>
<path d="M315.91 232.001C315.989 233.539 314.81 234.852 313.277 234.934C311.744 235.016 310.437 233.835 310.358 232.297C310.278 230.759 311.457 229.446 312.991 229.364C314.524 229.282 315.831 230.463 315.91 232.001Z" fill="white"/>
<path d="M313.289 235.176C311.624 235.266 310.2 233.98 310.114 232.31C310.029 230.641 311.313 229.21 312.978 229.121C314.643 229.032 316.068 230.318 316.153 231.987C316.239 233.657 314.954 235.087 313.289 235.176ZM312.994 229.424C311.495 229.504 310.339 230.791 310.416 232.294C310.493 233.797 311.775 234.954 313.273 234.874C314.772 234.794 315.929 233.506 315.852 232.003C315.775 230.5 314.493 229.343 312.994 229.424Z" fill="white"/>
<path d="M310.42 232.757C310.502 233.13 310.656 233.469 310.864 233.762C311.57 233.523 312.18 233.111 312.361 232.255C312.559 231.313 312.228 230.354 311.529 229.874C310.643 230.505 310.17 231.627 310.42 232.757ZM315.848 231.542C316.18 233.044 315.234 234.535 313.735 234.87C313.483 234.927 313.231 234.947 312.985 234.934C312.192 234.894 311.46 234.511 310.97 233.903L315.398 232.371C315.462 232.349 315.442 232.287 315.389 232.294L313.511 232.526C313.763 232.255 313.949 231.929 313.902 231.494C313.816 230.791 313.064 230.14 311.708 229.758C311.957 229.608 312.233 229.494 312.532 229.427C312.785 229.371 313.036 229.351 313.282 229.363C314.498 229.426 315.571 230.291 315.847 231.541" fill="#C70A0C"/>
<g opacity="0.1">
<path d="M403.753 240.57C400.634 240.728 341.361 243.574 341.361 243.574C339.604 243.663 338.652 243.639 337.594 243.692C326.747 244.242 307.872 238.967 306.044 238.474C306.048 238.565 306.075 238.651 306.112 238.733C306.075 238.723 306.041 238.714 306.012 238.706C306.025 238.977 306.189 239.236 306.475 239.338L307.172 239.587L307.196 240.06C307.196 240.06 327.813 248.245 339.114 247.672C342.682 247.491 393.054 244.938 399.464 244.613C405.873 244.289 409.428 241.174 409.353 239.677C409.353 239.677 407.261 240.392 403.753 240.57Z" fill="black"/>
</g>
<path d="M402.703 238.391L401.815 238.436C401.358 238.459 400.993 238.061 401.056 237.606L401.099 237.285C401.158 236.861 401.474 236.518 401.891 236.428L402.649 236.271C404.773 237.306 406.614 238.113 406.614 238.113L403.924 238.328L402.703 238.391Z" fill="#32688C"/>
<path d="M388.436 239.112L388.538 239.106C388.797 239.093 388.997 238.872 388.984 238.612L388.961 238.151C388.948 237.891 388.728 237.691 388.469 237.704L388.367 237.709C388.108 237.723 387.908 237.944 387.921 238.204L387.944 238.665C387.957 238.925 388.177 239.125 388.436 239.112Z" fill="#32688C"/>
<path d="M386.65 239.201L386.752 239.196C387.011 239.183 387.211 238.962 387.198 238.702L387.175 238.241C387.162 237.981 386.942 237.781 386.683 237.795L386.581 237.8C386.322 237.813 386.122 238.034 386.135 238.294L386.158 238.755C386.171 239.015 386.391 239.215 386.65 239.201Z" fill="#32688C"/>
<path d="M384.865 239.292L384.966 239.287C385.225 239.273 385.425 239.052 385.412 238.792L385.389 238.331C385.376 238.071 385.156 237.871 384.897 237.884L384.795 237.89C384.536 237.903 384.336 238.124 384.349 238.384L384.372 238.845C384.385 239.105 384.605 239.305 384.865 239.292Z" fill="#32688C"/>
<path d="M383.078 239.382L383.18 239.376C383.439 239.363 383.639 239.142 383.626 238.882L383.603 238.421C383.59 238.161 383.37 237.961 383.111 237.975L383.009 237.98C382.75 237.993 382.55 238.214 382.563 238.474L382.586 238.935C382.599 239.195 382.819 239.395 383.078 239.382Z" fill="#32688C"/>
<path d="M381.293 239.472L381.394 239.467C381.654 239.453 381.853 239.232 381.84 238.972L381.817 238.511C381.804 238.251 381.584 238.051 381.325 238.065L381.224 238.07C380.964 238.083 380.764 238.305 380.777 238.565L380.8 239.025C380.813 239.285 381.033 239.485 381.293 239.472Z" fill="#32688C"/>
<path d="M379.507 239.562L379.608 239.557C379.867 239.543 380.067 239.322 380.054 239.062L380.031 238.602C380.019 238.341 379.799 238.141 379.539 238.155L379.437 238.16C379.178 238.173 378.979 238.394 378.992 238.654L379.014 239.115C379.027 239.375 379.248 239.575 379.507 239.562Z" fill="#32688C"/>
<path d="M377.721 239.652L377.823 239.646C378.082 239.633 378.281 239.412 378.268 239.152L378.246 238.691C378.233 238.431 378.012 238.231 377.753 238.245L377.652 238.25C377.392 238.263 377.193 238.484 377.206 238.744L377.228 239.205C377.241 239.465 377.462 239.665 377.721 239.652Z" fill="#32688C"/>
<path d="M375.935 239.742L376.037 239.737C376.296 239.723 376.495 239.502 376.482 239.242L376.46 238.781C376.447 238.521 376.227 238.321 375.967 238.335L375.866 238.34C375.607 238.353 375.407 238.575 375.42 238.835L375.443 239.295C375.456 239.555 375.676 239.755 375.935 239.742Z" fill="#32688C"/>
<path d="M374.149 239.832L374.251 239.827C374.51 239.813 374.71 239.592 374.697 239.332L374.674 238.872C374.661 238.612 374.441 238.411 374.182 238.425L374.08 238.43C373.821 238.443 373.621 238.664 373.634 238.924L373.657 239.385C373.67 239.645 373.89 239.845 374.149 239.832Z" fill="#32688C"/>
<path d="M372.363 239.922L372.465 239.917C372.724 239.903 372.924 239.682 372.911 239.422L372.888 238.961C372.875 238.701 372.655 238.501 372.396 238.515L372.294 238.52C372.035 238.533 371.835 238.755 371.848 239.015L371.871 239.475C371.884 239.735 372.104 239.935 372.363 239.922Z" fill="#32688C"/>
<path d="M370.577 240.012L370.679 240.007C370.938 239.993 371.138 239.772 371.125 239.512L371.102 239.052C371.089 238.792 370.869 238.592 370.61 238.605L370.508 238.61C370.249 238.623 370.049 238.845 370.062 239.105L370.085 239.565C370.098 239.825 370.318 240.026 370.577 240.012Z" fill="#32688C"/>
<path d="M368.791 240.102L368.893 240.097C369.152 240.084 369.352 239.862 369.339 239.602L369.316 239.142C369.303 238.882 369.083 238.681 368.824 238.695L368.722 238.7C368.463 238.714 368.263 238.934 368.276 239.195L368.299 239.655C368.312 239.915 368.532 240.115 368.791 240.102Z" fill="#32688C"/>
<path d="M367.005 240.192L367.107 240.187C367.367 240.173 367.566 239.952 367.553 239.692L367.53 239.232C367.517 238.971 367.297 238.772 367.038 238.785L366.937 238.79C366.677 238.803 366.477 239.025 366.49 239.285L366.513 239.746C366.526 240.006 366.746 240.206 367.005 240.192Z" fill="#32688C"/>
<path d="M365.22 240.282L365.321 240.277C365.58 240.264 365.78 240.043 365.767 239.782L365.744 239.322C365.731 239.062 365.512 238.862 365.252 238.875L365.15 238.88C364.891 238.893 364.692 239.115 364.705 239.375L364.727 239.835C364.74 240.095 364.961 240.296 365.22 240.282Z" fill="#32688C"/>
<path d="M363.434 240.372L363.536 240.367C363.795 240.354 363.994 240.132 363.981 239.872L363.959 239.412C363.946 239.152 363.725 238.952 363.466 238.965L363.365 238.97C363.105 238.984 362.906 239.205 362.919 239.465L362.941 239.926C362.954 240.186 363.175 240.385 363.434 240.372Z" fill="#32688C"/>
<path d="M361.648 240.462L361.75 240.457C362.009 240.444 362.208 240.223 362.195 239.962L362.173 239.502C362.16 239.242 361.94 239.042 361.68 239.055L361.579 239.06C361.32 239.073 361.12 239.295 361.133 239.555L361.156 240.016C361.169 240.276 361.389 240.476 361.648 240.462Z" fill="#32688C"/>
<path d="M359.862 240.552L359.964 240.547C360.223 240.534 360.423 240.313 360.41 240.053L360.387 239.592C360.374 239.332 360.154 239.132 359.895 239.145L359.793 239.15C359.534 239.164 359.334 239.385 359.347 239.645L359.37 240.105C359.383 240.365 359.603 240.566 359.862 240.552Z" fill="#32688C"/>
<path d="M358.076 240.642L358.178 240.637C358.437 240.624 358.637 240.402 358.624 240.142L358.601 239.682C358.588 239.422 358.368 239.222 358.109 239.235L358.007 239.24C357.748 239.254 357.548 239.475 357.561 239.735L357.584 240.196C357.597 240.456 357.817 240.656 358.076 240.642Z" fill="#32688C"/>
<path d="M356.29 240.732L356.392 240.727C356.651 240.714 356.851 240.493 356.838 240.233L356.815 239.772C356.802 239.512 356.582 239.312 356.323 239.325L356.221 239.33C355.962 239.343 355.762 239.565 355.775 239.825L355.798 240.286C355.811 240.546 356.031 240.746 356.29 240.732Z" fill="#32688C"/>
<path d="M354.504 240.823L354.606 240.817C354.865 240.804 355.065 240.583 355.052 240.323L355.029 239.862C355.016 239.602 354.796 239.402 354.537 239.415L354.435 239.42C354.176 239.434 353.976 239.655 353.989 239.915L354.012 240.376C354.025 240.636 354.245 240.836 354.504 240.823Z" fill="#32688C"/>
<path d="M352.718 240.912L352.82 240.907C353.08 240.894 353.279 240.673 353.266 240.412L353.243 239.952C353.23 239.692 353.01 239.492 352.751 239.505L352.649 239.51C352.39 239.524 352.19 239.745 352.203 240.005L352.226 240.466C352.239 240.726 352.459 240.926 352.718 240.912Z" fill="#32688C"/>
<path d="M350.933 241.002L351.034 240.997C351.293 240.984 351.493 240.763 351.48 240.503L351.457 240.042C351.444 239.782 351.225 239.582 350.965 239.595L350.863 239.601C350.604 239.614 350.405 239.835 350.418 240.095L350.44 240.556C350.453 240.816 350.674 241.016 350.933 241.002Z" fill="#32688C"/>
<path d="M349.147 241.093L349.248 241.087C349.508 241.074 349.707 240.853 349.694 240.593L349.672 240.132C349.659 239.872 349.438 239.672 349.179 239.685L349.078 239.69C348.818 239.704 348.619 239.925 348.632 240.185L348.654 240.646C348.667 240.906 348.888 241.106 349.147 241.093Z" fill="#32688C"/>
<path d="M347.361 241.182L347.463 241.177C347.722 241.164 347.921 240.943 347.908 240.683L347.886 240.222C347.873 239.962 347.653 239.762 347.393 239.775L347.292 239.781C347.033 239.794 346.833 240.015 346.846 240.275L346.869 240.736C346.882 240.996 347.102 241.196 347.361 241.182Z" fill="#32688C"/>
<path d="M345.575 241.273L345.677 241.268C345.936 241.254 346.136 241.033 346.123 240.773L346.1 240.312C346.087 240.052 345.867 239.852 345.608 239.865L345.506 239.871C345.247 239.884 345.047 240.105 345.06 240.365L345.083 240.826C345.096 241.086 345.316 241.286 345.575 241.273Z" fill="#32688C"/>
<path d="M343.789 241.363L343.891 241.357C344.15 241.344 344.35 241.123 344.337 240.863L344.314 240.402C344.301 240.142 344.081 239.942 343.822 239.956L343.72 239.961C343.461 239.974 343.261 240.195 343.274 240.455L343.297 240.916C343.31 241.176 343.53 241.376 343.789 241.363Z" fill="#32688C"/>
<path d="M342.003 241.452L342.105 241.447C342.364 241.434 342.564 241.213 342.551 240.953L342.528 240.492C342.515 240.232 342.295 240.032 342.036 240.045L341.934 240.051C341.675 240.064 341.475 240.285 341.488 240.545L341.511 241.006C341.524 241.266 341.744 241.466 342.003 241.452Z" fill="#32688C"/>
<path d="M340.217 241.543L340.319 241.538C340.578 241.524 340.778 241.303 340.765 241.043L340.742 240.582C340.729 240.322 340.509 240.122 340.25 240.135L340.148 240.141C339.889 240.154 339.689 240.375 339.702 240.635L339.725 241.096C339.738 241.356 339.958 241.556 340.217 241.543Z" fill="#32688C"/>
<path d="M338.431 241.633L338.533 241.627C338.792 241.614 338.992 241.393 338.979 241.133L338.956 240.672C338.943 240.412 338.723 240.212 338.464 240.226L338.362 240.231C338.103 240.244 337.903 240.465 337.916 240.725L337.939 241.186C337.952 241.446 338.172 241.646 338.431 241.633Z" fill="#32688C"/>
<path d="M336.646 241.723L336.747 241.718C337.006 241.704 337.206 241.483 337.193 241.223L337.17 240.762C337.157 240.502 336.938 240.302 336.678 240.315L336.576 240.321C336.317 240.334 336.118 240.555 336.131 240.815L336.153 241.276C336.166 241.536 336.386 241.736 336.646 241.723Z" fill="#32688C"/>
<path d="M324.975 239.933C324.968 239.798 324.852 239.685 324.692 239.658L306.167 236.558C305.847 236.505 303.228 236.524 303.659 236.682L312.211 240.261C312.488 240.362 312.771 240.406 313.052 240.39L324.609 240.253C324.817 240.251 324.984 240.105 324.975 239.933Z" fill="#C6C6C6"/>
<path d="M324.609 240.253L306.181 236.818C305.861 236.765 303.228 236.523 303.659 236.682L312.24 240.805C312.517 240.907 312.8 240.951 313.081 240.935L324.609 240.253Z" fill="#AAAAAA"/>
<path d="M372.446 241.244L340.365 238.707C339.84 238.665 339.358 238.403 339.037 237.985L337.173 235.558C336.846 235.132 336.33 234.895 335.794 234.924L335.307 234.949L336.028 238.19C336.209 238.997 336.897 239.589 337.722 239.645L372.391 241.978C372.61 241.993 372.794 241.811 372.782 241.591C372.773 241.407 372.629 241.258 372.446 241.244Z" fill="white"/>
<path d="M372.391 241.978L340.303 239.015C339.78 238.967 339.303 238.7 338.987 238.281L336.952 235.581C336.626 235.149 336.106 234.906 335.564 234.936L335.307 234.949L336.075 238.398C336.231 239.102 336.78 239.653 337.483 239.811L351.464 242.967C351.915 243.069 352.378 243.107 352.839 243.081L372.391 241.978Z" fill="#E0E0E0"/>
<path d="M343.931 241.268C343.931 241.268 341.991 241.874 342.005 242.145C342.019 242.417 348.825 242.38 351.13 240.881L343.931 241.268Z" fill="#D9D9D9"/>
<path d="M348.513 242.307C348.513 242.307 346.536 242.911 346.55 243.183C346.564 243.454 353.369 243.417 355.675 241.919L348.513 242.307Z" fill="#D9D9D9"/>
<path d="M371.366 245.439C371.395 246.003 371.922 246.433 372.543 246.4C373.163 246.366 373.969 245.864 373.939 245.3C373.91 244.736 373.057 244.324 372.436 244.357C371.816 244.39 371.336 244.875 371.366 245.439Z" fill="#CCCCCC"/>
<path d="M372.04 242.04C372.04 242.04 370.774 241.567 366.648 241.987C362.522 242.406 359.708 243.245 359.034 243.773L359.308 249.018C360.12 249.564 363.699 249.605 367.037 249.425C370.376 249.244 372.39 248.738 372.39 248.738L372.04 242.04Z" fill="#FAFAFA"/>
<path d="M366.846 243.425C369.66 243.14 371.276 243.227 372.105 243.337L372.037 242.04C372.037 242.04 370.771 241.567 366.646 241.986C362.521 242.404 359.708 243.243 359.034 243.77L359.1 245.028C360.424 244.473 363.164 243.798 366.846 243.425Z" fill="white"/>
<path d="M367.119 246.832C364.117 246.994 360.953 247.019 359.193 246.767L359.311 249.019C360.123 249.564 363.701 249.605 367.039 249.425C370.376 249.246 372.39 248.74 372.39 248.74L372.262 246.29C371.188 246.468 369.421 246.708 367.119 246.832Z" fill="#E0E0E0"/>
<path d="M372.648 248.732L372.388 248.745L372.036 242.041L372.296 242.027C372.639 242.008 372.932 242.272 372.95 242.616L373.237 248.076C373.255 248.419 372.991 248.713 372.648 248.732Z" fill="#B7B7B7"/>
<path d="M356.277 245.929L355.296 246.288L353.286 246.395L353.318 247.016L355.329 246.908L356.341 247.159L356.277 245.929Z" fill="#969696"/>
<path d="M359.057 244.156L356.757 245.39L356.249 245.417L356.367 247.673L356.875 247.646L359.292 248.626L359.057 244.156Z" fill="#B7B7B7"/>
</svg>
