<svg width="406" height="231" viewBox="0 0 406 231" fill="none" xmlns="http://www.w3.org/2000/svg">
<path d="M41.0802 226.973L41.1132 226.312L41.0762 225.651C39.8502 203.765 41.0554 183.451 45.9825 163.446L46.0543 163.154L46.112 162.859C50.9325 138.252 62.3589 113.714 76.6095 95.187C77.0678 94.6315 77.5041 94.1001 77.9224 93.5908C80.136 90.8949 81.8436 88.8153 83.6392 87.036C85.7393 84.9552 86.8549 84.4548 87.2238 84.3451C88.0922 84.0941 88.9113 83.9499 89.6262 83.8872C89.6109 84.1107 89.593 84.3395 89.5726 84.5726C88.3554 93.1165 85.4797 102.344 81.9745 112.716C81.4875 114.157 80.987 115.623 80.4793 117.11C77.4298 126.045 74.1181 135.749 71.8865 145.324L71.8404 145.522L71.8007 145.722C71.6307 146.576 71.3823 147.675 71.0965 148.939C70.2454 152.704 69.0633 157.933 68.6387 162.514C68.0178 169.212 68.4732 178.029 74.2934 185.894L74.45 186.106L74.6153 186.311C77.4909 189.872 81.3645 192.796 86.2978 193.931C91.1424 195.047 95.4867 194.086 98.7282 192.752C104.315 190.453 108.956 185.979 111.289 183.731C111.378 183.645 111.464 183.562 111.547 183.482L111.867 183.174L112.165 182.844C124.629 169.024 132.622 151.675 139.567 136.599C141.245 132.955 142.863 129.444 144.467 126.148L144.49 126.103L144.512 126.057C145.18 124.654 145.844 123.259 146.504 121.871C154.386 105.295 161.782 89.7401 171.549 75.7064C182.539 60.3097 194.254 46.8237 207.539 42.0775C215.37 39.7107 219.114 40.2722 222.755 43.1095L223.119 43.3933L223.503 43.6494C225.427 44.9318 226.437 46.1485 227.13 47.4759C227.9 48.9522 228.615 51.2267 228.975 55.0515L229.014 55.4671L229.08 55.8791C229.446 58.136 229.268 61.0632 228.358 65.1434C227.611 68.4933 226.564 71.865 225.331 75.8376C225.018 76.8459 224.694 77.8929 224.358 78.9881L224.351 79.0115L224.344 79.0349C223.585 81.5522 222.685 84.2774 221.732 87.1615C218.581 96.7014 214.855 107.98 213.747 119.226C213.169 124.823 213.521 133.09 219.248 139.216C226.064 146.506 235.496 145.979 242.493 143.525L243.159 143.292L243.793 142.986C249.397 140.279 254.152 136.763 258.189 133.467C260.094 131.912 261.947 130.314 263.651 128.845L263.953 128.584C265.788 127.002 267.46 125.567 269.13 124.22L269.149 124.205L269.168 124.19C270.435 123.16 271.837 122.003 273.35 120.755C281.743 113.829 293.578 104.065 305.028 97.313C311.922 93.248 317.204 91.1959 320.557 90.8226C321.193 90.7519 321.616 90.759 321.872 90.7806C322.212 91.7363 322.54 93.7367 322.275 97.282C321.993 101.059 321.179 105.125 320.284 109.506L320.258 109.637L320.24 109.726L320.223 109.816C319.579 113.217 318.827 116.651 318.026 120.297L317.989 120.465C317.212 124.001 316.39 127.741 315.671 131.52C314.21 139.198 313.055 147.593 313.428 156.391L313.442 156.718L313.473 157.044C314.045 163.064 315.782 169.938 319.361 176.053C323.007 182.283 328.935 188.262 337.746 190.702L338.096 190.799L338.452 190.876C349.204 193.19 359.923 191.347 368.499 188.783L368.902 188.662L369.296 188.515C381.788 183.844 391.854 175.428 399.911 168.458L399.934 168.438L399.956 168.419C412.595 157.378 423.166 144.644 432.81 132.247C445.032 116.537 456.589 99.7341 466.041 81.6161C466.56 80.884 467.898 78.8231 468.345 75.9405C469.026 71.5563 467.412 67.7591 465.192 65.2384C463.429 63.2368 461.431 62.1676 460.423 61.6728L454.914 72.8934L460.423 61.6728C455.235 59.1258 450.234 60.4352 447.161 62.2951C444.598 63.8464 443.049 65.8782 442.355 66.8629C441.534 68.0286 440.957 69.1245 440.619 69.8172C440.501 70.0583 440.398 70.2794 440.311 70.4736C432.203 85.6956 420.502 102.654 410.717 115.129L410.706 115.142L410.695 115.156C401.581 126.842 392.527 137.667 382.156 146.816C373.42 154.439 366.623 159.844 359.013 162.371C355.761 163.11 352.512 163.691 349.633 163.815C348.15 163.878 346.998 163.808 346.155 163.666C345.557 163.565 345.24 163.45 345.122 163.4C344.774 163.143 343.821 162.227 342.889 159.994C341.923 157.681 341.405 154.919 341.417 152.491C341.723 143.502 343.38 135.808 345.419 126.339C346.059 123.371 346.736 120.228 347.42 116.817L347.441 116.712L347.46 116.608C347.641 115.618 347.872 114.47 348.127 113.207C348.996 108.889 350.136 103.23 350.466 97.982C350.924 90.713 350.123 81.831 344.512 73.6757L344.254 73.3012L343.97 72.9464C335.144 61.9293 322.381 61.3974 312.152 63.9221C302.186 66.3818 291.855 72.1944 282.725 78.3214C273.384 84.5901 264.26 91.9094 256.637 98.2596C253.668 100.733 251.015 102.981 248.662 104.974C247.125 106.277 245.716 107.471 244.431 108.548C244.808 107.209 245.215 105.832 245.649 104.417C246.591 101.344 247.612 98.2331 248.673 95.0002L248.732 94.8191C249.8 91.5662 250.908 88.1848 251.924 84.8396L251.93 84.8221L251.935 84.8046C252.16 84.0545 252.404 83.264 252.66 82.4365C255.164 74.3231 258.767 62.651 256.807 50.6298C256.123 43.4318 254.058 36.8178 250.114 30.9485C246.104 24.9805 240.672 20.557 234.497 17.0729L234.441 17.0414L234.385 17.0104C221.458 9.89051 207.098 12.5198 197.374 15.9124L197.098 16.0086L196.827 16.1175C174.529 25.0861 159.506 44.4433 148.234 60.2524L148.178 60.332L148.122 60.4125C136.476 77.2994 127.743 95.946 119.56 113.416C118.301 116.105 117.054 118.766 115.812 121.389C114.169 124.732 112.669 127.912 111.217 130.995C108.628 136.487 106.186 141.668 103.336 146.899C101.749 149.813 100.142 152.525 98.48 155.025C98.6947 154.047 98.917 153.022 99.1207 152.016C101.194 143.38 104.053 134.914 107.125 125.817C107.34 125.181 107.556 124.542 107.773 123.899C111.041 114.208 114.482 103.805 116.738 92.9186L116.825 92.5017L116.883 92.0799C116.926 91.7656 116.977 91.4104 117.034 91.0206C117.374 88.666 117.898 85.0484 117.884 81.5442C117.866 77.195 117.083 71.5034 113.412 66.1805L113.051 65.6569L112.639 65.1726C107.246 58.8393 99.9384 56.3208 93.5143 55.7984C87.1658 55.2822 80.8276 56.5935 75.601 58.8801L75.4929 58.9273L75.3858 58.9766C67.685 62.5201 62.3566 68.5732 58.8374 72.7986C54.4 78.0565 50.0389 83.6706 46.1086 89.7606L46.0155 89.9049L45.9264 90.0517C36.1921 106.085 27.3415 123.597 22.1264 142.705L22.1015 142.796L22.0779 142.888C17.2256 161.788 12.9058 181.968 12.5353 202.783L12.5353 202.783C12.4118 209.732 12.6383 216.701 12.8527 223.298C12.8896 224.432 12.9261 225.555 12.9604 226.665C13.0006 231.933 16.1462 237.727 22.4163 239.765C27.4492 241.48 32.1701 239.975 35.1801 237.794C38.2173 235.593 40.839 231.809 41.0802 226.973ZM91.7354 83.9927C91.7353 83.9928 91.7304 83.9912 91.7214 83.9875C91.7311 83.9907 91.7356 83.9926 91.7354 83.9927Z" stroke="#D8EEFF" stroke-width="25"/>
<g clip-path="url(#clip0_7001_1818)">
<path d="M269.77 160.5C266.57 183.99 263.38 207.48 260.19 230.96L299.32 231.23C299.41 225.21 299.5 219.19 299.59 213.17L308.35 231.23H344.2C340.07 213.66 335.93 196.08 331.79 178.51L318.84 159.54L269.77 160.5Z" fill="#333333"/>
<path d="M324.56 77.21L301.73 72.76L319.85 99.33L319.89 99.38V99.44L335.9 161.96L361.61 164.8L343.39 94.9C342.24 90.48 339.86 86.47 336.53 83.34C333.2 80.21 329.05 78.09 324.57 77.21H324.56Z" fill="white" stroke="#11181C" stroke-width="0.7"/>
<path d="M333.8 83.31L300.97 72.26L268.67 78.55C269.13 98.62 269.58 118.68 270.04 138.75C268.12 155.63 266.21 172.5 264.29 189.37C287.22 197.71 311.95 199.88 335.98 195.66C334.79 182.34 333.61 169.03 332.42 155.71C332.88 131.57 333.34 107.44 333.79 83.3L333.8 83.31Z" fill="#FF7A00"/>
<path d="M359.46 179.54C364.34 174.93 363.64 163.65 360.33 160.3L298.53 148.45L293.95 159.97L343.78 180.57H343.8L343.82 180.59C349.22 183.72 355.69 183.1 359.46 179.54Z" fill="white"/>
<path d="M363.31 169.7C363.38 165.59 361.92 161.29 360.48 159.34L359.94 158.87L360.05 160.25C359.9 159.76 360.26 160.71 360.05 160.25C361.26 162.09 362.66 166.37 362.6 169.69C362.53 173.82 361.29 177.31 359.21 179.28C355.48 182.81 349.08 183.23 344 180.28L294.4 159.77L298.74 148.84L345.7 157.84C345.61 157.59 345.53 157.34 345.48 157.08L298.3 148.03L293.49 160.14L343.64 180.87C346.01 182.25 348.66 182.92 351.21 182.92C354.42 182.92 357.49 181.85 359.69 179.77C361.91 177.67 363.23 173.99 363.3 169.68L363.31 169.7Z" fill="#11181C"/>
<path d="M286.08 70.53C282.42 70.04 278.7 70.59 275.35 72.13C272 73.67 269.15 76.13 267.14 79.22L240.58 120.12L229.35 82.22L230.76 69.36C230.83 68.75 230.76 68.13 230.55 67.55C230.34 66.97 230 66.45 229.56 66.02L226.58 63.16L224.16 70.94L225.38 72.01L225.54 72.15L225.5 72.35L225.44 72.64C224.98 72.22 224.5 71.86 223.99 71.55L216.65 95.11C216.62 95.2 216.56 95.29 216.47 95.33L215.18 96.01C217.56 114.1 219.95 132.19 222.33 150.28C223.52 156.64 228.78 161.24 234.59 161.48C239.88 161.7 242.96 158.6 247.08 153.11C264.7 126.82 283.49 100.08 303.45 72.89L286.1 70.54L286.08 70.53Z" fill="white" stroke="#11181C" stroke-width="0.7"/>
<path d="M300.97 72.25L327.68 76.36C331.44 76.94 334.98 78.52 337.92 80.93C340.86 83.34 343.11 86.5 344.42 90.07L360.89 135.01C351.58 141.26 340.86 145.09 329.69 146.14L313.37 100.72L300.96 72.26L300.97 72.25Z" fill="#FF7A00"/>
<path d="M308.17 73.24L283.87 69.02C280.18 68.38 276.39 68.82 272.94 70.28C269.49 71.74 266.54 74.16 264.44 77.26L242.49 109.54C247.58 118 254.82 124.96 263.47 129.71C291.44 94.39 281.22 107.31 308.17 73.23V73.24Z" fill="#FF7A00"/>
<path d="M311.13 56.05L299.61 56.32C299.61 56.32 299.65 72.52 299.67 72.63C299.73 73.2 299.86 73.94 300.13 74.68C300.4 75.42 300.8 76.14 301.39 76.66C301.97 77.18 302.75 77.53 303.83 77.52C306.05 77.5 307.82 76.53 309.05 75.56C309.66 75.07 310.4 74.32 310.72 73.96C310.82 73.85 311.13 56.04 311.13 56.04V56.05Z" fill="white" stroke="#11181C" stroke-width="0.7"/>
<path d="M312.55 58.03L312.58 57.97L312.63 57.93C314.32 56.51 315.64 54.7 316.46 52.65C317.28 50.6 317.58 48.38 317.33 46.19C317.08 44 316.29 41.9 315.04 40.09C313.78 38.28 312.1 36.8 310.13 35.8C308.16 34.8 305.98 34.3 303.77 34.35C301.56 34.4 299.4 34.99 297.48 36.08C295.56 37.17 293.94 38.71 292.76 40.58C291.58 42.45 290.89 44.58 290.74 46.78C290.72 47.03 290.71 47.23 290.7 47.43C290.66 48.64 290.89 49.87 292.45 60.8C293.02 64.81 296.4 68.28 300.63 68.14H300.64C303.1 68.16 305.14 67.14 306.91 65.57C308.69 64 310.18 61.89 311.53 59.77C311.84 59.28 312.18 58.7 312.53 58.05L312.55 58.03Z" fill="white" stroke="#11181C" stroke-width="0.7"/>
<path d="M300.62 64.58C299.9 64.58 299.32 63.79 299.32 62.81C299.32 61.83 299.9 61.04 300.62 61.04C301.34 61.04 301.92 61.83 301.92 62.81C301.92 63.79 301.34 64.58 300.62 64.58Z" fill="#262246"/>
<path d="M300.41 59.92C300.49 59.92 300.56 59.89 300.62 59.84C300.68 59.79 300.71 59.71 300.71 59.64C300.71 59.56 300.68 59.49 300.63 59.43C300.58 59.37 300.5 59.34 300.43 59.34C298.63 59.24 298.67 59.28 298.57 59.13C298.46 58.98 298.42 59.26 299.83 54.43C299.84 54.39 299.85 54.35 299.85 54.31C299.85 54.27 299.84 54.23 299.82 54.2C299.8 54.16 299.78 54.13 299.75 54.11C299.72 54.08 299.68 54.07 299.65 54.05C299.62 54.03 299.57 54.04 299.53 54.05C299.49 54.05 299.45 54.07 299.42 54.09C299.39 54.11 299.36 54.14 299.33 54.17C299.31 54.2 299.29 54.24 299.28 54.28L297.98 58.73C297.94 58.86 297.94 58.99 297.96 59.12C297.98 59.25 298.03 59.37 298.11 59.48C298.19 59.59 298.28 59.67 298.4 59.74C298.51 59.8 298.64 59.84 298.77 59.85C300.98 59.97 300.3 59.94 300.43 59.94L300.41 59.92ZM295.5 52.32C295.73 52.34 295.95 52.42 296.13 52.56C296.31 52.7 296.45 52.89 296.52 53.11C296.59 53.33 296.6 53.56 296.54 53.78C296.48 54 296.35 54.2 296.18 54.35C296.01 54.5 295.79 54.6 295.56 54.63C295.33 54.66 295.1 54.63 294.9 54.52C294.69 54.42 294.52 54.26 294.41 54.06C294.3 53.86 294.24 53.63 294.26 53.4C294.26 53.25 294.31 53.1 294.38 52.96C294.45 52.82 294.54 52.7 294.66 52.6C294.78 52.5 294.91 52.42 295.06 52.37C295.21 52.32 295.36 52.3 295.51 52.31L295.5 52.32ZM304.32 52.93C304.55 52.95 304.77 53.03 304.95 53.17C305.13 53.31 305.27 53.5 305.34 53.72C305.41 53.94 305.42 54.17 305.36 54.39C305.3 54.61 305.18 54.81 305 54.96C304.83 55.11 304.61 55.21 304.38 55.24C304.15 55.27 303.92 55.24 303.71 55.13C303.5 55.03 303.33 54.87 303.22 54.67C303.11 54.47 303.05 54.24 303.07 54.01C303.07 53.86 303.12 53.71 303.19 53.57C303.26 53.43 303.35 53.31 303.47 53.21C303.58 53.11 303.72 53.03 303.86 52.98C304.01 52.93 304.16 52.91 304.31 52.92L304.32 52.93ZM303.79 49.18C307.16 48.59 308.24 51.12 308.01 51.36C307.79 51.57 306.93 50.28 305.45 50.16C304.17 50.06 303.28 50.89 302.69 50.38C302.68 50.37 302.41 50.13 302.45 49.87C302.53 49.41 303.5 49.23 303.8 49.18H303.79ZM296.45 48.62C296.73 48.71 297.67 49.04 297.68 49.5C297.68 49.76 297.38 49.96 297.37 49.97C296.72 50.38 295.96 49.43 294.68 49.34C293.2 49.24 292.15 50.38 291.97 50.14C291.79 49.9 293.2 47.53 296.46 48.62H296.45Z" fill="#262246"/>
<path d="M304.37 58.34C305.21 58.34 306.03 58.09 306.73 57.62C307.43 57.15 307.97 56.49 308.3 55.71C308.62 54.93 308.7 54.08 308.54 53.26C308.38 52.44 307.97 51.68 307.38 51.09C306.79 50.5 306.03 50.09 305.2 49.93C304.38 49.77 303.52 49.85 302.75 50.17C301.97 50.49 301.31 51.04 300.84 51.73C300.37 52.43 300.12 53.25 300.12 54.09C300.12 55.22 300.57 56.3 301.36 57.09C302.16 57.89 303.24 58.33 304.36 58.34H304.37ZM304.37 50.43C305.09 50.43 305.8 50.65 306.41 51.05C307.01 51.45 307.48 52.03 307.76 52.7C308.04 53.37 308.11 54.11 307.97 54.82C307.83 55.53 307.48 56.18 306.97 56.7C306.46 57.21 305.8 57.56 305.09 57.7C304.38 57.84 303.64 57.77 302.97 57.49C302.3 57.21 301.73 56.74 301.32 56.14C300.92 55.54 300.7 54.83 300.7 54.1C300.7 53.13 301.09 52.2 301.77 51.51C302.46 50.82 303.39 50.44 304.36 50.44L304.37 50.43ZM294.25 58.09C295.09 58.09 295.91 57.84 296.61 57.37C297.31 56.9 297.85 56.24 298.18 55.46C298.5 54.68 298.58 53.83 298.42 53.01C298.26 52.19 297.85 51.43 297.26 50.84C296.67 50.25 295.91 49.84 295.08 49.68C294.26 49.52 293.4 49.6 292.63 49.92C291.85 50.24 291.19 50.79 290.72 51.49C290.25 52.19 290 53.01 290.01 53.85C290.01 54.98 290.46 56.06 291.26 56.85C292.06 57.65 293.14 58.09 294.26 58.09H294.25ZM294.25 50.18C294.97 50.18 295.68 50.4 296.29 50.8C296.89 51.2 297.36 51.78 297.64 52.45C297.92 53.12 297.99 53.86 297.85 54.57C297.71 55.28 297.36 55.93 296.85 56.45C296.34 56.96 295.68 57.31 294.97 57.45C294.26 57.59 293.52 57.52 292.85 57.24C292.18 56.96 291.61 56.49 291.2 55.89C290.79 55.29 290.58 54.58 290.58 53.85C290.58 52.88 290.97 51.95 291.65 51.26C292.34 50.57 293.27 50.19 294.24 50.18H294.25Z" fill="#FF7A00"/>
<path d="M311.21 56.28L309.92 48.34C309.92 48.34 306.43 46.87 307.32 42.62C307.32 42.62 301.61 45.36 301.22 39.13C301.22 39.13 298.37 38.31 297.68 40.22C296.99 42.13 296.81 43.85 294.81 44.12C292.81 44.39 292.34 43.09 292.34 43.09C292.34 43.09 294.6 48.57 289.47 48.33C284.34 48.08 280.65 41.92 285.37 38.95C285.37 38.95 284.88 32.97 290.71 34.61C290.71 34.61 289.61 25.31 299.67 29.55C299.67 29.55 301.04 25.14 305.69 28.44C305.69 28.44 311.78 26.54 314.04 32.28C314.04 32.28 318.9 31.12 318.21 36.32C318.21 36.32 326.48 38.46 321.77 45.28C321.77 45.28 325.59 49.38 320.13 51.37C320.13 51.37 321.93 55.41 317.78 55.25C317.78 55.25 319.82 64.23 311.15 64.57L311.22 56.26L311.21 56.28Z" fill="#11181C"/>
<path d="M309.69 54.29C308.72 55.87 309.05 57.72 310.29 58.48C311.54 59.24 313.34 58.71 314.32 57.14C315.29 55.57 314.95 53.71 313.71 52.95C312.47 52.19 310.66 52.72 309.69 54.29Z" fill="white" stroke="#11181C" stroke-width="0.7"/>
<path d="M311.21 57.89C311.47 57.82 311.72 57.7 311.92 57.52C312.12 57.34 312.28 57.11 312.38 56.86C312.48 56.61 312.51 56.33 312.48 56.06C312.45 55.79 312.35 55.53 312.19 55.31L313.59 55.41C313.59 55.41 313.67 55.41 313.7 55.4C313.74 55.39 313.77 55.37 313.8 55.34C313.86 55.29 313.89 55.22 313.9 55.14C313.9 55.06 313.88 54.99 313.83 54.93C313.78 54.87 313.71 54.84 313.63 54.83L311.33 54.67C311.26 54.67 311.19 54.68 311.14 54.72C311.08 54.76 311.04 54.82 311.03 54.89C311.01 54.96 311.03 55.03 311.05 55.09C311.08 55.15 311.13 55.2 311.2 55.23C311.42 55.32 311.6 55.47 311.73 55.67C311.85 55.87 311.91 56.1 311.9 56.34C311.88 56.58 311.79 56.8 311.64 56.98C311.49 57.16 311.28 57.29 311.05 57.34C310.98 57.36 310.91 57.41 310.87 57.47C310.83 57.53 310.82 57.62 310.84 57.69C310.86 57.76 310.91 57.83 310.97 57.87C311.04 57.91 311.12 57.92 311.19 57.9L311.21 57.89Z" fill="#262246"/>
<path d="M308.32 54.39C308.43 54.39 308.18 54.51 312.52 52.16C312.59 52.12 312.64 52.06 312.66 51.99C312.68 51.92 312.67 51.84 312.64 51.77C312.6 51.7 312.54 51.65 312.47 51.63C312.4 51.61 312.32 51.62 312.25 51.65L308.19 53.85C308.13 53.88 308.09 53.93 308.06 53.99C308.03 54.05 308.03 54.12 308.04 54.18C308.06 54.24 308.09 54.3 308.14 54.34C308.19 54.38 308.25 54.4 308.32 54.4V54.39ZM300.41 54.39C300.46 54.39 300.52 54.37 300.56 54.35C300.61 54.32 300.64 54.28 300.67 54.23C300.7 54.18 300.7 54.13 300.7 54.07C300.7 54.02 300.68 53.96 300.64 53.92C300.49 53.72 300.31 53.56 300.09 53.43C299.88 53.31 299.64 53.23 299.39 53.2C299.15 53.17 298.9 53.2 298.66 53.26C298.42 53.33 298.21 53.45 298.02 53.61C297.99 53.63 297.96 53.66 297.94 53.7C297.92 53.73 297.91 53.77 297.9 53.81C297.9 53.85 297.9 53.89 297.9 53.93C297.91 53.97 297.93 54 297.95 54.03C297.98 54.06 298.01 54.09 298.04 54.1C298.08 54.12 298.11 54.13 298.15 54.13C298.19 54.13 298.23 54.13 298.27 54.11C298.31 54.1 298.34 54.08 298.37 54.05C298.5 53.94 298.65 53.86 298.81 53.81C298.97 53.76 299.14 53.75 299.31 53.77C299.48 53.79 299.64 53.84 299.78 53.93C299.92 54.01 300.05 54.13 300.15 54.26C300.18 54.3 300.21 54.33 300.25 54.35C300.29 54.37 300.34 54.38 300.38 54.38L300.41 54.39ZM332.17 144.22L331.81 99.23C331.81 98.83 331.23 98.86 331.23 99.23C331.23 99.53 331.59 144.02 331.59 144.22C331.59 144.3 331.62 144.37 331.67 144.43C331.73 144.48 331.8 144.52 331.88 144.52C331.96 144.52 332.03 144.49 332.09 144.43C332.15 144.37 332.18 144.3 332.18 144.22H332.17ZM269.66 122.29C269.74 122.29 269.81 122.26 269.87 122.21C269.92 122.15 269.95 122.08 269.95 122V86.8C269.95 86.72 269.92 86.65 269.87 86.59C269.81 86.54 269.74 86.5 269.66 86.5C269.58 86.5 269.51 86.53 269.45 86.59C269.4 86.64 269.37 86.72 269.37 86.8V122C269.37 122.08 269.4 122.15 269.45 122.21C269.51 122.26 269.58 122.29 269.66 122.29Z" fill="#11181C"/>
<path d="M251.92 154.41H313.73C313.89 154.41 314.05 154.38 314.2 154.31C314.35 154.24 314.48 154.15 314.59 154.02C314.7 153.9 314.78 153.76 314.83 153.6C314.88 153.44 314.9 153.28 314.88 153.12L309.25 102.45C309.22 102.17 309.08 101.9 308.87 101.71C308.66 101.52 308.38 101.41 308.1 101.41H245.87C245.71 101.41 245.54 101.44 245.39 101.51C245.24 101.58 245.11 101.68 245 101.8C244.89 101.92 244.81 102.07 244.76 102.22C244.71 102.38 244.7 102.54 244.71 102.71L250.75 153.39C250.79 153.67 250.92 153.93 251.13 154.12C251.34 154.31 251.62 154.41 251.9 154.41H251.92Z" fill="#6A8AFF"/>
<path d="M339.07 150.55H250.88V154.45C250.88 154.68 250.97 154.9 251.14 155.07C251.3 155.23 251.53 155.33 251.76 155.33H339.07V150.55Z" fill="#6A8AFF"/>
<path d="M277.97 134.92C274.33 134.92 271.37 131.97 271.37 128.32C271.37 124.67 274.32 121.72 277.97 121.72C281.62 121.72 284.57 124.67 284.57 128.32C284.57 131.97 281.62 134.92 277.97 134.92Z" fill="white"/>
<path d="M311.52 153.53H311.51L301.39 153.86H301.05L301.03 153.53L300.55 146.04C300.47 145.63 300.25 145.25 299.95 144.96C299.64 144.67 299.24 144.48 298.81 144.43C297.84 144.34 296.87 145.05 296.66 146.13C296.25 148.41 295.84 150.69 295.43 152.97L294.74 152.93C294.62 150.69 294.51 148.46 294.4 146.22C294.38 145.74 294.19 145.28 293.86 144.94C293.53 144.6 293.08 144.39 292.6 144.36C292.12 144.33 291.65 144.48 291.28 144.78C290.91 145.08 290.66 145.5 290.59 145.97C290.32 148.38 290.04 150.8 289.77 153.21H289.08C288.74 150.79 288.4 148.37 288.06 145.94C287.5 144.54 286.11 144.03 285.25 144.39C284.68 144.63 284.25 145.3 284.17 146.13C284.28 148.36 284.4 150.58 284.51 152.81L283.82 152.92L282.83 149.43L281.85 145.97C281.41 145.02 280.39 144.57 279.55 144.82C279.2 144.94 278.89 145.15 278.65 145.44C278.42 145.72 278.27 146.06 278.22 146.42C278.49 150.38 278.76 154.34 279.04 158.3C279.04 158.31 279.05 158.32 279.06 158.34C279.08 158.39 279.11 158.45 279.16 158.53C279.25 158.69 279.38 158.89 279.55 159.1C279.9 159.52 280.45 159.95 281.22 160.09C282.66 160.35 283.69 159.39 283.79 159.29L284.08 159L284.32 159.34C284.58 159.71 284.92 160.02 285.32 160.24C285.72 160.46 286.16 160.59 286.61 160.62C287.06 160.65 287.52 160.58 287.94 160.41C288.36 160.24 288.74 159.98 289.05 159.65L289.25 159.43L289.5 159.59C290.29 160.11 291.21 160.4 292.15 160.42C293.1 160.44 294.03 160.19 294.84 159.71L295.13 159.53L295.31 159.82C296.6 161.84 299.54 161.35 300.16 159.05L300.23 158.8H300.49L312.06 158.24C312.67 158.16 313.22 157.85 313.6 157.37C313.99 156.89 314.17 156.27 314.1 155.66C314.04 155.05 313.74 154.48 313.26 154.08C312.79 153.68 312.17 153.49 311.56 153.54L311.52 153.53Z" fill="white" stroke="#11181C" stroke-width="0.7"/>
<path d="M284 159.83C284.08 159.83 284.15 159.8 284.21 159.74C284.27 159.69 284.3 159.61 284.3 159.53L284.44 152.83C284.44 152.46 283.87 152.41 283.86 152.82L283.72 159.52C283.72 159.52 283.72 159.6 283.74 159.64C283.75 159.68 283.77 159.71 283.8 159.74C283.83 159.77 283.86 159.79 283.9 159.81C283.94 159.82 283.98 159.83 284.01 159.83H284ZM289.46 159.83C289.54 159.83 289.61 159.8 289.67 159.74C289.72 159.69 289.76 159.61 289.76 159.53V152.68C289.76 152.6 289.73 152.53 289.67 152.47C289.61 152.42 289.54 152.38 289.46 152.38C289.38 152.38 289.31 152.41 289.26 152.47C289.2 152.52 289.17 152.6 289.17 152.68V159.53C289.17 159.61 289.2 159.68 289.26 159.74C289.31 159.8 289.39 159.83 289.46 159.83Z" fill="#11181C"/>
<path d="M294.98 160.3C295.06 160.3 295.13 160.27 295.19 160.22C295.25 160.17 295.28 160.09 295.28 160.01L295.47 152.41C295.47 152.33 295.44 152.26 295.39 152.2C295.34 152.14 295.26 152.11 295.19 152.11C295.11 152.11 295.04 152.14 294.98 152.19C294.92 152.24 294.89 152.32 294.89 152.39L294.7 159.99C294.7 159.99 294.7 160.07 294.72 160.1C294.73 160.14 294.76 160.17 294.78 160.2C294.81 160.23 294.84 160.25 294.88 160.27C294.92 160.28 294.96 160.29 294.99 160.29L294.98 160.3ZM240.68 119.69C240.66 119.62 240.61 119.56 240.54 119.52C240.47 119.49 240.4 119.48 240.32 119.5C240.25 119.52 240.19 119.57 240.15 119.63C240.11 119.7 240.1 119.77 240.12 119.85L245.23 137.68C245.25 137.74 245.28 137.79 245.33 137.83C245.38 137.87 245.44 137.89 245.5 137.89C245.55 137.89 245.59 137.88 245.63 137.86C245.67 137.84 245.71 137.81 245.73 137.78C245.76 137.74 245.78 137.7 245.78 137.66C245.78 137.62 245.78 137.57 245.78 137.53" fill="#11181C"/>
<path d="M299.59 213.47C299.65 213.47 299.7 213.45 299.75 213.42C299.8 213.39 299.84 213.34 299.86 213.29C299.88 213.24 299.89 213.18 299.88 213.12C299.87 213.06 299.84 213.01 299.8 212.97L291.32 204.49C291.27 204.44 291.19 204.4 291.11 204.4C291.03 204.4 290.96 204.43 290.9 204.49C290.85 204.54 290.82 204.62 290.82 204.7C290.82 204.78 290.85 204.85 290.9 204.91C299.96 213.96 299.41 213.48 299.59 213.48V213.47Z" fill="#11181C"/>
<path d="M235.4 39.86L230.87 54.36C230.79 54.61 230.61 54.82 230.38 54.95C229.35 55.5 228.61 55.9 227.65 56.39C227.16 56.65 226.96 57.25 227.22 57.75L228.66 60.49C228.78 60.72 228.81 61 228.73 61.25L216.62 100.21C216.54 100.47 216.36 100.68 216.12 100.8C214.9 101.43 214.08 101.86 212.88 102.5C212.64 102.63 212.36 102.66 212.1 102.58L183.91 93.76C183.66 93.68 183.45 93.51 183.32 93.27L181.6 90.01C181.48 89.78 181.45 89.5 181.53 89.25L193.68 50.3C193.76 50.04 193.95 49.83 194.19 49.7C195.22 49.18 195.98 48.77 196.92 48.26C197.4 48 197.59 47.4 197.34 46.91L195.89 44.16C195.77 43.93 195.74 43.65 195.82 43.4L200.33 28.94C200.41 28.69 200.59 28.47 200.83 28.35C202.06 27.71 202.89 27.27 204.09 26.62C204.33 26.49 204.61 26.46 204.87 26.54L233.05 35.36C233.3 35.44 233.52 35.62 233.64 35.85L235.33 39.09C235.45 39.32 235.48 39.6 235.4 39.85V39.86Z" fill="white" stroke="#11181C"/>
<path d="M223.8 60.99L212.38 97.64L200.19 93.83L211.61 57.18L223.8 60.99Z" fill="#FFCE6D"/>
<path d="M202.54 67.72L203.94 68.16L207.75 55.93L206.37 55.52L202.54 67.72Z" fill="#020302"/>
<path d="M194.93 92.18L196.33 92.62L202.52 72.75L201.12 72.31L194.93 92.18Z" fill="#020302"/>
<path d="M195.12 75.48L196.5 75.89L203.17 54.51L201.77 54.07L195.13 75.47L195.12 75.48Z" fill="#020302"/>
<path d="M190.37 90.73L191.75 91.19L195.08 80.48L193.68 80.04L190.37 90.73Z" fill="#020302"/>
<path d="M185.79 89.31L187.19 89.75L195.27 63.78L193.87 63.34L185.79 89.31Z" fill="#020302"/>
<path d="M221.98 55.73L225 56.68C225 56.68 225.09 56.7 225.14 56.7C225.19 56.7 225.23 56.68 225.28 56.66C225.32 56.64 225.36 56.61 225.39 56.57C225.42 56.53 225.45 56.49 225.46 56.45C225.48 56.4 225.48 56.36 225.48 56.31C225.48 56.26 225.46 56.22 225.44 56.17C225.42 56.13 225.39 56.09 225.35 56.06C225.31 56.03 225.27 56 225.23 55.99L222.18 55.02C222.09 55 221.99 55.02 221.91 55.06C221.83 55.11 221.77 55.18 221.74 55.27C221.72 55.32 221.72 55.36 221.72 55.41C221.72 55.46 221.74 55.5 221.76 55.55C221.78 55.59 221.81 55.63 221.85 55.66C221.89 55.69 221.93 55.72 221.97 55.73H221.98ZM217.42 54.28L220.49 55.4C220.49 55.4 220.58 55.42 220.63 55.42C220.68 55.42 220.72 55.4 220.77 55.38C220.81 55.36 220.85 55.33 220.88 55.29C220.91 55.25 220.94 55.21 220.95 55.17C220.93 55.09 220.89 55.01 220.82 54.96C220.75 54.91 220.67 54.88 220.58 54.88L217.53 53.91C217.44 53.89 217.34 53.91 217.26 53.95C217.18 53.99 217.12 54.07 217.09 54.16C217.13 54.21 217.18 54.24 217.23 54.26C217.29 54.28 217.35 54.29 217.41 54.27L217.42 54.28ZM212.84 52.86L215.86 53.81C215.86 53.81 215.95 53.83 216 53.83C216.05 53.83 216.09 53.81 216.14 53.79C216.18 53.77 216.22 53.74 216.25 53.7C216.28 53.66 216.31 53.62 216.32 53.58C216.34 53.53 216.34 53.49 216.34 53.44C216.34 53.39 216.32 53.35 216.3 53.3C216.28 53.25 216.25 53.22 216.21 53.19C216.17 53.16 216.13 53.13 216.09 53.12L213.02 52.18C212.93 52.16 212.83 52.18 212.75 52.22C212.67 52.27 212.61 52.34 212.58 52.43C212.56 52.47 212.56 52.52 212.56 52.57C212.56 52.62 212.58 52.66 212.6 52.71C212.62 52.75 212.66 52.79 212.7 52.81C212.74 52.84 212.78 52.86 212.83 52.86H212.84ZM208.26 51.44L211.33 52.38C211.42 52.41 211.52 52.4 211.61 52.36C211.7 52.32 211.76 52.24 211.79 52.15C211.82 52.06 211.81 51.96 211.77 51.87C211.73 51.78 211.65 51.72 211.56 51.69L208.51 50.72C208.51 50.72 208.42 50.7 208.37 50.7C208.32 50.7 208.28 50.72 208.23 50.74C208.19 50.76 208.15 50.8 208.13 50.84C208.1 50.88 208.08 50.92 208.08 50.97C208.04 51.06 208.04 51.15 208.08 51.24C208.11 51.33 208.18 51.4 208.26 51.44ZM203.7 49.99L206.77 50.93C206.77 50.93 206.86 50.95 206.91 50.95C206.96 50.95 207 50.93 207.05 50.91C207.09 50.89 207.13 50.86 207.16 50.82C207.19 50.78 207.21 50.74 207.23 50.7C207.25 50.61 207.23 50.51 207.19 50.43C207.14 50.35 207.07 50.29 206.98 50.26L203.93 49.29C203.93 49.29 203.84 49.27 203.79 49.27C203.74 49.27 203.7 49.29 203.65 49.31C203.6 49.33 203.57 49.36 203.54 49.4C203.51 49.44 203.49 49.48 203.47 49.52C203.45 49.61 203.46 49.71 203.5 49.79C203.54 49.87 203.61 49.94 203.7 49.98V49.99ZM199.12 48.57L202.17 49.54C202.17 49.54 202.26 49.56 202.31 49.56C202.36 49.56 202.4 49.54 202.45 49.52C202.49 49.5 202.53 49.47 202.56 49.43C202.59 49.39 202.62 49.35 202.63 49.31C202.65 49.26 202.65 49.22 202.65 49.17C202.65 49.12 202.63 49.08 202.61 49.03C202.59 48.98 202.56 48.95 202.52 48.92C202.48 48.89 202.44 48.86 202.4 48.85L199.33 47.91C199.33 47.91 199.24 47.89 199.19 47.89C199.14 47.89 199.1 47.91 199.05 47.93C199.01 47.95 198.97 47.98 198.94 48.02C198.91 48.06 198.89 48.1 198.87 48.14C198.86 48.23 198.87 48.32 198.92 48.4C198.97 48.48 199.04 48.54 199.12 48.57Z" fill="#11181C"/>
<path d="M228.46 37.31L223.72 52.58L222.59 52.23L227.33 36.96L228.46 37.31Z" fill="#11181C"/>
<path d="M226.02 36.54L221.25 51.8L218.95 51.08L223.72 35.82L226.02 36.54Z" fill="#11181C"/>
<path d="M217.63 33.89L212.86 49.15L210.56 48.43L215.33 33.17L217.63 33.89Z" fill="#11181C"/>
<path d="M213.81 32.7L209.05 47.96L205.24 46.77L210 31.51L213.81 32.7Z" fill="#11181C"/>
<path d="M222.37 35.38L217.62 50.65L216.49 50.3L221.24 35.03L222.37 35.38Z" fill="#11181C"/>
<path d="M220.09 34.69L215.34 49.96L214.21 49.61L218.96 34.34L220.09 34.69Z" fill="#11181C"/>
<path d="M208.62 31.09L203.88 46.36L202.75 46.01L207.49 30.74L208.62 31.09Z" fill="#11181C"/>
<path d="M223.07 59.77C222.89 59.59 222.55 59.4 222.1 59.25C221.66 59.1 221.13 58.99 220.58 58.96C219.47 58.89 218.35 59.14 217.66 59.87C217.14 60.42 216.86 61.27 216.89 62.29C216.93 63.29 217.27 64.42 217.96 65.51L226.02 73.19L228.44 65.41L223.07 59.78V59.77Z" fill="white"/>
<path d="M218.26 65.3C217.64 64.33 217.28 63.25 217.24 62.26C217.21 61.35 217.44 60.59 217.91 60.1C218.4 59.58 219.24 59.29 220.23 59.29C220.33 59.29 220.44 59.29 220.55 59.29C221.05 59.32 221.54 59.41 221.98 59.57C222.35 59.7 222.67 59.86 222.82 60.01C222.82 60.01 229.18 66.15 229.23 66.19L229.44 65.49L223.32 59.51C223.09 59.28 222.7 59.06 222.22 58.9C221.72 58.73 221.16 58.62 220.6 58.59C219.24 58.51 218.11 58.87 217.41 59.6C216.81 60.23 216.51 61.18 216.55 62.27C216.59 63.38 216.99 64.58 217.73 65.73L226.19 73.8L226.46 72.95C226.28 72.82 218.27 65.29 218.27 65.29L218.26 65.3Z" fill="#11181C"/>
</g>
<path d="M379.475 49.3953L375.179 46.1389C375.207 46.0816 375.231 46.0225 375.25 45.9619L375.249 45.9603C375.518 45.6636 375.665 45.2763 375.66 44.876C375.66 44.0619 375.093 43.4018 374.394 43.4018C374.394 43.4018 373.666 43.0351 372.064 43.7774L369.675 41.9667C369.931 41.529 370.635 41.1692 370.635 41.1692C370.635 41.1692 373.999 39.7796 376.883 38.3606C379.768 36.9415 378.702 34.798 378.702 34.798C378.643 34.7196 378.582 34.6451 378.518 34.5744C376.013 31.7902 370.076 34.798 370.076 34.798C370.076 34.798 366.314 36.3065 361.978 38.0777C361.807 37.4991 361.337 37.0826 360.782 37.0826C360.782 37.0826 360.217 36.7981 358.988 37.2372L342.107 31.2332C341.673 31.0789 341.216 31 340.755 31H339.106C339.084 31 339.061 31.0073 339.043 31.021C339.025 31.0346 339.011 31.0537 339.005 31.0756C338.998 31.0974 338.999 31.1209 339.006 31.1424C339.014 31.1639 339.028 31.1823 339.047 31.195L340.415 32.1067C341.314 32.706 342.253 33.243 343.226 33.7138L345.44 34.7857C345.191 35.135 344.716 35.9031 345.073 36.2369C345.328 36.475 346.174 35.9864 346.894 35.4894L349.808 36.8999L349.511 43.3797C349.365 43.4554 349.226 43.5303 349.095 43.6044L343.401 41.5115C343.19 41.4341 342.967 41.3944 342.743 41.3944H341.199C341.173 41.3944 341.147 41.4033 341.126 41.4197C341.106 41.4361 341.091 41.459 341.085 41.4846C341.079 41.5103 341.082 41.5372 341.093 41.5611C341.105 41.5849 341.124 41.6042 341.147 41.6159L341.384 41.7328L347.493 44.7509L347.493 44.7509C347.171 45.0355 346.922 45.3944 346.769 45.7965C346.734 45.8908 346.717 45.9908 346.719 46.0914L350.795 46.3857L354.934 48.074H356.314L354.372 46.3243C356.65 46.1531 358.902 45.7248 361.084 45.0474C361.559 45.0969 362.038 45.0935 362.512 45.0371C362.897 44.9953 363.279 44.9281 363.655 44.8361C364.722 44.9911 365.774 45.2313 366.803 45.5546C366.642 45.9651 366.52 46.4888 366.825 46.6945C367.058 46.8511 367.594 46.4835 368.124 46.0191C368.257 46.071 368.39 46.1222 368.523 46.1768L370.129 46.8398C369.979 47.2415 369.879 47.7301 370.172 47.9271C370.388 48.0728 370.867 47.7649 371.359 47.3475L373.577 48.2631C373.406 48.6427 373.288 49.0942 373.553 49.3057C373.764 49.4739 374.294 49.1804 374.838 48.7833L378.08 50.1217C378.234 50.1853 378.401 50.2121 378.567 50.2C378.734 50.1879 378.895 50.1371 379.038 50.0518L379.452 49.8052C379.46 49.8008 379.467 49.796 379.474 49.7909C379.505 49.7679 379.53 49.7382 379.547 49.7039C379.564 49.6696 379.573 49.6318 379.573 49.5935C379.573 49.5551 379.565 49.5172 379.548 49.4828C379.531 49.4484 379.506 49.4184 379.475 49.3953ZM353.127 41.755L352.293 38.1025L354.089 38.972C354.479 39.1589 354.823 39.4304 355.094 39.7668C355.32 40.0477 355.51 40.3966 355.488 40.7571C354.65 41.108 353.855 41.4439 353.127 41.755ZM345.732 35.4146C345.732 35.4146 345.546 35.3785 345.799 34.9591L346.357 35.2295C346.097 35.3564 345.855 35.4456 345.732 35.4146ZM367.346 45.7786C367.327 45.7759 367.31 45.7675 367.296 45.7546C367.282 45.7417 367.273 45.7249 367.269 45.7064C367.326 45.7258 367.383 45.7462 367.44 45.7661C367.41 45.7753 367.378 45.7796 367.346 45.7786Z" fill="#6A8AFF"/>
<defs>
<clipPath id="clip0_7001_1818">
<rect width="182.31" height="205.24" fill="white" transform="translate(181 26)"/>
</clipPath>
</defs>
</svg>
