<svg width="226" height="145" viewBox="0 0 226 145" fill="none" xmlns="http://www.w3.org/2000/svg">
<path d="M30.4204 54.2191H111.609V143.438H0.0828857V84.6657C0.0828857 76.5908 3.27915 68.8466 8.96853 63.1367C14.6579 57.4269 22.3744 54.2191 30.4204 54.2191Z" fill="#FF7A00"/>
<path d="M11.6495 143.438V81.4654C11.6495 66.681 23.6458 54.6985 38.4644 54.6985" stroke="white" stroke-width="1.31339" stroke-linecap="round" stroke-linejoin="round"/>
<path d="M81.3554 61L53.5895 72.7811C46.3547 75.8505 40.5149 81.5091 37.2048 88.6579C37.2048 88.6579 10.826 123.78 19.8996 143.192H170.241L148.607 84.3981C147.282 80.7989 144.598 77.8681 141.136 76.2397L114.415 64.2353L81.3554 61Z" fill="#1150CB"/>
<path d="M60.9476 69.9886L66.6426 84.8497L77.9845 86.5264L69.0637 91.0598C69.0637 91.0598 78.7196 105.982 83.2803 115.06M136.653 74.2878L134.472 87.3342L123.688 91.2503L133.322 93.9033C133.322 93.9033 122.938 122.205 122.534 127.782M42.5606 113.74C50.5872 112.427 89.6318 115.612 89.6318 115.612L87.8171 118.781M60.9476 113.313L64.3 101.768" stroke="#11181C" stroke-width="1.31339" stroke-linecap="round" stroke-linejoin="round"/>
<path d="M57 143C57 143 55.6038 123.726 71.0725 114.3" stroke="#11181C" stroke-width="1.31339" stroke-linecap="round" stroke-linejoin="round"/>
<path d="M79.8996 61.2633L73.8426 64.0411C73.8426 64.0411 97.6824 97.4451 94.3475 130.937C98.4153 138.957 116.497 130.937 116.497 130.937L120.918 66.6329L113.653 63.3319L79.8996 61.2633Z" fill="white"/>
<path d="M117.468 116.629C113.429 117.268 109.334 117.467 105.253 117.225C101.513 117.007 97.7982 116.475 94.1468 115.636C94.2617 116.626 94.3591 117.622 94.4391 118.623C97.9187 119.371 101.45 119.852 105.002 120.062C106.25 120.133 107.486 120.17 108.71 120.171C111.574 120.177 114.435 119.971 117.269 119.554L117.468 116.629ZM108.483 114.3C111.553 114.303 114.619 114.11 117.664 113.72L117.862 110.802C112.061 111.576 106.188 111.65 100.37 111.021C97.9949 110.769 95.632 110.414 93.2874 109.959C93.4707 110.952 93.6371 111.949 93.7869 112.952C95.7063 113.298 97.7806 113.609 99.9835 113.841C102.807 114.144 105.644 114.298 108.483 114.3ZM97.9115 102.554C95.5842 102.335 93.3943 102.022 91.368 101.679C91.6429 102.674 91.9046 103.68 92.1532 104.697C93.848 104.964 95.6431 105.198 97.5472 105.382C100.297 105.646 103.012 105.779 105.692 105.781C109.736 105.789 113.775 105.471 117.769 104.829L118.268 104.741L118.467 101.797C110.815 103.178 103.628 103.099 97.9115 102.554ZM106.104 98.3929C110.368 98.4025 114.621 97.9623 118.794 97.0795L118.994 94.1178C110.549 96.0616 102.551 95.7289 96.4414 94.8226C93.8288 94.4334 91.239 93.9036 88.6831 93.2356C89.0655 94.2893 89.4363 95.3597 89.7954 96.4469C91.6821 96.8847 93.7368 97.2962 95.9354 97.6245C99.3014 98.131 102.7 98.3878 106.104 98.3929ZM119.553 85.885C110.359 88.1616 101.255 87.7938 94.3213 86.8109C91.3224 86.3826 88.3472 85.8018 85.407 85.0707C85.8723 86.1229 86.3325 87.2057 86.7876 88.3192C88.9884 88.8117 91.3811 89.2692 93.9243 89.6325C97.6205 90.1632 101.349 90.4331 105.083 90.4403C107.807 90.4441 110.528 90.2826 113.232 89.9565C115.289 89.7044 117.331 89.3434 119.35 88.8752L119.553 85.885ZM120.05 78.5497C110.235 80.8788 100.514 80.3447 93.1587 79.1911C89.1478 78.5568 85.1816 77.6648 81.2846 76.5205C81.8561 77.6077 82.4377 78.7526 83.0295 79.955C85.6949 80.6599 88.7812 81.3604 92.1467 81.9098C96.5899 82.649 101.085 83.0275 105.589 83.0415C107.943 83.0415 110.25 82.9299 112.499 82.7066C114.97 82.4644 117.425 82.0734 119.849 81.5355L120.05 78.5497ZM120.403 73.3421L120.606 70.3454C102.869 75.553 84.8508 70.9868 76.5472 68.1958C77.2015 69.2443 77.93 70.4702 78.7283 71.8602C82.7745 73.0525 86.8959 73.9703 91.0649 74.6073C95.0728 75.2185 99.1206 75.5294 103.175 75.5377C108.989 75.57 114.782 74.8318 120.403 73.3421Z" fill="#6A8AFF"/>
<path d="M87.7495 44.6708L85.8061 56.9488L79.7229 61.8959C79.7229 61.8959 88.1748 74.6117 99.6694 77.5056C103.565 78.4863 109.703 77.4202 111.703 73.9288C113.631 70.5687 114.246 65.8295 114.615 60.1907C114.802 57.3406 87.7495 44.6708 87.7495 44.6708Z" fill="white" stroke="#11181C" stroke-width="1.31339" stroke-linecap="round" stroke-linejoin="round"/>
<path d="M121.836 19.0049C119.945 8.45613 106.92 9.83081 105.02 10.0694C87.5096 12.2584 86.6982 27.0231 86.8051 31.1669L86.0417 31.261C86.0417 31.261 86.1289 31.968 86.2772 33.1107C84.011 33.6645 79.9301 35.4595 81.2606 41.1333C82.2705 45.4347 85.4768 45.8221 88.1225 45.3209C88.4758 47.2231 88.8379 48.8473 89.1716 49.8039C90.5196 53.6653 91.4444 55.3683 96.6791 58.8006C101.914 62.233 112.852 63.4566 117.716 57.1523C122.222 51.3143 122.587 40.7962 122.615 39.2727C123.071 33.4303 123.082 25.9505 121.836 19.0049Z" fill="white" stroke="#11181C" stroke-width="1.31339" stroke-linecap="round" stroke-linejoin="round"/>
<path d="M129.614 35.8601C129.459 32.3577 127.254 29.558 124.31 28.1177C124.068 28.4866 123.784 28.826 123.464 29.129C123.533 33.9579 123.154 42.7357 122.739 45.2947C122.957 45.2377 123.176 45.1699 123.376 45.0955C123.2 46.6475 122.722 48.4359 121.566 49.7317C120.569 50.8481 119.191 51.472 117.385 51.6252C117.059 51.3367 116.656 51.1499 116.225 51.0879C115.795 51.0258 115.356 51.0911 114.962 51.2758C114.568 51.4605 114.237 51.7566 114.008 52.1276C113.779 52.4987 113.664 52.9287 113.675 53.3649C113.686 53.801 113.824 54.2244 114.072 54.583C114.319 54.9417 114.666 55.22 115.069 55.3839C115.471 55.5478 115.913 55.5902 116.34 55.5058C116.766 55.4213 117.159 55.2138 117.47 54.9087C120.207 54.7139 122.401 53.7135 124.002 51.9207C126.469 49.1604 126.79 45.2487 126.744 43.0225C127.704 42.1035 128.457 40.9889 128.952 39.7534C129.447 38.518 129.673 37.1904 129.614 35.8601Z" fill="#1150CB"/>
<path d="M113.882 34.5073L115.496 44.6839L111.864 43.92" stroke="#11181C" stroke-width="1.31339" stroke-linecap="round" stroke-linejoin="round"/>
<path d="M119.31 34.8467C119.328 35.2763 119.233 35.6652 119.069 35.946C118.904 36.228 118.68 36.3884 118.441 36.3989C118.203 36.4094 117.965 36.2693 117.777 36.0029C117.589 35.7375 117.46 35.3586 117.441 34.9289C117.422 34.4993 117.518 34.1104 117.682 33.8296C117.846 33.5476 118.071 33.3872 118.309 33.3767C118.548 33.3662 118.785 33.5062 118.974 33.7727C119.162 34.0381 119.291 34.417 119.31 34.8467Z" fill="#11181C" stroke="#11181C" stroke-width="0.218899"/>
<path d="M109.073 34.7976C109.091 35.2273 108.996 35.6161 108.832 35.8969C108.667 36.179 108.443 36.3394 108.204 36.3499C107.966 36.3604 107.728 36.2203 107.539 35.9538C107.352 35.6884 107.222 35.3095 107.204 34.8798C107.185 34.4502 107.281 34.0614 107.445 33.7805C107.609 33.4985 107.834 33.3381 108.072 33.3276C108.311 33.3171 108.548 33.4572 108.737 33.7237C108.925 33.989 109.054 34.368 109.073 34.7976Z" fill="#11181C" stroke="#11181C" stroke-width="0.218899"/>
<path d="M101.41 28.9735C102.009 28.3582 102.76 27.9148 103.587 27.6897C104.414 27.4645 105.286 27.4656 106.113 27.693" stroke="#11181C" stroke-width="1.31339" stroke-linecap="round" stroke-linejoin="round"/>
<path d="M115.016 26.6883C115.016 26.6883 117.88 25.8127 118.706 28.1505" stroke="#11181C" stroke-width="1.31339" stroke-linecap="round" stroke-linejoin="round"/>
<path d="M111.783 48.6357L111.783 48.6358C110.998 49.4976 110.311 49.9391 109.704 50.094C109.103 50.2478 108.568 50.1228 108.076 49.8219C107.58 49.519 107.129 49.0382 106.705 48.485C106.363 48.0392 106.044 47.5528 105.734 47.0817C105.66 46.9682 105.586 46.8555 105.512 46.7446L105.512 46.7446L105.512 46.7437C105.438 46.6353 105.4 46.507 105.401 46.3758C105.402 46.2447 105.443 46.1171 105.519 46.0102C105.594 45.9032 105.7 45.8219 105.823 45.7771C105.945 45.7324 106.078 45.7262 106.205 45.7595C107.628 46.1351 109.295 46.6038 110.472 47.1233C111.064 47.3842 111.516 47.6516 111.755 47.916C111.873 48.0469 111.931 48.1676 111.937 48.2786C111.943 48.3866 111.903 48.5048 111.783 48.6357Z" fill="#11181C" stroke="#11181C" stroke-width="0.218899"/>
<path d="M121.882 12.826L121.872 12.7278C121.828 12.3324 121.764 11.9395 121.679 11.5509C121.299 9.85518 120.578 8.25527 119.559 6.84917C118.541 5.44295 117.248 4.26018 115.758 3.37326L115.745 3.36528L121.882 12.826ZM121.882 12.826L121.981 12.8254M121.882 12.826L121.981 12.8254M115.734 3.35387L115.734 3.35396L115.734 3.35387ZM115.734 3.35387L115.734 3.35367L115.732 3.35205L115.725 3.3446C115.719 3.33782 115.708 3.32742 115.694 3.31368C115.665 3.2862 115.621 3.24534 115.561 3.19325C115.44 3.08906 115.253 2.9399 114.992 2.76288C114.47 2.40887 113.651 1.94317 112.467 1.50283C110.1 0.622246 106.273 -0.157908 100.452 0.262511C94.6386 0.682337 91.6762 2.55915 90.1657 4.31244C89.4095 5.19025 89.0137 6.04095 88.807 6.67061C88.7036 6.98551 88.6475 7.24513 88.6173 7.42515C88.6022 7.51515 88.5936 7.58522 88.5888 7.6323C88.5864 7.65585 88.5849 7.67364 88.584 7.6853L88.5832 7.69815L88.583 7.70103L88.583 7.70151M115.734 3.35387L88.583 7.70151M121.981 12.8254C122.504 12.8222 123.062 12.9696 123.615 13.3823C124.169 13.7962 124.722 14.4807 125.223 15.5595C126.413 18.1256 126.484 21.0791 125.965 23.627C125.445 26.1798 124.339 28.2994 123.203 29.2099L123.203 29.2098L123.198 29.2139C123.153 29.2545 123.1 29.2853 123.042 29.3043C123.015 29.3132 122.988 29.3194 122.96 29.3229C122.873 25.8529 122.534 22.3939 121.946 18.9732L121.946 18.973C121.777 17.9976 121.481 17.0487 121.065 16.1505L121.065 16.1497C121.026 16.0662 120.984 15.9806 120.943 15.8972C120.932 15.8741 120.919 15.8497 120.908 15.8267C120.902 15.8158 120.897 15.8052 120.892 15.7952L120.892 15.7952L120.89 15.7921L120.772 15.5732L120.772 15.5719L120.708 15.4581L120.708 15.4575C120.67 15.3907 120.631 15.3241 120.592 15.2588L120.591 15.2581L120.591 15.2576L120.517 15.135L120.517 15.135L120.515 15.1325L120.405 14.9613C120.405 14.961 120.405 14.9607 120.404 14.9605C120.375 14.9135 120.346 14.8682 120.314 14.8226L120.21 14.6727C120.21 14.6725 120.21 14.6723 120.21 14.6721C120.177 14.6231 120.143 14.5759 120.107 14.5285C120.107 14.5283 120.107 14.5281 120.107 14.5279L120.01 14.3957L120.01 14.3957L120.006 14.3914C119.98 14.3593 119.955 14.327 119.93 14.2934C119.918 14.2783 119.907 14.2629 119.895 14.2471L119.893 14.2455L119.804 14.1338L119.803 14.1323L119.672 13.9747L119.672 13.9747L119.669 13.9719L119.597 13.891L119.597 13.8906L119.443 13.7182C119.443 13.7181 119.443 13.718 119.443 13.7179C119.406 13.6769 119.368 13.6361 119.329 13.5975L119.225 13.4933L119.155 13.6227C118.034 15.6974 115.517 18.3386 109.858 19.1241L109.858 19.1242C104.605 19.8554 100.193 19.2486 96.9493 17.4104C96.8164 17.3339 96.6693 17.2857 96.5171 17.2688C96.3647 17.2519 96.2105 17.2667 96.0641 17.3122C95.9176 17.3578 95.7822 17.4332 95.6661 17.5336C95.55 17.634 95.4559 17.7574 95.3895 17.8959L95.389 17.8971C94.8033 19.1553 94.3407 20.7504 93.8628 22.433C93.8403 22.5124 93.8177 22.592 93.795 22.6717C93.3369 24.2863 92.8581 25.9735 92.2375 27.5329C90.9424 30.7869 89.0467 33.4426 85.4815 33.7187C85.4256 33.6082 85.3787 33.4934 85.3411 33.3753L85.3065 33.2662L85.199 33.3057C85.0141 33.3738 84.826 33.4462 84.6336 33.53C83.7096 33.2214 82.164 32.4222 80.9362 30.3993C79.6899 28.3459 78.7644 25.0209 79.1625 19.6456C79.303 17.7559 80.3184 15.6895 81.9683 13.6422C83.6169 11.5964 85.8918 9.57862 88.5351 7.7872L88.5805 7.75638M121.981 12.8254L88.5805 7.75638M88.5805 7.75638L88.583 7.70162M88.5805 7.75638L88.583 7.70162M88.583 7.70162L88.583 7.70157M88.583 7.70162L88.583 7.70157M88.583 7.70157L88.583 7.70151M88.583 7.70157L88.583 7.70151" fill="#11181C" stroke="#11181C" stroke-width="0.218899"/>
<path d="M95.4533 29.6827C95.691 35.1333 97.111 40.0191 102.806 40.1176C114.342 39.9885 111.919 30.3241 111.919 30.3241L95.4533 29.6827ZM95.4533 29.6827L91.0299 31.7185M114.392 34.2008L112.089 34.238M114.004 30.4248C114.004 30.4248 114.809 39.4785 122.02 39.2727C129.23 39.0669 127.867 35.3325 128.676 29.9345L114.004 30.4248Z" stroke="#FE7624" stroke-width="1.31339" stroke-linecap="round" stroke-linejoin="round"/>
<path d="M94.3387 38.7014C94.2735 37.1928 93.845 35.7225 93.0898 34.4164C92.3346 33.1103 91.2754 32.0073 90.0026 31.2019L88.9121 6.3197L88.1225 6.35473C87.1137 6.39905 86.1637 6.84363 85.4815 7.59072C84.7992 8.33781 84.4406 9.32625 84.4843 10.3387L85.3372 29.7659H84.6217C82.7807 29.8469 81.005 30.4739 79.519 31.5677C78.033 32.6615 76.9036 34.1729 76.2735 35.9108C75.6434 37.6488 75.5409 39.5352 75.9791 41.3316C76.4172 43.128 77.3762 44.7537 78.7349 46.0031C80.0936 47.2525 81.7909 48.0695 83.6122 48.3508C85.4336 48.6322 87.2971 48.3652 88.9673 47.5837C90.6375 46.8021 92.0392 45.5411 92.9953 43.9601C93.9514 42.3791 94.4189 40.5491 94.3387 38.7014Z" fill="#1150CB"/>
<path d="M83.1146 33.5813C85.5313 33.5813 87.5401 35.7703 87.647 38.5635C87.7561 41.4376 85.8148 43.8696 83.3109 43.9944H83.108C80.6935 43.9944 78.6825 41.8054 78.5756 39.0144C78.4666 36.1403 80.4078 33.7083 82.9139 33.5835H83.1146M83.1146 32.2701H82.8485C79.6357 32.4321 77.1317 35.4792 77.2691 39.056C77.4022 42.5584 79.9672 45.299 83.108 45.299H83.3763C86.5891 45.1392 89.0909 42.0899 88.9535 38.5131C88.8205 35.0107 86.2554 32.2679 83.1146 32.2679V32.2701Z" fill="white"/>
<path d="M127.979 120.528C127.979 120.528 107.197 119.451 87.8608 118.713C84.7374 123.529 78.7523 133.949 78.7523 142.862H79.8996L112.071 134.478C112.447 134.603 133.01 134.478 133.01 134.478L127.979 120.528Z" fill="white" stroke="#11181C" stroke-width="1.31339" stroke-linecap="round" stroke-linejoin="round"/>
<path d="M182.33 42.8102C178.731 42.8108 175.279 44.2462 172.734 46.8008C170.189 49.3553 168.759 52.8198 168.759 56.4323C168.759 56.6249 168.759 56.8175 168.775 57.0079L168.759 56.9926V69.9974H181.157C181.545 70.0302 181.936 70.0521 182.33 70.0521C185.9 70.0067 189.308 68.5517 191.817 66.0022C194.325 63.4527 195.732 60.014 195.732 56.4312C195.732 52.8483 194.325 49.4096 191.817 46.8601C189.308 44.3106 185.9 42.8556 182.33 42.8102Z" fill="#1150CB"/>
<path d="M175.667 57.5574C175.667 56.7256 176.228 56.1411 177.011 56.1411C177.794 56.1411 178.332 56.7256 178.332 57.5574C178.332 58.3892 177.818 58.9737 176.989 58.9737C176.204 58.9737 175.667 58.3673 175.667 57.5574ZM180.304 57.5574C180.304 56.7256 180.862 56.1411 181.648 56.1411C182.433 56.1411 182.969 56.7256 182.969 57.5574C182.969 58.3892 182.455 58.9737 181.626 58.9737C180.841 58.9737 180.304 58.3673 180.304 57.5574ZM184.939 57.5574C184.939 56.7256 185.5 56.1411 186.285 56.1411C187.07 56.1411 187.607 56.7256 187.607 57.5574C187.607 58.3892 187.09 58.9737 186.261 58.9737C185.478 58.9737 184.939 58.3673 184.939 57.5574Z" fill="white"/>
<path d="M202.975 56.8942C198.728 56.8928 194.576 55.6346 191.038 53.2769C187.5 50.9193 184.733 47.5669 183.083 43.6392C181.434 39.7115 180.976 35.3829 181.765 31.195C182.554 27.007 184.557 23.1457 187.522 20.0941C190.487 17.0424 194.282 14.936 198.434 14.0383C202.586 13.1407 206.909 13.4916 210.863 15.0472C214.817 16.6029 218.226 19.2941 220.664 22.7843C223.102 26.2745 224.46 30.4086 224.568 34.6694C224.599 34.7481 224.616 34.832 224.616 34.9168V56.2375C224.616 56.4117 224.547 56.5787 224.424 56.7019C224.302 56.825 224.135 56.8942 223.962 56.8942H202.975Z" fill="#FF7A00"/>
<path d="M202.973 14.2067C208.481 14.2063 213.768 16.3845 217.688 20.2693C221.607 24.154 223.843 29.4324 223.912 34.9605L223.955 34.9167V56.2374H202.975C197.422 56.2374 192.096 54.0234 188.169 50.0825C184.242 46.1416 182.036 40.7965 182.036 35.2232C182.036 29.6498 184.242 24.3048 188.169 20.3638C192.096 16.4229 197.422 14.2089 202.975 14.2089M202.975 12.8955C197.074 12.8955 191.416 15.2479 187.243 19.4351C183.071 23.6224 180.727 29.3015 180.727 35.2232C180.727 41.1448 183.071 46.824 187.243 51.0112C191.416 55.1985 197.074 57.5508 202.975 57.5508H223.955C224.302 57.5508 224.635 57.4125 224.881 57.1662C225.126 56.9198 225.264 56.5858 225.264 56.2374V34.9167C225.264 34.7938 225.247 34.6716 225.214 34.5533C225.041 28.7482 222.621 23.2391 218.467 19.1951C214.313 15.1512 208.753 12.8907 202.966 12.8933L202.975 12.8955Z" fill="white"/>
<path d="M202.279 41.5186C202.113 41.5184 201.949 41.485 201.795 41.4206C201.642 41.3561 201.503 41.2618 201.387 41.1432C201.27 41.0245 201.178 40.8838 201.116 40.7292C201.054 40.5746 201.023 40.4091 201.025 40.2425C201.038 39.148 201.06 38.4212 201.093 38.0841C201.137 37.6122 201.265 37.1519 201.47 36.7248C201.641 36.3303 201.883 35.9705 202.183 35.6631C202.448 35.4121 203.072 35.0093 204.057 34.4548C204.829 34.0454 205.568 33.5755 206.266 33.0494C206.739 32.6301 207.117 32.115 207.377 31.5381C207.636 30.9611 207.771 30.3355 207.771 29.7025C207.771 28.3614 207.287 27.3077 206.319 26.5416C205.344 25.7733 204.135 25.3672 202.896 25.3924C200.279 25.3924 198.56 26.7255 197.738 29.3917C197.64 29.7171 197.425 29.9939 197.133 30.1673C196.842 30.3408 196.497 30.3983 196.165 30.3285C195.983 30.2889 195.81 30.2116 195.659 30.1017C195.508 29.9917 195.381 29.8514 195.286 29.6897C195.192 29.528 195.132 29.3484 195.11 29.1622C195.088 28.976 195.105 28.7873 195.16 28.608C196.301 24.8137 198.927 22.9166 203.036 22.9166C205.383 22.9166 207.278 23.5609 208.72 24.8495C210.162 26.1381 210.884 27.79 210.886 29.8054C210.886 32.4322 209.384 34.5277 206.38 36.0921C205.071 36.7882 204.271 37.3326 203.98 37.7251C203.69 38.1177 203.544 38.7335 203.544 39.5726V40.2425C203.546 40.4101 203.515 40.5764 203.452 40.7317C203.389 40.887 203.296 41.0282 203.179 41.1471C203.061 41.2659 202.921 41.36 202.766 41.4238C202.612 41.4876 202.446 41.5198 202.279 41.5186ZM204.146 45.785C204.143 46.2475 203.958 46.6901 203.631 47.0162C203.304 47.3422 202.862 47.5252 202.401 47.5252H202.312C202.084 47.5252 201.859 47.4802 201.649 47.3927C201.438 47.3052 201.247 47.177 201.086 47.0154C200.926 46.8538 200.798 46.6619 200.711 46.4508C200.624 46.2397 200.58 46.0134 200.58 45.785C200.58 45.5565 200.624 45.3303 200.711 45.1192C200.798 44.9081 200.926 44.7162 201.086 44.5546C201.247 44.3929 201.438 44.2647 201.649 44.1772C201.859 44.0898 202.084 44.0447 202.312 44.0447H202.401C202.862 44.0447 203.304 44.2277 203.631 44.5538C203.958 44.8798 204.143 45.3224 204.146 45.785Z" fill="white"/>
<path d="M205.802 90.1488H130.847C130.369 90.1484 129.905 90.3102 129.53 90.6079C129.156 90.9055 128.893 91.3216 128.783 91.7884L118.648 134.844H88.587C88.587 134.844 86.8421 143.862 96.9932 143.862H194.161C194.638 143.862 195.102 143.701 195.476 143.403C195.851 143.106 196.114 142.691 196.224 142.225L207.865 92.7668C207.938 92.4544 207.94 92.1293 207.871 91.816C207.801 91.5027 207.662 91.2091 207.464 90.9574C207.265 90.7056 207.013 90.5021 206.725 90.3621C206.437 90.2221 206.121 90.1492 205.802 90.1488Z" fill="#A0BDFF"/>
<path d="M122.078 143.862L134.566 92.2546C134.678 91.7911 134.943 91.379 135.317 91.0848C135.691 90.7906 136.153 90.6313 136.629 90.6326" stroke="white" stroke-width="1.31339" stroke-linecap="round" stroke-linejoin="round"/>
<path d="M166.668 123.087C169.566 123.087 171.915 120.729 171.915 117.82C171.915 114.911 169.566 112.553 166.668 112.553C163.769 112.553 161.42 114.911 161.42 117.82C161.42 120.729 163.769 123.087 166.668 123.087Z" fill="white"/>
<path d="M187.131 122.914C188.142 122.914 189.13 123.214 189.971 123.777C190.812 124.341 191.467 125.142 191.854 126.079C192.241 127.016 192.343 128.048 192.146 129.043C191.948 130.038 191.462 130.952 190.747 131.669C190.032 132.387 189.121 132.875 188.13 133.073C187.138 133.271 186.11 133.169 185.177 132.781C184.243 132.392 183.445 131.735 182.883 130.891C182.322 130.047 182.022 129.055 182.023 128.041C182.023 126.681 182.562 125.377 183.52 124.416C184.477 123.455 185.776 122.915 187.131 122.914ZM187.131 121.601C185.861 121.601 184.62 121.978 183.565 122.686C182.509 123.394 181.686 124.401 181.2 125.578C180.715 126.755 180.588 128.051 180.835 129.3C181.083 130.55 181.695 131.698 182.593 132.599C183.491 133.5 184.635 134.113 185.88 134.361C187.125 134.61 188.416 134.482 189.589 133.994C190.762 133.506 191.764 132.68 192.469 131.62C193.174 130.561 193.551 129.315 193.55 128.041C193.548 126.333 192.871 124.696 191.667 123.489C190.464 122.281 188.833 121.602 187.131 121.601Z" fill="white"/>
<path d="M188.459 121.086H209.782V136.926C209.782 138.667 209.093 140.338 207.866 141.569C206.639 142.801 204.974 143.493 203.239 143.493H195.003C193.267 143.493 191.603 142.801 190.376 141.569C189.149 140.338 188.459 138.667 188.459 136.926V121.086Z" fill="#FF7A00"/>
</svg>
