<svg width="164" height="271" viewBox="0 0 164 271" fill="none" xmlns="http://www.w3.org/2000/svg">
<path fill-rule="evenodd" clip-rule="evenodd" d="M55.1623 2.71598C57.8125 0.945166 60.9283 0 64.1157 0C68.3898 0 72.4889 1.69789 75.5111 4.72017C78.5334 7.74244 80.2313 11.8415 80.2313 16.1157C80.2313 19.303 79.2861 22.4188 77.5153 25.069C76.352 26.81 74.8667 28.2987 73.1497 29.4611L71.1546 32.4798L64.1157 43.1292L57.0783 32.4798L55.0845 29.463C54.2401 28.8917 53.4479 28.2389 52.7202 27.5111C50.4664 25.2573 48.9315 22.3858 48.3097 19.2597C47.6878 16.1335 48.007 12.8932 49.2267 9.94846C50.4465 7.00371 52.5121 4.48679 55.1623 2.71598ZM61.1544 16.4609C62.0309 17.0466 63.0614 17.3592 64.1157 17.3592V17.364C64.816 17.364 65.5095 17.2259 66.1565 16.9578C66.8035 16.6896 67.3914 16.2966 67.8864 15.8011C68.3814 15.3056 68.7739 14.7175 69.0415 14.0702C69.3091 13.423 69.4465 12.7294 69.4459 12.029C69.4459 10.9748 69.1333 9.94423 68.5476 9.06768C67.9619 8.19113 67.1294 7.50794 66.1554 7.10451C65.1815 6.70108 64.1097 6.59552 63.0758 6.80119C62.0418 7.00686 61.0921 7.51451 60.3466 8.25995C59.6012 9.0054 59.0935 9.95516 58.8879 10.9891C58.6822 12.0231 58.7878 13.0948 59.1912 14.0688C59.5946 15.0427 60.2778 15.8752 61.1544 16.4609Z" fill="#FF7A00"/>
<path d="M94.5571 89.9385L70.333 93.6644C64.8052 94.5153 59.689 97.0954 55.7185 101.034C51.748 104.973 49.1272 110.069 48.2322 115.59L33.4692 206.669L57.3595 209.991L71.5734 135.294L94.5571 89.9385ZM99.5614 90.5539L124.27 92.9271C129.603 93.4393 134.568 95.8718 138.241 99.7718C141.915 103.672 144.046 108.774 144.238 114.128L147.984 219.368H120.566L118.952 113.322L99.5614 90.5539Z" fill="#FF7A00"/>
<path d="M67.0904 95.8792L94.9013 90L125.707 93.7971C127.976 94.078 130.043 95.239 131.463 97.0298C132.884 98.8205 133.544 101.098 133.301 103.371C129.169 142.06 125.037 180.75 120.905 219.441L61.3283 213.392L58.0058 107.457C57.9198 104.768 58.7829 102.134 60.4439 100.017C62.1049 97.9003 64.4578 96.4355 67.0904 95.8792Z" fill="#FFE3A5"/>
<mask id="path-4-inside-1_2246_8355" fill="white">
<path fill-rule="evenodd" clip-rule="evenodd" d="M103 90.5125V72H85.9999V91.0518L81.6215 91.9288C81.6215 91.9288 84.1245 99.0864 94.5571 99.5405C104.99 99.9946 107.798 91.345 107.798 91.345L103 90.5125Z"/>
</mask>
<path fill-rule="evenodd" clip-rule="evenodd" d="M103 90.5125V72H85.9999V91.0518L81.6215 91.9288C81.6215 91.9288 84.1245 99.0864 94.5571 99.5405C104.99 99.9946 107.798 91.345 107.798 91.345L103 90.5125Z" fill="white"/>
<path fill-rule="evenodd" clip-rule="evenodd" d="M103 90.5125V72H85.9999V91.0518L81.6215 91.9288C81.6215 91.9288 84.1245 99.0864 94.5571 99.5405C104.99 99.9946 107.798 91.345 107.798 91.345L103 90.5125Z" fill="white"/>
<path d="M103 90.5125H102.3V91.1015L102.88 91.2022L103 90.5125ZM103 72H103.7V71.3H103V72ZM85.9999 72V71.3H85.2999V72H85.9999ZM85.9999 91.0518L86.1374 91.7382L86.6999 91.6255V91.0518H85.9999ZM81.6215 91.9288L81.484 91.2425L80.6952 91.4005L80.9608 92.1599L81.6215 91.9288ZM94.5571 99.5405L94.5875 98.8412L94.5571 99.5405ZM107.798 91.345L108.464 91.5612L108.713 90.7934L107.918 90.6553L107.798 91.345ZM103.7 90.5125V72H102.3V90.5125H103.7ZM103 71.3H85.9999V72.7H103V71.3ZM85.2999 72V91.0518H86.6999V72H85.2999ZM81.759 92.6152L86.1374 91.7382L85.8625 90.3655L81.484 91.2425L81.759 92.6152ZM94.5875 98.8412C89.5451 98.6217 86.4712 96.7903 84.661 95.0586C83.7503 94.1874 83.15 93.3321 82.7795 92.7002C82.5943 92.3845 82.467 92.1253 82.3874 91.9491C82.3476 91.861 82.3198 91.7938 82.3027 91.7508C82.2941 91.7293 82.2883 91.7138 82.2849 91.7049C82.2833 91.7004 82.2822 91.6975 82.2818 91.6963C82.2816 91.6957 82.2815 91.6955 82.2816 91.6958C82.2816 91.6959 82.2817 91.6961 82.2818 91.6965C82.2819 91.6966 82.282 91.697 82.282 91.697C82.2822 91.6974 82.2823 91.6978 81.6215 91.9288C80.9608 92.1599 80.9609 92.1604 80.9611 92.1608C80.9611 92.161 80.9613 92.1615 80.9615 92.1619C80.9617 92.1627 80.962 92.1635 80.9624 92.1645C80.9631 92.1665 80.964 92.1689 80.965 92.1718C80.967 92.1775 80.9697 92.1849 80.9731 92.1939C80.9799 92.2121 80.9893 92.2369 81.0017 92.2679C81.0263 92.3299 81.0625 92.4169 81.1115 92.5255C81.2096 92.7425 81.3593 93.0461 81.5718 93.4084C81.9966 94.1328 82.674 95.0953 83.6932 96.0702C85.7426 98.0308 89.1365 100.005 94.5266 100.24L94.5875 98.8412ZM107.798 91.345C107.132 91.1289 107.132 91.1285 107.132 91.1283C107.132 91.1282 107.133 91.1279 107.133 91.1278C107.133 91.1276 107.133 91.1275 107.133 91.1276C107.133 91.1276 107.132 91.1282 107.132 91.1293C107.131 91.1315 107.13 91.1357 107.128 91.1419C107.124 91.1542 107.116 91.1744 107.106 91.2018C107.086 91.2566 107.055 91.3404 107.01 91.4489C106.92 91.6662 106.779 91.9817 106.578 92.3615C106.174 93.1223 105.533 94.1336 104.583 95.1302C102.698 97.1082 99.5775 99.0584 94.5875 98.8412L94.5266 100.24C99.9693 100.477 103.469 98.3292 105.597 96.0959C106.653 94.9869 107.366 93.8642 107.815 93.0174C108.039 92.5934 108.199 92.2367 108.304 91.9827C108.356 91.8556 108.395 91.754 108.421 91.6824C108.434 91.6465 108.444 91.6182 108.451 91.5978C108.455 91.5876 108.458 91.5794 108.46 91.5733C108.461 91.5702 108.462 91.5677 108.462 91.5657C108.463 91.5647 108.463 91.5638 108.463 91.563C108.463 91.5627 108.463 91.5622 108.464 91.562C108.464 91.5616 108.464 91.5612 107.798 91.345ZM102.88 91.2022L107.678 92.0347L107.918 90.6553L103.12 89.8228L102.88 91.2022Z" fill="#11181C" mask="url(#path-4-inside-1_2246_8355)"/>
<mask id="path-6-inside-2_2246_8355" fill="white">
<path d="M21.7503 120.284L31.4283 211.817C33.5135 217.959 38.6681 222.182 43.9271 222.3C51.1717 222.458 58.6268 214.842 57.7376 204.86L39.8958 115.443L21.7503 120.284Z"/>
</mask>
<path d="M21.7503 120.284L31.4283 211.817C33.5135 217.959 38.6681 222.182 43.9271 222.3C51.1717 222.458 58.6268 214.842 57.7376 204.86L39.8958 115.443L21.7503 120.284Z" fill="white"/>
<path d="M21.7503 120.284L31.4283 211.817C33.5135 217.959 38.6681 222.182 43.9271 222.3C51.1717 222.458 58.6268 214.842 57.7376 204.86L39.8958 115.443L21.7503 120.284Z" fill="white"/>
<path d="M21.7503 120.284L21.5699 119.608L20.9912 119.762L21.0542 120.358L21.7503 120.284ZM31.4283 211.817L30.7321 211.891L30.7403 211.968L30.7654 212.042L31.4283 211.817ZM43.9271 222.3L43.9113 223L43.9119 223L43.9271 222.3ZM57.7376 204.86L58.4349 204.798L58.4315 204.76L58.4241 204.723L57.7376 204.86ZM39.8958 115.443L40.5823 115.306L40.4363 114.574L39.7154 114.766L39.8958 115.443ZM21.0542 120.358L30.7321 211.891L32.1244 211.743L22.4464 120.21L21.0542 120.358ZM30.7654 212.042C32.9217 218.393 38.2914 222.873 43.9113 223L43.9429 221.6C39.0449 221.49 34.1053 217.525 32.0911 211.592L30.7654 212.042ZM43.9119 223C51.6395 223.169 59.3549 215.127 58.4349 204.798L57.0404 204.922C57.8986 214.557 50.704 221.748 43.9424 221.6L43.9119 223ZM58.4241 204.723L40.5823 115.306L39.2094 115.58L57.0511 204.997L58.4241 204.723ZM39.7154 114.766L21.5699 119.608L21.9308 120.96L40.0763 116.119L39.7154 114.766Z" fill="#11181C" mask="url(#path-6-inside-2_2246_8355)"/>
<path d="M38.6872 88.612L38.7816 82.8219C38.8014 81.6031 37.8295 80.599 36.6107 80.579L13.1284 80.1959C11.9095 80.1762 10.9055 81.148 10.8854 82.3668L10.6115 99.1527L29.2528 102.019L38.6872 88.612Z" fill="#687076"/>
<path d="M12.8949 106.339L10.3568 114.784L10.2794 119.549L27.0427 127.186L37.6565 122.902L38.1256 123.066L38.4823 101.193L31.7726 111.318L12.8949 106.339Z" fill="#687076"/>
<path d="M27.0427 127.186L10.2794 119.549L10.1023 130.403C10.0859 131.409 10.8878 132.237 11.8937 132.254L36.1475 132.65C37.1534 132.666 37.9818 131.864 37.9985 130.858L38.1255 123.067L37.6568 122.902L27.0427 127.186Z" fill="#11181C"/>
<path d="M12.8948 106.339L31.7725 111.319L38.4823 101.193L38.6872 88.612L29.2533 102.019L10.6117 99.1531L10.3568 114.784L12.8948 106.339Z" fill="#11181C"/>
<path d="M35.2117 130.235L12.9077 129.871C12.0735 129.857 11.4083 129.17 11.4217 128.336L12.1604 83.0415C12.1742 82.2073 12.8613 81.5421 13.6956 81.5556L35.9996 81.9192C36.8338 81.9327 37.499 82.6201 37.4855 83.4544L36.7468 128.749C36.7333 129.583 36.0459 130.248 35.2117 130.235Z" fill="#1150CB"/>
<path d="M43.4072 111.517C43.6096 112.987 43.4213 114.484 42.8613 115.858L41 120.5H37.7178L36.055 98.6398C35.7749 96.9896 36.6008 95.5024 37.7178 95.1116C39.1101 94.6243 41.1969 95.7603 41.5481 97.9848C42.1694 102.496 42.7891 107.007 43.4072 111.517Z" fill="#11181C"/>
<path fill-rule="evenodd" clip-rule="evenodd" d="M42.213 115.594C42.7267 114.334 42.8993 112.96 42.7136 111.612C42.0959 107.105 41.4765 102.596 40.8556 98.0874C40.7103 97.1788 40.2162 96.5075 39.6307 96.1108C39.0273 95.702 38.3876 95.6188 37.949 95.7723C37.234 96.0224 36.5067 97.1181 36.745 98.5226L36.7506 98.5556L38.3686 120.787H40.0965L42.213 115.594Z" fill="white"/>
<path fill-rule="evenodd" clip-rule="evenodd" d="M42.213 115.594C42.7267 114.334 42.8993 112.96 42.7136 111.612C42.0959 107.105 41.4765 102.596 40.8556 98.0874C40.7103 97.1788 40.2162 96.5075 39.6307 96.1108C39.0273 95.702 38.3876 95.6188 37.949 95.7723C37.234 96.0224 36.5067 97.1181 36.745 98.5226L36.7506 98.5556L38.3686 120.787H40.0965L42.213 115.594Z" fill="white"/>
<path d="M73.7635 57.5083L73.7624 57.5004L73.761 57.4925C73.2281 54.5713 73.3723 51.5668 74.1826 48.71C74.9928 45.8532 76.4475 43.2204 78.4347 41.0139C80.4219 38.8074 82.8887 37.0861 85.6453 35.9823C88.3346 34.9055 91.2297 34.4444 94.1186 34.6316L94.1212 34.6381L94.339 34.6548C98.1966 34.9503 101.878 36.3924 104.909 38.7959C107.941 41.1994 110.185 44.4545 111.353 48.1429C112.52 51.8314 112.558 55.7847 111.462 59.495C110.366 63.2053 108.185 66.5031 105.201 68.9647L105.149 69.0075L105.116 69.0665C104.599 70.0107 104.097 70.837 103.643 71.5374C102.29 73.6192 100.425 76.4865 97.9649 78.9061C95.5062 81.3245 92.4813 83.2668 88.8139 83.5441C88.4391 83.57 88.0779 83.5701 87.7081 83.5701V83.5699L87.6974 83.5702C87.0086 83.5913 86.3193 83.5477 85.6386 83.44C80.7634 82.6567 76.569 78.2106 75.8329 72.7729L75.8329 72.7728L73.7635 57.5083Z" fill="white"/>
<path d="M73.7635 57.5083L73.7624 57.5004L73.761 57.4925C73.2281 54.5713 73.3723 51.5668 74.1826 48.71C74.9928 45.8532 76.4475 43.2204 78.4347 41.0139C80.4219 38.8074 82.8887 37.0861 85.6453 35.9823C88.3346 34.9055 91.2297 34.4444 94.1186 34.6316L94.1212 34.6381L94.339 34.6548C98.1966 34.9503 101.878 36.3924 104.909 38.7959C107.941 41.1994 110.185 44.4545 111.353 48.1429C112.52 51.8314 112.558 55.7847 111.462 59.495C110.366 63.2053 108.185 66.5031 105.201 68.9647L105.149 69.0075L105.116 69.0665C104.599 70.0107 104.097 70.837 103.643 71.5374C102.29 73.6192 100.425 76.4865 97.9649 78.9061C95.5062 81.3245 92.4813 83.2668 88.8139 83.5441C88.4391 83.57 88.0779 83.5701 87.7081 83.5701V83.5699L87.6974 83.5702C87.0086 83.5913 86.3193 83.5477 85.6386 83.44C80.7634 82.6567 76.569 78.2106 75.8329 72.7729L75.8329 72.7728L73.7635 57.5083Z" fill="white"/>
<path d="M73.7635 57.5083L73.7624 57.5004L73.761 57.4925C73.2281 54.5713 73.3723 51.5668 74.1826 48.71C74.9928 45.8532 76.4475 43.2204 78.4347 41.0139C80.4219 38.8074 82.8887 37.0861 85.6453 35.9823C88.3346 34.9055 91.2297 34.4444 94.1186 34.6316L94.1212 34.6381L94.339 34.6548C98.1966 34.9503 101.878 36.3924 104.909 38.7959C107.941 41.1994 110.185 44.4545 111.353 48.1429C112.52 51.8314 112.558 55.7847 111.462 59.495C110.366 63.2053 108.185 66.5031 105.201 68.9647L105.149 69.0075L105.116 69.0665C104.599 70.0107 104.097 70.837 103.643 71.5374C102.29 73.6192 100.425 76.4865 97.9649 78.9061C95.5062 81.3245 92.4813 83.2668 88.8139 83.5441C88.4391 83.57 88.0779 83.5701 87.7081 83.5701V83.5699L87.6974 83.5702C87.0086 83.5913 86.3193 83.5477 85.6386 83.44C80.7634 82.6567 76.569 78.2106 75.8329 72.7729L75.8329 72.7728L73.7635 57.5083Z" stroke="#11181C" stroke-width="0.7"/>
<path d="M80.3163 63.9298C81.2443 63.9298 81.9965 63.1775 81.9965 62.2496C81.9965 61.3216 81.2443 60.5693 80.3163 60.5693C79.3883 60.5693 78.6361 61.3216 78.6361 62.2496C78.6361 63.1775 79.3883 63.9298 80.3163 63.9298Z" fill="#11181C"/>
<path d="M93.0336 64.906C93.9615 64.906 94.7138 64.1537 94.7138 63.2258C94.7138 62.2978 93.9615 61.5455 93.0336 61.5455C92.1056 61.5455 91.3533 62.2978 91.3533 63.2258C91.3533 64.1537 92.1056 64.906 93.0336 64.906Z" fill="#11181C"/>
<path d="M87.447 71.4765H87.428L85.0548 71.3278C84.8821 71.3168 84.7141 71.2669 84.5634 71.1819C84.4127 71.0969 84.2831 70.979 84.1842 70.837C84.0854 70.695 84.0199 70.5325 83.9925 70.3616C83.9652 70.1907 83.9768 70.0159 84.0264 69.8501L85.9455 63.4456C85.9567 63.405 85.9759 63.3669 86.002 63.3338C86.0281 63.3007 86.0606 63.2731 86.0975 63.2527C86.1344 63.2323 86.175 63.2194 86.2169 63.2149C86.2588 63.2104 86.3012 63.2144 86.3416 63.2265C86.382 63.2386 86.4196 63.2587 86.4521 63.2856C86.4846 63.3124 86.5114 63.3455 86.531 63.3828C86.5505 63.4202 86.5624 63.4611 86.566 63.5031C86.5695 63.5452 86.5646 63.5875 86.5515 63.6276L84.6324 70.0321C84.6095 70.1064 84.604 70.185 84.6164 70.2618C84.6287 70.3387 84.6586 70.4116 84.7036 70.4751C84.7478 70.5394 84.8061 70.5928 84.8741 70.6312C84.9421 70.6696 85.018 70.692 85.0959 70.6966L87.4691 70.8453C87.5531 70.848 87.6325 70.884 87.6899 70.9452C87.7473 71.0065 87.778 71.0881 87.7753 71.172C87.7726 71.2559 87.7366 71.3353 87.6753 71.3927C87.6141 71.4501 87.5325 71.4809 87.4486 71.4781L87.447 71.4765Z" fill="#11181C"/>
<path d="M97.0379 57.0713C95.1963 55.1616 92.2646 55.7534 91.7757 55.8514C91.4593 55.9179 89.9215 56.2438 89.8629 56.8862C89.8297 57.2469 90.2759 57.5586 90.3376 57.595C91.2695 58.2278 92.2931 57.2532 93.8484 57.2232C96.1171 57.1804 97.5996 59.1818 97.9303 58.8338C98.1328 58.6139 97.6471 57.7026 97.0379 57.0713ZM76.3752 55.9037C78.4921 54.3041 81.2957 55.3467 81.764 55.5208C82.0804 55.6347 83.5344 56.1964 83.4917 56.8403C83.4679 57.2026 82.9791 57.4383 82.9189 57.4731C81.9 57.9478 81.0394 56.8308 79.5094 56.5587C77.2755 56.1615 75.4971 57.9082 75.225 57.5079C75.0526 57.2564 75.6759 56.4321 76.3752 55.9037Z" fill="#11181C"/>
<path d="M60.5238 198.502C53.42 222.595 46.3172 246.69 39.2156 270.785H133.867C134.655 262.436 134.655 254.032 133.867 245.684C131.883 224.7 125.27 208.066 119.653 196.994C100.254 201.548 80.1251 202.061 60.519 198.502H60.5238Z" fill="#1150CB"/>
<path d="M81.6216 91.929C82.332 117.354 82.0788 144.916 80.3432 174.314C78.7927 200.59 76.2407 225.246 73.086 248.103C62.8363 249.483 52.4475 246.885 44.0537 240.843L55.8486 179.456L56.7551 103.268C58.3526 100.597 60.5374 98.3244 63.1438 96.6232C65.517 95.0885 67.6165 94.4778 70.314 93.712C73.9997 92.6737 77.7953 92.0752 81.6216 91.929Z" fill="#FF7A00"/>
<path d="M86.012 84.9485L83.5012 85.382C82.3622 85.5793 81.2761 86.0092 80.3106 86.6448C79.3451 87.2804 78.5208 88.1081 77.8893 89.0763L75.6443 92.5348L81.9728 113.174V92L86.012 91V84.9485Z" fill="#FF7A00"/>
<path d="M107.798 91.345L103.933 248.464L138.105 245.986L133.011 203.95L133.772 100.624L130.356 94.8905L126.538 93.6802L107.798 91.345Z" fill="#FF7A00"/>
<path d="M102.938 84.2933L105.912 84.9499C107.114 85.2157 108.238 85.7559 109.196 86.5282C110.154 87.3006 110.921 88.2842 111.435 89.4021L112.605 91.9445L107.107 119.474L105.646 91.0506L102.938 90.557V84.2933Z" fill="#FF7A00"/>
<path d="M71.0703 114.247C71.0225 114.248 70.9751 114.238 70.9316 114.218C70.8882 114.198 70.8498 114.169 70.8193 114.132C70.7889 114.095 70.7672 114.052 70.7558 114.005C70.7445 113.959 70.7438 113.91 70.7539 113.864L75.3278 92.47C75.3365 92.4293 75.3531 92.3906 75.3767 92.3563C75.4003 92.3219 75.4305 92.2926 75.4655 92.27C75.5005 92.2473 75.5396 92.2318 75.5806 92.2243C75.6216 92.2169 75.6637 92.2176 75.7044 92.2264C75.7848 92.2446 75.8549 92.2935 75.8999 92.3626C75.9448 92.4318 75.9609 92.5157 75.9449 92.5966L71.4674 113.585L81.9554 112.857C82.0393 112.852 82.1222 112.879 82.1857 112.934C82.2491 112.99 82.2881 113.068 82.294 113.152C82.2999 113.236 82.2722 113.318 82.217 113.382C82.1618 113.445 82.0836 113.484 81.9997 113.49L71.0925 114.248L71.0703 114.247ZM116.332 114.247H107.771C107.687 114.247 107.607 114.213 107.547 114.154C107.488 114.095 107.455 114.014 107.455 113.93C107.455 113.846 107.488 113.766 107.547 113.706C107.607 113.647 107.687 113.614 107.771 113.614H115.957L112.293 91.997C112.286 91.9559 112.287 91.9139 112.296 91.8734C112.306 91.8328 112.323 91.7944 112.347 91.7605C112.371 91.7266 112.402 91.6977 112.437 91.6756C112.472 91.6534 112.511 91.6385 112.552 91.6315C112.593 91.6245 112.635 91.6257 112.676 91.635C112.717 91.6443 112.755 91.6614 112.789 91.6855C112.823 91.7096 112.852 91.7402 112.874 91.7754C112.896 91.8107 112.911 91.8499 112.918 91.891L116.644 113.883C116.652 113.928 116.649 113.976 116.637 114.02C116.625 114.065 116.603 114.107 116.572 114.142C116.542 114.177 116.505 114.206 116.462 114.225C116.42 114.244 116.374 114.254 116.327 114.253L116.332 114.247ZM84.9536 271.101H84.9298C84.8882 271.098 84.8476 271.087 84.8104 271.068C84.7731 271.05 84.74 271.024 84.7128 270.992C84.6856 270.96 84.6649 270.924 84.6519 270.884C84.6389 270.844 84.6339 270.803 84.6371 270.761L86.5199 245.213L82.7639 231.961C82.7525 231.921 82.749 231.879 82.7538 231.838C82.7585 231.796 82.7714 231.756 82.7916 231.72C82.8118 231.684 82.8389 231.652 82.8715 231.626C82.9041 231.6 82.9414 231.581 82.9814 231.569C83.0214 231.558 83.0633 231.554 83.1046 231.559C83.1459 231.564 83.1859 231.577 83.2223 231.597C83.2586 231.617 83.2907 231.644 83.3165 231.677C83.3424 231.709 83.3616 231.747 83.373 231.787L87.1464 245.094C87.1572 245.129 87.1609 245.166 87.1575 245.203L85.2716 270.809C85.2656 270.889 85.2294 270.963 85.1703 271.018C85.1113 271.072 85.0338 271.102 84.9536 271.101ZM80.8242 41.3496C80.8242 41.3496 76.8688 44.8778 75.6364 48.4059C74.4039 51.9341 75.6633 55.304 73.4214 57.5507L74.0542 62.2496C74.0542 62.2496 68.8537 61.0551 69.4581 55.6885C70.0625 50.3219 70.8694 52.3375 71.7775 42.7609C72.6857 33.1842 79.4825 29.656 86.0168 31.3695C95.8497 28.0865 106.23 29.6845 112.057 35.907C121.234 45.7036 115.212 62.8034 114.321 65.3348C113.91 66.5012 113.439 67.6456 112.91 68.7633C113.362 69.2727 116.354 72.7408 115.53 76.8322C114.614 81.3777 109.312 85.0419 102.942 84.292V63.5359C102.942 63.5359 97.5157 59.897 93.9243 48.4059C90.3328 36.9149 80.8242 41.3496 80.8242 41.3496Z" fill="#11181C"/>
<path d="M107.975 68.0042C109.493 65.5765 109.043 62.5571 106.969 61.2603C104.895 59.9636 101.984 60.8804 100.465 63.3082C98.9472 65.736 99.3975 68.7553 101.471 70.0521C103.545 71.3489 106.457 70.432 107.975 68.0042Z" fill="white"/>
<path d="M107.975 68.0042C109.493 65.5765 109.043 62.5571 106.969 61.2603C104.895 59.9636 101.984 60.8804 100.465 63.3082C98.9472 65.736 99.3975 68.7553 101.471 70.0521C103.545 71.3489 106.457 70.432 107.975 68.0042Z" fill="white"/>
<path d="M102.938 68.6761C102.86 68.6766 102.785 68.6488 102.727 68.5978C102.669 68.5469 102.631 68.4763 102.622 68.3995C102.612 68.3227 102.631 68.245 102.674 68.1811C102.718 68.1172 102.784 68.0716 102.859 68.0527C103.211 67.9695 103.527 67.7764 103.762 67.5015C103.997 67.2266 104.139 66.8841 104.167 66.5234C104.194 66.1627 104.106 65.8026 103.916 65.495C103.726 65.1875 103.442 64.9485 103.107 64.8125C103.038 64.7829 102.982 64.7297 102.949 64.6624C102.915 64.5952 102.907 64.5183 102.925 64.4455C102.941 64.3718 102.984 64.3066 103.046 64.2626C103.107 64.2185 103.182 64.1986 103.257 64.2066L106.569 64.4613C106.652 64.4678 106.73 64.507 106.784 64.5705C106.839 64.6339 106.866 64.7164 106.86 64.7999C106.858 64.8419 106.848 64.8831 106.829 64.9209C106.811 64.9587 106.785 64.9923 106.753 65.0196C106.721 65.047 106.684 65.0674 106.644 65.0797C106.604 65.092 106.561 65.0958 106.52 65.091L104.267 64.9185C104.519 65.223 104.689 65.5866 104.762 65.9752C104.835 66.3638 104.807 66.7645 104.682 67.1396C104.557 67.5146 104.339 67.8516 104.047 68.1188C103.756 68.386 103.401 68.5745 103.017 68.6666C102.991 68.6728 102.964 68.676 102.938 68.6761Z" fill="#11181C"/>
<path d="M114.902 84.9849C114.902 83.8331 114.639 82.6965 114.133 81.662C113.626 80.6276 112.89 79.7227 111.98 79.0166C111.07 78.3106 110.011 77.822 108.883 77.5885C107.755 77.3549 106.589 77.3825 105.473 77.6691C104.358 77.9557 103.322 78.4938 102.447 79.2421C101.571 79.9904 100.878 80.9291 100.421 81.9863C99.9646 83.0436 99.7556 84.1914 99.8105 85.3418C99.8655 86.4923 100.183 87.6149 100.739 88.6238C101.018 89.1184 101.127 89.6908 101.051 90.2535C100.974 90.8163 100.716 91.3385 100.315 91.7406C99.3194 92.7046 98.6681 93.9685 98.4606 95.3384C98.2531 96.7082 98.5009 98.1084 99.1659 99.3238C99.4429 99.814 99.5772 100.372 99.5534 100.935C99.5296 101.497 99.3488 102.042 99.0314 102.507C98.591 103.148 98.2885 103.874 98.143 104.639C97.9974 105.403 98.012 106.189 98.1859 106.947C98.3597 107.706 98.689 108.42 99.1528 109.044C99.6167 109.669 100.205 110.19 100.881 110.576C101.29 110.796 101.596 111.169 101.732 111.613C101.868 112.057 101.824 112.537 101.609 112.949C101.237 113.631 101.023 114.388 100.984 115.164C100.835 118.05 103.172 120.586 106.059 120.665C107.183 120.701 108.288 120.373 109.21 119.73C110.133 119.088 110.823 118.164 111.179 117.098C111.534 116.031 111.536 114.879 111.184 113.811C110.831 112.743 110.144 111.818 109.224 111.172C108.791 110.879 108.484 110.434 108.364 109.926C108.243 109.418 108.316 108.883 108.57 108.426C108.979 107.695 109.219 106.882 109.272 106.046C109.326 105.21 109.191 104.373 108.879 103.596C108.474 102.593 108.6 101.436 109.344 100.65C110.093 99.8583 110.627 98.8874 110.892 97.8303C111.158 96.7732 111.147 95.6655 110.861 94.6138C110.669 93.9518 110.676 93.248 110.881 92.5901C111.086 91.9321 111.48 91.3489 112.014 90.9132C112.913 90.2084 113.641 89.3085 114.141 88.2815C114.641 87.2545 114.901 86.1272 114.902 84.9849Z" fill="#11181C"/>
<path d="M107.352 118.241C107.352 118.241 109.966 123.405 107.352 128.345C107.352 128.345 113.611 129.633 118.348 123.293C115.852 120.282 112.519 118.079 108.771 116.961L107.352 118.241Z" fill="#11181C"/>
<path d="M85.183 74.3639L92.2899 72.902C92.3738 75.3891 90.4373 77.256 88.5086 77.1864C87.0673 77.1342 85.694 75.9998 85.183 74.3639Z" fill="#11181C"/>
<path d="M5.01743 107.417C3.47345 105.829 3.58055 103.78 4.46679 102.953C4.87141 102.576 5.42573 102.453 5.93924 102.442C6.36968 102.433 6.73482 102.503 6.88206 102.537L11.5146 105.671C13.1795 106.927 13.3431 108.943 12.5803 109.886C12.2012 110.354 11.6223 110.555 11.0823 110.629C10.655 110.686 10.2868 110.659 10.1379 110.643L5.01743 107.417Z" fill="white"/>
<path d="M5.01743 107.417C3.47345 105.829 3.58055 103.78 4.46679 102.953C4.87141 102.576 5.42573 102.453 5.93924 102.442C6.36968 102.433 6.73482 102.503 6.88206 102.537L11.5146 105.671C13.1795 106.927 13.3431 108.943 12.5803 109.886C12.2012 110.354 11.6223 110.555 11.0823 110.629C10.655 110.686 10.2868 110.659 10.1379 110.643L5.01743 107.417Z" fill="white"/>
<path d="M5.01743 107.417C3.47345 105.829 3.58055 103.78 4.46679 102.953C4.87141 102.576 5.42573 102.453 5.93924 102.442C6.36968 102.433 6.73482 102.503 6.88206 102.537L11.5146 105.671C13.1795 106.927 13.3431 108.943 12.5803 109.886C12.2012 110.354 11.6223 110.555 11.0823 110.629C10.655 110.686 10.2868 110.659 10.1379 110.643L5.01743 107.417Z" stroke="#11181C" stroke-width="0.7"/>
<path d="M11.7336 115.806L11.7335 115.806C11.3834 116.298 10.8692 116.557 10.3977 116.692C10.0339 116.797 9.71341 116.822 9.55197 116.828L4.44892 113.615C3.14722 112.365 3.05644 110.582 3.89265 109.579C4.30963 109.078 4.89608 108.862 5.42209 108.778C5.83407 108.711 6.18563 108.73 6.33957 108.744L10.9406 111.857C12.2711 113.029 12.4603 114.786 11.7336 115.806ZM5.68333 122.652L5.68372 122.651C6.03129 122.14 6.55474 121.859 7.03929 121.706C7.43275 121.582 7.77986 121.549 7.93813 121.541L16.4404 125.776C17.2592 126.67 17.3411 127.989 16.7023 128.903C16.4092 129.3 16.005 129.602 15.5408 129.769C15.0828 129.934 14.5866 129.962 14.1133 129.849L6.70042 126.855C5.19995 125.623 4.9423 123.738 5.68333 122.652Z" fill="white"/>
<path d="M11.7336 115.806L11.7335 115.806C11.3834 116.298 10.8692 116.557 10.3977 116.692C10.0339 116.797 9.71341 116.822 9.55197 116.828L4.44892 113.615C3.14722 112.365 3.05644 110.582 3.89265 109.579C4.30963 109.078 4.89608 108.862 5.42209 108.778C5.83407 108.711 6.18563 108.73 6.33957 108.744L10.9406 111.857C12.2711 113.029 12.4603 114.786 11.7336 115.806ZM5.68333 122.652L5.68372 122.651C6.03129 122.14 6.55474 121.859 7.03929 121.706C7.43275 121.582 7.77986 121.549 7.93813 121.541L16.4404 125.776C17.2592 126.67 17.3411 127.989 16.7023 128.903C16.4092 129.3 16.005 129.602 15.5408 129.769C15.0828 129.934 14.5866 129.962 14.1133 129.849L6.70042 126.855C5.19995 125.623 4.9423 123.738 5.68333 122.652Z" fill="white"/>
<path d="M11.7336 115.806L11.7335 115.806C11.3834 116.298 10.8692 116.557 10.3977 116.692C10.0339 116.797 9.71341 116.822 9.55197 116.828L4.44892 113.615C3.14722 112.365 3.05644 110.582 3.89265 109.579C4.30963 109.078 4.89608 108.862 5.42209 108.778C5.83407 108.711 6.18563 108.73 6.33957 108.744L10.9406 111.857C12.2711 113.029 12.4603 114.786 11.7336 115.806ZM5.68333 122.652L5.68372 122.651C6.03129 122.14 6.55474 121.859 7.03929 121.706C7.43275 121.582 7.77986 121.549 7.93813 121.541L16.4404 125.776C17.2592 126.67 17.3411 127.989 16.7023 128.903C16.4092 129.3 16.005 129.602 15.5408 129.769C15.0828 129.934 14.5866 129.962 14.1133 129.849L6.70042 126.855C5.19995 125.623 4.9423 123.738 5.68333 122.652Z" stroke="#11181C" stroke-width="0.7"/>
<path d="M54.5354 186.605C54.4515 186.605 54.371 186.572 54.3117 186.513C54.2523 186.453 54.219 186.373 54.219 186.289L54.7253 115.441C54.7253 115.357 54.7586 115.276 54.8179 115.217C54.8773 115.158 54.9578 115.124 55.0417 115.124C55.1256 115.124 55.2061 115.158 55.2654 115.217C55.3248 115.276 55.3581 115.357 55.3581 115.441L54.8518 186.289C54.8518 186.373 54.8185 186.453 54.7591 186.513C54.6998 186.572 54.6193 186.605 54.5354 186.605ZM16.5736 129.875C16.5091 129.875 16.4461 129.855 16.3932 129.818C16.3591 129.794 16.33 129.764 16.3077 129.728C16.2853 129.693 16.2701 129.654 16.2629 129.613C16.2557 129.572 16.2566 129.53 16.2657 129.489C16.2748 129.449 16.2918 129.41 16.3157 129.376C17.6494 127.465 16.6021 125.919 16.591 125.896C16.5672 125.862 16.5504 125.823 16.5414 125.783C16.5325 125.742 16.5316 125.7 16.5389 125.659C16.5462 125.618 16.5614 125.579 16.5838 125.544C16.6062 125.509 16.6352 125.479 16.6693 125.455C16.7034 125.431 16.7418 125.414 16.7824 125.405C16.823 125.396 16.8649 125.396 16.9058 125.403C16.9468 125.41 16.9858 125.425 17.0209 125.448C17.0559 125.47 17.0862 125.499 17.1099 125.533C17.1653 125.612 18.4184 127.462 16.8331 129.731C16.8049 129.774 16.7665 129.81 16.7213 129.835C16.676 129.86 16.6253 129.874 16.5736 129.875ZM10.3147 111.33C10.2589 111.33 10.2044 111.315 10.1564 111.286L5.72646 108.652C5.6631 108.606 5.6191 108.538 5.60294 108.461C5.58679 108.385 5.59964 108.305 5.63902 108.237C5.67839 108.169 5.74148 108.119 5.81609 108.095C5.89069 108.071 5.9715 108.075 6.04289 108.108L10.4729 110.742C10.5323 110.777 10.5785 110.831 10.6045 110.895C10.6306 110.959 10.6349 111.03 10.617 111.096C10.5991 111.163 10.5598 111.222 10.5052 111.264C10.4506 111.307 10.3837 111.33 10.3147 111.33Z" fill="#11181C"/>
<mask id="path-34-inside-3_2246_8355" fill="white">
<path fill-rule="evenodd" clip-rule="evenodd" d="M147.983 135.723L153.629 120.376L163.61 105.662C163.922 105.177 164.054 104.598 163.98 104.026C163.906 103.454 163.632 102.926 163.206 102.537C162.247 101.702 160.684 101.798 159.779 102.839L152.622 111.913L154.639 94.9839C154.656 93.7024 153.883 92.5917 152.824 92.2611C151.481 91.8434 149.829 92.7357 149.396 94.3748L145.565 109.298V90.5539C145.517 89.838 145.199 89.1671 144.675 88.677C144.151 88.1868 143.46 87.9142 142.743 87.9142C142.025 87.9142 141.334 88.1868 140.81 88.677C140.286 89.1671 139.968 89.838 139.92 90.5539C139.316 96.5988 138.711 102.644 138.105 108.688L130.828 103.467C130.546 103.265 130.225 103.122 129.886 103.049C129.547 102.975 129.197 102.972 128.856 103.04C128.516 103.107 128.193 103.244 127.908 103.442C127.623 103.64 127.381 103.894 127.198 104.189L122.276 111.53C122.246 111.73 122.118 112.703 122.751 113.472C123.452 114.32 124.797 114.579 126.001 114L129.731 109.6C132.516 110.742 134.035 113.587 133.46 116.153C133.032 118.074 131.475 119.634 129.458 120.244L127.064 117.055C126.886 116.384 126.485 115.794 125.928 115.381C125.711 115.223 124.662 114.477 123.586 114.925C123.147 115.117 122.781 115.444 122.543 115.86C122.305 116.275 122.207 116.756 122.264 117.232C123.411 120.701 124.558 124.17 125.703 127.639L129.83 138.315L120.566 219.373C120.612 226.835 126.284 232.905 133.065 233.486C140.648 234.138 147.866 227.774 147.983 219.373V135.723Z"/>
</mask>
<path fill-rule="evenodd" clip-rule="evenodd" d="M147.983 135.723L153.629 120.376L163.61 105.662C163.922 105.177 164.054 104.598 163.98 104.026C163.906 103.454 163.632 102.926 163.206 102.537C162.247 101.702 160.684 101.798 159.779 102.839L152.622 111.913L154.639 94.9839C154.656 93.7024 153.883 92.5917 152.824 92.2611C151.481 91.8434 149.829 92.7357 149.396 94.3748L145.565 109.298V90.5539C145.517 89.838 145.199 89.1671 144.675 88.677C144.151 88.1868 143.46 87.9142 142.743 87.9142C142.025 87.9142 141.334 88.1868 140.81 88.677C140.286 89.1671 139.968 89.838 139.92 90.5539C139.316 96.5988 138.711 102.644 138.105 108.688L130.828 103.467C130.546 103.265 130.225 103.122 129.886 103.049C129.547 102.975 129.197 102.972 128.856 103.04C128.516 103.107 128.193 103.244 127.908 103.442C127.623 103.64 127.381 103.894 127.198 104.189L122.276 111.53C122.246 111.73 122.118 112.703 122.751 113.472C123.452 114.32 124.797 114.579 126.001 114L129.731 109.6C132.516 110.742 134.035 113.587 133.46 116.153C133.032 118.074 131.475 119.634 129.458 120.244L127.064 117.055C126.886 116.384 126.485 115.794 125.928 115.381C125.711 115.223 124.662 114.477 123.586 114.925C123.147 115.117 122.781 115.444 122.543 115.86C122.305 116.275 122.207 116.756 122.264 117.232C123.411 120.701 124.558 124.17 125.703 127.639L129.83 138.315L120.566 219.373C120.612 226.835 126.284 232.905 133.065 233.486C140.648 234.138 147.866 227.774 147.983 219.373V135.723Z" fill="white"/>
<path fill-rule="evenodd" clip-rule="evenodd" d="M147.983 135.723L153.629 120.376L163.61 105.662C163.922 105.177 164.054 104.598 163.98 104.026C163.906 103.454 163.632 102.926 163.206 102.537C162.247 101.702 160.684 101.798 159.779 102.839L152.622 111.913L154.639 94.9839C154.656 93.7024 153.883 92.5917 152.824 92.2611C151.481 91.8434 149.829 92.7357 149.396 94.3748L145.565 109.298V90.5539C145.517 89.838 145.199 89.1671 144.675 88.677C144.151 88.1868 143.46 87.9142 142.743 87.9142C142.025 87.9142 141.334 88.1868 140.81 88.677C140.286 89.1671 139.968 89.838 139.92 90.5539C139.316 96.5988 138.711 102.644 138.105 108.688L130.828 103.467C130.546 103.265 130.225 103.122 129.886 103.049C129.547 102.975 129.197 102.972 128.856 103.04C128.516 103.107 128.193 103.244 127.908 103.442C127.623 103.64 127.381 103.894 127.198 104.189L122.276 111.53C122.246 111.73 122.118 112.703 122.751 113.472C123.452 114.32 124.797 114.579 126.001 114L129.731 109.6C132.516 110.742 134.035 113.587 133.46 116.153C133.032 118.074 131.475 119.634 129.458 120.244L127.064 117.055C126.886 116.384 126.485 115.794 125.928 115.381C125.711 115.223 124.662 114.477 123.586 114.925C123.147 115.117 122.781 115.444 122.543 115.86C122.305 116.275 122.207 116.756 122.264 117.232C123.411 120.701 124.558 124.17 125.703 127.639L129.83 138.315L120.566 219.373C120.612 226.835 126.284 232.905 133.065 233.486C140.648 234.138 147.866 227.774 147.983 219.373V135.723Z" fill="white"/>
<path d="M147.983 135.723L147.326 135.481L147.283 135.598V135.723H147.983ZM153.629 120.376L153.05 119.983L153.002 120.054L152.972 120.134L153.629 120.376ZM163.61 105.662L164.189 106.055L164.193 106.048L164.198 106.042L163.61 105.662ZM163.98 104.026L163.286 104.115V104.115L163.98 104.026ZM163.206 102.537L163.678 102.02L163.672 102.015L163.666 102.009L163.206 102.537ZM159.779 102.839L159.251 102.38L159.24 102.393L159.23 102.406L159.779 102.839ZM152.622 111.913L151.926 111.83L151.633 114.297L153.171 112.346L152.622 111.913ZM154.639 94.9839L155.334 95.0667L155.338 95.0302L155.339 94.9934L154.639 94.9839ZM152.824 92.2611L153.033 91.5929L153.032 91.5926L152.824 92.2611ZM149.396 94.3748L148.719 94.1958L148.718 94.2008L149.396 94.3748ZM145.565 109.298H144.865L146.243 109.472L145.565 109.298ZM145.565 90.5539H146.265V90.5305L146.264 90.5071L145.565 90.5539ZM144.675 88.677L144.197 89.1882V89.1882L144.675 88.677ZM140.81 88.677L140.332 88.1657V88.1657L140.81 88.677ZM139.92 90.5539L140.617 90.6236L140.618 90.6122L140.619 90.6007L139.92 90.5539ZM138.105 108.688L137.697 109.257L138.681 109.963L138.802 108.758L138.105 108.688ZM130.828 103.467L130.419 104.036L130.42 104.036L130.828 103.467ZM128.856 103.04L128.993 103.726L128.856 103.04ZM127.908 103.442L127.509 102.867L127.509 102.867L127.908 103.442ZM127.198 104.189L127.78 104.579L127.787 104.568L127.793 104.558L127.198 104.189ZM122.276 111.53L121.695 111.14L121.607 111.271L121.584 111.426L122.276 111.53ZM122.751 113.472L122.21 113.916L122.211 113.918L122.751 113.472ZM126.001 114L126.304 114.631L126.438 114.566L126.534 114.453L126.001 114ZM129.731 109.6L129.997 108.952L129.526 108.759L129.197 109.147L129.731 109.6ZM133.46 116.153L132.777 116L132.777 116L133.46 116.153ZM129.458 120.244L128.898 120.664L129.192 121.056L129.66 120.914L129.458 120.244ZM127.064 117.055L126.387 117.234L126.422 117.366L126.504 117.475L127.064 117.055ZM125.928 115.381L126.345 114.818L126.34 114.815L125.928 115.381ZM123.586 114.925L123.317 114.279L123.306 114.284L123.586 114.925ZM122.543 115.86L121.936 115.512L122.543 115.86ZM122.264 117.232L121.568 117.315L121.577 117.385L121.599 117.452L122.264 117.232ZM125.703 127.639L125.038 127.859L125.044 127.875L125.05 127.892L125.703 127.639ZM129.83 138.315L130.526 138.395L130.545 138.224L130.483 138.063L129.83 138.315ZM120.566 219.373L119.87 219.294L119.866 219.335L119.866 219.377L120.566 219.373ZM133.065 233.486L133.125 232.788L133.125 232.788L133.065 233.486ZM147.983 219.373L148.683 219.383V219.373H147.983ZM148.64 135.964L154.286 120.617L152.972 120.134L147.326 135.481L148.64 135.964ZM154.209 120.769L164.189 106.055L163.03 105.269L153.05 119.983L154.209 120.769ZM164.198 106.042C164.6 105.418 164.769 104.672 164.674 103.936L163.286 104.115C163.338 104.523 163.245 104.936 163.022 105.282L164.198 106.042ZM164.674 103.936C164.579 103.2 164.226 102.521 163.678 102.02L162.734 103.054C163.037 103.331 163.233 103.707 163.286 104.115L164.674 103.936ZM163.666 102.009C162.405 100.911 160.401 101.057 159.251 102.38L160.307 103.298C160.968 102.539 162.09 102.493 162.746 103.065L163.666 102.009ZM159.23 102.406L152.072 111.479L153.171 112.346L160.329 103.273L159.23 102.406ZM153.317 111.996L155.334 95.0667L153.944 94.9011L151.926 111.83L153.317 111.996ZM155.339 94.9934C155.36 93.4419 154.423 92.0272 153.033 91.5929L152.615 92.9292C153.342 93.1562 153.953 93.9629 153.939 94.9744L155.339 94.9934ZM153.032 91.5926C151.272 91.0452 149.244 92.2098 148.719 94.1958L150.072 94.5538C150.414 93.2616 151.69 92.6415 152.616 92.9295L153.032 91.5926ZM148.718 94.2008L144.887 109.123L146.243 109.472L150.074 94.5488L148.718 94.2008ZM146.265 109.298V90.5539H144.865V109.298H146.265ZM146.264 90.5071C146.204 89.6141 145.807 88.7771 145.153 88.1657L144.197 89.1882C144.591 89.557 144.831 90.062 144.867 90.6007L146.264 90.5071ZM145.153 88.1657C144.499 87.5543 143.638 87.2142 142.743 87.2142V88.6142C143.283 88.6142 143.802 88.8194 144.197 89.1882L145.153 88.1657ZM142.743 87.2142C141.848 87.2142 140.986 87.5543 140.332 88.1657L141.289 89.1882C141.683 88.8194 142.203 88.6142 142.743 88.6142V87.2142ZM140.332 88.1657C139.679 88.7771 139.282 89.6141 139.222 90.5071L140.619 90.6007C140.655 90.062 140.894 89.557 141.289 89.1882L140.332 88.1657ZM139.224 90.4843C138.619 96.5291 138.014 102.574 137.409 108.619L138.802 108.758C139.407 102.713 140.012 96.6684 140.617 90.6236L139.224 90.4843ZM138.514 108.12L131.236 102.899L130.42 104.036L137.697 109.257L138.514 108.12ZM131.236 102.899C130.877 102.64 130.468 102.458 130.035 102.365L129.738 103.733C129.983 103.786 130.215 103.889 130.419 104.036L131.236 102.899ZM130.035 102.365C129.602 102.271 129.154 102.267 128.72 102.353L128.993 103.726C129.239 103.677 129.493 103.68 129.738 103.733L130.035 102.365ZM128.72 102.353C128.285 102.44 127.873 102.614 127.509 102.867L128.307 104.017C128.513 103.874 128.746 103.775 128.993 103.726L128.72 102.353ZM127.509 102.867C127.145 103.119 126.837 103.443 126.603 103.82L127.793 104.558C127.925 104.344 128.1 104.16 128.307 104.017L127.509 102.867ZM126.617 103.799L121.695 111.14L122.858 111.92L127.78 104.579L126.617 103.799ZM121.584 111.426C121.551 111.644 121.37 112.896 122.21 113.916L123.291 113.027C122.866 112.51 122.941 111.816 122.968 111.635L121.584 111.426ZM122.211 113.918C123.151 115.054 124.86 115.325 126.304 114.631L125.697 113.369C124.733 113.833 123.752 113.585 123.29 113.026L122.211 113.918ZM126.534 114.453L130.265 110.052L129.197 109.147L125.467 113.547L126.534 114.453ZM129.466 110.247C131.967 111.274 133.27 113.8 132.777 116L134.143 116.306C134.8 113.373 133.064 110.21 129.997 108.952L129.466 110.247ZM132.777 116C132.41 117.645 131.061 119.028 129.255 119.574L129.66 120.914C131.889 120.24 133.653 118.502 134.144 116.305L132.777 116ZM130.017 119.824L127.624 116.635L126.504 117.475L128.898 120.664L130.017 119.824ZM127.74 116.875C127.522 116.051 127.029 115.326 126.345 114.818L125.511 115.943C125.941 116.262 126.25 116.717 126.387 117.234L127.74 116.875ZM126.34 114.815C126.215 114.724 125.833 114.45 125.313 114.266C124.791 114.081 124.069 113.966 123.317 114.279L123.855 115.571C124.179 115.437 124.52 115.47 124.845 115.586C125.172 115.701 125.423 115.879 125.515 115.946L126.34 114.815ZM123.306 114.284C122.73 114.535 122.249 114.966 121.936 115.512L123.151 116.208C123.314 115.923 123.565 115.698 123.866 115.567L123.306 114.284ZM121.936 115.512C121.623 116.057 121.494 116.69 121.568 117.315L122.959 117.149C122.92 116.823 122.987 116.493 123.151 116.208L121.936 115.512ZM121.599 117.452C122.746 120.921 123.893 124.39 125.038 127.859L126.368 127.42C125.222 123.951 124.076 120.481 122.928 117.012L121.599 117.452ZM125.05 127.892L129.177 138.568L130.483 138.063L126.356 127.387L125.05 127.892ZM129.135 138.236L119.87 219.294L121.261 219.453L130.526 138.395L129.135 138.236ZM119.866 219.377C119.914 227.184 125.848 233.57 133.005 234.183L133.125 232.788C126.72 232.24 121.31 226.485 121.266 219.369L119.866 219.377ZM133.005 234.183C141.008 234.871 148.56 228.175 148.683 219.383L147.283 219.363C147.171 227.373 140.288 233.404 133.125 232.788L133.005 234.183ZM148.683 219.373V135.723H147.283V219.373H148.683Z" fill="#11181C" mask="url(#path-34-inside-3_2246_8355)"/>
<path d="M136.493 128.769C136.467 128.769 136.441 128.766 136.416 128.76C136.375 128.749 136.338 128.731 136.304 128.707C136.271 128.682 136.243 128.651 136.221 128.615C136.2 128.579 136.186 128.54 136.18 128.498C136.174 128.457 136.176 128.415 136.186 128.375C136.462 127.338 136.462 126.248 136.186 125.211C135.198 121.602 131.041 120.441 130.864 120.393C130.808 120.378 130.757 120.347 130.717 120.305C130.677 120.262 130.65 120.21 130.638 120.153C130.625 120.095 130.628 120.035 130.647 119.979C130.666 119.923 130.701 119.874 130.747 119.836C131.885 118.911 136.017 115.97 141.482 116.844C144.167 117.291 146.651 118.548 148.601 120.447C148.631 120.476 148.655 120.51 148.672 120.548C148.689 120.586 148.698 120.627 148.699 120.669C148.7 120.71 148.692 120.752 148.677 120.791C148.662 120.829 148.64 120.865 148.611 120.895C148.582 120.925 148.548 120.949 148.51 120.966C148.472 120.982 148.431 120.991 148.389 120.992C148.347 120.993 148.306 120.986 148.267 120.971C148.229 120.956 148.193 120.933 148.163 120.904C146.305 119.093 143.936 117.895 141.376 117.471C136.754 116.727 133.122 118.865 131.609 119.969C132.9 120.444 135.928 121.885 136.792 125.032C137.097 126.177 137.097 127.381 136.792 128.525C136.776 128.593 136.738 128.654 136.684 128.698C136.63 128.742 136.563 128.767 136.493 128.769Z" fill="#11181C"/>
<path d="M26.0601 99.686C25.9697 99.6851 25.8806 99.6649 25.7988 99.6267C25.7169 99.5885 25.6442 99.5332 25.5854 99.4645C23.9136 97.505 22.4393 95.3852 21.1839 93.136C21.1434 93.0633 21.1176 92.9833 21.108 92.9006C21.0984 92.8179 21.1052 92.7341 21.128 92.6541C21.1507 92.574 21.1891 92.4992 21.2407 92.4339C21.2924 92.3687 21.3564 92.3142 21.4292 92.2737C21.5019 92.2332 21.5819 92.2074 21.6646 92.1978C21.7472 92.1882 21.831 92.195 21.9111 92.2178C21.9912 92.2405 22.0659 92.2789 22.1312 92.3305C22.1965 92.3822 22.2509 92.4462 22.2914 92.519C23.5065 94.6949 24.9331 96.7458 26.5505 98.6418C26.6288 98.7334 26.6794 98.8453 26.6963 98.9646C26.7131 99.0838 26.6956 99.2054 26.6458 99.3151C26.5959 99.4247 26.5158 99.5179 26.4149 99.5836C26.3139 99.6493 26.1963 99.6849 26.0759 99.686H26.0601ZM18.7205 86.5005C18.5862 86.5004 18.4554 86.4576 18.3471 86.3783C18.2387 86.2989 18.1584 86.1871 18.1178 86.0591C17.6862 84.6917 17.3328 83.3009 17.0593 81.8933C16.8425 80.7747 16.6764 79.634 16.5641 78.5044C16.5559 78.4213 16.5641 78.3374 16.5883 78.2574C16.6126 78.1775 16.6523 78.1032 16.7053 78.0386C16.7582 77.974 16.8234 77.9205 16.897 77.8811C16.9707 77.8417 17.0513 77.8172 17.1344 77.809C17.2176 77.8008 17.3015 77.8091 17.3814 77.8333C17.4613 77.8575 17.5357 77.8972 17.6003 77.9502C17.6648 78.0032 17.7183 78.0683 17.7577 78.142C17.7971 78.2156 17.8216 78.2963 17.8298 78.3794C17.9374 79.4711 18.0988 80.5722 18.3044 81.6528C18.566 83.0123 18.9051 84.3556 19.3202 85.6762C19.3698 85.8359 19.3542 86.0087 19.2769 86.1569C19.1995 86.3051 19.0666 86.4167 18.9072 86.4673C18.8471 86.4879 18.7841 86.4991 18.7205 86.5005ZM17.2223 71.4939H17.1558C17.0731 71.4853 16.9929 71.4604 16.9198 71.4207C16.8468 71.381 16.7822 71.3273 16.7299 71.2626C16.6776 71.1979 16.6385 71.1236 16.615 71.0439C16.5914 70.9641 16.5838 70.8805 16.5926 70.7978C16.8675 68.2377 17.3899 65.7103 18.1526 63.251C18.2023 63.0905 18.3137 62.9563 18.4624 62.878C18.611 62.7997 18.7847 62.7836 18.9452 62.8333C19.1057 62.883 19.2399 62.9945 19.3182 63.1431C19.3965 63.2918 19.4126 63.4655 19.3629 63.626C18.6243 66.0031 18.1183 68.4463 17.8519 70.9212C17.837 71.0779 17.7642 71.2234 17.6478 71.3293C17.5313 71.4351 17.3796 71.4939 17.2223 71.4939ZM21.6807 57.0664C21.5715 57.0664 21.4641 57.0381 21.369 56.9843C21.274 56.9305 21.1945 56.853 21.1382 56.7593C21.082 56.6656 21.051 56.559 21.0482 56.4498C21.0454 56.3406 21.0709 56.2325 21.1222 56.1361L21.195 56.0032C21.2311 55.9242 21.2832 55.8534 21.3479 55.7953C21.4126 55.7372 21.4886 55.6931 21.5711 55.6657C21.6536 55.6383 21.7409 55.6282 21.8274 55.636C21.914 55.6438 21.9981 55.6694 22.0744 55.7111C22.1506 55.7528 22.2175 55.8098 22.2708 55.8785C22.324 55.9472 22.3626 56.0262 22.384 56.1105C22.4054 56.1947 22.4092 56.2825 22.3952 56.3683C22.3812 56.4541 22.3496 56.5361 22.3025 56.6092L22.236 56.7326C22.1822 56.8331 22.1021 56.9172 22.0043 56.976C21.9066 57.0347 21.7948 57.066 21.6807 57.0664Z" fill="#FF7A00"/>
<path d="M48.6241 52.1589L44.1002 48.7673C44.1293 48.7077 44.1541 48.6461 44.1745 48.583L44.1739 48.5813C44.4568 48.2723 44.6112 47.8689 44.606 47.452C44.606 46.6041 44.0092 45.9167 43.273 45.9167C43.273 45.9167 42.5062 45.5347 40.8195 46.3078L38.304 44.4219C38.573 43.966 39.3143 43.5913 39.3143 43.5913C39.3143 43.5913 42.8568 42.1441 45.8946 40.6661C48.9325 39.1882 47.8099 36.9557 47.8099 36.9557C47.7476 36.874 47.6828 36.7964 47.6156 36.7228C44.9781 33.823 38.7261 36.9557 38.7261 36.9557C38.7261 36.9557 34.7639 38.5268 30.1978 40.3716C30.0179 39.7689 29.5226 39.3351 28.9383 39.3351C28.9383 39.3351 28.3434 39.0388 27.0493 39.4961L9.27226 33.2429C8.81523 33.0822 8.33373 33 7.84865 33H6.1121C6.08804 33 6.06461 33.0077 6.04529 33.0218C6.02597 33.036 6.01178 33.056 6.00481 33.0787C5.99784 33.1015 5.99846 33.1259 6.00658 33.1483C6.01471 33.1707 6.0299 33.1899 6.04991 33.2031L7.48998 34.1526C8.43678 34.7768 9.42577 35.3361 10.45 35.8264L12.7821 36.9428C12.5202 37.3067 12.0191 38.1066 12.3958 38.4543C12.6644 38.7022 13.5547 38.1934 14.3133 37.6758L17.3822 39.1449L17.0691 45.8936C16.9148 45.9725 16.7692 46.0505 16.6307 46.1276L10.6342 43.9479C10.4123 43.8672 10.1777 43.8259 9.94131 43.8259H8.31576C8.288 43.8259 8.26106 43.8352 8.23932 43.8523C8.21757 43.8693 8.2023 43.8931 8.19599 43.9199C8.18967 43.9466 8.19269 43.9747 8.20455 43.9995C8.2164 44.0243 8.23639 44.0444 8.26127 44.0566L8.51045 44.1784L14.9437 47.3217L14.9441 47.3217C14.6043 47.6181 14.3426 47.9919 14.1816 48.4108C14.1448 48.5089 14.1269 48.6131 14.1291 48.7178L18.4217 49.0244L22.7804 50.7828H24.2333L22.188 48.9604C24.5871 48.7822 26.9582 48.336 29.2559 47.6305C29.7561 47.6821 30.2606 47.6785 30.7601 47.6198C31.1655 47.5762 31.5676 47.5063 31.9637 47.4104C33.0872 47.5719 34.1958 47.8221 35.2789 48.1588C35.1099 48.5863 34.9807 49.1318 35.3026 49.346C35.5478 49.5091 36.1117 49.1262 36.6697 48.6426C36.81 48.6966 36.9506 48.7499 37.0899 48.8068L38.7816 49.4974C38.6238 49.9157 38.5183 50.4246 38.8266 50.6298C39.0546 50.7815 39.5585 50.4608 40.0768 50.0261L42.4128 50.9797C42.2327 51.3751 42.108 51.8454 42.3876 52.0656C42.6101 52.2408 43.1678 51.9351 43.7402 51.5216L47.1548 52.9155C47.3171 52.9818 47.4929 53.0097 47.668 52.997C47.8432 52.9844 48.013 52.9316 48.1639 52.8427L48.6 52.5859C48.6078 52.5813 48.6152 52.5763 48.6225 52.5709C48.6549 52.547 48.6812 52.516 48.6994 52.4803C48.7176 52.4447 48.7271 52.4053 48.7273 52.3653C48.7274 52.3254 48.7182 52.2859 48.7003 52.2501C48.6824 52.2142 48.6563 52.183 48.6241 52.1589ZM20.8771 44.2014L19.9987 40.3974L21.8905 41.303C22.3011 41.4976 22.6627 41.7804 22.9489 42.1307C23.1859 42.4233 23.3867 42.7866 23.3633 43.1621C22.4811 43.5276 21.6433 43.8775 20.8771 44.2014ZM13.0892 37.5979C13.0892 37.5979 12.8937 37.5603 13.1596 37.1235L13.7478 37.4051C13.4734 37.5372 13.2184 37.6301 13.0892 37.5979ZM35.8506 48.392C35.831 48.3892 35.8127 48.3805 35.7983 48.3671C35.7839 48.3536 35.774 48.3361 35.77 48.3169C35.8302 48.3371 35.89 48.3583 35.9499 48.3791C35.9178 48.3887 35.8842 48.3931 35.8506 48.392Z" fill="#FFAD32" stroke="#D2DEFF" stroke-width="0.0641026" stroke-miterlimit="10"/>
</svg>
