<svg width="218" height="243" viewBox="0 0 218 243" fill="none" xmlns="http://www.w3.org/2000/svg">
<path d="M83.6026 30.1589L88.1024 26.7673C88.0735 26.7077 88.0488 26.6461 88.0286 26.583L88.0291 26.5813C87.7477 26.2723 87.5942 25.8689 87.5993 25.452C87.5993 24.6041 88.193 23.9167 88.9252 23.9167C88.9252 23.9167 89.688 23.5347 91.3657 24.3078L93.8679 22.4219C93.6002 21.966 92.8629 21.5913 92.8629 21.5913C92.8629 21.5913 89.3393 20.1441 86.3176 18.6661C83.2959 17.1882 84.4125 14.9557 84.4125 14.9557C84.4745 14.874 84.5389 14.7964 84.6057 14.7228C87.2292 11.823 93.4479 14.9557 93.4479 14.9557C93.4479 14.9557 97.3891 16.5268 101.931 18.3716C102.11 17.7689 102.603 17.3351 103.184 17.3351C103.184 17.3351 103.775 17.0388 105.063 17.4961L122.745 11.2429C123.2 11.0822 123.679 11 124.161 11H125.888C125.912 11 125.936 11.0077 125.955 11.0218C125.974 11.036 125.988 11.056 125.995 11.0787C126.002 11.1015 126.002 11.1259 125.993 11.1483C125.985 11.1707 125.97 11.1899 125.95 11.2031L124.518 12.1526C123.576 12.7768 122.592 13.3361 121.574 13.8264L119.254 14.9428C119.515 15.3067 120.013 16.1066 119.638 16.4543C119.371 16.7022 118.485 16.1934 117.731 15.6758L114.678 17.1449L114.99 23.8936C115.143 23.9725 115.288 24.0505 115.426 24.1276L121.39 21.9479C121.611 21.8672 121.845 21.8259 122.08 21.8259H123.697C123.724 21.8259 123.751 21.8352 123.773 21.8523C123.794 21.8693 123.809 21.8931 123.816 21.9199C123.822 21.9466 123.819 21.9747 123.807 21.9995C123.795 22.0243 123.776 22.0444 123.751 22.0566L123.503 22.1784L117.104 25.3217L117.103 25.3217C117.441 25.6181 117.702 25.9919 117.862 26.4108C117.899 26.5089 117.916 26.6131 117.914 26.7178L113.644 27.0244L109.309 28.7828H107.864L109.898 26.9604C107.512 26.7822 105.153 26.336 102.868 25.6305C102.37 25.6821 101.868 25.6785 101.372 25.6198C100.968 25.5762 100.568 25.5063 100.174 25.4104C99.0569 25.5719 97.9542 25.8221 96.8768 26.1588C97.0449 26.5863 97.1734 27.1318 96.8532 27.346C96.6094 27.5091 96.0485 27.1262 95.4935 26.6426C95.3539 26.6966 95.214 26.7499 95.0755 26.8068L93.3927 27.4974C93.5498 27.9157 93.6547 28.4246 93.348 28.6298C93.1212 28.7815 92.62 28.4608 92.1045 28.0261L89.7809 28.9797C89.96 29.3751 90.084 29.8454 89.8059 30.0656C89.5847 30.2408 89.0299 29.9351 88.4606 29.5216L85.0641 30.9155C84.9027 30.9818 84.7279 31.0097 84.5536 30.997C84.3794 30.9844 84.2105 30.9316 84.0604 30.8427L83.6266 30.5859C83.6189 30.5813 83.6114 30.5763 83.6042 30.5709C83.572 30.547 83.5458 30.516 83.5277 30.4803C83.5097 30.4447 83.5002 30.4053 83.5 30.3653C83.4998 30.3254 83.509 30.2859 83.5268 30.2501C83.5446 30.2142 83.5706 30.183 83.6026 30.1589ZM111.202 22.2014L112.076 18.3974L110.194 19.303C109.786 19.4976 109.426 19.7804 109.141 20.1307C108.905 20.4233 108.706 20.7866 108.729 21.1621C109.607 21.5276 110.44 21.8775 111.202 22.2014ZM118.948 15.5979C118.948 15.5979 119.143 15.5603 118.879 15.1235L118.293 15.4051C118.566 15.5372 118.82 15.6301 118.948 15.5979ZM96.3082 26.392C96.3277 26.3892 96.3459 26.3805 96.3602 26.3671C96.3745 26.3536 96.3844 26.3361 96.3883 26.3169C96.3285 26.3371 96.269 26.3583 96.2094 26.3791C96.2414 26.3887 96.2748 26.3931 96.3082 26.392Z" fill="#6A8AFF" stroke="#D2DEFF" stroke-width="0.0641026" stroke-miterlimit="10"/>
<path d="M76.3449 188.628C76.3449 188.628 37.7663 214.976 36.548 225.921C35.3297 236.865 47.5125 258.349 50.3549 262.808C53.1976 267.267 62.9438 277.807 63.3499 279.022C63.756 280.239 65.7865 283.481 66.5986 283.887C66.5986 283.887 65.7864 286.724 67.0047 287.94C68.223 289.156 67.4108 292.805 71.0656 293.615C74.7205 294.426 88.5274 292.399 90.1518 287.13C91.7762 281.86 88.5274 279.833 88.5274 279.833C88.5274 279.833 89.1367 276.793 87.9182 275.982C86.6999 275.172 85.4816 275.577 85.4816 274.766C85.4816 273.956 84.0602 263.214 79.1873 254.296C74.8391 246.338 72.2837 238.892 72.6898 237.27C73.0959 235.649 83.2482 230.785 84.4663 230.379C85.6846 229.974 104.162 224.096 118.781 216.8C133.4 209.503 138.679 208.692 138.679 208.692L141.928 200.18L76.3449 188.628Z" fill="#1150CB"/>
<path d="M172.838 196.273C173.4 196.329 194.923 195.113 198.984 197.951C203.045 200.788 201.827 221.056 201.827 224.704C201.827 228.353 197.979 299.94 197.979 299.94L184.771 288.346L151.065 202.41L172.838 196.273Z" fill="#6A8AFF"/>
<path d="M194.314 199.775C194.72 199.775 197.563 198.964 198.781 200.991C199.999 203.018 200.405 218.422 199.999 219.232C199.593 220.043 196.751 221.664 196.751 221.664L194.314 199.775ZM172.182 203.626C172.182 203.626 175.621 199.17 181.008 196.128C181.008 196.128 177.867 195.519 175.837 195.924C173.806 196.329 161.624 202.815 161.218 203.626C160.812 204.436 172.182 203.626 172.182 203.626Z" fill="#333333"/>
<path d="M167.344 204.057C167.344 204.057 168.933 201.599 171.37 199.978C173.806 198.356 178.851 195.867 178.851 195.867L177.461 195.924C177.461 195.924 166.183 200.71 165.122 203.992C164.06 207.274 167.344 204.057 167.344 204.057Z" fill="#11181C"/>
<path d="M186.395 150.929C186.395 150.929 185.989 156.199 189.238 165.522C192.486 174.845 192.486 182.547 187.613 189.033C182.74 195.519 175.601 197.155 172.47 198.364C169.339 199.572 168.121 201.193 160.405 203.626C152.69 206.058 138.477 205.247 137.664 206.058C136.852 206.868 130.761 210.517 125.075 212.138C119.39 213.759 95.4309 215.786 91.37 217.002C87.3091 218.218 79.5935 219.84 79.1874 220.651C78.7813 221.461 79.1874 223.083 78.3752 223.488C77.563 223.894 75.9387 232.811 73.5021 240.513C71.0656 248.215 62.5376 272.537 58.883 276.59C58.883 276.59 60.5073 277.806 59.6952 279.023C58.883 280.239 57.2586 280.644 57.2586 281.86C57.2586 283.076 57.2586 286.319 54.8221 286.724C52.3855 287.13 44.6699 281.86 42.2332 281.86C39.7966 281.86 34.5176 281.86 34.1113 279.833C33.7052 277.806 36.1418 273.347 36.1418 273.347C36.1418 273.347 34.9235 270.51 36.1418 269.699C37.3601 268.888 38.5783 269.699 38.5783 269.699C38.5783 269.699 38.9844 265.24 39.7966 262.403C40.6088 259.565 48.3246 225.515 49.1368 217.003C49.9489 208.49 51.5733 198.356 54.0099 194.302C56.4464 190.249 78.7813 182.547 89.7458 180.52C89.7458 180.52 112.487 166.738 116.954 164.711C116.954 164.711 117.36 160.658 118.578 159.847C119.796 159.036 121.421 159.442 121.827 158.631C122.233 157.82 121.015 157.009 121.015 156.199C121.015 155.388 125.076 148.902 125.076 148.902L135.997 135.258L179.086 139.579L186.395 150.929Z" fill="#1150CB"/>
<path d="M140 156C139.833 158.833 138 164 135 167C131.665 170.335 126.5 171.824 117 173.5C110.2 174.7 95.8333 178.667 89.5 180.5M189.5 170L186.5 167C186.667 169 185.5 173.5 182.5 177.5C178.682 182.591 173.5 184.5 173.5 186C173.5 187.5 173.5 189.5 173.5 192.5C173.5 195.5 172.833 196.833 172.5 198" stroke="#11181C" stroke-width="0.7" stroke-linecap="round"/>
<path d="M122 165C125 164 130.5 165 134.5 167.5M134.5 167.5C134.5 167.5 154.5 158.5 163.5 166.5M134.5 167.5C134.5 167.5 131.5 162.5 129 162.5M134.5 167.5C134.5 167.5 142.5 160 156 160C169.5 160 176 165.5 176 165.5" stroke="#11181C" stroke-width="0.7" stroke-linecap="round"/>
<path d="M170.262 174.152C161.206 183.079 149.175 187.873 137.144 191.346C130.749 193.193 124.266 194.727 117.807 196.329C110.339 198.182 102.873 200.038 95.4052 201.886C93.3556 202.393 91.2925 202.901 89.1863 203.106C87.1163 203.308 85.0704 203 83.0022 203.07C80.5772 203.152 77.706 204.257 76.998 206.679C76.201 205.529 75.0845 204.402 73.6941 204.386C71.9394 204.366 71.2132 206.05 71.1258 207.545C71.0591 208.687 71.2148 209.847 71.2549 210.988C71.3009 212.295 71.3078 213.603 71.2774 214.91C71.217 217.512 71.0094 220.111 70.6726 222.692C69.2889 233.298 65.7738 243.524 61.6569 253.355C59.298 258.987 56.722 264.526 54.1283 270.054C53.9403 270.455 54.5354 270.807 54.7274 270.404C62.9875 253.049 71.5294 234.843 72.085 215.283C72.1239 213.914 72.1229 212.544 72.0787 211.175C72.0399 209.974 71.8666 208.746 71.943 207.545C72.0243 206.269 72.7358 204.781 74.2729 205.332C75.459 205.758 76.2957 206.999 76.8885 208.043C77.09 208.398 77.6484 208.238 77.6502 207.837C77.6685 203.688 83.048 203.838 85.8903 203.977C89.4291 204.15 92.7973 203.374 96.209 202.528C103.547 200.708 110.885 198.888 118.223 197.068C130.368 194.056 142.786 191.35 154.178 186.024C160.295 183.164 166.023 179.481 170.842 174.731C171.218 174.36 170.638 173.782 170.262 174.152Z" fill="#11181C"/>
<path d="M210.287 61.9927C208.384 59.2359 205.862 57.0332 202.876 55.5113C199.829 53.9589 196.33 52.965 193.758 50.6197C191.805 48.8382 190.611 46.3748 190.289 43.7899C190.258 42.8624 190.253 41.9806 190.268 41.1391C190.302 40.8291 190.347 40.5196 190.407 40.2124C190.45 39.9933 190.406 39.8038 190.314 39.6504C190.657 31.8621 192.341 27.4143 187.736 19.472C182.154 9.84309 157.662 20.6992 157.662 20.6992L146.592 49.6784C146.592 49.6784 134.375 53.0575 130.558 71.2286C128.942 78.9252 188.661 94.3281 188.661 94.3281C188.661 94.3281 211.528 85.0267 208.92 69.2107C207.708 61.8611 203.762 58.6336 199.816 56.126C202.098 57.1899 204.314 58.3228 206.183 60.1001C208.676 62.4717 210.528 65.543 211.358 68.8871C212.365 72.9433 211.378 76.9409 209.062 80.3526C208.494 81.1902 209.843 82.2565 210.484 81.4476C215.032 75.7116 214.295 67.7987 210.287 61.9927Z" fill="#11181C"/>
<path d="M132.588 68.0332C132.588 68.0332 146.801 64.385 148.02 64.7904C149.238 65.1957 195.532 71.2761 195.532 71.2761L211.37 84.2477L193.832 132.458C193.832 132.458 191.877 136.539 190.659 137.35C189.441 138.16 188.628 138.971 189.034 139.782C189.441 140.593 189.847 142.214 189.441 143.025C189.034 143.835 187.004 145.457 187.41 146.268C187.816 147.078 189.034 150.727 188.222 152.753C187.41 154.78 186.192 154.78 186.192 154.78C186.192 154.78 175.633 145.052 165.481 144.646C155.329 144.241 143.176 146.744 138.07 142.417C132.965 138.09 124.872 94.3818 124.872 94.3818L132.588 68.0332Z" fill="#FF7A00"/>
<path d="M130.67 98.2687C130.67 98.2687 137.161 112.226 139.038 124.81C140.915 137.395 140.57 146.993 136.183 150.218C131.796 153.442 120.193 155.909 114.152 150.347C108.111 144.784 105.47 138.402 105.454 135.803C105.439 133.204 106.041 133.4 105.432 132.004C104.823 130.608 103.216 129.818 105.194 125.608C107.172 121.398 108.963 119.388 108.963 119.388C108.963 119.388 107.946 116.795 109.136 114.789C110.326 112.783 110.722 111.981 110.722 111.981C110.722 111.981 109.691 106.988 110.674 103.784C111.657 100.579 114.937 98.0127 115.33 96.6109C115.722 95.209 116.613 79.1362 119.391 74.7215C122.169 70.3069 123.861 68.7633 129.576 67.7083C135.291 66.6531 129.604 87.279 129.604 87.279L130.67 98.2687Z" fill="#FF7A00"/>
<path d="M129.5 94.5809L126.941 94.2616L117.017 71.677L122.9 69.4747L126.746 75.6159C126.744 75.6294 126.743 75.6439 126.741 75.6595C126.731 75.7656 126.716 75.9193 126.7 76.1113C126.668 76.495 126.63 77.032 126.604 77.6459C126.553 78.8676 126.552 80.4173 126.761 81.6704C126.966 82.897 127.679 86.2517 128.338 89.2875C128.668 90.8082 128.985 92.2527 129.22 93.317C129.336 93.8436 129.432 94.2772 129.5 94.5809Z" fill="white" stroke="#11181C" stroke-width="0.7"/>
<path d="M102.944 35.6045C102.944 35.6045 143.553 63.5742 143.147 64.7903C142.741 66.0064 131.58 82.37 130.866 82.0928C130.152 81.8155 90.3551 53.8456 89.949 52.6297C89.5427 51.4136 101.319 35.6045 102.944 35.6045Z" fill="white"/>
<path d="M93.0465 47.2873C91.1596 49.9872 89.8067 52.2039 89.9488 52.6297C90.3549 53.8458 130.152 81.8155 130.866 82.0928C131.145 82.2013 133.022 79.7652 135.228 76.6855C127.218 71.144 101.687 53.4671 93.0465 47.2873ZM141.882 66.928C142.597 65.8103 143.069 65.0229 143.147 64.7903C143.553 63.5742 102.944 35.6045 102.944 35.6045C102.553 35.6045 101.575 36.5198 100.321 37.925L141.882 66.928Z" fill="#FFE3A5"/>
<path d="M111.878 40.4689C111.878 40.4689 99.6948 55.0617 100.507 56.6831C101.319 58.3046 122.842 73.7081 124.06 73.3027C125.278 72.8974 135.837 58.3044 135.431 57.0885C135.025 55.8726 112.284 39.6581 111.878 40.4689Z" fill="#1150CB"/>
<path d="M110 142C109.333 139.167 108.1 132.3 108.5 127.5C109 121.5 111 116.5 114 113C117 109.5 118.5 106.5 119 105C119.4 103.8 119.5 100.5 119.5 99" stroke="#11181C" stroke-width="0.7" stroke-linecap="round"/>
<path d="M135 84C135.667 85.6667 136.9 89.7 136.5 92.5C136 96 135 97.5 135 99.5C135 101.5 134 103.5 135 106.5C136 109.5 138.284 116.065 139 120C140 125.5 140.5 136.5 140 143" stroke="#11181C" stroke-width="0.7" stroke-linecap="round"/>
<path d="M131.076 99.2661L130.734 99.3391L130.735 99.3423L131.076 99.2661ZM131.076 99.2661C130.734 99.3391 130.734 99.3391 130.734 99.339L130.734 99.3385L130.734 99.3365L130.732 99.3286L130.725 99.297L130.698 99.1731C130.675 99.0642 130.64 98.9041 130.595 98.6991C130.505 98.2893 130.374 97.7004 130.21 96.9848C129.883 95.5535 129.425 93.616 128.905 91.5907C128.384 89.5644 127.801 87.4544 127.222 85.6764C126.638 83.881 126.074 82.475 125.603 81.8164C124.606 80.4236 122.899 78.6174 121.427 77.1481C120.694 76.4161 120.024 75.7723 119.537 75.3115C119.293 75.0811 119.096 74.8966 118.959 74.7698C118.891 74.7064 118.838 74.6574 118.802 74.6244L118.761 74.5869L118.751 74.5775L118.749 74.5752L118.748 74.5746L118.748 74.5745L118.984 74.3162M131.076 99.2661C130.735 99.3423 130.735 99.3423 130.735 99.3424L130.735 99.343L130.736 99.3455L130.738 99.3557L130.747 99.3964C130.755 99.4326 130.766 99.4864 130.781 99.5567C130.812 99.6972 130.855 99.9037 130.909 100.166C131.016 100.692 131.163 101.442 131.322 102.339C131.642 104.134 132.011 106.513 132.211 108.859C132.412 111.213 132.44 113.5 132.095 115.127C131.922 115.943 131.664 116.548 131.326 116.917C131.008 117.264 130.605 117.422 130.044 117.321C128.792 117.097 127.935 116.456 127.333 115.56C126.723 114.653 126.37 113.475 126.166 112.187C125.962 110.902 125.91 109.536 125.884 108.266C125.879 108.045 125.875 107.826 125.872 107.61C125.854 106.603 125.838 105.673 125.749 104.954C125.525 103.142 124.295 101.48 123.167 100.161C122.882 99.8283 122.599 99.513 122.338 99.2206L122.337 99.2197C122.074 98.9262 121.833 98.6575 121.626 98.4117C121.417 98.1648 121.251 97.9502 121.133 97.7663C121.011 97.5753 120.964 97.4514 120.956 97.3809C120.549 93.9259 120.04 90.8764 119.581 88.5871C119.352 87.4427 119.135 86.4862 118.949 85.7628C118.766 85.0537 118.606 84.5352 118.485 84.2934L118.485 84.2933C118.07 83.4651 117.645 82.6194 116.347 81.2914C115.705 80.6344 114.387 79.4298 113.134 78.3424C112.505 77.7977 111.89 77.2791 111.378 76.8704C110.88 76.472 110.449 76.1511 110.206 76.0299C109.867 75.8603 109.498 75.5012 109.199 75.1523C109.053 74.983 108.932 74.8253 108.847 74.7101C108.804 74.6526 108.771 74.606 108.749 74.5741L108.724 74.538L108.718 74.5293L108.717 74.5274L108.717 74.5272L108.717 74.5271L108.717 74.5271L108.717 74.5271L108.65 74.4274L108.536 74.3896L108.536 74.3896L108.536 74.3895L108.536 74.3895L108.536 74.3895L108.535 74.389L108.527 74.3862C108.519 74.3836 108.507 74.3794 108.491 74.3736C108.459 74.3621 108.412 74.3444 108.352 74.3205C108.233 74.2728 108.064 74.2007 107.871 74.1044C107.482 73.9099 107.011 73.6258 106.643 73.2578C106.532 73.1472 106.438 72.9013 106.401 72.4984C106.366 72.1138 106.389 71.6588 106.439 71.2134C106.488 70.7706 106.562 70.3504 106.624 70.04C106.655 69.8852 106.683 69.7584 106.703 69.6708C106.713 69.627 106.721 69.593 106.727 69.5702L106.733 69.5446L106.734 69.5385L106.735 69.5371L106.735 69.5369L106.735 69.5369L106.735 69.5369L106.753 69.4626L106.739 69.3873L106.395 69.4519L106.739 69.3873L106.739 69.3871L106.739 69.3863L106.738 69.383L106.736 69.3695L106.726 69.3159C106.717 69.2687 106.705 69.1991 106.689 69.11C106.658 68.9317 106.614 68.6752 106.563 68.3635C106.462 67.7398 106.336 66.8968 106.235 66.0172C106.134 65.1357 106.06 64.2261 106.06 63.4665C106.06 63.0863 106.079 62.7523 106.119 62.4824C106.162 62.2032 106.222 62.0311 106.28 61.9444C106.296 61.9203 106.34 61.8722 106.436 61.8058C106.529 61.7418 106.653 61.6718 106.81 61.5977C107.123 61.4495 107.54 61.297 108.032 61.1476C109.016 60.8493 110.269 60.5737 111.527 60.3729C112.785 60.1718 114.034 60.0479 115.012 60.0479C115.502 60.0479 115.91 60.0792 116.211 60.1419C116.362 60.1732 116.475 60.2101 116.553 60.2482C116.635 60.2874 116.659 60.3174 116.663 60.323C116.793 60.5183 116.795 60.6986 116.718 60.8914C116.632 61.104 116.449 61.3272 116.212 61.5403C115.979 61.7494 115.719 61.927 115.514 62.0538C115.412 62.1167 115.325 62.1659 115.264 62.1992C115.234 62.2157 115.21 62.2283 115.195 62.2365L115.177 62.2454L115.173 62.2474L115.173 62.2476L115.173 62.2476L115.173 62.2477L118.984 74.3162M118.984 74.3162C118.652 74.4271 118.652 74.427 118.652 74.427L118.652 74.4268L118.652 74.4262L118.651 74.4244L118.649 74.4182L118.642 74.3958C118.636 74.3765 118.627 74.3487 118.616 74.3135C118.595 74.2431 118.565 74.1428 118.532 74.0213C118.467 73.7796 118.387 73.4494 118.334 73.1028C118.281 72.7609 118.25 72.3805 118.295 72.0467C118.337 71.7262 118.465 71.3464 118.828 71.1655C119.072 71.0439 119.417 70.9594 119.736 70.8813L119.745 70.8791L119.765 70.8741C120.1 70.792 120.438 70.7095 120.737 70.5946C121.046 70.4759 121.267 70.3396 121.393 70.1795C121.502 70.0398 121.566 69.8498 121.487 69.5369C121.319 68.8653 120.712 68.3202 120.07 67.926C119.758 67.7343 119.456 67.5898 119.232 67.4931C119.121 67.4449 119.029 67.409 118.966 67.3854C118.935 67.3736 118.911 67.3649 118.895 67.3593L118.878 67.3532L118.874 67.3519L118.874 67.3518L118.873 67.3518L118.873 67.3517L118.873 67.3517L118.634 67.2721L118.634 67.0202V67.02L118.634 67.0199V67.0199V67.0197L118.634 67.0173L118.634 67.0038C118.634 66.9913 118.633 66.972 118.632 66.9466C118.63 66.8959 118.626 66.8215 118.617 66.7305C118.599 66.5473 118.564 66.3019 118.494 66.0479C118.349 65.5153 118.088 65.0637 117.655 64.9197C117.09 64.7316 116.747 64.7425 116.565 64.7788C116.474 64.797 116.419 64.8223 116.394 64.8366C116.386 64.8408 116.381 64.8442 116.378 64.8463L115.791 65.4315L115.791 64.5879V64.5878L115.791 64.5878V64.5877V64.5876L118.984 74.3162ZM118.984 74.3162L118.652 74.4271L118.681 74.5132L118.748 74.5745L118.984 74.3162Z" fill="white" stroke="#11181C" stroke-width="0.7"/>
<path d="M119 110C119.5 110.667 119.53 111.712 121.5 112.5C124 113.5 125 114.5 125 116C125 117.5 125.5 127 130 127C133 127 135.5 123.5 135.5 117C135.5 114 134.667 110.333 134.5 108" stroke="#11181C" stroke-width="0.7" stroke-linecap="round"/>
<path d="M115.231 47.1102C111.89 49.7797 109.613 53.5699 107.452 57.1916C106.962 58.0145 108.229 58.7471 108.734 57.9396C110.954 54.3923 113.202 51.0304 116.303 48.1804C117.036 47.507 115.975 46.5154 115.231 47.1102ZM115.109 51.8286C113.623 53.2578 112.431 55.0094 111.383 56.8117C110.887 57.6636 112.137 58.4235 112.646 57.5915C113.673 55.911 114.882 54.4 116.091 52.866C116.657 52.1472 115.779 51.1834 115.109 51.8286Z" fill="#11181C"/>
<path d="M109.213 67.7993C109.102 67.9576 109.141 68.1759 109.299 68.2867C109.458 68.3976 109.676 68.3591 109.787 68.2007L109.213 67.7993ZM113 63L112.753 62.7525L113 63ZM109.787 68.2007C110.371 67.3656 111.15 66.2107 111.826 65.2228C112.166 64.7272 112.48 64.2735 112.733 63.9193C112.995 63.5535 113.172 63.3225 113.247 63.2475L112.753 62.7525C112.628 62.8774 112.413 63.1631 112.164 63.5119C111.906 63.8723 111.589 64.3311 111.249 64.8272C110.567 65.8226 109.795 66.9677 109.213 67.7993L109.787 68.2007ZM113.247 63.2475C113.683 62.8114 114.074 62.7422 114.317 62.7827C114.601 62.8299 114.65 62.9889 114.65 63H115.35C115.35 62.5111 114.899 62.17 114.433 62.0922C113.926 62.0077 113.316 62.1885 112.753 62.7525L113.247 63.2475Z" fill="#11181C"/>
<path d="M189.644 128.635C189.644 128.635 196.141 134.715 198.172 136.742C200.202 138.769 210.761 146.47 218.476 144.038C226.192 141.606 228.222 134.715 231.471 130.661C234.72 126.608 237.968 118.906 236.75 114.042C235.532 109.177 232.689 108.367 232.689 108.367C232.689 108.367 233.501 104.718 231.877 101.881C230.253 99.0433 222.943 93.7736 219.288 88.9093C215.633 84.0449 207.918 76.7486 204.669 75.5323C201.42 74.3162 196.141 103.907 196.141 103.907L189.644 128.635Z" fill="#FF7A00"/>
<path d="M198.5 94C199 97.3333 199.7 104.5 198.5 106.5" stroke="#11181C" stroke-width="0.7" stroke-linecap="round"/>
<path d="M193.705 112.825C193.705 112.825 187.207 128.229 189.238 129.445C191.268 130.661 197.976 118.946 197.976 118.946L198.172 113.636L193.705 112.825Z" fill="#CC5802"/>
<path d="M198.607 109.38L197.498 118.603L190.549 112.396L195.002 107.581L198.607 109.38Z" fill="white" stroke="#11181C" stroke-width="0.7"/>
<path d="M194.517 119.311C194.517 119.717 194.111 167.549 194.111 167.549C194.111 167.549 194.923 167.954 195.329 168.765C195.735 169.576 195.329 208.896 195.329 208.896H190.05C190.05 208.896 189.238 169.576 189.644 168.765C190.05 167.954 190.862 167.144 190.862 167.144L191.04 118.762L194.517 119.311Z" fill="#11181C"/>
<path d="M191.674 109.988C192.08 109.988 194.923 109.583 195.735 111.609C196.547 113.636 196.141 120.932 195.735 121.338C195.329 121.743 190.456 122.149 190.05 121.743C189.644 121.338 188.832 111.204 189.238 110.393C189.644 109.583 191.674 109.988 191.674 109.988Z" fill="#11181C"/>
<path d="M197.302 110.765L197.285 110.589L197.133 110.498L196.953 110.799C197.133 110.498 197.133 110.498 197.133 110.498L197.133 110.498L197.132 110.497L197.13 110.496L197.123 110.492L197.101 110.48C197.082 110.469 197.056 110.455 197.023 110.438C196.956 110.404 196.862 110.359 196.744 110.31C196.509 110.214 196.176 110.103 195.785 110.047C194.995 109.934 193.961 110.048 193.051 110.956C192.816 111.191 192.498 111.649 192.131 112.234C191.758 112.83 191.314 113.589 190.824 114.452C190.075 115.773 189.213 117.347 188.327 118.967C188.056 119.462 187.783 119.962 187.51 120.46C186.342 122.589 185.178 124.686 184.205 126.3C183.718 127.108 183.282 127.789 182.921 128.29C182.74 128.541 182.582 128.742 182.448 128.889C182.307 129.044 182.218 129.112 182.178 129.132L182.178 129.132C181.429 129.506 180.993 129.494 180.708 129.453C180.643 129.444 180.585 129.433 180.524 129.421C180.51 129.419 180.497 129.416 180.483 129.414C180.411 129.4 180.326 129.385 180.24 129.381C180.15 129.376 180.047 129.382 179.939 129.419C179.829 129.456 179.734 129.52 179.65 129.603C179.544 129.709 179.4 129.896 179.247 130.096C179.224 130.126 179.2 130.157 179.176 130.188C178.987 130.434 178.766 130.716 178.522 130.983C178.277 131.251 178.02 131.495 177.761 131.669C177.499 131.845 177.263 131.933 177.055 131.933C176.562 131.933 176.297 131.863 176.101 131.811C176.074 131.804 176.048 131.797 176.023 131.791C175.919 131.765 175.767 131.73 175.6 131.772C175.431 131.814 175.3 131.919 175.183 132.035C175.121 132.097 174.933 132.229 174.638 132.385C174.355 132.536 174.005 132.692 173.645 132.812C173.282 132.933 172.926 133.01 172.626 133.016C172.32 133.021 172.13 132.952 172.023 132.846C171.678 132.501 171.497 132.061 171.405 131.691C171.359 131.508 171.336 131.348 171.325 131.234C171.319 131.178 171.316 131.134 171.315 131.104C171.314 131.09 171.314 131.079 171.314 131.073L171.314 131.066L171.314 131.066L171.314 131.066L171.314 130.717L170.966 130.717L170.965 130.717L170.96 130.716C170.953 130.716 170.94 130.715 170.924 130.714C170.89 130.711 170.837 130.705 170.772 130.692C170.641 130.665 170.461 130.613 170.27 130.507C169.902 130.303 169.459 129.882 169.276 128.971C169.08 127.991 168.979 126.397 168.979 124.885C168.979 124.132 169.004 123.407 169.054 122.798C169.104 122.179 169.178 121.709 169.265 121.449C169.465 120.851 170.172 118.934 170.981 117.015C171.386 116.056 171.814 115.102 172.215 114.314C172.623 113.511 172.982 112.927 173.241 112.668C173.528 112.382 174.32 111.738 175.406 110.883C176.209 110.251 177.161 109.513 178.162 108.737C178.503 108.473 178.85 108.204 179.199 107.933C181.929 105.814 184.795 103.567 185.83 102.534C186.791 101.574 188.149 100.893 189.514 100.601C190.885 100.308 192.206 100.418 193.119 100.965L193.119 100.965C194.142 101.577 196.179 102.696 197.954 103.658C198.843 104.139 199.668 104.583 200.271 104.906C200.573 105.068 200.819 105.199 200.99 105.29L201.077 105.337C201.078 105.381 201.079 105.431 201.08 105.488C201.083 105.717 201.083 106.053 201.07 106.475C201.045 107.319 200.97 108.509 200.769 109.887C200.406 112.383 199.633 115.476 198.016 118.249L197.302 110.765ZM170.966 130.717C170.966 130.717 170.966 130.717 170.966 130.717H170.966Z" fill="white" stroke="#11181C" stroke-width="0.7"/>
<path d="M204 105C205.167 105.333 207.9 106.2 209.5 107C211.5 108 213 109.5 215 110C217 110.5 217.5 110 220 112.5C222 114.5 223.5 117.333 224 118.5" stroke="#11181C" stroke-width="0.7" stroke-linecap="round"/>
<path d="M208 108C209.667 113.667 209.5 126.7 195.5 133.5" stroke="#11181C" stroke-width="0.7" stroke-linecap="round"/>
<path d="M186.052 16.7043C178.039 5.19202 169.247 5.41706 164.699 6.45708C164.564 6.4334 164.412 6.44413 164.243 6.50221C161.598 7.41108 158.844 7.56691 156.121 8.11596C153.727 8.59884 151.494 9.54819 149.588 11.0869C147.784 12.5434 146.405 14.5087 145.763 16.7431C145.111 19.0146 145.13 21.8764 146.438 23.9279C146.852 24.5769 147.954 24.174 147.718 23.3894C147.053 21.1845 146.795 19.1384 147.57 16.905C148.281 14.8574 149.764 13.1062 151.557 11.9095C151.572 11.8996 151.587 11.8907 151.602 11.881C150.604 12.8055 149.729 13.9135 149.032 15.2674C146.001 21.1572 152.572 28.4565 152.572 28.4565C152.572 28.4565 168.453 59.0758 174.017 54.5605C190.464 41.2138 194.444 28.7597 186.052 16.7043Z" fill="#11181C"/>
<path d="M172.54 63.5898C172.54 63.5898 181.071 64.2795 180.534 67.0329C179.998 69.7862 177.821 73.4183 173.372 75.6056C168.923 77.7929 158.727 78.9037 152.86 73.6725C146.993 68.4412 146.406 64.5046 146.406 64.5046C146.406 64.5046 144.858 61.9261 154.312 62.6405C163.766 63.3549 172.54 63.5898 172.54 63.5898Z" fill="#FF7A00"/>
<path d="M172.515 64.5117C172.515 64.5117 176.902 64.629 176.865 66.0119C176.828 67.3947 176.116 68.0676 175.405 68.7405C174.694 69.4134 171.461 69.3268 171.461 69.3268L150.294 65.9922C150.294 65.9922 148.939 64.8029 150.349 63.9181C151.76 63.0333 172.515 64.5117 172.515 64.5117Z" fill="#11181C"/>
<path d="M146 65C147.167 69.1667 151.69 77.0336 160 78.5C168.5 80 178.833 74.8333 183 72.5" stroke="#11181C" stroke-width="0.7"/>
<path d="M173.901 45.7938C173.883 45.8983 173.863 46.0175 173.841 46.1506C173.749 46.7076 173.623 47.5065 173.487 48.4754C173.214 50.4127 172.9 53.0329 172.735 55.7605C172.571 58.4849 172.554 61.3315 172.882 63.716C173.046 64.9082 173.298 65.9978 173.668 66.9038C173.973 67.6499 174.364 68.2893 174.869 68.7554C172.714 70.6383 168.736 72.5942 163.983 72.4669C158.9 72.3308 154.945 70.51 150.841 66.0722C151.017 65.9599 151.245 65.804 151.503 65.598C152.095 65.125 152.849 64.3885 153.515 63.3117C154.853 61.1483 155.811 57.6595 154.492 52.2782C154.321 51.5786 154.401 50.976 154.523 50.5478C154.585 50.3336 154.656 50.1643 154.711 50.0503C154.719 50.0348 154.726 50.0202 154.733 50.0068L173.901 45.7938ZM154.798 49.889C154.799 49.8886 154.799 49.8884 154.799 49.8886L154.798 49.889Z" fill="white" stroke="#11181C" stroke-width="0.7"/>
<path d="M148.932 24.746L148.932 24.746C149.563 22.9777 151.034 21.0326 152.376 19.5092C153.042 18.7525 153.669 18.109 154.128 17.6547C154.254 17.5302 154.367 17.42 154.466 17.3257C154.924 18.6452 155.88 19.9325 157.107 21.1524C158.515 22.551 160.309 23.8905 162.21 25.1195C165.941 27.5323 170.122 29.5462 172.684 30.7659C173.197 32.6163 173.324 34.447 173.32 35.8315C173.318 36.5415 173.282 37.1313 173.246 37.5426C173.228 37.7481 173.21 37.9089 173.197 38.0175C173.191 38.0718 173.185 38.113 173.181 38.1403L173.177 38.1707L173.176 38.1778L173.176 38.1793L173.176 38.1794L173.176 38.1795L173.176 38.1795L172.987 39.432L173.792 38.4542L173.792 38.4541L173.792 38.454L173.792 38.4539L173.793 38.4524L173.8 38.4441C173.807 38.4365 173.817 38.4245 173.831 38.4087C173.859 38.3772 173.901 38.3304 173.956 38.2719C174.066 38.1549 174.229 37.9919 174.435 37.8112C174.85 37.4477 175.428 37.0231 176.099 36.751C176.767 36.4802 177.513 36.366 178.284 36.5963C179.054 36.8264 179.899 37.415 180.738 38.6417C182.01 40.5027 181.955 42.1026 181.306 43.4141C180.643 44.7552 179.336 45.8363 178.04 46.5606L178.21 46.8661L178.04 46.5606C177.09 47.0914 176.092 47.1639 175.319 47.0981C174.934 47.0653 174.609 46.9985 174.382 46.9402C174.269 46.9112 174.181 46.8844 174.122 46.8653C174.092 46.8557 174.07 46.8481 174.056 46.8432L174.041 46.8378L174.039 46.8369L174.038 46.8368L174.038 46.8367L174.038 46.8367L174.038 46.8366L173.73 46.7189L173.594 47.0206C171.533 51.6166 166.682 54.6986 161.509 55.929C156.327 57.1616 150.953 56.5069 147.862 53.7972L147.631 54.0604L147.862 53.7972C142.49 49.089 142.457 42.599 143.943 36.8495C144.684 33.9791 145.799 31.3164 146.795 29.1917C147.245 28.2315 147.67 27.3834 148.024 26.6747C148.062 26.5994 148.099 26.5256 148.135 26.4535C148.505 25.713 148.799 25.1196 148.932 24.746Z" fill="white" stroke="#11181C" stroke-width="0.7"/>
<path d="M150.33 39.8645C150.515 39.4769 150.98 39.2667 151.337 39.4201C151.688 39.571 152.039 39.722 152.39 39.8728C152.745 40.0256 152.894 40.4779 152.706 40.8699C152.521 41.2577 152.056 41.4677 151.7 41.3143C151.348 41.1633 150.998 41.0126 150.646 40.8616C150.291 40.709 150.143 40.2565 150.33 39.8645Z" fill="#11181C"/>
<path d="M160.568 25.1103C161.469 25.5448 162.444 25.8213 163.317 26.3098C164.202 26.8054 165.011 27.4223 165.873 27.9551C166.65 28.4356 165.842 29.8198 165.058 29.3353C164.197 28.8031 163.389 28.182 162.502 27.69C161.627 27.2051 160.654 26.9252 159.753 26.4905C158.923 26.0902 159.737 24.7098 160.568 25.1103ZM147.424 25.3596C148.235 24.7903 149.026 24.6829 149.933 24.6068C150.885 24.5269 150.947 26.0542 149.985 26.1349C149.385 26.1853 148.775 26.1732 148.233 26.5543C147.4 27.1385 146.589 25.9461 147.424 25.3596Z" fill="#11181C"/>
<path d="M152.284 48.3733C153.535 47.9309 155.255 45.897 155.939 44.725C153.225 44.8369 150.207 44.8487 147.492 44.7046C148.581 46.5914 150.022 49.1731 152.284 48.3733Z" fill="#11181C"/>
<path d="M160.271 34.6916C160.496 34.7363 160.722 34.779 160.946 34.8312C161.887 35.0512 162.79 35.4458 163.596 35.99C163.868 36.173 164.565 36.7671 164.916 36.5832C165.345 36.3581 164.435 35.0526 164.212 34.8156C163.257 33.7989 161.898 33.2367 160.524 33.3953C159.974 33.4589 159.427 33.7153 159.105 34.1755C159.075 34.2196 159.045 34.2769 159.068 34.3257C159.085 34.3607 159.123 34.3781 159.159 34.3922C159.517 34.5351 159.893 34.6165 160.271 34.6916Z" fill="#11181C"/>
<path d="M145.168 32.841C145.747 32.7877 146.531 32.5431 146.72 32.4971C147.016 32.4257 147.321 32.3595 147.626 32.3534C147.784 32.3504 148.424 32.5404 148.516 32.4822C148.877 32.2541 148.596 31.5878 148.335 31.3778C147.999 31.108 147.487 31.0769 147.084 31.1797C146.722 31.2719 144.142 32.1171 144.549 32.7222C144.632 32.8456 144.873 32.8681 145.168 32.841Z" fill="#11181C"/>
<path d="M169.96 61.2603C170.181 59.7491 170.491 58.2509 170.89 56.7764C171.721 53.7023 173.246 50.8396 173.932 47.7332L192.721 53.75C192.721 53.75 204.84 58.4567 207.853 66.0198C210.865 73.5828 209.356 79.5661 201.244 86.4621C193.133 93.3581 179.006 91.208 172.376 79.9597C169.97 75.8768 169.462 70.7113 169.56 66.0635C169.593 64.4562 169.727 62.8511 169.96 61.2603Z" fill="#11181C"/>
<path d="M142.5 136.5C143.833 137.333 147.6 139 152 139C157.5 139 166.5 138.5 172 140C176.5 141.227 183 143 186 146" stroke="#11181C" stroke-width="0.7" stroke-linecap="round"/>
<path d="M198.375 284.495C198.375 284.495 200.405 222.07 198.375 212.747C196.345 203.423 191.065 203.018 187.817 203.423C184.568 203.829 146.396 203.423 146.396 203.423C146.396 203.423 134.619 202.613 133.401 212.747C132.182 222.88 131.37 320.977 131.37 320.977C131.37 320.977 145.989 321.788 148.02 324.22C150.05 326.652 150.456 333.544 152.487 334.76C154.517 335.976 172.791 337.192 173.603 334.76C174.416 332.327 174.822 326.247 177.664 325.031C180.507 323.815 195.126 325.842 196.344 323.41C197.563 320.977 198.375 284.495 198.375 284.495Z" fill="#A0BDFF"/>
<path d="M172.237 203.502H161.351C160.283 204.785 159.533 205.952 159.391 206.666C158.984 208.693 156.142 330.706 156.142 332.327C156.142 333.949 157.36 335.975 158.172 336.786C158.984 337.597 168.719 336.554 168.719 336.554C168.719 336.554 167.918 335.975 167.918 333.138C167.918 330.3 169.949 209.503 171.167 205.855C171.405 205.143 171.783 204.337 172.237 203.502Z" fill="#333333"/>
<path d="M165.277 203.502C163.473 208.111 163.543 213.688 163.423 218.558C163.179 228.482 162.955 238.406 162.727 248.33C162.276 267.91 161.819 287.489 161.375 307.069C161.248 312.701 161.12 318.334 160.993 323.966C160.893 328.338 160.509 332.973 162.914 336.851C163.728 338.164 165.811 336.959 164.993 335.638C162.777 332.061 163.321 327.583 163.413 323.564C163.518 319.004 163.622 314.445 163.727 309.885C163.939 300.632 164.147 291.378 164.356 282.125C164.773 263.618 165.19 245.111 165.607 226.605C165.721 221.577 165.668 216.518 165.976 211.498C166.142 208.802 166.577 205.977 167.659 203.502H165.277Z" fill="#11181C"/>
<path d="M189.36 205.453C187.692 205.116 186.971 207.64 188.652 208.013C192.578 208.884 193.444 212.957 193.523 216.421C193.562 218.145 196.165 218.146 196.21 216.421C196.332 211.75 194.491 206.492 189.36 205.453ZM195.255 219.201C193.534 219.201 193.531 221.867 195.255 221.867C196.977 221.867 196.98 219.201 195.255 219.201Z" fill="white"/>
<path d="M110.5 66.5L110 64.5L112.5 63.5" stroke="#11181C" stroke-width="0.7"/>
</svg>
