<svg width="180" height="120" viewBox="0 0 180 120" fill="none" xmlns="http://www.w3.org/2000/svg">
<path d="M33.1895 87.6433C30.2702 85.764 24.2773 81.7817 23.6068 75.2841C22.8662 68.1101 28.8412 60.0768 35.2823 57.7672C40.1974 56.0049 42.6204 58.5659 45.5261 56.5093C50.2233 53.1847 45.3096 44.0232 48.5003 33.3632C51.1946 24.3607 58.7546 16.4245 66.8951 14.6199C73.6448 13.1236 79.2134 16.1934 89.3652 21.7902C102.236 28.886 102.364 32.9958 109.192 33.8663C119.416 35.1698 123.067 26.4569 132.323 27.0733C141.607 27.6921 150.336 36.3052 154.132 46.3196C159.843 61.3841 154.282 79.6892 144.77 86.196C139.295 89.9412 134.871 88.1627 121.253 87.4539C113.603 87.0557 104.037 87.7546 84.9045 89.1522C54.6285 91.3644 45.1814 95.3637 33.1895 87.6433Z" fill="#EDF3FF"/>
<path d="M35.0125 87.3148V78.5737H41.4299V68.7403H46.912V79.8851H52.1264V71.5811H58.4103V54.9733H65.7642V75.0776H74.4548V48.4178H78.3322V45.1399H80.8726V47.7621H83.279V55.4104H90.9002V58.6883H89.4296V68.9589H92.9058V30.7175H97.4517V32.854H103.87V73.4023H110.703L111.773 67.3806L116.408 67.1864V55.0464H121.994V49.996H124.906V54.5605H126.807V70.1971H132.66V52.4241H140.95V87.3148H35.0125Z" fill="#C4D7FF"/>
<path d="M87.7082 97.6963C120.665 97.6963 147.381 95.2292 147.381 92.1859C147.381 89.1425 120.665 86.6754 87.7082 86.6754C54.7518 86.6754 28.0354 89.1425 28.0354 92.1859C28.0354 95.2292 54.7518 97.6963 87.7082 97.6963Z" fill="#4EBA91"/>
<path d="M88.7312 93.2969C121.688 93.2969 148.404 90.8298 148.404 87.7865C148.404 84.7431 121.688 82.276 88.7312 82.276C55.7748 82.276 29.0583 84.7431 29.0583 87.7865C29.0583 90.8298 55.7748 93.2969 88.7312 93.2969Z" fill="#4EBA91"/>
<path d="M92.0038 91.2504C119.287 91.2504 141.405 89.4928 141.405 87.3246C141.405 85.1564 119.287 83.3988 92.0038 83.3988C64.7203 83.3988 42.6025 85.1564 42.6025 87.3246C42.6025 89.4928 64.7203 91.2504 92.0038 91.2504Z" fill="#3C8F6F"/>
<path d="M56.8006 38.1351V41.3304H54.584V38.1351L55.5911 37.4236L55.6923 37.3512L55.6994 37.3563L55.7931 37.4236L56.8006 38.1351Z" fill="#FFCE6D"/>
<path d="M55.7979 37.5339H55.5864L55.5912 37.4236L55.6466 35.8728H55.738L55.7931 37.4236L55.7979 37.5339Z" fill="#FFCE6D"/>
<path d="M59.4523 43.0108H51.9319L54.5839 41.1596L54.5863 41.1572H56.7982L56.8006 41.1596L59.4523 43.0108Z" fill="#FFCE6D"/>
<path d="M59.4523 45.0665H51.9319V46.8697H59.4523V45.0665Z" fill="#FFCE6D"/>
<path d="M59.0268 46.8698L58.5004 49.5215H52.884L52.3552 46.8698H59.0268Z" fill="#FFCE6D"/>
<path d="M57.579 43.0112H53.7537V45.0655H57.579V43.0112Z" fill="#C75824"/>
<path d="M56.9702 43.0105H54.3567V45.0661H56.9702V43.0105Z" fill="#A6471B"/>
<path d="M56.9702 43.0105H54.3567V45.0661H56.9702V43.0105Z" fill="#A6471B"/>
<path d="M56.0914 43.0112H55.2412V45.0655H56.0914V43.0112Z" fill="#CC5802"/>
<path d="M52.7813 43.0112H51.9312V45.0655H52.7813V43.0112Z" fill="#FFCE6D"/>
<path d="M59.4532 43.0112H58.603V45.0655H59.4532V43.0112Z" fill="#FFAD32"/>
<path d="M58.4475 49.5214H52.8792V72.2412H58.4475V49.5214Z" fill="#FFCE6D"/>
<path d="M60.8444 72.2416H50.333V88.006H60.8444V72.2416Z" fill="#FFCE6D"/>
<path d="M60.8445 72.2416H55.6995V88.006H60.8445V72.2416Z" fill="#FFAD32"/>
<path d="M61.6814 84.1942H49.4971V88.0067H61.6814V84.1942Z" fill="#FFCE6D"/>
<path d="M55.6995 45.0665H59.4524V46.8697H59.0268L58.5004 49.5214H58.4476V72.2416H55.6995V45.0665Z" fill="#FFAD32"/>
<path d="M58.4482 49.5217H52.8843V49.8309H58.4482V49.5217Z" fill="#CC5802"/>
<path d="M58.4482 51.1044H52.8843V51.4136H58.4482V51.1044Z" fill="#CC5802"/>
<path d="M58.4482 52.6866H52.8843V52.9959H58.4482V52.6866Z" fill="#CC5802"/>
<path d="M58.4482 54.2689H52.8843V54.5781H58.4482V54.2689Z" fill="#CC5802"/>
<path d="M58.4482 55.8513H52.8843V56.1605H58.4482V55.8513Z" fill="#CC5802"/>
<path d="M58.4482 57.4338H52.8843V57.7431H58.4482V57.4338Z" fill="#CC5802"/>
<path d="M58.4482 59.0162H52.8843V59.3255H58.4482V59.0162Z" fill="#CC5802"/>
<path d="M58.4482 60.5985H52.8843V60.9077H58.4482V60.5985Z" fill="#CC5802"/>
<path d="M58.4482 62.1808H52.8843V62.49H58.4482V62.1808Z" fill="#CC5802"/>
<path d="M58.4482 63.7631H52.8843V64.0723H58.4482V63.7631Z" fill="#CC5802"/>
<path d="M58.4482 65.3457H52.8843V65.6549H58.4482V65.3457Z" fill="#CC5802"/>
<path d="M58.4482 66.928H52.8843V67.2372H58.4482V66.928Z" fill="#CC5802"/>
<path d="M58.4482 68.5103H52.8843V68.8195H58.4482V68.5103Z" fill="#CC5802"/>
<path d="M58.4482 70.0925H52.8843V70.4017H58.4482V70.0925Z" fill="#CC5802"/>
<path d="M58.4482 71.6752H52.8843V71.9844H58.4482V71.6752Z" fill="#CC5802"/>
<path d="M56.0914 50.9128H55.0095V55.4723H56.0914V50.9128Z" fill="#C75824"/>
<path d="M56.0914 50.9136V55.4717H55.0095V55.2362H55.9351V50.9136H56.0914Z" fill="#A1471D"/>
<path d="M58.5932 73.1111H52.5847V74.0577H58.5932V73.1111Z" fill="#CC5802"/>
<path d="M58.0365 74.85H53.1421V75.4874H58.0365V74.85Z" fill="#CC5802"/>
<path d="M52.3047 73.1111H51.5513V74.0577H52.3047V73.1111Z" fill="#CC5802"/>
<path d="M59.8264 73.1111H59.073V74.0577H59.8264V73.1111Z" fill="#CC5802"/>
<path d="M52.3047 74.9271H51.5513V84.1942H52.3047V74.9271Z" fill="#CC5802"/>
<path d="M59.8264 74.9271H59.073V84.1942H59.8264V74.9271Z" fill="#CC5802"/>
<path d="M58.0362 79.5607H53.3735V75.9701C53.3735 75.7888 53.5204 75.642 53.7017 75.642H57.708C57.8894 75.642 58.0362 75.7888 58.0362 75.9701V79.5607Z" fill="#CC5802"/>
<path d="M61.6811 84.1942H55.5891V88.0067H61.6811V84.1942Z" fill="#FFAD32"/>
<path d="M58.0364 80.0985H53.3738V81.9789H58.0364V80.0985Z" fill="#CC5802"/>
<path d="M52.3048 85.173H51.1843V86.667H52.3048V85.173Z" fill="#CC5802"/>
<path d="M60.1935 85.173H59.073V86.667H60.1935V85.173Z" fill="#CC5802"/>
<path d="M59.4524 43.0109H55.6995V35.8728H55.738L55.7932 37.4236L56.8007 38.1351V41.1596L59.4524 43.0109Z" fill="#FFAD32"/>
<path d="M58.0364 82.391H53.3738V83.6789H58.0364V82.391Z" fill="#CC5802"/>
<path d="M125.384 57.8108H95.2607V86.9393H125.384V57.8108Z" fill="#FFCE6D"/>
<path d="M138.741 78.9825H81.9045V86.9397H138.741V78.9825Z" fill="#FFE3A5"/>
<path d="M125.651 62.9972H94.9946V63.4235H125.651V62.9972Z" fill="#461B04"/>
<path d="M125.651 64.5602H94.9946V64.9865H125.651V64.5602Z" fill="#461B04"/>
<path d="M125.384 66.3363H95.2607V66.7626H125.384V66.3363Z" fill="#461B04"/>
<path d="M110.323 80.9776C113.069 80.9776 115.296 78.751 115.296 76.0043C115.296 73.2577 113.069 71.0311 110.323 71.0311C107.576 71.0311 105.349 73.2577 105.349 76.0043C105.349 78.751 107.576 80.9776 110.323 80.9776Z" fill="#51B5FF"/>
<path d="M118.493 86.8743H102.152L104 75.0807H116.646L118.493 86.8743Z" fill="#FFF3D3"/>
<path d="M111.335 86.8743H108.919V77.3294C108.919 77.2614 108.975 77.2063 109.043 77.2063H111.211C111.279 77.2063 111.335 77.2614 111.335 77.3294V86.8743H111.335ZM107.96 86.8743H105.545V78.7514C105.545 78.6834 105.6 78.6282 105.668 78.6282H107.837C107.905 78.6282 107.96 78.6834 107.96 78.7514V86.8743H107.96ZM115.1 86.8743H112.685V78.7514C112.685 78.6834 112.74 78.6282 112.808 78.6282H114.977C115.045 78.6282 115.1 78.6834 115.1 78.7514V86.8743H115.1Z" fill="#A1440B"/>
<path d="M116.646 75.0807L124.683 86.9393L118.493 86.8743L116.646 75.0807Z" fill="#FFAD32"/>
<path d="M124.683 81.4512H123.51V86.9393H124.683V81.4512Z" fill="#A1440B"/>
<path d="M125.161 81.4512H123.989V86.9393H125.161V81.4512Z" fill="#A1440B"/>
<path d="M125.639 81.4512H124.467V86.9393H125.639V81.4512Z" fill="#A1440B"/>
<path d="M126.118 81.4512H124.946V86.9393H126.118V81.4512Z" fill="#A1440B"/>
<path d="M126.597 81.4512H125.424V86.9393H126.597V81.4512Z" fill="#A1440B"/>
<path d="M127.075 81.4512H125.903V86.9393H127.075V81.4512Z" fill="#A1440B"/>
<path d="M127.553 81.4512H126.381V86.9393H127.553V81.4512Z" fill="#A1440B"/>
<path d="M128.032 81.4512H126.859V86.9393H128.032V81.4512Z" fill="#A1440B"/>
<path d="M128.51 81.4512H127.338V86.9393H128.51V81.4512Z" fill="#A1440B"/>
<path d="M128.989 81.4512H127.816V86.9393H128.989V81.4512Z" fill="#A1440B"/>
<path d="M129.467 81.4512H128.295V86.9393H129.467V81.4512Z" fill="#A1440B"/>
<path d="M129.945 81.4512H128.773V86.9393H129.945V81.4512Z" fill="#A1440B"/>
<path d="M130.424 81.4512H129.252V86.9393H130.424V81.4512Z" fill="#A1440B"/>
<path d="M130.902 81.4512H129.73V86.9393H130.902V81.4512Z" fill="#A1440B"/>
<path d="M131.381 81.4512H130.209V86.9393H131.381V81.4512Z" fill="#A1440B"/>
<path d="M131.859 81.4512H130.687V86.9393H131.859V81.4512Z" fill="#A1440B"/>
<path d="M132.338 81.4512H131.166V86.9393H132.338V81.4512Z" fill="#A1440B"/>
<path d="M132.816 81.4512H131.644V86.9393H132.816V81.4512Z" fill="#A1440B"/>
<path d="M133.295 81.4512H132.123V86.9393H133.295V81.4512Z" fill="#A1440B"/>
<path d="M133.773 81.4512H132.601V86.9393H133.773V81.4512Z" fill="#A1440B"/>
<path d="M134.252 81.4512H133.079V86.9393H134.252V81.4512Z" fill="#A1440B"/>
<path d="M134.73 81.4512H133.558V86.9393H134.73V81.4512Z" fill="#A1440B"/>
<path d="M135.208 81.4512H134.036V86.9393H135.208V81.4512Z" fill="#A1440B"/>
<path d="M135.687 81.4512H134.515V86.9393H135.687V81.4512Z" fill="#A1440B"/>
<path d="M136.165 81.4512H134.993V86.9393H136.165V81.4512Z" fill="#A1440B"/>
<path d="M101.078 81.4512H99.9055V86.9393H101.078V81.4512Z" fill="#A1440B"/>
<path d="M97.8009 81.4512H96.6287V86.9393H97.8009V81.4512Z" fill="#A1440B"/>
<path d="M97.3226 81.4512H96.1504V86.9393H97.3226V81.4512Z" fill="#A1440B"/>
<path d="M96.8439 81.4512H95.6716V86.9393H96.8439V81.4512Z" fill="#A1440B"/>
<path d="M96.3656 81.4512H95.1934V86.9393H96.3656V81.4512Z" fill="#A1440B"/>
<path d="M95.8871 81.4512H94.7148V86.9393H95.8871V81.4512Z" fill="#A1440B"/>
<path d="M95.4088 81.4512H94.2366V86.9393H95.4088V81.4512Z" fill="#A1440B"/>
<path d="M94.9303 81.4512H93.7581V86.9393H94.9303V81.4512Z" fill="#A1440B"/>
<path d="M94.4516 81.4512H93.2793V86.9393H94.4516V81.4512Z" fill="#A1440B"/>
<path d="M93.9733 81.4512H92.801V86.9393H93.9733V81.4512Z" fill="#A1440B"/>
<path d="M93.495 81.4512H92.3228V86.9393H93.495V81.4512Z" fill="#A1440B"/>
<path d="M93.0165 81.4512H91.8442V86.9393H93.0165V81.4512Z" fill="#A1440B"/>
<path d="M92.5377 81.4512H91.3655V86.9393H92.5377V81.4512Z" fill="#A1440B"/>
<path d="M92.0595 81.4512H90.8872V86.9393H92.0595V81.4512Z" fill="#A1440B"/>
<path d="M91.5809 81.4512H90.4087V86.9393H91.5809V81.4512Z" fill="#A1440B"/>
<path d="M91.1027 81.4512H89.9304V86.9393H91.1027V81.4512Z" fill="#A1440B"/>
<path d="M90.6244 81.4512H89.4521V86.9393H90.6244V81.4512Z" fill="#A1440B"/>
<path d="M90.1457 81.4512H88.9734V86.9393H90.1457V81.4512Z" fill="#A1440B"/>
<path d="M89.6671 81.4512H88.4949V86.9393H89.6671V81.4512Z" fill="#A1440B"/>
<path d="M89.1889 81.4512H88.0166V86.9393H89.1889V81.4512Z" fill="#A1440B"/>
<path d="M88.7106 81.4512H87.5383V86.9393H88.7106V81.4512Z" fill="#A1440B"/>
<path d="M88.2321 81.4512H87.0598V86.9393H88.2321V81.4512Z" fill="#A1440B"/>
<path d="M87.7533 81.4512H86.5811V86.9393H87.7533V81.4512Z" fill="#A1440B"/>
<path d="M87.275 81.4512H86.1028V86.9393H87.275V81.4512Z" fill="#A1440B"/>
<path d="M86.7965 81.4512H85.6243V86.9393H86.7965V81.4512Z" fill="#A1440B"/>
<path d="M86.3183 81.4512H85.146V86.9393H86.3183V81.4512Z" fill="#A1440B"/>
<path d="M87.7083 105.757C114.147 105.757 135.579 103.71 135.579 101.184C135.579 98.6584 114.147 96.611 87.7083 96.611C61.2698 96.611 39.8372 98.6584 39.8372 101.184C39.8372 103.71 61.2698 105.757 87.7083 105.757Z" fill="#4EBA91"/>
<path d="M120.299 103.204C126.962 103.204 132.363 102.3 132.363 101.184C132.363 100.068 126.962 99.1639 120.299 99.1639C113.637 99.1639 108.236 100.068 108.236 101.184C108.236 102.3 113.637 103.204 120.299 103.204Z" fill="#3C8F6F"/>
<path d="M87.7082 104.566C105.184 104.566 119.35 103.213 119.35 101.544C119.35 99.8741 105.184 98.5208 87.7082 98.5208C70.2329 98.5208 56.0664 99.8741 56.0664 101.544C56.0664 103.213 70.2329 104.566 87.7082 104.566Z" fill="#3C8F6F"/>
<path d="M83.0851 40.4583C83.0851 40.4583 83.0141 41.2872 82.8422 42.3187C82.758 42.8235 83.0851 44.3574 83.0851 44.3574C83.0851 44.3574 82.4054 44.3073 82.3449 44.4988C82.1175 45.2177 81.83 45.8267 81.4717 46.1055C80.2615 47.0467 76.6314 45.3436 76.5864 44.761C76.5418 44.1781 77.214 37.0522 83.0851 40.4583Z" fill="white"/>
<path d="M83.7309 40.0273C84.2103 39.5939 84.5845 38.9616 84.3547 38.0979C84.3547 38.0979 84.1156 37.5901 81.9344 37.7694C81.9344 37.7694 77.4826 36.4845 76.9447 37.2017C76.4067 37.9189 75.5701 42.2212 75.5403 43.5958C75.5105 44.9704 76.3638 45.5898 76.7951 45.4782C77.2268 45.3666 77.8706 42.0463 78.3189 41.2374C78.711 40.5297 79.9726 39.9606 81.6628 40.4901C82.382 40.7151 83.1723 40.5324 83.7309 40.0273Z" fill="#101C4D"/>
<path d="M70.7441 62.5218C70.6994 62.625 70.6548 62.7197 70.6101 62.8077C70.1696 63.6694 69.8695 64.8129 69.6662 65.952C69.6662 65.9533 69.6662 65.9547 69.6662 65.9547C69.2633 68.2149 69.2369 70.457 69.2369 70.457C69.2369 70.457 66.6072 70.8152 66.4272 70.457C66.2486 70.0973 68.2203 56.7116 68.4588 53.4252C68.6986 50.1388 70.9839 47.8535 70.9839 47.8535C73.1356 50.6084 72.0087 59.5978 70.7441 62.5218Z" fill="#1150CB"/>
<path d="M83.1788 85.1086C83.1788 85.1086 81.561 97.8699 81.4267 98.4524C81.2924 99.035 79.365 98.1388 79.365 98.1388V85.1086H83.1788Z" fill="white"/>
<path d="M70.744 62.5218C70.6993 62.6249 70.6547 62.7197 70.61 62.8076C70.1695 63.6693 69.8694 64.8128 69.6661 65.9519C69.6536 65.7916 69.181 59.7388 69.164 58.1534C69.1458 56.5485 69.6661 56.5931 69.6661 56.5931L70.744 62.5218Z" fill="#2F36D3"/>
<path d="M72.5977 85.1086C72.5977 85.1086 72.5977 88.4133 72.5977 89.5785C72.5977 90.7436 73.1802 96.2564 73.1802 96.2564C73.1802 96.2564 75.0176 96.1668 75.3762 96.2564C75.7348 96.3461 75.6898 89.8474 75.6898 89.8474C75.6898 89.8474 76.8983 87.3168 76.675 85.1086H72.5977Z" fill="white"/>
<path d="M78.2903 71.7188C78.2903 71.7188 78.2331 74.8448 78.1563 77.7841C78.0964 80.061 78.0267 82.2279 77.9611 82.7367C77.8119 83.9008 77.8413 84.7084 77.6319 84.888C77.5426 84.9648 76.5026 85.1698 75.2783 85.2981H75.2712C73.6117 85.4723 71.6208 85.5058 71.208 84.888C70.4915 83.8115 71.2374 76.6711 71.208 75.2965C71.1772 73.9216 70.8958 71.5612 70.8958 71.5612L78.2903 71.7188Z" fill="#2D375E"/>
<path d="M78.1566 77.7841C78.0967 80.061 78.0271 82.2279 77.9614 82.7367C77.8122 83.9008 77.8417 84.7084 77.6322 84.888C77.5429 84.9648 76.503 85.1699 75.2786 85.2981H75.2715L77.3393 84.4225C77.3393 84.4225 77.844 81.8111 77.572 80.5546C77.1244 78.4854 76.9752 74.4598 76.9752 74.4598L78.1566 77.7841Z" fill="#1D243D"/>
<path d="M85.0724 83.0646C85.0724 85.4253 80.7694 85.7251 79.4855 85.3651C79.1076 85.2592 78.748 84.0348 78.4286 82.3588C77.6603 78.3319 77.1248 71.6979 77.1248 71.6979L84.5815 70.8335C84.5815 70.8335 84.7615 74.4545 84.9036 77.8346C84.9956 80.036 85.0724 82.1345 85.0724 83.0646ZM93.854 82.3967L93.9752 85.8144C93.9752 85.8144 93.9166 94.5987 93.7367 95.137C93.65 95.3934 93.2373 95.6502 92.7829 95.7645C92.288 95.8887 91.7443 95.8413 91.5254 95.4354C91.1073 94.6586 90.1005 85.9568 89.5537 83.663C87.9809 77.0595 87.9809 70.8338 87.9809 70.8338H94.5733L93.6169 75.7306L93.854 82.3967Z" fill="#2D375E"/>
<path d="M93.9751 85.814C93.9751 85.814 93.9166 94.5983 93.7366 95.1366C93.65 95.393 93.2373 95.6498 92.7829 95.7641C92.4666 95.6887 92.2572 95.5787 92.3979 95.4434C92.7633 95.0936 93.2582 94.9569 93.289 94.0908C93.3185 93.2234 93.4677 86.0231 92.925 83.3281C92.3813 80.6341 92.925 76.7942 92.925 76.7942C93.0938 76.9295 93.5468 80.11 93.8537 82.3967L93.9751 85.814Z" fill="#1D243D"/>
<path d="M97.203 85.9927C97.203 88.2042 98.1608 94.3 97.6814 95.1366C97.203 95.9733 95.41 94.8369 95.41 94.8369C95.41 94.8369 95.3863 94.685 95.3457 94.4143C95.025 92.3005 93.6027 82.9583 93.4981 82.5875C93.3784 82.1694 92.3979 70.8332 92.3979 70.8332C92.3979 70.8332 95.9479 70.2949 97.9795 70.525L98.1608 75.239C98.1608 75.239 97.9155 77.4239 97.6743 79.8695C97.6743 79.8695 97.6743 79.8695 97.6743 79.8709C97.4375 82.2601 97.203 84.8996 97.203 85.9927Z" fill="#2D375E"/>
<path d="M97.6814 95.1367C97.2031 95.9733 95.41 94.8369 95.41 94.8369C95.41 94.8369 95.3863 94.685 95.3457 94.4143C95.7307 94.2915 97.6811 95.1366 97.3814 93.4329C97.0816 91.7305 96.814 85.9927 96.7538 85.0792C96.6939 84.1743 97.6588 79.9355 97.674 79.8716C97.4368 82.2601 97.2027 84.8996 97.2027 85.9927C97.2031 88.2039 98.1612 94.3 97.6814 95.1367ZM82.232 71.2727C82.232 71.2727 78.3495 72.7189 76.1684 72.7883C73.9873 72.8577 72.2243 72.0914 71.8062 72.7883C71.388 73.4852 71.8661 75.3267 71.6867 76.1633C71.5074 77 70.9868 79.4761 70.9868 79.4761C70.9868 79.4761 70.7885 72.3674 70.7445 71.5616C70.7006 70.755 79.6006 69.8477 82.232 71.2727Z" fill="#1D243D"/>
<path d="M83.936 71.0243C82.4133 71.2936 71.0287 72.816 70.4918 71.3826C70.2452 70.7245 70.1112 66.0101 70.1376 60.9669C70.1639 56.2109 70.3328 51.1605 70.6826 48.9408C70.7719 48.383 70.8724 48.0037 70.9837 47.8532C71.9624 46.5327 72.0111 45.4562 79.856 46.6779C80.2687 46.7421 80.7024 46.8132 81.1581 46.8896C81.1581 46.8896 83.3541 47.3457 83.0852 49.0633C82.9164 50.1341 83.4881 65.2865 83.9357 67.8868C84.0988 68.8334 84.3457 69.4707 84.52 69.9112C84.52 69.9112 84.52 69.9126 84.5213 69.9139C84.6079 70.1342 84.6763 70.3044 84.7067 70.4397C84.7839 70.7804 84.6276 70.9018 83.936 71.0243Z" fill="#1150CB"/>
<path d="M83.8163 67.3041C83.8163 67.3041 80.1273 57.1753 80.7099 54.8447C81.2924 52.5141 81.7854 54.3518 81.7854 54.3518C81.7854 54.3518 83.8301 65.4664 83.8163 67.3041Z" fill="#2F36D3"/>
<path d="M82.3232 48.8616C82.3232 48.8616 83.8023 46.9792 85.0121 50.9906C85.7426 53.4123 84.6535 61.9263 85.1464 63.5844C85.6394 65.2428 85.1464 67.8871 85.1464 67.8871C85.1464 67.8871 84.1606 67.5061 83.7675 66.414C82.4734 62.8151 80.8891 54.0828 82.3232 48.8616Z" fill="#1150CB"/>
<path d="M80.6469 47.1407C80.6469 47.1407 78.9195 48.1739 77.0313 47.775C75.1422 47.3761 73.6739 46.9424 73.0017 47.1407C72.5889 47.2604 71.4803 48.2185 70.6829 48.9408C70.7722 48.383 70.8727 48.0037 70.984 47.8532C71.9627 46.5327 72.0114 45.4562 79.8562 46.6779C80.1184 46.8145 80.382 46.9678 80.6469 47.1407Z" fill="#2F36D3"/>
<path d="M80.1719 47.5396C80.1719 47.5396 81.1215 47.5179 81.1577 46.8897C81.1939 46.2614 79.2307 46.0381 78.0429 45.2539C76.8551 44.4697 75.7796 42.4304 74.4574 42.9618C73.2767 43.4365 73.2923 43.4389 73.3819 44.8057C73.4716 46.1724 73.9872 47.6962 80.1719 47.5396Z" fill="#1150CB"/>
<path d="M85.6996 72.8464C85.6996 72.8464 85.5653 73.7277 85.4905 74.4301C85.4158 75.1321 86.3569 75.7299 86.9098 75.7299C87.4626 75.7299 87.8141 75.1023 87.8141 75.1023C87.8141 75.1023 87.6043 72.8823 87.1899 72.8644C86.7751 72.8464 85.6996 72.8464 85.6996 72.8464Z" fill="white"/>
<path d="M86.1935 72.8464C86.1935 72.8464 85.5351 73.3992 85.9086 74.176C86.2821 74.9528 87.5819 75.402 87.7612 75.1848C87.9405 74.9677 87.4774 73.8025 87.3877 73.6232C87.2977 73.4442 86.5091 72.7821 86.1935 72.8464Z" fill="#D7DBDF"/>
<path d="M68.214 73.2485L66.8469 83.9351L67.262 83.9882L68.6291 73.3016L68.214 73.2485Z" fill="#202642"/>
<path d="M62.67 73.2522L61.3521 83.9381L61.7674 83.9893L63.0853 73.3035L62.67 73.2522Z" fill="#202642"/>
<path d="M68.5844 70.5324C68.5844 70.5324 69.5726 73.2649 68.8107 73.5789C68.0488 73.8925 66.3007 73.5789 66.0768 72.9963C65.8528 72.4137 66.2524 70.6261 66.4466 70.3521C66.6408 70.0777 68.5844 70.5324 68.5844 70.5324Z" fill="white"/>
<path d="M68.0586 72.7882H63.3162L63.5445 71.8694H68.2873L68.0586 72.7882Z" fill="#3D4A80"/>
<path d="M63.4427 71.8698C62.9545 71.8698 62.4653 72.2446 62.3503 72.7071L62.3367 72.7612L62.1865 73.3651H63.1724L63.3226 72.7612L63.3361 72.7071L63.5445 71.8698H63.4427ZM68.3892 71.8698C68.8774 71.8698 69.1798 72.2446 69.0648 72.7071L69.0513 72.7612L68.901 73.3651H67.9152L68.0654 72.7612L68.0789 72.7071L68.2873 71.8698H68.3892Z" fill="#3D4A80"/>
<path d="M66.0105 71.9831C66.0105 71.9831 65.4719 72.0098 65.6211 73.3245C65.7706 74.6392 66.9189 75.3561 67.5549 75.1771C68.1909 74.9978 69.0814 74.6693 69.0993 74.49C69.1169 74.3107 69.3561 73.5339 68.7884 72.8468C68.2207 72.1597 66.7883 71.5382 66.0105 71.9831Z" fill="white"/>
<path d="M68.929 71.6975C68.929 71.6975 70.376 72.975 70.1347 73.7027C69.8935 74.4304 68.818 74.8188 68.3999 74.5796C67.9817 74.3404 68.0413 73.8922 68.3999 73.5187C68.7581 73.1455 69.0779 72.2544 68.929 71.6975Z" fill="white"/>
<path d="M70.267 85.3658L68.1403 84.1337L68.4245 85.2613H62.3024C61.8115 85.2613 61.3998 85.6327 61.35 86.1213L59.9416 99.8835L58.1885 99.9207L60.3192 101.156V101.156C60.4718 101.259 60.6555 101.321 60.8551 101.321H68.3866C68.8775 101.321 69.2892 100.95 69.339 100.461L70.7863 86.3161C70.8282 85.9074 70.6073 85.5387 70.267 85.3658Z" fill="#2994FF"/>
<path d="M66.1457 100.021H58.6142C58.0468 100.021 57.604 99.5306 57.6618 98.9663L59.1091 84.8214C59.1592 84.3329 59.5706 83.9614 60.0615 83.9614H67.593C68.1604 83.9614 68.6032 84.452 68.5454 85.0163L67.0981 99.1612C67.0484 99.6497 66.637 100.021 66.1457 100.021Z" fill="#51B5FF"/>
<path d="M65.4044 96.6776H58.9058L59.2793 92.698H65.7779L65.4044 96.6776Z" fill="#2994FF"/>
<path d="M99.6142 85.0809L100.03 85.0247L98.7945 73.7139L98.3787 73.77L99.6142 85.0809Z" fill="#202642"/>
<path d="M105.112 85.0798L105.528 85.0257L104.347 73.7148L103.931 73.769L105.112 85.0798Z" fill="#202642"/>
<path d="M99.1081 72.0504C99.1081 72.0504 98.2261 72.8292 98.3729 73.2731C98.5198 73.7166 99.1758 73.9534 99.4308 73.8076C99.6859 73.6618 99.6494 73.3884 99.4308 73.1608C99.2123 72.9331 99.0171 72.3901 99.1081 72.0504Z" fill="#DEB787"/>
<path d="M99.3181 71.3399C99.3181 71.3399 98.7155 73.0061 99.18 73.1973C99.6445 73.3884 100.71 73.1973 100.847 72.842C100.984 72.4868 100.74 71.3968 100.622 71.23C100.503 71.0632 99.3181 71.3399 99.3181 71.3399Z" fill="white"/>
<path d="M98.818 73.4439H103.561L103.332 72.5254H98.5896L98.818 73.4439Z" fill="#3D4A80"/>
<path d="M103.434 72.5254C103.923 72.5254 104.412 72.9002 104.527 73.3627L104.54 73.4169L104.691 74.0207H103.705L103.555 73.4169L103.541 73.3627L103.333 72.5254H103.434ZM98.4876 72.5254C97.9994 72.5254 97.697 72.9002 97.812 73.3627L97.8255 73.4169L97.9758 74.0207H98.9616L98.8114 73.4169L98.7979 73.3627L98.5895 72.5254H98.4876Z" fill="#3D4A80"/>
<path d="M100.887 72.2247C100.887 72.2247 101.216 72.2409 101.125 73.0424C101.034 73.8438 100.333 74.2809 99.9458 74.1716C99.5581 74.0624 99.0151 73.8621 99.0042 73.7528C98.9934 73.6435 98.8476 73.1699 99.1937 72.7511C99.5398 72.3322 100.413 71.9533 100.887 72.2247Z" fill="white"/>
<path d="M95.9685 85.6868L98.3208 84.3237L98.0065 85.5711H104.778C105.321 85.5711 105.777 85.9821 105.832 86.5224L107.389 101.745L109.329 101.786L106.972 103.153V103.152C106.803 103.267 106.6 103.335 106.379 103.335H98.0481C97.5051 103.335 97.0498 102.924 96.9946 102.384L95.3937 86.7379C95.3477 86.286 95.5923 85.8783 95.9685 85.6868Z" fill="#2994FF"/>
<path d="M100.527 101.898H108.858C109.486 101.898 109.975 101.355 109.911 100.731L108.311 85.085C108.255 84.5447 107.8 84.1337 107.257 84.1337H98.9261C98.2985 84.1337 97.8086 84.6763 97.8726 85.3005L99.4735 100.946C99.529 101.486 99.984 101.898 100.527 101.898Z" fill="#51B5FF"/>
<path d="M101.347 98.199H108.536L108.122 93.7972H100.934L101.347 98.199Z" fill="#2994FF"/>
<path d="M87.1934 72.1542C87.1934 72.1542 87.7908 73.2449 87.9552 74.0515C88.1197 74.8584 87.4322 74.9179 87.1934 74.8881C86.9542 74.8583 86.0729 73.7825 86.2075 73.3495C86.3418 72.9164 86.5063 72.0348 87.1934 72.1542Z" fill="white"/>
<path d="M82.0093 102.172C82.0093 102.172 82.2502 99.2322 81.3753 98.5512C80.5004 97.8701 79.2903 98.2883 79.2903 98.2883C79.2903 98.2883 78.6627 101.082 78.573 101.68C78.4837 102.277 80.1421 102.815 82.0093 102.172Z" fill="#2D375E"/>
<path d="M78.5959 101.544C78.5959 101.544 79.9323 102.219 82.0315 101.755L82.0095 102.172C82.0095 102.172 79.8203 102.933 78.5993 101.858L78.5959 101.544Z" fill="#1D243D"/>
<path d="M75.9813 97.4956C75.9366 98.3475 75.3483 100.184 75.2647 100.537C75.1741 100.917 75.3987 101.59 74.9511 102.083C74.5022 102.575 72.1052 102.343 71.634 101.988C71.634 101.988 71.617 101.912 71.6032 101.777C71.5558 101.37 71.521 100.438 71.9922 99.5289C72.6198 98.3188 73.1357 97.1306 73.1577 97.0413C73.18 96.9506 72.9111 96.0554 73.6513 95.9201C74.3902 95.7861 75.8696 95.7723 75.9813 97.3102C75.9857 97.3647 75.9857 97.4276 75.9813 97.4956Z" fill="#2D375E"/>
<path d="M75.2646 100.537C75.1739 100.917 75.3986 101.59 74.951 102.083C74.502 102.575 72.1051 102.343 71.6338 101.988C71.6338 101.988 71.6169 101.912 71.603 101.777C71.6226 101.745 71.6338 101.725 71.6338 101.725C71.6338 101.725 73.2916 98.9227 73.4492 98.1615C73.6055 97.4002 75.0626 96.7503 75.8698 97.3779C75.9104 97.4087 75.9466 97.449 75.9815 97.4963C75.9368 98.3479 75.3482 100.184 75.2646 100.537Z" fill="#1D243D"/>
<path d="M85.0723 83.0646C85.0723 85.4253 80.7693 85.7251 79.4854 85.3651C79.1075 85.2592 78.7478 84.0348 78.4285 82.3588C78.692 83.0128 79.2526 84.4198 79.3656 84.8282C79.5148 85.3651 80.6204 84.8576 82.1445 84.8282C83.6686 84.7974 84.8551 83.9107 84.9038 82.5277C84.9525 81.1446 84.9038 77.8342 84.9038 77.8342C84.9955 80.036 85.0723 82.1345 85.0723 83.0646Z" fill="#1D243D"/>
<path d="M83.936 71.0243C82.4133 71.2936 71.0287 72.816 70.4918 71.3826C70.2452 70.7245 70.1112 66.0101 70.1376 60.9669C70.1447 60.953 70.1528 60.9391 70.1612 60.9249C70.1612 60.9249 70.7594 67.9162 71.2083 69.0218C71.6559 70.1274 78.4087 70.7452 79.9033 70.6156C81.3967 70.486 84.52 69.9116 84.52 69.9116C84.52 69.9116 84.52 69.9129 84.5213 69.9143C84.5271 69.9407 84.5731 70.1206 84.7067 70.44C84.7839 70.7804 84.6276 70.9018 83.936 71.0243Z" fill="#2F36D3"/>
<path d="M89.2418 52.2753C89.2418 52.2753 87.283 53.6637 86.5661 54.4713C85.9162 55.2031 87.7613 67.2592 87.7911 68.4247C87.8209 69.5899 87.9806 70.8335 87.9806 70.8335C87.9806 70.8335 96.8444 71.2212 97.9798 70.5253C99.1152 69.8291 97.4121 65.0487 97.4121 64.0327C97.4121 63.0168 97.8005 57.5489 97.8005 57.3101C97.8005 57.0712 98.7731 53.8634 98.0924 53.4953C97.4117 53.1268 95.4752 50.445 89.2418 52.2753Z" fill="#FF592C"/>
<path d="M98.2398 53.6637C98.2398 53.6637 99.1746 53.844 99.4435 55.7261C99.7125 57.6081 100.689 69.8862 100.705 71.1765C100.713 71.7412 99.3986 71.3227 99.3986 71.3227C99.3986 71.3227 98.3379 66.8708 98.0987 65.5859C97.8596 64.301 96.9336 58.8632 97.2621 56.2937C97.4306 54.9797 97.7056 53.302 98.2398 53.6637Z" fill="#FF592C"/>
<path d="M89.2419 50.9345C89.2419 50.9345 89.427 51.9541 89.3932 52.4024C89.3597 52.8507 92.4221 51.2975 92.4221 51.2975L91.3584 48.4208L89.2419 50.9345Z" fill="white"/>
<path d="M88.6874 43.9314C88.6874 43.9314 87.3652 46.7996 86.3794 47.6962L87.3879 48.5254C87.3879 48.5254 86.9396 50.8333 87.0966 50.968C87.2536 51.1023 87.7242 51.7075 89.4496 50.8337C91.1747 49.9595 94.1329 44.1334 88.6874 43.9314Z" fill="white"/>
<path d="M87.3428 47.1359C87.3428 47.1359 87.1933 43.7149 88.8666 43.0873C90.5399 42.4598 93.7068 42.6093 94.2447 43.655C94.7827 44.7008 94.5435 44.7562 95.1409 45.4904C95.7384 46.2245 96.1268 46.5456 95.9177 47.5504C95.7086 48.5552 95.9177 49.3918 96.9337 49.7203C97.9496 50.0488 97.9195 52.529 98.069 53.3657C98.2186 54.2023 98.5471 55.9054 98.2186 56.2339C97.8901 56.5624 96.3961 55.5765 94.9021 56.2339C93.4081 56.8912 92.5417 58.3852 90.6593 57.4887C88.7769 56.5922 89.4343 54.0825 90.0618 52.4393C90.6894 50.7962 90.6295 50.0735 89.9123 48.9408C89.1951 47.8082 89.9123 46.5097 89.9722 46.1433C90.0321 45.7766 90.0831 44.1645 89.4343 44.3722C88.3625 44.716 87.3428 47.1359 87.3428 47.1359Z" fill="#101C4D"/>
<path d="M86.566 54.4712C86.566 54.4712 85.6895 55.0091 85.366 56.2342C85.0423 57.4592 85.4608 66.6617 85.4608 67.8867C85.4608 69.1118 85.4009 72.6373 85.6999 72.8464C85.999 73.0555 87.3134 72.8464 87.3134 72.8464L87.6777 67.3038C87.6774 67.3042 88.3885 53.6346 86.566 54.4712Z" fill="#FF592C"/>
<path d="M92.0037 95.6515C92.0037 95.6515 92.1718 97.0183 92.2165 97.0744C92.2611 97.1306 93.6617 97.4554 93.8634 97.0298C94.065 96.6042 93.6394 95.0354 93.6394 95.0354L92.0037 95.6515Z" fill="white"/>
<path d="M93.6544 102.598C93.0562 102.875 90.8839 103.116 90.7486 102.365C90.7208 102.212 90.686 102.075 90.6511 101.95C90.5172 101.456 90.4028 101.116 90.8839 100.492C91.4891 99.7075 92.0105 97.1891 92.2169 97.0748C92.2169 97.0748 93.4886 96.294 93.9751 96.7947C94.261 97.089 94.4535 97.5237 94.5732 97.9493C94.6598 98.2491 94.7085 98.5434 94.7295 98.7816C94.7826 99.356 94.1622 100.357 94.1551 100.835C94.148 101.314 94.2528 102.322 93.6544 102.598Z" fill="#FF592C"/>
<path d="M93.6543 102.598C93.0562 102.875 90.8839 103.116 90.7486 102.365C90.7208 102.212 90.686 102.075 90.6511 101.95C90.8281 101.196 91.687 100.155 92.0037 99.5959C92.3843 98.9237 93.3715 97.7358 93.9754 97.6688C94.2014 97.6438 94.4064 97.7747 94.5735 97.949C94.6601 98.2487 94.7089 98.5431 94.7298 98.7812C94.783 99.3557 94.1625 100.357 94.1554 100.835C94.1483 101.314 94.2528 102.322 93.6543 102.598Z" fill="#A1440B"/>
<path d="M107.075 69.0773L107.59 68.5989V69.0773H107.075Z" fill="#82340A"/>
<path d="M132.877 76.9342L132.363 77.4126V76.9342H132.877Z" fill="#82340A"/>
</svg>
