<svg width="379" height="313" viewBox="0 0 379 313" fill="none" xmlns="http://www.w3.org/2000/svg">
<g clip-path="url(#clip0_3548_15588)">
<path d="M350.168 311.659H26.3423C25.9793 311.659 25.6862 311.366 25.6862 311.004C25.6862 310.642 25.9793 310.35 26.3423 310.35H350.168C350.531 310.35 350.824 310.644 350.824 311.004C350.824 311.366 350.531 311.659 350.168 311.659Z" fill="#11181C"/>
<path d="M317.537 309.891L322.599 265.358H281.725L286.786 309.891H317.537Z" fill="#FFAD32"/>
<path d="M325.217 270.931H279.104C277.637 270.931 276.448 269.745 276.448 268.281V261.108C276.448 259.644 277.637 258.458 279.104 258.458H325.217C326.685 258.458 327.874 259.644 327.874 261.108V268.281C327.874 269.745 326.685 270.931 325.217 270.931Z" fill="#1150CB"/>
<path d="M318.388 264.694H285.933C283.835 264.694 282.135 262.997 282.135 260.904V256.009C282.135 253.915 283.837 252.219 285.933 252.219H318.388C320.487 252.219 322.187 253.917 322.187 256.009V260.904C322.187 262.997 320.487 264.694 318.388 264.694Z" fill="#1150CB"/>
<path d="M306.348 255.447H316.187L317.361 249.112C317.535 248.172 316.813 247.305 315.855 247.305H311.886C311.336 247.305 310.827 247.599 310.553 248.078L306.348 255.447Z" fill="#1150CB"/>
<path d="M303.219 296.252C307.464 296.252 310.906 292.817 310.906 288.581C310.906 284.345 307.464 280.911 303.219 280.911C298.973 280.911 295.531 284.345 295.531 288.581C295.531 292.817 298.973 296.252 303.219 296.252Z" fill="#FFCE6D"/>
<path d="M107.468 112.83C103.369 117.029 99.9659 122.066 98.5384 127.752C97.3529 132.468 97.559 137.454 96.3092 142.153C94.9195 147.375 91.8187 151.944 89.0412 156.583C86.2637 161.222 83.7055 166.255 83.6034 171.656C83.5013 177.057 99.6879 184.058 98.8674 186.348C98.0468 188.638 96.4604 190.559 95.1955 192.638C93.9306 194.717 92.9531 197.188 93.5468 199.546C94.2086 202.176 96.7214 204.019 99.3589 204.67C101.997 205.321 104.765 204.994 107.457 204.636C115.502 203.562 123.763 202.136 130.607 197.786C137.454 193.438 143.353 192.206 141.997 184.222C140.906 177.806 135.875 171.835 137.461 165.523C139.025 159.298 146.111 156.391 150.148 151.391C154.052 146.558 154.894 139.648 152.956 133.751C151.018 127.852 146.55 122.971 141.199 119.806C135.848 116.64 129.66 115.084 123.466 114.512C122.019 114.378 120.52 114.282 119.233 113.611C113.649 110.69 122.547 106.687 118.758 104.689C116.164 103.322 109.238 111.017 107.468 112.83Z" fill="#11181C"/>
<path d="M168.384 107.543C168.384 107.543 184.372 160.997 179.676 183.337C174.293 208.943 123.39 203.453 110.251 191.308C97.1127 179.162 145.96 135.896 145.96 135.896L168.384 107.543Z" fill="#11181C"/>
<path d="M225.405 244.943L235.47 301.747C236.383 306.903 232.408 311.631 227.162 311.631H198.422L189.604 241.425L224.522 244.943" fill="white"/>
<path d="M227.162 312.285H198.422C198.092 312.285 197.812 312.04 197.772 311.712L188.954 241.506C188.929 241.308 188.995 241.109 189.135 240.966C189.275 240.825 189.472 240.751 189.67 240.772L224.588 244.292C224.734 244.307 224.863 244.367 224.963 244.458C225.052 244.379 225.163 244.32 225.29 244.298C225.645 244.237 225.988 244.473 226.05 244.828L236.114 301.632C236.583 304.281 235.859 306.982 234.127 309.042C232.397 311.104 229.858 312.285 227.162 312.285ZM199.003 310.976H227.162C229.468 310.976 231.641 309.965 233.123 308.201C234.606 306.437 235.226 304.128 234.823 301.862L224.84 245.518C224.726 245.58 224.594 245.611 224.456 245.596L190.358 242.158L199.003 310.976Z" fill="#11181C"/>
<path d="M227.523 247.935L218.553 215.042C214.709 204.228 205.46 196.22 194.189 193.945L180.319 191.146L186.102 247.935H227.523Z" fill="#FF7A00"/>
<path opacity="0.4" d="M205.121 216.183C205.089 216.183 205.057 216.181 205.025 216.176C204.666 216.123 204.418 215.789 204.473 215.432L205.265 210.107C205.318 209.748 205.653 209.501 206.01 209.556C206.369 209.609 206.617 209.943 206.562 210.299L205.77 215.625C205.721 215.949 205.441 216.183 205.121 216.183ZM204.785 204.304C204.709 204.304 204.634 204.291 204.558 204.264L201.727 203.225C201.387 203.1 201.213 202.723 201.338 202.384C201.463 202.044 201.841 201.87 202.181 201.995L205.012 203.034C205.352 203.159 205.526 203.536 205.401 203.876C205.303 204.14 205.051 204.304 204.785 204.304ZM203.949 235.441C203.781 235.441 203.612 235.376 203.486 235.248C203.229 234.992 203.229 234.578 203.486 234.322L207.751 230.066C208.007 229.809 208.423 229.809 208.68 230.066C208.937 230.323 208.937 230.736 208.68 230.992L204.414 235.248C204.284 235.378 204.117 235.441 203.949 235.441Z" fill="white"/>
<path d="M227.523 248.589H186.102C185.766 248.589 185.484 248.335 185.45 248.001L182.011 214.234C181.975 213.874 182.238 213.553 182.597 213.518C182.958 213.486 183.279 213.742 183.317 214.102L186.696 247.28H226.664L217.92 215.214C217.825 214.865 218.031 214.504 218.381 214.41C218.731 214.316 219.092 214.521 219.187 214.87L228.156 247.763C228.209 247.959 228.169 248.171 228.045 248.333C227.92 248.493 227.727 248.589 227.523 248.589Z" fill="#11181C"/>
<path d="M138.429 188.563C129.773 188.618 112.885 189.384 99.6765 192.094C91.4461 193.785 92.7659 200.614 91.9453 208.958L86.4357 311.63H202.745L200.449 210.356C200.243 201.35 193.769 193.715 184.902 192.013C170.587 189.267 147.752 188.504 138.429 188.563Z" fill="#FF7A00"/>
<g opacity="0.4">
<path d="M117.546 215.442C117.393 215.442 117.24 215.389 117.117 215.281C116.843 215.044 116.812 214.631 117.051 214.357L120.934 209.886C121.171 209.613 121.586 209.582 121.861 209.82C122.135 210.058 122.165 210.471 121.927 210.744L118.043 215.215C117.913 215.366 117.729 215.442 117.546 215.442ZM128.111 224.593H122.409C122.046 224.593 121.753 224.301 121.753 223.939C121.753 223.576 122.046 223.284 122.409 223.284H128.111C128.474 223.284 128.768 223.576 128.768 223.939C128.768 224.299 128.474 224.593 128.111 224.593ZM161.734 220.284C161.566 220.284 161.398 220.22 161.271 220.092C161.014 219.835 161.014 219.422 161.271 219.166L166.338 214.11C166.596 213.853 167.01 213.853 167.267 214.11C167.524 214.367 167.524 214.78 167.267 215.036L162.2 220.092C162.071 220.22 161.903 220.284 161.734 220.284ZM187.484 206.46H175.89C175.527 206.46 175.234 206.168 175.234 205.806C175.234 205.443 175.527 205.151 175.89 205.151H187.484C187.848 205.151 188.141 205.443 188.141 205.806C188.141 206.166 187.848 206.46 187.484 206.46ZM175.734 228.613C175.565 228.613 175.397 228.549 175.27 228.421C175.013 228.164 175.013 227.751 175.27 227.495L181.086 221.692C181.343 221.435 181.757 221.435 182.015 221.692C182.272 221.948 182.272 222.361 182.015 222.618L176.199 228.421C176.07 228.549 175.902 228.613 175.734 228.613ZM148.106 223.925C147.938 223.925 147.769 223.861 147.643 223.733C147.386 223.476 147.386 223.063 147.643 222.807L151.889 218.57C152.147 218.313 152.561 218.313 152.818 218.57C153.075 218.826 153.075 219.239 152.818 219.496L148.571 223.733C148.443 223.861 148.274 223.925 148.106 223.925ZM109.002 205.032C108.639 205.032 108.346 204.74 108.346 204.378V202.683C108.346 202.625 108.353 202.568 108.368 202.512L108.815 200.876C108.911 200.527 109.272 200.32 109.62 200.416C109.97 200.51 110.176 200.871 110.081 201.22L109.658 202.77V204.378C109.658 204.74 109.365 205.032 109.002 205.032ZM119.932 238.47C119.764 238.47 119.596 238.406 119.469 238.278L114.349 233.171C114.092 232.915 114.092 232.501 114.349 232.245C114.604 231.988 115.02 231.988 115.277 232.245L120.397 237.352C120.654 237.608 120.654 238.021 120.397 238.278C120.267 238.406 120.098 238.47 119.932 238.47ZM154.489 235.69C154.321 235.69 154.153 235.625 154.026 235.497C153.769 235.241 153.769 234.827 154.026 234.571L157.102 231.502C157.359 231.245 157.773 231.245 158.031 231.502C158.288 231.758 158.288 232.171 158.031 232.428L154.954 235.497C154.826 235.625 154.657 235.69 154.489 235.69ZM148.972 261.501C148.804 261.501 148.635 261.437 148.509 261.308L141.759 254.573C141.502 254.317 141.502 253.904 141.759 253.647C142.016 253.391 142.43 253.391 142.687 253.647L149.437 260.382C149.694 260.639 149.694 261.052 149.437 261.308C149.309 261.437 149.14 261.501 148.972 261.501ZM174.75 256.794C174.582 256.794 174.414 256.73 174.287 256.601C174.03 256.345 174.03 255.932 174.287 255.675L177.511 252.459C177.768 252.202 178.184 252.202 178.439 252.459C178.696 252.715 178.696 253.128 178.439 253.385L175.215 256.601C175.087 256.73 174.919 256.794 174.75 256.794ZM115.183 262.868C115.014 262.868 114.846 262.804 114.719 262.676C114.462 262.419 114.462 262.006 114.719 261.75L117.476 258.999C117.731 258.743 118.147 258.743 118.404 258.999C118.661 259.256 118.661 259.669 118.404 259.925L115.648 262.676C115.519 262.804 115.351 262.868 115.183 262.868ZM134.406 255.292C134.237 255.292 134.069 255.228 133.942 255.1L128.501 249.669C128.244 249.412 128.244 248.999 128.501 248.742C128.758 248.486 129.172 248.486 129.429 248.742L134.871 254.174C135.128 254.43 135.128 254.843 134.871 255.1C134.742 255.228 134.574 255.292 134.406 255.292ZM187.362 281.624C186.999 281.624 186.706 281.33 186.706 280.969V273.435C186.706 273.072 186.999 272.78 187.362 272.78C187.725 272.78 188.018 273.074 188.018 273.435V280.969C188.018 281.332 187.723 281.624 187.362 281.624ZM176.348 295.505C176.18 295.505 176.011 295.441 175.885 295.312L171.852 291.288C171.595 291.032 171.595 290.619 171.852 290.362C172.109 290.106 172.523 290.106 172.78 290.362L176.813 294.386C177.07 294.643 177.07 295.056 176.813 295.312C176.685 295.441 176.516 295.505 176.348 295.505ZM159.354 297.87H150.927C150.564 297.87 150.271 297.576 150.271 297.216C150.271 296.856 150.564 296.561 150.927 296.561H159.354C159.717 296.561 160.01 296.856 160.01 297.216C160.01 297.576 159.717 297.87 159.354 297.87ZM120.305 279.758C120.136 279.758 119.968 279.694 119.841 279.566C119.584 279.309 119.584 278.896 119.841 278.639L127.905 270.594C128.162 270.337 128.577 270.337 128.834 270.594C129.091 270.85 129.091 271.263 128.834 271.52L120.77 279.566C120.639 279.694 120.471 279.758 120.305 279.758ZM118.357 299.327C118.189 299.327 118.021 299.263 117.894 299.134L110.178 291.436C109.921 291.179 109.921 290.766 110.178 290.509C110.435 290.253 110.849 290.253 111.106 290.509L118.822 298.208C119.079 298.465 119.079 298.878 118.822 299.134C118.692 299.263 118.523 299.327 118.357 299.327ZM176.337 278.4C175.974 278.4 175.681 278.106 175.681 277.745V271.799C175.681 271.437 175.974 271.144 176.337 271.144C176.7 271.144 176.993 271.439 176.993 271.799V277.745C176.993 278.106 176.7 278.4 176.337 278.4ZM175.454 264.566C175.285 264.566 175.117 264.502 174.99 264.374C174.733 264.117 174.733 263.704 174.99 263.448L179.001 259.446C179.258 259.19 179.672 259.19 179.929 259.446C180.186 259.703 180.186 260.116 179.929 260.373L175.919 264.374C175.79 264.502 175.622 264.566 175.454 264.566ZM109.41 271.226C109.242 271.226 109.074 271.161 108.947 271.033L103.623 265.723C103.365 265.466 103.365 265.053 103.623 264.796C103.88 264.54 104.294 264.54 104.551 264.796L109.875 270.107C110.132 270.363 110.132 270.777 109.875 271.033C109.745 271.161 109.576 271.226 109.41 271.226ZM189.744 232.322C189.381 232.322 189.088 232.028 189.088 231.668V224.288C189.088 223.925 189.381 223.633 189.744 223.633C190.107 223.633 190.4 223.927 190.4 224.288V231.668C190.4 232.028 190.107 232.322 189.744 232.322ZM188.632 213.959C188.464 213.959 188.296 213.895 188.169 213.767C187.912 213.51 187.912 213.097 188.169 212.84L191.516 209.501C191.773 209.245 192.187 209.245 192.444 209.501C192.701 209.758 192.701 210.171 192.444 210.428L189.097 213.767C188.969 213.895 188.8 213.959 188.632 213.959Z" fill="white"/>
</g>
<path d="M202.745 312.285C202.389 312.285 202.096 312.002 202.089 311.646L199.793 210.371C199.786 210.009 200.071 209.709 200.434 209.701C200.799 209.716 201.098 209.98 201.105 210.341L203.401 311.617C203.408 311.98 203.123 312.278 202.76 312.287C202.754 312.285 202.748 312.285 202.745 312.285Z" fill="#11181C"/>
<path d="M129.539 279.902L126.865 311.634H73.9417C58.9859 311.634 47.6831 298.121 50.3585 283.441L59.2733 234.518L95.1218 238.082L91.6995 279.009L129.539 279.902Z" fill="white"/>
<path d="M126.865 312.289H73.9417C66.6188 312.289 59.7271 309.071 55.0342 303.462C50.3414 297.852 48.4015 290.511 49.7118 283.324L58.6266 234.401C58.6872 234.065 59.001 233.83 59.3376 233.867L95.186 237.431C95.5434 237.467 95.8043 237.78 95.7759 238.136L92.4123 278.372L129.554 279.247C129.736 279.251 129.906 279.33 130.027 279.464C130.148 279.598 130.208 279.775 130.193 279.956L127.52 311.689C127.491 312.029 127.206 312.289 126.865 312.289ZM59.8103 235.229L51.0051 283.556C49.7647 290.362 51.6025 297.31 56.0439 302.623C60.4852 307.933 67.0102 310.98 73.9436 310.98H126.262L128.826 280.539L91.6844 279.664C91.5029 279.66 91.3327 279.581 91.2117 279.447C91.0907 279.313 91.0302 279.136 91.0453 278.955L94.4127 238.668L59.8103 235.229Z" fill="#11181C"/>
<path d="M102.806 191.43L83.7849 193.824C72.6692 195.224 63.5691 203.313 60.8956 214.168L54.3215 247.293L102.312 251.174L102.806 191.43Z" fill="#FF7A00"/>
<path opacity="0.4" d="M74.5089 215.161C74.3406 215.161 74.1723 215.096 74.0456 214.968C73.7885 214.712 73.7885 214.298 74.0456 214.042L77.5511 210.544C77.8082 210.288 78.2223 210.288 78.4794 210.544C78.7366 210.801 78.7366 211.214 78.4794 211.471L74.974 214.968C74.8454 215.096 74.6771 215.161 74.5089 215.161ZM81.1075 234.961C80.9393 234.961 80.771 234.897 80.6443 234.769L72.6351 226.778C72.378 226.521 72.378 226.108 72.6351 225.851C72.8923 225.595 73.3064 225.595 73.5635 225.851L81.5727 233.843C81.8298 234.099 81.8298 234.512 81.5727 234.769C81.4441 234.897 81.2758 234.961 81.1075 234.961ZM90.4875 223.891C90.3193 223.891 90.151 223.827 90.0243 223.699C89.7672 223.442 89.7672 223.029 90.0243 222.773L95.4299 217.379C95.6871 217.123 96.1011 217.123 96.3583 217.379C96.6154 217.636 96.6154 218.049 96.3583 218.305L90.9526 223.699C90.8222 223.827 90.6558 223.891 90.4875 223.891ZM63.5123 240.891C63.344 240.891 63.1758 240.826 63.0491 240.698L59.8254 237.482C59.5682 237.225 59.5682 236.812 59.8254 236.555C60.0825 236.299 60.4966 236.299 60.7537 236.555L63.9774 239.772C64.2346 240.028 64.2346 240.442 63.9774 240.698C63.8489 240.826 63.6806 240.891 63.5123 240.891ZM91.5653 204.534C91.397 204.534 91.2287 204.47 91.102 204.341C90.8449 204.085 90.8449 203.672 91.102 203.415L92.747 201.774C93.0022 201.517 93.4182 201.517 93.6753 201.774C93.9325 202.031 93.9325 202.444 93.6753 202.7L92.0304 204.341C91.9018 204.47 91.7335 204.534 91.5653 204.534ZM82.8811 205.368C82.7128 205.368 82.5445 205.304 82.4178 205.175L79.3416 202.106C79.0845 201.849 79.0845 201.436 79.3416 201.18C79.5987 200.923 80.0128 200.923 80.27 201.18L83.3462 204.249C83.6033 204.506 83.6033 204.919 83.3462 205.175C83.2157 205.304 83.0475 205.368 82.8811 205.368ZM91.0207 233.912C90.8524 233.912 90.6842 233.848 90.5575 233.72C90.3003 233.463 90.3003 233.05 90.5575 232.794L94.2369 229.123C94.494 228.866 94.9081 228.866 95.1652 229.123C95.4224 229.379 95.4224 229.792 95.1652 230.049L91.4858 233.72C91.3573 233.848 91.189 233.912 91.0207 233.912Z" fill="white"/>
<path d="M102.312 251.828C102.295 251.828 102.276 251.828 102.259 251.827L54.2685 247.946C54.0813 247.931 53.9111 247.838 53.7977 247.688C53.6842 247.539 53.6407 247.35 53.6767 247.165L60.2508 214.04C60.3207 213.685 60.6648 213.453 61.0222 213.525C61.3777 213.595 61.6083 213.94 61.5384 214.295L55.108 246.699L101.666 250.463L102.15 216.828C102.155 216.466 102.456 216.157 102.815 216.183C103.178 216.189 103.467 216.485 103.462 216.847L102.968 251.181C102.966 251.362 102.889 251.534 102.753 251.657C102.634 251.768 102.475 251.828 102.312 251.828Z" fill="#11181C"/>
<path d="M207.32 268.903C208.322 234.039 209.358 192.425 209.358 192.425C209.358 192.425 208.283 179.378 209.088 175.142C209.5 173.003 212.195 164.752 213.805 159.773C214.102 158.873 214.664 158.123 215.397 157.591C216.133 157.059 217.025 156.753 217.98 156.753C220.474 156.753 222.471 158.822 222.365 161.311L222.917 169.824L229.578 151.041C229.814 149.12 231.582 147.775 233.499 148.054C234.339 148.177 235.091 148.605 235.609 149.207C236.143 149.818 236.449 150.595 236.449 151.452V152.499C236.449 152.499 238.323 148.483 241.543 149.616C244.763 150.76 244.36 156.785 244.36 156.785C244.36 156.785 246.574 153.431 249.654 154.838C252.69 156.217 251.238 162.278 251.202 162.461C251.465 162.339 255.597 160.462 256.769 164.68C257.635 167.806 254.528 174.469 252.7 177.987C252.017 179.323 245.076 189.444 244.63 194.002L244.954 293.384C244.471 303.592 236.035 311.634 225.795 311.634" fill="white"/>
<path d="M225.795 312.293C225.432 312.293 225.139 311.999 225.139 311.638C225.139 311.276 225.432 310.984 225.795 310.984C235.704 310.984 243.83 303.241 244.297 293.358L243.972 194.007C244.347 190.15 248.888 182.892 251.07 179.404C251.582 178.585 251.989 177.936 252.112 177.693C255.254 171.647 256.72 166.97 256.133 164.857C255.848 163.833 255.349 163.152 254.651 162.829C253.314 162.216 251.552 163.024 251.478 163.058C251.255 163.159 250.993 163.131 250.798 162.98C250.603 162.829 250.51 162.582 250.556 162.341C251.146 159.634 251.182 156.255 249.38 155.436C246.856 154.284 244.982 157.032 244.904 157.149C244.74 157.396 244.43 157.502 244.146 157.408C243.864 157.313 243.681 157.042 243.702 156.745C243.802 155.206 243.571 151.037 241.318 150.237C238.69 149.311 237.056 152.742 237.039 152.778C236.908 153.057 236.602 153.204 236.301 153.142C236.001 153.076 235.787 152.81 235.787 152.503V151.456C235.787 150.777 235.553 150.15 235.108 149.643C234.679 149.143 234.059 148.803 233.399 148.707C232.65 148.598 231.904 148.79 231.302 149.248C230.701 149.707 230.317 150.373 230.225 151.126C230.219 151.173 230.208 151.22 230.192 151.263L223.531 170.047C223.427 170.34 223.132 170.522 222.822 170.477C222.514 170.434 222.278 170.181 222.257 169.872L221.705 161.358C221.747 160.266 221.38 159.298 220.671 158.558C219.96 157.819 219.003 157.411 217.975 157.411C217.182 157.411 216.422 157.658 215.777 158.124C215.14 158.587 214.671 159.228 214.422 159.983L214.042 161.16C212.472 166.006 210.1 173.331 209.727 175.271C208.948 179.37 209.997 192.246 210.009 192.376C210.001 192.862 208.963 234.46 207.972 268.928C207.961 269.29 207.657 269.567 207.298 269.564C206.934 269.554 206.649 269.252 206.66 268.89C207.651 234.426 208.687 192.83 208.699 192.413C208.657 191.947 207.627 179.3 208.438 175.026C208.825 173.007 211.119 165.927 212.792 160.758L213.174 159.577C213.512 158.556 214.144 157.689 215.006 157.066C215.876 156.436 216.902 156.102 217.975 156.102C219.364 156.102 220.657 156.653 221.618 157.653C222.577 158.651 223.074 159.962 223.015 161.343L223.357 166.604L228.929 150.892C229.081 149.816 229.639 148.866 230.503 148.207C231.387 147.534 232.482 147.251 233.586 147.411C234.57 147.554 235.462 148.043 236.099 148.786C236.54 149.29 236.84 149.877 236.99 150.511C238.075 149.298 239.729 148.288 241.752 149.003C244.243 149.888 244.857 153.086 244.991 155.114C246.177 154.116 247.941 153.342 249.919 154.246C252.545 155.44 252.377 159.298 252.046 161.477C252.904 161.26 254.097 161.135 255.196 161.639C256.262 162.129 257.001 163.093 257.395 164.506C258.27 167.664 255.638 173.747 253.275 178.291C253.125 178.582 252.749 179.185 252.178 180.096C250.215 183.234 245.617 190.582 245.275 194.068L245.602 293.384C245.11 304.002 236.407 312.293 225.795 312.293Z" fill="#11181C"/>
<path d="M244.358 156.179C244.358 156.179 243.123 162.273 241.917 165.083C240.711 167.894 237.803 171.209 237.803 171.209" fill="white"/>
<path d="M237.803 171.862C237.65 171.862 237.495 171.809 237.372 171.699C237.099 171.462 237.071 171.047 237.309 170.775C237.338 170.743 240.162 167.504 241.314 164.823C242.481 162.107 243.704 156.108 243.715 156.047C243.787 155.692 244.133 155.464 244.488 155.534C244.844 155.606 245.073 155.951 245.001 156.306C244.95 156.557 243.74 162.497 242.52 165.338C241.286 168.211 238.419 171.498 238.296 171.635C238.168 171.786 237.986 171.862 237.803 171.862Z" fill="#11181C"/>
<path d="M251.157 162.341C251.157 162.341 249.922 167.94 248.716 170.522C247.51 173.105 244.602 176.15 244.602 176.15" fill="white"/>
<path d="M244.602 176.804C244.439 176.804 244.277 176.744 244.15 176.623C243.887 176.374 243.878 175.959 244.127 175.697C244.156 175.667 246.975 172.697 248.122 170.243C249.285 167.757 250.505 162.254 250.518 162.199C250.596 161.846 250.947 161.62 251.301 161.701C251.654 161.778 251.879 162.127 251.8 162.482C251.749 162.714 250.537 168.181 249.312 170.8C248.073 173.448 245.199 176.474 245.078 176.603C244.948 176.736 244.776 176.804 244.602 176.804Z" fill="#11181C"/>
<path d="M236.449 152.499C236.449 152.499 235.765 157.506 234.844 160.709C234.055 163.448 230.765 168.177 230.765 168.177" fill="white"/>
<path d="M230.764 168.834C230.635 168.834 230.505 168.796 230.389 168.717C230.09 168.511 230.017 168.102 230.225 167.806C230.257 167.759 233.462 163.133 234.21 160.53C235.108 157.406 235.789 152.461 235.797 152.41C235.846 152.052 236.175 151.799 236.536 151.85C236.895 151.899 237.147 152.229 237.098 152.587C237.069 152.793 236.396 157.677 235.472 160.89C234.662 163.701 231.439 168.355 231.302 168.551C231.176 168.736 230.972 168.834 230.764 168.834Z" fill="#11181C"/>
<path d="M215.205 246.765L205.857 305.745C205.324 309.142 202.382 311.638 198.942 311.638H100.387C96.9387 311.638 94.0081 309.14 93.4654 305.745L84.1176 246.765C83.4445 242.53 86.7344 238.687 91.0321 238.687H208.292C212.597 238.687 215.88 242.53 215.205 246.765Z" fill="#1150CB"/>
<path d="M149.66 286.4C154.473 286.4 158.375 282.508 158.375 277.706C158.375 272.904 154.473 269.011 149.66 269.011C144.847 269.011 140.946 272.904 140.946 277.706C140.946 282.508 144.847 286.4 149.66 286.4Z" fill="white"/>
<path d="M158.378 277.704C158.378 282.507 154.474 286.4 149.662 286.4C145.977 286.4 142.827 284.121 141.549 280.89C143.001 281.963 144.805 282.61 146.756 282.61C151.57 282.61 155.472 278.717 155.472 273.914C155.472 272.787 155.263 271.722 154.877 270.735C157.004 272.325 158.378 274.847 158.378 277.704Z" fill="#A0BDFF"/>
<path d="M152.307 167.236L154.183 187.365C154.183 187.365 165.527 205.079 148.39 206.773C131.254 208.468 123.409 188.069 123.409 188.069L124.844 154.023L152.307 167.236Z" fill="white"/>
<path d="M146.404 207.53C130.38 207.53 122.874 188.507 122.797 188.305C122.764 188.222 122.749 188.131 122.753 188.042L124.188 153.997C124.198 153.776 124.317 153.576 124.506 153.463C124.695 153.35 124.929 153.34 125.128 153.435L152.591 166.648C152.799 166.748 152.939 166.948 152.96 167.178L154.82 187.152C155.569 188.361 160.454 196.651 157.675 202.367C156.268 205.259 153.166 206.962 148.454 207.428C147.756 207.496 147.072 207.53 146.404 207.53ZM124.071 187.958C124.757 189.625 132.574 207.681 148.325 206.125C152.551 205.708 155.3 204.251 156.493 201.797C159.116 196.411 153.684 187.807 153.629 187.72C153.572 187.631 153.538 187.531 153.529 187.427L151.689 167.666L125.461 155.048L124.071 187.958Z" fill="#11181C"/>
<path d="M124.956 158.455C123.778 157.136 122.689 155.719 121.706 154.212C117.296 147.447 114.133 139.497 109.607 131.482L149.823 104.201C150.666 104.714 168.704 115.901 174.395 140.978C178.303 158.2 171.303 170.466 158.624 172.522C151.137 173.737 141.055 173.092 134.483 169.885" fill="white"/>
<path d="M151.067 173.754C145.296 173.754 139.002 172.82 134.194 170.477C133.869 170.319 133.733 169.926 133.893 169.602C134.052 169.277 134.445 169.144 134.771 169.302C141.57 172.618 151.846 172.964 158.518 171.881C163.81 171.022 168.123 168.327 170.992 164.086C174.841 158.392 175.822 150.239 173.756 141.127C168.496 117.955 152.504 106.721 149.836 104.987L110.473 131.689C112.263 134.9 113.844 138.096 115.377 141.191C117.612 145.706 119.722 149.971 122.256 153.857C123.209 155.319 124.281 156.719 125.445 158.023C125.687 158.292 125.663 158.707 125.393 158.947C125.122 159.188 124.708 159.164 124.466 158.894C123.258 157.543 122.144 156.089 121.157 154.572C118.58 150.62 116.453 146.323 114.201 141.77C112.594 138.522 110.93 135.162 109.036 131.806C108.867 131.51 108.956 131.134 109.238 130.944L149.454 103.663C149.668 103.518 149.946 103.512 150.165 103.646C150.944 104.12 169.292 115.529 175.036 140.838C177.184 150.305 176.134 158.821 172.081 164.818C169.006 169.366 164.389 172.256 158.73 173.173C156.44 173.541 153.814 173.754 151.067 173.754Z" fill="#11181C"/>
<path d="M128.991 143.202L130.983 145.704C130.983 145.704 136.274 136.822 136.049 127.969C136.049 127.969 163.181 128.582 168.142 114.58C174.607 96.3303 136.268 89.0899 118.835 102.852C99.6671 117.985 101.743 144.21 99.0299 162.237C96.3167 180.264 96.9917 175.208 102.602 180.393C109.153 186.448 122.539 184.313 122.539 184.313L124.863 158.538L128.991 143.202Z" fill="#11181C"/>
<path d="M131.621 155.668C131.621 155.668 127.658 158.958 121.698 158.755C115.736 158.549 109.958 142.436 114.262 139.642C118.565 136.849 128.991 143.204 128.991 143.204" fill="white"/>
<path d="M122.239 159.417C122.053 159.417 121.864 159.413 121.675 159.407C117.865 159.277 114.345 153.729 112.836 148.315C111.575 143.793 111.974 140.344 113.904 139.092C118.501 136.107 128.894 142.376 129.333 142.642C129.643 142.831 129.739 143.232 129.55 143.542C129.361 143.851 128.957 143.947 128.648 143.761C125.846 142.053 117.862 138.084 114.619 140.189C113.237 141.087 113.035 144.138 114.101 147.964C115.466 152.863 118.69 157.994 121.721 158.098C127.334 158.298 131.163 155.195 131.203 155.163C131.481 154.932 131.895 154.97 132.127 155.249C132.358 155.527 132.32 155.94 132.042 156.17C131.876 156.308 128.062 159.417 122.239 159.417Z" fill="#11181C"/>
<path d="M125.512 146.453C124.555 145.402 123.379 144.553 122.08 143.976C121.265 143.614 120.384 143.355 119.493 143.4C118.603 143.446 117.701 143.827 117.175 144.546C116.43 145.562 116.584 146.968 116.909 148.185C117.499 150.405 118.548 152.501 119.972 154.306" fill="white"/>
<path d="M119.974 154.963C119.779 154.963 119.586 154.878 119.458 154.714C117.987 152.848 116.886 150.65 116.275 148.356C115.791 146.536 115.912 145.164 116.648 144.163C117.253 143.336 118.306 142.808 119.463 142.75C120.35 142.706 121.293 142.912 122.35 143.382C123.725 143.993 124.988 144.904 125.999 146.015C126.243 146.283 126.223 146.696 125.954 146.939C125.686 147.183 125.272 147.162 125.028 146.896C124.137 145.917 123.025 145.115 121.815 144.578C120.953 144.195 120.204 144.021 119.529 144.057C118.764 144.095 118.083 144.423 117.709 144.934C117.223 145.596 117.17 146.606 117.546 148.02C118.111 150.145 119.129 152.178 120.49 153.904C120.715 154.189 120.666 154.601 120.38 154.825C120.259 154.916 120.115 154.963 119.974 154.963Z" fill="#11181C"/>
<path d="M151.9 145.231C152.908 144.961 153.397 143.526 152.992 142.027C152.588 140.528 151.444 139.532 150.436 139.802C149.429 140.073 148.94 141.507 149.344 143.006C149.749 144.505 150.893 145.502 151.9 145.231Z" fill="#11181C"/>
<path d="M145.954 138.835C147.225 136.675 149.836 135.524 152.581 135.915L145.954 138.835Z" fill="white"/>
<path d="M145.952 139.49C145.839 139.49 145.726 139.461 145.622 139.399C145.31 139.216 145.204 138.814 145.387 138.503C146.798 136.107 149.656 134.836 152.672 135.266C153.031 135.317 153.281 135.649 153.23 136.007C153.179 136.366 152.844 136.615 152.487 136.564C149.999 136.205 147.658 137.232 146.52 139.167C146.397 139.375 146.177 139.49 145.952 139.49Z" fill="#11181C"/>
<path d="M166.217 142.024C167.224 141.753 167.713 140.319 167.309 138.82C166.904 137.321 165.76 136.325 164.753 136.595C163.745 136.866 163.256 138.3 163.661 139.799C164.065 141.298 165.209 142.294 166.217 142.024Z" fill="#11181C"/>
<path d="M160.271 135.628C161.542 133.468 164.153 132.317 166.898 132.708L160.271 135.628Z" fill="white"/>
<path d="M160.271 136.282C160.158 136.282 160.044 136.254 159.94 136.192C159.628 136.009 159.522 135.607 159.706 135.296C161.116 132.9 163.973 131.628 166.991 132.059C167.35 132.11 167.6 132.442 167.548 132.8C167.497 133.158 167.163 133.409 166.805 133.356C164.321 133 161.976 134.024 160.838 135.96C160.715 136.167 160.496 136.282 160.271 136.282Z" fill="#11181C"/>
<path d="M157.747 141.47C157.978 142.968 158.978 144.242 160.116 145.245C161.254 146.249 162.557 147.054 163.678 148.077C164.799 149.099 165.76 150.414 165.915 151.922C166.059 153.316 165.444 154.767 164.342 155.636" fill="white"/>
<path d="M164.342 156.291C164.147 156.291 163.956 156.206 163.828 156.042C163.603 155.759 163.652 155.346 163.935 155.121C164.862 154.391 165.384 153.161 165.263 151.988C165.115 150.548 164.079 149.33 163.236 148.56C162.672 148.047 162.067 147.594 161.424 147.113C160.844 146.679 160.243 146.23 159.681 145.734C158.191 144.419 157.321 143.017 157.098 141.567C157.044 141.208 157.289 140.874 157.649 140.82C158.004 140.765 158.342 141.01 158.397 141.367C158.571 142.506 159.297 143.644 160.551 144.751C161.073 145.211 161.627 145.626 162.213 146.064C162.852 146.541 163.512 147.036 164.122 147.592C165.573 148.915 166.42 150.388 166.569 151.854C166.734 153.461 166.019 155.146 164.75 156.147C164.627 156.246 164.484 156.291 164.342 156.291Z" fill="#11181C"/>
<path d="M155.366 161.669C154.162 161.669 152.952 161.314 151.954 160.647C150.57 159.72 149.594 158.185 149.341 156.542C149.286 156.183 149.532 155.849 149.889 155.794C150.248 155.74 150.583 155.985 150.638 156.342C150.836 157.628 151.6 158.832 152.685 159.558C153.769 160.284 155.176 160.535 156.444 160.232C156.796 160.15 157.151 160.364 157.236 160.716C157.321 161.067 157.104 161.422 156.751 161.507C156.299 161.616 155.832 161.669 155.366 161.669Z" fill="#11181C"/>
<path d="M220.947 79.2365C220.947 109.649 238.417 135.996 263.903 148.818C263.95 148.846 264.005 148.873 264.059 148.894C273.379 153.563 283.761 156.419 294.754 157C296.153 157.075 297.575 157.117 298.995 157.117C303.531 157.117 307.983 156.734 312.307 155.981C320.659 154.557 328.556 151.804 335.768 147.943C360.334 134.832 377.05 108.979 377.05 79.2365C377.05 36.2262 342.102 1.36377 298.995 1.36377C255.888 1.36377 220.947 36.2262 220.947 79.2365Z" fill="white"/>
<path d="M281.139 81.3379L270.747 82.3415C267.953 82.6113 265.296 83.6903 263.107 85.4448L247.493 97.5637L266.85 127.397L289.636 103.619L281.139 81.3379Z" fill="#A0BDFF"/>
<path d="M266.85 128.051C266.829 128.051 266.809 128.051 266.788 128.048C266.587 128.029 266.408 127.919 266.298 127.752L246.941 97.9184C246.755 97.6336 246.82 97.2544 247.088 97.045L262.702 84.9261C262.987 84.7035 263.4 84.7545 263.623 85.0412C263.846 85.3261 263.793 85.7373 263.507 85.9599L248.37 97.7109L266.949 126.344L289.159 103.165C289.411 102.903 289.825 102.895 290.087 103.144C290.35 103.393 290.36 103.808 290.108 104.07L267.323 127.848C267.2 127.98 267.028 128.051 266.85 128.051Z" fill="#11181C"/>
<path d="M263.903 148.818C263.95 148.846 264.005 148.873 264.059 148.894C273.379 153.563 283.761 156.419 294.754 157C296.153 157.075 297.575 157.117 298.995 157.117C303.531 157.117 307.983 156.734 312.307 155.981C320.659 154.557 328.556 151.804 335.768 147.943L335.494 89.7178C335.48 86.9107 333.552 84.4809 330.827 83.8225C321.824 81.6455 307.132 79.0987 302.116 79.2421C282.169 79.81 275.156 82.5152 270.435 84.4111C268.219 85.294 266.737 87.3956 266.627 89.7782L263.903 148.818Z" fill="#A0BDFF"/>
<path opacity="0.6" d="M302.817 120.02L302.359 120.764L306.181 123.105L306.639 122.36L302.817 120.02Z" fill="white"/>
<path opacity="0.6" d="M312.881 127.778L307.306 133.341L307.925 133.958L313.5 128.395L312.881 127.778Z" fill="white"/>
<path opacity="0.6" d="M300.539 143.262L299.92 143.88L302.987 146.94L303.606 146.323L300.539 143.262Z" fill="white"/>
<path opacity="0.6" d="M317.876 149.802L311.788 155.877L312.407 156.495L318.495 150.42L317.876 149.802Z" fill="white"/>
<path opacity="0.6" d="M285.036 133.387L280.958 138.492L281.643 139.036L285.721 133.932L285.036 133.387Z" fill="white"/>
<path opacity="0.6" d="M278.545 119.99L277.926 120.608L281.999 124.671L282.618 124.053L278.545 119.99Z" fill="white"/>
<path opacity="0.6" d="M284.988 105.711H281.108V106.585H284.988V105.711Z" fill="white"/>
<path opacity="0.6" d="M275.302 89.0589L270.914 93.437L271.533 94.0546L275.921 89.6765L275.302 89.0589Z" fill="white"/>
<path opacity="0.6" d="M297.069 96.768L292.501 101.326L293.12 101.944L297.688 97.3856L297.069 96.768Z" fill="white"/>
<path opacity="0.6" d="M285.643 144.648L285.024 145.266L288.197 148.431L288.816 147.813L285.643 144.648Z" fill="white"/>
<path opacity="0.6" d="M325.32 137.132L322.669 139.777L323.288 140.395L325.939 137.75L325.32 137.132Z" fill="white"/>
<path opacity="0.6" d="M290.99 125.471L290.371 126.089L293.614 129.324L294.233 128.706L290.99 125.471Z" fill="white"/>
<path d="M265.411 109.615L263.41 148.868L264.72 148.934L266.722 109.682L265.411 109.615Z" fill="#11181C"/>
<path d="M290.685 80.3741L291.152 55.927H312.837C312.837 55.927 313.083 80.2006 313.075 80.3571C302.801 88.139 295.054 88.9275 290.685 80.3741Z" fill="white"/>
<path d="M299.42 87.1542C298.652 87.1542 297.913 87.0731 297.202 86.9108C294.262 86.2392 291.872 84.1396 290.101 80.6703C290.052 80.5741 290.027 80.4685 290.029 80.3609L290.494 55.9138C290.502 55.5573 290.793 55.2705 291.15 55.2705H312.835C313.194 55.2705 313.487 55.5591 313.491 55.9195C313.565 63.224 313.737 80.227 313.729 80.3855C313.72 80.5798 313.625 80.7609 313.47 80.8778C307.921 85.0847 303.294 87.1542 299.42 87.1542ZM291.345 80.2213C292.922 83.2416 294.992 85.0621 297.495 85.6356C301.279 86.4996 306.299 84.615 312.417 80.0327C312.4 77.8538 312.266 64.4049 312.186 56.5835H291.795L291.345 80.2213Z" fill="#11181C"/>
<path d="M312.61 61.0938C317.261 51.2557 316.673 36.5127 316.673 36.5127L293.493 27.9424C293.026 28.3857 278.612 35.0451 279.622 51.8028C280.632 68.5606 292.031 75.0841 305.618 68.9435" fill="white"/>
<path d="M296.021 71.862C293.02 71.862 290.244 71.1376 287.834 69.6869C282.621 66.5496 279.471 60.2129 278.966 51.8425C278.357 41.7535 283.241 33.1624 292.714 27.6538C292.893 27.5482 293.02 27.4784 293.077 27.4369C293.258 27.2652 293.483 27.2444 293.718 27.3312L316.898 35.9016C317.146 35.994 317.316 36.2261 317.325 36.4902C317.35 37.0995 317.866 51.5086 313.2 61.3769C313.045 61.7051 312.655 61.8447 312.326 61.69C311.999 61.5353 311.857 61.1448 312.012 60.8184C316.098 52.1745 316.072 39.4727 316.025 36.975L293.566 28.6725C293.51 28.7046 293.445 28.7423 293.372 28.7857C284.349 34.034 279.696 42.1949 280.273 51.7651C280.751 59.6922 283.674 65.6592 288.507 68.5663C293.029 71.2866 299.008 71.2112 305.342 68.3475C305.673 68.1984 306.062 68.3437 306.21 68.6738C306.359 69.004 306.214 69.3907 305.883 69.5416C302.464 71.0867 299.121 71.8601 296.021 71.862Z" fill="#11181C"/>
<path d="M284.871 47.0173C285.095 46.0328 284.74 45.1132 284.078 44.9633C283.416 44.8134 282.698 45.4901 282.474 46.4746C282.25 47.4592 282.605 48.3788 283.267 48.5287C283.929 48.6785 284.647 48.0019 284.871 47.0173Z" fill="#11181C"/>
<path d="M282.629 43.0947C283.844 42.6193 285.283 42.9871 286.278 44.0266L282.629 43.0947Z" fill="white"/>
<path d="M286.278 44.6812C286.104 44.6812 285.932 44.6133 285.803 44.4794C284.99 43.6305 283.839 43.3249 282.869 43.704C282.53 43.8361 282.15 43.6701 282.018 43.3324C281.885 42.9947 282.052 42.6155 282.39 42.4835C283.857 41.91 285.57 42.3382 286.754 43.572C287.004 43.8342 286.994 44.2473 286.733 44.4983C286.603 44.6228 286.44 44.6812 286.278 44.6812Z" fill="#11181C"/>
<path d="M311.035 47.798C311.035 47.798 310.98 48.9979 309.027 47.6773C307.072 46.3549 304.5 35.2811 302.288 34.2153C300.076 33.1494 289.274 29.5801 284.538 36.6092C284.538 36.6092 276.357 32.7212 275.559 23.4434C274.761 14.1637 281.804 5.61031 291.377 8.47967C300.952 11.349 301.676 22.8133 301.676 22.8133C301.676 22.8133 308.133 18.8875 311.927 20.8872C315.724 22.885 313.026 29.6311 313.026 29.6311C313.026 29.6311 318.619 27.6955 322.638 33.7606C326.658 39.8257 317.781 50.6938 317.781 50.6938L311.035 47.798Z" fill="#11181C"/>
<path d="M295.695 53.6876C295.555 53.6876 295.414 53.68 295.272 53.6668C292.368 53.3801 290.301 50.1372 290.67 46.4377C290.844 44.6776 291.536 43.0685 292.619 41.9064C293.748 40.6952 295.162 40.1123 296.605 40.2481C298.046 40.3896 299.318 41.2442 300.186 42.6534C301.02 44.0042 301.381 45.7171 301.207 47.4772C301.033 49.2373 300.341 50.8465 299.258 52.0086C298.238 53.1008 296.989 53.6876 295.695 53.6876ZM296.185 41.5385C295.259 41.5385 294.342 41.9781 293.58 42.7987C292.691 43.7514 292.122 45.0908 291.974 46.566C291.679 49.5467 293.215 52.1463 295.4 52.3632C296.423 52.4689 297.452 52.0218 298.295 51.1181C299.184 50.1655 299.753 48.826 299.9 47.3508C300.048 45.8756 299.751 44.4513 299.068 43.342C298.42 42.2893 297.499 41.6555 296.476 41.5555C296.378 41.5442 296.281 41.5385 296.185 41.5385ZM283.424 52.8801C283.285 52.8801 283.143 52.8726 283.001 52.8594C281.56 52.7179 280.288 51.8633 279.42 50.4541C278.586 49.1034 278.225 47.3904 278.399 45.6303C278.573 43.8702 279.265 42.261 280.348 41.099C281.477 39.8878 282.889 39.3049 284.334 39.4407C285.775 39.5822 287.047 40.4368 287.915 41.846C288.749 43.1967 289.11 44.9097 288.936 46.6698C288.762 48.4299 288.07 50.0391 286.987 51.2011C285.967 52.2934 284.718 52.8801 283.424 52.8801ZM283.914 40.7311C282.988 40.7311 282.071 41.1706 281.309 41.9913C280.42 42.9439 279.851 44.2834 279.703 45.7586C279.556 47.2338 279.853 48.6581 280.535 49.7674C281.184 50.8201 282.105 51.4539 283.128 51.5539C284.154 51.6558 285.179 51.2125 286.022 50.3088C286.911 49.3561 287.48 48.0167 287.628 46.5415C287.775 45.0663 287.478 43.6419 286.796 42.5327C286.147 41.48 285.226 40.8462 284.203 40.7462C284.107 40.7367 284.011 40.7311 283.914 40.7311Z" fill="#FF7A00"/>
<path d="M297.117 47.9769C297.135 46.9675 296.6 46.1393 295.921 46.1271C295.243 46.1149 294.678 46.9234 294.66 47.9328C294.642 48.9422 295.177 49.7704 295.856 49.7826C296.534 49.7947 297.099 48.9863 297.117 47.9769Z" fill="#11181C"/>
<path d="M294.551 44.3813C295.726 43.8135 297.189 44.0663 298.263 45.0265L294.551 44.3813Z" fill="white"/>
<path d="M298.263 45.6812C298.108 45.6812 297.951 45.6265 297.826 45.5152C296.949 44.7323 295.777 44.5191 294.839 44.9719C294.514 45.1303 294.12 44.9945 293.962 44.6681C293.803 44.3437 293.939 43.9513 294.266 43.7928C295.684 43.108 297.425 43.4004 298.702 44.538C298.972 44.7795 298.995 45.1926 298.753 45.4624C298.622 45.6076 298.443 45.6812 298.263 45.6812Z" fill="#11181C"/>
<path d="M314.663 47.1732C314.599 47.1732 314.533 47.1638 314.467 47.1431C309.897 45.7207 300.746 46.7922 300.655 46.8035C300.294 46.8507 299.968 46.5903 299.925 46.2319C299.881 45.8735 300.139 45.5471 300.498 45.5037C300.884 45.4565 310.02 44.3869 314.858 45.8923C315.204 45.9999 315.397 46.3677 315.289 46.7129C315.202 46.994 314.943 47.1732 314.663 47.1732Z" fill="#FF7A00"/>
<path d="M310.746 47.9621C310.746 47.9621 316.522 42.4742 319.653 43.6646C322.784 44.855 321.322 55.9344 317.547 56.8833C313.771 57.8341 310.787 56.2777 310.787 56.2777" fill="white"/>
<path d="M315.045 57.8473C312.419 57.8473 310.583 56.9097 310.483 56.8588C310.161 56.6909 310.038 56.2966 310.205 55.9778C310.371 55.6571 310.768 55.5325 311.09 55.6986C311.118 55.7137 313.916 57.121 317.386 56.2494C318.987 55.8457 320.464 52.5689 320.678 48.9411C320.821 46.4925 320.317 44.6173 319.418 44.2758C317.172 43.4231 312.721 46.9886 311.198 48.4355C310.935 48.6846 310.519 48.6751 310.269 48.4129C310.02 48.1507 310.029 47.7375 310.292 47.4866C310.914 46.8962 316.469 41.7498 319.885 43.0515C321.387 43.6231 322.173 45.8529 321.986 49.0166C321.765 52.7613 320.224 56.8833 317.705 57.5171C316.762 57.7567 315.866 57.8473 315.045 57.8473Z" fill="#11181C"/>
<path d="M317.214 52.2897C317.117 52.2897 317.019 52.2689 316.927 52.2237C316.601 52.0652 316.465 51.6728 316.624 51.3483C316.913 50.756 317.083 50.0938 317.114 49.4354C317.134 48.9845 317.038 48.8468 316.995 48.8091C316.942 48.7619 316.828 48.7412 316.717 48.76C316.569 48.7846 316.403 48.8638 316.212 49.0053C315.909 49.226 315.652 49.5128 315.465 49.8335C315.283 50.1466 314.883 50.2523 314.569 50.073C314.255 49.8919 314.147 49.4901 314.329 49.1788C314.607 48.7016 314.989 48.2752 315.435 47.9489C315.796 47.6847 316.146 47.5263 316.503 47.4678C317.008 47.3867 317.518 47.5206 317.866 47.8319C318.277 48.196 318.458 48.7412 318.424 49.4977C318.384 50.3334 318.169 51.1729 317.802 51.9237C317.69 52.1538 317.456 52.2897 317.214 52.2897Z" fill="#11181C"/>
<path d="M291.846 45.0153C291.732 45.0153 291.617 44.9851 291.513 44.9248C290.547 44.3551 288.849 44.5852 288.278 44.7229C287.926 44.8078 287.571 44.5909 287.486 44.24C287.401 43.8891 287.616 43.5344 287.968 43.4495C288.072 43.4231 290.554 42.8364 292.18 43.7967C292.492 43.9796 292.596 44.3815 292.411 44.6927C292.288 44.9003 292.071 45.0153 291.846 45.0153Z" fill="#FF7A00"/>
<path d="M289.896 50.5598C289.511 51.9671 289.127 53.3745 288.741 54.7837C288.509 55.6326 288.276 56.5155 288.493 57.3418C288.711 58.1699 289.516 58.9245 290.549 58.9057" fill="white"/>
<path d="M290.507 59.5603C289.123 59.5603 288.129 58.5341 287.858 57.5078C287.592 56.4948 287.877 55.4496 288.108 54.6101L289.263 50.3863C289.359 50.0373 289.721 49.8316 290.068 49.926C290.418 50.0203 290.624 50.3806 290.53 50.7296L289.375 54.9535C289.176 55.6779 288.951 56.5004 289.129 57.1739C289.269 57.7059 289.813 58.2813 290.537 58.2492C290.914 58.2284 291.199 58.5303 291.207 58.8906C291.214 59.2528 290.925 59.5509 290.564 59.5584C290.545 59.5603 290.526 59.5603 290.507 59.5603Z" fill="#11181C"/>
<path d="M294.126 63.9218C293.916 63.9218 293.704 63.9105 293.495 63.886C293.135 63.8445 292.876 63.5181 292.918 63.1597C292.959 62.8012 293.287 62.5409 293.646 62.5843C294.75 62.7126 295.881 62.3938 296.754 61.7108C297.628 61.026 298.206 60.0036 298.342 58.9056C298.388 58.5453 298.715 58.2887 299.074 58.3359C299.433 58.3812 299.689 58.7076 299.645 59.066C299.465 60.5054 298.707 61.8448 297.563 62.739C296.588 63.5049 295.363 63.9218 294.126 63.9218Z" fill="#11181C"/>
<path d="M295.714 157.041C296.798 157.088 297.896 157.117 298.995 157.117C303.531 157.117 307.983 156.734 312.307 155.981C320.411 154.598 328.084 151.968 335.117 148.286C335.391 147.594 335.618 146.89 335.804 146.164L345.129 109.549L317.104 103.593L309.089 140.085L295.714 157.041Z" fill="white"/>
<path d="M298.995 157.771C297.94 157.771 296.826 157.745 295.686 157.696C295.44 157.685 295.221 157.537 295.119 157.315C295.017 157.092 295.047 156.83 295.2 156.638L308.481 139.797L316.463 103.452C316.541 103.101 316.887 102.876 317.24 102.952L345.265 108.909C345.439 108.947 345.592 109.053 345.687 109.203C345.781 109.354 345.809 109.537 345.766 109.711L336.441 146.326C336.246 147.086 336.008 147.828 335.728 148.528C335.669 148.673 335.562 148.794 335.424 148.865C328.214 152.64 320.475 155.251 312.419 156.626C308.053 157.387 303.536 157.771 298.995 157.771ZM297.03 156.434C297.701 156.453 298.359 156.462 298.995 156.462C303.463 156.462 307.902 156.083 312.194 155.336C320.035 153.998 327.569 151.469 334.594 147.818C334.817 147.233 335.004 146.635 335.166 146.001L344.323 110.047L317.605 104.366L309.73 140.223C309.71 140.319 309.666 140.41 309.606 140.487L297.03 156.434Z" fill="#11181C"/>
<path d="M347.615 102.022L344.917 122.081L340.962 120.817L327.551 116.521L310.929 111.205L318.558 81.2795C320.68 80.8362 329.736 83.3924 337.566 85.8184C344.471 87.9577 348.738 94.834 347.625 101.961C347.623 101.982 347.619 102.003 347.615 102.022Z" fill="#A0BDFF"/>
<path opacity="0.6" d="M322.822 98.9431L320.406 104.445L321.207 104.795L323.624 99.2937L322.822 98.9431Z" fill="white"/>
<path opacity="0.6" d="M321.332 109.774L320.98 110.574L325.191 112.414L325.542 111.614L321.332 109.774Z" fill="white"/>
<path opacity="0.6" d="M326.877 103.332L326.187 103.87L329.029 107.499L329.719 106.961L326.877 103.332Z" fill="white"/>
<path opacity="0.6" d="M336.099 105.272L334.76 108.32L335.562 108.671L336.901 105.623L336.099 105.272Z" fill="white"/>
<path opacity="0.6" d="M326.696 94.5537L326.345 95.3538L331.62 97.6587L331.971 96.8586L326.696 94.5537Z" fill="white"/>
<path opacity="0.6" d="M335.848 88.4302L334.392 91.7461L335.194 92.0966L336.65 88.7808L335.848 88.4302Z" fill="white"/>
<path opacity="0.6" d="M341.82 94.5483L340.782 96.9121L341.584 97.2626L342.622 94.8988L341.82 94.5483Z" fill="white"/>
<path d="M344.915 122.735C344.847 122.735 344.781 122.726 344.715 122.705L310.732 111.829C310.388 111.718 310.197 111.35 310.307 111.007L316.813 90.6459C316.923 90.3007 317.293 90.1083 317.637 90.2215C317.983 90.3309 318.174 90.6987 318.063 91.044L311.755 110.781L344.371 121.218L346.917 102.616C346.967 102.257 347.297 102.005 347.657 102.055C348.016 102.105 348.267 102.435 348.218 102.793L345.565 122.169C345.539 122.362 345.429 122.532 345.265 122.635C345.159 122.701 345.038 122.735 344.915 122.735Z" fill="#11181C"/>
<path d="M298.995 157.771C297.94 157.771 296.826 157.745 295.686 157.696C295.478 157.692 295.255 157.681 295.035 157.669L294.725 157.654C283.857 157.079 273.443 154.328 263.766 149.48C263.74 149.474 263.655 149.431 263.579 149.388C236.89 135.96 220.291 109.073 220.291 79.2363C220.291 35.9355 255.598 0.707031 298.995 0.707031C342.397 0.707031 377.706 35.9355 377.706 79.2363C377.706 108.268 361.756 134.814 336.078 148.52C335.864 148.637 335.637 148.758 335.408 148.871C328.212 152.64 320.472 155.251 312.417 156.626C308.053 157.386 303.536 157.771 298.995 157.771ZM298.995 2.01626C256.321 2.01626 221.603 36.6561 221.603 79.2344C221.603 108.573 237.924 135.012 264.197 148.233C264.218 148.241 264.336 148.297 264.354 148.309C273.869 153.076 284.109 155.781 294.788 156.345L295.1 156.36C295.308 156.371 295.518 156.381 295.727 156.386C296.864 156.436 297.957 156.462 298.993 156.462C303.461 156.462 307.9 156.083 312.192 155.336C320.114 153.983 327.723 151.416 334.809 147.705C335.034 147.594 335.246 147.48 335.45 147.369C360.707 133.89 376.39 107.785 376.39 79.2363C376.394 36.658 341.673 2.01626 298.995 2.01626Z" fill="#11181C"/>
<path d="M247.493 113.359C247.228 113.359 246.98 113.199 246.88 112.939L244.759 107.426C244.628 107.089 244.799 106.709 245.137 106.579C245.475 106.451 245.855 106.619 245.986 106.956L248.107 112.469C248.238 112.807 248.068 113.186 247.729 113.316C247.65 113.344 247.57 113.359 247.493 113.359Z" fill="#11181C"/>
<path d="M265.281 124.979L259.535 133.209C255.57 137.375 250.127 139.644 244.534 139.644C242.669 139.644 240.788 139.391 238.941 138.876C233.112 137.243 228.298 133.139 225.751 127.646L206.365 81.2249C206.365 81.2249 201.115 70.5191 198.339 67.0706C197.481 65.9877 197.377 64.1804 197.017 63.1844C195.442 58.836 198.042 55.6139 198.865 55.4912C199.837 51.6749 202.41 51.7182 202.89 51.7711C202.951 51.7805 202.97 51.7711 202.97 51.7711C203.801 48.4697 207.407 48.3565 207.407 48.3565L202.699 35.7113C202.07 33.9908 202.646 32.0779 204.134 31.0045C204.703 30.5932 205.342 30.3499 205.989 30.2631C207.538 30.0631 209.148 30.7611 210.007 32.2024L228.963 69.0099L245.366 107.189L250.529 102.246L265.281 124.979Z" fill="white"/>
<path d="M244.534 140.301C242.592 140.301 240.65 140.035 238.765 139.509C232.749 137.824 227.789 133.6 225.157 127.924L205.76 81.478C205.724 81.4082 200.525 70.8344 197.829 67.4802C197.15 66.6237 196.889 65.439 196.679 64.4863C196.588 64.0751 196.503 63.6865 196.401 63.4054C195.178 60.0285 196.356 57.4742 196.919 56.5329C197.269 55.948 197.785 55.3104 198.316 55.0086C199.29 51.6695 201.487 51.162 202.486 51.111C203.24 49.0133 205.11 48.1059 206.505 47.8135L202.085 35.9398C201.345 33.9213 202.015 31.7273 203.75 30.4747C204.388 30.0144 205.133 29.7182 205.904 29.6144C207.78 29.3711 209.614 30.2539 210.572 31.8669L229.548 68.7083L245.594 106.059L250.074 101.771C250.215 101.635 250.41 101.571 250.603 101.594C250.798 101.616 250.972 101.724 251.078 101.888L265.829 124.622C265.975 124.845 265.969 125.133 265.816 125.352L260.07 133.583C260.051 133.609 260.03 133.636 260.008 133.66C255.995 137.881 250.353 140.301 244.534 140.301ZM202.608 52.4108C201.96 52.4108 200.253 52.7051 199.502 55.6518C199.438 55.9084 199.224 56.099 198.963 56.1386C198.532 56.3008 196.222 59.0532 197.638 62.962C197.768 63.3223 197.863 63.7525 197.963 64.2052C198.154 65.0693 198.369 66.0483 198.857 66.6633C201.642 70.1251 206.742 80.497 206.957 80.9366L226.36 127.393C228.822 132.7 233.475 136.664 239.121 138.245C240.89 138.739 242.713 138.988 244.536 138.988C249.981 138.988 255.26 136.73 259.026 132.791L264.492 124.962L250.412 103.263L245.821 107.657C245.666 107.806 245.447 107.87 245.235 107.827C245.023 107.783 244.848 107.64 244.763 107.444L228.36 69.2648L209.423 32.4989C208.75 31.3726 207.426 30.7331 206.074 30.9104C205.52 30.9859 204.981 31.201 204.518 31.533C203.265 32.4385 202.78 34.0269 203.316 35.4852L208.024 48.1266C208.097 48.3247 208.071 48.5454 207.954 48.7209C207.836 48.8963 207.64 49.0038 207.43 49.0095C207.305 49.0133 204.306 49.1604 203.609 51.9298C203.561 52.1166 203.435 52.275 203.261 52.3599C203.144 52.4165 202.934 52.4391 202.803 52.4203C202.758 52.4165 202.692 52.4108 202.608 52.4108Z" fill="#11181C"/>
<path d="M202.03 67.81C202.03 67.81 200.031 66.7064 197.019 63.1824C195.444 58.8397 198.042 55.6025 198.863 55.4968L207.462 64.2804C207.46 64.2804 208.472 71.9678 202.03 67.81Z" fill="white"/>
<path d="M205.223 69.6945C204.244 69.6945 203.06 69.2512 201.688 68.3683C201.442 68.2287 199.438 67.0214 196.518 63.6049C196.467 63.5445 196.428 63.4766 196.401 63.4031C195.163 59.9885 196.373 57.4191 196.951 56.4721C197.167 56.1174 197.938 54.9534 198.778 54.844C198.982 54.8176 199.188 54.8893 199.332 55.0364L207.931 63.82C208.029 63.9218 208.093 64.052 208.112 64.1916C208.163 64.5878 208.564 68.0872 206.632 69.3059C206.222 69.5662 205.753 69.6945 205.223 69.6945ZM197.596 62.8484C200.428 66.1422 202.329 67.227 202.347 67.2364C202.359 67.244 202.372 67.2515 202.383 67.2591C204.011 68.3098 205.237 68.6381 205.927 68.2023C206.885 67.5986 206.912 65.514 206.83 64.5746L198.732 56.3004C198.048 56.9475 196.418 59.4471 197.596 62.8484Z" fill="#11181C"/>
<path d="M212.346 60.7261C212.314 60.7185 212.281 60.7148 212.255 60.7053C209.116 59.9904 202.979 51.7765 202.979 51.7765C203.805 48.4676 207.405 48.3525 207.405 48.3525L214.826 56.1664C216.645 58.0756 214.94 61.2543 212.346 60.7261Z" fill="white"/>
<path d="M212.905 61.4393C212.678 61.4393 212.448 61.4167 212.215 61.3695C212.208 61.3676 212.2 61.3657 212.191 61.3638C212.153 61.3563 212.064 61.3355 212.036 61.3242C208.829 60.5979 203.096 53.0293 202.453 52.1691C202.336 52.0125 202.294 51.8087 202.342 51.6182C203.09 48.6205 205.968 47.7433 207.384 47.6981C207.566 47.6924 207.753 47.766 207.882 47.9018L215.303 55.7157C216.345 56.8098 216.539 58.3756 215.8 59.7056C215.191 60.8017 214.1 61.4393 212.905 61.4393ZM212.476 60.0848C213.544 60.3017 214.301 59.7037 214.65 59.0717C214.996 58.4492 215.125 57.4324 214.348 56.6174L207.144 49.0337C206.395 49.1318 204.376 49.5827 203.697 51.6446C205.52 54.0405 210.105 59.5453 212.399 60.0678L212.476 60.0848Z" fill="#11181C"/>
<path d="M210.103 64.2523C206.246 66.3199 198.863 55.497 198.863 55.497C199.836 51.6693 202.408 51.7203 202.896 51.7712C202.894 51.7693 213.926 62.2016 210.103 64.2523Z" fill="white"/>
<path d="M209.048 65.1634C204.798 65.1634 199.029 56.9043 198.32 55.8649C198.214 55.7102 198.18 55.5178 198.228 55.3348C199.362 50.877 202.599 51.0826 202.964 51.1166C203.108 51.1317 203.244 51.1939 203.348 51.292C204.236 52.1334 212.024 59.6152 211.544 63.2128C211.45 63.924 211.058 64.4824 210.415 64.8276C209.984 65.0597 209.527 65.1634 209.048 65.1634ZM199.576 55.3763C202.346 59.3606 207.413 64.954 209.793 63.675C210.064 63.5297 210.202 63.3335 210.241 63.0411C210.533 60.8679 205.794 55.4461 202.62 52.4107C201.969 52.4145 200.357 52.7069 199.576 55.3763Z" fill="#11181C"/>
<path d="M228.967 69.4533L228.472 52.5691C228.249 49.7092 225.802 47.5378 222.93 47.6491L215.161 47.6623C214.191 47.7001 213.478 48.5886 213.654 49.5413C214.081 51.8617 216.044 53.5897 218.405 53.7236L221.387 54.35L219.997 57.0288C218.05 59.7699 217.447 62.5958 218.26 64.8464" fill="white"/>
<path d="M228.967 70.1077C228.614 70.1077 228.322 69.8266 228.311 69.4719L227.816 52.5878C227.621 50.0995 225.486 48.2017 222.955 48.3035L215.161 48.3167C214.91 48.3262 214.662 48.4507 214.49 48.6676C214.318 48.8827 214.25 49.1506 214.299 49.4222C214.673 51.4521 216.377 52.9519 218.441 53.0688C218.474 53.0707 218.508 53.0745 218.54 53.082L221.521 53.7084C221.722 53.7499 221.892 53.8838 221.979 54.0687C222.066 54.2536 222.062 54.4686 221.97 54.6497L220.58 57.3285C220.567 57.355 220.55 57.3814 220.533 57.4059C218.736 59.9338 218.133 62.5636 218.876 64.6217C218.999 64.9613 218.823 65.3367 218.481 65.4593C218.141 65.582 217.765 65.4065 217.642 65.0651C216.755 62.6089 217.407 59.5565 219.434 56.6853L220.406 54.8101L218.315 54.3705C215.666 54.197 213.488 52.2652 213.006 49.6562C212.886 49.0148 213.053 48.3545 213.463 47.8451C213.871 47.3358 214.48 47.0302 215.133 47.0037L222.926 46.9905C226.131 46.8679 228.873 49.2902 229.124 52.5142L229.621 69.4304C229.633 69.7926 229.347 70.0945 228.984 70.1039C228.98 70.1077 228.975 70.1077 228.967 70.1077Z" fill="#11181C"/>
<path d="M105.487 90.3611C108.62 90.3611 111.161 87.8264 111.161 84.6997C111.161 81.573 108.62 79.0383 105.487 79.0383C102.353 79.0383 99.8127 81.573 99.8127 84.6997C99.8127 87.8264 102.353 90.3611 105.487 90.3611Z" fill="#1150CB"/>
<path d="M117.228 64.5688C114.095 67.3703 112.539 71.5356 113.059 75.6991L113.125 76.2236L95.9953 78.3534L95.9291 77.829C95.3997 73.5957 92.7526 69.9812 88.9749 67.9683C82.0889 64.299 77.033 57.4586 75.995 49.1391C74.2272 34.981 84.7775 22.1207 99.2984 21.2944C111.872 20.5832 123.137 29.6026 125.188 41.995C126.644 50.7578 123.33 59.1225 117.228 64.5688Z" fill="#FFCE6D"/>
<path d="M100.758 76.599C100.439 76.599 100.159 76.3651 100.11 76.0406L97.0806 55.674C96.069 55.6231 95.0575 55.5137 94.0478 55.3495L90.1567 54.7138C89.1281 54.5459 88.2319 53.9856 87.6288 53.1385C87.0275 52.2896 86.7968 51.2596 86.9802 50.2371C87.1844 49.0939 87.884 48.1148 88.9012 47.5507C89.9165 46.9848 91.121 46.9056 92.2025 47.3338C95.2579 48.543 97.5098 51.2143 98.1961 54.3987C100.525 54.4195 102.849 54.1346 105.103 53.5404C104.988 50.2862 106.512 47.1452 109.178 45.2247C110.121 44.5437 111.307 44.3267 112.431 44.6248C113.556 44.9228 114.475 45.702 114.956 46.7603C115.385 47.7073 115.415 48.7638 115.041 49.7315C114.666 50.7012 113.933 51.4633 112.978 51.8784L109.359 53.4479C108.423 53.8535 107.47 54.2063 106.502 54.5044L108.574 74.9899C108.61 75.3502 108.347 75.6709 107.988 75.7067C107.625 75.7463 107.306 75.4803 107.27 75.12L105.22 54.8628C102.997 55.4306 100.715 55.723 98.4154 55.708L101.41 75.8482C101.463 76.2066 101.216 76.5387 100.858 76.5915C100.822 76.5971 100.79 76.599 100.758 76.599ZM90.7787 48.3714C90.3514 48.3714 89.926 48.4789 89.5403 48.694C88.8691 49.0675 88.4077 49.7127 88.2735 50.4673C88.1525 51.1426 88.3056 51.8218 88.7027 52.3821C89.0997 52.9424 89.6916 53.3102 90.3703 53.4215L94.2615 54.0573C95.118 54.1969 95.9783 54.2931 96.8367 54.3478C96.1617 51.7331 94.2634 49.558 91.7184 48.5506C91.414 48.4299 91.0964 48.3714 90.7787 48.3714ZM111.433 45.802C110.904 45.802 110.386 45.9661 109.945 46.283C107.727 47.8809 106.421 50.456 106.409 53.1555C107.228 52.8933 108.037 52.5896 108.833 52.2443L112.452 50.6748C113.082 50.4012 113.566 49.8976 113.814 49.258C114.061 48.6185 114.041 47.9224 113.759 47.298C113.443 46.6 112.836 46.0868 112.093 45.8887C111.874 45.8321 111.653 45.802 111.433 45.802Z" fill="white"/>
<path d="M115.841 82.8489L94.997 85.441C94.6793 85.4806 94.3901 85.2561 94.3504 84.9391L93.3445 76.8895C93.3048 76.5725 93.5298 76.2839 93.8474 76.2443L114.691 73.6522C115.009 73.6126 115.298 73.8371 115.338 74.154L116.343 82.2018C116.383 82.5207 116.158 82.8093 115.841 82.8489Z" fill="#1150CB"/>
<path d="M97.2798 13.1615L95.2534 13.4133L95.773 17.5749L97.7993 17.323L97.2798 13.1615Z" fill="#FFCE6D"/>
<path d="M81.1922 19.1158L79.5635 20.3447L82.0987 23.6896L83.7274 22.4607L81.1922 19.1158Z" fill="#FFCE6D"/>
<path d="M70.2401 32.2899L69.4455 34.1667L73.3174 35.7985L74.112 33.9217L70.2401 32.2899Z" fill="#FFCE6D"/>
<path d="M114.198 16.0315L112.317 15.2388L110.682 19.102L112.563 19.8947L114.198 16.0315Z" fill="#FFCE6D"/>
<path d="M318.411 206.421L318.515 197.162L313.678 197.109C313.128 194.351 312.065 191.772 310.602 189.472L314.06 186.094L307.571 179.472L304.113 182.851C301.842 181.336 299.282 180.223 296.531 179.612L296.584 174.786L287.299 174.682L287.246 179.508C284.481 180.057 281.897 181.111 279.592 182.577L276.209 179.121L269.573 185.596L272.955 189.052C271.441 191.317 270.322 193.872 269.711 196.616L264.874 196.564L264.77 205.823L269.607 205.875C270.157 208.639 271.22 211.216 272.683 213.512L269.225 216.891L275.714 223.512L279.172 220.134C281.443 221.648 284.003 222.761 286.754 223.371L286.699 228.2L295.985 228.304L296.04 223.475C298.804 222.926 301.388 221.871 303.693 220.405L307.076 223.861L313.712 217.387L310.33 213.931C311.844 211.669 312.964 209.116 313.574 206.366L318.411 206.421ZM292.43 212.676C285.504 213.146 279.834 207.366 280.456 200.461C280.944 195.032 285.406 190.678 290.857 190.312C297.787 189.848 303.453 195.63 302.829 202.529C302.338 207.956 297.879 212.306 292.43 212.676Z" fill="#A0BDFF"/>
<path d="M374.462 31.0837L378.544 57.97C378.763 59.4113 377.769 60.7564 376.324 60.9752L347.307 65.3613C346.919 65.4198 346.551 65.5632 346.225 65.782L337.863 71.3962C336.252 72.4772 334.06 71.517 333.769 69.6022L328.965 37.9618C328.746 36.5206 329.74 35.1755 331.185 34.9566L371.446 28.8708C372.894 28.6501 374.242 29.6424 374.462 31.0837Z" fill="#6A8AFF"/>
<path d="M340.101 46.3678L368.329 42.5847L367.827 38.8565L339.599 42.6396L340.101 46.3678Z" fill="white"/>
<path d="M353.377 52.7398L369.408 50.5913L368.906 46.8631L352.875 49.0116L353.377 52.7398Z" fill="white"/>
<path d="M217.685 236.567C217.517 236.567 217.349 236.503 217.222 236.374L215.053 234.211L213.741 233.048C213.471 232.809 213.446 232.394 213.686 232.124C213.927 231.854 214.342 231.83 214.613 232.069L215.953 233.258L218.15 235.448C218.408 235.705 218.408 236.118 218.15 236.374C218.022 236.503 217.854 236.567 217.685 236.567Z" fill="white"/>
<path d="M37.5864 180.602C52.759 180.602 65.0589 168.329 65.0589 153.191C65.0589 138.052 52.759 125.78 37.5864 125.78C22.4138 125.78 10.1139 138.052 10.1139 153.191C10.1139 168.329 22.4138 180.602 37.5864 180.602Z" fill="white"/>
<path d="M37.5865 181.257C22.0767 181.257 9.45792 168.666 9.45792 153.191C9.45792 137.716 22.0767 125.126 37.5865 125.126C53.0962 125.126 65.715 137.716 65.715 153.191C65.715 168.666 53.0962 181.257 37.5865 181.257ZM37.5865 126.435C22.799 126.435 10.7701 138.437 10.7701 153.191C10.7701 167.945 22.799 179.947 37.5865 179.947C52.374 179.947 64.4029 167.945 64.4029 153.191C64.4029 138.437 52.3721 126.435 37.5865 126.435Z" fill="#11181C"/>
<path d="M16.0869 165.255C18.7244 168.659 21.7875 171.717 25.2002 174.348C27.2801 175.955 29.9989 175.62 31.0956 173.824C32.2584 172.064 34.6747 171.601 36.626 172.59C38.6188 173.605 40.7005 174.471 42.8598 175.174C44.9698 175.867 46.4181 177.914 45.9927 179.979C45.4406 182.447 44.8866 184.913 44.3345 187.38C43.9148 189.438 41.073 190.591 38.131 189.633C20.4356 183.877 6.53673 170.007 0.768079 152.354C-0.194308 149.418 0.960935 146.585 3.02562 146.164C5.49871 145.613 7.96992 145.06 10.443 144.509C12.5134 144.085 14.5648 145.53 15.2587 147.635C15.9621 149.79 16.8299 151.869 17.849 153.855C18.8398 155.802 18.3784 158.213 16.6125 159.373C14.8125 160.467 14.476 163.178 16.0869 165.255Z" fill="#FF7A00"/>
<path d="M29.0253 160.624C28.8968 160.624 28.6982 160.601 28.4297 160.558C28.1613 160.514 27.9665 160.494 27.8493 160.494L25.588 160.486C25.3932 160.486 25.0983 160.511 24.7031 160.558C24.3079 160.607 24.0111 160.631 23.8107 160.631C23.7539 160.631 23.6726 160.622 23.5649 160.601C23.4571 160.58 23.3758 160.571 23.3191 160.571C22.8577 160.571 22.5458 160.384 22.3813 160.011C22.2792 159.775 22.2281 159.413 22.2281 158.92C22.2281 157.964 22.4418 157.164 22.8672 156.519C23.1943 156.023 23.7256 155.526 24.4592 155.03C25.1512 154.576 25.8413 154.123 26.5277 153.672C27.3369 153.083 27.7434 152.416 27.7434 151.669C27.7434 151.474 27.5827 151.282 27.2594 151.089C26.9361 150.897 26.6222 150.803 26.314 150.803C25.7714 150.803 25.1947 151.044 24.5878 151.527C23.9808 152.01 23.563 152.252 23.338 152.252C23.0657 152.252 22.8275 152.185 22.6233 152.052C22.3661 151.887 22.2395 151.661 22.2395 151.369C22.2395 151.057 22.368 150.788 22.6233 150.563C23.2434 150.016 23.7842 149.616 24.2455 149.365C24.9111 149.003 25.6012 148.822 26.314 148.822C27.2008 148.822 28.0006 149.054 28.7134 149.52C29.5283 150.052 29.9367 150.748 29.9367 151.606C29.9367 152.476 29.7363 153.216 29.3373 153.825C29.0253 154.31 28.53 154.783 27.8531 155.243C27.2121 155.647 26.5712 156.049 25.9302 156.447C24.9565 157.081 24.4327 157.805 24.3609 158.618C24.6426 158.583 25.0586 158.541 25.6069 158.496C26.6997 158.439 27.4806 158.411 27.9533 158.411C28.3938 158.411 28.8306 158.505 29.2598 158.696C29.793 158.93 30.0596 159.232 30.0596 159.601C30.0596 159.867 29.965 160.099 29.7741 160.299C29.5718 160.516 29.3241 160.624 29.0253 160.624ZM36.4843 157.439H33.4156C31.7707 157.439 30.9482 157.104 30.9482 156.434C30.9482 156.153 31.0919 155.838 31.3793 155.491C31.6156 155.225 31.8539 154.957 32.094 154.685C32.9184 153.51 34.1776 151.759 35.8698 149.437C36.2707 148.905 36.7906 148.639 37.4316 148.639C37.7341 148.639 37.995 148.716 38.2162 148.869C38.4771 149.052 38.6076 149.31 38.6076 149.642L38.6152 155.413C39.2864 155.434 39.7345 155.502 39.9614 155.621C40.2129 155.759 40.3376 156.03 40.3376 156.434C40.3433 156.858 40.1486 157.151 39.7534 157.309C39.4774 157.417 39.0973 157.46 38.6152 157.439C38.6303 158.177 38.6284 158.973 38.6076 159.833C38.6019 160.114 38.5093 160.348 38.3316 160.531C38.1519 160.716 37.908 160.807 37.6017 160.807C36.8228 160.807 36.4503 160.296 36.4862 159.271V157.439H36.4843ZM36.4843 151.969C35.987 152.751 35.2213 153.9 34.1852 155.413H36.4843V151.969ZM48.1729 149.576C47.9725 150.007 47.6832 150.671 47.3031 151.57C46.9552 152.476 46.4618 153.525 45.8265 154.717C45.2668 155.73 44.709 156.745 44.1494 157.764C44.0416 157.968 43.5784 158.945 42.7578 160.695C42.5687 161.099 42.2681 161.301 41.8578 161.301C41.5912 161.301 41.3586 161.218 41.1582 161.048C40.9427 160.863 40.8349 160.639 40.8349 160.373C40.8349 160.256 40.8576 160.137 40.9049 160.02C41.3095 158.971 42.0658 157.46 43.1738 155.481C44.2817 153.504 45.0361 151.987 45.4426 150.929C45.7508 150.125 45.9777 149.58 46.1271 149.293C46.5279 148.511 46.9042 148.126 47.2578 148.135C47.5187 148.145 47.7493 148.235 47.9498 148.403C48.1653 148.588 48.2731 148.811 48.2731 149.069C48.2731 149.227 48.239 149.397 48.1729 149.576ZM54.764 151.14C54.1892 151.135 53.1209 151.112 51.5573 151.071C51.1678 151.071 50.5855 151.054 49.8121 151.018C49.1296 150.961 48.7893 150.631 48.7893 150.027C48.7893 149.746 48.8914 149.51 49.0974 149.322C49.3016 149.133 49.5531 149.037 49.85 149.037C50.4966 149.037 51.4665 149.056 52.7598 149.095C54.0531 149.133 55.0249 149.152 55.6697 149.152H57.0764C57.3524 149.152 57.5963 149.205 57.8062 149.312C58.0671 149.446 58.1976 149.642 58.1976 149.903C58.1976 150.184 58.0444 150.52 57.7362 150.908C57.4791 151.195 57.2201 151.482 56.9591 151.767C56.3087 152.487 55.7056 153.374 55.1516 154.421C54.9777 154.749 54.5182 155.708 53.7751 157.298C53.6768 157.507 53.4594 158.081 53.1209 159.016C52.8638 159.722 52.6029 160.275 52.3363 160.675C52.1321 160.967 51.8466 161.112 51.4836 161.112C51.2018 161.112 50.9504 161.016 50.7292 160.828C50.5079 160.639 50.3983 160.403 50.3983 160.122C50.3983 159.901 50.5703 159.39 50.9145 158.588C51.4684 157.3 52.0186 156.009 52.567 154.721C53.2798 153.221 54.0096 152.025 54.764 151.14Z" fill="#11181C"/>
<path d="M31.1485 247.442L27.7319 249.587C26.1286 250.585 24.0223 250.106 23.0202 248.518L20.8704 245.109C19.8683 243.52 20.3467 241.417 21.9406 240.417L25.359 238.261C26.9511 237.261 29.0573 237.738 30.0708 239.33L32.2187 242.751C33.2207 244.339 32.7424 246.441 31.1485 247.442Z" fill="#A0BDFF"/>
<path d="M206.184 139.959L203.565 141.604C202.336 142.368 200.722 142.002 199.952 140.784L198.303 138.171C197.536 136.952 197.902 135.341 199.124 134.575L201.744 132.923C202.966 132.157 204.581 132.523 205.358 133.743L207.004 136.365C207.772 137.58 207.405 139.191 206.184 139.959Z" fill="#A0BDFF"/>
<path d="M73.157 102.414L71.3476 103.55C70.4986 104.078 69.3831 103.825 68.8518 102.984L67.7136 101.178C67.1823 100.337 67.4375 99.224 68.2789 98.6939L70.0883 97.5526C70.9316 97.0225 72.0471 97.2772 72.5841 98.1186L73.7204 99.9296C74.2536 100.773 74.0003 101.884 73.157 102.414Z" fill="#A0BDFF"/>
<path d="M166.023 69.6722L164.213 70.8078C163.364 71.3361 162.249 71.0833 161.717 70.2419L160.579 68.4365C160.048 67.5951 160.303 66.4821 161.145 65.952L162.954 64.8107C163.797 64.2806 164.913 64.5352 165.45 65.3766L166.586 67.1877C167.119 68.0309 166.864 69.1439 166.023 69.6722Z" fill="#A0BDFF"/>
</g>
<defs>
<clipPath id="clip0_3548_15588">
<rect width="379" height="313" fill="white"/>
</clipPath>
</defs>
</svg>
